M48
; DRILL file {KiCad (5.1.0-0)} date Sunday, April 07, 2019 at 10:11:45 PM
; FORMAT={-:-/ absolute / inch / decimal}
; #@! TF.CreationDate,2019-04-07T22:11:45-05:00
; #@! TF.GenerationSoftware,Kicad,Pcbnew,(5.1.0-0)
; #@! TF.FileFunction,Plated,1,2,PTH
FMAT,2
INCH
T1C0.0100
T2C0.0150
T3C0.0197
T4C0.0330
T5C0.0394
T6C0.1260
%
G90
G05
T1
X3.7629Y-3.814
X3.846Y-3.714
X4.1022Y-3.714
X4.3429Y-3.714
X4.456Y-4.199
X4.601Y-3.499
X4.631Y-3.194
X4.631Y-3.754
X4.641Y-3.484
X4.681Y-3.159
X4.731Y-3.124
X4.787Y-3.818
X4.796Y-3.214
X4.816Y-3.399
X4.831Y-3.124
X4.831Y-3.499
X4.841Y-3.214
X4.856Y-4.4939
X4.881Y-3.124
X4.886Y-3.214
X4.906Y-3.639
X4.926Y-3.234
X4.926Y-3.329
X4.956Y-3.979
X4.956Y-4.4939
X4.971Y-3.329
X5.006Y-3.779
X5.016Y-3.329
X5.016Y-3.549
X5.016Y-3.599
X5.056Y-4.4939
X5.086Y-3.299
X5.086Y-3.349
X5.086Y-3.399
X5.086Y-3.449
X5.086Y-3.499
X5.086Y-3.549
X5.191Y-3.599
X5.231Y-3.649
X5.356Y-3.124
X5.436Y-3.2871
X5.436Y-3.3609
X5.4729Y-3.704
X5.483Y-3.4645
X5.581Y-3.399
X5.626Y-3.644
X5.656Y-3.569
X5.656Y-3.644
X5.681Y-3.594
X5.706Y-4.234
X5.716Y-3.374
X5.756Y-3.714
X5.7591Y-3.829
X5.8329Y-3.829
X5.856Y-3.274
X6.006Y-4.224
X6.011Y-3.594
X6.056Y-3.619
X6.056Y-3.714
X6.071Y-4.744
X6.106Y-3.569
X6.106Y-3.669
X6.136Y-3.249
X6.136Y-3.299
X6.141Y-4.719
X6.171Y-3.199
X6.171Y-3.349
X6.211Y-4.474
X6.216Y-3.399
X6.221Y-3.164
X6.236Y-4.509
X6.241Y-3.314
X6.256Y-4.764
X6.266Y-3.339
X6.291Y-3.364
X6.316Y-3.389
X6.346Y-3.419
X6.356Y-3.124
X6.371Y-3.439
X6.416Y-3.574
X6.431Y-3.599
X6.456Y-4.334
X6.456Y-4.474
X6.461Y-3.544
X6.486Y-3.524
X6.506Y-4.369
X6.506Y-4.649
X6.541Y-4.604
X6.576Y-3.894
X6.591Y-4.334
X6.616Y-4.314
X6.636Y-3.554
X6.666Y-3.559
X6.696Y-3.564
X6.706Y-4.269
X6.706Y-4.369
X6.726Y-3.569
X6.731Y-4.244
X6.756Y-3.574
X6.761Y-3.604
X6.766Y-3.779
X6.816Y-3.584
X6.816Y-3.619
X6.8179Y-3.819
X6.846Y-3.459
X6.881Y-3.534
X6.906Y-3.594
X6.906Y-3.754
X6.936Y-3.659
X6.966Y-3.584
X6.996Y-3.579
X7.021Y-3.979
X7.026Y-3.539
X7.056Y-3.534
X7.086Y-3.529
X7.106Y-4.024
X7.116Y-3.524
X7.226Y-3.774
X7.5629Y-3.699
X7.811Y-4.064
X8.0441Y-3.694
X8.0441Y-3.789
X8.461Y-3.939
T2
X5.056Y-4.6041
X7.841Y-4.094
T3
X8.5405Y-4.6
X8.5682Y-4.5332
X8.5682Y-4.6668
X8.635Y-4.5055
X8.635Y-4.6945
X8.7018Y-4.5332
X8.7018Y-4.6668
X8.7295Y-4.6
X2.9805Y-3.175
X3.0082Y-3.1082
X3.0082Y-3.2418
X3.075Y-3.0805
X3.075Y-3.2695
X3.1418Y-3.1082
X3.1418Y-3.2418
X3.1695Y-3.175
X8.5405Y-3.175
X8.5682Y-3.1082
X8.5682Y-3.2418
X8.635Y-3.0805
X8.635Y-3.2695
X8.7018Y-3.1082
X2.9805Y-4.6
X3.0082Y-4.5332
X3.0082Y-4.6668
X3.075Y-4.5055
X3.075Y-4.6945
X3.1418Y-4.5332
X3.1418Y-4.6668
X3.1695Y-4.6
X8.7018Y-3.2418
X8.7295Y-3.175
T4
X3.9802Y-3.9988
X3.9943Y-4.1145
X4.0216Y-3.8897
X4.0605Y-4.2105
X4.1089Y-3.8124
X4.1638Y-4.2647
X4.2221Y-3.7845
X4.2804Y-4.2647
X4.3353Y-3.8124
X4.3837Y-4.2105
X4.4226Y-3.8897
X4.4499Y-4.1145
X4.464Y-3.9988
X8.0747Y-3.9988
X8.0888Y-4.1145
X3.1535Y-3.9988
X3.1676Y-4.1145
X8.1161Y-3.8897
X8.155Y-4.2105
X3.1949Y-3.8897
X3.2338Y-4.2105
X3.2822Y-3.8124
X3.3371Y-4.2647
X3.3954Y-3.7845
X3.4537Y-4.2647
X3.5086Y-3.8124
X3.557Y-4.2105
X3.5959Y-3.8897
X3.6232Y-4.1145
X3.6373Y-3.9988
X8.2034Y-3.8124
X8.2583Y-4.2647
X8.3166Y-3.7845
X8.3749Y-4.2647
X8.4298Y-3.8124
X8.4782Y-4.2105
X8.5171Y-3.8897
X8.5444Y-4.1145
X8.5585Y-3.9988
X7.248Y-3.9988
X7.2621Y-4.1145
X7.2894Y-3.8897
X7.3283Y-4.2105
X7.3767Y-3.8124
X7.4316Y-4.2647
X7.4899Y-3.7845
X7.5482Y-4.2647
X7.6031Y-3.8124
X7.6515Y-4.2105
X7.6904Y-3.8897
X7.7177Y-4.1145
X7.7318Y-3.9988
X6.0275Y-3.9988
X6.0416Y-4.1145
X6.0689Y-3.8897
X6.1078Y-4.2105
X6.1562Y-3.8124
X6.2111Y-4.2647
X6.2694Y-3.7845
X6.3277Y-4.2647
X6.3826Y-3.8124
X6.431Y-4.2105
X6.4699Y-3.8897
X6.4972Y-4.1145
X6.5113Y-3.9988
X5.2007Y-3.9988
X5.2148Y-4.1145
X5.2421Y-3.8897
X5.281Y-4.2105
X5.3294Y-3.8124
X5.3843Y-4.2647
X5.4426Y-3.7845
X5.5009Y-4.2647
X5.5558Y-3.8124
X5.6042Y-4.2105
X5.6431Y-3.8897
X5.6704Y-4.1145
X5.6845Y-3.9988
T5
X5.605Y-4.5
X5.705Y-4.5
X5.705Y-4.6
X5.805Y-4.5
X5.805Y-4.6
X5.905Y-4.6
X6.005Y-4.5
X6.005Y-4.6
X6.105Y-4.5
X6.105Y-4.6
X8.606Y-3.899
X5.605Y-4.6
X8.606Y-3.399
X8.606Y-3.499
X8.606Y-3.599
X8.606Y-3.699
X8.606Y-3.799
X8.706Y-3.399
X8.706Y-3.499
X8.706Y-3.599
X8.706Y-3.699
X8.706Y-3.799
X5.905Y-4.5
X4.7778Y-3.9772
X4.8778Y-3.9772
X8.706Y-3.899
X4.7778Y-4.0772
X4.8778Y-4.0772
X6.8272Y-3.9772
X6.9272Y-3.9772
X6.8272Y-4.0772
X6.9272Y-4.0772
T6
X8.635Y-4.6
X3.075Y-3.175
X8.635Y-3.175
X3.075Y-4.6
T0
M30
