G04 #@! TF.GenerationSoftware,KiCad,Pcbnew,(5.1.0-0)*
G04 #@! TF.CreationDate,2019-04-07T22:11:40-05:00*
G04 #@! TF.ProjectId,IN-14,494e2d31-342e-46b6-9963-61645f706362,rev?*
G04 #@! TF.SameCoordinates,Original*
G04 #@! TF.FileFunction,Soldermask,Top*
G04 #@! TF.FilePolarity,Negative*
%FSLAX46Y46*%
G04 Gerber Fmt 4.6, Leading zero omitted, Abs format (unit mm)*
G04 Created by KiCad (PCBNEW (5.1.0-0)) date 2019-04-07 22:11:40*
%MOMM*%
%LPD*%
G04 APERTURE LIST*
%ADD10C,0.100000*%
G04 APERTURE END LIST*
D10*
G36*
X220277222Y-113714126D02*
G01*
X220855389Y-113953611D01*
X220868831Y-113959179D01*
X221401264Y-114314939D01*
X221854061Y-114767736D01*
X222192627Y-115274437D01*
X222209822Y-115300171D01*
X222454874Y-115891778D01*
X222579800Y-116519823D01*
X222579800Y-117160177D01*
X222454874Y-117788222D01*
X222331424Y-118086256D01*
X222209821Y-118379831D01*
X221854061Y-118912264D01*
X221401264Y-119365061D01*
X220868831Y-119720821D01*
X220868830Y-119720822D01*
X220868829Y-119720822D01*
X220277222Y-119965874D01*
X219649177Y-120090800D01*
X219008823Y-120090800D01*
X218380778Y-119965874D01*
X217789171Y-119720822D01*
X217789170Y-119720822D01*
X217789169Y-119720821D01*
X217256736Y-119365061D01*
X216803939Y-118912264D01*
X216448179Y-118379831D01*
X216326576Y-118086256D01*
X216203126Y-117788222D01*
X216078200Y-117160177D01*
X216078200Y-116519823D01*
X216203126Y-115891778D01*
X216448178Y-115300171D01*
X216465373Y-115274437D01*
X216803939Y-114767736D01*
X217256736Y-114314939D01*
X217789169Y-113959179D01*
X217802611Y-113953611D01*
X218380778Y-113714126D01*
X219008823Y-113589200D01*
X219649177Y-113589200D01*
X220277222Y-113714126D01*
X220277222Y-113714126D01*
G37*
G36*
X79053222Y-113714126D02*
G01*
X79631389Y-113953611D01*
X79644831Y-113959179D01*
X80177264Y-114314939D01*
X80630061Y-114767736D01*
X80968627Y-115274437D01*
X80985822Y-115300171D01*
X81230874Y-115891778D01*
X81355800Y-116519823D01*
X81355800Y-117160177D01*
X81230874Y-117788222D01*
X81107424Y-118086256D01*
X80985821Y-118379831D01*
X80630061Y-118912264D01*
X80177264Y-119365061D01*
X79644831Y-119720821D01*
X79644830Y-119720822D01*
X79644829Y-119720822D01*
X79053222Y-119965874D01*
X78425177Y-120090800D01*
X77784823Y-120090800D01*
X77156778Y-119965874D01*
X76565171Y-119720822D01*
X76565170Y-119720822D01*
X76565169Y-119720821D01*
X76032736Y-119365061D01*
X75579939Y-118912264D01*
X75224179Y-118379831D01*
X75102576Y-118086256D01*
X74979126Y-117788222D01*
X74854200Y-117160177D01*
X74854200Y-116519823D01*
X74979126Y-115891778D01*
X75224178Y-115300171D01*
X75241373Y-115274437D01*
X75579939Y-114767736D01*
X76032736Y-114314939D01*
X76565169Y-113959179D01*
X76578611Y-113953611D01*
X77156778Y-113714126D01*
X77784823Y-113589200D01*
X78425177Y-113589200D01*
X79053222Y-113714126D01*
X79053222Y-113714126D01*
G37*
G36*
X143267800Y-117740800D02*
G01*
X141466200Y-117740800D01*
X141466200Y-115939200D01*
X143267800Y-115939200D01*
X143267800Y-117740800D01*
X143267800Y-117740800D01*
G37*
G36*
X152615362Y-115943545D02*
G01*
X152703588Y-115952234D01*
X152873389Y-116003743D01*
X152873392Y-116003744D01*
X153029878Y-116087388D01*
X153167044Y-116199956D01*
X153279612Y-116337122D01*
X153363256Y-116493608D01*
X153363257Y-116493611D01*
X153414766Y-116663412D01*
X153432158Y-116840000D01*
X153414766Y-117016588D01*
X153403558Y-117053534D01*
X153363256Y-117186392D01*
X153279612Y-117342878D01*
X153167044Y-117480044D01*
X153029878Y-117592612D01*
X152873392Y-117676256D01*
X152873389Y-117676257D01*
X152703588Y-117727766D01*
X152615362Y-117736455D01*
X152571250Y-117740800D01*
X152482750Y-117740800D01*
X152438638Y-117736455D01*
X152350412Y-117727766D01*
X152180611Y-117676257D01*
X152180608Y-117676256D01*
X152024122Y-117592612D01*
X151886956Y-117480044D01*
X151774388Y-117342878D01*
X151690744Y-117186392D01*
X151650442Y-117053534D01*
X151639234Y-117016588D01*
X151621842Y-116840000D01*
X151639234Y-116663412D01*
X151690743Y-116493611D01*
X151690744Y-116493608D01*
X151774388Y-116337122D01*
X151886956Y-116199956D01*
X152024122Y-116087388D01*
X152180608Y-116003744D01*
X152180611Y-116003743D01*
X152350412Y-115952234D01*
X152438638Y-115943545D01*
X152482750Y-115939200D01*
X152571250Y-115939200D01*
X152615362Y-115943545D01*
X152615362Y-115943545D01*
G37*
G36*
X144995362Y-115943545D02*
G01*
X145083588Y-115952234D01*
X145253389Y-116003743D01*
X145253392Y-116003744D01*
X145409878Y-116087388D01*
X145547044Y-116199956D01*
X145659612Y-116337122D01*
X145743256Y-116493608D01*
X145743257Y-116493611D01*
X145794766Y-116663412D01*
X145812158Y-116840000D01*
X145794766Y-117016588D01*
X145783558Y-117053534D01*
X145743256Y-117186392D01*
X145659612Y-117342878D01*
X145547044Y-117480044D01*
X145409878Y-117592612D01*
X145253392Y-117676256D01*
X145253389Y-117676257D01*
X145083588Y-117727766D01*
X144995362Y-117736455D01*
X144951250Y-117740800D01*
X144862750Y-117740800D01*
X144818638Y-117736455D01*
X144730412Y-117727766D01*
X144560611Y-117676257D01*
X144560608Y-117676256D01*
X144404122Y-117592612D01*
X144266956Y-117480044D01*
X144154388Y-117342878D01*
X144070744Y-117186392D01*
X144030442Y-117053534D01*
X144019234Y-117016588D01*
X144001842Y-116840000D01*
X144019234Y-116663412D01*
X144070743Y-116493611D01*
X144070744Y-116493608D01*
X144154388Y-116337122D01*
X144266956Y-116199956D01*
X144404122Y-116087388D01*
X144560608Y-116003744D01*
X144560611Y-116003743D01*
X144730412Y-115952234D01*
X144818638Y-115943545D01*
X144862750Y-115939200D01*
X144951250Y-115939200D01*
X144995362Y-115943545D01*
X144995362Y-115943545D01*
G37*
G36*
X147535362Y-115943545D02*
G01*
X147623588Y-115952234D01*
X147793389Y-116003743D01*
X147793392Y-116003744D01*
X147949878Y-116087388D01*
X148087044Y-116199956D01*
X148199612Y-116337122D01*
X148283256Y-116493608D01*
X148283257Y-116493611D01*
X148334766Y-116663412D01*
X148352158Y-116840000D01*
X148334766Y-117016588D01*
X148323558Y-117053534D01*
X148283256Y-117186392D01*
X148199612Y-117342878D01*
X148087044Y-117480044D01*
X147949878Y-117592612D01*
X147793392Y-117676256D01*
X147793389Y-117676257D01*
X147623588Y-117727766D01*
X147535362Y-117736455D01*
X147491250Y-117740800D01*
X147402750Y-117740800D01*
X147358638Y-117736455D01*
X147270412Y-117727766D01*
X147100611Y-117676257D01*
X147100608Y-117676256D01*
X146944122Y-117592612D01*
X146806956Y-117480044D01*
X146694388Y-117342878D01*
X146610744Y-117186392D01*
X146570442Y-117053534D01*
X146559234Y-117016588D01*
X146541842Y-116840000D01*
X146559234Y-116663412D01*
X146610743Y-116493611D01*
X146610744Y-116493608D01*
X146694388Y-116337122D01*
X146806956Y-116199956D01*
X146944122Y-116087388D01*
X147100608Y-116003744D01*
X147100611Y-116003743D01*
X147270412Y-115952234D01*
X147358638Y-115943545D01*
X147402750Y-115939200D01*
X147491250Y-115939200D01*
X147535362Y-115943545D01*
X147535362Y-115943545D01*
G37*
G36*
X150075362Y-115943545D02*
G01*
X150163588Y-115952234D01*
X150333389Y-116003743D01*
X150333392Y-116003744D01*
X150489878Y-116087388D01*
X150627044Y-116199956D01*
X150739612Y-116337122D01*
X150823256Y-116493608D01*
X150823257Y-116493611D01*
X150874766Y-116663412D01*
X150892158Y-116840000D01*
X150874766Y-117016588D01*
X150863558Y-117053534D01*
X150823256Y-117186392D01*
X150739612Y-117342878D01*
X150627044Y-117480044D01*
X150489878Y-117592612D01*
X150333392Y-117676256D01*
X150333389Y-117676257D01*
X150163588Y-117727766D01*
X150075362Y-117736455D01*
X150031250Y-117740800D01*
X149942750Y-117740800D01*
X149898638Y-117736455D01*
X149810412Y-117727766D01*
X149640611Y-117676257D01*
X149640608Y-117676256D01*
X149484122Y-117592612D01*
X149346956Y-117480044D01*
X149234388Y-117342878D01*
X149150744Y-117186392D01*
X149110442Y-117053534D01*
X149099234Y-117016588D01*
X149081842Y-116840000D01*
X149099234Y-116663412D01*
X149150743Y-116493611D01*
X149150744Y-116493608D01*
X149234388Y-116337122D01*
X149346956Y-116199956D01*
X149484122Y-116087388D01*
X149640608Y-116003744D01*
X149640611Y-116003743D01*
X149810412Y-115952234D01*
X149898638Y-115943545D01*
X149942750Y-115939200D01*
X150031250Y-115939200D01*
X150075362Y-115943545D01*
X150075362Y-115943545D01*
G37*
G36*
X155155362Y-115943545D02*
G01*
X155243588Y-115952234D01*
X155413389Y-116003743D01*
X155413392Y-116003744D01*
X155569878Y-116087388D01*
X155707044Y-116199956D01*
X155819612Y-116337122D01*
X155903256Y-116493608D01*
X155903257Y-116493611D01*
X155954766Y-116663412D01*
X155972158Y-116840000D01*
X155954766Y-117016588D01*
X155943558Y-117053534D01*
X155903256Y-117186392D01*
X155819612Y-117342878D01*
X155707044Y-117480044D01*
X155569878Y-117592612D01*
X155413392Y-117676256D01*
X155413389Y-117676257D01*
X155243588Y-117727766D01*
X155155362Y-117736455D01*
X155111250Y-117740800D01*
X155022750Y-117740800D01*
X154978638Y-117736455D01*
X154890412Y-117727766D01*
X154720611Y-117676257D01*
X154720608Y-117676256D01*
X154564122Y-117592612D01*
X154426956Y-117480044D01*
X154314388Y-117342878D01*
X154230744Y-117186392D01*
X154190442Y-117053534D01*
X154179234Y-117016588D01*
X154161842Y-116840000D01*
X154179234Y-116663412D01*
X154230743Y-116493611D01*
X154230744Y-116493608D01*
X154314388Y-116337122D01*
X154426956Y-116199956D01*
X154564122Y-116087388D01*
X154720608Y-116003744D01*
X154720611Y-116003743D01*
X154890412Y-115952234D01*
X154978638Y-115943545D01*
X155022750Y-115939200D01*
X155111250Y-115939200D01*
X155155362Y-115943545D01*
X155155362Y-115943545D01*
G37*
G36*
X147535362Y-113403545D02*
G01*
X147623588Y-113412234D01*
X147793389Y-113463743D01*
X147793392Y-113463744D01*
X147949878Y-113547388D01*
X148087044Y-113659956D01*
X148199612Y-113797122D01*
X148283256Y-113953608D01*
X148283257Y-113953611D01*
X148334766Y-114123412D01*
X148352158Y-114300000D01*
X148334766Y-114476588D01*
X148283257Y-114646389D01*
X148283256Y-114646392D01*
X148199612Y-114802878D01*
X148087044Y-114940044D01*
X147949878Y-115052612D01*
X147793392Y-115136256D01*
X147793389Y-115136257D01*
X147623588Y-115187766D01*
X147535362Y-115196455D01*
X147491250Y-115200800D01*
X147402750Y-115200800D01*
X147358638Y-115196455D01*
X147270412Y-115187766D01*
X147100611Y-115136257D01*
X147100608Y-115136256D01*
X146944122Y-115052612D01*
X146806956Y-114940044D01*
X146694388Y-114802878D01*
X146610744Y-114646392D01*
X146610743Y-114646389D01*
X146559234Y-114476588D01*
X146541842Y-114300000D01*
X146559234Y-114123412D01*
X146610743Y-113953611D01*
X146610744Y-113953608D01*
X146694388Y-113797122D01*
X146806956Y-113659956D01*
X146944122Y-113547388D01*
X147100608Y-113463744D01*
X147100611Y-113463743D01*
X147270412Y-113412234D01*
X147358638Y-113403545D01*
X147402750Y-113399200D01*
X147491250Y-113399200D01*
X147535362Y-113403545D01*
X147535362Y-113403545D01*
G37*
G36*
X152615362Y-113403545D02*
G01*
X152703588Y-113412234D01*
X152873389Y-113463743D01*
X152873392Y-113463744D01*
X153029878Y-113547388D01*
X153167044Y-113659956D01*
X153279612Y-113797122D01*
X153363256Y-113953608D01*
X153363257Y-113953611D01*
X153414766Y-114123412D01*
X153432158Y-114300000D01*
X153414766Y-114476588D01*
X153363257Y-114646389D01*
X153363256Y-114646392D01*
X153279612Y-114802878D01*
X153167044Y-114940044D01*
X153029878Y-115052612D01*
X152873392Y-115136256D01*
X152873389Y-115136257D01*
X152703588Y-115187766D01*
X152615362Y-115196455D01*
X152571250Y-115200800D01*
X152482750Y-115200800D01*
X152438638Y-115196455D01*
X152350412Y-115187766D01*
X152180611Y-115136257D01*
X152180608Y-115136256D01*
X152024122Y-115052612D01*
X151886956Y-114940044D01*
X151774388Y-114802878D01*
X151690744Y-114646392D01*
X151690743Y-114646389D01*
X151639234Y-114476588D01*
X151621842Y-114300000D01*
X151639234Y-114123412D01*
X151690743Y-113953611D01*
X151690744Y-113953608D01*
X151774388Y-113797122D01*
X151886956Y-113659956D01*
X152024122Y-113547388D01*
X152180608Y-113463744D01*
X152180611Y-113463743D01*
X152350412Y-113412234D01*
X152438638Y-113403545D01*
X152482750Y-113399200D01*
X152571250Y-113399200D01*
X152615362Y-113403545D01*
X152615362Y-113403545D01*
G37*
G36*
X142455362Y-113403545D02*
G01*
X142543588Y-113412234D01*
X142713389Y-113463743D01*
X142713392Y-113463744D01*
X142869878Y-113547388D01*
X143007044Y-113659956D01*
X143119612Y-113797122D01*
X143203256Y-113953608D01*
X143203257Y-113953611D01*
X143254766Y-114123412D01*
X143272158Y-114300000D01*
X143254766Y-114476588D01*
X143203257Y-114646389D01*
X143203256Y-114646392D01*
X143119612Y-114802878D01*
X143007044Y-114940044D01*
X142869878Y-115052612D01*
X142713392Y-115136256D01*
X142713389Y-115136257D01*
X142543588Y-115187766D01*
X142455362Y-115196455D01*
X142411250Y-115200800D01*
X142322750Y-115200800D01*
X142278638Y-115196455D01*
X142190412Y-115187766D01*
X142020611Y-115136257D01*
X142020608Y-115136256D01*
X141864122Y-115052612D01*
X141726956Y-114940044D01*
X141614388Y-114802878D01*
X141530744Y-114646392D01*
X141530743Y-114646389D01*
X141479234Y-114476588D01*
X141461842Y-114300000D01*
X141479234Y-114123412D01*
X141530743Y-113953611D01*
X141530744Y-113953608D01*
X141614388Y-113797122D01*
X141726956Y-113659956D01*
X141864122Y-113547388D01*
X142020608Y-113463744D01*
X142020611Y-113463743D01*
X142190412Y-113412234D01*
X142278638Y-113403545D01*
X142322750Y-113399200D01*
X142411250Y-113399200D01*
X142455362Y-113403545D01*
X142455362Y-113403545D01*
G37*
G36*
X144995362Y-113403545D02*
G01*
X145083588Y-113412234D01*
X145253389Y-113463743D01*
X145253392Y-113463744D01*
X145409878Y-113547388D01*
X145547044Y-113659956D01*
X145659612Y-113797122D01*
X145743256Y-113953608D01*
X145743257Y-113953611D01*
X145794766Y-114123412D01*
X145812158Y-114300000D01*
X145794766Y-114476588D01*
X145743257Y-114646389D01*
X145743256Y-114646392D01*
X145659612Y-114802878D01*
X145547044Y-114940044D01*
X145409878Y-115052612D01*
X145253392Y-115136256D01*
X145253389Y-115136257D01*
X145083588Y-115187766D01*
X144995362Y-115196455D01*
X144951250Y-115200800D01*
X144862750Y-115200800D01*
X144818638Y-115196455D01*
X144730412Y-115187766D01*
X144560611Y-115136257D01*
X144560608Y-115136256D01*
X144404122Y-115052612D01*
X144266956Y-114940044D01*
X144154388Y-114802878D01*
X144070744Y-114646392D01*
X144070743Y-114646389D01*
X144019234Y-114476588D01*
X144001842Y-114300000D01*
X144019234Y-114123412D01*
X144070743Y-113953611D01*
X144070744Y-113953608D01*
X144154388Y-113797122D01*
X144266956Y-113659956D01*
X144404122Y-113547388D01*
X144560608Y-113463744D01*
X144560611Y-113463743D01*
X144730412Y-113412234D01*
X144818638Y-113403545D01*
X144862750Y-113399200D01*
X144951250Y-113399200D01*
X144995362Y-113403545D01*
X144995362Y-113403545D01*
G37*
G36*
X150075362Y-113403545D02*
G01*
X150163588Y-113412234D01*
X150333389Y-113463743D01*
X150333392Y-113463744D01*
X150489878Y-113547388D01*
X150627044Y-113659956D01*
X150739612Y-113797122D01*
X150823256Y-113953608D01*
X150823257Y-113953611D01*
X150874766Y-114123412D01*
X150892158Y-114300000D01*
X150874766Y-114476588D01*
X150823257Y-114646389D01*
X150823256Y-114646392D01*
X150739612Y-114802878D01*
X150627044Y-114940044D01*
X150489878Y-115052612D01*
X150333392Y-115136256D01*
X150333389Y-115136257D01*
X150163588Y-115187766D01*
X150075362Y-115196455D01*
X150031250Y-115200800D01*
X149942750Y-115200800D01*
X149898638Y-115196455D01*
X149810412Y-115187766D01*
X149640611Y-115136257D01*
X149640608Y-115136256D01*
X149484122Y-115052612D01*
X149346956Y-114940044D01*
X149234388Y-114802878D01*
X149150744Y-114646392D01*
X149150743Y-114646389D01*
X149099234Y-114476588D01*
X149081842Y-114300000D01*
X149099234Y-114123412D01*
X149150743Y-113953611D01*
X149150744Y-113953608D01*
X149234388Y-113797122D01*
X149346956Y-113659956D01*
X149484122Y-113547388D01*
X149640608Y-113463744D01*
X149640611Y-113463743D01*
X149810412Y-113412234D01*
X149898638Y-113403545D01*
X149942750Y-113399200D01*
X150031250Y-113399200D01*
X150075362Y-113403545D01*
X150075362Y-113403545D01*
G37*
G36*
X155155362Y-113403545D02*
G01*
X155243588Y-113412234D01*
X155413389Y-113463743D01*
X155413392Y-113463744D01*
X155569878Y-113547388D01*
X155707044Y-113659956D01*
X155819612Y-113797122D01*
X155903256Y-113953608D01*
X155903257Y-113953611D01*
X155954766Y-114123412D01*
X155972158Y-114300000D01*
X155954766Y-114476588D01*
X155903257Y-114646389D01*
X155903256Y-114646392D01*
X155819612Y-114802878D01*
X155707044Y-114940044D01*
X155569878Y-115052612D01*
X155413392Y-115136256D01*
X155413389Y-115136257D01*
X155243588Y-115187766D01*
X155155362Y-115196455D01*
X155111250Y-115200800D01*
X155022750Y-115200800D01*
X154978638Y-115196455D01*
X154890412Y-115187766D01*
X154720611Y-115136257D01*
X154720608Y-115136256D01*
X154564122Y-115052612D01*
X154426956Y-114940044D01*
X154314388Y-114802878D01*
X154230744Y-114646392D01*
X154230743Y-114646389D01*
X154179234Y-114476588D01*
X154161842Y-114300000D01*
X154179234Y-114123412D01*
X154230743Y-113953611D01*
X154230744Y-113953608D01*
X154314388Y-113797122D01*
X154426956Y-113659956D01*
X154564122Y-113547388D01*
X154720608Y-113463744D01*
X154720611Y-113463743D01*
X154890412Y-113412234D01*
X154978638Y-113403545D01*
X155022750Y-113399200D01*
X155111250Y-113399200D01*
X155155362Y-113403545D01*
X155155362Y-113403545D01*
G37*
G36*
X136902806Y-107614250D02*
G01*
X136972734Y-107628159D01*
X137104475Y-107682728D01*
X137223040Y-107761950D01*
X137323870Y-107862780D01*
X137403092Y-107981345D01*
X137457661Y-108113086D01*
X137485480Y-108252942D01*
X137485480Y-108395538D01*
X137457661Y-108535394D01*
X137403092Y-108667135D01*
X137323870Y-108785700D01*
X137223040Y-108886530D01*
X137104475Y-108965752D01*
X136972734Y-109020321D01*
X136902806Y-109034230D01*
X136832879Y-109048140D01*
X136690281Y-109048140D01*
X136620354Y-109034230D01*
X136550426Y-109020321D01*
X136418685Y-108965752D01*
X136300120Y-108886530D01*
X136199290Y-108785700D01*
X136120068Y-108667135D01*
X136065499Y-108535394D01*
X136037680Y-108395538D01*
X136037680Y-108252942D01*
X136065499Y-108113086D01*
X136120068Y-107981345D01*
X136199290Y-107862780D01*
X136300120Y-107761950D01*
X136418685Y-107682728D01*
X136550426Y-107628159D01*
X136620354Y-107614250D01*
X136690281Y-107600340D01*
X136832879Y-107600340D01*
X136902806Y-107614250D01*
X136902806Y-107614250D01*
G37*
G36*
X139864446Y-107614250D02*
G01*
X139934374Y-107628159D01*
X140066115Y-107682728D01*
X140184680Y-107761950D01*
X140285510Y-107862780D01*
X140364732Y-107981345D01*
X140419301Y-108113086D01*
X140447120Y-108252942D01*
X140447120Y-108395538D01*
X140419301Y-108535394D01*
X140364732Y-108667135D01*
X140285510Y-108785700D01*
X140184680Y-108886530D01*
X140066115Y-108965752D01*
X139934374Y-109020321D01*
X139864446Y-109034230D01*
X139794519Y-109048140D01*
X139651921Y-109048140D01*
X139581994Y-109034230D01*
X139512066Y-109020321D01*
X139380325Y-108965752D01*
X139261760Y-108886530D01*
X139160930Y-108785700D01*
X139081708Y-108667135D01*
X139027139Y-108535394D01*
X138999320Y-108395538D01*
X138999320Y-108252942D01*
X139027139Y-108113086D01*
X139081708Y-107981345D01*
X139160930Y-107862780D01*
X139261760Y-107761950D01*
X139380325Y-107682728D01*
X139512066Y-107628159D01*
X139581994Y-107614250D01*
X139651921Y-107600340D01*
X139794519Y-107600340D01*
X139864446Y-107614250D01*
X139864446Y-107614250D01*
G37*
G36*
X105902806Y-107614250D02*
G01*
X105972734Y-107628159D01*
X106104475Y-107682728D01*
X106223040Y-107761950D01*
X106323870Y-107862780D01*
X106403092Y-107981345D01*
X106457661Y-108113086D01*
X106485480Y-108252942D01*
X106485480Y-108395538D01*
X106457661Y-108535394D01*
X106403092Y-108667135D01*
X106323870Y-108785700D01*
X106223040Y-108886530D01*
X106104475Y-108965752D01*
X105972734Y-109020321D01*
X105902806Y-109034230D01*
X105832879Y-109048140D01*
X105690281Y-109048140D01*
X105620354Y-109034230D01*
X105550426Y-109020321D01*
X105418685Y-108965752D01*
X105300120Y-108886530D01*
X105199290Y-108785700D01*
X105120068Y-108667135D01*
X105065499Y-108535394D01*
X105037680Y-108395538D01*
X105037680Y-108252942D01*
X105065499Y-108113086D01*
X105120068Y-107981345D01*
X105199290Y-107862780D01*
X105300120Y-107761950D01*
X105418685Y-107682728D01*
X105550426Y-107628159D01*
X105620354Y-107614250D01*
X105690281Y-107600340D01*
X105832879Y-107600340D01*
X105902806Y-107614250D01*
X105902806Y-107614250D01*
G37*
G36*
X160864446Y-107614250D02*
G01*
X160934374Y-107628159D01*
X161066115Y-107682728D01*
X161184680Y-107761950D01*
X161285510Y-107862780D01*
X161364732Y-107981345D01*
X161419301Y-108113086D01*
X161447120Y-108252942D01*
X161447120Y-108395538D01*
X161419301Y-108535394D01*
X161364732Y-108667135D01*
X161285510Y-108785700D01*
X161184680Y-108886530D01*
X161066115Y-108965752D01*
X160934374Y-109020321D01*
X160864446Y-109034230D01*
X160794519Y-109048140D01*
X160651921Y-109048140D01*
X160581994Y-109034230D01*
X160512066Y-109020321D01*
X160380325Y-108965752D01*
X160261760Y-108886530D01*
X160160930Y-108785700D01*
X160081708Y-108667135D01*
X160027139Y-108535394D01*
X159999320Y-108395538D01*
X159999320Y-108252942D01*
X160027139Y-108113086D01*
X160081708Y-107981345D01*
X160160930Y-107862780D01*
X160261760Y-107761950D01*
X160380325Y-107682728D01*
X160512066Y-107628159D01*
X160581994Y-107614250D01*
X160651921Y-107600340D01*
X160794519Y-107600340D01*
X160864446Y-107614250D01*
X160864446Y-107614250D01*
G37*
G36*
X157902806Y-107614250D02*
G01*
X157972734Y-107628159D01*
X158104475Y-107682728D01*
X158223040Y-107761950D01*
X158323870Y-107862780D01*
X158403092Y-107981345D01*
X158457661Y-108113086D01*
X158485480Y-108252942D01*
X158485480Y-108395538D01*
X158457661Y-108535394D01*
X158403092Y-108667135D01*
X158323870Y-108785700D01*
X158223040Y-108886530D01*
X158104475Y-108965752D01*
X157972734Y-109020321D01*
X157902806Y-109034230D01*
X157832879Y-109048140D01*
X157690281Y-109048140D01*
X157620354Y-109034230D01*
X157550426Y-109020321D01*
X157418685Y-108965752D01*
X157300120Y-108886530D01*
X157199290Y-108785700D01*
X157120068Y-108667135D01*
X157065499Y-108535394D01*
X157037680Y-108395538D01*
X157037680Y-108252942D01*
X157065499Y-108113086D01*
X157120068Y-107981345D01*
X157199290Y-107862780D01*
X157300120Y-107761950D01*
X157418685Y-107682728D01*
X157550426Y-107628159D01*
X157620354Y-107614250D01*
X157690281Y-107600340D01*
X157832879Y-107600340D01*
X157902806Y-107614250D01*
X157902806Y-107614250D01*
G37*
G36*
X108864446Y-107614250D02*
G01*
X108934374Y-107628159D01*
X109066115Y-107682728D01*
X109184680Y-107761950D01*
X109285510Y-107862780D01*
X109364732Y-107981345D01*
X109419301Y-108113086D01*
X109447120Y-108252942D01*
X109447120Y-108395538D01*
X109419301Y-108535394D01*
X109364732Y-108667135D01*
X109285510Y-108785700D01*
X109184680Y-108886530D01*
X109066115Y-108965752D01*
X108934374Y-109020321D01*
X108864446Y-109034230D01*
X108794519Y-109048140D01*
X108651921Y-109048140D01*
X108581994Y-109034230D01*
X108512066Y-109020321D01*
X108380325Y-108965752D01*
X108261760Y-108886530D01*
X108160930Y-108785700D01*
X108081708Y-108667135D01*
X108027139Y-108535394D01*
X107999320Y-108395538D01*
X107999320Y-108252942D01*
X108027139Y-108113086D01*
X108081708Y-107981345D01*
X108160930Y-107862780D01*
X108261760Y-107761950D01*
X108380325Y-107682728D01*
X108512066Y-107628159D01*
X108581994Y-107614250D01*
X108651921Y-107600340D01*
X108794519Y-107600340D01*
X108864446Y-107614250D01*
X108864446Y-107614250D01*
G37*
G36*
X191864446Y-107614250D02*
G01*
X191934374Y-107628159D01*
X192066115Y-107682728D01*
X192184680Y-107761950D01*
X192285510Y-107862780D01*
X192364732Y-107981345D01*
X192419301Y-108113086D01*
X192447120Y-108252942D01*
X192447120Y-108395538D01*
X192419301Y-108535394D01*
X192364732Y-108667135D01*
X192285510Y-108785700D01*
X192184680Y-108886530D01*
X192066115Y-108965752D01*
X191934374Y-109020321D01*
X191864446Y-109034230D01*
X191794519Y-109048140D01*
X191651921Y-109048140D01*
X191581994Y-109034230D01*
X191512066Y-109020321D01*
X191380325Y-108965752D01*
X191261760Y-108886530D01*
X191160930Y-108785700D01*
X191081708Y-108667135D01*
X191027139Y-108535394D01*
X190999320Y-108395538D01*
X190999320Y-108252942D01*
X191027139Y-108113086D01*
X191081708Y-107981345D01*
X191160930Y-107862780D01*
X191261760Y-107761950D01*
X191380325Y-107682728D01*
X191512066Y-107628159D01*
X191581994Y-107614250D01*
X191651921Y-107600340D01*
X191794519Y-107600340D01*
X191864446Y-107614250D01*
X191864446Y-107614250D01*
G37*
G36*
X87864446Y-107614250D02*
G01*
X87934374Y-107628159D01*
X88066115Y-107682728D01*
X88184680Y-107761950D01*
X88285510Y-107862780D01*
X88364732Y-107981345D01*
X88419301Y-108113086D01*
X88447120Y-108252942D01*
X88447120Y-108395538D01*
X88419301Y-108535394D01*
X88364732Y-108667135D01*
X88285510Y-108785700D01*
X88184680Y-108886530D01*
X88066115Y-108965752D01*
X87934374Y-109020321D01*
X87864446Y-109034230D01*
X87794519Y-109048140D01*
X87651921Y-109048140D01*
X87581994Y-109034230D01*
X87512066Y-109020321D01*
X87380325Y-108965752D01*
X87261760Y-108886530D01*
X87160930Y-108785700D01*
X87081708Y-108667135D01*
X87027139Y-108535394D01*
X86999320Y-108395538D01*
X86999320Y-108252942D01*
X87027139Y-108113086D01*
X87081708Y-107981345D01*
X87160930Y-107862780D01*
X87261760Y-107761950D01*
X87380325Y-107682728D01*
X87512066Y-107628159D01*
X87581994Y-107614250D01*
X87651921Y-107600340D01*
X87794519Y-107600340D01*
X87864446Y-107614250D01*
X87864446Y-107614250D01*
G37*
G36*
X188902806Y-107614250D02*
G01*
X188972734Y-107628159D01*
X189104475Y-107682728D01*
X189223040Y-107761950D01*
X189323870Y-107862780D01*
X189403092Y-107981345D01*
X189457661Y-108113086D01*
X189485480Y-108252942D01*
X189485480Y-108395538D01*
X189457661Y-108535394D01*
X189403092Y-108667135D01*
X189323870Y-108785700D01*
X189223040Y-108886530D01*
X189104475Y-108965752D01*
X188972734Y-109020321D01*
X188902806Y-109034230D01*
X188832879Y-109048140D01*
X188690281Y-109048140D01*
X188620354Y-109034230D01*
X188550426Y-109020321D01*
X188418685Y-108965752D01*
X188300120Y-108886530D01*
X188199290Y-108785700D01*
X188120068Y-108667135D01*
X188065499Y-108535394D01*
X188037680Y-108395538D01*
X188037680Y-108252942D01*
X188065499Y-108113086D01*
X188120068Y-107981345D01*
X188199290Y-107862780D01*
X188300120Y-107761950D01*
X188418685Y-107682728D01*
X188550426Y-107628159D01*
X188620354Y-107614250D01*
X188690281Y-107600340D01*
X188832879Y-107600340D01*
X188902806Y-107614250D01*
X188902806Y-107614250D01*
G37*
G36*
X209902806Y-107614250D02*
G01*
X209972734Y-107628159D01*
X210104475Y-107682728D01*
X210223040Y-107761950D01*
X210323870Y-107862780D01*
X210403092Y-107981345D01*
X210457661Y-108113086D01*
X210485480Y-108252942D01*
X210485480Y-108395538D01*
X210457661Y-108535394D01*
X210403092Y-108667135D01*
X210323870Y-108785700D01*
X210223040Y-108886530D01*
X210104475Y-108965752D01*
X209972734Y-109020321D01*
X209902806Y-109034230D01*
X209832879Y-109048140D01*
X209690281Y-109048140D01*
X209620354Y-109034230D01*
X209550426Y-109020321D01*
X209418685Y-108965752D01*
X209300120Y-108886530D01*
X209199290Y-108785700D01*
X209120068Y-108667135D01*
X209065499Y-108535394D01*
X209037680Y-108395538D01*
X209037680Y-108252942D01*
X209065499Y-108113086D01*
X209120068Y-107981345D01*
X209199290Y-107862780D01*
X209300120Y-107761950D01*
X209418685Y-107682728D01*
X209550426Y-107628159D01*
X209620354Y-107614250D01*
X209690281Y-107600340D01*
X209832879Y-107600340D01*
X209902806Y-107614250D01*
X209902806Y-107614250D01*
G37*
G36*
X212864446Y-107614250D02*
G01*
X212934374Y-107628159D01*
X213066115Y-107682728D01*
X213184680Y-107761950D01*
X213285510Y-107862780D01*
X213364732Y-107981345D01*
X213419301Y-108113086D01*
X213447120Y-108252942D01*
X213447120Y-108395538D01*
X213419301Y-108535394D01*
X213364732Y-108667135D01*
X213285510Y-108785700D01*
X213184680Y-108886530D01*
X213066115Y-108965752D01*
X212934374Y-109020321D01*
X212864446Y-109034230D01*
X212794519Y-109048140D01*
X212651921Y-109048140D01*
X212581994Y-109034230D01*
X212512066Y-109020321D01*
X212380325Y-108965752D01*
X212261760Y-108886530D01*
X212160930Y-108785700D01*
X212081708Y-108667135D01*
X212027139Y-108535394D01*
X211999320Y-108395538D01*
X211999320Y-108252942D01*
X212027139Y-108113086D01*
X212081708Y-107981345D01*
X212160930Y-107862780D01*
X212261760Y-107761950D01*
X212380325Y-107682728D01*
X212512066Y-107628159D01*
X212581994Y-107614250D01*
X212651921Y-107600340D01*
X212794519Y-107600340D01*
X212864446Y-107614250D01*
X212864446Y-107614250D01*
G37*
G36*
X84902806Y-107614250D02*
G01*
X84972734Y-107628159D01*
X85104475Y-107682728D01*
X85223040Y-107761950D01*
X85323870Y-107862780D01*
X85403092Y-107981345D01*
X85457661Y-108113086D01*
X85485480Y-108252942D01*
X85485480Y-108395538D01*
X85457661Y-108535394D01*
X85403092Y-108667135D01*
X85323870Y-108785700D01*
X85223040Y-108886530D01*
X85104475Y-108965752D01*
X84972734Y-109020321D01*
X84902806Y-109034230D01*
X84832879Y-109048140D01*
X84690281Y-109048140D01*
X84620354Y-109034230D01*
X84550426Y-109020321D01*
X84418685Y-108965752D01*
X84300120Y-108886530D01*
X84199290Y-108785700D01*
X84120068Y-108667135D01*
X84065499Y-108535394D01*
X84037680Y-108395538D01*
X84037680Y-108252942D01*
X84065499Y-108113086D01*
X84120068Y-107981345D01*
X84199290Y-107862780D01*
X84300120Y-107761950D01*
X84418685Y-107682728D01*
X84550426Y-107628159D01*
X84620354Y-107614250D01*
X84690281Y-107600340D01*
X84832879Y-107600340D01*
X84902806Y-107614250D01*
X84902806Y-107614250D01*
G37*
G36*
X155278986Y-106237569D02*
G01*
X155348914Y-106251479D01*
X155480655Y-106306048D01*
X155599220Y-106385270D01*
X155700050Y-106486100D01*
X155779272Y-106604665D01*
X155833841Y-106736406D01*
X155861660Y-106876262D01*
X155861660Y-107018858D01*
X155833841Y-107158714D01*
X155779272Y-107290455D01*
X155700050Y-107409020D01*
X155599220Y-107509850D01*
X155480655Y-107589072D01*
X155348914Y-107643641D01*
X155278986Y-107657551D01*
X155209059Y-107671460D01*
X155066461Y-107671460D01*
X154996534Y-107657551D01*
X154926606Y-107643641D01*
X154794865Y-107589072D01*
X154676300Y-107509850D01*
X154575470Y-107409020D01*
X154496248Y-107290455D01*
X154441679Y-107158714D01*
X154413860Y-107018858D01*
X154413860Y-106876262D01*
X154441679Y-106736406D01*
X154496248Y-106604665D01*
X154575470Y-106486100D01*
X154676300Y-106385270D01*
X154794865Y-106306048D01*
X154926606Y-106251479D01*
X154996534Y-106237569D01*
X155066461Y-106223660D01*
X155209059Y-106223660D01*
X155278986Y-106237569D01*
X155278986Y-106237569D01*
G37*
G36*
X90488266Y-106237569D02*
G01*
X90558194Y-106251479D01*
X90689935Y-106306048D01*
X90808500Y-106385270D01*
X90909330Y-106486100D01*
X90988552Y-106604665D01*
X91043121Y-106736406D01*
X91070940Y-106876262D01*
X91070940Y-107018858D01*
X91043121Y-107158714D01*
X90988552Y-107290455D01*
X90909330Y-107409020D01*
X90808500Y-107509850D01*
X90689935Y-107589072D01*
X90558194Y-107643641D01*
X90488266Y-107657551D01*
X90418339Y-107671460D01*
X90275741Y-107671460D01*
X90205814Y-107657551D01*
X90135886Y-107643641D01*
X90004145Y-107589072D01*
X89885580Y-107509850D01*
X89784750Y-107409020D01*
X89705528Y-107290455D01*
X89650959Y-107158714D01*
X89623140Y-107018858D01*
X89623140Y-106876262D01*
X89650959Y-106736406D01*
X89705528Y-106604665D01*
X89784750Y-106486100D01*
X89885580Y-106385270D01*
X90004145Y-106306048D01*
X90135886Y-106251479D01*
X90205814Y-106237569D01*
X90275741Y-106223660D01*
X90418339Y-106223660D01*
X90488266Y-106237569D01*
X90488266Y-106237569D01*
G37*
G36*
X142488266Y-106237569D02*
G01*
X142558194Y-106251479D01*
X142689935Y-106306048D01*
X142808500Y-106385270D01*
X142909330Y-106486100D01*
X142988552Y-106604665D01*
X143043121Y-106736406D01*
X143070940Y-106876262D01*
X143070940Y-107018858D01*
X143043121Y-107158714D01*
X142988552Y-107290455D01*
X142909330Y-107409020D01*
X142808500Y-107509850D01*
X142689935Y-107589072D01*
X142558194Y-107643641D01*
X142488266Y-107657551D01*
X142418339Y-107671460D01*
X142275741Y-107671460D01*
X142205814Y-107657551D01*
X142135886Y-107643641D01*
X142004145Y-107589072D01*
X141885580Y-107509850D01*
X141784750Y-107409020D01*
X141705528Y-107290455D01*
X141650959Y-107158714D01*
X141623140Y-107018858D01*
X141623140Y-106876262D01*
X141650959Y-106736406D01*
X141705528Y-106604665D01*
X141784750Y-106486100D01*
X141885580Y-106385270D01*
X142004145Y-106306048D01*
X142135886Y-106251479D01*
X142205814Y-106237569D01*
X142275741Y-106223660D01*
X142418339Y-106223660D01*
X142488266Y-106237569D01*
X142488266Y-106237569D01*
G37*
G36*
X134278986Y-106237569D02*
G01*
X134348914Y-106251479D01*
X134480655Y-106306048D01*
X134599220Y-106385270D01*
X134700050Y-106486100D01*
X134779272Y-106604665D01*
X134833841Y-106736406D01*
X134861660Y-106876262D01*
X134861660Y-107018858D01*
X134833841Y-107158714D01*
X134779272Y-107290455D01*
X134700050Y-107409020D01*
X134599220Y-107509850D01*
X134480655Y-107589072D01*
X134348914Y-107643641D01*
X134278986Y-107657551D01*
X134209059Y-107671460D01*
X134066461Y-107671460D01*
X133996534Y-107657551D01*
X133926606Y-107643641D01*
X133794865Y-107589072D01*
X133676300Y-107509850D01*
X133575470Y-107409020D01*
X133496248Y-107290455D01*
X133441679Y-107158714D01*
X133413860Y-107018858D01*
X133413860Y-106876262D01*
X133441679Y-106736406D01*
X133496248Y-106604665D01*
X133575470Y-106486100D01*
X133676300Y-106385270D01*
X133794865Y-106306048D01*
X133926606Y-106251479D01*
X133996534Y-106237569D01*
X134066461Y-106223660D01*
X134209059Y-106223660D01*
X134278986Y-106237569D01*
X134278986Y-106237569D01*
G37*
G36*
X111488266Y-106237569D02*
G01*
X111558194Y-106251479D01*
X111689935Y-106306048D01*
X111808500Y-106385270D01*
X111909330Y-106486100D01*
X111988552Y-106604665D01*
X112043121Y-106736406D01*
X112070940Y-106876262D01*
X112070940Y-107018858D01*
X112043121Y-107158714D01*
X111988552Y-107290455D01*
X111909330Y-107409020D01*
X111808500Y-107509850D01*
X111689935Y-107589072D01*
X111558194Y-107643641D01*
X111488266Y-107657551D01*
X111418339Y-107671460D01*
X111275741Y-107671460D01*
X111205814Y-107657551D01*
X111135886Y-107643641D01*
X111004145Y-107589072D01*
X110885580Y-107509850D01*
X110784750Y-107409020D01*
X110705528Y-107290455D01*
X110650959Y-107158714D01*
X110623140Y-107018858D01*
X110623140Y-106876262D01*
X110650959Y-106736406D01*
X110705528Y-106604665D01*
X110784750Y-106486100D01*
X110885580Y-106385270D01*
X111004145Y-106306048D01*
X111135886Y-106251479D01*
X111205814Y-106237569D01*
X111275741Y-106223660D01*
X111418339Y-106223660D01*
X111488266Y-106237569D01*
X111488266Y-106237569D01*
G37*
G36*
X103278986Y-106237569D02*
G01*
X103348914Y-106251479D01*
X103480655Y-106306048D01*
X103599220Y-106385270D01*
X103700050Y-106486100D01*
X103779272Y-106604665D01*
X103833841Y-106736406D01*
X103861660Y-106876262D01*
X103861660Y-107018858D01*
X103833841Y-107158714D01*
X103779272Y-107290455D01*
X103700050Y-107409020D01*
X103599220Y-107509850D01*
X103480655Y-107589072D01*
X103348914Y-107643641D01*
X103278986Y-107657551D01*
X103209059Y-107671460D01*
X103066461Y-107671460D01*
X102996534Y-107657551D01*
X102926606Y-107643641D01*
X102794865Y-107589072D01*
X102676300Y-107509850D01*
X102575470Y-107409020D01*
X102496248Y-107290455D01*
X102441679Y-107158714D01*
X102413860Y-107018858D01*
X102413860Y-106876262D01*
X102441679Y-106736406D01*
X102496248Y-106604665D01*
X102575470Y-106486100D01*
X102676300Y-106385270D01*
X102794865Y-106306048D01*
X102926606Y-106251479D01*
X102996534Y-106237569D01*
X103066461Y-106223660D01*
X103209059Y-106223660D01*
X103278986Y-106237569D01*
X103278986Y-106237569D01*
G37*
G36*
X82278986Y-106237569D02*
G01*
X82348914Y-106251479D01*
X82480655Y-106306048D01*
X82599220Y-106385270D01*
X82700050Y-106486100D01*
X82779272Y-106604665D01*
X82833841Y-106736406D01*
X82861660Y-106876262D01*
X82861660Y-107018858D01*
X82833841Y-107158714D01*
X82779272Y-107290455D01*
X82700050Y-107409020D01*
X82599220Y-107509850D01*
X82480655Y-107589072D01*
X82348914Y-107643641D01*
X82278986Y-107657551D01*
X82209059Y-107671460D01*
X82066461Y-107671460D01*
X81996534Y-107657551D01*
X81926606Y-107643641D01*
X81794865Y-107589072D01*
X81676300Y-107509850D01*
X81575470Y-107409020D01*
X81496248Y-107290455D01*
X81441679Y-107158714D01*
X81413860Y-107018858D01*
X81413860Y-106876262D01*
X81441679Y-106736406D01*
X81496248Y-106604665D01*
X81575470Y-106486100D01*
X81676300Y-106385270D01*
X81794865Y-106306048D01*
X81926606Y-106251479D01*
X81996534Y-106237569D01*
X82066461Y-106223660D01*
X82209059Y-106223660D01*
X82278986Y-106237569D01*
X82278986Y-106237569D01*
G37*
G36*
X186278986Y-106237569D02*
G01*
X186348914Y-106251479D01*
X186480655Y-106306048D01*
X186599220Y-106385270D01*
X186700050Y-106486100D01*
X186779272Y-106604665D01*
X186833841Y-106736406D01*
X186861660Y-106876262D01*
X186861660Y-107018858D01*
X186833841Y-107158714D01*
X186779272Y-107290455D01*
X186700050Y-107409020D01*
X186599220Y-107509850D01*
X186480655Y-107589072D01*
X186348914Y-107643641D01*
X186278986Y-107657551D01*
X186209059Y-107671460D01*
X186066461Y-107671460D01*
X185996534Y-107657551D01*
X185926606Y-107643641D01*
X185794865Y-107589072D01*
X185676300Y-107509850D01*
X185575470Y-107409020D01*
X185496248Y-107290455D01*
X185441679Y-107158714D01*
X185413860Y-107018858D01*
X185413860Y-106876262D01*
X185441679Y-106736406D01*
X185496248Y-106604665D01*
X185575470Y-106486100D01*
X185676300Y-106385270D01*
X185794865Y-106306048D01*
X185926606Y-106251479D01*
X185996534Y-106237569D01*
X186066461Y-106223660D01*
X186209059Y-106223660D01*
X186278986Y-106237569D01*
X186278986Y-106237569D01*
G37*
G36*
X194488266Y-106237569D02*
G01*
X194558194Y-106251479D01*
X194689935Y-106306048D01*
X194808500Y-106385270D01*
X194909330Y-106486100D01*
X194988552Y-106604665D01*
X195043121Y-106736406D01*
X195070940Y-106876262D01*
X195070940Y-107018858D01*
X195043121Y-107158714D01*
X194988552Y-107290455D01*
X194909330Y-107409020D01*
X194808500Y-107509850D01*
X194689935Y-107589072D01*
X194558194Y-107643641D01*
X194488266Y-107657551D01*
X194418339Y-107671460D01*
X194275741Y-107671460D01*
X194205814Y-107657551D01*
X194135886Y-107643641D01*
X194004145Y-107589072D01*
X193885580Y-107509850D01*
X193784750Y-107409020D01*
X193705528Y-107290455D01*
X193650959Y-107158714D01*
X193623140Y-107018858D01*
X193623140Y-106876262D01*
X193650959Y-106736406D01*
X193705528Y-106604665D01*
X193784750Y-106486100D01*
X193885580Y-106385270D01*
X194004145Y-106306048D01*
X194135886Y-106251479D01*
X194205814Y-106237569D01*
X194275741Y-106223660D01*
X194418339Y-106223660D01*
X194488266Y-106237569D01*
X194488266Y-106237569D01*
G37*
G36*
X207278986Y-106237569D02*
G01*
X207348914Y-106251479D01*
X207480655Y-106306048D01*
X207599220Y-106385270D01*
X207700050Y-106486100D01*
X207779272Y-106604665D01*
X207833841Y-106736406D01*
X207861660Y-106876262D01*
X207861660Y-107018858D01*
X207833841Y-107158714D01*
X207779272Y-107290455D01*
X207700050Y-107409020D01*
X207599220Y-107509850D01*
X207480655Y-107589072D01*
X207348914Y-107643641D01*
X207278986Y-107657551D01*
X207209059Y-107671460D01*
X207066461Y-107671460D01*
X206996534Y-107657551D01*
X206926606Y-107643641D01*
X206794865Y-107589072D01*
X206676300Y-107509850D01*
X206575470Y-107409020D01*
X206496248Y-107290455D01*
X206441679Y-107158714D01*
X206413860Y-107018858D01*
X206413860Y-106876262D01*
X206441679Y-106736406D01*
X206496248Y-106604665D01*
X206575470Y-106486100D01*
X206676300Y-106385270D01*
X206794865Y-106306048D01*
X206926606Y-106251479D01*
X206996534Y-106237569D01*
X207066461Y-106223660D01*
X207209059Y-106223660D01*
X207278986Y-106237569D01*
X207278986Y-106237569D01*
G37*
G36*
X215488266Y-106237569D02*
G01*
X215558194Y-106251479D01*
X215689935Y-106306048D01*
X215808500Y-106385270D01*
X215909330Y-106486100D01*
X215988552Y-106604665D01*
X216043121Y-106736406D01*
X216070940Y-106876262D01*
X216070940Y-107018858D01*
X216043121Y-107158714D01*
X215988552Y-107290455D01*
X215909330Y-107409020D01*
X215808500Y-107509850D01*
X215689935Y-107589072D01*
X215558194Y-107643641D01*
X215488266Y-107657551D01*
X215418339Y-107671460D01*
X215275741Y-107671460D01*
X215205814Y-107657551D01*
X215135886Y-107643641D01*
X215004145Y-107589072D01*
X214885580Y-107509850D01*
X214784750Y-107409020D01*
X214705528Y-107290455D01*
X214650959Y-107158714D01*
X214623140Y-107018858D01*
X214623140Y-106876262D01*
X214650959Y-106736406D01*
X214705528Y-106604665D01*
X214784750Y-106486100D01*
X214885580Y-106385270D01*
X215004145Y-106306048D01*
X215135886Y-106251479D01*
X215205814Y-106237569D01*
X215275741Y-106223660D01*
X215418339Y-106223660D01*
X215488266Y-106237569D01*
X215488266Y-106237569D01*
G37*
G36*
X163488266Y-106237569D02*
G01*
X163558194Y-106251479D01*
X163689935Y-106306048D01*
X163808500Y-106385270D01*
X163909330Y-106486100D01*
X163988552Y-106604665D01*
X164043121Y-106736406D01*
X164070940Y-106876262D01*
X164070940Y-107018858D01*
X164043121Y-107158714D01*
X163988552Y-107290455D01*
X163909330Y-107409020D01*
X163808500Y-107509850D01*
X163689935Y-107589072D01*
X163558194Y-107643641D01*
X163488266Y-107657551D01*
X163418339Y-107671460D01*
X163275741Y-107671460D01*
X163205814Y-107657551D01*
X163135886Y-107643641D01*
X163004145Y-107589072D01*
X162885580Y-107509850D01*
X162784750Y-107409020D01*
X162705528Y-107290455D01*
X162650959Y-107158714D01*
X162623140Y-107018858D01*
X162623140Y-106876262D01*
X162650959Y-106736406D01*
X162705528Y-106604665D01*
X162784750Y-106486100D01*
X162885580Y-106385270D01*
X163004145Y-106306048D01*
X163135886Y-106251479D01*
X163205814Y-106237569D01*
X163275741Y-106223660D01*
X163418339Y-106223660D01*
X163488266Y-106237569D01*
X163488266Y-106237569D01*
G37*
G36*
X107739347Y-99302880D02*
G01*
X108132286Y-99381040D01*
X108687496Y-99611016D01*
X109187172Y-99944889D01*
X109612111Y-100369828D01*
X109945984Y-100869504D01*
X110175960Y-101424714D01*
X110293200Y-102014122D01*
X110293200Y-102615078D01*
X110175960Y-103204486D01*
X109945984Y-103759696D01*
X109612111Y-104259372D01*
X109187172Y-104684311D01*
X108687496Y-105018184D01*
X108132286Y-105248160D01*
X107739347Y-105326320D01*
X107542879Y-105365400D01*
X106941921Y-105365400D01*
X106745453Y-105326320D01*
X106352514Y-105248160D01*
X105797304Y-105018184D01*
X105297628Y-104684311D01*
X104872689Y-104259372D01*
X104538816Y-103759696D01*
X104308840Y-103204486D01*
X104191600Y-102615078D01*
X104191600Y-102014122D01*
X104308840Y-101424714D01*
X104538816Y-100869504D01*
X104872689Y-100369828D01*
X105297628Y-99944889D01*
X105797304Y-99611016D01*
X106352514Y-99381040D01*
X106745453Y-99302880D01*
X106941921Y-99263800D01*
X107542879Y-99263800D01*
X107739347Y-99302880D01*
X107739347Y-99302880D01*
G37*
G36*
X86739347Y-99302880D02*
G01*
X87132286Y-99381040D01*
X87687496Y-99611016D01*
X88187172Y-99944889D01*
X88612111Y-100369828D01*
X88945984Y-100869504D01*
X89175960Y-101424714D01*
X89293200Y-102014122D01*
X89293200Y-102615078D01*
X89175960Y-103204486D01*
X88945984Y-103759696D01*
X88612111Y-104259372D01*
X88187172Y-104684311D01*
X87687496Y-105018184D01*
X87132286Y-105248160D01*
X86739347Y-105326320D01*
X86542879Y-105365400D01*
X85941921Y-105365400D01*
X85745453Y-105326320D01*
X85352514Y-105248160D01*
X84797304Y-105018184D01*
X84297628Y-104684311D01*
X83872689Y-104259372D01*
X83538816Y-103759696D01*
X83308840Y-103204486D01*
X83191600Y-102615078D01*
X83191600Y-102014122D01*
X83308840Y-101424714D01*
X83538816Y-100869504D01*
X83872689Y-100369828D01*
X84297628Y-99944889D01*
X84797304Y-99611016D01*
X85352514Y-99381040D01*
X85745453Y-99302880D01*
X85941921Y-99263800D01*
X86542879Y-99263800D01*
X86739347Y-99302880D01*
X86739347Y-99302880D01*
G37*
G36*
X159739347Y-99302880D02*
G01*
X160132286Y-99381040D01*
X160687496Y-99611016D01*
X161187172Y-99944889D01*
X161612111Y-100369828D01*
X161945984Y-100869504D01*
X162175960Y-101424714D01*
X162293200Y-102014122D01*
X162293200Y-102615078D01*
X162175960Y-103204486D01*
X161945984Y-103759696D01*
X161612111Y-104259372D01*
X161187172Y-104684311D01*
X160687496Y-105018184D01*
X160132286Y-105248160D01*
X159739347Y-105326320D01*
X159542879Y-105365400D01*
X158941921Y-105365400D01*
X158745453Y-105326320D01*
X158352514Y-105248160D01*
X157797304Y-105018184D01*
X157297628Y-104684311D01*
X156872689Y-104259372D01*
X156538816Y-103759696D01*
X156308840Y-103204486D01*
X156191600Y-102615078D01*
X156191600Y-102014122D01*
X156308840Y-101424714D01*
X156538816Y-100869504D01*
X156872689Y-100369828D01*
X157297628Y-99944889D01*
X157797304Y-99611016D01*
X158352514Y-99381040D01*
X158745453Y-99302880D01*
X158941921Y-99263800D01*
X159542879Y-99263800D01*
X159739347Y-99302880D01*
X159739347Y-99302880D01*
G37*
G36*
X138739347Y-99302880D02*
G01*
X139132286Y-99381040D01*
X139687496Y-99611016D01*
X140187172Y-99944889D01*
X140612111Y-100369828D01*
X140945984Y-100869504D01*
X141175960Y-101424714D01*
X141293200Y-102014122D01*
X141293200Y-102615078D01*
X141175960Y-103204486D01*
X140945984Y-103759696D01*
X140612111Y-104259372D01*
X140187172Y-104684311D01*
X139687496Y-105018184D01*
X139132286Y-105248160D01*
X138739347Y-105326320D01*
X138542879Y-105365400D01*
X137941921Y-105365400D01*
X137745453Y-105326320D01*
X137352514Y-105248160D01*
X136797304Y-105018184D01*
X136297628Y-104684311D01*
X135872689Y-104259372D01*
X135538816Y-103759696D01*
X135308840Y-103204486D01*
X135191600Y-102615078D01*
X135191600Y-102014122D01*
X135308840Y-101424714D01*
X135538816Y-100869504D01*
X135872689Y-100369828D01*
X136297628Y-99944889D01*
X136797304Y-99611016D01*
X137352514Y-99381040D01*
X137745453Y-99302880D01*
X137941921Y-99263800D01*
X138542879Y-99263800D01*
X138739347Y-99302880D01*
X138739347Y-99302880D01*
G37*
G36*
X190739347Y-99302880D02*
G01*
X191132286Y-99381040D01*
X191687496Y-99611016D01*
X192187172Y-99944889D01*
X192612111Y-100369828D01*
X192945984Y-100869504D01*
X193175960Y-101424714D01*
X193293200Y-102014122D01*
X193293200Y-102615078D01*
X193175960Y-103204486D01*
X192945984Y-103759696D01*
X192612111Y-104259372D01*
X192187172Y-104684311D01*
X191687496Y-105018184D01*
X191132286Y-105248160D01*
X190739347Y-105326320D01*
X190542879Y-105365400D01*
X189941921Y-105365400D01*
X189745453Y-105326320D01*
X189352514Y-105248160D01*
X188797304Y-105018184D01*
X188297628Y-104684311D01*
X187872689Y-104259372D01*
X187538816Y-103759696D01*
X187308840Y-103204486D01*
X187191600Y-102615078D01*
X187191600Y-102014122D01*
X187308840Y-101424714D01*
X187538816Y-100869504D01*
X187872689Y-100369828D01*
X188297628Y-99944889D01*
X188797304Y-99611016D01*
X189352514Y-99381040D01*
X189745453Y-99302880D01*
X189941921Y-99263800D01*
X190542879Y-99263800D01*
X190739347Y-99302880D01*
X190739347Y-99302880D01*
G37*
G36*
X211739347Y-99302880D02*
G01*
X212132286Y-99381040D01*
X212687496Y-99611016D01*
X213187172Y-99944889D01*
X213612111Y-100369828D01*
X213945984Y-100869504D01*
X214175960Y-101424714D01*
X214293200Y-102014122D01*
X214293200Y-102615078D01*
X214175960Y-103204486D01*
X213945984Y-103759696D01*
X213612111Y-104259372D01*
X213187172Y-104684311D01*
X212687496Y-105018184D01*
X212132286Y-105248160D01*
X211739347Y-105326320D01*
X211542879Y-105365400D01*
X210941921Y-105365400D01*
X210745453Y-105326320D01*
X210352514Y-105248160D01*
X209797304Y-105018184D01*
X209297628Y-104684311D01*
X208872689Y-104259372D01*
X208538816Y-103759696D01*
X208308840Y-103204486D01*
X208191600Y-102615078D01*
X208191600Y-102014122D01*
X208308840Y-101424714D01*
X208538816Y-100869504D01*
X208872689Y-100369828D01*
X209297628Y-99944889D01*
X209797304Y-99611016D01*
X210352514Y-99381040D01*
X210745453Y-99302880D01*
X210941921Y-99263800D01*
X211542879Y-99263800D01*
X211739347Y-99302880D01*
X211739347Y-99302880D01*
G37*
G36*
X196169746Y-103799170D02*
G01*
X196239674Y-103813079D01*
X196371415Y-103867648D01*
X196489980Y-103946870D01*
X196590810Y-104047700D01*
X196670032Y-104166265D01*
X196724601Y-104298006D01*
X196752420Y-104437862D01*
X196752420Y-104580458D01*
X196724601Y-104720314D01*
X196670032Y-104852055D01*
X196590810Y-104970620D01*
X196489980Y-105071450D01*
X196371415Y-105150672D01*
X196239674Y-105205241D01*
X196169746Y-105219150D01*
X196099819Y-105233060D01*
X195957221Y-105233060D01*
X195887294Y-105219150D01*
X195817366Y-105205241D01*
X195685625Y-105150672D01*
X195567060Y-105071450D01*
X195466230Y-104970620D01*
X195387008Y-104852055D01*
X195332439Y-104720314D01*
X195304620Y-104580458D01*
X195304620Y-104437862D01*
X195332439Y-104298006D01*
X195387008Y-104166265D01*
X195466230Y-104047700D01*
X195567060Y-103946870D01*
X195685625Y-103867648D01*
X195817366Y-103813079D01*
X195887294Y-103799169D01*
X195957221Y-103785260D01*
X196099819Y-103785260D01*
X196169746Y-103799170D01*
X196169746Y-103799170D01*
G37*
G36*
X165169746Y-103799170D02*
G01*
X165239674Y-103813079D01*
X165371415Y-103867648D01*
X165489980Y-103946870D01*
X165590810Y-104047700D01*
X165670032Y-104166265D01*
X165724601Y-104298006D01*
X165752420Y-104437862D01*
X165752420Y-104580458D01*
X165724601Y-104720314D01*
X165670032Y-104852055D01*
X165590810Y-104970620D01*
X165489980Y-105071450D01*
X165371415Y-105150672D01*
X165239674Y-105205241D01*
X165169746Y-105219150D01*
X165099819Y-105233060D01*
X164957221Y-105233060D01*
X164887294Y-105219150D01*
X164817366Y-105205241D01*
X164685625Y-105150672D01*
X164567060Y-105071450D01*
X164466230Y-104970620D01*
X164387008Y-104852055D01*
X164332439Y-104720314D01*
X164304620Y-104580458D01*
X164304620Y-104437862D01*
X164332439Y-104298006D01*
X164387008Y-104166265D01*
X164466230Y-104047700D01*
X164567060Y-103946870D01*
X164685625Y-103867648D01*
X164817366Y-103813079D01*
X164887294Y-103799169D01*
X164957221Y-103785260D01*
X165099819Y-103785260D01*
X165169746Y-103799170D01*
X165169746Y-103799170D01*
G37*
G36*
X113169746Y-103799170D02*
G01*
X113239674Y-103813079D01*
X113371415Y-103867648D01*
X113489980Y-103946870D01*
X113590810Y-104047700D01*
X113670032Y-104166265D01*
X113724601Y-104298006D01*
X113752420Y-104437862D01*
X113752420Y-104580458D01*
X113724601Y-104720314D01*
X113670032Y-104852055D01*
X113590810Y-104970620D01*
X113489980Y-105071450D01*
X113371415Y-105150672D01*
X113239674Y-105205241D01*
X113169746Y-105219150D01*
X113099819Y-105233060D01*
X112957221Y-105233060D01*
X112887294Y-105219150D01*
X112817366Y-105205241D01*
X112685625Y-105150672D01*
X112567060Y-105071450D01*
X112466230Y-104970620D01*
X112387008Y-104852055D01*
X112332439Y-104720314D01*
X112304620Y-104580458D01*
X112304620Y-104437862D01*
X112332439Y-104298006D01*
X112387008Y-104166265D01*
X112466230Y-104047700D01*
X112567060Y-103946870D01*
X112685625Y-103867648D01*
X112817366Y-103813079D01*
X112887294Y-103799169D01*
X112957221Y-103785260D01*
X113099819Y-103785260D01*
X113169746Y-103799170D01*
X113169746Y-103799170D01*
G37*
G36*
X132597506Y-103799170D02*
G01*
X132667434Y-103813079D01*
X132799175Y-103867648D01*
X132917740Y-103946870D01*
X133018570Y-104047700D01*
X133097792Y-104166265D01*
X133152361Y-104298006D01*
X133180180Y-104437862D01*
X133180180Y-104580458D01*
X133152361Y-104720314D01*
X133097792Y-104852055D01*
X133018570Y-104970620D01*
X132917740Y-105071450D01*
X132799175Y-105150672D01*
X132667434Y-105205241D01*
X132597506Y-105219150D01*
X132527579Y-105233060D01*
X132384981Y-105233060D01*
X132315054Y-105219150D01*
X132245126Y-105205241D01*
X132113385Y-105150672D01*
X131994820Y-105071450D01*
X131893990Y-104970620D01*
X131814768Y-104852055D01*
X131760199Y-104720314D01*
X131732380Y-104580458D01*
X131732380Y-104437862D01*
X131760199Y-104298006D01*
X131814768Y-104166265D01*
X131893990Y-104047700D01*
X131994820Y-103946870D01*
X132113385Y-103867648D01*
X132245126Y-103813079D01*
X132315054Y-103799169D01*
X132384981Y-103785260D01*
X132527579Y-103785260D01*
X132597506Y-103799170D01*
X132597506Y-103799170D01*
G37*
G36*
X205597506Y-103799170D02*
G01*
X205667434Y-103813079D01*
X205799175Y-103867648D01*
X205917740Y-103946870D01*
X206018570Y-104047700D01*
X206097792Y-104166265D01*
X206152361Y-104298006D01*
X206180180Y-104437862D01*
X206180180Y-104580458D01*
X206152361Y-104720314D01*
X206097792Y-104852055D01*
X206018570Y-104970620D01*
X205917740Y-105071450D01*
X205799175Y-105150672D01*
X205667434Y-105205241D01*
X205597506Y-105219150D01*
X205527579Y-105233060D01*
X205384981Y-105233060D01*
X205315054Y-105219150D01*
X205245126Y-105205241D01*
X205113385Y-105150672D01*
X204994820Y-105071450D01*
X204893990Y-104970620D01*
X204814768Y-104852055D01*
X204760199Y-104720314D01*
X204732380Y-104580458D01*
X204732380Y-104437862D01*
X204760199Y-104298006D01*
X204814768Y-104166265D01*
X204893990Y-104047700D01*
X204994820Y-103946870D01*
X205113385Y-103867648D01*
X205245126Y-103813079D01*
X205315054Y-103799169D01*
X205384981Y-103785260D01*
X205527579Y-103785260D01*
X205597506Y-103799170D01*
X205597506Y-103799170D01*
G37*
G36*
X184597506Y-103799170D02*
G01*
X184667434Y-103813079D01*
X184799175Y-103867648D01*
X184917740Y-103946870D01*
X185018570Y-104047700D01*
X185097792Y-104166265D01*
X185152361Y-104298006D01*
X185180180Y-104437862D01*
X185180180Y-104580458D01*
X185152361Y-104720314D01*
X185097792Y-104852055D01*
X185018570Y-104970620D01*
X184917740Y-105071450D01*
X184799175Y-105150672D01*
X184667434Y-105205241D01*
X184597506Y-105219150D01*
X184527579Y-105233060D01*
X184384981Y-105233060D01*
X184315054Y-105219150D01*
X184245126Y-105205241D01*
X184113385Y-105150672D01*
X183994820Y-105071450D01*
X183893990Y-104970620D01*
X183814768Y-104852055D01*
X183760199Y-104720314D01*
X183732380Y-104580458D01*
X183732380Y-104437862D01*
X183760199Y-104298006D01*
X183814768Y-104166265D01*
X183893990Y-104047700D01*
X183994820Y-103946870D01*
X184113385Y-103867648D01*
X184245126Y-103813079D01*
X184315054Y-103799169D01*
X184384981Y-103785260D01*
X184527579Y-103785260D01*
X184597506Y-103799170D01*
X184597506Y-103799170D01*
G37*
G36*
X101597506Y-103799170D02*
G01*
X101667434Y-103813079D01*
X101799175Y-103867648D01*
X101917740Y-103946870D01*
X102018570Y-104047700D01*
X102097792Y-104166265D01*
X102152361Y-104298006D01*
X102180180Y-104437862D01*
X102180180Y-104580458D01*
X102152361Y-104720314D01*
X102097792Y-104852055D01*
X102018570Y-104970620D01*
X101917740Y-105071450D01*
X101799175Y-105150672D01*
X101667434Y-105205241D01*
X101597506Y-105219150D01*
X101527579Y-105233060D01*
X101384981Y-105233060D01*
X101315054Y-105219150D01*
X101245126Y-105205241D01*
X101113385Y-105150672D01*
X100994820Y-105071450D01*
X100893990Y-104970620D01*
X100814768Y-104852055D01*
X100760199Y-104720314D01*
X100732380Y-104580458D01*
X100732380Y-104437862D01*
X100760199Y-104298006D01*
X100814768Y-104166265D01*
X100893990Y-104047700D01*
X100994820Y-103946870D01*
X101113385Y-103867648D01*
X101245126Y-103813079D01*
X101315054Y-103799169D01*
X101384981Y-103785260D01*
X101527579Y-103785260D01*
X101597506Y-103799170D01*
X101597506Y-103799170D01*
G37*
G36*
X92169746Y-103799170D02*
G01*
X92239674Y-103813079D01*
X92371415Y-103867648D01*
X92489980Y-103946870D01*
X92590810Y-104047700D01*
X92670032Y-104166265D01*
X92724601Y-104298006D01*
X92752420Y-104437862D01*
X92752420Y-104580458D01*
X92724601Y-104720314D01*
X92670032Y-104852055D01*
X92590810Y-104970620D01*
X92489980Y-105071450D01*
X92371415Y-105150672D01*
X92239674Y-105205241D01*
X92169746Y-105219150D01*
X92099819Y-105233060D01*
X91957221Y-105233060D01*
X91887294Y-105219150D01*
X91817366Y-105205241D01*
X91685625Y-105150672D01*
X91567060Y-105071450D01*
X91466230Y-104970620D01*
X91387008Y-104852055D01*
X91332439Y-104720314D01*
X91304620Y-104580458D01*
X91304620Y-104437862D01*
X91332439Y-104298006D01*
X91387008Y-104166265D01*
X91466230Y-104047700D01*
X91567060Y-103946870D01*
X91685625Y-103867648D01*
X91817366Y-103813079D01*
X91887294Y-103799169D01*
X91957221Y-103785260D01*
X92099819Y-103785260D01*
X92169746Y-103799170D01*
X92169746Y-103799170D01*
G37*
G36*
X217169746Y-103799170D02*
G01*
X217239674Y-103813079D01*
X217371415Y-103867648D01*
X217489980Y-103946870D01*
X217590810Y-104047700D01*
X217670032Y-104166265D01*
X217724601Y-104298006D01*
X217752420Y-104437862D01*
X217752420Y-104580458D01*
X217724601Y-104720314D01*
X217670032Y-104852055D01*
X217590810Y-104970620D01*
X217489980Y-105071450D01*
X217371415Y-105150672D01*
X217239674Y-105205241D01*
X217169746Y-105219150D01*
X217099819Y-105233060D01*
X216957221Y-105233060D01*
X216887294Y-105219150D01*
X216817366Y-105205241D01*
X216685625Y-105150672D01*
X216567060Y-105071450D01*
X216466230Y-104970620D01*
X216387008Y-104852055D01*
X216332439Y-104720314D01*
X216304620Y-104580458D01*
X216304620Y-104437862D01*
X216332439Y-104298006D01*
X216387008Y-104166265D01*
X216466230Y-104047700D01*
X216567060Y-103946870D01*
X216685625Y-103867648D01*
X216817366Y-103813079D01*
X216887294Y-103799169D01*
X216957221Y-103785260D01*
X217099819Y-103785260D01*
X217169746Y-103799170D01*
X217169746Y-103799170D01*
G37*
G36*
X144169746Y-103799170D02*
G01*
X144239674Y-103813079D01*
X144371415Y-103867648D01*
X144489980Y-103946870D01*
X144590810Y-104047700D01*
X144670032Y-104166265D01*
X144724601Y-104298006D01*
X144752420Y-104437862D01*
X144752420Y-104580458D01*
X144724601Y-104720314D01*
X144670032Y-104852055D01*
X144590810Y-104970620D01*
X144489980Y-105071450D01*
X144371415Y-105150672D01*
X144239674Y-105205241D01*
X144169746Y-105219150D01*
X144099819Y-105233060D01*
X143957221Y-105233060D01*
X143887294Y-105219150D01*
X143817366Y-105205241D01*
X143685625Y-105150672D01*
X143567060Y-105071450D01*
X143466230Y-104970620D01*
X143387008Y-104852055D01*
X143332439Y-104720314D01*
X143304620Y-104580458D01*
X143304620Y-104437862D01*
X143332439Y-104298006D01*
X143387008Y-104166265D01*
X143466230Y-104047700D01*
X143567060Y-103946870D01*
X143685625Y-103867648D01*
X143817366Y-103813079D01*
X143887294Y-103799169D01*
X143957221Y-103785260D01*
X144099819Y-103785260D01*
X144169746Y-103799170D01*
X144169746Y-103799170D01*
G37*
G36*
X153597506Y-103799170D02*
G01*
X153667434Y-103813079D01*
X153799175Y-103867648D01*
X153917740Y-103946870D01*
X154018570Y-104047700D01*
X154097792Y-104166265D01*
X154152361Y-104298006D01*
X154180180Y-104437862D01*
X154180180Y-104580458D01*
X154152361Y-104720314D01*
X154097792Y-104852055D01*
X154018570Y-104970620D01*
X153917740Y-105071450D01*
X153799175Y-105150672D01*
X153667434Y-105205241D01*
X153597506Y-105219150D01*
X153527579Y-105233060D01*
X153384981Y-105233060D01*
X153315054Y-105219150D01*
X153245126Y-105205241D01*
X153113385Y-105150672D01*
X152994820Y-105071450D01*
X152893990Y-104970620D01*
X152814768Y-104852055D01*
X152760199Y-104720314D01*
X152732380Y-104580458D01*
X152732380Y-104437862D01*
X152760199Y-104298006D01*
X152814768Y-104166265D01*
X152893990Y-104047700D01*
X152994820Y-103946870D01*
X153113385Y-103867648D01*
X153245126Y-103813079D01*
X153315054Y-103799169D01*
X153384981Y-103785260D01*
X153527579Y-103785260D01*
X153597506Y-103799170D01*
X153597506Y-103799170D01*
G37*
G36*
X80597506Y-103799170D02*
G01*
X80667434Y-103813079D01*
X80799175Y-103867648D01*
X80917740Y-103946870D01*
X81018570Y-104047700D01*
X81097792Y-104166265D01*
X81152361Y-104298006D01*
X81180180Y-104437862D01*
X81180180Y-104580458D01*
X81152361Y-104720314D01*
X81097792Y-104852055D01*
X81018570Y-104970620D01*
X80917740Y-105071450D01*
X80799175Y-105150672D01*
X80667434Y-105205241D01*
X80597506Y-105219150D01*
X80527579Y-105233060D01*
X80384981Y-105233060D01*
X80315054Y-105219150D01*
X80245126Y-105205241D01*
X80113385Y-105150672D01*
X79994820Y-105071450D01*
X79893990Y-104970620D01*
X79814768Y-104852055D01*
X79760199Y-104720314D01*
X79732380Y-104580458D01*
X79732380Y-104437862D01*
X79760199Y-104298006D01*
X79814768Y-104166265D01*
X79893990Y-104047700D01*
X79994820Y-103946870D01*
X80113385Y-103867648D01*
X80245126Y-103813079D01*
X80315054Y-103799169D01*
X80384981Y-103785260D01*
X80527579Y-103785260D01*
X80597506Y-103799170D01*
X80597506Y-103799170D01*
G37*
G36*
X121443362Y-102663545D02*
G01*
X121531588Y-102672234D01*
X121701389Y-102723743D01*
X121701392Y-102723744D01*
X121857878Y-102807388D01*
X121995044Y-102919956D01*
X122107612Y-103057122D01*
X122191256Y-103213608D01*
X122191257Y-103213611D01*
X122242766Y-103383412D01*
X122260158Y-103560000D01*
X122242766Y-103736588D01*
X122203009Y-103867648D01*
X122191256Y-103906392D01*
X122107612Y-104062878D01*
X121995044Y-104200044D01*
X121857878Y-104312612D01*
X121701392Y-104396256D01*
X121701389Y-104396257D01*
X121531588Y-104447766D01*
X121443362Y-104456455D01*
X121399250Y-104460800D01*
X121310750Y-104460800D01*
X121266638Y-104456455D01*
X121178412Y-104447766D01*
X121008611Y-104396257D01*
X121008608Y-104396256D01*
X120852122Y-104312612D01*
X120714956Y-104200044D01*
X120602388Y-104062878D01*
X120518744Y-103906392D01*
X120506991Y-103867648D01*
X120467234Y-103736588D01*
X120449842Y-103560000D01*
X120467234Y-103383412D01*
X120518743Y-103213611D01*
X120518744Y-103213608D01*
X120602388Y-103057122D01*
X120714956Y-102919956D01*
X120852122Y-102807388D01*
X121008608Y-102723744D01*
X121008611Y-102723743D01*
X121178412Y-102672234D01*
X121266638Y-102663545D01*
X121310750Y-102659200D01*
X121399250Y-102659200D01*
X121443362Y-102663545D01*
X121443362Y-102663545D01*
G37*
G36*
X173500362Y-102663545D02*
G01*
X173588588Y-102672234D01*
X173758389Y-102723743D01*
X173758392Y-102723744D01*
X173914878Y-102807388D01*
X174052044Y-102919956D01*
X174164612Y-103057122D01*
X174248256Y-103213608D01*
X174248257Y-103213611D01*
X174299766Y-103383412D01*
X174317158Y-103560000D01*
X174299766Y-103736588D01*
X174260009Y-103867648D01*
X174248256Y-103906392D01*
X174164612Y-104062878D01*
X174052044Y-104200044D01*
X173914878Y-104312612D01*
X173758392Y-104396256D01*
X173758389Y-104396257D01*
X173588588Y-104447766D01*
X173500362Y-104456455D01*
X173456250Y-104460800D01*
X173367750Y-104460800D01*
X173323638Y-104456455D01*
X173235412Y-104447766D01*
X173065611Y-104396257D01*
X173065608Y-104396256D01*
X172909122Y-104312612D01*
X172771956Y-104200044D01*
X172659388Y-104062878D01*
X172575744Y-103906392D01*
X172563991Y-103867648D01*
X172524234Y-103736588D01*
X172506842Y-103560000D01*
X172524234Y-103383412D01*
X172575743Y-103213611D01*
X172575744Y-103213608D01*
X172659388Y-103057122D01*
X172771956Y-102919956D01*
X172909122Y-102807388D01*
X173065608Y-102723744D01*
X173065611Y-102723743D01*
X173235412Y-102672234D01*
X173323638Y-102663545D01*
X173367750Y-102659200D01*
X173456250Y-102659200D01*
X173500362Y-102663545D01*
X173500362Y-102663545D01*
G37*
G36*
X176852800Y-104460800D02*
G01*
X175051200Y-104460800D01*
X175051200Y-102659200D01*
X176852800Y-102659200D01*
X176852800Y-104460800D01*
X176852800Y-104460800D01*
G37*
G36*
X124795800Y-104460800D02*
G01*
X122994200Y-104460800D01*
X122994200Y-102659200D01*
X124795800Y-102659200D01*
X124795800Y-104460800D01*
X124795800Y-104460800D01*
G37*
G36*
X165527886Y-100860389D02*
G01*
X165597814Y-100874299D01*
X165729555Y-100928868D01*
X165848120Y-101008090D01*
X165948950Y-101108920D01*
X166028172Y-101227485D01*
X166082741Y-101359226D01*
X166110560Y-101499082D01*
X166110560Y-101641678D01*
X166082741Y-101781534D01*
X166028172Y-101913275D01*
X165948950Y-102031840D01*
X165848120Y-102132670D01*
X165729555Y-102211892D01*
X165597814Y-102266461D01*
X165527886Y-102280371D01*
X165457959Y-102294280D01*
X165315361Y-102294280D01*
X165245434Y-102280371D01*
X165175506Y-102266461D01*
X165043765Y-102211892D01*
X164925200Y-102132670D01*
X164824370Y-102031840D01*
X164745148Y-101913275D01*
X164690579Y-101781534D01*
X164662760Y-101641678D01*
X164662760Y-101499082D01*
X164690579Y-101359226D01*
X164745148Y-101227485D01*
X164824370Y-101108920D01*
X164925200Y-101008090D01*
X165043765Y-100928868D01*
X165175506Y-100874299D01*
X165245434Y-100860390D01*
X165315361Y-100846480D01*
X165457959Y-100846480D01*
X165527886Y-100860389D01*
X165527886Y-100860389D01*
G37*
G36*
X101239366Y-100860389D02*
G01*
X101309294Y-100874299D01*
X101441035Y-100928868D01*
X101559600Y-101008090D01*
X101660430Y-101108920D01*
X101739652Y-101227485D01*
X101794221Y-101359226D01*
X101822040Y-101499082D01*
X101822040Y-101641678D01*
X101794221Y-101781534D01*
X101739652Y-101913275D01*
X101660430Y-102031840D01*
X101559600Y-102132670D01*
X101441035Y-102211892D01*
X101309294Y-102266461D01*
X101239366Y-102280371D01*
X101169439Y-102294280D01*
X101026841Y-102294280D01*
X100956914Y-102280371D01*
X100886986Y-102266461D01*
X100755245Y-102211892D01*
X100636680Y-102132670D01*
X100535850Y-102031840D01*
X100456628Y-101913275D01*
X100402059Y-101781534D01*
X100374240Y-101641678D01*
X100374240Y-101499082D01*
X100402059Y-101359226D01*
X100456628Y-101227485D01*
X100535850Y-101108920D01*
X100636680Y-101008090D01*
X100755245Y-100928868D01*
X100886986Y-100874299D01*
X100956914Y-100860390D01*
X101026841Y-100846480D01*
X101169439Y-100846480D01*
X101239366Y-100860389D01*
X101239366Y-100860389D01*
G37*
G36*
X196527886Y-100860389D02*
G01*
X196597814Y-100874299D01*
X196729555Y-100928868D01*
X196848120Y-101008090D01*
X196948950Y-101108920D01*
X197028172Y-101227485D01*
X197082741Y-101359226D01*
X197110560Y-101499082D01*
X197110560Y-101641678D01*
X197082741Y-101781534D01*
X197028172Y-101913275D01*
X196948950Y-102031840D01*
X196848120Y-102132670D01*
X196729555Y-102211892D01*
X196597814Y-102266461D01*
X196527886Y-102280371D01*
X196457959Y-102294280D01*
X196315361Y-102294280D01*
X196245434Y-102280371D01*
X196175506Y-102266461D01*
X196043765Y-102211892D01*
X195925200Y-102132670D01*
X195824370Y-102031840D01*
X195745148Y-101913275D01*
X195690579Y-101781534D01*
X195662760Y-101641678D01*
X195662760Y-101499082D01*
X195690579Y-101359226D01*
X195745148Y-101227485D01*
X195824370Y-101108920D01*
X195925200Y-101008090D01*
X196043765Y-100928868D01*
X196175506Y-100874299D01*
X196245434Y-100860390D01*
X196315361Y-100846480D01*
X196457959Y-100846480D01*
X196527886Y-100860389D01*
X196527886Y-100860389D01*
G37*
G36*
X144527886Y-100860389D02*
G01*
X144597814Y-100874299D01*
X144729555Y-100928868D01*
X144848120Y-101008090D01*
X144948950Y-101108920D01*
X145028172Y-101227485D01*
X145082741Y-101359226D01*
X145110560Y-101499082D01*
X145110560Y-101641678D01*
X145082741Y-101781534D01*
X145028172Y-101913275D01*
X144948950Y-102031840D01*
X144848120Y-102132670D01*
X144729555Y-102211892D01*
X144597814Y-102266461D01*
X144527886Y-102280371D01*
X144457959Y-102294280D01*
X144315361Y-102294280D01*
X144245434Y-102280371D01*
X144175506Y-102266461D01*
X144043765Y-102211892D01*
X143925200Y-102132670D01*
X143824370Y-102031840D01*
X143745148Y-101913275D01*
X143690579Y-101781534D01*
X143662760Y-101641678D01*
X143662760Y-101499082D01*
X143690579Y-101359226D01*
X143745148Y-101227485D01*
X143824370Y-101108920D01*
X143925200Y-101008090D01*
X144043765Y-100928868D01*
X144175506Y-100874299D01*
X144245434Y-100860390D01*
X144315361Y-100846480D01*
X144457959Y-100846480D01*
X144527886Y-100860389D01*
X144527886Y-100860389D01*
G37*
G36*
X153239366Y-100860389D02*
G01*
X153309294Y-100874299D01*
X153441035Y-100928868D01*
X153559600Y-101008090D01*
X153660430Y-101108920D01*
X153739652Y-101227485D01*
X153794221Y-101359226D01*
X153822040Y-101499082D01*
X153822040Y-101641678D01*
X153794221Y-101781534D01*
X153739652Y-101913275D01*
X153660430Y-102031840D01*
X153559600Y-102132670D01*
X153441035Y-102211892D01*
X153309294Y-102266461D01*
X153239366Y-102280371D01*
X153169439Y-102294280D01*
X153026841Y-102294280D01*
X152956914Y-102280371D01*
X152886986Y-102266461D01*
X152755245Y-102211892D01*
X152636680Y-102132670D01*
X152535850Y-102031840D01*
X152456628Y-101913275D01*
X152402059Y-101781534D01*
X152374240Y-101641678D01*
X152374240Y-101499082D01*
X152402059Y-101359226D01*
X152456628Y-101227485D01*
X152535850Y-101108920D01*
X152636680Y-101008090D01*
X152755245Y-100928868D01*
X152886986Y-100874299D01*
X152956914Y-100860390D01*
X153026841Y-100846480D01*
X153169439Y-100846480D01*
X153239366Y-100860389D01*
X153239366Y-100860389D01*
G37*
G36*
X217527886Y-100860389D02*
G01*
X217597814Y-100874299D01*
X217729555Y-100928868D01*
X217848120Y-101008090D01*
X217948950Y-101108920D01*
X218028172Y-101227485D01*
X218082741Y-101359226D01*
X218110560Y-101499082D01*
X218110560Y-101641678D01*
X218082741Y-101781534D01*
X218028172Y-101913275D01*
X217948950Y-102031840D01*
X217848120Y-102132670D01*
X217729555Y-102211892D01*
X217597814Y-102266461D01*
X217527886Y-102280371D01*
X217457959Y-102294280D01*
X217315361Y-102294280D01*
X217245434Y-102280371D01*
X217175506Y-102266461D01*
X217043765Y-102211892D01*
X216925200Y-102132670D01*
X216824370Y-102031840D01*
X216745148Y-101913275D01*
X216690579Y-101781534D01*
X216662760Y-101641678D01*
X216662760Y-101499082D01*
X216690579Y-101359226D01*
X216745148Y-101227485D01*
X216824370Y-101108920D01*
X216925200Y-101008090D01*
X217043765Y-100928868D01*
X217175506Y-100874299D01*
X217245434Y-100860390D01*
X217315361Y-100846480D01*
X217457959Y-100846480D01*
X217527886Y-100860389D01*
X217527886Y-100860389D01*
G37*
G36*
X113527886Y-100860389D02*
G01*
X113597814Y-100874299D01*
X113729555Y-100928868D01*
X113848120Y-101008090D01*
X113948950Y-101108920D01*
X114028172Y-101227485D01*
X114082741Y-101359226D01*
X114110560Y-101499082D01*
X114110560Y-101641678D01*
X114082741Y-101781534D01*
X114028172Y-101913275D01*
X113948950Y-102031840D01*
X113848120Y-102132670D01*
X113729555Y-102211892D01*
X113597814Y-102266461D01*
X113527886Y-102280371D01*
X113457959Y-102294280D01*
X113315361Y-102294280D01*
X113245434Y-102280371D01*
X113175506Y-102266461D01*
X113043765Y-102211892D01*
X112925200Y-102132670D01*
X112824370Y-102031840D01*
X112745148Y-101913275D01*
X112690579Y-101781534D01*
X112662760Y-101641678D01*
X112662760Y-101499082D01*
X112690579Y-101359226D01*
X112745148Y-101227485D01*
X112824370Y-101108920D01*
X112925200Y-101008090D01*
X113043765Y-100928868D01*
X113175506Y-100874299D01*
X113245434Y-100860390D01*
X113315361Y-100846480D01*
X113457959Y-100846480D01*
X113527886Y-100860389D01*
X113527886Y-100860389D01*
G37*
G36*
X205239366Y-100860389D02*
G01*
X205309294Y-100874299D01*
X205441035Y-100928868D01*
X205559600Y-101008090D01*
X205660430Y-101108920D01*
X205739652Y-101227485D01*
X205794221Y-101359226D01*
X205822040Y-101499082D01*
X205822040Y-101641678D01*
X205794221Y-101781534D01*
X205739652Y-101913275D01*
X205660430Y-102031840D01*
X205559600Y-102132670D01*
X205441035Y-102211892D01*
X205309294Y-102266461D01*
X205239366Y-102280371D01*
X205169439Y-102294280D01*
X205026841Y-102294280D01*
X204956914Y-102280371D01*
X204886986Y-102266461D01*
X204755245Y-102211892D01*
X204636680Y-102132670D01*
X204535850Y-102031840D01*
X204456628Y-101913275D01*
X204402059Y-101781534D01*
X204374240Y-101641678D01*
X204374240Y-101499082D01*
X204402059Y-101359226D01*
X204456628Y-101227485D01*
X204535850Y-101108920D01*
X204636680Y-101008090D01*
X204755245Y-100928868D01*
X204886986Y-100874299D01*
X204956914Y-100860390D01*
X205026841Y-100846480D01*
X205169439Y-100846480D01*
X205239366Y-100860389D01*
X205239366Y-100860389D01*
G37*
G36*
X132239366Y-100860389D02*
G01*
X132309294Y-100874299D01*
X132441035Y-100928868D01*
X132559600Y-101008090D01*
X132660430Y-101108920D01*
X132739652Y-101227485D01*
X132794221Y-101359226D01*
X132822040Y-101499082D01*
X132822040Y-101641678D01*
X132794221Y-101781534D01*
X132739652Y-101913275D01*
X132660430Y-102031840D01*
X132559600Y-102132670D01*
X132441035Y-102211892D01*
X132309294Y-102266461D01*
X132239366Y-102280371D01*
X132169439Y-102294280D01*
X132026841Y-102294280D01*
X131956914Y-102280371D01*
X131886986Y-102266461D01*
X131755245Y-102211892D01*
X131636680Y-102132670D01*
X131535850Y-102031840D01*
X131456628Y-101913275D01*
X131402059Y-101781534D01*
X131374240Y-101641678D01*
X131374240Y-101499082D01*
X131402059Y-101359226D01*
X131456628Y-101227485D01*
X131535850Y-101108920D01*
X131636680Y-101008090D01*
X131755245Y-100928868D01*
X131886986Y-100874299D01*
X131956914Y-100860390D01*
X132026841Y-100846480D01*
X132169439Y-100846480D01*
X132239366Y-100860389D01*
X132239366Y-100860389D01*
G37*
G36*
X184239366Y-100860389D02*
G01*
X184309294Y-100874299D01*
X184441035Y-100928868D01*
X184559600Y-101008090D01*
X184660430Y-101108920D01*
X184739652Y-101227485D01*
X184794221Y-101359226D01*
X184822040Y-101499082D01*
X184822040Y-101641678D01*
X184794221Y-101781534D01*
X184739652Y-101913275D01*
X184660430Y-102031840D01*
X184559600Y-102132670D01*
X184441035Y-102211892D01*
X184309294Y-102266461D01*
X184239366Y-102280371D01*
X184169439Y-102294280D01*
X184026841Y-102294280D01*
X183956914Y-102280371D01*
X183886986Y-102266461D01*
X183755245Y-102211892D01*
X183636680Y-102132670D01*
X183535850Y-102031840D01*
X183456628Y-101913275D01*
X183402059Y-101781534D01*
X183374240Y-101641678D01*
X183374240Y-101499082D01*
X183402059Y-101359226D01*
X183456628Y-101227485D01*
X183535850Y-101108920D01*
X183636680Y-101008090D01*
X183755245Y-100928868D01*
X183886986Y-100874299D01*
X183956914Y-100860390D01*
X184026841Y-100846480D01*
X184169439Y-100846480D01*
X184239366Y-100860389D01*
X184239366Y-100860389D01*
G37*
G36*
X80239366Y-100860389D02*
G01*
X80309294Y-100874299D01*
X80441035Y-100928868D01*
X80559600Y-101008090D01*
X80660430Y-101108920D01*
X80739652Y-101227485D01*
X80794221Y-101359226D01*
X80822040Y-101499082D01*
X80822040Y-101641678D01*
X80794221Y-101781534D01*
X80739652Y-101913275D01*
X80660430Y-102031840D01*
X80559600Y-102132670D01*
X80441035Y-102211892D01*
X80309294Y-102266461D01*
X80239366Y-102280371D01*
X80169439Y-102294280D01*
X80026841Y-102294280D01*
X79956914Y-102280371D01*
X79886986Y-102266461D01*
X79755245Y-102211892D01*
X79636680Y-102132670D01*
X79535850Y-102031840D01*
X79456628Y-101913275D01*
X79402059Y-101781534D01*
X79374240Y-101641678D01*
X79374240Y-101499082D01*
X79402059Y-101359226D01*
X79456628Y-101227485D01*
X79535850Y-101108920D01*
X79636680Y-101008090D01*
X79755245Y-100928868D01*
X79886986Y-100874299D01*
X79956914Y-100860390D01*
X80026841Y-100846480D01*
X80169439Y-100846480D01*
X80239366Y-100860389D01*
X80239366Y-100860389D01*
G37*
G36*
X92527886Y-100860389D02*
G01*
X92597814Y-100874299D01*
X92729555Y-100928868D01*
X92848120Y-101008090D01*
X92948950Y-101108920D01*
X93028172Y-101227485D01*
X93082741Y-101359226D01*
X93110560Y-101499082D01*
X93110560Y-101641678D01*
X93082741Y-101781534D01*
X93028172Y-101913275D01*
X92948950Y-102031840D01*
X92848120Y-102132670D01*
X92729555Y-102211892D01*
X92597814Y-102266461D01*
X92527886Y-102280371D01*
X92457959Y-102294280D01*
X92315361Y-102294280D01*
X92245434Y-102280371D01*
X92175506Y-102266461D01*
X92043765Y-102211892D01*
X91925200Y-102132670D01*
X91824370Y-102031840D01*
X91745148Y-101913275D01*
X91690579Y-101781534D01*
X91662760Y-101641678D01*
X91662760Y-101499082D01*
X91690579Y-101359226D01*
X91745148Y-101227485D01*
X91824370Y-101108920D01*
X91925200Y-101008090D01*
X92043765Y-100928868D01*
X92175506Y-100874299D01*
X92245434Y-100860390D01*
X92315361Y-100846480D01*
X92457959Y-100846480D01*
X92527886Y-100860389D01*
X92527886Y-100860389D01*
G37*
G36*
X124795800Y-101920800D02*
G01*
X122994200Y-101920800D01*
X122994200Y-100119200D01*
X124795800Y-100119200D01*
X124795800Y-101920800D01*
X124795800Y-101920800D01*
G37*
G36*
X173500362Y-100123545D02*
G01*
X173588588Y-100132234D01*
X173758389Y-100183743D01*
X173758392Y-100183744D01*
X173914878Y-100267388D01*
X174052044Y-100379956D01*
X174164612Y-100517122D01*
X174248256Y-100673608D01*
X174248257Y-100673611D01*
X174299766Y-100843412D01*
X174317158Y-101020000D01*
X174299766Y-101196588D01*
X174248257Y-101366389D01*
X174248256Y-101366392D01*
X174164612Y-101522878D01*
X174052044Y-101660044D01*
X173914878Y-101772612D01*
X173758392Y-101856256D01*
X173758389Y-101856257D01*
X173588588Y-101907766D01*
X173500362Y-101916455D01*
X173456250Y-101920800D01*
X173367750Y-101920800D01*
X173323638Y-101916455D01*
X173235412Y-101907766D01*
X173065611Y-101856257D01*
X173065608Y-101856256D01*
X172909122Y-101772612D01*
X172771956Y-101660044D01*
X172659388Y-101522878D01*
X172575744Y-101366392D01*
X172575743Y-101366389D01*
X172524234Y-101196588D01*
X172506842Y-101020000D01*
X172524234Y-100843412D01*
X172575743Y-100673611D01*
X172575744Y-100673608D01*
X172659388Y-100517122D01*
X172771956Y-100379956D01*
X172909122Y-100267388D01*
X173065608Y-100183744D01*
X173065611Y-100183743D01*
X173235412Y-100132234D01*
X173323638Y-100123545D01*
X173367750Y-100119200D01*
X173456250Y-100119200D01*
X173500362Y-100123545D01*
X173500362Y-100123545D01*
G37*
G36*
X176852800Y-101920800D02*
G01*
X175051200Y-101920800D01*
X175051200Y-100119200D01*
X176852800Y-100119200D01*
X176852800Y-101920800D01*
X176852800Y-101920800D01*
G37*
G36*
X121443362Y-100123545D02*
G01*
X121531588Y-100132234D01*
X121701389Y-100183743D01*
X121701392Y-100183744D01*
X121857878Y-100267388D01*
X121995044Y-100379956D01*
X122107612Y-100517122D01*
X122191256Y-100673608D01*
X122191257Y-100673611D01*
X122242766Y-100843412D01*
X122260158Y-101020000D01*
X122242766Y-101196588D01*
X122191257Y-101366389D01*
X122191256Y-101366392D01*
X122107612Y-101522878D01*
X121995044Y-101660044D01*
X121857878Y-101772612D01*
X121701392Y-101856256D01*
X121701389Y-101856257D01*
X121531588Y-101907766D01*
X121443362Y-101916455D01*
X121399250Y-101920800D01*
X121310750Y-101920800D01*
X121266638Y-101916455D01*
X121178412Y-101907766D01*
X121008611Y-101856257D01*
X121008608Y-101856256D01*
X120852122Y-101772612D01*
X120714956Y-101660044D01*
X120602388Y-101522878D01*
X120518744Y-101366392D01*
X120518743Y-101366389D01*
X120467234Y-101196588D01*
X120449842Y-101020000D01*
X120467234Y-100843412D01*
X120518743Y-100673611D01*
X120518744Y-100673608D01*
X120602388Y-100517122D01*
X120714956Y-100379956D01*
X120852122Y-100267388D01*
X121008608Y-100183744D01*
X121008611Y-100183743D01*
X121178412Y-100132234D01*
X121266638Y-100123545D01*
X121310750Y-100119200D01*
X121399250Y-100119200D01*
X121443362Y-100123545D01*
X121443362Y-100123545D01*
G37*
G36*
X221220762Y-98138145D02*
G01*
X221308988Y-98146834D01*
X221478789Y-98198343D01*
X221478792Y-98198344D01*
X221635278Y-98281988D01*
X221772444Y-98394556D01*
X221885012Y-98531722D01*
X221968656Y-98688208D01*
X221968657Y-98688211D01*
X222020166Y-98858012D01*
X222037558Y-99034600D01*
X222020166Y-99211188D01*
X222004206Y-99263800D01*
X221968656Y-99380992D01*
X221885012Y-99537478D01*
X221772444Y-99674644D01*
X221635278Y-99787212D01*
X221478792Y-99870856D01*
X221478789Y-99870857D01*
X221308988Y-99922366D01*
X221220762Y-99931055D01*
X221176650Y-99935400D01*
X221088150Y-99935400D01*
X221044038Y-99931055D01*
X220955812Y-99922366D01*
X220786011Y-99870857D01*
X220786008Y-99870856D01*
X220629522Y-99787212D01*
X220492356Y-99674644D01*
X220379788Y-99537478D01*
X220296144Y-99380992D01*
X220260594Y-99263800D01*
X220244634Y-99211188D01*
X220227242Y-99034600D01*
X220244634Y-98858012D01*
X220296143Y-98688211D01*
X220296144Y-98688208D01*
X220379788Y-98531722D01*
X220492356Y-98394556D01*
X220629522Y-98281988D01*
X220786008Y-98198344D01*
X220786011Y-98198343D01*
X220955812Y-98146834D01*
X221044038Y-98138145D01*
X221088150Y-98133800D01*
X221176650Y-98133800D01*
X221220762Y-98138145D01*
X221220762Y-98138145D01*
G37*
G36*
X219493200Y-99935400D02*
G01*
X217691600Y-99935400D01*
X217691600Y-98133800D01*
X219493200Y-98133800D01*
X219493200Y-99935400D01*
X219493200Y-99935400D01*
G37*
G36*
X143476326Y-98089249D02*
G01*
X143546254Y-98103159D01*
X143677995Y-98157728D01*
X143796560Y-98236950D01*
X143897390Y-98337780D01*
X143976612Y-98456345D01*
X144007834Y-98531722D01*
X144031181Y-98588087D01*
X144051097Y-98688208D01*
X144059000Y-98727942D01*
X144059000Y-98870538D01*
X144031181Y-99010394D01*
X143976612Y-99142135D01*
X143897390Y-99260700D01*
X143796560Y-99361530D01*
X143677995Y-99440752D01*
X143546254Y-99495321D01*
X143476326Y-99509230D01*
X143406399Y-99523140D01*
X143263801Y-99523140D01*
X143193874Y-99509231D01*
X143123946Y-99495321D01*
X142992205Y-99440752D01*
X142873640Y-99361530D01*
X142772810Y-99260700D01*
X142693588Y-99142135D01*
X142639019Y-99010394D01*
X142611200Y-98870538D01*
X142611200Y-98727942D01*
X142619104Y-98688208D01*
X142639019Y-98588087D01*
X142662366Y-98531722D01*
X142693588Y-98456345D01*
X142772810Y-98337780D01*
X142873640Y-98236950D01*
X142992205Y-98157728D01*
X143123946Y-98103159D01*
X143193874Y-98089249D01*
X143263801Y-98075340D01*
X143406399Y-98075340D01*
X143476326Y-98089249D01*
X143476326Y-98089249D01*
G37*
G36*
X133290926Y-98089249D02*
G01*
X133360854Y-98103159D01*
X133492595Y-98157728D01*
X133611160Y-98236950D01*
X133711990Y-98337780D01*
X133791212Y-98456345D01*
X133822434Y-98531722D01*
X133845781Y-98588087D01*
X133865697Y-98688208D01*
X133873600Y-98727942D01*
X133873600Y-98870538D01*
X133845781Y-99010394D01*
X133791212Y-99142135D01*
X133711990Y-99260700D01*
X133611160Y-99361530D01*
X133492595Y-99440752D01*
X133360854Y-99495321D01*
X133290926Y-99509230D01*
X133220999Y-99523140D01*
X133078401Y-99523140D01*
X133008474Y-99509231D01*
X132938546Y-99495321D01*
X132806805Y-99440752D01*
X132688240Y-99361530D01*
X132587410Y-99260700D01*
X132508188Y-99142135D01*
X132453619Y-99010394D01*
X132425800Y-98870538D01*
X132425800Y-98727942D01*
X132433704Y-98688208D01*
X132453619Y-98588087D01*
X132476966Y-98531722D01*
X132508188Y-98456345D01*
X132587410Y-98337780D01*
X132688240Y-98236950D01*
X132806805Y-98157728D01*
X132938546Y-98103159D01*
X133008474Y-98089249D01*
X133078401Y-98075340D01*
X133220999Y-98075340D01*
X133290926Y-98089249D01*
X133290926Y-98089249D01*
G37*
G36*
X206290926Y-98089249D02*
G01*
X206360854Y-98103159D01*
X206492595Y-98157728D01*
X206611160Y-98236950D01*
X206711990Y-98337780D01*
X206791212Y-98456345D01*
X206822434Y-98531722D01*
X206845781Y-98588087D01*
X206865697Y-98688208D01*
X206873600Y-98727942D01*
X206873600Y-98870538D01*
X206845781Y-99010394D01*
X206791212Y-99142135D01*
X206711990Y-99260700D01*
X206611160Y-99361530D01*
X206492595Y-99440752D01*
X206360854Y-99495321D01*
X206290926Y-99509230D01*
X206220999Y-99523140D01*
X206078401Y-99523140D01*
X206008474Y-99509231D01*
X205938546Y-99495321D01*
X205806805Y-99440752D01*
X205688240Y-99361530D01*
X205587410Y-99260700D01*
X205508188Y-99142135D01*
X205453619Y-99010394D01*
X205425800Y-98870538D01*
X205425800Y-98727942D01*
X205433704Y-98688208D01*
X205453619Y-98588087D01*
X205476966Y-98531722D01*
X205508188Y-98456345D01*
X205587410Y-98337780D01*
X205688240Y-98236950D01*
X205806805Y-98157728D01*
X205938546Y-98103159D01*
X206008474Y-98089249D01*
X206078401Y-98075340D01*
X206220999Y-98075340D01*
X206290926Y-98089249D01*
X206290926Y-98089249D01*
G37*
G36*
X216476326Y-98089249D02*
G01*
X216546254Y-98103159D01*
X216677995Y-98157728D01*
X216796560Y-98236950D01*
X216897390Y-98337780D01*
X216976612Y-98456345D01*
X217007834Y-98531722D01*
X217031181Y-98588087D01*
X217051097Y-98688208D01*
X217059000Y-98727942D01*
X217059000Y-98870538D01*
X217031181Y-99010394D01*
X216976612Y-99142135D01*
X216897390Y-99260700D01*
X216796560Y-99361530D01*
X216677995Y-99440752D01*
X216546254Y-99495321D01*
X216476326Y-99509230D01*
X216406399Y-99523140D01*
X216263801Y-99523140D01*
X216193874Y-99509231D01*
X216123946Y-99495321D01*
X215992205Y-99440752D01*
X215873640Y-99361530D01*
X215772810Y-99260700D01*
X215693588Y-99142135D01*
X215639019Y-99010394D01*
X215611200Y-98870538D01*
X215611200Y-98727942D01*
X215619104Y-98688208D01*
X215639019Y-98588087D01*
X215662366Y-98531722D01*
X215693588Y-98456345D01*
X215772810Y-98337780D01*
X215873640Y-98236950D01*
X215992205Y-98157728D01*
X216123946Y-98103159D01*
X216193874Y-98089249D01*
X216263801Y-98075340D01*
X216406399Y-98075340D01*
X216476326Y-98089249D01*
X216476326Y-98089249D01*
G37*
G36*
X195476326Y-98089249D02*
G01*
X195546254Y-98103159D01*
X195677995Y-98157728D01*
X195796560Y-98236950D01*
X195897390Y-98337780D01*
X195976612Y-98456345D01*
X196007834Y-98531722D01*
X196031181Y-98588087D01*
X196051097Y-98688208D01*
X196059000Y-98727942D01*
X196059000Y-98870538D01*
X196031181Y-99010394D01*
X195976612Y-99142135D01*
X195897390Y-99260700D01*
X195796560Y-99361530D01*
X195677995Y-99440752D01*
X195546254Y-99495321D01*
X195476326Y-99509230D01*
X195406399Y-99523140D01*
X195263801Y-99523140D01*
X195193874Y-99509231D01*
X195123946Y-99495321D01*
X194992205Y-99440752D01*
X194873640Y-99361530D01*
X194772810Y-99260700D01*
X194693588Y-99142135D01*
X194639019Y-99010394D01*
X194611200Y-98870538D01*
X194611200Y-98727942D01*
X194619104Y-98688208D01*
X194639019Y-98588087D01*
X194662366Y-98531722D01*
X194693588Y-98456345D01*
X194772810Y-98337780D01*
X194873640Y-98236950D01*
X194992205Y-98157728D01*
X195123946Y-98103159D01*
X195193874Y-98089249D01*
X195263801Y-98075340D01*
X195406399Y-98075340D01*
X195476326Y-98089249D01*
X195476326Y-98089249D01*
G37*
G36*
X185290926Y-98089249D02*
G01*
X185360854Y-98103159D01*
X185492595Y-98157728D01*
X185611160Y-98236950D01*
X185711990Y-98337780D01*
X185791212Y-98456345D01*
X185822434Y-98531722D01*
X185845781Y-98588087D01*
X185865697Y-98688208D01*
X185873600Y-98727942D01*
X185873600Y-98870538D01*
X185845781Y-99010394D01*
X185791212Y-99142135D01*
X185711990Y-99260700D01*
X185611160Y-99361530D01*
X185492595Y-99440752D01*
X185360854Y-99495321D01*
X185290926Y-99509230D01*
X185220999Y-99523140D01*
X185078401Y-99523140D01*
X185008474Y-99509231D01*
X184938546Y-99495321D01*
X184806805Y-99440752D01*
X184688240Y-99361530D01*
X184587410Y-99260700D01*
X184508188Y-99142135D01*
X184453619Y-99010394D01*
X184425800Y-98870538D01*
X184425800Y-98727942D01*
X184433704Y-98688208D01*
X184453619Y-98588087D01*
X184476966Y-98531722D01*
X184508188Y-98456345D01*
X184587410Y-98337780D01*
X184688240Y-98236950D01*
X184806805Y-98157728D01*
X184938546Y-98103159D01*
X185008474Y-98089249D01*
X185078401Y-98075340D01*
X185220999Y-98075340D01*
X185290926Y-98089249D01*
X185290926Y-98089249D01*
G37*
G36*
X154290926Y-98089249D02*
G01*
X154360854Y-98103159D01*
X154492595Y-98157728D01*
X154611160Y-98236950D01*
X154711990Y-98337780D01*
X154791212Y-98456345D01*
X154822434Y-98531722D01*
X154845781Y-98588087D01*
X154865697Y-98688208D01*
X154873600Y-98727942D01*
X154873600Y-98870538D01*
X154845781Y-99010394D01*
X154791212Y-99142135D01*
X154711990Y-99260700D01*
X154611160Y-99361530D01*
X154492595Y-99440752D01*
X154360854Y-99495321D01*
X154290926Y-99509230D01*
X154220999Y-99523140D01*
X154078401Y-99523140D01*
X154008474Y-99509231D01*
X153938546Y-99495321D01*
X153806805Y-99440752D01*
X153688240Y-99361530D01*
X153587410Y-99260700D01*
X153508188Y-99142135D01*
X153453619Y-99010394D01*
X153425800Y-98870538D01*
X153425800Y-98727942D01*
X153433704Y-98688208D01*
X153453619Y-98588087D01*
X153476966Y-98531722D01*
X153508188Y-98456345D01*
X153587410Y-98337780D01*
X153688240Y-98236950D01*
X153806805Y-98157728D01*
X153938546Y-98103159D01*
X154008474Y-98089249D01*
X154078401Y-98075340D01*
X154220999Y-98075340D01*
X154290926Y-98089249D01*
X154290926Y-98089249D01*
G37*
G36*
X164476326Y-98089249D02*
G01*
X164546254Y-98103159D01*
X164677995Y-98157728D01*
X164796560Y-98236950D01*
X164897390Y-98337780D01*
X164976612Y-98456345D01*
X165007834Y-98531722D01*
X165031181Y-98588087D01*
X165051097Y-98688208D01*
X165059000Y-98727942D01*
X165059000Y-98870538D01*
X165031181Y-99010394D01*
X164976612Y-99142135D01*
X164897390Y-99260700D01*
X164796560Y-99361530D01*
X164677995Y-99440752D01*
X164546254Y-99495321D01*
X164476326Y-99509230D01*
X164406399Y-99523140D01*
X164263801Y-99523140D01*
X164193874Y-99509231D01*
X164123946Y-99495321D01*
X163992205Y-99440752D01*
X163873640Y-99361530D01*
X163772810Y-99260700D01*
X163693588Y-99142135D01*
X163639019Y-99010394D01*
X163611200Y-98870538D01*
X163611200Y-98727942D01*
X163619104Y-98688208D01*
X163639019Y-98588087D01*
X163662366Y-98531722D01*
X163693588Y-98456345D01*
X163772810Y-98337780D01*
X163873640Y-98236950D01*
X163992205Y-98157728D01*
X164123946Y-98103159D01*
X164193874Y-98089249D01*
X164263801Y-98075340D01*
X164406399Y-98075340D01*
X164476326Y-98089249D01*
X164476326Y-98089249D01*
G37*
G36*
X81290926Y-98089249D02*
G01*
X81360854Y-98103159D01*
X81492595Y-98157728D01*
X81611160Y-98236950D01*
X81711990Y-98337780D01*
X81791212Y-98456345D01*
X81822434Y-98531722D01*
X81845781Y-98588087D01*
X81865697Y-98688208D01*
X81873600Y-98727942D01*
X81873600Y-98870538D01*
X81845781Y-99010394D01*
X81791212Y-99142135D01*
X81711990Y-99260700D01*
X81611160Y-99361530D01*
X81492595Y-99440752D01*
X81360854Y-99495321D01*
X81290926Y-99509230D01*
X81220999Y-99523140D01*
X81078401Y-99523140D01*
X81008474Y-99509231D01*
X80938546Y-99495321D01*
X80806805Y-99440752D01*
X80688240Y-99361530D01*
X80587410Y-99260700D01*
X80508188Y-99142135D01*
X80453619Y-99010394D01*
X80425800Y-98870538D01*
X80425800Y-98727942D01*
X80433704Y-98688208D01*
X80453619Y-98588087D01*
X80476966Y-98531722D01*
X80508188Y-98456345D01*
X80587410Y-98337780D01*
X80688240Y-98236950D01*
X80806805Y-98157728D01*
X80938546Y-98103159D01*
X81008474Y-98089249D01*
X81078401Y-98075340D01*
X81220999Y-98075340D01*
X81290926Y-98089249D01*
X81290926Y-98089249D01*
G37*
G36*
X91476326Y-98089249D02*
G01*
X91546254Y-98103159D01*
X91677995Y-98157728D01*
X91796560Y-98236950D01*
X91897390Y-98337780D01*
X91976612Y-98456345D01*
X92007834Y-98531722D01*
X92031181Y-98588087D01*
X92051097Y-98688208D01*
X92059000Y-98727942D01*
X92059000Y-98870538D01*
X92031181Y-99010394D01*
X91976612Y-99142135D01*
X91897390Y-99260700D01*
X91796560Y-99361530D01*
X91677995Y-99440752D01*
X91546254Y-99495321D01*
X91476326Y-99509230D01*
X91406399Y-99523140D01*
X91263801Y-99523140D01*
X91193874Y-99509231D01*
X91123946Y-99495321D01*
X90992205Y-99440752D01*
X90873640Y-99361530D01*
X90772810Y-99260700D01*
X90693588Y-99142135D01*
X90639019Y-99010394D01*
X90611200Y-98870538D01*
X90611200Y-98727942D01*
X90619104Y-98688208D01*
X90639019Y-98588087D01*
X90662366Y-98531722D01*
X90693588Y-98456345D01*
X90772810Y-98337780D01*
X90873640Y-98236950D01*
X90992205Y-98157728D01*
X91123946Y-98103159D01*
X91193874Y-98089249D01*
X91263801Y-98075340D01*
X91406399Y-98075340D01*
X91476326Y-98089249D01*
X91476326Y-98089249D01*
G37*
G36*
X112476326Y-98089249D02*
G01*
X112546254Y-98103159D01*
X112677995Y-98157728D01*
X112796560Y-98236950D01*
X112897390Y-98337780D01*
X112976612Y-98456345D01*
X113007834Y-98531722D01*
X113031181Y-98588087D01*
X113051097Y-98688208D01*
X113059000Y-98727942D01*
X113059000Y-98870538D01*
X113031181Y-99010394D01*
X112976612Y-99142135D01*
X112897390Y-99260700D01*
X112796560Y-99361530D01*
X112677995Y-99440752D01*
X112546254Y-99495321D01*
X112476326Y-99509230D01*
X112406399Y-99523140D01*
X112263801Y-99523140D01*
X112193874Y-99509231D01*
X112123946Y-99495321D01*
X111992205Y-99440752D01*
X111873640Y-99361530D01*
X111772810Y-99260700D01*
X111693588Y-99142135D01*
X111639019Y-99010394D01*
X111611200Y-98870538D01*
X111611200Y-98727942D01*
X111619104Y-98688208D01*
X111639019Y-98588087D01*
X111662366Y-98531722D01*
X111693588Y-98456345D01*
X111772810Y-98337780D01*
X111873640Y-98236950D01*
X111992205Y-98157728D01*
X112123946Y-98103159D01*
X112193874Y-98089249D01*
X112263801Y-98075340D01*
X112406399Y-98075340D01*
X112476326Y-98089249D01*
X112476326Y-98089249D01*
G37*
G36*
X102290926Y-98089249D02*
G01*
X102360854Y-98103159D01*
X102492595Y-98157728D01*
X102611160Y-98236950D01*
X102711990Y-98337780D01*
X102791212Y-98456345D01*
X102822434Y-98531722D01*
X102845781Y-98588087D01*
X102865697Y-98688208D01*
X102873600Y-98727942D01*
X102873600Y-98870538D01*
X102845781Y-99010394D01*
X102791212Y-99142135D01*
X102711990Y-99260700D01*
X102611160Y-99361530D01*
X102492595Y-99440752D01*
X102360854Y-99495321D01*
X102290926Y-99509230D01*
X102220999Y-99523140D01*
X102078401Y-99523140D01*
X102008474Y-99509231D01*
X101938546Y-99495321D01*
X101806805Y-99440752D01*
X101688240Y-99361530D01*
X101587410Y-99260700D01*
X101508188Y-99142135D01*
X101453619Y-99010394D01*
X101425800Y-98870538D01*
X101425800Y-98727942D01*
X101433704Y-98688208D01*
X101453619Y-98588087D01*
X101476966Y-98531722D01*
X101508188Y-98456345D01*
X101587410Y-98337780D01*
X101688240Y-98236950D01*
X101806805Y-98157728D01*
X101938546Y-98103159D01*
X102008474Y-98089249D01*
X102078401Y-98075340D01*
X102220999Y-98075340D01*
X102290926Y-98089249D01*
X102290926Y-98089249D01*
G37*
G36*
X83508346Y-96125830D02*
G01*
X83578274Y-96139739D01*
X83710015Y-96194308D01*
X83828580Y-96273530D01*
X83929410Y-96374360D01*
X84008632Y-96492925D01*
X84063201Y-96624666D01*
X84091020Y-96764522D01*
X84091020Y-96907118D01*
X84063201Y-97046974D01*
X84008632Y-97178715D01*
X83929410Y-97297280D01*
X83828580Y-97398110D01*
X83710015Y-97477332D01*
X83578274Y-97531901D01*
X83508346Y-97545810D01*
X83438419Y-97559720D01*
X83295821Y-97559720D01*
X83225894Y-97545811D01*
X83155966Y-97531901D01*
X83024225Y-97477332D01*
X82905660Y-97398110D01*
X82804830Y-97297280D01*
X82725608Y-97178715D01*
X82671039Y-97046974D01*
X82643220Y-96907118D01*
X82643220Y-96764522D01*
X82671039Y-96624666D01*
X82725608Y-96492925D01*
X82804830Y-96374360D01*
X82905660Y-96273530D01*
X83024225Y-96194308D01*
X83155966Y-96139739D01*
X83225894Y-96125830D01*
X83295821Y-96111920D01*
X83438419Y-96111920D01*
X83508346Y-96125830D01*
X83508346Y-96125830D01*
G37*
G36*
X89258906Y-96125830D02*
G01*
X89328834Y-96139739D01*
X89460575Y-96194308D01*
X89579140Y-96273530D01*
X89679970Y-96374360D01*
X89759192Y-96492925D01*
X89813761Y-96624666D01*
X89841580Y-96764522D01*
X89841580Y-96907118D01*
X89813761Y-97046974D01*
X89759192Y-97178715D01*
X89679970Y-97297280D01*
X89579140Y-97398110D01*
X89460575Y-97477332D01*
X89328834Y-97531901D01*
X89258906Y-97545810D01*
X89188979Y-97559720D01*
X89046381Y-97559720D01*
X88976454Y-97545811D01*
X88906526Y-97531901D01*
X88774785Y-97477332D01*
X88656220Y-97398110D01*
X88555390Y-97297280D01*
X88476168Y-97178715D01*
X88421599Y-97046974D01*
X88393780Y-96907118D01*
X88393780Y-96764522D01*
X88421599Y-96624666D01*
X88476168Y-96492925D01*
X88555390Y-96374360D01*
X88656220Y-96273530D01*
X88774785Y-96194308D01*
X88906526Y-96139739D01*
X88976454Y-96125830D01*
X89046381Y-96111920D01*
X89188979Y-96111920D01*
X89258906Y-96125830D01*
X89258906Y-96125830D01*
G37*
G36*
X214258906Y-96125830D02*
G01*
X214328834Y-96139739D01*
X214460575Y-96194308D01*
X214579140Y-96273530D01*
X214679970Y-96374360D01*
X214759192Y-96492925D01*
X214813761Y-96624666D01*
X214841580Y-96764522D01*
X214841580Y-96907118D01*
X214813761Y-97046974D01*
X214759192Y-97178715D01*
X214679970Y-97297280D01*
X214579140Y-97398110D01*
X214460575Y-97477332D01*
X214328834Y-97531901D01*
X214258906Y-97545810D01*
X214188979Y-97559720D01*
X214046381Y-97559720D01*
X213976454Y-97545811D01*
X213906526Y-97531901D01*
X213774785Y-97477332D01*
X213656220Y-97398110D01*
X213555390Y-97297280D01*
X213476168Y-97178715D01*
X213421599Y-97046974D01*
X213393780Y-96907118D01*
X213393780Y-96764522D01*
X213421599Y-96624666D01*
X213476168Y-96492925D01*
X213555390Y-96374360D01*
X213656220Y-96273530D01*
X213774785Y-96194308D01*
X213906526Y-96139739D01*
X213976454Y-96125830D01*
X214046381Y-96111920D01*
X214188979Y-96111920D01*
X214258906Y-96125830D01*
X214258906Y-96125830D01*
G37*
G36*
X208508346Y-96125830D02*
G01*
X208578274Y-96139739D01*
X208710015Y-96194308D01*
X208828580Y-96273530D01*
X208929410Y-96374360D01*
X209008632Y-96492925D01*
X209063201Y-96624666D01*
X209091020Y-96764522D01*
X209091020Y-96907118D01*
X209063201Y-97046974D01*
X209008632Y-97178715D01*
X208929410Y-97297280D01*
X208828580Y-97398110D01*
X208710015Y-97477332D01*
X208578274Y-97531901D01*
X208508346Y-97545810D01*
X208438419Y-97559720D01*
X208295821Y-97559720D01*
X208225894Y-97545811D01*
X208155966Y-97531901D01*
X208024225Y-97477332D01*
X207905660Y-97398110D01*
X207804830Y-97297280D01*
X207725608Y-97178715D01*
X207671039Y-97046974D01*
X207643220Y-96907118D01*
X207643220Y-96764522D01*
X207671039Y-96624666D01*
X207725608Y-96492925D01*
X207804830Y-96374360D01*
X207905660Y-96273530D01*
X208024225Y-96194308D01*
X208155966Y-96139739D01*
X208225894Y-96125830D01*
X208295821Y-96111920D01*
X208438419Y-96111920D01*
X208508346Y-96125830D01*
X208508346Y-96125830D01*
G37*
G36*
X162258906Y-96125830D02*
G01*
X162328834Y-96139739D01*
X162460575Y-96194308D01*
X162579140Y-96273530D01*
X162679970Y-96374360D01*
X162759192Y-96492925D01*
X162813761Y-96624666D01*
X162841580Y-96764522D01*
X162841580Y-96907118D01*
X162813761Y-97046974D01*
X162759192Y-97178715D01*
X162679970Y-97297280D01*
X162579140Y-97398110D01*
X162460575Y-97477332D01*
X162328834Y-97531901D01*
X162258906Y-97545810D01*
X162188979Y-97559720D01*
X162046381Y-97559720D01*
X161976454Y-97545811D01*
X161906526Y-97531901D01*
X161774785Y-97477332D01*
X161656220Y-97398110D01*
X161555390Y-97297280D01*
X161476168Y-97178715D01*
X161421599Y-97046974D01*
X161393780Y-96907118D01*
X161393780Y-96764522D01*
X161421599Y-96624666D01*
X161476168Y-96492925D01*
X161555390Y-96374360D01*
X161656220Y-96273530D01*
X161774785Y-96194308D01*
X161906526Y-96139739D01*
X161976454Y-96125830D01*
X162046381Y-96111920D01*
X162188979Y-96111920D01*
X162258906Y-96125830D01*
X162258906Y-96125830D01*
G37*
G36*
X156508346Y-96125830D02*
G01*
X156578274Y-96139739D01*
X156710015Y-96194308D01*
X156828580Y-96273530D01*
X156929410Y-96374360D01*
X157008632Y-96492925D01*
X157063201Y-96624666D01*
X157091020Y-96764522D01*
X157091020Y-96907118D01*
X157063201Y-97046974D01*
X157008632Y-97178715D01*
X156929410Y-97297280D01*
X156828580Y-97398110D01*
X156710015Y-97477332D01*
X156578274Y-97531901D01*
X156508346Y-97545810D01*
X156438419Y-97559720D01*
X156295821Y-97559720D01*
X156225894Y-97545811D01*
X156155966Y-97531901D01*
X156024225Y-97477332D01*
X155905660Y-97398110D01*
X155804830Y-97297280D01*
X155725608Y-97178715D01*
X155671039Y-97046974D01*
X155643220Y-96907118D01*
X155643220Y-96764522D01*
X155671039Y-96624666D01*
X155725608Y-96492925D01*
X155804830Y-96374360D01*
X155905660Y-96273530D01*
X156024225Y-96194308D01*
X156155966Y-96139739D01*
X156225894Y-96125830D01*
X156295821Y-96111920D01*
X156438419Y-96111920D01*
X156508346Y-96125830D01*
X156508346Y-96125830D01*
G37*
G36*
X193258906Y-96125830D02*
G01*
X193328834Y-96139739D01*
X193460575Y-96194308D01*
X193579140Y-96273530D01*
X193679970Y-96374360D01*
X193759192Y-96492925D01*
X193813761Y-96624666D01*
X193841580Y-96764522D01*
X193841580Y-96907118D01*
X193813761Y-97046974D01*
X193759192Y-97178715D01*
X193679970Y-97297280D01*
X193579140Y-97398110D01*
X193460575Y-97477332D01*
X193328834Y-97531901D01*
X193258906Y-97545810D01*
X193188979Y-97559720D01*
X193046381Y-97559720D01*
X192976454Y-97545811D01*
X192906526Y-97531901D01*
X192774785Y-97477332D01*
X192656220Y-97398110D01*
X192555390Y-97297280D01*
X192476168Y-97178715D01*
X192421599Y-97046974D01*
X192393780Y-96907118D01*
X192393780Y-96764522D01*
X192421599Y-96624666D01*
X192476168Y-96492925D01*
X192555390Y-96374360D01*
X192656220Y-96273530D01*
X192774785Y-96194308D01*
X192906526Y-96139739D01*
X192976454Y-96125830D01*
X193046381Y-96111920D01*
X193188979Y-96111920D01*
X193258906Y-96125830D01*
X193258906Y-96125830D01*
G37*
G36*
X187508346Y-96125830D02*
G01*
X187578274Y-96139739D01*
X187710015Y-96194308D01*
X187828580Y-96273530D01*
X187929410Y-96374360D01*
X188008632Y-96492925D01*
X188063201Y-96624666D01*
X188091020Y-96764522D01*
X188091020Y-96907118D01*
X188063201Y-97046974D01*
X188008632Y-97178715D01*
X187929410Y-97297280D01*
X187828580Y-97398110D01*
X187710015Y-97477332D01*
X187578274Y-97531901D01*
X187508346Y-97545810D01*
X187438419Y-97559720D01*
X187295821Y-97559720D01*
X187225894Y-97545811D01*
X187155966Y-97531901D01*
X187024225Y-97477332D01*
X186905660Y-97398110D01*
X186804830Y-97297280D01*
X186725608Y-97178715D01*
X186671039Y-97046974D01*
X186643220Y-96907118D01*
X186643220Y-96764522D01*
X186671039Y-96624666D01*
X186725608Y-96492925D01*
X186804830Y-96374360D01*
X186905660Y-96273530D01*
X187024225Y-96194308D01*
X187155966Y-96139739D01*
X187225894Y-96125830D01*
X187295821Y-96111920D01*
X187438419Y-96111920D01*
X187508346Y-96125830D01*
X187508346Y-96125830D01*
G37*
G36*
X104508346Y-96125830D02*
G01*
X104578274Y-96139739D01*
X104710015Y-96194308D01*
X104828580Y-96273530D01*
X104929410Y-96374360D01*
X105008632Y-96492925D01*
X105063201Y-96624666D01*
X105091020Y-96764522D01*
X105091020Y-96907118D01*
X105063201Y-97046974D01*
X105008632Y-97178715D01*
X104929410Y-97297280D01*
X104828580Y-97398110D01*
X104710015Y-97477332D01*
X104578274Y-97531901D01*
X104508346Y-97545810D01*
X104438419Y-97559720D01*
X104295821Y-97559720D01*
X104225894Y-97545811D01*
X104155966Y-97531901D01*
X104024225Y-97477332D01*
X103905660Y-97398110D01*
X103804830Y-97297280D01*
X103725608Y-97178715D01*
X103671039Y-97046974D01*
X103643220Y-96907118D01*
X103643220Y-96764522D01*
X103671039Y-96624666D01*
X103725608Y-96492925D01*
X103804830Y-96374360D01*
X103905660Y-96273530D01*
X104024225Y-96194308D01*
X104155966Y-96139739D01*
X104225894Y-96125830D01*
X104295821Y-96111920D01*
X104438419Y-96111920D01*
X104508346Y-96125830D01*
X104508346Y-96125830D01*
G37*
G36*
X110258906Y-96125830D02*
G01*
X110328834Y-96139739D01*
X110460575Y-96194308D01*
X110579140Y-96273530D01*
X110679970Y-96374360D01*
X110759192Y-96492925D01*
X110813761Y-96624666D01*
X110841580Y-96764522D01*
X110841580Y-96907118D01*
X110813761Y-97046974D01*
X110759192Y-97178715D01*
X110679970Y-97297280D01*
X110579140Y-97398110D01*
X110460575Y-97477332D01*
X110328834Y-97531901D01*
X110258906Y-97545810D01*
X110188979Y-97559720D01*
X110046381Y-97559720D01*
X109976454Y-97545811D01*
X109906526Y-97531901D01*
X109774785Y-97477332D01*
X109656220Y-97398110D01*
X109555390Y-97297280D01*
X109476168Y-97178715D01*
X109421599Y-97046974D01*
X109393780Y-96907118D01*
X109393780Y-96764522D01*
X109421599Y-96624666D01*
X109476168Y-96492925D01*
X109555390Y-96374360D01*
X109656220Y-96273530D01*
X109774785Y-96194308D01*
X109906526Y-96139739D01*
X109976454Y-96125830D01*
X110046381Y-96111920D01*
X110188979Y-96111920D01*
X110258906Y-96125830D01*
X110258906Y-96125830D01*
G37*
G36*
X141258906Y-96125830D02*
G01*
X141328834Y-96139739D01*
X141460575Y-96194308D01*
X141579140Y-96273530D01*
X141679970Y-96374360D01*
X141759192Y-96492925D01*
X141813761Y-96624666D01*
X141841580Y-96764522D01*
X141841580Y-96907118D01*
X141813761Y-97046974D01*
X141759192Y-97178715D01*
X141679970Y-97297280D01*
X141579140Y-97398110D01*
X141460575Y-97477332D01*
X141328834Y-97531901D01*
X141258906Y-97545810D01*
X141188979Y-97559720D01*
X141046381Y-97559720D01*
X140976454Y-97545811D01*
X140906526Y-97531901D01*
X140774785Y-97477332D01*
X140656220Y-97398110D01*
X140555390Y-97297280D01*
X140476168Y-97178715D01*
X140421599Y-97046974D01*
X140393780Y-96907118D01*
X140393780Y-96764522D01*
X140421599Y-96624666D01*
X140476168Y-96492925D01*
X140555390Y-96374360D01*
X140656220Y-96273530D01*
X140774785Y-96194308D01*
X140906526Y-96139739D01*
X140976454Y-96125830D01*
X141046381Y-96111920D01*
X141188979Y-96111920D01*
X141258906Y-96125830D01*
X141258906Y-96125830D01*
G37*
G36*
X135508346Y-96125830D02*
G01*
X135578274Y-96139739D01*
X135710015Y-96194308D01*
X135828580Y-96273530D01*
X135929410Y-96374360D01*
X136008632Y-96492925D01*
X136063201Y-96624666D01*
X136091020Y-96764522D01*
X136091020Y-96907118D01*
X136063201Y-97046974D01*
X136008632Y-97178715D01*
X135929410Y-97297280D01*
X135828580Y-97398110D01*
X135710015Y-97477332D01*
X135578274Y-97531901D01*
X135508346Y-97545810D01*
X135438419Y-97559720D01*
X135295821Y-97559720D01*
X135225894Y-97545811D01*
X135155966Y-97531901D01*
X135024225Y-97477332D01*
X134905660Y-97398110D01*
X134804830Y-97297280D01*
X134725608Y-97178715D01*
X134671039Y-97046974D01*
X134643220Y-96907118D01*
X134643220Y-96764522D01*
X134671039Y-96624666D01*
X134725608Y-96492925D01*
X134804830Y-96374360D01*
X134905660Y-96273530D01*
X135024225Y-96194308D01*
X135155966Y-96139739D01*
X135225894Y-96125830D01*
X135295821Y-96111920D01*
X135438419Y-96111920D01*
X135508346Y-96125830D01*
X135508346Y-96125830D01*
G37*
G36*
X221220762Y-95598145D02*
G01*
X221308988Y-95606834D01*
X221478789Y-95658343D01*
X221478792Y-95658344D01*
X221635278Y-95741988D01*
X221772444Y-95854556D01*
X221885012Y-95991722D01*
X221968656Y-96148208D01*
X221968657Y-96148211D01*
X222020166Y-96318012D01*
X222037558Y-96494600D01*
X222020166Y-96671188D01*
X221990594Y-96768672D01*
X221968656Y-96840992D01*
X221885012Y-96997478D01*
X221772444Y-97134644D01*
X221635278Y-97247212D01*
X221478792Y-97330856D01*
X221478789Y-97330857D01*
X221308988Y-97382366D01*
X221220762Y-97391055D01*
X221176650Y-97395400D01*
X221088150Y-97395400D01*
X221044038Y-97391055D01*
X220955812Y-97382366D01*
X220786011Y-97330857D01*
X220786008Y-97330856D01*
X220629522Y-97247212D01*
X220492356Y-97134644D01*
X220379788Y-96997478D01*
X220296144Y-96840992D01*
X220274206Y-96768672D01*
X220244634Y-96671188D01*
X220227242Y-96494600D01*
X220244634Y-96318012D01*
X220296143Y-96148211D01*
X220296144Y-96148208D01*
X220379788Y-95991722D01*
X220492356Y-95854556D01*
X220629522Y-95741988D01*
X220786008Y-95658344D01*
X220786011Y-95658343D01*
X220955812Y-95606834D01*
X221044038Y-95598145D01*
X221088150Y-95593800D01*
X221176650Y-95593800D01*
X221220762Y-95598145D01*
X221220762Y-95598145D01*
G37*
G36*
X218680762Y-95598145D02*
G01*
X218768988Y-95606834D01*
X218938789Y-95658343D01*
X218938792Y-95658344D01*
X219095278Y-95741988D01*
X219232444Y-95854556D01*
X219345012Y-95991722D01*
X219428656Y-96148208D01*
X219428657Y-96148211D01*
X219480166Y-96318012D01*
X219497558Y-96494600D01*
X219480166Y-96671188D01*
X219450594Y-96768672D01*
X219428656Y-96840992D01*
X219345012Y-96997478D01*
X219232444Y-97134644D01*
X219095278Y-97247212D01*
X218938792Y-97330856D01*
X218938789Y-97330857D01*
X218768988Y-97382366D01*
X218680762Y-97391055D01*
X218636650Y-97395400D01*
X218548150Y-97395400D01*
X218504038Y-97391055D01*
X218415812Y-97382366D01*
X218246011Y-97330857D01*
X218246008Y-97330856D01*
X218089522Y-97247212D01*
X217952356Y-97134644D01*
X217839788Y-96997478D01*
X217756144Y-96840992D01*
X217734206Y-96768672D01*
X217704634Y-96671188D01*
X217687242Y-96494600D01*
X217704634Y-96318012D01*
X217756143Y-96148211D01*
X217756144Y-96148208D01*
X217839788Y-95991722D01*
X217952356Y-95854556D01*
X218089522Y-95741988D01*
X218246008Y-95658344D01*
X218246011Y-95658343D01*
X218415812Y-95606834D01*
X218504038Y-95598145D01*
X218548150Y-95593800D01*
X218636650Y-95593800D01*
X218680762Y-95598145D01*
X218680762Y-95598145D01*
G37*
G36*
X211383626Y-95417169D02*
G01*
X211453554Y-95431079D01*
X211585295Y-95485648D01*
X211703860Y-95564870D01*
X211804690Y-95665700D01*
X211883912Y-95784265D01*
X211938481Y-95916006D01*
X211966300Y-96055862D01*
X211966300Y-96198458D01*
X211938481Y-96338314D01*
X211883912Y-96470055D01*
X211804690Y-96588620D01*
X211703860Y-96689450D01*
X211585295Y-96768672D01*
X211453554Y-96823241D01*
X211383626Y-96837151D01*
X211313699Y-96851060D01*
X211171101Y-96851060D01*
X211101174Y-96837151D01*
X211031246Y-96823241D01*
X210899505Y-96768672D01*
X210780940Y-96689450D01*
X210680110Y-96588620D01*
X210600888Y-96470055D01*
X210546319Y-96338314D01*
X210518500Y-96198458D01*
X210518500Y-96055862D01*
X210546319Y-95916006D01*
X210600888Y-95784265D01*
X210680110Y-95665700D01*
X210780940Y-95564870D01*
X210899505Y-95485648D01*
X211031246Y-95431079D01*
X211101174Y-95417170D01*
X211171101Y-95403260D01*
X211313699Y-95403260D01*
X211383626Y-95417169D01*
X211383626Y-95417169D01*
G37*
G36*
X190383626Y-95417169D02*
G01*
X190453554Y-95431079D01*
X190585295Y-95485648D01*
X190703860Y-95564870D01*
X190804690Y-95665700D01*
X190883912Y-95784265D01*
X190938481Y-95916006D01*
X190966300Y-96055862D01*
X190966300Y-96198458D01*
X190938481Y-96338314D01*
X190883912Y-96470055D01*
X190804690Y-96588620D01*
X190703860Y-96689450D01*
X190585295Y-96768672D01*
X190453554Y-96823241D01*
X190383626Y-96837151D01*
X190313699Y-96851060D01*
X190171101Y-96851060D01*
X190101174Y-96837151D01*
X190031246Y-96823241D01*
X189899505Y-96768672D01*
X189780940Y-96689450D01*
X189680110Y-96588620D01*
X189600888Y-96470055D01*
X189546319Y-96338314D01*
X189518500Y-96198458D01*
X189518500Y-96055862D01*
X189546319Y-95916006D01*
X189600888Y-95784265D01*
X189680110Y-95665700D01*
X189780940Y-95564870D01*
X189899505Y-95485648D01*
X190031246Y-95431079D01*
X190101174Y-95417170D01*
X190171101Y-95403260D01*
X190313699Y-95403260D01*
X190383626Y-95417169D01*
X190383626Y-95417169D01*
G37*
G36*
X159383626Y-95417169D02*
G01*
X159453554Y-95431079D01*
X159585295Y-95485648D01*
X159703860Y-95564870D01*
X159804690Y-95665700D01*
X159883912Y-95784265D01*
X159938481Y-95916006D01*
X159966300Y-96055862D01*
X159966300Y-96198458D01*
X159938481Y-96338314D01*
X159883912Y-96470055D01*
X159804690Y-96588620D01*
X159703860Y-96689450D01*
X159585295Y-96768672D01*
X159453554Y-96823241D01*
X159383626Y-96837151D01*
X159313699Y-96851060D01*
X159171101Y-96851060D01*
X159101174Y-96837151D01*
X159031246Y-96823241D01*
X158899505Y-96768672D01*
X158780940Y-96689450D01*
X158680110Y-96588620D01*
X158600888Y-96470055D01*
X158546319Y-96338314D01*
X158518500Y-96198458D01*
X158518500Y-96055862D01*
X158546319Y-95916006D01*
X158600888Y-95784265D01*
X158680110Y-95665700D01*
X158780940Y-95564870D01*
X158899505Y-95485648D01*
X159031246Y-95431079D01*
X159101174Y-95417170D01*
X159171101Y-95403260D01*
X159313699Y-95403260D01*
X159383626Y-95417169D01*
X159383626Y-95417169D01*
G37*
G36*
X138383626Y-95417169D02*
G01*
X138453554Y-95431079D01*
X138585295Y-95485648D01*
X138703860Y-95564870D01*
X138804690Y-95665700D01*
X138883912Y-95784265D01*
X138938481Y-95916006D01*
X138966300Y-96055862D01*
X138966300Y-96198458D01*
X138938481Y-96338314D01*
X138883912Y-96470055D01*
X138804690Y-96588620D01*
X138703860Y-96689450D01*
X138585295Y-96768672D01*
X138453554Y-96823241D01*
X138383626Y-96837151D01*
X138313699Y-96851060D01*
X138171101Y-96851060D01*
X138101174Y-96837151D01*
X138031246Y-96823241D01*
X137899505Y-96768672D01*
X137780940Y-96689450D01*
X137680110Y-96588620D01*
X137600888Y-96470055D01*
X137546319Y-96338314D01*
X137518500Y-96198458D01*
X137518500Y-96055862D01*
X137546319Y-95916006D01*
X137600888Y-95784265D01*
X137680110Y-95665700D01*
X137780940Y-95564870D01*
X137899505Y-95485648D01*
X138031246Y-95431079D01*
X138101174Y-95417170D01*
X138171101Y-95403260D01*
X138313699Y-95403260D01*
X138383626Y-95417169D01*
X138383626Y-95417169D01*
G37*
G36*
X107383626Y-95417169D02*
G01*
X107453554Y-95431079D01*
X107585295Y-95485648D01*
X107703860Y-95564870D01*
X107804690Y-95665700D01*
X107883912Y-95784265D01*
X107938481Y-95916006D01*
X107966300Y-96055862D01*
X107966300Y-96198458D01*
X107938481Y-96338314D01*
X107883912Y-96470055D01*
X107804690Y-96588620D01*
X107703860Y-96689450D01*
X107585295Y-96768672D01*
X107453554Y-96823241D01*
X107383626Y-96837151D01*
X107313699Y-96851060D01*
X107171101Y-96851060D01*
X107101174Y-96837151D01*
X107031246Y-96823241D01*
X106899505Y-96768672D01*
X106780940Y-96689450D01*
X106680110Y-96588620D01*
X106600888Y-96470055D01*
X106546319Y-96338314D01*
X106518500Y-96198458D01*
X106518500Y-96055862D01*
X106546319Y-95916006D01*
X106600888Y-95784265D01*
X106680110Y-95665700D01*
X106780940Y-95564870D01*
X106899505Y-95485648D01*
X107031246Y-95431079D01*
X107101174Y-95417170D01*
X107171101Y-95403260D01*
X107313699Y-95403260D01*
X107383626Y-95417169D01*
X107383626Y-95417169D01*
G37*
G36*
X86383626Y-95417169D02*
G01*
X86453554Y-95431079D01*
X86585295Y-95485648D01*
X86703860Y-95564870D01*
X86804690Y-95665700D01*
X86883912Y-95784265D01*
X86938481Y-95916006D01*
X86966300Y-96055862D01*
X86966300Y-96198458D01*
X86938481Y-96338314D01*
X86883912Y-96470055D01*
X86804690Y-96588620D01*
X86703860Y-96689450D01*
X86585295Y-96768672D01*
X86453554Y-96823241D01*
X86383626Y-96837151D01*
X86313699Y-96851060D01*
X86171101Y-96851060D01*
X86101174Y-96837151D01*
X86031246Y-96823241D01*
X85899505Y-96768672D01*
X85780940Y-96689450D01*
X85680110Y-96588620D01*
X85600888Y-96470055D01*
X85546319Y-96338314D01*
X85518500Y-96198458D01*
X85518500Y-96055862D01*
X85546319Y-95916006D01*
X85600888Y-95784265D01*
X85680110Y-95665700D01*
X85780940Y-95564870D01*
X85899505Y-95485648D01*
X86031246Y-95431079D01*
X86101174Y-95417170D01*
X86171101Y-95403260D01*
X86313699Y-95403260D01*
X86383626Y-95417169D01*
X86383626Y-95417169D01*
G37*
G36*
X221220762Y-93058145D02*
G01*
X221308988Y-93066834D01*
X221478789Y-93118343D01*
X221478792Y-93118344D01*
X221635278Y-93201988D01*
X221772444Y-93314556D01*
X221885012Y-93451722D01*
X221968656Y-93608208D01*
X221968657Y-93608211D01*
X222020166Y-93778012D01*
X222037558Y-93954600D01*
X222020166Y-94131188D01*
X221968657Y-94300989D01*
X221968656Y-94300992D01*
X221885012Y-94457478D01*
X221772444Y-94594644D01*
X221635278Y-94707212D01*
X221478792Y-94790856D01*
X221478789Y-94790857D01*
X221308988Y-94842366D01*
X221220762Y-94851055D01*
X221176650Y-94855400D01*
X221088150Y-94855400D01*
X221044038Y-94851055D01*
X220955812Y-94842366D01*
X220786011Y-94790857D01*
X220786008Y-94790856D01*
X220629522Y-94707212D01*
X220492356Y-94594644D01*
X220379788Y-94457478D01*
X220296144Y-94300992D01*
X220296143Y-94300989D01*
X220244634Y-94131188D01*
X220227242Y-93954600D01*
X220244634Y-93778012D01*
X220296143Y-93608211D01*
X220296144Y-93608208D01*
X220379788Y-93451722D01*
X220492356Y-93314556D01*
X220629522Y-93201988D01*
X220786008Y-93118344D01*
X220786011Y-93118343D01*
X220955812Y-93066834D01*
X221044038Y-93058145D01*
X221088150Y-93053800D01*
X221176650Y-93053800D01*
X221220762Y-93058145D01*
X221220762Y-93058145D01*
G37*
G36*
X218680762Y-93058145D02*
G01*
X218768988Y-93066834D01*
X218938789Y-93118343D01*
X218938792Y-93118344D01*
X219095278Y-93201988D01*
X219232444Y-93314556D01*
X219345012Y-93451722D01*
X219428656Y-93608208D01*
X219428657Y-93608211D01*
X219480166Y-93778012D01*
X219497558Y-93954600D01*
X219480166Y-94131188D01*
X219428657Y-94300989D01*
X219428656Y-94300992D01*
X219345012Y-94457478D01*
X219232444Y-94594644D01*
X219095278Y-94707212D01*
X218938792Y-94790856D01*
X218938789Y-94790857D01*
X218768988Y-94842366D01*
X218680762Y-94851055D01*
X218636650Y-94855400D01*
X218548150Y-94855400D01*
X218504038Y-94851055D01*
X218415812Y-94842366D01*
X218246011Y-94790857D01*
X218246008Y-94790856D01*
X218089522Y-94707212D01*
X217952356Y-94594644D01*
X217839788Y-94457478D01*
X217756144Y-94300992D01*
X217756143Y-94300989D01*
X217704634Y-94131188D01*
X217687242Y-93954600D01*
X217704634Y-93778012D01*
X217756143Y-93608211D01*
X217756144Y-93608208D01*
X217839788Y-93451722D01*
X217952356Y-93314556D01*
X218089522Y-93201988D01*
X218246008Y-93118344D01*
X218246011Y-93118343D01*
X218415812Y-93066834D01*
X218504038Y-93058145D01*
X218548150Y-93053800D01*
X218636650Y-93053800D01*
X218680762Y-93058145D01*
X218680762Y-93058145D01*
G37*
G36*
X221220762Y-90518145D02*
G01*
X221308988Y-90526834D01*
X221478789Y-90578343D01*
X221478792Y-90578344D01*
X221635278Y-90661988D01*
X221772444Y-90774556D01*
X221885012Y-90911722D01*
X221968656Y-91068208D01*
X221968657Y-91068211D01*
X222020166Y-91238012D01*
X222037558Y-91414600D01*
X222020166Y-91591188D01*
X221968657Y-91760989D01*
X221968656Y-91760992D01*
X221885012Y-91917478D01*
X221772444Y-92054644D01*
X221635278Y-92167212D01*
X221478792Y-92250856D01*
X221478789Y-92250857D01*
X221308988Y-92302366D01*
X221220762Y-92311055D01*
X221176650Y-92315400D01*
X221088150Y-92315400D01*
X221044038Y-92311055D01*
X220955812Y-92302366D01*
X220786011Y-92250857D01*
X220786008Y-92250856D01*
X220629522Y-92167212D01*
X220492356Y-92054644D01*
X220379788Y-91917478D01*
X220296144Y-91760992D01*
X220296143Y-91760989D01*
X220244634Y-91591188D01*
X220227242Y-91414600D01*
X220244634Y-91238012D01*
X220296143Y-91068211D01*
X220296144Y-91068208D01*
X220379788Y-90911722D01*
X220492356Y-90774556D01*
X220629522Y-90661988D01*
X220786008Y-90578344D01*
X220786011Y-90578343D01*
X220955812Y-90526834D01*
X221044038Y-90518145D01*
X221088150Y-90513800D01*
X221176650Y-90513800D01*
X221220762Y-90518145D01*
X221220762Y-90518145D01*
G37*
G36*
X218680762Y-90518145D02*
G01*
X218768988Y-90526834D01*
X218938789Y-90578343D01*
X218938792Y-90578344D01*
X219095278Y-90661988D01*
X219232444Y-90774556D01*
X219345012Y-90911722D01*
X219428656Y-91068208D01*
X219428657Y-91068211D01*
X219480166Y-91238012D01*
X219497558Y-91414600D01*
X219480166Y-91591188D01*
X219428657Y-91760989D01*
X219428656Y-91760992D01*
X219345012Y-91917478D01*
X219232444Y-92054644D01*
X219095278Y-92167212D01*
X218938792Y-92250856D01*
X218938789Y-92250857D01*
X218768988Y-92302366D01*
X218680762Y-92311055D01*
X218636650Y-92315400D01*
X218548150Y-92315400D01*
X218504038Y-92311055D01*
X218415812Y-92302366D01*
X218246011Y-92250857D01*
X218246008Y-92250856D01*
X218089522Y-92167212D01*
X217952356Y-92054644D01*
X217839788Y-91917478D01*
X217756144Y-91760992D01*
X217756143Y-91760989D01*
X217704634Y-91591188D01*
X217687242Y-91414600D01*
X217704634Y-91238012D01*
X217756143Y-91068211D01*
X217756144Y-91068208D01*
X217839788Y-90911722D01*
X217952356Y-90774556D01*
X218089522Y-90661988D01*
X218246008Y-90578344D01*
X218246011Y-90578343D01*
X218415812Y-90526834D01*
X218504038Y-90518145D01*
X218548150Y-90513800D01*
X218636650Y-90513800D01*
X218680762Y-90518145D01*
X218680762Y-90518145D01*
G37*
G36*
X221220762Y-87978145D02*
G01*
X221308988Y-87986834D01*
X221478789Y-88038343D01*
X221478792Y-88038344D01*
X221635278Y-88121988D01*
X221772444Y-88234556D01*
X221885012Y-88371722D01*
X221968656Y-88528208D01*
X221968657Y-88528211D01*
X222020166Y-88698012D01*
X222037558Y-88874600D01*
X222020166Y-89051188D01*
X221968657Y-89220989D01*
X221968656Y-89220992D01*
X221885012Y-89377478D01*
X221772444Y-89514644D01*
X221635278Y-89627212D01*
X221478792Y-89710856D01*
X221478789Y-89710857D01*
X221308988Y-89762366D01*
X221220762Y-89771055D01*
X221176650Y-89775400D01*
X221088150Y-89775400D01*
X221044038Y-89771055D01*
X220955812Y-89762366D01*
X220786011Y-89710857D01*
X220786008Y-89710856D01*
X220629522Y-89627212D01*
X220492356Y-89514644D01*
X220379788Y-89377478D01*
X220296144Y-89220992D01*
X220296143Y-89220989D01*
X220244634Y-89051188D01*
X220227242Y-88874600D01*
X220244634Y-88698012D01*
X220296143Y-88528211D01*
X220296144Y-88528208D01*
X220379788Y-88371722D01*
X220492356Y-88234556D01*
X220629522Y-88121988D01*
X220786008Y-88038344D01*
X220786011Y-88038343D01*
X220955812Y-87986834D01*
X221044038Y-87978145D01*
X221088150Y-87973800D01*
X221176650Y-87973800D01*
X221220762Y-87978145D01*
X221220762Y-87978145D01*
G37*
G36*
X218680762Y-87978145D02*
G01*
X218768988Y-87986834D01*
X218938789Y-88038343D01*
X218938792Y-88038344D01*
X219095278Y-88121988D01*
X219232444Y-88234556D01*
X219345012Y-88371722D01*
X219428656Y-88528208D01*
X219428657Y-88528211D01*
X219480166Y-88698012D01*
X219497558Y-88874600D01*
X219480166Y-89051188D01*
X219428657Y-89220989D01*
X219428656Y-89220992D01*
X219345012Y-89377478D01*
X219232444Y-89514644D01*
X219095278Y-89627212D01*
X218938792Y-89710856D01*
X218938789Y-89710857D01*
X218768988Y-89762366D01*
X218680762Y-89771055D01*
X218636650Y-89775400D01*
X218548150Y-89775400D01*
X218504038Y-89771055D01*
X218415812Y-89762366D01*
X218246011Y-89710857D01*
X218246008Y-89710856D01*
X218089522Y-89627212D01*
X217952356Y-89514644D01*
X217839788Y-89377478D01*
X217756144Y-89220992D01*
X217756143Y-89220989D01*
X217704634Y-89051188D01*
X217687242Y-88874600D01*
X217704634Y-88698012D01*
X217756143Y-88528211D01*
X217756144Y-88528208D01*
X217839788Y-88371722D01*
X217952356Y-88234556D01*
X218089522Y-88121988D01*
X218246008Y-88038344D01*
X218246011Y-88038343D01*
X218415812Y-87986834D01*
X218504038Y-87978145D01*
X218548150Y-87973800D01*
X218636650Y-87973800D01*
X218680762Y-87978145D01*
X218680762Y-87978145D01*
G37*
G36*
X221220762Y-85438145D02*
G01*
X221308988Y-85446834D01*
X221478789Y-85498343D01*
X221478792Y-85498344D01*
X221635278Y-85581988D01*
X221772444Y-85694556D01*
X221885012Y-85831722D01*
X221968656Y-85988208D01*
X221968657Y-85988211D01*
X222020166Y-86158012D01*
X222037558Y-86334600D01*
X222020166Y-86511188D01*
X221968657Y-86680989D01*
X221968656Y-86680992D01*
X221885012Y-86837478D01*
X221772444Y-86974644D01*
X221635278Y-87087212D01*
X221478792Y-87170856D01*
X221478789Y-87170857D01*
X221308988Y-87222366D01*
X221220762Y-87231055D01*
X221176650Y-87235400D01*
X221088150Y-87235400D01*
X221044038Y-87231055D01*
X220955812Y-87222366D01*
X220786011Y-87170857D01*
X220786008Y-87170856D01*
X220629522Y-87087212D01*
X220492356Y-86974644D01*
X220379788Y-86837478D01*
X220296144Y-86680992D01*
X220296143Y-86680989D01*
X220244634Y-86511188D01*
X220227242Y-86334600D01*
X220244634Y-86158012D01*
X220296143Y-85988211D01*
X220296144Y-85988208D01*
X220379788Y-85831722D01*
X220492356Y-85694556D01*
X220629522Y-85581988D01*
X220786008Y-85498344D01*
X220786011Y-85498343D01*
X220955812Y-85446834D01*
X221044038Y-85438145D01*
X221088150Y-85433800D01*
X221176650Y-85433800D01*
X221220762Y-85438145D01*
X221220762Y-85438145D01*
G37*
G36*
X218680762Y-85438145D02*
G01*
X218768988Y-85446834D01*
X218938789Y-85498343D01*
X218938792Y-85498344D01*
X219095278Y-85581988D01*
X219232444Y-85694556D01*
X219345012Y-85831722D01*
X219428656Y-85988208D01*
X219428657Y-85988211D01*
X219480166Y-86158012D01*
X219497558Y-86334600D01*
X219480166Y-86511188D01*
X219428657Y-86680989D01*
X219428656Y-86680992D01*
X219345012Y-86837478D01*
X219232444Y-86974644D01*
X219095278Y-87087212D01*
X218938792Y-87170856D01*
X218938789Y-87170857D01*
X218768988Y-87222366D01*
X218680762Y-87231055D01*
X218636650Y-87235400D01*
X218548150Y-87235400D01*
X218504038Y-87231055D01*
X218415812Y-87222366D01*
X218246011Y-87170857D01*
X218246008Y-87170856D01*
X218089522Y-87087212D01*
X217952356Y-86974644D01*
X217839788Y-86837478D01*
X217756144Y-86680992D01*
X217756143Y-86680989D01*
X217704634Y-86511188D01*
X217687242Y-86334600D01*
X217704634Y-86158012D01*
X217756143Y-85988211D01*
X217756144Y-85988208D01*
X217839788Y-85831722D01*
X217952356Y-85694556D01*
X218089522Y-85581988D01*
X218246008Y-85498344D01*
X218246011Y-85498343D01*
X218415812Y-85446834D01*
X218504038Y-85438145D01*
X218548150Y-85433800D01*
X218636650Y-85433800D01*
X218680762Y-85438145D01*
X218680762Y-85438145D01*
G37*
G36*
X220277222Y-77519126D02*
G01*
X220868829Y-77764178D01*
X220868831Y-77764179D01*
X221401264Y-78119939D01*
X221854061Y-78572736D01*
X222192627Y-79079437D01*
X222209822Y-79105171D01*
X222454874Y-79696778D01*
X222579800Y-80324823D01*
X222579800Y-80965177D01*
X222454874Y-81593222D01*
X222331424Y-81891256D01*
X222209821Y-82184831D01*
X221854061Y-82717264D01*
X221401264Y-83170061D01*
X220868831Y-83525821D01*
X220868830Y-83525822D01*
X220868829Y-83525822D01*
X220277222Y-83770874D01*
X219649177Y-83895800D01*
X219008823Y-83895800D01*
X218380778Y-83770874D01*
X217789171Y-83525822D01*
X217789170Y-83525822D01*
X217789169Y-83525821D01*
X217256736Y-83170061D01*
X216803939Y-82717264D01*
X216448179Y-82184831D01*
X216326576Y-81891256D01*
X216203126Y-81593222D01*
X216078200Y-80965177D01*
X216078200Y-80324823D01*
X216203126Y-79696778D01*
X216448178Y-79105171D01*
X216465373Y-79079437D01*
X216803939Y-78572736D01*
X217256736Y-78119939D01*
X217789169Y-77764179D01*
X217789171Y-77764178D01*
X218380778Y-77519126D01*
X219008823Y-77394200D01*
X219649177Y-77394200D01*
X220277222Y-77519126D01*
X220277222Y-77519126D01*
G37*
G36*
X79053222Y-77519126D02*
G01*
X79644829Y-77764178D01*
X79644831Y-77764179D01*
X80177264Y-78119939D01*
X80630061Y-78572736D01*
X80968627Y-79079437D01*
X80985822Y-79105171D01*
X81230874Y-79696778D01*
X81355800Y-80324823D01*
X81355800Y-80965177D01*
X81230874Y-81593222D01*
X81107424Y-81891256D01*
X80985821Y-82184831D01*
X80630061Y-82717264D01*
X80177264Y-83170061D01*
X79644831Y-83525821D01*
X79644830Y-83525822D01*
X79644829Y-83525822D01*
X79053222Y-83770874D01*
X78425177Y-83895800D01*
X77784823Y-83895800D01*
X77156778Y-83770874D01*
X76565171Y-83525822D01*
X76565170Y-83525822D01*
X76565169Y-83525821D01*
X76032736Y-83170061D01*
X75579939Y-82717264D01*
X75224179Y-82184831D01*
X75102576Y-81891256D01*
X74979126Y-81593222D01*
X74854200Y-80965177D01*
X74854200Y-80324823D01*
X74979126Y-79696778D01*
X75224178Y-79105171D01*
X75241373Y-79079437D01*
X75579939Y-78572736D01*
X76032736Y-78119939D01*
X76565169Y-77764179D01*
X76565171Y-77764178D01*
X77156778Y-77519126D01*
X77784823Y-77394200D01*
X78425177Y-77394200D01*
X79053222Y-77519126D01*
X79053222Y-77519126D01*
G37*
M02*
