M48
; DRILL file {KiCad 8.0.4} date 2024-10-14T20:55:50-0700
; FORMAT={-:-/ absolute / metric / decimal}
; #@! TF.CreationDate,2024-10-14T20:55:50-07:00
; #@! TF.GenerationSoftware,Kicad,Pcbnew,8.0.4
; #@! TF.FileFunction,Plated,1,2,PTH
FMAT,2
METRIC
; #@! TA.AperFunction,Plated,PTH,ViaDrill
T1C0.254
; #@! TA.AperFunction,Plated,PTH,ComponentDrill
T2C0.500
; #@! TA.AperFunction,Plated,PTH,ComponentDrill
T3C1.000
; #@! TA.AperFunction,Plated,PTH,ComponentDrill
T4C2.000
; #@! TA.AperFunction,Plated,PTH,ComponentDrill
T5C3.200
%
G90
G05
T1
X83.718Y-119.99
X84.353Y-120.625
X84.988Y-121.26
X85.623Y-115.164
X85.623Y-122.53
X86.258Y-113.513
X87.147Y-112.497
X88.036Y-111.608
X88.925Y-110.719
X89.052Y-115.545
X90.742Y-110.815
X91.651Y-109.888
X92.549Y-108.99
X92.862Y-107.417
X93.878Y-105.893
X94.005Y-104.877
X94.132Y-117.831
X94.513Y-103.48
X94.767Y-118.085
X95.402Y-117.831
X96.037Y-118.085
X98.474Y-125.692
X98.831Y-103.607
X99.372Y-124.794
X99.466Y-123.038
X100.355Y-108.941
X102.066Y-108.99
X103.657Y-93.955
X103.784Y-109.068
X103.862Y-120.303
X104.419Y-102.21
X105.562Y-115.545
X106.197Y-102.21
X106.197Y-108.433
X108.102Y-115.545
X108.61Y-107.798
X111.912Y-93.955
X112.166Y-109.703
X113.195Y-116.711
X114.452Y-106.528
X114.991Y-118.507
X115.722Y-103.48
X115.722Y-114.91
X115.976Y-105.893
X117.686Y-121.201
X120.294Y-121.514
X121.183Y-118.212
X122.707Y-92.05
X122.834Y-121.26
X127.152Y-82.655
X132.232Y-115.545
X134.137Y-90.78
X140.742Y-99.065
X144.297Y-98.4
X148.742Y-106.02
X150.012Y-110.338
X163.347Y-115.545
X163.982Y-111.995
X165.252Y-116.942
X165.252Y-119.095
X166.522Y-116.434
X167.792Y-97.13
X167.792Y-111.995
X167.792Y-119.095
X167.792Y-121.514
X169.316Y-109.195
X169.951Y-109.449
X170.332Y-111.989
X174.142Y-92.05
X181.762Y-87.605
X181.762Y-102.21
X184.937Y-119.736
X185.318Y-117.45
X185.636Y-120.434
X185.992Y-119.065
X186.08Y-117.45
X186.08Y-118.212
X186.334Y-116.815
X186.588Y-116.18
X186.992Y-115.565
X189.382Y-108.306
X189.636Y-109.576
X190.271Y-110.211
X190.906Y-110.846
X191.033Y-111.735
X191.795Y-108.941
X191.922Y-115.545
X192.938Y-108.306
X194.081Y-107.671
X195.224Y-107.036
X196.367Y-105.004
X196.367Y-106.274
X197.002Y-87.605
X198.145Y-104.496
X200.672Y-121.781
X201.344Y-105.398
X201.574Y-122.911
X202.463Y-122.276
X202.717Y-101.575
X204.876Y-107.29
X204.936Y-108.99
X205.384Y-104.877
X205.834Y-121.201
X207.416Y-121.895
X208.432Y-115.545
X208.94Y-102.565
X209.617Y-102.19
T2
X75.705Y-80.645
X75.705Y-116.84
X76.408Y-78.948
X76.408Y-82.342
X76.408Y-115.143
X76.408Y-118.537
X78.105Y-78.245
X78.105Y-83.045
X78.105Y-114.44
X78.105Y-119.24
X79.802Y-78.948
X79.802Y-82.342
X79.802Y-115.143
X79.802Y-118.537
X80.505Y-80.645
X80.505Y-116.84
X216.929Y-80.645
X216.929Y-116.84
X217.632Y-78.948
X217.632Y-82.342
X217.632Y-115.143
X217.632Y-118.537
X219.329Y-78.245
X219.329Y-83.045
X219.329Y-114.44
X219.329Y-119.24
X221.026Y-78.948
X221.026Y-82.342
X221.026Y-115.143
X221.026Y-118.537
X221.729Y-80.645
X221.729Y-116.84
T3
X121.702Y-90.315
X121.702Y-102.315
X124.242Y-90.315
X124.242Y-102.315
X142.367Y-114.3
X142.367Y-116.84
X142.392Y-119.355
X144.907Y-114.3
X144.907Y-116.84
X144.932Y-119.355
X147.447Y-114.3
X147.447Y-116.84
X147.472Y-119.355
X149.987Y-114.3
X149.987Y-116.84
X150.012Y-119.355
X152.527Y-114.3
X152.527Y-116.84
X152.552Y-119.355
X155.067Y-114.3
X155.067Y-116.84
X155.092Y-119.355
X173.202Y-90.315
X173.412Y-102.315
X175.742Y-90.315
X175.952Y-102.315
T4
X80.652Y-91.995
X80.652Y-96.315
X80.652Y-100.635
X82.452Y-88.555
X82.452Y-104.075
X86.242Y-87.675
X86.242Y-104.955
X87.442Y-91.115
X87.442Y-101.515
X90.032Y-88.555
X90.032Y-104.075
X91.832Y-91.995
X91.832Y-96.315
X91.832Y-100.635
X102.652Y-91.995
X102.652Y-96.315
X102.652Y-100.635
X104.452Y-88.555
X104.452Y-104.075
X108.242Y-87.675
X108.242Y-104.955
X109.442Y-91.115
X109.442Y-101.515
X112.032Y-88.555
X112.032Y-104.075
X113.832Y-91.995
X113.832Y-96.315
X113.832Y-100.635
X132.152Y-91.995
X132.152Y-96.315
X132.152Y-100.635
X133.952Y-88.555
X133.952Y-104.075
X137.742Y-87.675
X137.742Y-104.955
X138.942Y-91.115
X138.942Y-101.515
X141.532Y-88.555
X141.532Y-104.075
X143.332Y-91.995
X143.332Y-96.315
X143.332Y-100.635
X154.152Y-91.995
X154.152Y-96.315
X154.152Y-100.635
X155.952Y-88.555
X155.952Y-104.075
X159.742Y-87.675
X159.742Y-104.955
X160.942Y-91.115
X160.942Y-101.515
X163.532Y-88.555
X163.532Y-104.075
X165.332Y-91.995
X165.332Y-96.315
X165.332Y-100.635
X183.652Y-91.995
X183.652Y-96.315
X183.652Y-100.635
X185.452Y-88.555
X185.452Y-104.075
X189.242Y-87.675
X189.242Y-104.955
X190.442Y-91.115
X190.442Y-101.515
X193.032Y-88.555
X193.032Y-104.075
X194.832Y-91.995
X194.832Y-96.315
X194.832Y-100.635
X205.652Y-91.995
X205.652Y-96.315
X205.652Y-100.635
X207.452Y-88.555
X207.452Y-104.075
X211.242Y-87.675
X211.242Y-104.955
X212.442Y-91.115
X212.442Y-101.515
X215.032Y-88.555
X215.032Y-104.075
X216.832Y-91.995
X216.832Y-96.315
X216.832Y-100.635
T5
X78.105Y-80.645
X78.105Y-116.84
X219.329Y-80.645
X219.329Y-116.84
M30
