G04 #@! TF.GenerationSoftware,KiCad,Pcbnew,8.0.4*
G04 #@! TF.CreationDate,2024-10-14T20:55:56-07:00*
G04 #@! TF.ProjectId,B5991,42353939-312e-46b6-9963-61645f706362,rev?*
G04 #@! TF.SameCoordinates,Original*
G04 #@! TF.FileFunction,Paste,Top*
G04 #@! TF.FilePolarity,Positive*
%FSLAX46Y46*%
G04 Gerber Fmt 4.6, Leading zero omitted, Abs format (unit mm)*
G04 Created by KiCad (PCBNEW 8.0.4) date 2024-10-14 20:55:56*
%MOMM*%
%LPD*%
G01*
G04 APERTURE LIST*
%ADD10C,2.500000*%
G04 APERTURE END LIST*
D10*
X193032400Y-104074600D03*
X194832400Y-100634600D03*
X194832400Y-96314600D03*
X194832400Y-91994600D03*
X193032400Y-88554600D03*
X189242400Y-87674600D03*
X185452400Y-88554600D03*
X183652400Y-91994600D03*
X183652400Y-96314600D03*
X183652400Y-100634600D03*
X185452400Y-104074600D03*
X189242400Y-104954600D03*
X190442400Y-101514600D03*
X190442400Y-91114600D03*
X163532400Y-104074600D03*
X165332400Y-100634600D03*
X165332400Y-96314600D03*
X165332400Y-91994600D03*
X163532400Y-88554600D03*
X159742400Y-87674600D03*
X155952400Y-88554600D03*
X154152400Y-91994600D03*
X154152400Y-96314600D03*
X154152400Y-100634600D03*
X155952400Y-104074600D03*
X159742400Y-104954600D03*
X160942400Y-101514600D03*
X160942400Y-91114600D03*
X141532400Y-104074600D03*
X143332400Y-100634600D03*
X143332400Y-96314600D03*
X143332400Y-91994600D03*
X141532400Y-88554600D03*
X137742400Y-87674600D03*
X133952400Y-88554600D03*
X132152400Y-91994600D03*
X132152400Y-96314600D03*
X132152400Y-100634600D03*
X133952400Y-104074600D03*
X137742400Y-104954600D03*
X138942400Y-101514600D03*
X138942400Y-91114600D03*
X112032400Y-104074600D03*
X113832400Y-100634600D03*
X113832400Y-96314600D03*
X113832400Y-91994600D03*
X112032400Y-88554600D03*
X108242400Y-87674600D03*
X104452400Y-88554600D03*
X102652400Y-91994600D03*
X102652400Y-96314600D03*
X102652400Y-100634600D03*
X104452400Y-104074600D03*
X108242400Y-104954600D03*
X109442400Y-101514600D03*
X109442400Y-91114600D03*
X90032400Y-104074600D03*
X91832400Y-100634600D03*
X91832400Y-96314600D03*
X91832400Y-91994600D03*
X90032400Y-88554600D03*
X86242400Y-87674600D03*
X82452400Y-88554600D03*
X80652400Y-91994600D03*
X80652400Y-96314600D03*
X80652400Y-100634600D03*
X82452400Y-104074600D03*
X86242400Y-104954600D03*
X87442400Y-101514600D03*
X87442400Y-91114600D03*
X215032400Y-104074600D03*
X216832400Y-100634600D03*
X216832400Y-96314600D03*
X216832400Y-91994600D03*
X215032400Y-88554600D03*
X211242400Y-87674600D03*
X207452400Y-88554600D03*
X205652400Y-91994600D03*
X205652400Y-96314600D03*
X205652400Y-100634600D03*
X207452400Y-104074600D03*
X211242400Y-104954600D03*
X212442400Y-101514600D03*
X212442400Y-91114600D03*
M02*
