0
SECTION
2
HEADER
9
$INSUNITS
70
4
9
$ACADVER
1
AC1014
9
$HANDSEED
5
FFFF
0
ENDSEC
0
SECTION
2
TABLES
0
TABLE
2
VPORT
5
8
100
AcDbSymbolTable
0
ENDTAB
0
TABLE
2
LTYPE
5
5
100
AcDbSymbolTable
0
LTYPE
5
14
100
AcDbSymbolTableRecord
100
AcDbLinetypeTableRecord
2
BYBLOCK
70
0
0
LTYPE
5
15
100
AcDbSymbolTableRecord
100
AcDbLinetypeTableRecord
2
BYLAYER
70
0
0
ENDTAB
0
TABLE
2
LAYER
5
2
100
AcDbSymbolTable
70
2
0
LAYER
5
50
100
AcDbSymbolTableRecord
100
AcDbLayerTableRecord
2
0
70
0
6
CONTINUOUS
0
ENDTAB
0
TABLE
2
STYLE
5
3
100
AcDbSymbolTable
70
1
0
STYLE
5
11
100
AcDbSymbolTableRecord
100
AcDbTextStyleTableRecord
2
STANDARD
70
0
0
ENDTAB
0
TABLE
2
VIEW
5
6
100
AcDbSymbolTable
70
0
0
ENDTAB
0
TABLE
2
UCS
5
7
100
AcDbSymbolTable
70
0
0
ENDTAB
0
TABLE
2
APPID
5
9
100
AcDbSymbolTable
70
2
0
APPID
5
12
100
AcDbSymbolTableRecord
100
AcDbRegAppTableRecord
2
ACAD
70
0
0
ENDTAB
0
TABLE
2
DIMSTYLE
5
A
100
AcDbSymbolTable
70
1
0
ENDTAB
0
TABLE
2
BLOCK_RECORD
5
1
100
AcDbSymbolTable
70
1
0
BLOCK_RECORD
5
1F
100
AcDbSymbolTableRecord
100
AcDbBlockTableRecord
2
*MODEL_SPACE
0
BLOCK_RECORD
5
1B
100
AcDbSymbolTableRecord
100
AcDbBlockTableRecord
2
*PAPER_SPACE
0
ENDTAB
0
ENDSEC
0
SECTION
2
BLOCKS
0
BLOCK
5
20
100
AcDbEntity
100
AcDbBlockBegin
2
*MODEL_SPACE
0
ENDBLK
5
21
100
AcDbEntity
100
AcDbBlockEnd
0
BLOCK
5
1C
100
AcDbEntity
100
AcDbBlockBegin
2
*PAPER_SPACE
0
ENDBLK
5
1D
100
AcDbEntity
100
AcDbBlockEnd
0
ENDSEC
0
SECTION
2
ENTITIES
0
LINE
5
100
100
AcDbEntity
8
0
100
AcDbLine
10
0
20
0
30
0
11
225
21
-9.8607613152626476e-31
31
0
0
LINE
5
101
100
AcDbEntity
8
0
100
AcDbLine
10
225
20
-9.8607613152626476e-31
30
0
11
225
21
45
31
0
0
LINE
5
102
100
AcDbEntity
8
0
100
AcDbLine
10
225
20
45
30
0
11
0
21
45
31
0
0
LINE
5
103
100
AcDbEntity
8
0
100
AcDbLine
10
0
20
45
30
0
11
0
21
0
31
0
0
LINE
5
104
100
AcDbEntity
8
0
100
AcDbLine
10
37.5
20
45
30
0
11
187.5
21
45
31
0
0
LINE
5
105
100
AcDbEntity
8
0
100
AcDbLine
10
187.5
20
45
30
0
11
187.5
21
-8.2173010960522069e-31
31
0
0
LINE
5
106
100
AcDbEntity
8
0
100
AcDbLine
10
187.5
20
-8.2173010960522069e-31
30
0
11
37.5
21
0
31
0
0
LINE
5
107
100
AcDbEntity
8
0
100
AcDbLine
10
37.5
20
0
30
0
11
37.5
21
45
31
0
0
LINE
5
108
100
AcDbEntity
8
0
100
AcDbLine
10
37.5
20
45
30
0
11
187.5
21
45
31
0
0
LINE
5
109
100
AcDbEntity
8
0
100
AcDbLine
10
37.5
20
45
30
0
11
187.5
21
45
31
0
0
LINE
5
110
100
AcDbEntity
8
0
100
AcDbLine
10
37.5
20
45
30
0
11
187.5
21
45
31
0
0
LINE
5
111
100
AcDbEntity
8
0
100
AcDbLine
10
187.5
20
45
30
0
11
187.5
21
-25
31
0
0
LINE
5
112
100
AcDbEntity
8
0
100
AcDbLine
10
187.5
20
-25
30
0
11
37.5
21
-25
31
0
0
LINE
5
113
100
AcDbEntity
8
0
100
AcDbLine
10
37.5
20
-25
30
0
11
37.5
21
45
31
0
0
LINE
5
114
100
AcDbEntity
8
0
100
AcDbLine
10
37.5
20
45
30
0
11
187.5
21
45
31
0
0
ARC
5
115
100
AcDbEntity
8
0
100
AcDbCircle
10
112.5
20
100
30
0
40
125
100
AcDbArc
50
233.13010235415598
51
306.86989764584405
0
LINE
5
116
100
AcDbEntity
8
0
100
AcDbLine
10
0
20
45
30
0
11
225
21
45
31
0
0
LINE
5
117
100
AcDbEntity
8
0
100
AcDbLine
10
225
20
45
30
0
11
225
21
-7.0000000000000018
31
0
0
LINE
5
118
100
AcDbEntity
8
0
100
AcDbLine
10
225
20
-7.0000000000000018
30
0
11
0
21
-7.0000000000000018
31
0
0
LINE
5
119
100
AcDbEntity
8
0
100
AcDbLine
10
0
20
-7.0000000000000018
30
0
11
0
21
45
31
0
0
LINE
5
120
100
AcDbEntity
8
0
100
AcDbLine
10
0
20
18
30
0
11
225
21
18
31
0
0
LINE
5
121
100
AcDbEntity
8
0
100
AcDbLine
10
0
20
40.599999999999994
30
0
11
225
21
40.599999999999994
31
0
0
LINE
5
122
100
AcDbEntity
8
0
100
AcDbLine
10
0
20
4.4000000000000004
30
0
11
225
21
4.4000000000000004
31
0
0
LINE
5
123
100
AcDbEntity
8
0
100
AcDbLine
10
220.59999999999999
20
45
30
0
11
220.59999999999999
21
-7.0000000000000018
31
0
0
LINE
5
124
100
AcDbEntity
8
0
100
AcDbLine
10
183.09999999999999
20
45
30
0
11
183.09999999999999
21
-8.0244684303315147e-31
31
0
0
LINE
5
125
100
AcDbEntity
8
0
100
AcDbLine
10
41.900000000000006
20
45
30
0
11
41.900000000000006
21
-1.8362928849311335e-31
31
0
0
LINE
5
126
100
AcDbEntity
8
0
100
AcDbLine
10
4.4000000000000004
20
45
30
0
11
4.3999999999999986
21
-1.928326657206917e-32
31
0
0
CIRCLE
5
127
100
AcDbEntity
8
0
100
AcDbCircle
10
4.4000000000000004
20
40.599999999999994
30
0
40
1.6000000000000016
0
CIRCLE
5
128
100
AcDbEntity
8
0
100
AcDbCircle
10
41.900000000000006
20
40.599999999999994
30
0
40
1.5999999999999961
0
CIRCLE
5
129
100
AcDbEntity
8
0
100
AcDbCircle
10
4.3999999999999986
20
4.4000000000000004
30
0
40
1.6000000000000001
0
CIRCLE
5
130
100
AcDbEntity
8
0
100
AcDbCircle
10
41.900000000000006
20
4.4000000000000004
30
0
40
1.6000000000000001
0
CIRCLE
5
131
100
AcDbEntity
8
0
100
AcDbCircle
10
183.09999999999999
20
4.4000000000000039
30
0
40
1.5999999999999939
0
CIRCLE
5
132
100
AcDbEntity
8
0
100
AcDbCircle
10
220.59999999999999
20
4.4000000000000039
30
0
40
1.5999999999999961
0
CIRCLE
5
133
100
AcDbEntity
8
0
100
AcDbCircle
10
220.59999999999999
20
40.599999999999994
30
0
40
1.5999999999999961
0
CIRCLE
5
134
100
AcDbEntity
8
0
100
AcDbCircle
10
183.09999999999999
20
40.599999999999994
30
0
40
1.6000000000000107
0
LINE
5
135
100
AcDbEntity
8
0
100
AcDbLine
10
112.5
20
45
30
0
11
112.5
21
-25
31
0
0
LINE
5
136
100
AcDbEntity
8
0
100
AcDbLine
10
25
20
-7.0000000000000018
30
0
11
25.000000000000004
21
45
31
0
0
LINE
5
137
100
AcDbEntity
8
0
100
AcDbLine
10
200
20
-7.0000000000000018
30
0
11
200
21
45
31
0
0
ARC
5
138
100
AcDbEntity
8
0
100
AcDbCircle
10
200
20
18
30
0
40
25
100
AcDbArc
50
-90
51
0
0
ARC
5
139
100
AcDbEntity
8
0
100
AcDbCircle
10
25
20
18
30
0
40
25
100
AcDbArc
50
180
51
270
0
LINE
5
140
100
AcDbEntity
8
0
100
AcDbLine
10
52.5
20
-7.0000000000000018
30
0
11
52.499999999999986
21
45
31
0
0
LINE
5
141
100
AcDbEntity
8
0
100
AcDbLine
10
172.5
20
45
30
0
11
172.5
21
-7.0000000000000018
31
0
0
LINE
5
142
100
AcDbEntity
8
0
100
AcDbLine
10
37.5
20
7.9999999999999982
30
0
11
187.5
21
7.9999999999999964
31
0
0
ARC
5
143
100
AcDbEntity
8
0
100
AcDbCircle
10
52.5
20
7.9999999999999982
30
0
40
15
100
AcDbArc
50
180
51
270
0
ARC
5
144
100
AcDbEntity
8
0
100
AcDbCircle
10
172.5
20
7.9999999999999982
30
0
40
15
100
AcDbArc
50
270
51
360
0
ENDSEC
0
SECTION
2
OBJECTS
0
DICTIONARY
5
C
100
AcDbDictionary
3
ACAD_GROUP
350
D
3
ACAD_MLINESTYLE
350
17
0
DICTIONARY
5
D
100
AcDbDictionary
0
DICTIONARY
5
1A
330
C
100
AcDbDictionary
0
DICTIONARY
5
17
100
AcDbDictionary
0
ENDSEC
0
EOF
