G04 #@! TF.GenerationSoftware,KiCad,Pcbnew,(5.1.0-0)*
G04 #@! TF.CreationDate,2019-05-22T01:12:31-05:00*
G04 #@! TF.ProjectId,IN-18,494e2d31-382e-46b6-9963-61645f706362,rev?*
G04 #@! TF.SameCoordinates,Original*
G04 #@! TF.FileFunction,Copper,L1,Top*
G04 #@! TF.FilePolarity,Positive*
%FSLAX46Y46*%
G04 Gerber Fmt 4.6, Leading zero omitted, Abs format (unit mm)*
G04 Created by KiCad (PCBNEW (5.1.0-0)) date 2019-05-22 01:12:31*
%MOMM*%
%LPD*%
G04 APERTURE LIST*
%ADD10C,2.750000*%
%ADD11O,1.700000X1.700000*%
%ADD12R,1.700000X1.700000*%
%ADD13C,0.800000*%
%ADD14C,6.400000*%
%ADD15C,0.508000*%
%ADD16C,0.254000*%
%ADD17C,0.635000*%
%ADD18C,0.203200*%
G04 APERTURE END LIST*
D10*
X64975780Y-96476820D03*
X47802840Y-101546660D03*
X53073340Y-90032840D03*
X56852860Y-107398820D03*
X47739340Y-95237300D03*
X63421300Y-93083380D03*
X63408600Y-103809800D03*
X60485060Y-106329480D03*
X53106360Y-106873040D03*
X49847540Y-104805480D03*
X64952920Y-100286820D03*
X60523160Y-90487500D03*
X56837620Y-89453720D03*
X49913580Y-92069920D03*
X99975780Y-96476820D03*
X82802840Y-101546660D03*
X88073340Y-90032840D03*
X91852860Y-107398820D03*
X82739340Y-95237300D03*
X98421300Y-93083380D03*
X98408600Y-103809800D03*
X95485060Y-106329480D03*
X88106360Y-106873040D03*
X84847540Y-104805480D03*
X99952920Y-100286820D03*
X95523160Y-90487500D03*
X91837620Y-89453720D03*
X84913580Y-92069920D03*
X139975780Y-96476820D03*
X122802840Y-101546660D03*
X128073340Y-90032840D03*
X131852860Y-107398820D03*
X122739340Y-95237300D03*
X138421300Y-93083380D03*
X138408600Y-103809800D03*
X135485060Y-106329480D03*
X128106360Y-106873040D03*
X124847540Y-104805480D03*
X139952920Y-100286820D03*
X135523160Y-90487500D03*
X131837620Y-89453720D03*
X124913580Y-92069920D03*
X174975780Y-96476820D03*
X157802840Y-101546660D03*
X163073340Y-90032840D03*
X166852860Y-107398820D03*
X157739340Y-95237300D03*
X173421300Y-93083380D03*
X173408600Y-103809800D03*
X170485060Y-106329480D03*
X163106360Y-106873040D03*
X159847540Y-104805480D03*
X174952920Y-100286820D03*
X170523160Y-90487500D03*
X166837620Y-89453720D03*
X159913580Y-92069920D03*
X214975780Y-96476820D03*
X197802840Y-101546660D03*
X203073340Y-90032840D03*
X206852860Y-107398820D03*
X197739340Y-95237300D03*
X213421300Y-93083380D03*
X213408600Y-103809800D03*
X210485060Y-106329480D03*
X203106360Y-106873040D03*
X199847540Y-104805480D03*
X214952920Y-100286820D03*
X210523160Y-90487500D03*
X206837620Y-89453720D03*
X199913580Y-92069920D03*
X249975780Y-96476820D03*
X232802840Y-101546660D03*
X238073340Y-90032840D03*
X241852860Y-107398820D03*
X232739340Y-95237300D03*
X248421300Y-93083380D03*
X248408600Y-103809800D03*
X245485060Y-106329480D03*
X238106360Y-106873040D03*
X234847540Y-104805480D03*
X249952920Y-100286820D03*
X245523160Y-90487500D03*
X241837620Y-89453720D03*
X234913580Y-92069920D03*
D11*
X109855000Y-96520000D03*
D12*
X112395000Y-96520000D03*
D11*
X109855000Y-99060000D03*
D12*
X112395000Y-99060000D03*
D11*
X184912000Y-96520000D03*
D12*
X187452000Y-96520000D03*
D11*
X184912000Y-99060000D03*
D12*
X187452000Y-99060000D03*
D11*
X155067000Y-114300000D03*
X155067000Y-116840000D03*
X152527000Y-114300000D03*
X152527000Y-116840000D03*
X149987000Y-114300000D03*
X149987000Y-116840000D03*
X147447000Y-114300000D03*
X147447000Y-116840000D03*
X144907000Y-114300000D03*
X144907000Y-116840000D03*
X142367000Y-114300000D03*
D12*
X142367000Y-116840000D03*
D13*
X79802056Y-115142944D03*
X78105000Y-114440000D03*
X76407944Y-115142944D03*
X75705000Y-116840000D03*
X76407944Y-118537056D03*
X78105000Y-119240000D03*
X79802056Y-118537056D03*
X80505000Y-116840000D03*
D14*
X78105000Y-116840000D03*
X219329000Y-116840000D03*
D13*
X221729000Y-116840000D03*
X221026056Y-118537056D03*
X219329000Y-119240000D03*
X217631944Y-118537056D03*
X216929000Y-116840000D03*
X217631944Y-115142944D03*
X219329000Y-114440000D03*
X221026056Y-115142944D03*
X42337056Y-78947944D03*
X40640000Y-78245000D03*
X38942944Y-78947944D03*
X38240000Y-80645000D03*
X38942944Y-82342056D03*
X40640000Y-83045000D03*
X42337056Y-82342056D03*
X43040000Y-80645000D03*
D14*
X40640000Y-80645000D03*
X78105000Y-80645000D03*
D13*
X80505000Y-80645000D03*
X79802056Y-82342056D03*
X78105000Y-83045000D03*
X76407944Y-82342056D03*
X75705000Y-80645000D03*
X76407944Y-78947944D03*
X78105000Y-78245000D03*
X79802056Y-78947944D03*
X221026056Y-78947944D03*
X219329000Y-78245000D03*
X217631944Y-78947944D03*
X216929000Y-80645000D03*
X217631944Y-82342056D03*
X219329000Y-83045000D03*
X221026056Y-82342056D03*
X221729000Y-80645000D03*
D14*
X219329000Y-80645000D03*
X256794000Y-80645000D03*
D13*
X259194000Y-80645000D03*
X258491056Y-82342056D03*
X256794000Y-83045000D03*
X255096944Y-82342056D03*
X254394000Y-80645000D03*
X255096944Y-78947944D03*
X256794000Y-78245000D03*
X258491056Y-78947944D03*
D15*
X88519000Y-115697000D03*
X87503000Y-115189000D03*
X86614000Y-114554000D03*
X85725000Y-113919000D03*
X99339400Y-108940600D03*
X104292400Y-95478600D03*
X100101400Y-107924600D03*
X101244400Y-107924600D03*
X102387400Y-107924600D03*
X103530400Y-107924600D03*
X122199400Y-106146600D03*
X158775400Y-88620600D03*
X159664400Y-87858600D03*
X179349400Y-100558600D03*
X180467000Y-110871000D03*
X177571400Y-106400600D03*
X178460400Y-107289600D03*
X196342000Y-107061000D03*
X197612000Y-111125000D03*
X192176400Y-110337600D03*
X193802000Y-114681000D03*
X177800000Y-113665000D03*
X148590000Y-109855000D03*
X235585000Y-99060000D03*
X172720000Y-98425000D03*
X62230000Y-98425000D03*
X246380000Y-98425000D03*
X193294000Y-113538000D03*
X70485000Y-103505000D03*
X201930000Y-113665000D03*
X96672400Y-98399600D03*
X83972400Y-98399600D03*
X67462400Y-88874600D03*
X141122400Y-90779600D03*
X125882400Y-101574600D03*
X132867400Y-104114600D03*
X134772400Y-93954600D03*
X194462400Y-95224600D03*
X216052400Y-91414600D03*
X231292400Y-91414600D03*
X118897400Y-97764600D03*
X103022400Y-113639600D03*
X117627400Y-113639600D03*
X104927400Y-100939600D03*
X200177400Y-99669600D03*
X211607400Y-99669600D03*
X148844000Y-107315000D03*
X147828000Y-103505000D03*
X160807400Y-117117100D03*
X139319000Y-117602000D03*
X158267400Y-118592600D03*
X176149000Y-117475000D03*
X150368000Y-105410000D03*
X143383000Y-107442000D03*
X116586000Y-122936000D03*
X150368000Y-104267000D03*
X119380000Y-113665000D03*
X143383000Y-104775000D03*
X174879000Y-113792000D03*
X179324000Y-120396000D03*
X150368000Y-103124000D03*
X117983000Y-120396000D03*
X113182400Y-107289600D03*
X112293400Y-108051600D03*
X110515400Y-108051600D03*
X111404400Y-107289600D03*
X147795200Y-107365452D03*
X146812000Y-103999990D03*
X148844000Y-103999990D03*
X150749000Y-107315000D03*
D16*
X49913580Y-90125377D02*
X52472457Y-87566500D01*
X49913580Y-92069920D02*
X49913580Y-90125377D01*
X52472457Y-87566500D02*
X62674500Y-87566500D01*
X88519000Y-113411000D02*
X88519000Y-115697000D01*
X62674500Y-87566500D02*
X88519000Y-113411000D01*
X58212619Y-88078721D02*
X62361221Y-88078721D01*
X56837620Y-89453720D02*
X58212619Y-88078721D01*
X87534750Y-115157250D02*
X87503000Y-115189000D01*
X87534750Y-113252250D02*
X87534750Y-115157250D01*
X62361221Y-88078721D02*
X87534750Y-113252250D01*
X60523160Y-90487500D02*
X63817500Y-90487500D01*
X63817500Y-90487500D02*
X86614000Y-113284000D01*
X86614000Y-113284000D02*
X86614000Y-114554000D01*
X64952920Y-100286820D02*
X72727820Y-100286820D01*
X72727820Y-100286820D02*
X85725000Y-113284000D01*
X85725000Y-113284000D02*
X85725000Y-113919000D01*
X85344000Y-109347000D02*
X98933000Y-109347000D01*
X47739340Y-95237300D02*
X47739340Y-91198660D01*
X62992000Y-86995000D02*
X85344000Y-109347000D01*
X98933000Y-109347000D02*
X99339400Y-108940600D01*
X51943000Y-86995000D02*
X62992000Y-86995000D01*
X47739340Y-91198660D02*
X51943000Y-86995000D01*
X87249000Y-86741000D02*
X82739340Y-91250660D01*
X97663000Y-86741000D02*
X87249000Y-86741000D01*
X104292400Y-93370400D02*
X97663000Y-86741000D01*
X82739340Y-91250660D02*
X82739340Y-95237300D01*
X104292400Y-93370400D02*
X104292400Y-95478600D01*
X99952920Y-102231363D02*
X101244400Y-103522843D01*
X99952920Y-100286820D02*
X99952920Y-102231363D01*
X101244400Y-106781600D02*
X100101400Y-107924600D01*
X101244400Y-103522843D02*
X101244400Y-106781600D01*
X95523160Y-90487500D02*
X98415422Y-90487500D01*
X98415422Y-90487500D02*
X101936448Y-94008526D01*
X101936448Y-94008526D02*
X101936448Y-101600000D01*
X101936448Y-107232552D02*
X101244400Y-107924600D01*
X101936448Y-101600000D02*
X101936448Y-107232552D01*
X96968721Y-88078721D02*
X102711458Y-93821458D01*
X93212619Y-88078721D02*
X96968721Y-88078721D01*
X91837620Y-89453720D02*
X93212619Y-88078721D01*
X102711458Y-93821458D02*
X102711458Y-101600000D01*
X102711458Y-107600542D02*
X102387400Y-107924600D01*
X102711458Y-101600000D02*
X102711458Y-107600542D01*
X87662957Y-87376000D02*
X97282000Y-87376000D01*
X97282000Y-87376000D02*
X103505000Y-93599000D01*
X84913580Y-90125377D02*
X87662957Y-87376000D01*
X84913580Y-92069920D02*
X84913580Y-90125377D01*
X103505000Y-93599000D02*
X103505000Y-101600000D01*
X103505000Y-107899200D02*
X103530400Y-107924600D01*
X103505000Y-101600000D02*
X103505000Y-107899200D01*
X135636000Y-109601000D02*
X125653800Y-109601000D01*
X141327919Y-103909081D02*
X135636000Y-109601000D01*
X141327919Y-101661819D02*
X141327919Y-103909081D01*
X139952920Y-100286820D02*
X141327919Y-101661819D01*
X125653800Y-109601000D02*
X122199400Y-106146600D01*
X141422137Y-88138000D02*
X153416000Y-88138000D01*
X138421300Y-91138837D02*
X141422137Y-88138000D01*
X138421300Y-93083380D02*
X138421300Y-91138837D01*
X153416000Y-88138000D02*
X157784800Y-88138000D01*
X158292800Y-88138000D02*
X158775400Y-88620600D01*
X157784800Y-88138000D02*
X158292800Y-88138000D01*
X159308800Y-87503000D02*
X159664400Y-87858600D01*
X126492000Y-87503000D02*
X159308800Y-87503000D01*
X122739340Y-91255660D02*
X126492000Y-87503000D01*
X122739340Y-95237300D02*
X122739340Y-91255660D01*
X157739340Y-95237300D02*
X157739340Y-91180660D01*
X157739340Y-91180660D02*
X161417000Y-87503000D01*
X161417000Y-87503000D02*
X172720000Y-87503000D01*
X172720000Y-87503000D02*
X179197000Y-93980000D01*
X179197000Y-100406200D02*
X179349400Y-100558600D01*
X179197000Y-93980000D02*
X179197000Y-100406200D01*
X176327919Y-106731919D02*
X180467000Y-110871000D01*
X176327919Y-101661819D02*
X176327919Y-106731919D01*
X174952920Y-100286820D02*
X176327919Y-101661819D01*
X170523160Y-90487500D02*
X173926500Y-90487500D01*
X177571400Y-94132400D02*
X173926500Y-90487500D01*
X177571400Y-106400600D02*
X177571400Y-94132400D01*
X168212619Y-88078721D02*
X166837620Y-89453720D01*
X172406721Y-88078721D02*
X168212619Y-88078721D01*
X178460400Y-94132400D02*
X172406721Y-88078721D01*
X178460400Y-107289600D02*
X178460400Y-94132400D01*
X198755000Y-109474000D02*
X196342000Y-107061000D01*
X215519000Y-104648000D02*
X210693000Y-109474000D01*
X215519000Y-102797443D02*
X215519000Y-104648000D01*
X214952920Y-102231363D02*
X215519000Y-102797443D01*
X210693000Y-109474000D02*
X198755000Y-109474000D01*
X214952920Y-100286820D02*
X214952920Y-102231363D01*
X214796299Y-94458379D02*
X215870379Y-94458379D01*
X213421300Y-93083380D02*
X214796299Y-94458379D01*
X215870379Y-94458379D02*
X217043000Y-95631000D01*
X217043000Y-95631000D02*
X217043000Y-103886000D01*
X217043000Y-103886000D02*
X210947000Y-109982000D01*
X198755000Y-109982000D02*
X197612000Y-111125000D01*
X210947000Y-109982000D02*
X198755000Y-109982000D01*
X192176400Y-100800240D02*
X197739340Y-95237300D01*
X192176400Y-110337600D02*
X192176400Y-100800240D01*
X211074000Y-110617000D02*
X199263000Y-110617000D01*
X226453700Y-95237300D02*
X211074000Y-110617000D01*
X195199000Y-114681000D02*
X193802000Y-114681000D01*
X199263000Y-110617000D02*
X195199000Y-114681000D01*
X232739340Y-95237300D02*
X226453700Y-95237300D01*
D17*
X144907000Y-114300000D02*
X147447000Y-116840000D01*
X142367000Y-116840000D02*
X144907000Y-114300000D01*
D16*
X147828000Y-103505000D02*
X147828000Y-106299000D01*
X147828000Y-106299000D02*
X148844000Y-107315000D01*
X147447000Y-114300000D02*
X147447000Y-115011200D01*
X147447000Y-115011200D02*
X148742400Y-116306600D01*
X148742400Y-116306600D02*
X148742400Y-117703600D01*
X148742400Y-117703600D02*
X149504400Y-118465600D01*
X157456900Y-117117100D02*
X156108400Y-118465600D01*
X160807400Y-117117100D02*
X157456900Y-117117100D01*
X149504400Y-118465600D02*
X156108400Y-118465600D01*
D18*
X140970000Y-119253000D02*
X157607000Y-119253000D01*
X157607000Y-119253000D02*
X158267400Y-118592600D01*
X139319000Y-117602000D02*
X140970000Y-119253000D01*
X176149000Y-117475000D02*
X171958000Y-113284000D01*
X171958000Y-113284000D02*
X158242000Y-113284000D01*
X150368000Y-105410000D02*
X158242000Y-113284000D01*
X142983001Y-107841999D02*
X142602001Y-107841999D01*
X143383000Y-107442000D02*
X142983001Y-107841999D01*
X142602001Y-107841999D02*
X135636000Y-114808000D01*
X124714000Y-114808000D02*
X116586000Y-122936000D01*
X135636000Y-114808000D02*
X124714000Y-114808000D01*
X150368000Y-104267000D02*
X158877000Y-112776000D01*
X158877000Y-112776000D02*
X173863000Y-112776000D01*
X119380000Y-113665000D02*
X135001000Y-113665000D01*
X143383000Y-105283000D02*
X143383000Y-104775000D01*
X135001000Y-113665000D02*
X143383000Y-105283000D01*
X173863000Y-112776000D02*
X174879000Y-113792000D01*
X179324000Y-117094000D02*
X174117000Y-111887000D01*
X159131000Y-111887000D02*
X150368000Y-103124000D01*
X174117000Y-111887000D02*
X159131000Y-111887000D01*
X179324000Y-117094000D02*
X179324000Y-120396000D01*
X150368000Y-103124000D02*
X149968001Y-102724001D01*
X149968001Y-102724001D02*
X146830999Y-102724001D01*
X117983000Y-120396000D02*
X124206000Y-114173000D01*
X124206000Y-114173000D02*
X135382000Y-114173000D01*
X146830999Y-102724001D02*
X135382000Y-114173000D01*
D16*
X114579400Y-98526600D02*
X114579400Y-100304600D01*
X114579400Y-100304600D02*
X113182400Y-101701600D01*
X126238000Y-86868000D02*
X114579400Y-98526600D01*
X113182400Y-101701600D02*
X113182400Y-107289600D01*
X183667400Y-97815400D02*
X183667400Y-97561400D01*
X172974000Y-86868000D02*
X126238000Y-86868000D01*
X183667400Y-97561400D02*
X172974000Y-86868000D01*
X184912000Y-99060000D02*
X183667400Y-97815400D01*
X173228000Y-86233000D02*
X183515000Y-96520000D01*
X183515000Y-96520000D02*
X184912000Y-96520000D01*
X113944400Y-98272600D02*
X125984000Y-86233000D01*
X125984000Y-86233000D02*
X173228000Y-86233000D01*
X113944400Y-100177600D02*
X113944400Y-98272600D01*
X112293400Y-101828600D02*
X113944400Y-100177600D01*
X112293400Y-108051600D02*
X112293400Y-101828600D01*
X110515400Y-108051600D02*
X110515400Y-101828600D01*
X110515400Y-101828600D02*
X108356400Y-99669600D01*
X108356400Y-98018600D02*
X109855000Y-96520000D01*
X108356400Y-99669600D02*
X108356400Y-98018600D01*
X111404400Y-100609400D02*
X109855000Y-99060000D01*
X111404400Y-107289600D02*
X111404400Y-100609400D01*
D18*
X151257000Y-110827252D02*
X148195199Y-107765451D01*
X151257000Y-115570000D02*
X151257000Y-110827252D01*
X148195199Y-107765451D02*
X147795200Y-107365452D01*
X152527000Y-116840000D02*
X151257000Y-115570000D01*
X148761999Y-115614999D02*
X148761999Y-113709999D01*
X149987000Y-116840000D02*
X148761999Y-115614999D01*
X146812000Y-103999990D02*
X146812000Y-111760000D01*
X148761999Y-113709999D02*
X146812000Y-111760000D01*
X148844000Y-103999990D02*
X148844000Y-106172000D01*
X148844000Y-106172000D02*
X149733000Y-107061000D01*
X152527000Y-114300000D02*
X152527000Y-110617000D01*
X149733000Y-107823000D02*
X149733000Y-107061000D01*
X152527000Y-110617000D02*
X149733000Y-107823000D01*
X151148999Y-107714999D02*
X150749000Y-107315000D01*
X153841999Y-110407999D02*
X151148999Y-107714999D01*
X153841999Y-115614999D02*
X153841999Y-110407999D01*
X155067000Y-116840000D02*
X153841999Y-115614999D01*
D16*
X236685661Y-96425499D02*
X238060660Y-95050500D01*
X236685661Y-100289598D02*
X236685661Y-96425499D01*
X241840180Y-105444117D02*
X236685661Y-100289598D01*
X241840180Y-107388660D02*
X241840180Y-105444117D01*
X238060660Y-95050500D02*
X238060660Y-90022680D01*
X203090800Y-95093680D02*
X203090800Y-90065860D01*
X206870320Y-105487297D02*
X201715801Y-100332778D01*
X201715801Y-100332778D02*
X201715801Y-96468679D01*
X206870320Y-107431840D02*
X206870320Y-105487297D01*
X201715801Y-96468679D02*
X203090800Y-95093680D01*
X131884720Y-105538097D02*
X126730201Y-100383578D01*
X128105200Y-95144480D02*
X128105200Y-90116660D01*
X126730201Y-96519479D02*
X128105200Y-95144480D01*
X126730201Y-100383578D02*
X126730201Y-96519479D01*
X131884720Y-107482640D02*
X131884720Y-105538097D01*
G36*
X260505001Y-103185550D02*
G01*
X260429634Y-105103766D01*
X260205698Y-106995793D01*
X259834006Y-108864413D01*
X259316846Y-110698124D01*
X258657410Y-112485602D01*
X257859769Y-114215819D01*
X256928825Y-115878140D01*
X255870340Y-117462273D01*
X254690816Y-118958493D01*
X253397546Y-120357546D01*
X251998493Y-121650816D01*
X250502273Y-122830340D01*
X248918140Y-123888825D01*
X247255813Y-124819772D01*
X245525602Y-125617410D01*
X243738124Y-126276846D01*
X241904413Y-126794006D01*
X240035791Y-127165699D01*
X238143765Y-127389634D01*
X236225575Y-127465000D01*
X61254425Y-127465000D01*
X59336234Y-127389634D01*
X57444207Y-127165698D01*
X55575587Y-126794006D01*
X53741876Y-126276846D01*
X51954398Y-125617410D01*
X50224181Y-124819769D01*
X48561860Y-123888825D01*
X47004818Y-122848441D01*
X115697000Y-122848441D01*
X115697000Y-123023559D01*
X115731164Y-123195312D01*
X115798179Y-123357099D01*
X115895469Y-123502704D01*
X116019296Y-123626531D01*
X116164901Y-123723821D01*
X116326688Y-123790836D01*
X116498441Y-123825000D01*
X116673559Y-123825000D01*
X116845312Y-123790836D01*
X117007099Y-123723821D01*
X117152704Y-123626531D01*
X117276531Y-123502704D01*
X117373821Y-123357099D01*
X117440836Y-123195312D01*
X117458823Y-123104886D01*
X125019110Y-115544600D01*
X135599817Y-115544600D01*
X135636000Y-115548164D01*
X135672183Y-115544600D01*
X135672186Y-115544600D01*
X135780399Y-115533942D01*
X135919249Y-115491822D01*
X136047213Y-115423424D01*
X136159375Y-115331375D01*
X136182446Y-115303263D01*
X142907111Y-108578599D01*
X142946818Y-108578599D01*
X142983001Y-108582163D01*
X143019184Y-108578599D01*
X143019187Y-108578599D01*
X143127400Y-108567941D01*
X143266250Y-108525821D01*
X143394214Y-108457423D01*
X143506376Y-108365374D01*
X143529447Y-108337262D01*
X143551886Y-108314823D01*
X143642312Y-108296836D01*
X143804099Y-108229821D01*
X143949704Y-108132531D01*
X144073531Y-108008704D01*
X144170821Y-107863099D01*
X144237836Y-107701312D01*
X144272000Y-107529559D01*
X144272000Y-107354441D01*
X144237836Y-107182688D01*
X144170821Y-107020901D01*
X144073531Y-106875296D01*
X143949704Y-106751469D01*
X143887083Y-106709627D01*
X146075400Y-104521310D01*
X146075401Y-111723807D01*
X146071836Y-111760000D01*
X146086059Y-111904398D01*
X146124965Y-112032653D01*
X146128179Y-112043249D01*
X146131819Y-112050059D01*
X146196576Y-112171212D01*
X146244460Y-112229558D01*
X146288626Y-112283375D01*
X146316732Y-112306441D01*
X146918722Y-112908431D01*
X146875966Y-112921401D01*
X146617986Y-113059294D01*
X146391866Y-113244866D01*
X146206294Y-113470986D01*
X146171799Y-113535523D01*
X146102178Y-113418645D01*
X145907269Y-113202412D01*
X145673920Y-113028359D01*
X145411099Y-112903175D01*
X145263890Y-112858524D01*
X145034000Y-112979845D01*
X145034000Y-114173000D01*
X145054000Y-114173000D01*
X145054000Y-114427000D01*
X145034000Y-114427000D01*
X145034000Y-114447000D01*
X144780000Y-114447000D01*
X144780000Y-114427000D01*
X144760000Y-114427000D01*
X144760000Y-114173000D01*
X144780000Y-114173000D01*
X144780000Y-112979845D01*
X144550110Y-112858524D01*
X144402901Y-112903175D01*
X144140080Y-113028359D01*
X143906731Y-113202412D01*
X143711822Y-113418645D01*
X143642201Y-113535523D01*
X143607706Y-113470986D01*
X143422134Y-113244866D01*
X143196014Y-113059294D01*
X142938034Y-112921401D01*
X142658111Y-112836487D01*
X142439950Y-112815000D01*
X142294050Y-112815000D01*
X142075889Y-112836487D01*
X141795966Y-112921401D01*
X141537986Y-113059294D01*
X141311866Y-113244866D01*
X141126294Y-113470986D01*
X140988401Y-113728966D01*
X140903487Y-114008889D01*
X140874815Y-114300000D01*
X140903487Y-114591111D01*
X140988401Y-114871034D01*
X141126294Y-115129014D01*
X141311866Y-115355134D01*
X141341687Y-115379607D01*
X141272820Y-115400498D01*
X141162506Y-115459463D01*
X141065815Y-115538815D01*
X140986463Y-115635506D01*
X140927498Y-115745820D01*
X140891188Y-115865518D01*
X140878928Y-115990000D01*
X140882000Y-116554250D01*
X141040750Y-116713000D01*
X142240000Y-116713000D01*
X142240000Y-116693000D01*
X142494000Y-116693000D01*
X142494000Y-116713000D01*
X142514000Y-116713000D01*
X142514000Y-116967000D01*
X142494000Y-116967000D01*
X142494000Y-118166250D01*
X142652750Y-118325000D01*
X143217000Y-118328072D01*
X143341482Y-118315812D01*
X143461180Y-118279502D01*
X143571494Y-118220537D01*
X143668185Y-118141185D01*
X143747537Y-118044494D01*
X143806502Y-117934180D01*
X143827393Y-117865313D01*
X143851866Y-117895134D01*
X144077986Y-118080706D01*
X144335966Y-118218599D01*
X144615889Y-118303513D01*
X144834050Y-118325000D01*
X144979950Y-118325000D01*
X145198111Y-118303513D01*
X145478034Y-118218599D01*
X145736014Y-118080706D01*
X145962134Y-117895134D01*
X146147706Y-117669014D01*
X146182201Y-117604477D01*
X146251822Y-117721355D01*
X146446731Y-117937588D01*
X146680080Y-118111641D01*
X146942901Y-118236825D01*
X147090110Y-118281476D01*
X147320000Y-118160155D01*
X147320000Y-116967000D01*
X147300000Y-116967000D01*
X147300000Y-116713000D01*
X147320000Y-116713000D01*
X147320000Y-116693000D01*
X147574000Y-116693000D01*
X147574000Y-116713000D01*
X147594000Y-116713000D01*
X147594000Y-116967000D01*
X147574000Y-116967000D01*
X147574000Y-118160155D01*
X147803890Y-118281476D01*
X147951099Y-118236825D01*
X148125916Y-118153558D01*
X148176474Y-118215163D01*
X148200979Y-118245022D01*
X148230049Y-118268879D01*
X148477570Y-118516400D01*
X141275110Y-118516400D01*
X140448710Y-117690000D01*
X140878928Y-117690000D01*
X140891188Y-117814482D01*
X140927498Y-117934180D01*
X140986463Y-118044494D01*
X141065815Y-118141185D01*
X141162506Y-118220537D01*
X141272820Y-118279502D01*
X141392518Y-118315812D01*
X141517000Y-118328072D01*
X142081250Y-118325000D01*
X142240000Y-118166250D01*
X142240000Y-116967000D01*
X141040750Y-116967000D01*
X140882000Y-117125750D01*
X140878928Y-117690000D01*
X140448710Y-117690000D01*
X140191823Y-117433114D01*
X140173836Y-117342688D01*
X140106821Y-117180901D01*
X140009531Y-117035296D01*
X139885704Y-116911469D01*
X139740099Y-116814179D01*
X139578312Y-116747164D01*
X139406559Y-116713000D01*
X139231441Y-116713000D01*
X139059688Y-116747164D01*
X138897901Y-116814179D01*
X138752296Y-116911469D01*
X138628469Y-117035296D01*
X138531179Y-117180901D01*
X138464164Y-117342688D01*
X138430000Y-117514441D01*
X138430000Y-117689559D01*
X138464164Y-117861312D01*
X138531179Y-118023099D01*
X138628469Y-118168704D01*
X138752296Y-118292531D01*
X138897901Y-118389821D01*
X139059688Y-118456836D01*
X139150114Y-118474823D01*
X140423559Y-119748269D01*
X140446625Y-119776375D01*
X140558787Y-119868424D01*
X140686751Y-119936822D01*
X140812280Y-119974901D01*
X140825601Y-119978942D01*
X140970000Y-119993164D01*
X141006186Y-119989600D01*
X157570817Y-119989600D01*
X157607000Y-119993164D01*
X157643183Y-119989600D01*
X157643186Y-119989600D01*
X157751399Y-119978942D01*
X157890249Y-119936822D01*
X158018213Y-119868424D01*
X158130375Y-119776375D01*
X158153445Y-119748264D01*
X158436287Y-119465423D01*
X158526712Y-119447436D01*
X158688499Y-119380421D01*
X158834104Y-119283131D01*
X158957931Y-119159304D01*
X159055221Y-119013699D01*
X159122236Y-118851912D01*
X159156400Y-118680159D01*
X159156400Y-118505041D01*
X159122236Y-118333288D01*
X159055221Y-118171501D01*
X158957931Y-118025896D01*
X158834104Y-117902069D01*
X158799728Y-117879100D01*
X160347657Y-117879100D01*
X160386301Y-117904921D01*
X160548088Y-117971936D01*
X160719841Y-118006100D01*
X160894959Y-118006100D01*
X161066712Y-117971936D01*
X161228499Y-117904921D01*
X161374104Y-117807631D01*
X161497931Y-117683804D01*
X161595221Y-117538199D01*
X161662236Y-117376412D01*
X161696400Y-117204659D01*
X161696400Y-117029541D01*
X161662236Y-116857788D01*
X161595221Y-116696001D01*
X161497931Y-116550396D01*
X161374104Y-116426569D01*
X161228499Y-116329279D01*
X161066712Y-116262264D01*
X160894959Y-116228100D01*
X160719841Y-116228100D01*
X160548088Y-116262264D01*
X160386301Y-116329279D01*
X160347657Y-116355100D01*
X157494323Y-116355100D01*
X157456900Y-116351414D01*
X157419477Y-116355100D01*
X157419474Y-116355100D01*
X157307522Y-116366126D01*
X157163885Y-116409698D01*
X157132322Y-116426569D01*
X157031507Y-116480455D01*
X156987148Y-116516860D01*
X156915478Y-116575678D01*
X156891621Y-116604748D01*
X156548567Y-116947802D01*
X156559185Y-116840000D01*
X156530513Y-116548889D01*
X156445599Y-116268966D01*
X156307706Y-116010986D01*
X156122134Y-115784866D01*
X155896014Y-115599294D01*
X155841209Y-115570000D01*
X155896014Y-115540706D01*
X156122134Y-115355134D01*
X156307706Y-115129014D01*
X156445599Y-114871034D01*
X156530513Y-114591111D01*
X156559185Y-114300000D01*
X156530513Y-114008889D01*
X156445599Y-113728966D01*
X156307706Y-113470986D01*
X156122134Y-113244866D01*
X155896014Y-113059294D01*
X155638034Y-112921401D01*
X155358111Y-112836487D01*
X155139950Y-112815000D01*
X154994050Y-112815000D01*
X154775889Y-112836487D01*
X154578599Y-112896334D01*
X154578599Y-110662309D01*
X157695557Y-113779267D01*
X157718625Y-113807375D01*
X157830787Y-113899424D01*
X157958751Y-113967822D01*
X158094130Y-114008889D01*
X158097601Y-114009942D01*
X158242000Y-114024164D01*
X158278186Y-114020600D01*
X171652891Y-114020600D01*
X175276177Y-117643887D01*
X175294164Y-117734312D01*
X175361179Y-117896099D01*
X175458469Y-118041704D01*
X175582296Y-118165531D01*
X175727901Y-118262821D01*
X175889688Y-118329836D01*
X176061441Y-118364000D01*
X176236559Y-118364000D01*
X176408312Y-118329836D01*
X176570099Y-118262821D01*
X176715704Y-118165531D01*
X176839531Y-118041704D01*
X176936821Y-117896099D01*
X177003836Y-117734312D01*
X177038000Y-117562559D01*
X177038000Y-117387441D01*
X177003836Y-117215688D01*
X176936821Y-117053901D01*
X176839531Y-116908296D01*
X176715704Y-116784469D01*
X176570099Y-116687179D01*
X176408312Y-116620164D01*
X176317887Y-116602177D01*
X173228309Y-113512600D01*
X173557891Y-113512600D01*
X174006177Y-113960887D01*
X174024164Y-114051312D01*
X174091179Y-114213099D01*
X174188469Y-114358704D01*
X174312296Y-114482531D01*
X174457901Y-114579821D01*
X174619688Y-114646836D01*
X174791441Y-114681000D01*
X174966559Y-114681000D01*
X175138312Y-114646836D01*
X175300099Y-114579821D01*
X175445704Y-114482531D01*
X175558263Y-114369972D01*
X178587400Y-117399110D01*
X178587401Y-119898242D01*
X178536179Y-119974901D01*
X178469164Y-120136688D01*
X178435000Y-120308441D01*
X178435000Y-120483559D01*
X178469164Y-120655312D01*
X178536179Y-120817099D01*
X178633469Y-120962704D01*
X178757296Y-121086531D01*
X178902901Y-121183821D01*
X179064688Y-121250836D01*
X179236441Y-121285000D01*
X179411559Y-121285000D01*
X179583312Y-121250836D01*
X179745099Y-121183821D01*
X179890704Y-121086531D01*
X180014531Y-120962704D01*
X180111821Y-120817099D01*
X180178836Y-120655312D01*
X180213000Y-120483559D01*
X180213000Y-120308441D01*
X180178836Y-120136688D01*
X180111821Y-119974901D01*
X180060600Y-119898243D01*
X180060600Y-117130183D01*
X180064164Y-117093999D01*
X180060378Y-117055558D01*
X180049942Y-116949601D01*
X180007822Y-116810751D01*
X179965725Y-116731992D01*
X179939424Y-116682786D01*
X179870442Y-116598732D01*
X179870437Y-116598727D01*
X179847374Y-116570625D01*
X179819273Y-116547564D01*
X174663446Y-111391737D01*
X174640375Y-111363625D01*
X174528213Y-111271576D01*
X174400249Y-111203178D01*
X174261399Y-111161058D01*
X174153186Y-111150400D01*
X174153183Y-111150400D01*
X174117000Y-111146836D01*
X174080817Y-111150400D01*
X159436109Y-111150400D01*
X151240823Y-102955114D01*
X151222836Y-102864688D01*
X151155821Y-102702901D01*
X151058531Y-102557296D01*
X150934704Y-102433469D01*
X150789099Y-102336179D01*
X150627312Y-102269164D01*
X150536886Y-102251177D01*
X150514447Y-102228738D01*
X150491376Y-102200626D01*
X150379214Y-102108577D01*
X150251250Y-102040179D01*
X150112400Y-101998059D01*
X150004187Y-101987401D01*
X150004184Y-101987401D01*
X149968001Y-101983837D01*
X149931818Y-101987401D01*
X146867185Y-101987401D01*
X146830999Y-101983837D01*
X146794813Y-101987401D01*
X146686600Y-101998059D01*
X146547750Y-102040179D01*
X146454465Y-102090041D01*
X146419786Y-102108577D01*
X146356155Y-102160798D01*
X146307624Y-102200626D01*
X146284558Y-102228732D01*
X144166242Y-104347048D01*
X144073531Y-104208296D01*
X143949704Y-104084469D01*
X143804099Y-103987179D01*
X143642312Y-103920164D01*
X143470559Y-103886000D01*
X143295441Y-103886000D01*
X143123688Y-103920164D01*
X142961901Y-103987179D01*
X142816296Y-104084469D01*
X142692469Y-104208296D01*
X142595179Y-104353901D01*
X142528164Y-104515688D01*
X142494000Y-104687441D01*
X142494000Y-104862559D01*
X142528164Y-105034312D01*
X142546269Y-105078021D01*
X134695891Y-112928400D01*
X119877757Y-112928400D01*
X119801099Y-112877179D01*
X119639312Y-112810164D01*
X119467559Y-112776000D01*
X119292441Y-112776000D01*
X119120688Y-112810164D01*
X118958901Y-112877179D01*
X118813296Y-112974469D01*
X118689469Y-113098296D01*
X118592179Y-113243901D01*
X118525164Y-113405688D01*
X118491000Y-113577441D01*
X118491000Y-113752559D01*
X118525164Y-113924312D01*
X118592179Y-114086099D01*
X118689469Y-114231704D01*
X118813296Y-114355531D01*
X118958901Y-114452821D01*
X119120688Y-114519836D01*
X119292441Y-114554000D01*
X119467559Y-114554000D01*
X119639312Y-114519836D01*
X119801099Y-114452821D01*
X119877757Y-114401600D01*
X122935690Y-114401600D01*
X117814114Y-119523177D01*
X117723688Y-119541164D01*
X117561901Y-119608179D01*
X117416296Y-119705469D01*
X117292469Y-119829296D01*
X117195179Y-119974901D01*
X117128164Y-120136688D01*
X117094000Y-120308441D01*
X117094000Y-120483559D01*
X117128164Y-120655312D01*
X117195179Y-120817099D01*
X117292469Y-120962704D01*
X117405028Y-121075263D01*
X116417114Y-122063177D01*
X116326688Y-122081164D01*
X116164901Y-122148179D01*
X116019296Y-122245469D01*
X115895469Y-122369296D01*
X115798179Y-122514901D01*
X115731164Y-122676688D01*
X115697000Y-122848441D01*
X47004818Y-122848441D01*
X46977727Y-122830340D01*
X45481507Y-121650816D01*
X44082454Y-120357546D01*
X42789184Y-118958493D01*
X41609660Y-117462273D01*
X40551175Y-115878140D01*
X39620228Y-114215813D01*
X38822590Y-112485602D01*
X38163154Y-110698124D01*
X37645994Y-108864413D01*
X37274301Y-106995791D01*
X37050366Y-105103765D01*
X36975000Y-103185575D01*
X36975000Y-98017738D01*
X52060000Y-98017738D01*
X52060000Y-98832262D01*
X52218906Y-99631135D01*
X52530611Y-100383657D01*
X52983136Y-101060909D01*
X53559091Y-101636864D01*
X54236343Y-102089389D01*
X54988865Y-102401094D01*
X55787738Y-102560000D01*
X56602262Y-102560000D01*
X57401135Y-102401094D01*
X58153657Y-102089389D01*
X58830909Y-101636864D01*
X59406864Y-101060909D01*
X59859389Y-100383657D01*
X60171094Y-99631135D01*
X60330000Y-98832262D01*
X60330000Y-98017738D01*
X60171094Y-97218865D01*
X59859389Y-96466343D01*
X59406864Y-95789091D01*
X58830909Y-95213136D01*
X58153657Y-94760611D01*
X57401135Y-94448906D01*
X56602262Y-94290000D01*
X55787738Y-94290000D01*
X54988865Y-94448906D01*
X54236343Y-94760611D01*
X53559091Y-95213136D01*
X52983136Y-95789091D01*
X52530611Y-96466343D01*
X52218906Y-97218865D01*
X52060000Y-98017738D01*
X36975000Y-98017738D01*
X36975000Y-95039332D01*
X45729340Y-95039332D01*
X45729340Y-95435268D01*
X45806583Y-95823596D01*
X45958101Y-96189392D01*
X46178071Y-96518601D01*
X46458039Y-96798569D01*
X46787248Y-97018539D01*
X47153044Y-97170057D01*
X47541372Y-97247300D01*
X47937308Y-97247300D01*
X48325636Y-97170057D01*
X48691432Y-97018539D01*
X49020641Y-96798569D01*
X49300609Y-96518601D01*
X49520579Y-96189392D01*
X49672097Y-95823596D01*
X49749340Y-95435268D01*
X49749340Y-95039332D01*
X49672097Y-94651004D01*
X49520579Y-94285208D01*
X49332490Y-94003713D01*
X49715612Y-94079920D01*
X50111548Y-94079920D01*
X50499876Y-94002677D01*
X50865672Y-93851159D01*
X51194881Y-93631189D01*
X51474849Y-93351221D01*
X51694819Y-93022012D01*
X51846337Y-92656216D01*
X51923580Y-92267888D01*
X51923580Y-91871952D01*
X51880005Y-91652886D01*
X52121248Y-91814079D01*
X52487044Y-91965597D01*
X52875372Y-92042840D01*
X53271308Y-92042840D01*
X53659636Y-91965597D01*
X54025432Y-91814079D01*
X54354641Y-91594109D01*
X54634609Y-91314141D01*
X54854579Y-90984932D01*
X55006097Y-90619136D01*
X55051077Y-90393007D01*
X55056381Y-90405812D01*
X55276351Y-90735021D01*
X55556319Y-91014989D01*
X55885528Y-91234959D01*
X56251324Y-91386477D01*
X56639652Y-91463720D01*
X57035588Y-91463720D01*
X57423916Y-91386477D01*
X57789712Y-91234959D01*
X58118921Y-91014989D01*
X58398889Y-90735021D01*
X58513160Y-90564002D01*
X58513160Y-90685468D01*
X58590403Y-91073796D01*
X58741921Y-91439592D01*
X58961891Y-91768801D01*
X59241859Y-92048769D01*
X59571068Y-92268739D01*
X59936864Y-92420257D01*
X60325192Y-92497500D01*
X60721128Y-92497500D01*
X61109456Y-92420257D01*
X61475252Y-92268739D01*
X61624409Y-92169076D01*
X61488543Y-92497084D01*
X61411300Y-92885412D01*
X61411300Y-93281348D01*
X61488543Y-93669676D01*
X61640061Y-94035472D01*
X61860031Y-94364681D01*
X62139999Y-94644649D01*
X62469208Y-94864619D01*
X62835004Y-95016137D01*
X63223332Y-95093380D01*
X63516650Y-95093380D01*
X63414511Y-95195519D01*
X63194541Y-95524728D01*
X63043023Y-95890524D01*
X62965780Y-96278852D01*
X62965780Y-96674788D01*
X63043023Y-97063116D01*
X63194541Y-97428912D01*
X63414511Y-97758121D01*
X63694479Y-98038089D01*
X64023688Y-98258059D01*
X64311043Y-98377086D01*
X64000828Y-98505581D01*
X63671619Y-98725551D01*
X63391651Y-99005519D01*
X63171681Y-99334728D01*
X63020163Y-99700524D01*
X62942920Y-100088852D01*
X62942920Y-100484788D01*
X63020163Y-100873116D01*
X63171681Y-101238912D01*
X63391651Y-101568121D01*
X63627492Y-101803962D01*
X63606568Y-101799800D01*
X63210632Y-101799800D01*
X62822304Y-101877043D01*
X62456508Y-102028561D01*
X62127299Y-102248531D01*
X61847331Y-102528499D01*
X61627361Y-102857708D01*
X61475843Y-103223504D01*
X61398600Y-103611832D01*
X61398600Y-104007768D01*
X61475843Y-104396096D01*
X61577787Y-104642210D01*
X61437152Y-104548241D01*
X61071356Y-104396723D01*
X60683028Y-104319480D01*
X60287092Y-104319480D01*
X59898764Y-104396723D01*
X59532968Y-104548241D01*
X59203759Y-104768211D01*
X58923791Y-105048179D01*
X58703821Y-105377388D01*
X58552303Y-105743184D01*
X58475060Y-106131512D01*
X58475060Y-106208709D01*
X58414129Y-106117519D01*
X58134161Y-105837551D01*
X57804952Y-105617581D01*
X57439156Y-105466063D01*
X57050828Y-105388820D01*
X56654892Y-105388820D01*
X56266564Y-105466063D01*
X55900768Y-105617581D01*
X55571559Y-105837551D01*
X55291591Y-106117519D01*
X55071621Y-106446728D01*
X55071161Y-106447839D01*
X55039117Y-106286744D01*
X54887599Y-105920948D01*
X54667629Y-105591739D01*
X54387661Y-105311771D01*
X54058452Y-105091801D01*
X53692656Y-104940283D01*
X53304328Y-104863040D01*
X52908392Y-104863040D01*
X52520064Y-104940283D01*
X52154268Y-105091801D01*
X51825059Y-105311771D01*
X51789048Y-105347782D01*
X51857540Y-105003448D01*
X51857540Y-104607512D01*
X51780297Y-104219184D01*
X51628779Y-103853388D01*
X51408809Y-103524179D01*
X51128841Y-103244211D01*
X50799632Y-103024241D01*
X50433836Y-102872723D01*
X50045508Y-102795480D01*
X49649572Y-102795480D01*
X49333774Y-102858296D01*
X49364109Y-102827961D01*
X49584079Y-102498752D01*
X49735597Y-102132956D01*
X49812840Y-101744628D01*
X49812840Y-101348692D01*
X49735597Y-100960364D01*
X49584079Y-100594568D01*
X49364109Y-100265359D01*
X49084141Y-99985391D01*
X48754932Y-99765421D01*
X48389136Y-99613903D01*
X48000808Y-99536660D01*
X47604872Y-99536660D01*
X47216544Y-99613903D01*
X46850748Y-99765421D01*
X46521539Y-99985391D01*
X46241571Y-100265359D01*
X46021601Y-100594568D01*
X45870083Y-100960364D01*
X45792840Y-101348692D01*
X45792840Y-101744628D01*
X45870083Y-102132956D01*
X46021601Y-102498752D01*
X46241571Y-102827961D01*
X46521539Y-103107929D01*
X46850748Y-103327899D01*
X47216544Y-103479417D01*
X47604872Y-103556660D01*
X48000808Y-103556660D01*
X48316606Y-103493844D01*
X48286271Y-103524179D01*
X48066301Y-103853388D01*
X47914783Y-104219184D01*
X47837540Y-104607512D01*
X47837540Y-105003448D01*
X47914783Y-105391776D01*
X48066301Y-105757572D01*
X48286271Y-106086781D01*
X48566239Y-106366749D01*
X48895448Y-106586719D01*
X49261244Y-106738237D01*
X49649572Y-106815480D01*
X50045508Y-106815480D01*
X50433836Y-106738237D01*
X50799632Y-106586719D01*
X51128841Y-106366749D01*
X51164852Y-106330738D01*
X51096360Y-106675072D01*
X51096360Y-107071008D01*
X51173603Y-107459336D01*
X51325121Y-107825132D01*
X51545091Y-108154341D01*
X51825059Y-108434309D01*
X52154268Y-108654279D01*
X52520064Y-108805797D01*
X52908392Y-108883040D01*
X53304328Y-108883040D01*
X53692656Y-108805797D01*
X54058452Y-108654279D01*
X54387661Y-108434309D01*
X54667629Y-108154341D01*
X54887599Y-107825132D01*
X54888059Y-107824021D01*
X54920103Y-107985116D01*
X55071621Y-108350912D01*
X55291591Y-108680121D01*
X55571559Y-108960089D01*
X55900768Y-109180059D01*
X56266564Y-109331577D01*
X56654892Y-109408820D01*
X57050828Y-109408820D01*
X57439156Y-109331577D01*
X57804952Y-109180059D01*
X58134161Y-108960089D01*
X58414129Y-108680121D01*
X58634099Y-108350912D01*
X58785617Y-107985116D01*
X58862860Y-107596788D01*
X58862860Y-107519591D01*
X58923791Y-107610781D01*
X59203759Y-107890749D01*
X59532968Y-108110719D01*
X59898764Y-108262237D01*
X60287092Y-108339480D01*
X60683028Y-108339480D01*
X61071356Y-108262237D01*
X61437152Y-108110719D01*
X61766361Y-107890749D01*
X62046329Y-107610781D01*
X62266299Y-107281572D01*
X62417817Y-106915776D01*
X62495060Y-106527448D01*
X62495060Y-106131512D01*
X62417817Y-105743184D01*
X62315873Y-105497070D01*
X62456508Y-105591039D01*
X62822304Y-105742557D01*
X63210632Y-105819800D01*
X63606568Y-105819800D01*
X63994896Y-105742557D01*
X64360692Y-105591039D01*
X64689901Y-105371069D01*
X64969869Y-105091101D01*
X65189839Y-104761892D01*
X65341357Y-104396096D01*
X65418600Y-104007768D01*
X65418600Y-103611832D01*
X65341357Y-103223504D01*
X65189839Y-102857708D01*
X64969869Y-102528499D01*
X64734028Y-102292658D01*
X64754952Y-102296820D01*
X65150888Y-102296820D01*
X65539216Y-102219577D01*
X65905012Y-102068059D01*
X66234221Y-101848089D01*
X66514189Y-101568121D01*
X66734159Y-101238912D01*
X66812898Y-101048820D01*
X72412190Y-101048820D01*
X84914946Y-113551577D01*
X84870164Y-113659688D01*
X84836000Y-113831441D01*
X84836000Y-114006559D01*
X84870164Y-114178312D01*
X84937179Y-114340099D01*
X85034469Y-114485704D01*
X85158296Y-114609531D01*
X85303901Y-114706821D01*
X85465688Y-114773836D01*
X85637441Y-114808000D01*
X85758107Y-114808000D01*
X85759164Y-114813312D01*
X85826179Y-114975099D01*
X85923469Y-115120704D01*
X86047296Y-115244531D01*
X86192901Y-115341821D01*
X86354688Y-115408836D01*
X86526441Y-115443000D01*
X86647107Y-115443000D01*
X86648164Y-115448312D01*
X86715179Y-115610099D01*
X86812469Y-115755704D01*
X86936296Y-115879531D01*
X87081901Y-115976821D01*
X87243688Y-116043836D01*
X87415441Y-116078000D01*
X87590559Y-116078000D01*
X87705129Y-116055210D01*
X87731179Y-116118099D01*
X87828469Y-116263704D01*
X87952296Y-116387531D01*
X88097901Y-116484821D01*
X88259688Y-116551836D01*
X88431441Y-116586000D01*
X88606559Y-116586000D01*
X88778312Y-116551836D01*
X88940099Y-116484821D01*
X89085704Y-116387531D01*
X89209531Y-116263704D01*
X89306821Y-116118099D01*
X89373836Y-115956312D01*
X89408000Y-115784559D01*
X89408000Y-115609441D01*
X89373836Y-115437688D01*
X89306821Y-115275901D01*
X89281000Y-115237257D01*
X89281000Y-113448422D01*
X89284686Y-113410999D01*
X89275964Y-113322442D01*
X89269974Y-113261622D01*
X89226402Y-113117985D01*
X89155645Y-112985608D01*
X89060422Y-112869578D01*
X89031353Y-112845722D01*
X86294631Y-110109000D01*
X98895577Y-110109000D01*
X98933000Y-110112686D01*
X98970423Y-110109000D01*
X98970426Y-110109000D01*
X99082378Y-110097974D01*
X99226015Y-110054402D01*
X99358392Y-109983645D01*
X99474422Y-109888422D01*
X99498284Y-109859346D01*
X99553126Y-109804504D01*
X99598712Y-109795436D01*
X99760499Y-109728421D01*
X99906104Y-109631131D01*
X100029931Y-109507304D01*
X100127221Y-109361699D01*
X100194236Y-109199912D01*
X100228400Y-109028159D01*
X100228400Y-108853041D01*
X100219352Y-108807554D01*
X100360712Y-108779436D01*
X100522499Y-108712421D01*
X100668104Y-108615131D01*
X100672900Y-108610335D01*
X100677696Y-108615131D01*
X100823301Y-108712421D01*
X100985088Y-108779436D01*
X101156841Y-108813600D01*
X101331959Y-108813600D01*
X101503712Y-108779436D01*
X101665499Y-108712421D01*
X101811104Y-108615131D01*
X101815900Y-108610335D01*
X101820696Y-108615131D01*
X101966301Y-108712421D01*
X102128088Y-108779436D01*
X102299841Y-108813600D01*
X102474959Y-108813600D01*
X102646712Y-108779436D01*
X102808499Y-108712421D01*
X102954104Y-108615131D01*
X102958900Y-108610335D01*
X102963696Y-108615131D01*
X103109301Y-108712421D01*
X103271088Y-108779436D01*
X103442841Y-108813600D01*
X103617959Y-108813600D01*
X103789712Y-108779436D01*
X103951499Y-108712421D01*
X104097104Y-108615131D01*
X104220931Y-108491304D01*
X104318221Y-108345699D01*
X104385236Y-108183912D01*
X104419400Y-108012159D01*
X104419400Y-107837041D01*
X104385236Y-107665288D01*
X104318221Y-107503501D01*
X104267000Y-107426843D01*
X104267000Y-98018600D01*
X107590714Y-98018600D01*
X107594401Y-98056033D01*
X107594400Y-99632176D01*
X107590714Y-99669600D01*
X107594400Y-99707023D01*
X107594400Y-99707025D01*
X107605426Y-99818977D01*
X107648998Y-99962614D01*
X107667155Y-99996583D01*
X107719755Y-100094992D01*
X107751118Y-100133208D01*
X107814978Y-100211022D01*
X107844054Y-100234884D01*
X109753401Y-102144232D01*
X109753400Y-107591857D01*
X109727579Y-107630501D01*
X109660564Y-107792288D01*
X109626400Y-107964041D01*
X109626400Y-108139159D01*
X109660564Y-108310912D01*
X109727579Y-108472699D01*
X109824869Y-108618304D01*
X109948696Y-108742131D01*
X110094301Y-108839421D01*
X110256088Y-108906436D01*
X110427841Y-108940600D01*
X110602959Y-108940600D01*
X110774712Y-108906436D01*
X110936499Y-108839421D01*
X111082104Y-108742131D01*
X111205931Y-108618304D01*
X111303221Y-108472699D01*
X111370236Y-108310912D01*
X111396555Y-108178600D01*
X111412245Y-108178600D01*
X111438564Y-108310912D01*
X111505579Y-108472699D01*
X111602869Y-108618304D01*
X111726696Y-108742131D01*
X111872301Y-108839421D01*
X112034088Y-108906436D01*
X112205841Y-108940600D01*
X112380959Y-108940600D01*
X112552712Y-108906436D01*
X112714499Y-108839421D01*
X112860104Y-108742131D01*
X112983931Y-108618304D01*
X113081221Y-108472699D01*
X113148236Y-108310912D01*
X113174555Y-108178600D01*
X113269959Y-108178600D01*
X113441712Y-108144436D01*
X113603499Y-108077421D01*
X113749104Y-107980131D01*
X113872931Y-107856304D01*
X113970221Y-107710699D01*
X114037236Y-107548912D01*
X114071400Y-107377159D01*
X114071400Y-107202041D01*
X114037236Y-107030288D01*
X113970221Y-106868501D01*
X113944400Y-106829857D01*
X113944400Y-102017230D01*
X115091752Y-100869879D01*
X115120822Y-100846022D01*
X115216045Y-100729992D01*
X115283928Y-100602992D01*
X115286801Y-100597617D01*
X115287726Y-100594568D01*
X115330374Y-100453978D01*
X115341400Y-100342026D01*
X115341400Y-100342024D01*
X115345086Y-100304601D01*
X115341400Y-100267178D01*
X115341400Y-98842230D01*
X121977341Y-92206290D01*
X121977340Y-93377322D01*
X121787248Y-93456061D01*
X121458039Y-93676031D01*
X121178071Y-93955999D01*
X120958101Y-94285208D01*
X120806583Y-94651004D01*
X120729340Y-95039332D01*
X120729340Y-95435268D01*
X120806583Y-95823596D01*
X120958101Y-96189392D01*
X121178071Y-96518601D01*
X121458039Y-96798569D01*
X121787248Y-97018539D01*
X122153044Y-97170057D01*
X122541372Y-97247300D01*
X122937308Y-97247300D01*
X123325636Y-97170057D01*
X123691432Y-97018539D01*
X124020641Y-96798569D01*
X124300609Y-96518601D01*
X124520579Y-96189392D01*
X124672097Y-95823596D01*
X124749340Y-95435268D01*
X124749340Y-95039332D01*
X124672097Y-94651004D01*
X124520579Y-94285208D01*
X124332490Y-94003713D01*
X124715612Y-94079920D01*
X125111548Y-94079920D01*
X125499876Y-94002677D01*
X125865672Y-93851159D01*
X126194881Y-93631189D01*
X126474849Y-93351221D01*
X126694819Y-93022012D01*
X126846337Y-92656216D01*
X126923580Y-92267888D01*
X126923580Y-91871952D01*
X126880005Y-91652886D01*
X127121248Y-91814079D01*
X127343201Y-91906015D01*
X127343200Y-94828849D01*
X126217850Y-95954200D01*
X126188780Y-95978057D01*
X126164923Y-96007127D01*
X126164922Y-96007128D01*
X126093556Y-96094087D01*
X126022800Y-96226464D01*
X125979228Y-96370101D01*
X125964515Y-96519479D01*
X125968202Y-96556912D01*
X125968201Y-100346155D01*
X125964515Y-100383578D01*
X125968201Y-100421001D01*
X125968201Y-100421003D01*
X125979227Y-100532955D01*
X126022799Y-100676592D01*
X126039575Y-100707978D01*
X126093556Y-100808970D01*
X126128554Y-100851615D01*
X126188779Y-100925000D01*
X126217855Y-100948862D01*
X130892259Y-105623266D01*
X130571559Y-105837551D01*
X130291591Y-106117519D01*
X130071621Y-106446728D01*
X130071161Y-106447839D01*
X130039117Y-106286744D01*
X129887599Y-105920948D01*
X129667629Y-105591739D01*
X129387661Y-105311771D01*
X129058452Y-105091801D01*
X128692656Y-104940283D01*
X128304328Y-104863040D01*
X127908392Y-104863040D01*
X127520064Y-104940283D01*
X127154268Y-105091801D01*
X126825059Y-105311771D01*
X126789048Y-105347782D01*
X126857540Y-105003448D01*
X126857540Y-104607512D01*
X126780297Y-104219184D01*
X126628779Y-103853388D01*
X126408809Y-103524179D01*
X126128841Y-103244211D01*
X125799632Y-103024241D01*
X125433836Y-102872723D01*
X125045508Y-102795480D01*
X124649572Y-102795480D01*
X124333774Y-102858296D01*
X124364109Y-102827961D01*
X124584079Y-102498752D01*
X124735597Y-102132956D01*
X124812840Y-101744628D01*
X124812840Y-101348692D01*
X124735597Y-100960364D01*
X124584079Y-100594568D01*
X124364109Y-100265359D01*
X124084141Y-99985391D01*
X123754932Y-99765421D01*
X123389136Y-99613903D01*
X123000808Y-99536660D01*
X122604872Y-99536660D01*
X122216544Y-99613903D01*
X121850748Y-99765421D01*
X121521539Y-99985391D01*
X121241571Y-100265359D01*
X121021601Y-100594568D01*
X120870083Y-100960364D01*
X120792840Y-101348692D01*
X120792840Y-101744628D01*
X120870083Y-102132956D01*
X121021601Y-102498752D01*
X121241571Y-102827961D01*
X121521539Y-103107929D01*
X121850748Y-103327899D01*
X122216544Y-103479417D01*
X122604872Y-103556660D01*
X123000808Y-103556660D01*
X123316606Y-103493844D01*
X123286271Y-103524179D01*
X123066301Y-103853388D01*
X122914783Y-104219184D01*
X122837540Y-104607512D01*
X122837540Y-105003448D01*
X122914783Y-105391776D01*
X123066301Y-105757572D01*
X123286271Y-106086781D01*
X123566239Y-106366749D01*
X123895448Y-106586719D01*
X124261244Y-106738237D01*
X124649572Y-106815480D01*
X125045508Y-106815480D01*
X125433836Y-106738237D01*
X125799632Y-106586719D01*
X126128841Y-106366749D01*
X126164852Y-106330738D01*
X126096360Y-106675072D01*
X126096360Y-107071008D01*
X126173603Y-107459336D01*
X126325121Y-107825132D01*
X126545091Y-108154341D01*
X126825059Y-108434309D01*
X127154268Y-108654279D01*
X127520064Y-108805797D01*
X127686987Y-108839000D01*
X125969431Y-108839000D01*
X123063304Y-105932873D01*
X123054236Y-105887288D01*
X122987221Y-105725501D01*
X122889931Y-105579896D01*
X122766104Y-105456069D01*
X122620499Y-105358779D01*
X122458712Y-105291764D01*
X122286959Y-105257600D01*
X122111841Y-105257600D01*
X121940088Y-105291764D01*
X121778301Y-105358779D01*
X121632696Y-105456069D01*
X121508869Y-105579896D01*
X121411579Y-105725501D01*
X121344564Y-105887288D01*
X121310400Y-106059041D01*
X121310400Y-106234159D01*
X121344564Y-106405912D01*
X121411579Y-106567699D01*
X121508869Y-106713304D01*
X121632696Y-106837131D01*
X121778301Y-106934421D01*
X121940088Y-107001436D01*
X121985673Y-107010504D01*
X125088521Y-110113352D01*
X125112378Y-110142422D01*
X125228408Y-110237645D01*
X125360785Y-110308402D01*
X125504422Y-110351974D01*
X125616374Y-110363000D01*
X125616376Y-110363000D01*
X125653799Y-110366686D01*
X125691222Y-110363000D01*
X135598577Y-110363000D01*
X135636000Y-110366686D01*
X135673423Y-110363000D01*
X135673426Y-110363000D01*
X135785378Y-110351974D01*
X135929015Y-110308402D01*
X136061392Y-110237645D01*
X136177422Y-110142422D01*
X136201284Y-110113346D01*
X141840271Y-104474360D01*
X141869341Y-104450503D01*
X141964564Y-104334473D01*
X142035321Y-104202096D01*
X142078893Y-104058459D01*
X142089919Y-103946507D01*
X142089919Y-103946505D01*
X142093605Y-103909082D01*
X142089919Y-103871659D01*
X142089919Y-101699241D01*
X142093605Y-101661818D01*
X142086996Y-101594718D01*
X142078893Y-101512441D01*
X142035321Y-101368804D01*
X141964564Y-101236427D01*
X141869341Y-101120397D01*
X141840272Y-101096541D01*
X141806938Y-101063207D01*
X141885677Y-100873116D01*
X141962920Y-100484788D01*
X141962920Y-100088852D01*
X141885677Y-99700524D01*
X141734159Y-99334728D01*
X141514189Y-99005519D01*
X141234221Y-98725551D01*
X140905012Y-98505581D01*
X140617657Y-98386554D01*
X140927872Y-98258059D01*
X141257081Y-98038089D01*
X141277432Y-98017738D01*
X162060000Y-98017738D01*
X162060000Y-98832262D01*
X162218906Y-99631135D01*
X162530611Y-100383657D01*
X162983136Y-101060909D01*
X163559091Y-101636864D01*
X164236343Y-102089389D01*
X164988865Y-102401094D01*
X165787738Y-102560000D01*
X166602262Y-102560000D01*
X167401135Y-102401094D01*
X168153657Y-102089389D01*
X168830909Y-101636864D01*
X169406864Y-101060909D01*
X169859389Y-100383657D01*
X170171094Y-99631135D01*
X170330000Y-98832262D01*
X170330000Y-98017738D01*
X170171094Y-97218865D01*
X169859389Y-96466343D01*
X169406864Y-95789091D01*
X168830909Y-95213136D01*
X168153657Y-94760611D01*
X167401135Y-94448906D01*
X166602262Y-94290000D01*
X165787738Y-94290000D01*
X164988865Y-94448906D01*
X164236343Y-94760611D01*
X163559091Y-95213136D01*
X162983136Y-95789091D01*
X162530611Y-96466343D01*
X162218906Y-97218865D01*
X162060000Y-98017738D01*
X141277432Y-98017738D01*
X141537049Y-97758121D01*
X141757019Y-97428912D01*
X141908537Y-97063116D01*
X141985780Y-96674788D01*
X141985780Y-96278852D01*
X141908537Y-95890524D01*
X141757019Y-95524728D01*
X141537049Y-95195519D01*
X141257081Y-94915551D01*
X140927872Y-94695581D01*
X140562076Y-94544063D01*
X140173748Y-94466820D01*
X139880430Y-94466820D01*
X139982569Y-94364681D01*
X140202539Y-94035472D01*
X140354057Y-93669676D01*
X140431300Y-93281348D01*
X140431300Y-92885412D01*
X140354057Y-92497084D01*
X140202539Y-92131288D01*
X139982569Y-91802079D01*
X139702601Y-91522111D01*
X139373392Y-91302141D01*
X139346688Y-91291080D01*
X141737768Y-88900000D01*
X157928885Y-88900000D01*
X157987579Y-89041699D01*
X158084869Y-89187304D01*
X158208696Y-89311131D01*
X158354301Y-89408421D01*
X158410620Y-89431750D01*
X157226989Y-90615381D01*
X157197919Y-90639238D01*
X157174062Y-90668308D01*
X157174061Y-90668309D01*
X157102695Y-90755268D01*
X157031939Y-90887645D01*
X156988367Y-91031282D01*
X156973654Y-91180660D01*
X156977341Y-91218093D01*
X156977340Y-93377322D01*
X156787248Y-93456061D01*
X156458039Y-93676031D01*
X156178071Y-93955999D01*
X155958101Y-94285208D01*
X155806583Y-94651004D01*
X155729340Y-95039332D01*
X155729340Y-95435268D01*
X155806583Y-95823596D01*
X155958101Y-96189392D01*
X156178071Y-96518601D01*
X156458039Y-96798569D01*
X156787248Y-97018539D01*
X157153044Y-97170057D01*
X157541372Y-97247300D01*
X157937308Y-97247300D01*
X158325636Y-97170057D01*
X158691432Y-97018539D01*
X159020641Y-96798569D01*
X159300609Y-96518601D01*
X159520579Y-96189392D01*
X159672097Y-95823596D01*
X159749340Y-95435268D01*
X159749340Y-95039332D01*
X159672097Y-94651004D01*
X159520579Y-94285208D01*
X159332490Y-94003713D01*
X159715612Y-94079920D01*
X160111548Y-94079920D01*
X160499876Y-94002677D01*
X160865672Y-93851159D01*
X161194881Y-93631189D01*
X161474849Y-93351221D01*
X161694819Y-93022012D01*
X161846337Y-92656216D01*
X161923580Y-92267888D01*
X161923580Y-91871952D01*
X161880005Y-91652886D01*
X162121248Y-91814079D01*
X162487044Y-91965597D01*
X162875372Y-92042840D01*
X163271308Y-92042840D01*
X163659636Y-91965597D01*
X164025432Y-91814079D01*
X164354641Y-91594109D01*
X164634609Y-91314141D01*
X164854579Y-90984932D01*
X165006097Y-90619136D01*
X165051077Y-90393007D01*
X165056381Y-90405812D01*
X165276351Y-90735021D01*
X165556319Y-91014989D01*
X165885528Y-91234959D01*
X166251324Y-91386477D01*
X166639652Y-91463720D01*
X167035588Y-91463720D01*
X167423916Y-91386477D01*
X167789712Y-91234959D01*
X168118921Y-91014989D01*
X168398889Y-90735021D01*
X168513160Y-90564002D01*
X168513160Y-90685468D01*
X168590403Y-91073796D01*
X168741921Y-91439592D01*
X168961891Y-91768801D01*
X169241859Y-92048769D01*
X169571068Y-92268739D01*
X169936864Y-92420257D01*
X170325192Y-92497500D01*
X170721128Y-92497500D01*
X171109456Y-92420257D01*
X171475252Y-92268739D01*
X171624409Y-92169076D01*
X171488543Y-92497084D01*
X171411300Y-92885412D01*
X171411300Y-93281348D01*
X171488543Y-93669676D01*
X171640061Y-94035472D01*
X171860031Y-94364681D01*
X172139999Y-94644649D01*
X172469208Y-94864619D01*
X172835004Y-95016137D01*
X173223332Y-95093380D01*
X173516650Y-95093380D01*
X173414511Y-95195519D01*
X173194541Y-95524728D01*
X173043023Y-95890524D01*
X172965780Y-96278852D01*
X172965780Y-96674788D01*
X173043023Y-97063116D01*
X173194541Y-97428912D01*
X173414511Y-97758121D01*
X173694479Y-98038089D01*
X174023688Y-98258059D01*
X174311043Y-98377086D01*
X174000828Y-98505581D01*
X173671619Y-98725551D01*
X173391651Y-99005519D01*
X173171681Y-99334728D01*
X173020163Y-99700524D01*
X172942920Y-100088852D01*
X172942920Y-100484788D01*
X173020163Y-100873116D01*
X173171681Y-101238912D01*
X173391651Y-101568121D01*
X173627492Y-101803962D01*
X173606568Y-101799800D01*
X173210632Y-101799800D01*
X172822304Y-101877043D01*
X172456508Y-102028561D01*
X172127299Y-102248531D01*
X171847331Y-102528499D01*
X171627361Y-102857708D01*
X171475843Y-103223504D01*
X171398600Y-103611832D01*
X171398600Y-104007768D01*
X171475843Y-104396096D01*
X171577787Y-104642210D01*
X171437152Y-104548241D01*
X171071356Y-104396723D01*
X170683028Y-104319480D01*
X170287092Y-104319480D01*
X169898764Y-104396723D01*
X169532968Y-104548241D01*
X169203759Y-104768211D01*
X168923791Y-105048179D01*
X168703821Y-105377388D01*
X168552303Y-105743184D01*
X168475060Y-106131512D01*
X168475060Y-106208709D01*
X168414129Y-106117519D01*
X168134161Y-105837551D01*
X167804952Y-105617581D01*
X167439156Y-105466063D01*
X167050828Y-105388820D01*
X166654892Y-105388820D01*
X166266564Y-105466063D01*
X165900768Y-105617581D01*
X165571559Y-105837551D01*
X165291591Y-106117519D01*
X165071621Y-106446728D01*
X165071161Y-106447839D01*
X165039117Y-106286744D01*
X164887599Y-105920948D01*
X164667629Y-105591739D01*
X164387661Y-105311771D01*
X164058452Y-105091801D01*
X163692656Y-104940283D01*
X163304328Y-104863040D01*
X162908392Y-104863040D01*
X162520064Y-104940283D01*
X162154268Y-105091801D01*
X161825059Y-105311771D01*
X161789048Y-105347782D01*
X161857540Y-105003448D01*
X161857540Y-104607512D01*
X161780297Y-104219184D01*
X161628779Y-103853388D01*
X161408809Y-103524179D01*
X161128841Y-103244211D01*
X160799632Y-103024241D01*
X160433836Y-102872723D01*
X160045508Y-102795480D01*
X159649572Y-102795480D01*
X159333774Y-102858296D01*
X159364109Y-102827961D01*
X159584079Y-102498752D01*
X159735597Y-102132956D01*
X159812840Y-101744628D01*
X159812840Y-101348692D01*
X159735597Y-100960364D01*
X159584079Y-100594568D01*
X159364109Y-100265359D01*
X159084141Y-99985391D01*
X158754932Y-99765421D01*
X158389136Y-99613903D01*
X158000808Y-99536660D01*
X157604872Y-99536660D01*
X157216544Y-99613903D01*
X156850748Y-99765421D01*
X156521539Y-99985391D01*
X156241571Y-100265359D01*
X156021601Y-100594568D01*
X155870083Y-100960364D01*
X155792840Y-101348692D01*
X155792840Y-101744628D01*
X155870083Y-102132956D01*
X156021601Y-102498752D01*
X156241571Y-102827961D01*
X156521539Y-103107929D01*
X156850748Y-103327899D01*
X157216544Y-103479417D01*
X157604872Y-103556660D01*
X158000808Y-103556660D01*
X158316606Y-103493844D01*
X158286271Y-103524179D01*
X158066301Y-103853388D01*
X157914783Y-104219184D01*
X157837540Y-104607512D01*
X157837540Y-105003448D01*
X157914783Y-105391776D01*
X158066301Y-105757572D01*
X158286271Y-106086781D01*
X158566239Y-106366749D01*
X158895448Y-106586719D01*
X159261244Y-106738237D01*
X159649572Y-106815480D01*
X160045508Y-106815480D01*
X160433836Y-106738237D01*
X160799632Y-106586719D01*
X161128841Y-106366749D01*
X161164852Y-106330738D01*
X161096360Y-106675072D01*
X161096360Y-107071008D01*
X161173603Y-107459336D01*
X161325121Y-107825132D01*
X161545091Y-108154341D01*
X161825059Y-108434309D01*
X162154268Y-108654279D01*
X162520064Y-108805797D01*
X162908392Y-108883040D01*
X163304328Y-108883040D01*
X163692656Y-108805797D01*
X164058452Y-108654279D01*
X164387661Y-108434309D01*
X164667629Y-108154341D01*
X164887599Y-107825132D01*
X164888059Y-107824021D01*
X164920103Y-107985116D01*
X165071621Y-108350912D01*
X165291591Y-108680121D01*
X165571559Y-108960089D01*
X165900768Y-109180059D01*
X166266564Y-109331577D01*
X166654892Y-109408820D01*
X167050828Y-109408820D01*
X167439156Y-109331577D01*
X167804952Y-109180059D01*
X168134161Y-108960089D01*
X168414129Y-108680121D01*
X168634099Y-108350912D01*
X168785617Y-107985116D01*
X168862860Y-107596788D01*
X168862860Y-107519591D01*
X168923791Y-107610781D01*
X169203759Y-107890749D01*
X169532968Y-108110719D01*
X169898764Y-108262237D01*
X170287092Y-108339480D01*
X170683028Y-108339480D01*
X171071356Y-108262237D01*
X171437152Y-108110719D01*
X171766361Y-107890749D01*
X172046329Y-107610781D01*
X172266299Y-107281572D01*
X172417817Y-106915776D01*
X172495060Y-106527448D01*
X172495060Y-106131512D01*
X172417817Y-105743184D01*
X172315873Y-105497070D01*
X172456508Y-105591039D01*
X172822304Y-105742557D01*
X173210632Y-105819800D01*
X173606568Y-105819800D01*
X173994896Y-105742557D01*
X174360692Y-105591039D01*
X174689901Y-105371069D01*
X174969869Y-105091101D01*
X175189839Y-104761892D01*
X175341357Y-104396096D01*
X175418600Y-104007768D01*
X175418600Y-103611832D01*
X175341357Y-103223504D01*
X175189839Y-102857708D01*
X174969869Y-102528499D01*
X174734028Y-102292658D01*
X174754952Y-102296820D01*
X175150888Y-102296820D01*
X175539216Y-102219577D01*
X175565919Y-102208516D01*
X175565920Y-106694486D01*
X175562233Y-106731919D01*
X175576946Y-106881297D01*
X175620518Y-107024934D01*
X175691274Y-107157311D01*
X175741909Y-107219009D01*
X175786498Y-107273341D01*
X175815568Y-107297198D01*
X179603097Y-111084728D01*
X179612164Y-111130312D01*
X179679179Y-111292099D01*
X179776469Y-111437704D01*
X179900296Y-111561531D01*
X180045901Y-111658821D01*
X180207688Y-111725836D01*
X180379441Y-111760000D01*
X180554559Y-111760000D01*
X180726312Y-111725836D01*
X180888099Y-111658821D01*
X181033704Y-111561531D01*
X181157531Y-111437704D01*
X181254821Y-111292099D01*
X181321836Y-111130312D01*
X181356000Y-110958559D01*
X181356000Y-110783441D01*
X181321836Y-110611688D01*
X181254821Y-110449901D01*
X181157531Y-110304296D01*
X181103276Y-110250041D01*
X191287400Y-110250041D01*
X191287400Y-110425159D01*
X191321564Y-110596912D01*
X191388579Y-110758699D01*
X191485869Y-110904304D01*
X191609696Y-111028131D01*
X191755301Y-111125421D01*
X191917088Y-111192436D01*
X192088841Y-111226600D01*
X192263959Y-111226600D01*
X192435712Y-111192436D01*
X192597499Y-111125421D01*
X192743104Y-111028131D01*
X192866931Y-110904304D01*
X192964221Y-110758699D01*
X193031236Y-110596912D01*
X193065400Y-110425159D01*
X193065400Y-110250041D01*
X193031236Y-110078288D01*
X192964221Y-109916501D01*
X192938400Y-109877857D01*
X192938400Y-101115870D01*
X196962952Y-97091318D01*
X197153044Y-97170057D01*
X197541372Y-97247300D01*
X197937308Y-97247300D01*
X198325636Y-97170057D01*
X198691432Y-97018539D01*
X199020641Y-96798569D01*
X199300609Y-96518601D01*
X199520579Y-96189392D01*
X199672097Y-95823596D01*
X199749340Y-95435268D01*
X199749340Y-95039332D01*
X199672097Y-94651004D01*
X199520579Y-94285208D01*
X199332490Y-94003713D01*
X199715612Y-94079920D01*
X200111548Y-94079920D01*
X200499876Y-94002677D01*
X200865672Y-93851159D01*
X201194881Y-93631189D01*
X201474849Y-93351221D01*
X201694819Y-93022012D01*
X201846337Y-92656216D01*
X201923580Y-92267888D01*
X201923580Y-91871952D01*
X201880005Y-91652886D01*
X202121248Y-91814079D01*
X202328801Y-91900050D01*
X202328800Y-94778049D01*
X201203450Y-95903400D01*
X201174380Y-95927257D01*
X201150523Y-95956327D01*
X201150522Y-95956328D01*
X201079156Y-96043287D01*
X201008400Y-96175664D01*
X200964828Y-96319301D01*
X200950115Y-96468679D01*
X200953802Y-96506112D01*
X200953801Y-100295355D01*
X200950115Y-100332778D01*
X200953801Y-100370201D01*
X200953801Y-100370203D01*
X200964827Y-100482155D01*
X201008399Y-100625792D01*
X201021799Y-100650862D01*
X201079156Y-100758170D01*
X201112805Y-100799171D01*
X201174379Y-100874200D01*
X201203455Y-100898062D01*
X205916470Y-105611077D01*
X205900768Y-105617581D01*
X205571559Y-105837551D01*
X205291591Y-106117519D01*
X205071621Y-106446728D01*
X205071161Y-106447839D01*
X205039117Y-106286744D01*
X204887599Y-105920948D01*
X204667629Y-105591739D01*
X204387661Y-105311771D01*
X204058452Y-105091801D01*
X203692656Y-104940283D01*
X203304328Y-104863040D01*
X202908392Y-104863040D01*
X202520064Y-104940283D01*
X202154268Y-105091801D01*
X201825059Y-105311771D01*
X201789048Y-105347782D01*
X201857540Y-105003448D01*
X201857540Y-104607512D01*
X201780297Y-104219184D01*
X201628779Y-103853388D01*
X201408809Y-103524179D01*
X201128841Y-103244211D01*
X200799632Y-103024241D01*
X200433836Y-102872723D01*
X200045508Y-102795480D01*
X199649572Y-102795480D01*
X199333774Y-102858296D01*
X199364109Y-102827961D01*
X199584079Y-102498752D01*
X199735597Y-102132956D01*
X199812840Y-101744628D01*
X199812840Y-101348692D01*
X199735597Y-100960364D01*
X199584079Y-100594568D01*
X199364109Y-100265359D01*
X199084141Y-99985391D01*
X198754932Y-99765421D01*
X198389136Y-99613903D01*
X198000808Y-99536660D01*
X197604872Y-99536660D01*
X197216544Y-99613903D01*
X196850748Y-99765421D01*
X196521539Y-99985391D01*
X196241571Y-100265359D01*
X196021601Y-100594568D01*
X195870083Y-100960364D01*
X195792840Y-101348692D01*
X195792840Y-101744628D01*
X195870083Y-102132956D01*
X196021601Y-102498752D01*
X196241571Y-102827961D01*
X196521539Y-103107929D01*
X196850748Y-103327899D01*
X197216544Y-103479417D01*
X197604872Y-103556660D01*
X198000808Y-103556660D01*
X198316606Y-103493844D01*
X198286271Y-103524179D01*
X198066301Y-103853388D01*
X197914783Y-104219184D01*
X197837540Y-104607512D01*
X197837540Y-105003448D01*
X197914783Y-105391776D01*
X198066301Y-105757572D01*
X198286271Y-106086781D01*
X198566239Y-106366749D01*
X198895448Y-106586719D01*
X199261244Y-106738237D01*
X199649572Y-106815480D01*
X200045508Y-106815480D01*
X200433836Y-106738237D01*
X200799632Y-106586719D01*
X201128841Y-106366749D01*
X201164852Y-106330738D01*
X201096360Y-106675072D01*
X201096360Y-107071008D01*
X201173603Y-107459336D01*
X201325121Y-107825132D01*
X201545091Y-108154341D01*
X201825059Y-108434309D01*
X202154268Y-108654279D01*
X202293619Y-108712000D01*
X199070631Y-108712000D01*
X197205904Y-106847273D01*
X197196836Y-106801688D01*
X197129821Y-106639901D01*
X197032531Y-106494296D01*
X196908704Y-106370469D01*
X196763099Y-106273179D01*
X196601312Y-106206164D01*
X196429559Y-106172000D01*
X196254441Y-106172000D01*
X196082688Y-106206164D01*
X195920901Y-106273179D01*
X195775296Y-106370469D01*
X195651469Y-106494296D01*
X195554179Y-106639901D01*
X195487164Y-106801688D01*
X195453000Y-106973441D01*
X195453000Y-107148559D01*
X195487164Y-107320312D01*
X195554179Y-107482099D01*
X195651469Y-107627704D01*
X195775296Y-107751531D01*
X195920901Y-107848821D01*
X196082688Y-107915836D01*
X196128273Y-107924904D01*
X197931369Y-109728000D01*
X197398273Y-110261096D01*
X197352688Y-110270164D01*
X197190901Y-110337179D01*
X197045296Y-110434469D01*
X196921469Y-110558296D01*
X196824179Y-110703901D01*
X196757164Y-110865688D01*
X196723000Y-111037441D01*
X196723000Y-111212559D01*
X196757164Y-111384312D01*
X196824179Y-111546099D01*
X196921469Y-111691704D01*
X197016067Y-111786302D01*
X194883370Y-113919000D01*
X194261743Y-113919000D01*
X194223099Y-113893179D01*
X194061312Y-113826164D01*
X193889559Y-113792000D01*
X193714441Y-113792000D01*
X193542688Y-113826164D01*
X193380901Y-113893179D01*
X193235296Y-113990469D01*
X193111469Y-114114296D01*
X193014179Y-114259901D01*
X192947164Y-114421688D01*
X192913000Y-114593441D01*
X192913000Y-114768559D01*
X192947164Y-114940312D01*
X193014179Y-115102099D01*
X193111469Y-115247704D01*
X193235296Y-115371531D01*
X193380901Y-115468821D01*
X193542688Y-115535836D01*
X193714441Y-115570000D01*
X193889559Y-115570000D01*
X194061312Y-115535836D01*
X194223099Y-115468821D01*
X194261743Y-115443000D01*
X195161577Y-115443000D01*
X195199000Y-115446686D01*
X195236423Y-115443000D01*
X195236426Y-115443000D01*
X195348378Y-115431974D01*
X195492015Y-115388402D01*
X195624392Y-115317645D01*
X195740422Y-115222422D01*
X195764284Y-115193346D01*
X199578631Y-111379000D01*
X211036577Y-111379000D01*
X211074000Y-111382686D01*
X211111423Y-111379000D01*
X211111426Y-111379000D01*
X211223378Y-111367974D01*
X211367015Y-111324402D01*
X211499392Y-111253645D01*
X211615422Y-111158422D01*
X211639284Y-111129346D01*
X226769331Y-95999300D01*
X230879362Y-95999300D01*
X230958101Y-96189392D01*
X231178071Y-96518601D01*
X231458039Y-96798569D01*
X231787248Y-97018539D01*
X232153044Y-97170057D01*
X232541372Y-97247300D01*
X232937308Y-97247300D01*
X233325636Y-97170057D01*
X233691432Y-97018539D01*
X234020641Y-96798569D01*
X234300609Y-96518601D01*
X234520579Y-96189392D01*
X234672097Y-95823596D01*
X234749340Y-95435268D01*
X234749340Y-95039332D01*
X234672097Y-94651004D01*
X234520579Y-94285208D01*
X234332490Y-94003713D01*
X234715612Y-94079920D01*
X235111548Y-94079920D01*
X235499876Y-94002677D01*
X235865672Y-93851159D01*
X236194881Y-93631189D01*
X236474849Y-93351221D01*
X236694819Y-93022012D01*
X236846337Y-92656216D01*
X236923580Y-92267888D01*
X236923580Y-91871952D01*
X236880005Y-91652886D01*
X237121248Y-91814079D01*
X237298661Y-91887566D01*
X237298660Y-94734869D01*
X236173310Y-95860220D01*
X236144240Y-95884077D01*
X236120383Y-95913147D01*
X236120382Y-95913148D01*
X236049016Y-96000107D01*
X235978260Y-96132484D01*
X235934688Y-96276121D01*
X235919975Y-96425499D01*
X235923662Y-96462932D01*
X235923661Y-100252175D01*
X235919975Y-100289598D01*
X235923661Y-100327021D01*
X235923661Y-100327023D01*
X235934687Y-100438975D01*
X235978259Y-100582612D01*
X235989153Y-100602993D01*
X236049016Y-100714990D01*
X236061328Y-100729992D01*
X236144239Y-100831020D01*
X236173315Y-100854882D01*
X240925691Y-105607258D01*
X240900768Y-105617581D01*
X240571559Y-105837551D01*
X240291591Y-106117519D01*
X240071621Y-106446728D01*
X240071161Y-106447839D01*
X240039117Y-106286744D01*
X239887599Y-105920948D01*
X239667629Y-105591739D01*
X239387661Y-105311771D01*
X239058452Y-105091801D01*
X238692656Y-104940283D01*
X238304328Y-104863040D01*
X237908392Y-104863040D01*
X237520064Y-104940283D01*
X237154268Y-105091801D01*
X236825059Y-105311771D01*
X236789048Y-105347782D01*
X236857540Y-105003448D01*
X236857540Y-104607512D01*
X236780297Y-104219184D01*
X236628779Y-103853388D01*
X236408809Y-103524179D01*
X236128841Y-103244211D01*
X235799632Y-103024241D01*
X235433836Y-102872723D01*
X235045508Y-102795480D01*
X234649572Y-102795480D01*
X234333774Y-102858296D01*
X234364109Y-102827961D01*
X234584079Y-102498752D01*
X234735597Y-102132956D01*
X234812840Y-101744628D01*
X234812840Y-101348692D01*
X234735597Y-100960364D01*
X234584079Y-100594568D01*
X234364109Y-100265359D01*
X234084141Y-99985391D01*
X233754932Y-99765421D01*
X233389136Y-99613903D01*
X233000808Y-99536660D01*
X232604872Y-99536660D01*
X232216544Y-99613903D01*
X231850748Y-99765421D01*
X231521539Y-99985391D01*
X231241571Y-100265359D01*
X231021601Y-100594568D01*
X230870083Y-100960364D01*
X230792840Y-101348692D01*
X230792840Y-101744628D01*
X230870083Y-102132956D01*
X231021601Y-102498752D01*
X231241571Y-102827961D01*
X231521539Y-103107929D01*
X231850748Y-103327899D01*
X232216544Y-103479417D01*
X232604872Y-103556660D01*
X233000808Y-103556660D01*
X233316606Y-103493844D01*
X233286271Y-103524179D01*
X233066301Y-103853388D01*
X232914783Y-104219184D01*
X232837540Y-104607512D01*
X232837540Y-105003448D01*
X232914783Y-105391776D01*
X233066301Y-105757572D01*
X233286271Y-106086781D01*
X233566239Y-106366749D01*
X233895448Y-106586719D01*
X234261244Y-106738237D01*
X234649572Y-106815480D01*
X235045508Y-106815480D01*
X235433836Y-106738237D01*
X235799632Y-106586719D01*
X236128841Y-106366749D01*
X236164852Y-106330738D01*
X236096360Y-106675072D01*
X236096360Y-107071008D01*
X236173603Y-107459336D01*
X236325121Y-107825132D01*
X236545091Y-108154341D01*
X236825059Y-108434309D01*
X237154268Y-108654279D01*
X237520064Y-108805797D01*
X237908392Y-108883040D01*
X238304328Y-108883040D01*
X238692656Y-108805797D01*
X239058452Y-108654279D01*
X239387661Y-108434309D01*
X239667629Y-108154341D01*
X239887599Y-107825132D01*
X239888059Y-107824021D01*
X239920103Y-107985116D01*
X240071621Y-108350912D01*
X240291591Y-108680121D01*
X240571559Y-108960089D01*
X240900768Y-109180059D01*
X241266564Y-109331577D01*
X241654892Y-109408820D01*
X242050828Y-109408820D01*
X242439156Y-109331577D01*
X242804952Y-109180059D01*
X243134161Y-108960089D01*
X243414129Y-108680121D01*
X243634099Y-108350912D01*
X243785617Y-107985116D01*
X243862860Y-107596788D01*
X243862860Y-107519591D01*
X243923791Y-107610781D01*
X244203759Y-107890749D01*
X244532968Y-108110719D01*
X244898764Y-108262237D01*
X245287092Y-108339480D01*
X245683028Y-108339480D01*
X246071356Y-108262237D01*
X246437152Y-108110719D01*
X246766361Y-107890749D01*
X247046329Y-107610781D01*
X247266299Y-107281572D01*
X247417817Y-106915776D01*
X247495060Y-106527448D01*
X247495060Y-106131512D01*
X247417817Y-105743184D01*
X247315873Y-105497070D01*
X247456508Y-105591039D01*
X247822304Y-105742557D01*
X248210632Y-105819800D01*
X248606568Y-105819800D01*
X248994896Y-105742557D01*
X249360692Y-105591039D01*
X249689901Y-105371069D01*
X249969869Y-105091101D01*
X250189839Y-104761892D01*
X250341357Y-104396096D01*
X250418600Y-104007768D01*
X250418600Y-103611832D01*
X250341357Y-103223504D01*
X250189839Y-102857708D01*
X249969869Y-102528499D01*
X249734028Y-102292658D01*
X249754952Y-102296820D01*
X250150888Y-102296820D01*
X250539216Y-102219577D01*
X250905012Y-102068059D01*
X251234221Y-101848089D01*
X251514189Y-101568121D01*
X251734159Y-101238912D01*
X251885677Y-100873116D01*
X251962920Y-100484788D01*
X251962920Y-100088852D01*
X251885677Y-99700524D01*
X251734159Y-99334728D01*
X251514189Y-99005519D01*
X251234221Y-98725551D01*
X250905012Y-98505581D01*
X250617657Y-98386554D01*
X250927872Y-98258059D01*
X251257081Y-98038089D01*
X251537049Y-97758121D01*
X251757019Y-97428912D01*
X251908537Y-97063116D01*
X251985780Y-96674788D01*
X251985780Y-96278852D01*
X251908537Y-95890524D01*
X251757019Y-95524728D01*
X251537049Y-95195519D01*
X251257081Y-94915551D01*
X250927872Y-94695581D01*
X250562076Y-94544063D01*
X250173748Y-94466820D01*
X249880430Y-94466820D01*
X249982569Y-94364681D01*
X250202539Y-94035472D01*
X250354057Y-93669676D01*
X250431300Y-93281348D01*
X250431300Y-92885412D01*
X250354057Y-92497084D01*
X250202539Y-92131288D01*
X249982569Y-91802079D01*
X249702601Y-91522111D01*
X249373392Y-91302141D01*
X249007596Y-91150623D01*
X248619268Y-91073380D01*
X248223332Y-91073380D01*
X247835004Y-91150623D01*
X247469208Y-91302141D01*
X247320051Y-91401804D01*
X247455917Y-91073796D01*
X247533160Y-90685468D01*
X247533160Y-90289532D01*
X247455917Y-89901204D01*
X247304399Y-89535408D01*
X247084429Y-89206199D01*
X246804461Y-88926231D01*
X246475252Y-88706261D01*
X246109456Y-88554743D01*
X245721128Y-88477500D01*
X245325192Y-88477500D01*
X244936864Y-88554743D01*
X244571068Y-88706261D01*
X244241859Y-88926231D01*
X243961891Y-89206199D01*
X243847620Y-89377218D01*
X243847620Y-89255752D01*
X243770377Y-88867424D01*
X243618859Y-88501628D01*
X243398889Y-88172419D01*
X243118921Y-87892451D01*
X242789712Y-87672481D01*
X242423916Y-87520963D01*
X242035588Y-87443720D01*
X241639652Y-87443720D01*
X241251324Y-87520963D01*
X240885528Y-87672481D01*
X240556319Y-87892451D01*
X240276351Y-88172419D01*
X240056381Y-88501628D01*
X239904863Y-88867424D01*
X239859883Y-89093553D01*
X239854579Y-89080748D01*
X239634609Y-88751539D01*
X239354641Y-88471571D01*
X239025432Y-88251601D01*
X238659636Y-88100083D01*
X238271308Y-88022840D01*
X237875372Y-88022840D01*
X237487044Y-88100083D01*
X237121248Y-88251601D01*
X236792039Y-88471571D01*
X236512071Y-88751539D01*
X236292101Y-89080748D01*
X236140583Y-89446544D01*
X236063340Y-89834872D01*
X236063340Y-90230808D01*
X236106915Y-90449874D01*
X235865672Y-90288681D01*
X235499876Y-90137163D01*
X235111548Y-90059920D01*
X234715612Y-90059920D01*
X234327284Y-90137163D01*
X233961488Y-90288681D01*
X233632279Y-90508651D01*
X233352311Y-90788619D01*
X233132341Y-91117828D01*
X232980823Y-91483624D01*
X232903580Y-91871952D01*
X232903580Y-92267888D01*
X232980823Y-92656216D01*
X233132341Y-93022012D01*
X233320430Y-93303507D01*
X232937308Y-93227300D01*
X232541372Y-93227300D01*
X232153044Y-93304543D01*
X231787248Y-93456061D01*
X231458039Y-93676031D01*
X231178071Y-93955999D01*
X230958101Y-94285208D01*
X230879362Y-94475300D01*
X226491122Y-94475300D01*
X226453699Y-94471614D01*
X226416276Y-94475300D01*
X226416274Y-94475300D01*
X226304322Y-94486326D01*
X226160685Y-94529898D01*
X226028308Y-94600655D01*
X225912278Y-94695878D01*
X225888421Y-94724948D01*
X217805000Y-102808370D01*
X217805000Y-95668423D01*
X217808686Y-95631000D01*
X217804837Y-95591922D01*
X217793974Y-95481622D01*
X217750402Y-95337985D01*
X217699663Y-95243059D01*
X217679645Y-95205607D01*
X217644857Y-95163219D01*
X217584422Y-95089578D01*
X217555347Y-95065717D01*
X216435663Y-93946033D01*
X216411801Y-93916957D01*
X216295771Y-93821734D01*
X216163394Y-93750977D01*
X216019757Y-93707405D01*
X215907805Y-93696379D01*
X215907802Y-93696379D01*
X215870379Y-93692693D01*
X215832956Y-93696379D01*
X215342996Y-93696379D01*
X215354057Y-93669676D01*
X215431300Y-93281348D01*
X215431300Y-92885412D01*
X215354057Y-92497084D01*
X215202539Y-92131288D01*
X214982569Y-91802079D01*
X214702601Y-91522111D01*
X214373392Y-91302141D01*
X214007596Y-91150623D01*
X213619268Y-91073380D01*
X213223332Y-91073380D01*
X212835004Y-91150623D01*
X212469208Y-91302141D01*
X212320051Y-91401804D01*
X212455917Y-91073796D01*
X212533160Y-90685468D01*
X212533160Y-90289532D01*
X212455917Y-89901204D01*
X212304399Y-89535408D01*
X212084429Y-89206199D01*
X211804461Y-88926231D01*
X211475252Y-88706261D01*
X211109456Y-88554743D01*
X210721128Y-88477500D01*
X210325192Y-88477500D01*
X209936864Y-88554743D01*
X209571068Y-88706261D01*
X209241859Y-88926231D01*
X208961891Y-89206199D01*
X208847620Y-89377218D01*
X208847620Y-89255752D01*
X208770377Y-88867424D01*
X208618859Y-88501628D01*
X208398889Y-88172419D01*
X208118921Y-87892451D01*
X207789712Y-87672481D01*
X207423916Y-87520963D01*
X207035588Y-87443720D01*
X206639652Y-87443720D01*
X206251324Y-87520963D01*
X205885528Y-87672481D01*
X205556319Y-87892451D01*
X205276351Y-88172419D01*
X205056381Y-88501628D01*
X204904863Y-88867424D01*
X204859883Y-89093553D01*
X204854579Y-89080748D01*
X204634609Y-88751539D01*
X204354641Y-88471571D01*
X204025432Y-88251601D01*
X203659636Y-88100083D01*
X203271308Y-88022840D01*
X202875372Y-88022840D01*
X202487044Y-88100083D01*
X202121248Y-88251601D01*
X201792039Y-88471571D01*
X201512071Y-88751539D01*
X201292101Y-89080748D01*
X201140583Y-89446544D01*
X201063340Y-89834872D01*
X201063340Y-90230808D01*
X201106915Y-90449874D01*
X200865672Y-90288681D01*
X200499876Y-90137163D01*
X200111548Y-90059920D01*
X199715612Y-90059920D01*
X199327284Y-90137163D01*
X198961488Y-90288681D01*
X198632279Y-90508651D01*
X198352311Y-90788619D01*
X198132341Y-91117828D01*
X197980823Y-91483624D01*
X197903580Y-91871952D01*
X197903580Y-92267888D01*
X197980823Y-92656216D01*
X198132341Y-93022012D01*
X198320430Y-93303507D01*
X197937308Y-93227300D01*
X197541372Y-93227300D01*
X197153044Y-93304543D01*
X196787248Y-93456061D01*
X196458039Y-93676031D01*
X196178071Y-93955999D01*
X195958101Y-94285208D01*
X195806583Y-94651004D01*
X195729340Y-95039332D01*
X195729340Y-95435268D01*
X195806583Y-95823596D01*
X195885322Y-96013688D01*
X191664049Y-100234961D01*
X191634979Y-100258818D01*
X191611122Y-100287888D01*
X191611121Y-100287889D01*
X191539755Y-100374848D01*
X191468999Y-100507225D01*
X191425427Y-100650862D01*
X191410714Y-100800240D01*
X191414401Y-100837673D01*
X191414400Y-109877857D01*
X191388579Y-109916501D01*
X191321564Y-110078288D01*
X191287400Y-110250041D01*
X181103276Y-110250041D01*
X181033704Y-110180469D01*
X180888099Y-110083179D01*
X180726312Y-110016164D01*
X180680728Y-110007097D01*
X178789259Y-108115628D01*
X178881499Y-108077421D01*
X179027104Y-107980131D01*
X179150931Y-107856304D01*
X179248221Y-107710699D01*
X179315236Y-107548912D01*
X179349400Y-107377159D01*
X179349400Y-107202041D01*
X179315236Y-107030288D01*
X179248221Y-106868501D01*
X179222400Y-106829857D01*
X179222400Y-101439755D01*
X179261841Y-101447600D01*
X179436959Y-101447600D01*
X179608712Y-101413436D01*
X179770499Y-101346421D01*
X179916104Y-101249131D01*
X180039931Y-101125304D01*
X180137221Y-100979699D01*
X180204236Y-100817912D01*
X180238400Y-100646159D01*
X180238400Y-100471041D01*
X180204236Y-100299288D01*
X180137221Y-100137501D01*
X180039931Y-99991896D01*
X179959000Y-99910965D01*
X179959000Y-94930631D01*
X182908044Y-97879675D01*
X182916426Y-97964777D01*
X182959998Y-98108414D01*
X182959999Y-98108415D01*
X183030755Y-98240792D01*
X183060323Y-98276820D01*
X183125978Y-98356822D01*
X183155054Y-98380684D01*
X183470545Y-98696175D01*
X183448487Y-98768889D01*
X183419815Y-99060000D01*
X183448487Y-99351111D01*
X183533401Y-99631034D01*
X183671294Y-99889014D01*
X183856866Y-100115134D01*
X184082986Y-100300706D01*
X184340966Y-100438599D01*
X184620889Y-100523513D01*
X184839050Y-100545000D01*
X184984950Y-100545000D01*
X185203111Y-100523513D01*
X185483034Y-100438599D01*
X185741014Y-100300706D01*
X185967134Y-100115134D01*
X185991607Y-100085313D01*
X186012498Y-100154180D01*
X186071463Y-100264494D01*
X186150815Y-100361185D01*
X186247506Y-100440537D01*
X186357820Y-100499502D01*
X186477518Y-100535812D01*
X186602000Y-100548072D01*
X188302000Y-100548072D01*
X188426482Y-100535812D01*
X188546180Y-100499502D01*
X188656494Y-100440537D01*
X188753185Y-100361185D01*
X188832537Y-100264494D01*
X188891502Y-100154180D01*
X188927812Y-100034482D01*
X188940072Y-99910000D01*
X188940072Y-98210000D01*
X188927812Y-98085518D01*
X188891502Y-97965820D01*
X188832537Y-97855506D01*
X188778778Y-97790000D01*
X188832537Y-97724494D01*
X188891502Y-97614180D01*
X188927812Y-97494482D01*
X188940072Y-97370000D01*
X188940072Y-95670000D01*
X188927812Y-95545518D01*
X188891502Y-95425820D01*
X188832537Y-95315506D01*
X188753185Y-95218815D01*
X188656494Y-95139463D01*
X188546180Y-95080498D01*
X188426482Y-95044188D01*
X188302000Y-95031928D01*
X186602000Y-95031928D01*
X186477518Y-95044188D01*
X186357820Y-95080498D01*
X186247506Y-95139463D01*
X186150815Y-95218815D01*
X186071463Y-95315506D01*
X186012498Y-95425820D01*
X185991607Y-95494687D01*
X185967134Y-95464866D01*
X185741014Y-95279294D01*
X185483034Y-95141401D01*
X185203111Y-95056487D01*
X184984950Y-95035000D01*
X184839050Y-95035000D01*
X184620889Y-95056487D01*
X184340966Y-95141401D01*
X184082986Y-95279294D01*
X183856866Y-95464866D01*
X183712909Y-95640278D01*
X173793284Y-85720654D01*
X173769422Y-85691578D01*
X173653392Y-85596355D01*
X173521015Y-85525598D01*
X173377378Y-85482026D01*
X173265426Y-85471000D01*
X173265423Y-85471000D01*
X173228000Y-85467314D01*
X173190577Y-85471000D01*
X126021423Y-85471000D01*
X125984000Y-85467314D01*
X125946577Y-85471000D01*
X125946574Y-85471000D01*
X125834622Y-85482026D01*
X125690985Y-85525598D01*
X125629364Y-85558535D01*
X125558607Y-85596355D01*
X125516219Y-85631143D01*
X125442578Y-85691578D01*
X125418716Y-85720654D01*
X113883072Y-97256298D01*
X113883072Y-95670000D01*
X113870812Y-95545518D01*
X113834502Y-95425820D01*
X113775537Y-95315506D01*
X113696185Y-95218815D01*
X113599494Y-95139463D01*
X113489180Y-95080498D01*
X113369482Y-95044188D01*
X113245000Y-95031928D01*
X111545000Y-95031928D01*
X111420518Y-95044188D01*
X111300820Y-95080498D01*
X111190506Y-95139463D01*
X111093815Y-95218815D01*
X111014463Y-95315506D01*
X110955498Y-95425820D01*
X110934607Y-95494687D01*
X110910134Y-95464866D01*
X110684014Y-95279294D01*
X110426034Y-95141401D01*
X110146111Y-95056487D01*
X109927950Y-95035000D01*
X109782050Y-95035000D01*
X109563889Y-95056487D01*
X109283966Y-95141401D01*
X109025986Y-95279294D01*
X108799866Y-95464866D01*
X108614294Y-95690986D01*
X108476401Y-95948966D01*
X108391487Y-96228889D01*
X108362815Y-96520000D01*
X108391487Y-96811111D01*
X108413545Y-96883825D01*
X107844049Y-97453321D01*
X107814979Y-97477178D01*
X107791122Y-97506248D01*
X107791121Y-97506249D01*
X107719755Y-97593208D01*
X107648999Y-97725585D01*
X107605427Y-97869222D01*
X107590714Y-98018600D01*
X104267000Y-98018600D01*
X104267000Y-96367600D01*
X104379959Y-96367600D01*
X104551712Y-96333436D01*
X104713499Y-96266421D01*
X104859104Y-96169131D01*
X104982931Y-96045304D01*
X105080221Y-95899699D01*
X105147236Y-95737912D01*
X105181400Y-95566159D01*
X105181400Y-95391041D01*
X105147236Y-95219288D01*
X105080221Y-95057501D01*
X105054400Y-95018857D01*
X105054400Y-93407822D01*
X105058086Y-93370399D01*
X105051742Y-93305985D01*
X105043374Y-93221022D01*
X104999802Y-93077385D01*
X104929045Y-92945008D01*
X104833822Y-92828978D01*
X104804753Y-92805122D01*
X98228284Y-86228654D01*
X98204422Y-86199578D01*
X98088392Y-86104355D01*
X97956015Y-86033598D01*
X97812378Y-85990026D01*
X97700426Y-85979000D01*
X97700423Y-85979000D01*
X97663000Y-85975314D01*
X97625577Y-85979000D01*
X87286422Y-85979000D01*
X87248999Y-85975314D01*
X87211576Y-85979000D01*
X87211574Y-85979000D01*
X87099622Y-85990026D01*
X86955985Y-86033598D01*
X86823608Y-86104355D01*
X86707578Y-86199578D01*
X86683721Y-86228648D01*
X82226994Y-90685376D01*
X82197918Y-90709238D01*
X82160143Y-90755268D01*
X82102695Y-90825268D01*
X82069354Y-90887645D01*
X82031938Y-90957646D01*
X81988366Y-91101283D01*
X81977340Y-91213234D01*
X81973654Y-91250660D01*
X81977340Y-91288083D01*
X81977341Y-93377322D01*
X81787248Y-93456061D01*
X81458039Y-93676031D01*
X81178071Y-93955999D01*
X80958101Y-94285208D01*
X80806583Y-94651004D01*
X80729340Y-95039332D01*
X80729340Y-95435268D01*
X80806583Y-95823596D01*
X80958101Y-96189392D01*
X81178071Y-96518601D01*
X81458039Y-96798569D01*
X81787248Y-97018539D01*
X82153044Y-97170057D01*
X82541372Y-97247300D01*
X82937308Y-97247300D01*
X83325636Y-97170057D01*
X83691432Y-97018539D01*
X84020641Y-96798569D01*
X84300609Y-96518601D01*
X84520579Y-96189392D01*
X84672097Y-95823596D01*
X84749340Y-95435268D01*
X84749340Y-95039332D01*
X84672097Y-94651004D01*
X84520579Y-94285208D01*
X84332490Y-94003713D01*
X84715612Y-94079920D01*
X85111548Y-94079920D01*
X85499876Y-94002677D01*
X85865672Y-93851159D01*
X86194881Y-93631189D01*
X86474849Y-93351221D01*
X86694819Y-93022012D01*
X86846337Y-92656216D01*
X86923580Y-92267888D01*
X86923580Y-91871952D01*
X86880005Y-91652886D01*
X87121248Y-91814079D01*
X87487044Y-91965597D01*
X87875372Y-92042840D01*
X88271308Y-92042840D01*
X88659636Y-91965597D01*
X89025432Y-91814079D01*
X89354641Y-91594109D01*
X89634609Y-91314141D01*
X89854579Y-90984932D01*
X90006097Y-90619136D01*
X90051077Y-90393007D01*
X90056381Y-90405812D01*
X90276351Y-90735021D01*
X90556319Y-91014989D01*
X90885528Y-91234959D01*
X91251324Y-91386477D01*
X91639652Y-91463720D01*
X92035588Y-91463720D01*
X92423916Y-91386477D01*
X92789712Y-91234959D01*
X93118921Y-91014989D01*
X93398889Y-90735021D01*
X93513160Y-90564002D01*
X93513160Y-90685468D01*
X93590403Y-91073796D01*
X93741921Y-91439592D01*
X93961891Y-91768801D01*
X94241859Y-92048769D01*
X94571068Y-92268739D01*
X94936864Y-92420257D01*
X95325192Y-92497500D01*
X95721128Y-92497500D01*
X96109456Y-92420257D01*
X96475252Y-92268739D01*
X96624409Y-92169076D01*
X96488543Y-92497084D01*
X96411300Y-92885412D01*
X96411300Y-93281348D01*
X96488543Y-93669676D01*
X96640061Y-94035472D01*
X96860031Y-94364681D01*
X97139999Y-94644649D01*
X97469208Y-94864619D01*
X97835004Y-95016137D01*
X98223332Y-95093380D01*
X98516650Y-95093380D01*
X98414511Y-95195519D01*
X98194541Y-95524728D01*
X98043023Y-95890524D01*
X97965780Y-96278852D01*
X97965780Y-96674788D01*
X98043023Y-97063116D01*
X98194541Y-97428912D01*
X98414511Y-97758121D01*
X98694479Y-98038089D01*
X99023688Y-98258059D01*
X99311043Y-98377086D01*
X99000828Y-98505581D01*
X98671619Y-98725551D01*
X98391651Y-99005519D01*
X98171681Y-99334728D01*
X98020163Y-99700524D01*
X97942920Y-100088852D01*
X97942920Y-100484788D01*
X98020163Y-100873116D01*
X98171681Y-101238912D01*
X98391651Y-101568121D01*
X98627492Y-101803962D01*
X98606568Y-101799800D01*
X98210632Y-101799800D01*
X97822304Y-101877043D01*
X97456508Y-102028561D01*
X97127299Y-102248531D01*
X96847331Y-102528499D01*
X96627361Y-102857708D01*
X96475843Y-103223504D01*
X96398600Y-103611832D01*
X96398600Y-104007768D01*
X96475843Y-104396096D01*
X96577787Y-104642210D01*
X96437152Y-104548241D01*
X96071356Y-104396723D01*
X95683028Y-104319480D01*
X95287092Y-104319480D01*
X94898764Y-104396723D01*
X94532968Y-104548241D01*
X94203759Y-104768211D01*
X93923791Y-105048179D01*
X93703821Y-105377388D01*
X93552303Y-105743184D01*
X93475060Y-106131512D01*
X93475060Y-106208709D01*
X93414129Y-106117519D01*
X93134161Y-105837551D01*
X92804952Y-105617581D01*
X92439156Y-105466063D01*
X92050828Y-105388820D01*
X91654892Y-105388820D01*
X91266564Y-105466063D01*
X90900768Y-105617581D01*
X90571559Y-105837551D01*
X90291591Y-106117519D01*
X90071621Y-106446728D01*
X90071161Y-106447839D01*
X90039117Y-106286744D01*
X89887599Y-105920948D01*
X89667629Y-105591739D01*
X89387661Y-105311771D01*
X89058452Y-105091801D01*
X88692656Y-104940283D01*
X88304328Y-104863040D01*
X87908392Y-104863040D01*
X87520064Y-104940283D01*
X87154268Y-105091801D01*
X86825059Y-105311771D01*
X86789048Y-105347782D01*
X86857540Y-105003448D01*
X86857540Y-104607512D01*
X86780297Y-104219184D01*
X86628779Y-103853388D01*
X86408809Y-103524179D01*
X86128841Y-103244211D01*
X85799632Y-103024241D01*
X85433836Y-102872723D01*
X85045508Y-102795480D01*
X84649572Y-102795480D01*
X84333774Y-102858296D01*
X84364109Y-102827961D01*
X84584079Y-102498752D01*
X84735597Y-102132956D01*
X84812840Y-101744628D01*
X84812840Y-101348692D01*
X84735597Y-100960364D01*
X84584079Y-100594568D01*
X84364109Y-100265359D01*
X84084141Y-99985391D01*
X83754932Y-99765421D01*
X83389136Y-99613903D01*
X83000808Y-99536660D01*
X82604872Y-99536660D01*
X82216544Y-99613903D01*
X81850748Y-99765421D01*
X81521539Y-99985391D01*
X81241571Y-100265359D01*
X81021601Y-100594568D01*
X80870083Y-100960364D01*
X80792840Y-101348692D01*
X80792840Y-101744628D01*
X80870083Y-102132956D01*
X81021601Y-102498752D01*
X81241571Y-102827961D01*
X81521539Y-103107929D01*
X81850748Y-103327899D01*
X82216544Y-103479417D01*
X82604872Y-103556660D01*
X83000808Y-103556660D01*
X83316606Y-103493844D01*
X83286271Y-103524179D01*
X83066301Y-103853388D01*
X82914783Y-104219184D01*
X82837540Y-104607512D01*
X82837540Y-105003448D01*
X82914783Y-105391776D01*
X83066301Y-105757572D01*
X83286271Y-106086781D01*
X83566239Y-106366749D01*
X83895448Y-106586719D01*
X84261244Y-106738237D01*
X84649572Y-106815480D01*
X85045508Y-106815480D01*
X85433836Y-106738237D01*
X85799632Y-106586719D01*
X86128841Y-106366749D01*
X86164852Y-106330738D01*
X86096360Y-106675072D01*
X86096360Y-107071008D01*
X86173603Y-107459336D01*
X86325121Y-107825132D01*
X86545091Y-108154341D01*
X86825059Y-108434309D01*
X87050584Y-108585000D01*
X85659630Y-108585000D01*
X75092368Y-98017738D01*
X87060000Y-98017738D01*
X87060000Y-98832262D01*
X87218906Y-99631135D01*
X87530611Y-100383657D01*
X87983136Y-101060909D01*
X88559091Y-101636864D01*
X89236343Y-102089389D01*
X89988865Y-102401094D01*
X90787738Y-102560000D01*
X91602262Y-102560000D01*
X92401135Y-102401094D01*
X93153657Y-102089389D01*
X93830909Y-101636864D01*
X94406864Y-101060909D01*
X94859389Y-100383657D01*
X95171094Y-99631135D01*
X95330000Y-98832262D01*
X95330000Y-98017738D01*
X95171094Y-97218865D01*
X94859389Y-96466343D01*
X94406864Y-95789091D01*
X93830909Y-95213136D01*
X93153657Y-94760611D01*
X92401135Y-94448906D01*
X91602262Y-94290000D01*
X90787738Y-94290000D01*
X89988865Y-94448906D01*
X89236343Y-94760611D01*
X88559091Y-95213136D01*
X87983136Y-95789091D01*
X87530611Y-96466343D01*
X87218906Y-97218865D01*
X87060000Y-98017738D01*
X75092368Y-98017738D01*
X63557284Y-86482654D01*
X63533422Y-86453578D01*
X63417392Y-86358355D01*
X63285015Y-86287598D01*
X63141378Y-86244026D01*
X63029426Y-86233000D01*
X63029423Y-86233000D01*
X62992000Y-86229314D01*
X62954577Y-86233000D01*
X51980423Y-86233000D01*
X51943000Y-86229314D01*
X51905577Y-86233000D01*
X51905574Y-86233000D01*
X51793622Y-86244026D01*
X51649985Y-86287598D01*
X51621692Y-86302721D01*
X51517607Y-86358355D01*
X51434904Y-86426228D01*
X51401578Y-86453578D01*
X51377721Y-86482648D01*
X47226989Y-90633381D01*
X47197919Y-90657238D01*
X47174062Y-90686308D01*
X47174061Y-90686309D01*
X47102695Y-90773268D01*
X47031939Y-90905645D01*
X46988367Y-91049282D01*
X46973654Y-91198660D01*
X46977341Y-91236093D01*
X46977340Y-93377322D01*
X46787248Y-93456061D01*
X46458039Y-93676031D01*
X46178071Y-93955999D01*
X45958101Y-94285208D01*
X45806583Y-94651004D01*
X45729340Y-95039332D01*
X36975000Y-95039332D01*
X36975000Y-76935000D01*
X260505000Y-76935000D01*
X260505001Y-103185550D01*
X260505001Y-103185550D01*
G37*
X260505001Y-103185550D02*
X260429634Y-105103766D01*
X260205698Y-106995793D01*
X259834006Y-108864413D01*
X259316846Y-110698124D01*
X258657410Y-112485602D01*
X257859769Y-114215819D01*
X256928825Y-115878140D01*
X255870340Y-117462273D01*
X254690816Y-118958493D01*
X253397546Y-120357546D01*
X251998493Y-121650816D01*
X250502273Y-122830340D01*
X248918140Y-123888825D01*
X247255813Y-124819772D01*
X245525602Y-125617410D01*
X243738124Y-126276846D01*
X241904413Y-126794006D01*
X240035791Y-127165699D01*
X238143765Y-127389634D01*
X236225575Y-127465000D01*
X61254425Y-127465000D01*
X59336234Y-127389634D01*
X57444207Y-127165698D01*
X55575587Y-126794006D01*
X53741876Y-126276846D01*
X51954398Y-125617410D01*
X50224181Y-124819769D01*
X48561860Y-123888825D01*
X47004818Y-122848441D01*
X115697000Y-122848441D01*
X115697000Y-123023559D01*
X115731164Y-123195312D01*
X115798179Y-123357099D01*
X115895469Y-123502704D01*
X116019296Y-123626531D01*
X116164901Y-123723821D01*
X116326688Y-123790836D01*
X116498441Y-123825000D01*
X116673559Y-123825000D01*
X116845312Y-123790836D01*
X117007099Y-123723821D01*
X117152704Y-123626531D01*
X117276531Y-123502704D01*
X117373821Y-123357099D01*
X117440836Y-123195312D01*
X117458823Y-123104886D01*
X125019110Y-115544600D01*
X135599817Y-115544600D01*
X135636000Y-115548164D01*
X135672183Y-115544600D01*
X135672186Y-115544600D01*
X135780399Y-115533942D01*
X135919249Y-115491822D01*
X136047213Y-115423424D01*
X136159375Y-115331375D01*
X136182446Y-115303263D01*
X142907111Y-108578599D01*
X142946818Y-108578599D01*
X142983001Y-108582163D01*
X143019184Y-108578599D01*
X143019187Y-108578599D01*
X143127400Y-108567941D01*
X143266250Y-108525821D01*
X143394214Y-108457423D01*
X143506376Y-108365374D01*
X143529447Y-108337262D01*
X143551886Y-108314823D01*
X143642312Y-108296836D01*
X143804099Y-108229821D01*
X143949704Y-108132531D01*
X144073531Y-108008704D01*
X144170821Y-107863099D01*
X144237836Y-107701312D01*
X144272000Y-107529559D01*
X144272000Y-107354441D01*
X144237836Y-107182688D01*
X144170821Y-107020901D01*
X144073531Y-106875296D01*
X143949704Y-106751469D01*
X143887083Y-106709627D01*
X146075400Y-104521310D01*
X146075401Y-111723807D01*
X146071836Y-111760000D01*
X146086059Y-111904398D01*
X146124965Y-112032653D01*
X146128179Y-112043249D01*
X146131819Y-112050059D01*
X146196576Y-112171212D01*
X146244460Y-112229558D01*
X146288626Y-112283375D01*
X146316732Y-112306441D01*
X146918722Y-112908431D01*
X146875966Y-112921401D01*
X146617986Y-113059294D01*
X146391866Y-113244866D01*
X146206294Y-113470986D01*
X146171799Y-113535523D01*
X146102178Y-113418645D01*
X145907269Y-113202412D01*
X145673920Y-113028359D01*
X145411099Y-112903175D01*
X145263890Y-112858524D01*
X145034000Y-112979845D01*
X145034000Y-114173000D01*
X145054000Y-114173000D01*
X145054000Y-114427000D01*
X145034000Y-114427000D01*
X145034000Y-114447000D01*
X144780000Y-114447000D01*
X144780000Y-114427000D01*
X144760000Y-114427000D01*
X144760000Y-114173000D01*
X144780000Y-114173000D01*
X144780000Y-112979845D01*
X144550110Y-112858524D01*
X144402901Y-112903175D01*
X144140080Y-113028359D01*
X143906731Y-113202412D01*
X143711822Y-113418645D01*
X143642201Y-113535523D01*
X143607706Y-113470986D01*
X143422134Y-113244866D01*
X143196014Y-113059294D01*
X142938034Y-112921401D01*
X142658111Y-112836487D01*
X142439950Y-112815000D01*
X142294050Y-112815000D01*
X142075889Y-112836487D01*
X141795966Y-112921401D01*
X141537986Y-113059294D01*
X141311866Y-113244866D01*
X141126294Y-113470986D01*
X140988401Y-113728966D01*
X140903487Y-114008889D01*
X140874815Y-114300000D01*
X140903487Y-114591111D01*
X140988401Y-114871034D01*
X141126294Y-115129014D01*
X141311866Y-115355134D01*
X141341687Y-115379607D01*
X141272820Y-115400498D01*
X141162506Y-115459463D01*
X141065815Y-115538815D01*
X140986463Y-115635506D01*
X140927498Y-115745820D01*
X140891188Y-115865518D01*
X140878928Y-115990000D01*
X140882000Y-116554250D01*
X141040750Y-116713000D01*
X142240000Y-116713000D01*
X142240000Y-116693000D01*
X142494000Y-116693000D01*
X142494000Y-116713000D01*
X142514000Y-116713000D01*
X142514000Y-116967000D01*
X142494000Y-116967000D01*
X142494000Y-118166250D01*
X142652750Y-118325000D01*
X143217000Y-118328072D01*
X143341482Y-118315812D01*
X143461180Y-118279502D01*
X143571494Y-118220537D01*
X143668185Y-118141185D01*
X143747537Y-118044494D01*
X143806502Y-117934180D01*
X143827393Y-117865313D01*
X143851866Y-117895134D01*
X144077986Y-118080706D01*
X144335966Y-118218599D01*
X144615889Y-118303513D01*
X144834050Y-118325000D01*
X144979950Y-118325000D01*
X145198111Y-118303513D01*
X145478034Y-118218599D01*
X145736014Y-118080706D01*
X145962134Y-117895134D01*
X146147706Y-117669014D01*
X146182201Y-117604477D01*
X146251822Y-117721355D01*
X146446731Y-117937588D01*
X146680080Y-118111641D01*
X146942901Y-118236825D01*
X147090110Y-118281476D01*
X147320000Y-118160155D01*
X147320000Y-116967000D01*
X147300000Y-116967000D01*
X147300000Y-116713000D01*
X147320000Y-116713000D01*
X147320000Y-116693000D01*
X147574000Y-116693000D01*
X147574000Y-116713000D01*
X147594000Y-116713000D01*
X147594000Y-116967000D01*
X147574000Y-116967000D01*
X147574000Y-118160155D01*
X147803890Y-118281476D01*
X147951099Y-118236825D01*
X148125916Y-118153558D01*
X148176474Y-118215163D01*
X148200979Y-118245022D01*
X148230049Y-118268879D01*
X148477570Y-118516400D01*
X141275110Y-118516400D01*
X140448710Y-117690000D01*
X140878928Y-117690000D01*
X140891188Y-117814482D01*
X140927498Y-117934180D01*
X140986463Y-118044494D01*
X141065815Y-118141185D01*
X141162506Y-118220537D01*
X141272820Y-118279502D01*
X141392518Y-118315812D01*
X141517000Y-118328072D01*
X142081250Y-118325000D01*
X142240000Y-118166250D01*
X142240000Y-116967000D01*
X141040750Y-116967000D01*
X140882000Y-117125750D01*
X140878928Y-117690000D01*
X140448710Y-117690000D01*
X140191823Y-117433114D01*
X140173836Y-117342688D01*
X140106821Y-117180901D01*
X140009531Y-117035296D01*
X139885704Y-116911469D01*
X139740099Y-116814179D01*
X139578312Y-116747164D01*
X139406559Y-116713000D01*
X139231441Y-116713000D01*
X139059688Y-116747164D01*
X138897901Y-116814179D01*
X138752296Y-116911469D01*
X138628469Y-117035296D01*
X138531179Y-117180901D01*
X138464164Y-117342688D01*
X138430000Y-117514441D01*
X138430000Y-117689559D01*
X138464164Y-117861312D01*
X138531179Y-118023099D01*
X138628469Y-118168704D01*
X138752296Y-118292531D01*
X138897901Y-118389821D01*
X139059688Y-118456836D01*
X139150114Y-118474823D01*
X140423559Y-119748269D01*
X140446625Y-119776375D01*
X140558787Y-119868424D01*
X140686751Y-119936822D01*
X140812280Y-119974901D01*
X140825601Y-119978942D01*
X140970000Y-119993164D01*
X141006186Y-119989600D01*
X157570817Y-119989600D01*
X157607000Y-119993164D01*
X157643183Y-119989600D01*
X157643186Y-119989600D01*
X157751399Y-119978942D01*
X157890249Y-119936822D01*
X158018213Y-119868424D01*
X158130375Y-119776375D01*
X158153445Y-119748264D01*
X158436287Y-119465423D01*
X158526712Y-119447436D01*
X158688499Y-119380421D01*
X158834104Y-119283131D01*
X158957931Y-119159304D01*
X159055221Y-119013699D01*
X159122236Y-118851912D01*
X159156400Y-118680159D01*
X159156400Y-118505041D01*
X159122236Y-118333288D01*
X159055221Y-118171501D01*
X158957931Y-118025896D01*
X158834104Y-117902069D01*
X158799728Y-117879100D01*
X160347657Y-117879100D01*
X160386301Y-117904921D01*
X160548088Y-117971936D01*
X160719841Y-118006100D01*
X160894959Y-118006100D01*
X161066712Y-117971936D01*
X161228499Y-117904921D01*
X161374104Y-117807631D01*
X161497931Y-117683804D01*
X161595221Y-117538199D01*
X161662236Y-117376412D01*
X161696400Y-117204659D01*
X161696400Y-117029541D01*
X161662236Y-116857788D01*
X161595221Y-116696001D01*
X161497931Y-116550396D01*
X161374104Y-116426569D01*
X161228499Y-116329279D01*
X161066712Y-116262264D01*
X160894959Y-116228100D01*
X160719841Y-116228100D01*
X160548088Y-116262264D01*
X160386301Y-116329279D01*
X160347657Y-116355100D01*
X157494323Y-116355100D01*
X157456900Y-116351414D01*
X157419477Y-116355100D01*
X157419474Y-116355100D01*
X157307522Y-116366126D01*
X157163885Y-116409698D01*
X157132322Y-116426569D01*
X157031507Y-116480455D01*
X156987148Y-116516860D01*
X156915478Y-116575678D01*
X156891621Y-116604748D01*
X156548567Y-116947802D01*
X156559185Y-116840000D01*
X156530513Y-116548889D01*
X156445599Y-116268966D01*
X156307706Y-116010986D01*
X156122134Y-115784866D01*
X155896014Y-115599294D01*
X155841209Y-115570000D01*
X155896014Y-115540706D01*
X156122134Y-115355134D01*
X156307706Y-115129014D01*
X156445599Y-114871034D01*
X156530513Y-114591111D01*
X156559185Y-114300000D01*
X156530513Y-114008889D01*
X156445599Y-113728966D01*
X156307706Y-113470986D01*
X156122134Y-113244866D01*
X155896014Y-113059294D01*
X155638034Y-112921401D01*
X155358111Y-112836487D01*
X155139950Y-112815000D01*
X154994050Y-112815000D01*
X154775889Y-112836487D01*
X154578599Y-112896334D01*
X154578599Y-110662309D01*
X157695557Y-113779267D01*
X157718625Y-113807375D01*
X157830787Y-113899424D01*
X157958751Y-113967822D01*
X158094130Y-114008889D01*
X158097601Y-114009942D01*
X158242000Y-114024164D01*
X158278186Y-114020600D01*
X171652891Y-114020600D01*
X175276177Y-117643887D01*
X175294164Y-117734312D01*
X175361179Y-117896099D01*
X175458469Y-118041704D01*
X175582296Y-118165531D01*
X175727901Y-118262821D01*
X175889688Y-118329836D01*
X176061441Y-118364000D01*
X176236559Y-118364000D01*
X176408312Y-118329836D01*
X176570099Y-118262821D01*
X176715704Y-118165531D01*
X176839531Y-118041704D01*
X176936821Y-117896099D01*
X177003836Y-117734312D01*
X177038000Y-117562559D01*
X177038000Y-117387441D01*
X177003836Y-117215688D01*
X176936821Y-117053901D01*
X176839531Y-116908296D01*
X176715704Y-116784469D01*
X176570099Y-116687179D01*
X176408312Y-116620164D01*
X176317887Y-116602177D01*
X173228309Y-113512600D01*
X173557891Y-113512600D01*
X174006177Y-113960887D01*
X174024164Y-114051312D01*
X174091179Y-114213099D01*
X174188469Y-114358704D01*
X174312296Y-114482531D01*
X174457901Y-114579821D01*
X174619688Y-114646836D01*
X174791441Y-114681000D01*
X174966559Y-114681000D01*
X175138312Y-114646836D01*
X175300099Y-114579821D01*
X175445704Y-114482531D01*
X175558263Y-114369972D01*
X178587400Y-117399110D01*
X178587401Y-119898242D01*
X178536179Y-119974901D01*
X178469164Y-120136688D01*
X178435000Y-120308441D01*
X178435000Y-120483559D01*
X178469164Y-120655312D01*
X178536179Y-120817099D01*
X178633469Y-120962704D01*
X178757296Y-121086531D01*
X178902901Y-121183821D01*
X179064688Y-121250836D01*
X179236441Y-121285000D01*
X179411559Y-121285000D01*
X179583312Y-121250836D01*
X179745099Y-121183821D01*
X179890704Y-121086531D01*
X180014531Y-120962704D01*
X180111821Y-120817099D01*
X180178836Y-120655312D01*
X180213000Y-120483559D01*
X180213000Y-120308441D01*
X180178836Y-120136688D01*
X180111821Y-119974901D01*
X180060600Y-119898243D01*
X180060600Y-117130183D01*
X180064164Y-117093999D01*
X180060378Y-117055558D01*
X180049942Y-116949601D01*
X180007822Y-116810751D01*
X179965725Y-116731992D01*
X179939424Y-116682786D01*
X179870442Y-116598732D01*
X179870437Y-116598727D01*
X179847374Y-116570625D01*
X179819273Y-116547564D01*
X174663446Y-111391737D01*
X174640375Y-111363625D01*
X174528213Y-111271576D01*
X174400249Y-111203178D01*
X174261399Y-111161058D01*
X174153186Y-111150400D01*
X174153183Y-111150400D01*
X174117000Y-111146836D01*
X174080817Y-111150400D01*
X159436109Y-111150400D01*
X151240823Y-102955114D01*
X151222836Y-102864688D01*
X151155821Y-102702901D01*
X151058531Y-102557296D01*
X150934704Y-102433469D01*
X150789099Y-102336179D01*
X150627312Y-102269164D01*
X150536886Y-102251177D01*
X150514447Y-102228738D01*
X150491376Y-102200626D01*
X150379214Y-102108577D01*
X150251250Y-102040179D01*
X150112400Y-101998059D01*
X150004187Y-101987401D01*
X150004184Y-101987401D01*
X149968001Y-101983837D01*
X149931818Y-101987401D01*
X146867185Y-101987401D01*
X146830999Y-101983837D01*
X146794813Y-101987401D01*
X146686600Y-101998059D01*
X146547750Y-102040179D01*
X146454465Y-102090041D01*
X146419786Y-102108577D01*
X146356155Y-102160798D01*
X146307624Y-102200626D01*
X146284558Y-102228732D01*
X144166242Y-104347048D01*
X144073531Y-104208296D01*
X143949704Y-104084469D01*
X143804099Y-103987179D01*
X143642312Y-103920164D01*
X143470559Y-103886000D01*
X143295441Y-103886000D01*
X143123688Y-103920164D01*
X142961901Y-103987179D01*
X142816296Y-104084469D01*
X142692469Y-104208296D01*
X142595179Y-104353901D01*
X142528164Y-104515688D01*
X142494000Y-104687441D01*
X142494000Y-104862559D01*
X142528164Y-105034312D01*
X142546269Y-105078021D01*
X134695891Y-112928400D01*
X119877757Y-112928400D01*
X119801099Y-112877179D01*
X119639312Y-112810164D01*
X119467559Y-112776000D01*
X119292441Y-112776000D01*
X119120688Y-112810164D01*
X118958901Y-112877179D01*
X118813296Y-112974469D01*
X118689469Y-113098296D01*
X118592179Y-113243901D01*
X118525164Y-113405688D01*
X118491000Y-113577441D01*
X118491000Y-113752559D01*
X118525164Y-113924312D01*
X118592179Y-114086099D01*
X118689469Y-114231704D01*
X118813296Y-114355531D01*
X118958901Y-114452821D01*
X119120688Y-114519836D01*
X119292441Y-114554000D01*
X119467559Y-114554000D01*
X119639312Y-114519836D01*
X119801099Y-114452821D01*
X119877757Y-114401600D01*
X122935690Y-114401600D01*
X117814114Y-119523177D01*
X117723688Y-119541164D01*
X117561901Y-119608179D01*
X117416296Y-119705469D01*
X117292469Y-119829296D01*
X117195179Y-119974901D01*
X117128164Y-120136688D01*
X117094000Y-120308441D01*
X117094000Y-120483559D01*
X117128164Y-120655312D01*
X117195179Y-120817099D01*
X117292469Y-120962704D01*
X117405028Y-121075263D01*
X116417114Y-122063177D01*
X116326688Y-122081164D01*
X116164901Y-122148179D01*
X116019296Y-122245469D01*
X115895469Y-122369296D01*
X115798179Y-122514901D01*
X115731164Y-122676688D01*
X115697000Y-122848441D01*
X47004818Y-122848441D01*
X46977727Y-122830340D01*
X45481507Y-121650816D01*
X44082454Y-120357546D01*
X42789184Y-118958493D01*
X41609660Y-117462273D01*
X40551175Y-115878140D01*
X39620228Y-114215813D01*
X38822590Y-112485602D01*
X38163154Y-110698124D01*
X37645994Y-108864413D01*
X37274301Y-106995791D01*
X37050366Y-105103765D01*
X36975000Y-103185575D01*
X36975000Y-98017738D01*
X52060000Y-98017738D01*
X52060000Y-98832262D01*
X52218906Y-99631135D01*
X52530611Y-100383657D01*
X52983136Y-101060909D01*
X53559091Y-101636864D01*
X54236343Y-102089389D01*
X54988865Y-102401094D01*
X55787738Y-102560000D01*
X56602262Y-102560000D01*
X57401135Y-102401094D01*
X58153657Y-102089389D01*
X58830909Y-101636864D01*
X59406864Y-101060909D01*
X59859389Y-100383657D01*
X60171094Y-99631135D01*
X60330000Y-98832262D01*
X60330000Y-98017738D01*
X60171094Y-97218865D01*
X59859389Y-96466343D01*
X59406864Y-95789091D01*
X58830909Y-95213136D01*
X58153657Y-94760611D01*
X57401135Y-94448906D01*
X56602262Y-94290000D01*
X55787738Y-94290000D01*
X54988865Y-94448906D01*
X54236343Y-94760611D01*
X53559091Y-95213136D01*
X52983136Y-95789091D01*
X52530611Y-96466343D01*
X52218906Y-97218865D01*
X52060000Y-98017738D01*
X36975000Y-98017738D01*
X36975000Y-95039332D01*
X45729340Y-95039332D01*
X45729340Y-95435268D01*
X45806583Y-95823596D01*
X45958101Y-96189392D01*
X46178071Y-96518601D01*
X46458039Y-96798569D01*
X46787248Y-97018539D01*
X47153044Y-97170057D01*
X47541372Y-97247300D01*
X47937308Y-97247300D01*
X48325636Y-97170057D01*
X48691432Y-97018539D01*
X49020641Y-96798569D01*
X49300609Y-96518601D01*
X49520579Y-96189392D01*
X49672097Y-95823596D01*
X49749340Y-95435268D01*
X49749340Y-95039332D01*
X49672097Y-94651004D01*
X49520579Y-94285208D01*
X49332490Y-94003713D01*
X49715612Y-94079920D01*
X50111548Y-94079920D01*
X50499876Y-94002677D01*
X50865672Y-93851159D01*
X51194881Y-93631189D01*
X51474849Y-93351221D01*
X51694819Y-93022012D01*
X51846337Y-92656216D01*
X51923580Y-92267888D01*
X51923580Y-91871952D01*
X51880005Y-91652886D01*
X52121248Y-91814079D01*
X52487044Y-91965597D01*
X52875372Y-92042840D01*
X53271308Y-92042840D01*
X53659636Y-91965597D01*
X54025432Y-91814079D01*
X54354641Y-91594109D01*
X54634609Y-91314141D01*
X54854579Y-90984932D01*
X55006097Y-90619136D01*
X55051077Y-90393007D01*
X55056381Y-90405812D01*
X55276351Y-90735021D01*
X55556319Y-91014989D01*
X55885528Y-91234959D01*
X56251324Y-91386477D01*
X56639652Y-91463720D01*
X57035588Y-91463720D01*
X57423916Y-91386477D01*
X57789712Y-91234959D01*
X58118921Y-91014989D01*
X58398889Y-90735021D01*
X58513160Y-90564002D01*
X58513160Y-90685468D01*
X58590403Y-91073796D01*
X58741921Y-91439592D01*
X58961891Y-91768801D01*
X59241859Y-92048769D01*
X59571068Y-92268739D01*
X59936864Y-92420257D01*
X60325192Y-92497500D01*
X60721128Y-92497500D01*
X61109456Y-92420257D01*
X61475252Y-92268739D01*
X61624409Y-92169076D01*
X61488543Y-92497084D01*
X61411300Y-92885412D01*
X61411300Y-93281348D01*
X61488543Y-93669676D01*
X61640061Y-94035472D01*
X61860031Y-94364681D01*
X62139999Y-94644649D01*
X62469208Y-94864619D01*
X62835004Y-95016137D01*
X63223332Y-95093380D01*
X63516650Y-95093380D01*
X63414511Y-95195519D01*
X63194541Y-95524728D01*
X63043023Y-95890524D01*
X62965780Y-96278852D01*
X62965780Y-96674788D01*
X63043023Y-97063116D01*
X63194541Y-97428912D01*
X63414511Y-97758121D01*
X63694479Y-98038089D01*
X64023688Y-98258059D01*
X64311043Y-98377086D01*
X64000828Y-98505581D01*
X63671619Y-98725551D01*
X63391651Y-99005519D01*
X63171681Y-99334728D01*
X63020163Y-99700524D01*
X62942920Y-100088852D01*
X62942920Y-100484788D01*
X63020163Y-100873116D01*
X63171681Y-101238912D01*
X63391651Y-101568121D01*
X63627492Y-101803962D01*
X63606568Y-101799800D01*
X63210632Y-101799800D01*
X62822304Y-101877043D01*
X62456508Y-102028561D01*
X62127299Y-102248531D01*
X61847331Y-102528499D01*
X61627361Y-102857708D01*
X61475843Y-103223504D01*
X61398600Y-103611832D01*
X61398600Y-104007768D01*
X61475843Y-104396096D01*
X61577787Y-104642210D01*
X61437152Y-104548241D01*
X61071356Y-104396723D01*
X60683028Y-104319480D01*
X60287092Y-104319480D01*
X59898764Y-104396723D01*
X59532968Y-104548241D01*
X59203759Y-104768211D01*
X58923791Y-105048179D01*
X58703821Y-105377388D01*
X58552303Y-105743184D01*
X58475060Y-106131512D01*
X58475060Y-106208709D01*
X58414129Y-106117519D01*
X58134161Y-105837551D01*
X57804952Y-105617581D01*
X57439156Y-105466063D01*
X57050828Y-105388820D01*
X56654892Y-105388820D01*
X56266564Y-105466063D01*
X55900768Y-105617581D01*
X55571559Y-105837551D01*
X55291591Y-106117519D01*
X55071621Y-106446728D01*
X55071161Y-106447839D01*
X55039117Y-106286744D01*
X54887599Y-105920948D01*
X54667629Y-105591739D01*
X54387661Y-105311771D01*
X54058452Y-105091801D01*
X53692656Y-104940283D01*
X53304328Y-104863040D01*
X52908392Y-104863040D01*
X52520064Y-104940283D01*
X52154268Y-105091801D01*
X51825059Y-105311771D01*
X51789048Y-105347782D01*
X51857540Y-105003448D01*
X51857540Y-104607512D01*
X51780297Y-104219184D01*
X51628779Y-103853388D01*
X51408809Y-103524179D01*
X51128841Y-103244211D01*
X50799632Y-103024241D01*
X50433836Y-102872723D01*
X50045508Y-102795480D01*
X49649572Y-102795480D01*
X49333774Y-102858296D01*
X49364109Y-102827961D01*
X49584079Y-102498752D01*
X49735597Y-102132956D01*
X49812840Y-101744628D01*
X49812840Y-101348692D01*
X49735597Y-100960364D01*
X49584079Y-100594568D01*
X49364109Y-100265359D01*
X49084141Y-99985391D01*
X48754932Y-99765421D01*
X48389136Y-99613903D01*
X48000808Y-99536660D01*
X47604872Y-99536660D01*
X47216544Y-99613903D01*
X46850748Y-99765421D01*
X46521539Y-99985391D01*
X46241571Y-100265359D01*
X46021601Y-100594568D01*
X45870083Y-100960364D01*
X45792840Y-101348692D01*
X45792840Y-101744628D01*
X45870083Y-102132956D01*
X46021601Y-102498752D01*
X46241571Y-102827961D01*
X46521539Y-103107929D01*
X46850748Y-103327899D01*
X47216544Y-103479417D01*
X47604872Y-103556660D01*
X48000808Y-103556660D01*
X48316606Y-103493844D01*
X48286271Y-103524179D01*
X48066301Y-103853388D01*
X47914783Y-104219184D01*
X47837540Y-104607512D01*
X47837540Y-105003448D01*
X47914783Y-105391776D01*
X48066301Y-105757572D01*
X48286271Y-106086781D01*
X48566239Y-106366749D01*
X48895448Y-106586719D01*
X49261244Y-106738237D01*
X49649572Y-106815480D01*
X50045508Y-106815480D01*
X50433836Y-106738237D01*
X50799632Y-106586719D01*
X51128841Y-106366749D01*
X51164852Y-106330738D01*
X51096360Y-106675072D01*
X51096360Y-107071008D01*
X51173603Y-107459336D01*
X51325121Y-107825132D01*
X51545091Y-108154341D01*
X51825059Y-108434309D01*
X52154268Y-108654279D01*
X52520064Y-108805797D01*
X52908392Y-108883040D01*
X53304328Y-108883040D01*
X53692656Y-108805797D01*
X54058452Y-108654279D01*
X54387661Y-108434309D01*
X54667629Y-108154341D01*
X54887599Y-107825132D01*
X54888059Y-107824021D01*
X54920103Y-107985116D01*
X55071621Y-108350912D01*
X55291591Y-108680121D01*
X55571559Y-108960089D01*
X55900768Y-109180059D01*
X56266564Y-109331577D01*
X56654892Y-109408820D01*
X57050828Y-109408820D01*
X57439156Y-109331577D01*
X57804952Y-109180059D01*
X58134161Y-108960089D01*
X58414129Y-108680121D01*
X58634099Y-108350912D01*
X58785617Y-107985116D01*
X58862860Y-107596788D01*
X58862860Y-107519591D01*
X58923791Y-107610781D01*
X59203759Y-107890749D01*
X59532968Y-108110719D01*
X59898764Y-108262237D01*
X60287092Y-108339480D01*
X60683028Y-108339480D01*
X61071356Y-108262237D01*
X61437152Y-108110719D01*
X61766361Y-107890749D01*
X62046329Y-107610781D01*
X62266299Y-107281572D01*
X62417817Y-106915776D01*
X62495060Y-106527448D01*
X62495060Y-106131512D01*
X62417817Y-105743184D01*
X62315873Y-105497070D01*
X62456508Y-105591039D01*
X62822304Y-105742557D01*
X63210632Y-105819800D01*
X63606568Y-105819800D01*
X63994896Y-105742557D01*
X64360692Y-105591039D01*
X64689901Y-105371069D01*
X64969869Y-105091101D01*
X65189839Y-104761892D01*
X65341357Y-104396096D01*
X65418600Y-104007768D01*
X65418600Y-103611832D01*
X65341357Y-103223504D01*
X65189839Y-102857708D01*
X64969869Y-102528499D01*
X64734028Y-102292658D01*
X64754952Y-102296820D01*
X65150888Y-102296820D01*
X65539216Y-102219577D01*
X65905012Y-102068059D01*
X66234221Y-101848089D01*
X66514189Y-101568121D01*
X66734159Y-101238912D01*
X66812898Y-101048820D01*
X72412190Y-101048820D01*
X84914946Y-113551577D01*
X84870164Y-113659688D01*
X84836000Y-113831441D01*
X84836000Y-114006559D01*
X84870164Y-114178312D01*
X84937179Y-114340099D01*
X85034469Y-114485704D01*
X85158296Y-114609531D01*
X85303901Y-114706821D01*
X85465688Y-114773836D01*
X85637441Y-114808000D01*
X85758107Y-114808000D01*
X85759164Y-114813312D01*
X85826179Y-114975099D01*
X85923469Y-115120704D01*
X86047296Y-115244531D01*
X86192901Y-115341821D01*
X86354688Y-115408836D01*
X86526441Y-115443000D01*
X86647107Y-115443000D01*
X86648164Y-115448312D01*
X86715179Y-115610099D01*
X86812469Y-115755704D01*
X86936296Y-115879531D01*
X87081901Y-115976821D01*
X87243688Y-116043836D01*
X87415441Y-116078000D01*
X87590559Y-116078000D01*
X87705129Y-116055210D01*
X87731179Y-116118099D01*
X87828469Y-116263704D01*
X87952296Y-116387531D01*
X88097901Y-116484821D01*
X88259688Y-116551836D01*
X88431441Y-116586000D01*
X88606559Y-116586000D01*
X88778312Y-116551836D01*
X88940099Y-116484821D01*
X89085704Y-116387531D01*
X89209531Y-116263704D01*
X89306821Y-116118099D01*
X89373836Y-115956312D01*
X89408000Y-115784559D01*
X89408000Y-115609441D01*
X89373836Y-115437688D01*
X89306821Y-115275901D01*
X89281000Y-115237257D01*
X89281000Y-113448422D01*
X89284686Y-113410999D01*
X89275964Y-113322442D01*
X89269974Y-113261622D01*
X89226402Y-113117985D01*
X89155645Y-112985608D01*
X89060422Y-112869578D01*
X89031353Y-112845722D01*
X86294631Y-110109000D01*
X98895577Y-110109000D01*
X98933000Y-110112686D01*
X98970423Y-110109000D01*
X98970426Y-110109000D01*
X99082378Y-110097974D01*
X99226015Y-110054402D01*
X99358392Y-109983645D01*
X99474422Y-109888422D01*
X99498284Y-109859346D01*
X99553126Y-109804504D01*
X99598712Y-109795436D01*
X99760499Y-109728421D01*
X99906104Y-109631131D01*
X100029931Y-109507304D01*
X100127221Y-109361699D01*
X100194236Y-109199912D01*
X100228400Y-109028159D01*
X100228400Y-108853041D01*
X100219352Y-108807554D01*
X100360712Y-108779436D01*
X100522499Y-108712421D01*
X100668104Y-108615131D01*
X100672900Y-108610335D01*
X100677696Y-108615131D01*
X100823301Y-108712421D01*
X100985088Y-108779436D01*
X101156841Y-108813600D01*
X101331959Y-108813600D01*
X101503712Y-108779436D01*
X101665499Y-108712421D01*
X101811104Y-108615131D01*
X101815900Y-108610335D01*
X101820696Y-108615131D01*
X101966301Y-108712421D01*
X102128088Y-108779436D01*
X102299841Y-108813600D01*
X102474959Y-108813600D01*
X102646712Y-108779436D01*
X102808499Y-108712421D01*
X102954104Y-108615131D01*
X102958900Y-108610335D01*
X102963696Y-108615131D01*
X103109301Y-108712421D01*
X103271088Y-108779436D01*
X103442841Y-108813600D01*
X103617959Y-108813600D01*
X103789712Y-108779436D01*
X103951499Y-108712421D01*
X104097104Y-108615131D01*
X104220931Y-108491304D01*
X104318221Y-108345699D01*
X104385236Y-108183912D01*
X104419400Y-108012159D01*
X104419400Y-107837041D01*
X104385236Y-107665288D01*
X104318221Y-107503501D01*
X104267000Y-107426843D01*
X104267000Y-98018600D01*
X107590714Y-98018600D01*
X107594401Y-98056033D01*
X107594400Y-99632176D01*
X107590714Y-99669600D01*
X107594400Y-99707023D01*
X107594400Y-99707025D01*
X107605426Y-99818977D01*
X107648998Y-99962614D01*
X107667155Y-99996583D01*
X107719755Y-100094992D01*
X107751118Y-100133208D01*
X107814978Y-100211022D01*
X107844054Y-100234884D01*
X109753401Y-102144232D01*
X109753400Y-107591857D01*
X109727579Y-107630501D01*
X109660564Y-107792288D01*
X109626400Y-107964041D01*
X109626400Y-108139159D01*
X109660564Y-108310912D01*
X109727579Y-108472699D01*
X109824869Y-108618304D01*
X109948696Y-108742131D01*
X110094301Y-108839421D01*
X110256088Y-108906436D01*
X110427841Y-108940600D01*
X110602959Y-108940600D01*
X110774712Y-108906436D01*
X110936499Y-108839421D01*
X111082104Y-108742131D01*
X111205931Y-108618304D01*
X111303221Y-108472699D01*
X111370236Y-108310912D01*
X111396555Y-108178600D01*
X111412245Y-108178600D01*
X111438564Y-108310912D01*
X111505579Y-108472699D01*
X111602869Y-108618304D01*
X111726696Y-108742131D01*
X111872301Y-108839421D01*
X112034088Y-108906436D01*
X112205841Y-108940600D01*
X112380959Y-108940600D01*
X112552712Y-108906436D01*
X112714499Y-108839421D01*
X112860104Y-108742131D01*
X112983931Y-108618304D01*
X113081221Y-108472699D01*
X113148236Y-108310912D01*
X113174555Y-108178600D01*
X113269959Y-108178600D01*
X113441712Y-108144436D01*
X113603499Y-108077421D01*
X113749104Y-107980131D01*
X113872931Y-107856304D01*
X113970221Y-107710699D01*
X114037236Y-107548912D01*
X114071400Y-107377159D01*
X114071400Y-107202041D01*
X114037236Y-107030288D01*
X113970221Y-106868501D01*
X113944400Y-106829857D01*
X113944400Y-102017230D01*
X115091752Y-100869879D01*
X115120822Y-100846022D01*
X115216045Y-100729992D01*
X115283928Y-100602992D01*
X115286801Y-100597617D01*
X115287726Y-100594568D01*
X115330374Y-100453978D01*
X115341400Y-100342026D01*
X115341400Y-100342024D01*
X115345086Y-100304601D01*
X115341400Y-100267178D01*
X115341400Y-98842230D01*
X121977341Y-92206290D01*
X121977340Y-93377322D01*
X121787248Y-93456061D01*
X121458039Y-93676031D01*
X121178071Y-93955999D01*
X120958101Y-94285208D01*
X120806583Y-94651004D01*
X120729340Y-95039332D01*
X120729340Y-95435268D01*
X120806583Y-95823596D01*
X120958101Y-96189392D01*
X121178071Y-96518601D01*
X121458039Y-96798569D01*
X121787248Y-97018539D01*
X122153044Y-97170057D01*
X122541372Y-97247300D01*
X122937308Y-97247300D01*
X123325636Y-97170057D01*
X123691432Y-97018539D01*
X124020641Y-96798569D01*
X124300609Y-96518601D01*
X124520579Y-96189392D01*
X124672097Y-95823596D01*
X124749340Y-95435268D01*
X124749340Y-95039332D01*
X124672097Y-94651004D01*
X124520579Y-94285208D01*
X124332490Y-94003713D01*
X124715612Y-94079920D01*
X125111548Y-94079920D01*
X125499876Y-94002677D01*
X125865672Y-93851159D01*
X126194881Y-93631189D01*
X126474849Y-93351221D01*
X126694819Y-93022012D01*
X126846337Y-92656216D01*
X126923580Y-92267888D01*
X126923580Y-91871952D01*
X126880005Y-91652886D01*
X127121248Y-91814079D01*
X127343201Y-91906015D01*
X127343200Y-94828849D01*
X126217850Y-95954200D01*
X126188780Y-95978057D01*
X126164923Y-96007127D01*
X126164922Y-96007128D01*
X126093556Y-96094087D01*
X126022800Y-96226464D01*
X125979228Y-96370101D01*
X125964515Y-96519479D01*
X125968202Y-96556912D01*
X125968201Y-100346155D01*
X125964515Y-100383578D01*
X125968201Y-100421001D01*
X125968201Y-100421003D01*
X125979227Y-100532955D01*
X126022799Y-100676592D01*
X126039575Y-100707978D01*
X126093556Y-100808970D01*
X126128554Y-100851615D01*
X126188779Y-100925000D01*
X126217855Y-100948862D01*
X130892259Y-105623266D01*
X130571559Y-105837551D01*
X130291591Y-106117519D01*
X130071621Y-106446728D01*
X130071161Y-106447839D01*
X130039117Y-106286744D01*
X129887599Y-105920948D01*
X129667629Y-105591739D01*
X129387661Y-105311771D01*
X129058452Y-105091801D01*
X128692656Y-104940283D01*
X128304328Y-104863040D01*
X127908392Y-104863040D01*
X127520064Y-104940283D01*
X127154268Y-105091801D01*
X126825059Y-105311771D01*
X126789048Y-105347782D01*
X126857540Y-105003448D01*
X126857540Y-104607512D01*
X126780297Y-104219184D01*
X126628779Y-103853388D01*
X126408809Y-103524179D01*
X126128841Y-103244211D01*
X125799632Y-103024241D01*
X125433836Y-102872723D01*
X125045508Y-102795480D01*
X124649572Y-102795480D01*
X124333774Y-102858296D01*
X124364109Y-102827961D01*
X124584079Y-102498752D01*
X124735597Y-102132956D01*
X124812840Y-101744628D01*
X124812840Y-101348692D01*
X124735597Y-100960364D01*
X124584079Y-100594568D01*
X124364109Y-100265359D01*
X124084141Y-99985391D01*
X123754932Y-99765421D01*
X123389136Y-99613903D01*
X123000808Y-99536660D01*
X122604872Y-99536660D01*
X122216544Y-99613903D01*
X121850748Y-99765421D01*
X121521539Y-99985391D01*
X121241571Y-100265359D01*
X121021601Y-100594568D01*
X120870083Y-100960364D01*
X120792840Y-101348692D01*
X120792840Y-101744628D01*
X120870083Y-102132956D01*
X121021601Y-102498752D01*
X121241571Y-102827961D01*
X121521539Y-103107929D01*
X121850748Y-103327899D01*
X122216544Y-103479417D01*
X122604872Y-103556660D01*
X123000808Y-103556660D01*
X123316606Y-103493844D01*
X123286271Y-103524179D01*
X123066301Y-103853388D01*
X122914783Y-104219184D01*
X122837540Y-104607512D01*
X122837540Y-105003448D01*
X122914783Y-105391776D01*
X123066301Y-105757572D01*
X123286271Y-106086781D01*
X123566239Y-106366749D01*
X123895448Y-106586719D01*
X124261244Y-106738237D01*
X124649572Y-106815480D01*
X125045508Y-106815480D01*
X125433836Y-106738237D01*
X125799632Y-106586719D01*
X126128841Y-106366749D01*
X126164852Y-106330738D01*
X126096360Y-106675072D01*
X126096360Y-107071008D01*
X126173603Y-107459336D01*
X126325121Y-107825132D01*
X126545091Y-108154341D01*
X126825059Y-108434309D01*
X127154268Y-108654279D01*
X127520064Y-108805797D01*
X127686987Y-108839000D01*
X125969431Y-108839000D01*
X123063304Y-105932873D01*
X123054236Y-105887288D01*
X122987221Y-105725501D01*
X122889931Y-105579896D01*
X122766104Y-105456069D01*
X122620499Y-105358779D01*
X122458712Y-105291764D01*
X122286959Y-105257600D01*
X122111841Y-105257600D01*
X121940088Y-105291764D01*
X121778301Y-105358779D01*
X121632696Y-105456069D01*
X121508869Y-105579896D01*
X121411579Y-105725501D01*
X121344564Y-105887288D01*
X121310400Y-106059041D01*
X121310400Y-106234159D01*
X121344564Y-106405912D01*
X121411579Y-106567699D01*
X121508869Y-106713304D01*
X121632696Y-106837131D01*
X121778301Y-106934421D01*
X121940088Y-107001436D01*
X121985673Y-107010504D01*
X125088521Y-110113352D01*
X125112378Y-110142422D01*
X125228408Y-110237645D01*
X125360785Y-110308402D01*
X125504422Y-110351974D01*
X125616374Y-110363000D01*
X125616376Y-110363000D01*
X125653799Y-110366686D01*
X125691222Y-110363000D01*
X135598577Y-110363000D01*
X135636000Y-110366686D01*
X135673423Y-110363000D01*
X135673426Y-110363000D01*
X135785378Y-110351974D01*
X135929015Y-110308402D01*
X136061392Y-110237645D01*
X136177422Y-110142422D01*
X136201284Y-110113346D01*
X141840271Y-104474360D01*
X141869341Y-104450503D01*
X141964564Y-104334473D01*
X142035321Y-104202096D01*
X142078893Y-104058459D01*
X142089919Y-103946507D01*
X142089919Y-103946505D01*
X142093605Y-103909082D01*
X142089919Y-103871659D01*
X142089919Y-101699241D01*
X142093605Y-101661818D01*
X142086996Y-101594718D01*
X142078893Y-101512441D01*
X142035321Y-101368804D01*
X141964564Y-101236427D01*
X141869341Y-101120397D01*
X141840272Y-101096541D01*
X141806938Y-101063207D01*
X141885677Y-100873116D01*
X141962920Y-100484788D01*
X141962920Y-100088852D01*
X141885677Y-99700524D01*
X141734159Y-99334728D01*
X141514189Y-99005519D01*
X141234221Y-98725551D01*
X140905012Y-98505581D01*
X140617657Y-98386554D01*
X140927872Y-98258059D01*
X141257081Y-98038089D01*
X141277432Y-98017738D01*
X162060000Y-98017738D01*
X162060000Y-98832262D01*
X162218906Y-99631135D01*
X162530611Y-100383657D01*
X162983136Y-101060909D01*
X163559091Y-101636864D01*
X164236343Y-102089389D01*
X164988865Y-102401094D01*
X165787738Y-102560000D01*
X166602262Y-102560000D01*
X167401135Y-102401094D01*
X168153657Y-102089389D01*
X168830909Y-101636864D01*
X169406864Y-101060909D01*
X169859389Y-100383657D01*
X170171094Y-99631135D01*
X170330000Y-98832262D01*
X170330000Y-98017738D01*
X170171094Y-97218865D01*
X169859389Y-96466343D01*
X169406864Y-95789091D01*
X168830909Y-95213136D01*
X168153657Y-94760611D01*
X167401135Y-94448906D01*
X166602262Y-94290000D01*
X165787738Y-94290000D01*
X164988865Y-94448906D01*
X164236343Y-94760611D01*
X163559091Y-95213136D01*
X162983136Y-95789091D01*
X162530611Y-96466343D01*
X162218906Y-97218865D01*
X162060000Y-98017738D01*
X141277432Y-98017738D01*
X141537049Y-97758121D01*
X141757019Y-97428912D01*
X141908537Y-97063116D01*
X141985780Y-96674788D01*
X141985780Y-96278852D01*
X141908537Y-95890524D01*
X141757019Y-95524728D01*
X141537049Y-95195519D01*
X141257081Y-94915551D01*
X140927872Y-94695581D01*
X140562076Y-94544063D01*
X140173748Y-94466820D01*
X139880430Y-94466820D01*
X139982569Y-94364681D01*
X140202539Y-94035472D01*
X140354057Y-93669676D01*
X140431300Y-93281348D01*
X140431300Y-92885412D01*
X140354057Y-92497084D01*
X140202539Y-92131288D01*
X139982569Y-91802079D01*
X139702601Y-91522111D01*
X139373392Y-91302141D01*
X139346688Y-91291080D01*
X141737768Y-88900000D01*
X157928885Y-88900000D01*
X157987579Y-89041699D01*
X158084869Y-89187304D01*
X158208696Y-89311131D01*
X158354301Y-89408421D01*
X158410620Y-89431750D01*
X157226989Y-90615381D01*
X157197919Y-90639238D01*
X157174062Y-90668308D01*
X157174061Y-90668309D01*
X157102695Y-90755268D01*
X157031939Y-90887645D01*
X156988367Y-91031282D01*
X156973654Y-91180660D01*
X156977341Y-91218093D01*
X156977340Y-93377322D01*
X156787248Y-93456061D01*
X156458039Y-93676031D01*
X156178071Y-93955999D01*
X155958101Y-94285208D01*
X155806583Y-94651004D01*
X155729340Y-95039332D01*
X155729340Y-95435268D01*
X155806583Y-95823596D01*
X155958101Y-96189392D01*
X156178071Y-96518601D01*
X156458039Y-96798569D01*
X156787248Y-97018539D01*
X157153044Y-97170057D01*
X157541372Y-97247300D01*
X157937308Y-97247300D01*
X158325636Y-97170057D01*
X158691432Y-97018539D01*
X159020641Y-96798569D01*
X159300609Y-96518601D01*
X159520579Y-96189392D01*
X159672097Y-95823596D01*
X159749340Y-95435268D01*
X159749340Y-95039332D01*
X159672097Y-94651004D01*
X159520579Y-94285208D01*
X159332490Y-94003713D01*
X159715612Y-94079920D01*
X160111548Y-94079920D01*
X160499876Y-94002677D01*
X160865672Y-93851159D01*
X161194881Y-93631189D01*
X161474849Y-93351221D01*
X161694819Y-93022012D01*
X161846337Y-92656216D01*
X161923580Y-92267888D01*
X161923580Y-91871952D01*
X161880005Y-91652886D01*
X162121248Y-91814079D01*
X162487044Y-91965597D01*
X162875372Y-92042840D01*
X163271308Y-92042840D01*
X163659636Y-91965597D01*
X164025432Y-91814079D01*
X164354641Y-91594109D01*
X164634609Y-91314141D01*
X164854579Y-90984932D01*
X165006097Y-90619136D01*
X165051077Y-90393007D01*
X165056381Y-90405812D01*
X165276351Y-90735021D01*
X165556319Y-91014989D01*
X165885528Y-91234959D01*
X166251324Y-91386477D01*
X166639652Y-91463720D01*
X167035588Y-91463720D01*
X167423916Y-91386477D01*
X167789712Y-91234959D01*
X168118921Y-91014989D01*
X168398889Y-90735021D01*
X168513160Y-90564002D01*
X168513160Y-90685468D01*
X168590403Y-91073796D01*
X168741921Y-91439592D01*
X168961891Y-91768801D01*
X169241859Y-92048769D01*
X169571068Y-92268739D01*
X169936864Y-92420257D01*
X170325192Y-92497500D01*
X170721128Y-92497500D01*
X171109456Y-92420257D01*
X171475252Y-92268739D01*
X171624409Y-92169076D01*
X171488543Y-92497084D01*
X171411300Y-92885412D01*
X171411300Y-93281348D01*
X171488543Y-93669676D01*
X171640061Y-94035472D01*
X171860031Y-94364681D01*
X172139999Y-94644649D01*
X172469208Y-94864619D01*
X172835004Y-95016137D01*
X173223332Y-95093380D01*
X173516650Y-95093380D01*
X173414511Y-95195519D01*
X173194541Y-95524728D01*
X173043023Y-95890524D01*
X172965780Y-96278852D01*
X172965780Y-96674788D01*
X173043023Y-97063116D01*
X173194541Y-97428912D01*
X173414511Y-97758121D01*
X173694479Y-98038089D01*
X174023688Y-98258059D01*
X174311043Y-98377086D01*
X174000828Y-98505581D01*
X173671619Y-98725551D01*
X173391651Y-99005519D01*
X173171681Y-99334728D01*
X173020163Y-99700524D01*
X172942920Y-100088852D01*
X172942920Y-100484788D01*
X173020163Y-100873116D01*
X173171681Y-101238912D01*
X173391651Y-101568121D01*
X173627492Y-101803962D01*
X173606568Y-101799800D01*
X173210632Y-101799800D01*
X172822304Y-101877043D01*
X172456508Y-102028561D01*
X172127299Y-102248531D01*
X171847331Y-102528499D01*
X171627361Y-102857708D01*
X171475843Y-103223504D01*
X171398600Y-103611832D01*
X171398600Y-104007768D01*
X171475843Y-104396096D01*
X171577787Y-104642210D01*
X171437152Y-104548241D01*
X171071356Y-104396723D01*
X170683028Y-104319480D01*
X170287092Y-104319480D01*
X169898764Y-104396723D01*
X169532968Y-104548241D01*
X169203759Y-104768211D01*
X168923791Y-105048179D01*
X168703821Y-105377388D01*
X168552303Y-105743184D01*
X168475060Y-106131512D01*
X168475060Y-106208709D01*
X168414129Y-106117519D01*
X168134161Y-105837551D01*
X167804952Y-105617581D01*
X167439156Y-105466063D01*
X167050828Y-105388820D01*
X166654892Y-105388820D01*
X166266564Y-105466063D01*
X165900768Y-105617581D01*
X165571559Y-105837551D01*
X165291591Y-106117519D01*
X165071621Y-106446728D01*
X165071161Y-106447839D01*
X165039117Y-106286744D01*
X164887599Y-105920948D01*
X164667629Y-105591739D01*
X164387661Y-105311771D01*
X164058452Y-105091801D01*
X163692656Y-104940283D01*
X163304328Y-104863040D01*
X162908392Y-104863040D01*
X162520064Y-104940283D01*
X162154268Y-105091801D01*
X161825059Y-105311771D01*
X161789048Y-105347782D01*
X161857540Y-105003448D01*
X161857540Y-104607512D01*
X161780297Y-104219184D01*
X161628779Y-103853388D01*
X161408809Y-103524179D01*
X161128841Y-103244211D01*
X160799632Y-103024241D01*
X160433836Y-102872723D01*
X160045508Y-102795480D01*
X159649572Y-102795480D01*
X159333774Y-102858296D01*
X159364109Y-102827961D01*
X159584079Y-102498752D01*
X159735597Y-102132956D01*
X159812840Y-101744628D01*
X159812840Y-101348692D01*
X159735597Y-100960364D01*
X159584079Y-100594568D01*
X159364109Y-100265359D01*
X159084141Y-99985391D01*
X158754932Y-99765421D01*
X158389136Y-99613903D01*
X158000808Y-99536660D01*
X157604872Y-99536660D01*
X157216544Y-99613903D01*
X156850748Y-99765421D01*
X156521539Y-99985391D01*
X156241571Y-100265359D01*
X156021601Y-100594568D01*
X155870083Y-100960364D01*
X155792840Y-101348692D01*
X155792840Y-101744628D01*
X155870083Y-102132956D01*
X156021601Y-102498752D01*
X156241571Y-102827961D01*
X156521539Y-103107929D01*
X156850748Y-103327899D01*
X157216544Y-103479417D01*
X157604872Y-103556660D01*
X158000808Y-103556660D01*
X158316606Y-103493844D01*
X158286271Y-103524179D01*
X158066301Y-103853388D01*
X157914783Y-104219184D01*
X157837540Y-104607512D01*
X157837540Y-105003448D01*
X157914783Y-105391776D01*
X158066301Y-105757572D01*
X158286271Y-106086781D01*
X158566239Y-106366749D01*
X158895448Y-106586719D01*
X159261244Y-106738237D01*
X159649572Y-106815480D01*
X160045508Y-106815480D01*
X160433836Y-106738237D01*
X160799632Y-106586719D01*
X161128841Y-106366749D01*
X161164852Y-106330738D01*
X161096360Y-106675072D01*
X161096360Y-107071008D01*
X161173603Y-107459336D01*
X161325121Y-107825132D01*
X161545091Y-108154341D01*
X161825059Y-108434309D01*
X162154268Y-108654279D01*
X162520064Y-108805797D01*
X162908392Y-108883040D01*
X163304328Y-108883040D01*
X163692656Y-108805797D01*
X164058452Y-108654279D01*
X164387661Y-108434309D01*
X164667629Y-108154341D01*
X164887599Y-107825132D01*
X164888059Y-107824021D01*
X164920103Y-107985116D01*
X165071621Y-108350912D01*
X165291591Y-108680121D01*
X165571559Y-108960089D01*
X165900768Y-109180059D01*
X166266564Y-109331577D01*
X166654892Y-109408820D01*
X167050828Y-109408820D01*
X167439156Y-109331577D01*
X167804952Y-109180059D01*
X168134161Y-108960089D01*
X168414129Y-108680121D01*
X168634099Y-108350912D01*
X168785617Y-107985116D01*
X168862860Y-107596788D01*
X168862860Y-107519591D01*
X168923791Y-107610781D01*
X169203759Y-107890749D01*
X169532968Y-108110719D01*
X169898764Y-108262237D01*
X170287092Y-108339480D01*
X170683028Y-108339480D01*
X171071356Y-108262237D01*
X171437152Y-108110719D01*
X171766361Y-107890749D01*
X172046329Y-107610781D01*
X172266299Y-107281572D01*
X172417817Y-106915776D01*
X172495060Y-106527448D01*
X172495060Y-106131512D01*
X172417817Y-105743184D01*
X172315873Y-105497070D01*
X172456508Y-105591039D01*
X172822304Y-105742557D01*
X173210632Y-105819800D01*
X173606568Y-105819800D01*
X173994896Y-105742557D01*
X174360692Y-105591039D01*
X174689901Y-105371069D01*
X174969869Y-105091101D01*
X175189839Y-104761892D01*
X175341357Y-104396096D01*
X175418600Y-104007768D01*
X175418600Y-103611832D01*
X175341357Y-103223504D01*
X175189839Y-102857708D01*
X174969869Y-102528499D01*
X174734028Y-102292658D01*
X174754952Y-102296820D01*
X175150888Y-102296820D01*
X175539216Y-102219577D01*
X175565919Y-102208516D01*
X175565920Y-106694486D01*
X175562233Y-106731919D01*
X175576946Y-106881297D01*
X175620518Y-107024934D01*
X175691274Y-107157311D01*
X175741909Y-107219009D01*
X175786498Y-107273341D01*
X175815568Y-107297198D01*
X179603097Y-111084728D01*
X179612164Y-111130312D01*
X179679179Y-111292099D01*
X179776469Y-111437704D01*
X179900296Y-111561531D01*
X180045901Y-111658821D01*
X180207688Y-111725836D01*
X180379441Y-111760000D01*
X180554559Y-111760000D01*
X180726312Y-111725836D01*
X180888099Y-111658821D01*
X181033704Y-111561531D01*
X181157531Y-111437704D01*
X181254821Y-111292099D01*
X181321836Y-111130312D01*
X181356000Y-110958559D01*
X181356000Y-110783441D01*
X181321836Y-110611688D01*
X181254821Y-110449901D01*
X181157531Y-110304296D01*
X181103276Y-110250041D01*
X191287400Y-110250041D01*
X191287400Y-110425159D01*
X191321564Y-110596912D01*
X191388579Y-110758699D01*
X191485869Y-110904304D01*
X191609696Y-111028131D01*
X191755301Y-111125421D01*
X191917088Y-111192436D01*
X192088841Y-111226600D01*
X192263959Y-111226600D01*
X192435712Y-111192436D01*
X192597499Y-111125421D01*
X192743104Y-111028131D01*
X192866931Y-110904304D01*
X192964221Y-110758699D01*
X193031236Y-110596912D01*
X193065400Y-110425159D01*
X193065400Y-110250041D01*
X193031236Y-110078288D01*
X192964221Y-109916501D01*
X192938400Y-109877857D01*
X192938400Y-101115870D01*
X196962952Y-97091318D01*
X197153044Y-97170057D01*
X197541372Y-97247300D01*
X197937308Y-97247300D01*
X198325636Y-97170057D01*
X198691432Y-97018539D01*
X199020641Y-96798569D01*
X199300609Y-96518601D01*
X199520579Y-96189392D01*
X199672097Y-95823596D01*
X199749340Y-95435268D01*
X199749340Y-95039332D01*
X199672097Y-94651004D01*
X199520579Y-94285208D01*
X199332490Y-94003713D01*
X199715612Y-94079920D01*
X200111548Y-94079920D01*
X200499876Y-94002677D01*
X200865672Y-93851159D01*
X201194881Y-93631189D01*
X201474849Y-93351221D01*
X201694819Y-93022012D01*
X201846337Y-92656216D01*
X201923580Y-92267888D01*
X201923580Y-91871952D01*
X201880005Y-91652886D01*
X202121248Y-91814079D01*
X202328801Y-91900050D01*
X202328800Y-94778049D01*
X201203450Y-95903400D01*
X201174380Y-95927257D01*
X201150523Y-95956327D01*
X201150522Y-95956328D01*
X201079156Y-96043287D01*
X201008400Y-96175664D01*
X200964828Y-96319301D01*
X200950115Y-96468679D01*
X200953802Y-96506112D01*
X200953801Y-100295355D01*
X200950115Y-100332778D01*
X200953801Y-100370201D01*
X200953801Y-100370203D01*
X200964827Y-100482155D01*
X201008399Y-100625792D01*
X201021799Y-100650862D01*
X201079156Y-100758170D01*
X201112805Y-100799171D01*
X201174379Y-100874200D01*
X201203455Y-100898062D01*
X205916470Y-105611077D01*
X205900768Y-105617581D01*
X205571559Y-105837551D01*
X205291591Y-106117519D01*
X205071621Y-106446728D01*
X205071161Y-106447839D01*
X205039117Y-106286744D01*
X204887599Y-105920948D01*
X204667629Y-105591739D01*
X204387661Y-105311771D01*
X204058452Y-105091801D01*
X203692656Y-104940283D01*
X203304328Y-104863040D01*
X202908392Y-104863040D01*
X202520064Y-104940283D01*
X202154268Y-105091801D01*
X201825059Y-105311771D01*
X201789048Y-105347782D01*
X201857540Y-105003448D01*
X201857540Y-104607512D01*
X201780297Y-104219184D01*
X201628779Y-103853388D01*
X201408809Y-103524179D01*
X201128841Y-103244211D01*
X200799632Y-103024241D01*
X200433836Y-102872723D01*
X200045508Y-102795480D01*
X199649572Y-102795480D01*
X199333774Y-102858296D01*
X199364109Y-102827961D01*
X199584079Y-102498752D01*
X199735597Y-102132956D01*
X199812840Y-101744628D01*
X199812840Y-101348692D01*
X199735597Y-100960364D01*
X199584079Y-100594568D01*
X199364109Y-100265359D01*
X199084141Y-99985391D01*
X198754932Y-99765421D01*
X198389136Y-99613903D01*
X198000808Y-99536660D01*
X197604872Y-99536660D01*
X197216544Y-99613903D01*
X196850748Y-99765421D01*
X196521539Y-99985391D01*
X196241571Y-100265359D01*
X196021601Y-100594568D01*
X195870083Y-100960364D01*
X195792840Y-101348692D01*
X195792840Y-101744628D01*
X195870083Y-102132956D01*
X196021601Y-102498752D01*
X196241571Y-102827961D01*
X196521539Y-103107929D01*
X196850748Y-103327899D01*
X197216544Y-103479417D01*
X197604872Y-103556660D01*
X198000808Y-103556660D01*
X198316606Y-103493844D01*
X198286271Y-103524179D01*
X198066301Y-103853388D01*
X197914783Y-104219184D01*
X197837540Y-104607512D01*
X197837540Y-105003448D01*
X197914783Y-105391776D01*
X198066301Y-105757572D01*
X198286271Y-106086781D01*
X198566239Y-106366749D01*
X198895448Y-106586719D01*
X199261244Y-106738237D01*
X199649572Y-106815480D01*
X200045508Y-106815480D01*
X200433836Y-106738237D01*
X200799632Y-106586719D01*
X201128841Y-106366749D01*
X201164852Y-106330738D01*
X201096360Y-106675072D01*
X201096360Y-107071008D01*
X201173603Y-107459336D01*
X201325121Y-107825132D01*
X201545091Y-108154341D01*
X201825059Y-108434309D01*
X202154268Y-108654279D01*
X202293619Y-108712000D01*
X199070631Y-108712000D01*
X197205904Y-106847273D01*
X197196836Y-106801688D01*
X197129821Y-106639901D01*
X197032531Y-106494296D01*
X196908704Y-106370469D01*
X196763099Y-106273179D01*
X196601312Y-106206164D01*
X196429559Y-106172000D01*
X196254441Y-106172000D01*
X196082688Y-106206164D01*
X195920901Y-106273179D01*
X195775296Y-106370469D01*
X195651469Y-106494296D01*
X195554179Y-106639901D01*
X195487164Y-106801688D01*
X195453000Y-106973441D01*
X195453000Y-107148559D01*
X195487164Y-107320312D01*
X195554179Y-107482099D01*
X195651469Y-107627704D01*
X195775296Y-107751531D01*
X195920901Y-107848821D01*
X196082688Y-107915836D01*
X196128273Y-107924904D01*
X197931369Y-109728000D01*
X197398273Y-110261096D01*
X197352688Y-110270164D01*
X197190901Y-110337179D01*
X197045296Y-110434469D01*
X196921469Y-110558296D01*
X196824179Y-110703901D01*
X196757164Y-110865688D01*
X196723000Y-111037441D01*
X196723000Y-111212559D01*
X196757164Y-111384312D01*
X196824179Y-111546099D01*
X196921469Y-111691704D01*
X197016067Y-111786302D01*
X194883370Y-113919000D01*
X194261743Y-113919000D01*
X194223099Y-113893179D01*
X194061312Y-113826164D01*
X193889559Y-113792000D01*
X193714441Y-113792000D01*
X193542688Y-113826164D01*
X193380901Y-113893179D01*
X193235296Y-113990469D01*
X193111469Y-114114296D01*
X193014179Y-114259901D01*
X192947164Y-114421688D01*
X192913000Y-114593441D01*
X192913000Y-114768559D01*
X192947164Y-114940312D01*
X193014179Y-115102099D01*
X193111469Y-115247704D01*
X193235296Y-115371531D01*
X193380901Y-115468821D01*
X193542688Y-115535836D01*
X193714441Y-115570000D01*
X193889559Y-115570000D01*
X194061312Y-115535836D01*
X194223099Y-115468821D01*
X194261743Y-115443000D01*
X195161577Y-115443000D01*
X195199000Y-115446686D01*
X195236423Y-115443000D01*
X195236426Y-115443000D01*
X195348378Y-115431974D01*
X195492015Y-115388402D01*
X195624392Y-115317645D01*
X195740422Y-115222422D01*
X195764284Y-115193346D01*
X199578631Y-111379000D01*
X211036577Y-111379000D01*
X211074000Y-111382686D01*
X211111423Y-111379000D01*
X211111426Y-111379000D01*
X211223378Y-111367974D01*
X211367015Y-111324402D01*
X211499392Y-111253645D01*
X211615422Y-111158422D01*
X211639284Y-111129346D01*
X226769331Y-95999300D01*
X230879362Y-95999300D01*
X230958101Y-96189392D01*
X231178071Y-96518601D01*
X231458039Y-96798569D01*
X231787248Y-97018539D01*
X232153044Y-97170057D01*
X232541372Y-97247300D01*
X232937308Y-97247300D01*
X233325636Y-97170057D01*
X233691432Y-97018539D01*
X234020641Y-96798569D01*
X234300609Y-96518601D01*
X234520579Y-96189392D01*
X234672097Y-95823596D01*
X234749340Y-95435268D01*
X234749340Y-95039332D01*
X234672097Y-94651004D01*
X234520579Y-94285208D01*
X234332490Y-94003713D01*
X234715612Y-94079920D01*
X235111548Y-94079920D01*
X235499876Y-94002677D01*
X235865672Y-93851159D01*
X236194881Y-93631189D01*
X236474849Y-93351221D01*
X236694819Y-93022012D01*
X236846337Y-92656216D01*
X236923580Y-92267888D01*
X236923580Y-91871952D01*
X236880005Y-91652886D01*
X237121248Y-91814079D01*
X237298661Y-91887566D01*
X237298660Y-94734869D01*
X236173310Y-95860220D01*
X236144240Y-95884077D01*
X236120383Y-95913147D01*
X236120382Y-95913148D01*
X236049016Y-96000107D01*
X235978260Y-96132484D01*
X235934688Y-96276121D01*
X235919975Y-96425499D01*
X235923662Y-96462932D01*
X235923661Y-100252175D01*
X235919975Y-100289598D01*
X235923661Y-100327021D01*
X235923661Y-100327023D01*
X235934687Y-100438975D01*
X235978259Y-100582612D01*
X235989153Y-100602993D01*
X236049016Y-100714990D01*
X236061328Y-100729992D01*
X236144239Y-100831020D01*
X236173315Y-100854882D01*
X240925691Y-105607258D01*
X240900768Y-105617581D01*
X240571559Y-105837551D01*
X240291591Y-106117519D01*
X240071621Y-106446728D01*
X240071161Y-106447839D01*
X240039117Y-106286744D01*
X239887599Y-105920948D01*
X239667629Y-105591739D01*
X239387661Y-105311771D01*
X239058452Y-105091801D01*
X238692656Y-104940283D01*
X238304328Y-104863040D01*
X237908392Y-104863040D01*
X237520064Y-104940283D01*
X237154268Y-105091801D01*
X236825059Y-105311771D01*
X236789048Y-105347782D01*
X236857540Y-105003448D01*
X236857540Y-104607512D01*
X236780297Y-104219184D01*
X236628779Y-103853388D01*
X236408809Y-103524179D01*
X236128841Y-103244211D01*
X235799632Y-103024241D01*
X235433836Y-102872723D01*
X235045508Y-102795480D01*
X234649572Y-102795480D01*
X234333774Y-102858296D01*
X234364109Y-102827961D01*
X234584079Y-102498752D01*
X234735597Y-102132956D01*
X234812840Y-101744628D01*
X234812840Y-101348692D01*
X234735597Y-100960364D01*
X234584079Y-100594568D01*
X234364109Y-100265359D01*
X234084141Y-99985391D01*
X233754932Y-99765421D01*
X233389136Y-99613903D01*
X233000808Y-99536660D01*
X232604872Y-99536660D01*
X232216544Y-99613903D01*
X231850748Y-99765421D01*
X231521539Y-99985391D01*
X231241571Y-100265359D01*
X231021601Y-100594568D01*
X230870083Y-100960364D01*
X230792840Y-101348692D01*
X230792840Y-101744628D01*
X230870083Y-102132956D01*
X231021601Y-102498752D01*
X231241571Y-102827961D01*
X231521539Y-103107929D01*
X231850748Y-103327899D01*
X232216544Y-103479417D01*
X232604872Y-103556660D01*
X233000808Y-103556660D01*
X233316606Y-103493844D01*
X233286271Y-103524179D01*
X233066301Y-103853388D01*
X232914783Y-104219184D01*
X232837540Y-104607512D01*
X232837540Y-105003448D01*
X232914783Y-105391776D01*
X233066301Y-105757572D01*
X233286271Y-106086781D01*
X233566239Y-106366749D01*
X233895448Y-106586719D01*
X234261244Y-106738237D01*
X234649572Y-106815480D01*
X235045508Y-106815480D01*
X235433836Y-106738237D01*
X235799632Y-106586719D01*
X236128841Y-106366749D01*
X236164852Y-106330738D01*
X236096360Y-106675072D01*
X236096360Y-107071008D01*
X236173603Y-107459336D01*
X236325121Y-107825132D01*
X236545091Y-108154341D01*
X236825059Y-108434309D01*
X237154268Y-108654279D01*
X237520064Y-108805797D01*
X237908392Y-108883040D01*
X238304328Y-108883040D01*
X238692656Y-108805797D01*
X239058452Y-108654279D01*
X239387661Y-108434309D01*
X239667629Y-108154341D01*
X239887599Y-107825132D01*
X239888059Y-107824021D01*
X239920103Y-107985116D01*
X240071621Y-108350912D01*
X240291591Y-108680121D01*
X240571559Y-108960089D01*
X240900768Y-109180059D01*
X241266564Y-109331577D01*
X241654892Y-109408820D01*
X242050828Y-109408820D01*
X242439156Y-109331577D01*
X242804952Y-109180059D01*
X243134161Y-108960089D01*
X243414129Y-108680121D01*
X243634099Y-108350912D01*
X243785617Y-107985116D01*
X243862860Y-107596788D01*
X243862860Y-107519591D01*
X243923791Y-107610781D01*
X244203759Y-107890749D01*
X244532968Y-108110719D01*
X244898764Y-108262237D01*
X245287092Y-108339480D01*
X245683028Y-108339480D01*
X246071356Y-108262237D01*
X246437152Y-108110719D01*
X246766361Y-107890749D01*
X247046329Y-107610781D01*
X247266299Y-107281572D01*
X247417817Y-106915776D01*
X247495060Y-106527448D01*
X247495060Y-106131512D01*
X247417817Y-105743184D01*
X247315873Y-105497070D01*
X247456508Y-105591039D01*
X247822304Y-105742557D01*
X248210632Y-105819800D01*
X248606568Y-105819800D01*
X248994896Y-105742557D01*
X249360692Y-105591039D01*
X249689901Y-105371069D01*
X249969869Y-105091101D01*
X250189839Y-104761892D01*
X250341357Y-104396096D01*
X250418600Y-104007768D01*
X250418600Y-103611832D01*
X250341357Y-103223504D01*
X250189839Y-102857708D01*
X249969869Y-102528499D01*
X249734028Y-102292658D01*
X249754952Y-102296820D01*
X250150888Y-102296820D01*
X250539216Y-102219577D01*
X250905012Y-102068059D01*
X251234221Y-101848089D01*
X251514189Y-101568121D01*
X251734159Y-101238912D01*
X251885677Y-100873116D01*
X251962920Y-100484788D01*
X251962920Y-100088852D01*
X251885677Y-99700524D01*
X251734159Y-99334728D01*
X251514189Y-99005519D01*
X251234221Y-98725551D01*
X250905012Y-98505581D01*
X250617657Y-98386554D01*
X250927872Y-98258059D01*
X251257081Y-98038089D01*
X251537049Y-97758121D01*
X251757019Y-97428912D01*
X251908537Y-97063116D01*
X251985780Y-96674788D01*
X251985780Y-96278852D01*
X251908537Y-95890524D01*
X251757019Y-95524728D01*
X251537049Y-95195519D01*
X251257081Y-94915551D01*
X250927872Y-94695581D01*
X250562076Y-94544063D01*
X250173748Y-94466820D01*
X249880430Y-94466820D01*
X249982569Y-94364681D01*
X250202539Y-94035472D01*
X250354057Y-93669676D01*
X250431300Y-93281348D01*
X250431300Y-92885412D01*
X250354057Y-92497084D01*
X250202539Y-92131288D01*
X249982569Y-91802079D01*
X249702601Y-91522111D01*
X249373392Y-91302141D01*
X249007596Y-91150623D01*
X248619268Y-91073380D01*
X248223332Y-91073380D01*
X247835004Y-91150623D01*
X247469208Y-91302141D01*
X247320051Y-91401804D01*
X247455917Y-91073796D01*
X247533160Y-90685468D01*
X247533160Y-90289532D01*
X247455917Y-89901204D01*
X247304399Y-89535408D01*
X247084429Y-89206199D01*
X246804461Y-88926231D01*
X246475252Y-88706261D01*
X246109456Y-88554743D01*
X245721128Y-88477500D01*
X245325192Y-88477500D01*
X244936864Y-88554743D01*
X244571068Y-88706261D01*
X244241859Y-88926231D01*
X243961891Y-89206199D01*
X243847620Y-89377218D01*
X243847620Y-89255752D01*
X243770377Y-88867424D01*
X243618859Y-88501628D01*
X243398889Y-88172419D01*
X243118921Y-87892451D01*
X242789712Y-87672481D01*
X242423916Y-87520963D01*
X242035588Y-87443720D01*
X241639652Y-87443720D01*
X241251324Y-87520963D01*
X240885528Y-87672481D01*
X240556319Y-87892451D01*
X240276351Y-88172419D01*
X240056381Y-88501628D01*
X239904863Y-88867424D01*
X239859883Y-89093553D01*
X239854579Y-89080748D01*
X239634609Y-88751539D01*
X239354641Y-88471571D01*
X239025432Y-88251601D01*
X238659636Y-88100083D01*
X238271308Y-88022840D01*
X237875372Y-88022840D01*
X237487044Y-88100083D01*
X237121248Y-88251601D01*
X236792039Y-88471571D01*
X236512071Y-88751539D01*
X236292101Y-89080748D01*
X236140583Y-89446544D01*
X236063340Y-89834872D01*
X236063340Y-90230808D01*
X236106915Y-90449874D01*
X235865672Y-90288681D01*
X235499876Y-90137163D01*
X235111548Y-90059920D01*
X234715612Y-90059920D01*
X234327284Y-90137163D01*
X233961488Y-90288681D01*
X233632279Y-90508651D01*
X233352311Y-90788619D01*
X233132341Y-91117828D01*
X232980823Y-91483624D01*
X232903580Y-91871952D01*
X232903580Y-92267888D01*
X232980823Y-92656216D01*
X233132341Y-93022012D01*
X233320430Y-93303507D01*
X232937308Y-93227300D01*
X232541372Y-93227300D01*
X232153044Y-93304543D01*
X231787248Y-93456061D01*
X231458039Y-93676031D01*
X231178071Y-93955999D01*
X230958101Y-94285208D01*
X230879362Y-94475300D01*
X226491122Y-94475300D01*
X226453699Y-94471614D01*
X226416276Y-94475300D01*
X226416274Y-94475300D01*
X226304322Y-94486326D01*
X226160685Y-94529898D01*
X226028308Y-94600655D01*
X225912278Y-94695878D01*
X225888421Y-94724948D01*
X217805000Y-102808370D01*
X217805000Y-95668423D01*
X217808686Y-95631000D01*
X217804837Y-95591922D01*
X217793974Y-95481622D01*
X217750402Y-95337985D01*
X217699663Y-95243059D01*
X217679645Y-95205607D01*
X217644857Y-95163219D01*
X217584422Y-95089578D01*
X217555347Y-95065717D01*
X216435663Y-93946033D01*
X216411801Y-93916957D01*
X216295771Y-93821734D01*
X216163394Y-93750977D01*
X216019757Y-93707405D01*
X215907805Y-93696379D01*
X215907802Y-93696379D01*
X215870379Y-93692693D01*
X215832956Y-93696379D01*
X215342996Y-93696379D01*
X215354057Y-93669676D01*
X215431300Y-93281348D01*
X215431300Y-92885412D01*
X215354057Y-92497084D01*
X215202539Y-92131288D01*
X214982569Y-91802079D01*
X214702601Y-91522111D01*
X214373392Y-91302141D01*
X214007596Y-91150623D01*
X213619268Y-91073380D01*
X213223332Y-91073380D01*
X212835004Y-91150623D01*
X212469208Y-91302141D01*
X212320051Y-91401804D01*
X212455917Y-91073796D01*
X212533160Y-90685468D01*
X212533160Y-90289532D01*
X212455917Y-89901204D01*
X212304399Y-89535408D01*
X212084429Y-89206199D01*
X211804461Y-88926231D01*
X211475252Y-88706261D01*
X211109456Y-88554743D01*
X210721128Y-88477500D01*
X210325192Y-88477500D01*
X209936864Y-88554743D01*
X209571068Y-88706261D01*
X209241859Y-88926231D01*
X208961891Y-89206199D01*
X208847620Y-89377218D01*
X208847620Y-89255752D01*
X208770377Y-88867424D01*
X208618859Y-88501628D01*
X208398889Y-88172419D01*
X208118921Y-87892451D01*
X207789712Y-87672481D01*
X207423916Y-87520963D01*
X207035588Y-87443720D01*
X206639652Y-87443720D01*
X206251324Y-87520963D01*
X205885528Y-87672481D01*
X205556319Y-87892451D01*
X205276351Y-88172419D01*
X205056381Y-88501628D01*
X204904863Y-88867424D01*
X204859883Y-89093553D01*
X204854579Y-89080748D01*
X204634609Y-88751539D01*
X204354641Y-88471571D01*
X204025432Y-88251601D01*
X203659636Y-88100083D01*
X203271308Y-88022840D01*
X202875372Y-88022840D01*
X202487044Y-88100083D01*
X202121248Y-88251601D01*
X201792039Y-88471571D01*
X201512071Y-88751539D01*
X201292101Y-89080748D01*
X201140583Y-89446544D01*
X201063340Y-89834872D01*
X201063340Y-90230808D01*
X201106915Y-90449874D01*
X200865672Y-90288681D01*
X200499876Y-90137163D01*
X200111548Y-90059920D01*
X199715612Y-90059920D01*
X199327284Y-90137163D01*
X198961488Y-90288681D01*
X198632279Y-90508651D01*
X198352311Y-90788619D01*
X198132341Y-91117828D01*
X197980823Y-91483624D01*
X197903580Y-91871952D01*
X197903580Y-92267888D01*
X197980823Y-92656216D01*
X198132341Y-93022012D01*
X198320430Y-93303507D01*
X197937308Y-93227300D01*
X197541372Y-93227300D01*
X197153044Y-93304543D01*
X196787248Y-93456061D01*
X196458039Y-93676031D01*
X196178071Y-93955999D01*
X195958101Y-94285208D01*
X195806583Y-94651004D01*
X195729340Y-95039332D01*
X195729340Y-95435268D01*
X195806583Y-95823596D01*
X195885322Y-96013688D01*
X191664049Y-100234961D01*
X191634979Y-100258818D01*
X191611122Y-100287888D01*
X191611121Y-100287889D01*
X191539755Y-100374848D01*
X191468999Y-100507225D01*
X191425427Y-100650862D01*
X191410714Y-100800240D01*
X191414401Y-100837673D01*
X191414400Y-109877857D01*
X191388579Y-109916501D01*
X191321564Y-110078288D01*
X191287400Y-110250041D01*
X181103276Y-110250041D01*
X181033704Y-110180469D01*
X180888099Y-110083179D01*
X180726312Y-110016164D01*
X180680728Y-110007097D01*
X178789259Y-108115628D01*
X178881499Y-108077421D01*
X179027104Y-107980131D01*
X179150931Y-107856304D01*
X179248221Y-107710699D01*
X179315236Y-107548912D01*
X179349400Y-107377159D01*
X179349400Y-107202041D01*
X179315236Y-107030288D01*
X179248221Y-106868501D01*
X179222400Y-106829857D01*
X179222400Y-101439755D01*
X179261841Y-101447600D01*
X179436959Y-101447600D01*
X179608712Y-101413436D01*
X179770499Y-101346421D01*
X179916104Y-101249131D01*
X180039931Y-101125304D01*
X180137221Y-100979699D01*
X180204236Y-100817912D01*
X180238400Y-100646159D01*
X180238400Y-100471041D01*
X180204236Y-100299288D01*
X180137221Y-100137501D01*
X180039931Y-99991896D01*
X179959000Y-99910965D01*
X179959000Y-94930631D01*
X182908044Y-97879675D01*
X182916426Y-97964777D01*
X182959998Y-98108414D01*
X182959999Y-98108415D01*
X183030755Y-98240792D01*
X183060323Y-98276820D01*
X183125978Y-98356822D01*
X183155054Y-98380684D01*
X183470545Y-98696175D01*
X183448487Y-98768889D01*
X183419815Y-99060000D01*
X183448487Y-99351111D01*
X183533401Y-99631034D01*
X183671294Y-99889014D01*
X183856866Y-100115134D01*
X184082986Y-100300706D01*
X184340966Y-100438599D01*
X184620889Y-100523513D01*
X184839050Y-100545000D01*
X184984950Y-100545000D01*
X185203111Y-100523513D01*
X185483034Y-100438599D01*
X185741014Y-100300706D01*
X185967134Y-100115134D01*
X185991607Y-100085313D01*
X186012498Y-100154180D01*
X186071463Y-100264494D01*
X186150815Y-100361185D01*
X186247506Y-100440537D01*
X186357820Y-100499502D01*
X186477518Y-100535812D01*
X186602000Y-100548072D01*
X188302000Y-100548072D01*
X188426482Y-100535812D01*
X188546180Y-100499502D01*
X188656494Y-100440537D01*
X188753185Y-100361185D01*
X188832537Y-100264494D01*
X188891502Y-100154180D01*
X188927812Y-100034482D01*
X188940072Y-99910000D01*
X188940072Y-98210000D01*
X188927812Y-98085518D01*
X188891502Y-97965820D01*
X188832537Y-97855506D01*
X188778778Y-97790000D01*
X188832537Y-97724494D01*
X188891502Y-97614180D01*
X188927812Y-97494482D01*
X188940072Y-97370000D01*
X188940072Y-95670000D01*
X188927812Y-95545518D01*
X188891502Y-95425820D01*
X188832537Y-95315506D01*
X188753185Y-95218815D01*
X188656494Y-95139463D01*
X188546180Y-95080498D01*
X188426482Y-95044188D01*
X188302000Y-95031928D01*
X186602000Y-95031928D01*
X186477518Y-95044188D01*
X186357820Y-95080498D01*
X186247506Y-95139463D01*
X186150815Y-95218815D01*
X186071463Y-95315506D01*
X186012498Y-95425820D01*
X185991607Y-95494687D01*
X185967134Y-95464866D01*
X185741014Y-95279294D01*
X185483034Y-95141401D01*
X185203111Y-95056487D01*
X184984950Y-95035000D01*
X184839050Y-95035000D01*
X184620889Y-95056487D01*
X184340966Y-95141401D01*
X184082986Y-95279294D01*
X183856866Y-95464866D01*
X183712909Y-95640278D01*
X173793284Y-85720654D01*
X173769422Y-85691578D01*
X173653392Y-85596355D01*
X173521015Y-85525598D01*
X173377378Y-85482026D01*
X173265426Y-85471000D01*
X173265423Y-85471000D01*
X173228000Y-85467314D01*
X173190577Y-85471000D01*
X126021423Y-85471000D01*
X125984000Y-85467314D01*
X125946577Y-85471000D01*
X125946574Y-85471000D01*
X125834622Y-85482026D01*
X125690985Y-85525598D01*
X125629364Y-85558535D01*
X125558607Y-85596355D01*
X125516219Y-85631143D01*
X125442578Y-85691578D01*
X125418716Y-85720654D01*
X113883072Y-97256298D01*
X113883072Y-95670000D01*
X113870812Y-95545518D01*
X113834502Y-95425820D01*
X113775537Y-95315506D01*
X113696185Y-95218815D01*
X113599494Y-95139463D01*
X113489180Y-95080498D01*
X113369482Y-95044188D01*
X113245000Y-95031928D01*
X111545000Y-95031928D01*
X111420518Y-95044188D01*
X111300820Y-95080498D01*
X111190506Y-95139463D01*
X111093815Y-95218815D01*
X111014463Y-95315506D01*
X110955498Y-95425820D01*
X110934607Y-95494687D01*
X110910134Y-95464866D01*
X110684014Y-95279294D01*
X110426034Y-95141401D01*
X110146111Y-95056487D01*
X109927950Y-95035000D01*
X109782050Y-95035000D01*
X109563889Y-95056487D01*
X109283966Y-95141401D01*
X109025986Y-95279294D01*
X108799866Y-95464866D01*
X108614294Y-95690986D01*
X108476401Y-95948966D01*
X108391487Y-96228889D01*
X108362815Y-96520000D01*
X108391487Y-96811111D01*
X108413545Y-96883825D01*
X107844049Y-97453321D01*
X107814979Y-97477178D01*
X107791122Y-97506248D01*
X107791121Y-97506249D01*
X107719755Y-97593208D01*
X107648999Y-97725585D01*
X107605427Y-97869222D01*
X107590714Y-98018600D01*
X104267000Y-98018600D01*
X104267000Y-96367600D01*
X104379959Y-96367600D01*
X104551712Y-96333436D01*
X104713499Y-96266421D01*
X104859104Y-96169131D01*
X104982931Y-96045304D01*
X105080221Y-95899699D01*
X105147236Y-95737912D01*
X105181400Y-95566159D01*
X105181400Y-95391041D01*
X105147236Y-95219288D01*
X105080221Y-95057501D01*
X105054400Y-95018857D01*
X105054400Y-93407822D01*
X105058086Y-93370399D01*
X105051742Y-93305985D01*
X105043374Y-93221022D01*
X104999802Y-93077385D01*
X104929045Y-92945008D01*
X104833822Y-92828978D01*
X104804753Y-92805122D01*
X98228284Y-86228654D01*
X98204422Y-86199578D01*
X98088392Y-86104355D01*
X97956015Y-86033598D01*
X97812378Y-85990026D01*
X97700426Y-85979000D01*
X97700423Y-85979000D01*
X97663000Y-85975314D01*
X97625577Y-85979000D01*
X87286422Y-85979000D01*
X87248999Y-85975314D01*
X87211576Y-85979000D01*
X87211574Y-85979000D01*
X87099622Y-85990026D01*
X86955985Y-86033598D01*
X86823608Y-86104355D01*
X86707578Y-86199578D01*
X86683721Y-86228648D01*
X82226994Y-90685376D01*
X82197918Y-90709238D01*
X82160143Y-90755268D01*
X82102695Y-90825268D01*
X82069354Y-90887645D01*
X82031938Y-90957646D01*
X81988366Y-91101283D01*
X81977340Y-91213234D01*
X81973654Y-91250660D01*
X81977340Y-91288083D01*
X81977341Y-93377322D01*
X81787248Y-93456061D01*
X81458039Y-93676031D01*
X81178071Y-93955999D01*
X80958101Y-94285208D01*
X80806583Y-94651004D01*
X80729340Y-95039332D01*
X80729340Y-95435268D01*
X80806583Y-95823596D01*
X80958101Y-96189392D01*
X81178071Y-96518601D01*
X81458039Y-96798569D01*
X81787248Y-97018539D01*
X82153044Y-97170057D01*
X82541372Y-97247300D01*
X82937308Y-97247300D01*
X83325636Y-97170057D01*
X83691432Y-97018539D01*
X84020641Y-96798569D01*
X84300609Y-96518601D01*
X84520579Y-96189392D01*
X84672097Y-95823596D01*
X84749340Y-95435268D01*
X84749340Y-95039332D01*
X84672097Y-94651004D01*
X84520579Y-94285208D01*
X84332490Y-94003713D01*
X84715612Y-94079920D01*
X85111548Y-94079920D01*
X85499876Y-94002677D01*
X85865672Y-93851159D01*
X86194881Y-93631189D01*
X86474849Y-93351221D01*
X86694819Y-93022012D01*
X86846337Y-92656216D01*
X86923580Y-92267888D01*
X86923580Y-91871952D01*
X86880005Y-91652886D01*
X87121248Y-91814079D01*
X87487044Y-91965597D01*
X87875372Y-92042840D01*
X88271308Y-92042840D01*
X88659636Y-91965597D01*
X89025432Y-91814079D01*
X89354641Y-91594109D01*
X89634609Y-91314141D01*
X89854579Y-90984932D01*
X90006097Y-90619136D01*
X90051077Y-90393007D01*
X90056381Y-90405812D01*
X90276351Y-90735021D01*
X90556319Y-91014989D01*
X90885528Y-91234959D01*
X91251324Y-91386477D01*
X91639652Y-91463720D01*
X92035588Y-91463720D01*
X92423916Y-91386477D01*
X92789712Y-91234959D01*
X93118921Y-91014989D01*
X93398889Y-90735021D01*
X93513160Y-90564002D01*
X93513160Y-90685468D01*
X93590403Y-91073796D01*
X93741921Y-91439592D01*
X93961891Y-91768801D01*
X94241859Y-92048769D01*
X94571068Y-92268739D01*
X94936864Y-92420257D01*
X95325192Y-92497500D01*
X95721128Y-92497500D01*
X96109456Y-92420257D01*
X96475252Y-92268739D01*
X96624409Y-92169076D01*
X96488543Y-92497084D01*
X96411300Y-92885412D01*
X96411300Y-93281348D01*
X96488543Y-93669676D01*
X96640061Y-94035472D01*
X96860031Y-94364681D01*
X97139999Y-94644649D01*
X97469208Y-94864619D01*
X97835004Y-95016137D01*
X98223332Y-95093380D01*
X98516650Y-95093380D01*
X98414511Y-95195519D01*
X98194541Y-95524728D01*
X98043023Y-95890524D01*
X97965780Y-96278852D01*
X97965780Y-96674788D01*
X98043023Y-97063116D01*
X98194541Y-97428912D01*
X98414511Y-97758121D01*
X98694479Y-98038089D01*
X99023688Y-98258059D01*
X99311043Y-98377086D01*
X99000828Y-98505581D01*
X98671619Y-98725551D01*
X98391651Y-99005519D01*
X98171681Y-99334728D01*
X98020163Y-99700524D01*
X97942920Y-100088852D01*
X97942920Y-100484788D01*
X98020163Y-100873116D01*
X98171681Y-101238912D01*
X98391651Y-101568121D01*
X98627492Y-101803962D01*
X98606568Y-101799800D01*
X98210632Y-101799800D01*
X97822304Y-101877043D01*
X97456508Y-102028561D01*
X97127299Y-102248531D01*
X96847331Y-102528499D01*
X96627361Y-102857708D01*
X96475843Y-103223504D01*
X96398600Y-103611832D01*
X96398600Y-104007768D01*
X96475843Y-104396096D01*
X96577787Y-104642210D01*
X96437152Y-104548241D01*
X96071356Y-104396723D01*
X95683028Y-104319480D01*
X95287092Y-104319480D01*
X94898764Y-104396723D01*
X94532968Y-104548241D01*
X94203759Y-104768211D01*
X93923791Y-105048179D01*
X93703821Y-105377388D01*
X93552303Y-105743184D01*
X93475060Y-106131512D01*
X93475060Y-106208709D01*
X93414129Y-106117519D01*
X93134161Y-105837551D01*
X92804952Y-105617581D01*
X92439156Y-105466063D01*
X92050828Y-105388820D01*
X91654892Y-105388820D01*
X91266564Y-105466063D01*
X90900768Y-105617581D01*
X90571559Y-105837551D01*
X90291591Y-106117519D01*
X90071621Y-106446728D01*
X90071161Y-106447839D01*
X90039117Y-106286744D01*
X89887599Y-105920948D01*
X89667629Y-105591739D01*
X89387661Y-105311771D01*
X89058452Y-105091801D01*
X88692656Y-104940283D01*
X88304328Y-104863040D01*
X87908392Y-104863040D01*
X87520064Y-104940283D01*
X87154268Y-105091801D01*
X86825059Y-105311771D01*
X86789048Y-105347782D01*
X86857540Y-105003448D01*
X86857540Y-104607512D01*
X86780297Y-104219184D01*
X86628779Y-103853388D01*
X86408809Y-103524179D01*
X86128841Y-103244211D01*
X85799632Y-103024241D01*
X85433836Y-102872723D01*
X85045508Y-102795480D01*
X84649572Y-102795480D01*
X84333774Y-102858296D01*
X84364109Y-102827961D01*
X84584079Y-102498752D01*
X84735597Y-102132956D01*
X84812840Y-101744628D01*
X84812840Y-101348692D01*
X84735597Y-100960364D01*
X84584079Y-100594568D01*
X84364109Y-100265359D01*
X84084141Y-99985391D01*
X83754932Y-99765421D01*
X83389136Y-99613903D01*
X83000808Y-99536660D01*
X82604872Y-99536660D01*
X82216544Y-99613903D01*
X81850748Y-99765421D01*
X81521539Y-99985391D01*
X81241571Y-100265359D01*
X81021601Y-100594568D01*
X80870083Y-100960364D01*
X80792840Y-101348692D01*
X80792840Y-101744628D01*
X80870083Y-102132956D01*
X81021601Y-102498752D01*
X81241571Y-102827961D01*
X81521539Y-103107929D01*
X81850748Y-103327899D01*
X82216544Y-103479417D01*
X82604872Y-103556660D01*
X83000808Y-103556660D01*
X83316606Y-103493844D01*
X83286271Y-103524179D01*
X83066301Y-103853388D01*
X82914783Y-104219184D01*
X82837540Y-104607512D01*
X82837540Y-105003448D01*
X82914783Y-105391776D01*
X83066301Y-105757572D01*
X83286271Y-106086781D01*
X83566239Y-106366749D01*
X83895448Y-106586719D01*
X84261244Y-106738237D01*
X84649572Y-106815480D01*
X85045508Y-106815480D01*
X85433836Y-106738237D01*
X85799632Y-106586719D01*
X86128841Y-106366749D01*
X86164852Y-106330738D01*
X86096360Y-106675072D01*
X86096360Y-107071008D01*
X86173603Y-107459336D01*
X86325121Y-107825132D01*
X86545091Y-108154341D01*
X86825059Y-108434309D01*
X87050584Y-108585000D01*
X85659630Y-108585000D01*
X75092368Y-98017738D01*
X87060000Y-98017738D01*
X87060000Y-98832262D01*
X87218906Y-99631135D01*
X87530611Y-100383657D01*
X87983136Y-101060909D01*
X88559091Y-101636864D01*
X89236343Y-102089389D01*
X89988865Y-102401094D01*
X90787738Y-102560000D01*
X91602262Y-102560000D01*
X92401135Y-102401094D01*
X93153657Y-102089389D01*
X93830909Y-101636864D01*
X94406864Y-101060909D01*
X94859389Y-100383657D01*
X95171094Y-99631135D01*
X95330000Y-98832262D01*
X95330000Y-98017738D01*
X95171094Y-97218865D01*
X94859389Y-96466343D01*
X94406864Y-95789091D01*
X93830909Y-95213136D01*
X93153657Y-94760611D01*
X92401135Y-94448906D01*
X91602262Y-94290000D01*
X90787738Y-94290000D01*
X89988865Y-94448906D01*
X89236343Y-94760611D01*
X88559091Y-95213136D01*
X87983136Y-95789091D01*
X87530611Y-96466343D01*
X87218906Y-97218865D01*
X87060000Y-98017738D01*
X75092368Y-98017738D01*
X63557284Y-86482654D01*
X63533422Y-86453578D01*
X63417392Y-86358355D01*
X63285015Y-86287598D01*
X63141378Y-86244026D01*
X63029426Y-86233000D01*
X63029423Y-86233000D01*
X62992000Y-86229314D01*
X62954577Y-86233000D01*
X51980423Y-86233000D01*
X51943000Y-86229314D01*
X51905577Y-86233000D01*
X51905574Y-86233000D01*
X51793622Y-86244026D01*
X51649985Y-86287598D01*
X51621692Y-86302721D01*
X51517607Y-86358355D01*
X51434904Y-86426228D01*
X51401578Y-86453578D01*
X51377721Y-86482648D01*
X47226989Y-90633381D01*
X47197919Y-90657238D01*
X47174062Y-90686308D01*
X47174061Y-90686309D01*
X47102695Y-90773268D01*
X47031939Y-90905645D01*
X46988367Y-91049282D01*
X46973654Y-91198660D01*
X46977341Y-91236093D01*
X46977340Y-93377322D01*
X46787248Y-93456061D01*
X46458039Y-93676031D01*
X46178071Y-93955999D01*
X45958101Y-94285208D01*
X45806583Y-94651004D01*
X45729340Y-95039332D01*
X36975000Y-95039332D01*
X36975000Y-76935000D01*
X260505000Y-76935000D01*
X260505001Y-103185550D01*
G36*
X147626314Y-108238275D02*
G01*
X150520401Y-111132362D01*
X150520401Y-112917132D01*
X150491099Y-112903175D01*
X150343890Y-112858524D01*
X150114000Y-112979845D01*
X150114000Y-114173000D01*
X150134000Y-114173000D01*
X150134000Y-114427000D01*
X150114000Y-114427000D01*
X150114000Y-114447000D01*
X149860000Y-114447000D01*
X149860000Y-114427000D01*
X149840000Y-114427000D01*
X149840000Y-114173000D01*
X149860000Y-114173000D01*
X149860000Y-112979845D01*
X149630110Y-112858524D01*
X149482901Y-112903175D01*
X149220080Y-113028359D01*
X149163942Y-113070232D01*
X147548600Y-111454891D01*
X147548600Y-108222817D01*
X147626314Y-108238275D01*
X147626314Y-108238275D01*
G37*
X147626314Y-108238275D02*
X150520401Y-111132362D01*
X150520401Y-112917132D01*
X150491099Y-112903175D01*
X150343890Y-112858524D01*
X150114000Y-112979845D01*
X150114000Y-114173000D01*
X150134000Y-114173000D01*
X150134000Y-114427000D01*
X150114000Y-114427000D01*
X150114000Y-114447000D01*
X149860000Y-114447000D01*
X149860000Y-114427000D01*
X149840000Y-114427000D01*
X149840000Y-114173000D01*
X149860000Y-114173000D01*
X149860000Y-112979845D01*
X149630110Y-112858524D01*
X149482901Y-112903175D01*
X149220080Y-113028359D01*
X149163942Y-113070232D01*
X147548600Y-111454891D01*
X147548600Y-108222817D01*
X147626314Y-108238275D01*
G36*
X240056381Y-90405812D02*
G01*
X240276351Y-90735021D01*
X240556319Y-91014989D01*
X240885528Y-91234959D01*
X241251324Y-91386477D01*
X241639652Y-91463720D01*
X242035588Y-91463720D01*
X242423916Y-91386477D01*
X242789712Y-91234959D01*
X243118921Y-91014989D01*
X243398889Y-90735021D01*
X243513160Y-90564002D01*
X243513160Y-90685468D01*
X243590403Y-91073796D01*
X243741921Y-91439592D01*
X243961891Y-91768801D01*
X244241859Y-92048769D01*
X244571068Y-92268739D01*
X244936864Y-92420257D01*
X245325192Y-92497500D01*
X245721128Y-92497500D01*
X246109456Y-92420257D01*
X246475252Y-92268739D01*
X246624409Y-92169076D01*
X246488543Y-92497084D01*
X246411300Y-92885412D01*
X246411300Y-93281348D01*
X246488543Y-93669676D01*
X246640061Y-94035472D01*
X246860031Y-94364681D01*
X247139999Y-94644649D01*
X247469208Y-94864619D01*
X247835004Y-95016137D01*
X248223332Y-95093380D01*
X248516650Y-95093380D01*
X248414511Y-95195519D01*
X248194541Y-95524728D01*
X248043023Y-95890524D01*
X247965780Y-96278852D01*
X247965780Y-96674788D01*
X248043023Y-97063116D01*
X248194541Y-97428912D01*
X248414511Y-97758121D01*
X248694479Y-98038089D01*
X249023688Y-98258059D01*
X249311043Y-98377086D01*
X249000828Y-98505581D01*
X248671619Y-98725551D01*
X248391651Y-99005519D01*
X248171681Y-99334728D01*
X248020163Y-99700524D01*
X247942920Y-100088852D01*
X247942920Y-100484788D01*
X248020163Y-100873116D01*
X248171681Y-101238912D01*
X248391651Y-101568121D01*
X248627492Y-101803962D01*
X248606568Y-101799800D01*
X248210632Y-101799800D01*
X247822304Y-101877043D01*
X247456508Y-102028561D01*
X247127299Y-102248531D01*
X246847331Y-102528499D01*
X246627361Y-102857708D01*
X246475843Y-103223504D01*
X246398600Y-103611832D01*
X246398600Y-104007768D01*
X246475843Y-104396096D01*
X246577787Y-104642210D01*
X246437152Y-104548241D01*
X246071356Y-104396723D01*
X245683028Y-104319480D01*
X245287092Y-104319480D01*
X244898764Y-104396723D01*
X244532968Y-104548241D01*
X244203759Y-104768211D01*
X243923791Y-105048179D01*
X243703821Y-105377388D01*
X243552303Y-105743184D01*
X243475060Y-106131512D01*
X243475060Y-106208709D01*
X243414129Y-106117519D01*
X243134161Y-105837551D01*
X242804952Y-105617581D01*
X242602180Y-105533590D01*
X242602180Y-105481540D01*
X242605866Y-105444117D01*
X242599294Y-105377388D01*
X242591154Y-105294739D01*
X242547582Y-105151102D01*
X242496119Y-105054821D01*
X242476825Y-105018724D01*
X242440897Y-104974946D01*
X242381602Y-104902695D01*
X242352526Y-104878833D01*
X239794122Y-102320429D01*
X239988865Y-102401094D01*
X240787738Y-102560000D01*
X241602262Y-102560000D01*
X242401135Y-102401094D01*
X243153657Y-102089389D01*
X243830909Y-101636864D01*
X244406864Y-101060909D01*
X244859389Y-100383657D01*
X245171094Y-99631135D01*
X245330000Y-98832262D01*
X245330000Y-98017738D01*
X245171094Y-97218865D01*
X244859389Y-96466343D01*
X244406864Y-95789091D01*
X243830909Y-95213136D01*
X243153657Y-94760611D01*
X242401135Y-94448906D01*
X241602262Y-94290000D01*
X240787738Y-94290000D01*
X239988865Y-94448906D01*
X239236343Y-94760611D01*
X238824873Y-95035546D01*
X238822660Y-95013078D01*
X238822660Y-91898070D01*
X239025432Y-91814079D01*
X239354641Y-91594109D01*
X239634609Y-91314141D01*
X239854579Y-90984932D01*
X240006097Y-90619136D01*
X240051077Y-90393007D01*
X240056381Y-90405812D01*
X240056381Y-90405812D01*
G37*
X240056381Y-90405812D02*
X240276351Y-90735021D01*
X240556319Y-91014989D01*
X240885528Y-91234959D01*
X241251324Y-91386477D01*
X241639652Y-91463720D01*
X242035588Y-91463720D01*
X242423916Y-91386477D01*
X242789712Y-91234959D01*
X243118921Y-91014989D01*
X243398889Y-90735021D01*
X243513160Y-90564002D01*
X243513160Y-90685468D01*
X243590403Y-91073796D01*
X243741921Y-91439592D01*
X243961891Y-91768801D01*
X244241859Y-92048769D01*
X244571068Y-92268739D01*
X244936864Y-92420257D01*
X245325192Y-92497500D01*
X245721128Y-92497500D01*
X246109456Y-92420257D01*
X246475252Y-92268739D01*
X246624409Y-92169076D01*
X246488543Y-92497084D01*
X246411300Y-92885412D01*
X246411300Y-93281348D01*
X246488543Y-93669676D01*
X246640061Y-94035472D01*
X246860031Y-94364681D01*
X247139999Y-94644649D01*
X247469208Y-94864619D01*
X247835004Y-95016137D01*
X248223332Y-95093380D01*
X248516650Y-95093380D01*
X248414511Y-95195519D01*
X248194541Y-95524728D01*
X248043023Y-95890524D01*
X247965780Y-96278852D01*
X247965780Y-96674788D01*
X248043023Y-97063116D01*
X248194541Y-97428912D01*
X248414511Y-97758121D01*
X248694479Y-98038089D01*
X249023688Y-98258059D01*
X249311043Y-98377086D01*
X249000828Y-98505581D01*
X248671619Y-98725551D01*
X248391651Y-99005519D01*
X248171681Y-99334728D01*
X248020163Y-99700524D01*
X247942920Y-100088852D01*
X247942920Y-100484788D01*
X248020163Y-100873116D01*
X248171681Y-101238912D01*
X248391651Y-101568121D01*
X248627492Y-101803962D01*
X248606568Y-101799800D01*
X248210632Y-101799800D01*
X247822304Y-101877043D01*
X247456508Y-102028561D01*
X247127299Y-102248531D01*
X246847331Y-102528499D01*
X246627361Y-102857708D01*
X246475843Y-103223504D01*
X246398600Y-103611832D01*
X246398600Y-104007768D01*
X246475843Y-104396096D01*
X246577787Y-104642210D01*
X246437152Y-104548241D01*
X246071356Y-104396723D01*
X245683028Y-104319480D01*
X245287092Y-104319480D01*
X244898764Y-104396723D01*
X244532968Y-104548241D01*
X244203759Y-104768211D01*
X243923791Y-105048179D01*
X243703821Y-105377388D01*
X243552303Y-105743184D01*
X243475060Y-106131512D01*
X243475060Y-106208709D01*
X243414129Y-106117519D01*
X243134161Y-105837551D01*
X242804952Y-105617581D01*
X242602180Y-105533590D01*
X242602180Y-105481540D01*
X242605866Y-105444117D01*
X242599294Y-105377388D01*
X242591154Y-105294739D01*
X242547582Y-105151102D01*
X242496119Y-105054821D01*
X242476825Y-105018724D01*
X242440897Y-104974946D01*
X242381602Y-104902695D01*
X242352526Y-104878833D01*
X239794122Y-102320429D01*
X239988865Y-102401094D01*
X240787738Y-102560000D01*
X241602262Y-102560000D01*
X242401135Y-102401094D01*
X243153657Y-102089389D01*
X243830909Y-101636864D01*
X244406864Y-101060909D01*
X244859389Y-100383657D01*
X245171094Y-99631135D01*
X245330000Y-98832262D01*
X245330000Y-98017738D01*
X245171094Y-97218865D01*
X244859389Y-96466343D01*
X244406864Y-95789091D01*
X243830909Y-95213136D01*
X243153657Y-94760611D01*
X242401135Y-94448906D01*
X241602262Y-94290000D01*
X240787738Y-94290000D01*
X239988865Y-94448906D01*
X239236343Y-94760611D01*
X238824873Y-95035546D01*
X238822660Y-95013078D01*
X238822660Y-91898070D01*
X239025432Y-91814079D01*
X239354641Y-91594109D01*
X239634609Y-91314141D01*
X239854579Y-90984932D01*
X240006097Y-90619136D01*
X240051077Y-90393007D01*
X240056381Y-90405812D01*
G36*
X205056381Y-90405812D02*
G01*
X205276351Y-90735021D01*
X205556319Y-91014989D01*
X205885528Y-91234959D01*
X206251324Y-91386477D01*
X206639652Y-91463720D01*
X207035588Y-91463720D01*
X207423916Y-91386477D01*
X207789712Y-91234959D01*
X208118921Y-91014989D01*
X208398889Y-90735021D01*
X208513160Y-90564002D01*
X208513160Y-90685468D01*
X208590403Y-91073796D01*
X208741921Y-91439592D01*
X208961891Y-91768801D01*
X209241859Y-92048769D01*
X209571068Y-92268739D01*
X209936864Y-92420257D01*
X210325192Y-92497500D01*
X210721128Y-92497500D01*
X211109456Y-92420257D01*
X211475252Y-92268739D01*
X211624409Y-92169076D01*
X211488543Y-92497084D01*
X211411300Y-92885412D01*
X211411300Y-93281348D01*
X211488543Y-93669676D01*
X211640061Y-94035472D01*
X211860031Y-94364681D01*
X212139999Y-94644649D01*
X212469208Y-94864619D01*
X212835004Y-95016137D01*
X213223332Y-95093380D01*
X213516650Y-95093380D01*
X213414511Y-95195519D01*
X213194541Y-95524728D01*
X213043023Y-95890524D01*
X212965780Y-96278852D01*
X212965780Y-96674788D01*
X213043023Y-97063116D01*
X213194541Y-97428912D01*
X213414511Y-97758121D01*
X213694479Y-98038089D01*
X214023688Y-98258059D01*
X214311043Y-98377086D01*
X214000828Y-98505581D01*
X213671619Y-98725551D01*
X213391651Y-99005519D01*
X213171681Y-99334728D01*
X213020163Y-99700524D01*
X212942920Y-100088852D01*
X212942920Y-100484788D01*
X213020163Y-100873116D01*
X213171681Y-101238912D01*
X213391651Y-101568121D01*
X213627492Y-101803962D01*
X213606568Y-101799800D01*
X213210632Y-101799800D01*
X212822304Y-101877043D01*
X212456508Y-102028561D01*
X212127299Y-102248531D01*
X211847331Y-102528499D01*
X211627361Y-102857708D01*
X211475843Y-103223504D01*
X211398600Y-103611832D01*
X211398600Y-104007768D01*
X211475843Y-104396096D01*
X211577787Y-104642210D01*
X211437152Y-104548241D01*
X211071356Y-104396723D01*
X210683028Y-104319480D01*
X210287092Y-104319480D01*
X209898764Y-104396723D01*
X209532968Y-104548241D01*
X209203759Y-104768211D01*
X208923791Y-105048179D01*
X208703821Y-105377388D01*
X208552303Y-105743184D01*
X208475060Y-106131512D01*
X208475060Y-106208709D01*
X208414129Y-106117519D01*
X208134161Y-105837551D01*
X207804952Y-105617581D01*
X207632320Y-105546074D01*
X207632320Y-105524720D01*
X207636006Y-105487297D01*
X207632320Y-105449871D01*
X207621294Y-105337919D01*
X207577722Y-105194282D01*
X207544785Y-105132661D01*
X207506965Y-105061904D01*
X207471004Y-105018086D01*
X207411742Y-104945875D01*
X207382666Y-104922013D01*
X204771861Y-102311208D01*
X204988865Y-102401094D01*
X205787738Y-102560000D01*
X206602262Y-102560000D01*
X207401135Y-102401094D01*
X208153657Y-102089389D01*
X208830909Y-101636864D01*
X209406864Y-101060909D01*
X209859389Y-100383657D01*
X210171094Y-99631135D01*
X210330000Y-98832262D01*
X210330000Y-98017738D01*
X210171094Y-97218865D01*
X209859389Y-96466343D01*
X209406864Y-95789091D01*
X208830909Y-95213136D01*
X208153657Y-94760611D01*
X207401135Y-94448906D01*
X206602262Y-94290000D01*
X205787738Y-94290000D01*
X204988865Y-94448906D01*
X204236343Y-94760611D01*
X203852800Y-95016886D01*
X203852800Y-91885586D01*
X204025432Y-91814079D01*
X204354641Y-91594109D01*
X204634609Y-91314141D01*
X204854579Y-90984932D01*
X205006097Y-90619136D01*
X205051077Y-90393007D01*
X205056381Y-90405812D01*
X205056381Y-90405812D01*
G37*
X205056381Y-90405812D02*
X205276351Y-90735021D01*
X205556319Y-91014989D01*
X205885528Y-91234959D01*
X206251324Y-91386477D01*
X206639652Y-91463720D01*
X207035588Y-91463720D01*
X207423916Y-91386477D01*
X207789712Y-91234959D01*
X208118921Y-91014989D01*
X208398889Y-90735021D01*
X208513160Y-90564002D01*
X208513160Y-90685468D01*
X208590403Y-91073796D01*
X208741921Y-91439592D01*
X208961891Y-91768801D01*
X209241859Y-92048769D01*
X209571068Y-92268739D01*
X209936864Y-92420257D01*
X210325192Y-92497500D01*
X210721128Y-92497500D01*
X211109456Y-92420257D01*
X211475252Y-92268739D01*
X211624409Y-92169076D01*
X211488543Y-92497084D01*
X211411300Y-92885412D01*
X211411300Y-93281348D01*
X211488543Y-93669676D01*
X211640061Y-94035472D01*
X211860031Y-94364681D01*
X212139999Y-94644649D01*
X212469208Y-94864619D01*
X212835004Y-95016137D01*
X213223332Y-95093380D01*
X213516650Y-95093380D01*
X213414511Y-95195519D01*
X213194541Y-95524728D01*
X213043023Y-95890524D01*
X212965780Y-96278852D01*
X212965780Y-96674788D01*
X213043023Y-97063116D01*
X213194541Y-97428912D01*
X213414511Y-97758121D01*
X213694479Y-98038089D01*
X214023688Y-98258059D01*
X214311043Y-98377086D01*
X214000828Y-98505581D01*
X213671619Y-98725551D01*
X213391651Y-99005519D01*
X213171681Y-99334728D01*
X213020163Y-99700524D01*
X212942920Y-100088852D01*
X212942920Y-100484788D01*
X213020163Y-100873116D01*
X213171681Y-101238912D01*
X213391651Y-101568121D01*
X213627492Y-101803962D01*
X213606568Y-101799800D01*
X213210632Y-101799800D01*
X212822304Y-101877043D01*
X212456508Y-102028561D01*
X212127299Y-102248531D01*
X211847331Y-102528499D01*
X211627361Y-102857708D01*
X211475843Y-103223504D01*
X211398600Y-103611832D01*
X211398600Y-104007768D01*
X211475843Y-104396096D01*
X211577787Y-104642210D01*
X211437152Y-104548241D01*
X211071356Y-104396723D01*
X210683028Y-104319480D01*
X210287092Y-104319480D01*
X209898764Y-104396723D01*
X209532968Y-104548241D01*
X209203759Y-104768211D01*
X208923791Y-105048179D01*
X208703821Y-105377388D01*
X208552303Y-105743184D01*
X208475060Y-106131512D01*
X208475060Y-106208709D01*
X208414129Y-106117519D01*
X208134161Y-105837551D01*
X207804952Y-105617581D01*
X207632320Y-105546074D01*
X207632320Y-105524720D01*
X207636006Y-105487297D01*
X207632320Y-105449871D01*
X207621294Y-105337919D01*
X207577722Y-105194282D01*
X207544785Y-105132661D01*
X207506965Y-105061904D01*
X207471004Y-105018086D01*
X207411742Y-104945875D01*
X207382666Y-104922013D01*
X204771861Y-102311208D01*
X204988865Y-102401094D01*
X205787738Y-102560000D01*
X206602262Y-102560000D01*
X207401135Y-102401094D01*
X208153657Y-102089389D01*
X208830909Y-101636864D01*
X209406864Y-101060909D01*
X209859389Y-100383657D01*
X210171094Y-99631135D01*
X210330000Y-98832262D01*
X210330000Y-98017738D01*
X210171094Y-97218865D01*
X209859389Y-96466343D01*
X209406864Y-95789091D01*
X208830909Y-95213136D01*
X208153657Y-94760611D01*
X207401135Y-94448906D01*
X206602262Y-94290000D01*
X205787738Y-94290000D01*
X204988865Y-94448906D01*
X204236343Y-94760611D01*
X203852800Y-95016886D01*
X203852800Y-91885586D01*
X204025432Y-91814079D01*
X204354641Y-91594109D01*
X204634609Y-91314141D01*
X204854579Y-90984932D01*
X205006097Y-90619136D01*
X205051077Y-90393007D01*
X205056381Y-90405812D01*
G36*
X130056381Y-90405812D02*
G01*
X130276351Y-90735021D01*
X130556319Y-91014989D01*
X130885528Y-91234959D01*
X131251324Y-91386477D01*
X131639652Y-91463720D01*
X132035588Y-91463720D01*
X132423916Y-91386477D01*
X132789712Y-91234959D01*
X133118921Y-91014989D01*
X133398889Y-90735021D01*
X133513160Y-90564002D01*
X133513160Y-90685468D01*
X133590403Y-91073796D01*
X133741921Y-91439592D01*
X133961891Y-91768801D01*
X134241859Y-92048769D01*
X134571068Y-92268739D01*
X134936864Y-92420257D01*
X135325192Y-92497500D01*
X135721128Y-92497500D01*
X136109456Y-92420257D01*
X136475252Y-92268739D01*
X136624409Y-92169076D01*
X136488543Y-92497084D01*
X136411300Y-92885412D01*
X136411300Y-93281348D01*
X136488543Y-93669676D01*
X136640061Y-94035472D01*
X136860031Y-94364681D01*
X137139999Y-94644649D01*
X137469208Y-94864619D01*
X137835004Y-95016137D01*
X138223332Y-95093380D01*
X138516650Y-95093380D01*
X138414511Y-95195519D01*
X138194541Y-95524728D01*
X138043023Y-95890524D01*
X137965780Y-96278852D01*
X137965780Y-96674788D01*
X138043023Y-97063116D01*
X138194541Y-97428912D01*
X138414511Y-97758121D01*
X138694479Y-98038089D01*
X139023688Y-98258059D01*
X139311043Y-98377086D01*
X139000828Y-98505581D01*
X138671619Y-98725551D01*
X138391651Y-99005519D01*
X138171681Y-99334728D01*
X138020163Y-99700524D01*
X137942920Y-100088852D01*
X137942920Y-100484788D01*
X138020163Y-100873116D01*
X138171681Y-101238912D01*
X138391651Y-101568121D01*
X138627492Y-101803962D01*
X138606568Y-101799800D01*
X138210632Y-101799800D01*
X137822304Y-101877043D01*
X137456508Y-102028561D01*
X137127299Y-102248531D01*
X136847331Y-102528499D01*
X136627361Y-102857708D01*
X136475843Y-103223504D01*
X136398600Y-103611832D01*
X136398600Y-104007768D01*
X136475843Y-104396096D01*
X136577787Y-104642210D01*
X136437152Y-104548241D01*
X136071356Y-104396723D01*
X135683028Y-104319480D01*
X135287092Y-104319480D01*
X134898764Y-104396723D01*
X134532968Y-104548241D01*
X134203759Y-104768211D01*
X133923791Y-105048179D01*
X133703821Y-105377388D01*
X133552303Y-105743184D01*
X133475060Y-106131512D01*
X133475060Y-106208709D01*
X133414129Y-106117519D01*
X133134161Y-105837551D01*
X132804952Y-105617581D01*
X132648942Y-105552959D01*
X132650406Y-105538097D01*
X132646720Y-105500671D01*
X132635694Y-105388719D01*
X132592122Y-105245082D01*
X132541888Y-105151101D01*
X132521365Y-105112704D01*
X132468410Y-105048179D01*
X132426142Y-104996675D01*
X132397066Y-104972813D01*
X129709722Y-102285469D01*
X129988865Y-102401094D01*
X130787738Y-102560000D01*
X131602262Y-102560000D01*
X132401135Y-102401094D01*
X133153657Y-102089389D01*
X133830909Y-101636864D01*
X134406864Y-101060909D01*
X134859389Y-100383657D01*
X135171094Y-99631135D01*
X135330000Y-98832262D01*
X135330000Y-98017738D01*
X135171094Y-97218865D01*
X134859389Y-96466343D01*
X134406864Y-95789091D01*
X133830909Y-95213136D01*
X133153657Y-94760611D01*
X132401135Y-94448906D01*
X131602262Y-94290000D01*
X130787738Y-94290000D01*
X129988865Y-94448906D01*
X129236343Y-94760611D01*
X128867200Y-95007264D01*
X128867200Y-91879621D01*
X129025432Y-91814079D01*
X129354641Y-91594109D01*
X129634609Y-91314141D01*
X129854579Y-90984932D01*
X130006097Y-90619136D01*
X130051077Y-90393007D01*
X130056381Y-90405812D01*
X130056381Y-90405812D01*
G37*
X130056381Y-90405812D02*
X130276351Y-90735021D01*
X130556319Y-91014989D01*
X130885528Y-91234959D01*
X131251324Y-91386477D01*
X131639652Y-91463720D01*
X132035588Y-91463720D01*
X132423916Y-91386477D01*
X132789712Y-91234959D01*
X133118921Y-91014989D01*
X133398889Y-90735021D01*
X133513160Y-90564002D01*
X133513160Y-90685468D01*
X133590403Y-91073796D01*
X133741921Y-91439592D01*
X133961891Y-91768801D01*
X134241859Y-92048769D01*
X134571068Y-92268739D01*
X134936864Y-92420257D01*
X135325192Y-92497500D01*
X135721128Y-92497500D01*
X136109456Y-92420257D01*
X136475252Y-92268739D01*
X136624409Y-92169076D01*
X136488543Y-92497084D01*
X136411300Y-92885412D01*
X136411300Y-93281348D01*
X136488543Y-93669676D01*
X136640061Y-94035472D01*
X136860031Y-94364681D01*
X137139999Y-94644649D01*
X137469208Y-94864619D01*
X137835004Y-95016137D01*
X138223332Y-95093380D01*
X138516650Y-95093380D01*
X138414511Y-95195519D01*
X138194541Y-95524728D01*
X138043023Y-95890524D01*
X137965780Y-96278852D01*
X137965780Y-96674788D01*
X138043023Y-97063116D01*
X138194541Y-97428912D01*
X138414511Y-97758121D01*
X138694479Y-98038089D01*
X139023688Y-98258059D01*
X139311043Y-98377086D01*
X139000828Y-98505581D01*
X138671619Y-98725551D01*
X138391651Y-99005519D01*
X138171681Y-99334728D01*
X138020163Y-99700524D01*
X137942920Y-100088852D01*
X137942920Y-100484788D01*
X138020163Y-100873116D01*
X138171681Y-101238912D01*
X138391651Y-101568121D01*
X138627492Y-101803962D01*
X138606568Y-101799800D01*
X138210632Y-101799800D01*
X137822304Y-101877043D01*
X137456508Y-102028561D01*
X137127299Y-102248531D01*
X136847331Y-102528499D01*
X136627361Y-102857708D01*
X136475843Y-103223504D01*
X136398600Y-103611832D01*
X136398600Y-104007768D01*
X136475843Y-104396096D01*
X136577787Y-104642210D01*
X136437152Y-104548241D01*
X136071356Y-104396723D01*
X135683028Y-104319480D01*
X135287092Y-104319480D01*
X134898764Y-104396723D01*
X134532968Y-104548241D01*
X134203759Y-104768211D01*
X133923791Y-105048179D01*
X133703821Y-105377388D01*
X133552303Y-105743184D01*
X133475060Y-106131512D01*
X133475060Y-106208709D01*
X133414129Y-106117519D01*
X133134161Y-105837551D01*
X132804952Y-105617581D01*
X132648942Y-105552959D01*
X132650406Y-105538097D01*
X132646720Y-105500671D01*
X132635694Y-105388719D01*
X132592122Y-105245082D01*
X132541888Y-105151101D01*
X132521365Y-105112704D01*
X132468410Y-105048179D01*
X132426142Y-104996675D01*
X132397066Y-104972813D01*
X129709722Y-102285469D01*
X129988865Y-102401094D01*
X130787738Y-102560000D01*
X131602262Y-102560000D01*
X132401135Y-102401094D01*
X133153657Y-102089389D01*
X133830909Y-101636864D01*
X134406864Y-101060909D01*
X134859389Y-100383657D01*
X135171094Y-99631135D01*
X135330000Y-98832262D01*
X135330000Y-98017738D01*
X135171094Y-97218865D01*
X134859389Y-96466343D01*
X134406864Y-95789091D01*
X133830909Y-95213136D01*
X133153657Y-94760611D01*
X132401135Y-94448906D01*
X131602262Y-94290000D01*
X130787738Y-94290000D01*
X129988865Y-94448906D01*
X129236343Y-94760611D01*
X128867200Y-95007264D01*
X128867200Y-91879621D01*
X129025432Y-91814079D01*
X129354641Y-91594109D01*
X129634609Y-91314141D01*
X129854579Y-90984932D01*
X130006097Y-90619136D01*
X130051077Y-90393007D01*
X130056381Y-90405812D01*
M02*
