M48
; DRILL file {KiCad (5.1.0-0)} date Wednesday, May 22, 2019 at 01:12:35 AM
; FORMAT={-:-/ absolute / inch / decimal}
; #@! TF.CreationDate,2019-05-22T01:12:35-05:00
; #@! TF.GenerationSoftware,Kicad,Pcbnew,(5.1.0-0)
; #@! TF.FileFunction,Plated,1,2,PTH
FMAT,2
INCH
T1C0.0100
T2C0.0197
T3C0.0394
T4C0.0787
T5C0.1260
%
G90
G05
T1
X2.45Y-3.875
X2.656Y-3.499
X2.775Y-4.075
X3.306Y-3.874
X3.375Y-4.485
X3.41Y-4.51
X3.445Y-4.535
X3.485Y-4.555
X3.806Y-3.874
X3.911Y-4.289
X3.941Y-4.249
X3.986Y-4.249
X4.031Y-4.249
X4.056Y-4.474
X4.076Y-4.249
X4.106Y-3.759
X4.131Y-3.974
X4.351Y-4.254
X4.386Y-4.224
X4.421Y-4.254
X4.456Y-4.224
X4.59Y-4.84
X4.631Y-4.474
X4.645Y-4.74
X4.681Y-3.849
X4.7Y-4.475
X4.811Y-4.179
X4.956Y-3.999
X5.231Y-4.099
X5.306Y-3.699
X5.485Y-4.63
X5.556Y-3.574
X5.645Y-4.125
X5.645Y-4.23
X5.78Y-4.0945
X5.8187Y-4.227
X5.82Y-4.075
X5.85Y-4.325
X5.86Y-4.0945
X5.86Y-4.225
X5.92Y-4.06
X5.92Y-4.105
X5.92Y-4.15
X5.935Y-4.225
X6.231Y-4.669
X6.251Y-3.489
X6.286Y-3.459
X6.331Y-4.6109
X6.8Y-3.875
X6.885Y-4.48
X6.935Y-4.625
X6.991Y-4.189
X7.0Y-4.475
X7.026Y-4.224
X7.06Y-4.74
X7.061Y-3.959
X7.105Y-4.365
X7.566Y-4.344
X7.61Y-4.47
X7.63Y-4.515
X7.656Y-3.749
X7.73Y-4.215
X7.78Y-4.375
X7.881Y-3.924
X7.95Y-4.475
X8.331Y-3.924
X8.506Y-3.599
X9.106Y-3.599
X9.275Y-3.9
X9.7Y-3.875
T2
X8.5405Y-3.175
X8.5682Y-3.1082
X8.5682Y-3.2418
X8.635Y-3.0805
X8.635Y-3.2695
X8.7018Y-3.1082
X8.7018Y-3.2418
X8.7295Y-3.175
X8.5405Y-4.6
X8.5682Y-4.5332
X8.5682Y-4.6668
X8.635Y-4.5055
X8.635Y-4.6945
X8.7018Y-4.5332
X8.7018Y-4.6668
X8.7295Y-4.6
X2.9805Y-4.6
X3.0082Y-4.5332
X3.0082Y-4.6668
X3.075Y-4.5055
X3.075Y-4.6945
X3.1418Y-4.5332
X3.1418Y-4.6668
X3.1695Y-4.6
X10.0155Y-3.175
X10.0432Y-3.1082
X10.0432Y-3.2418
X10.11Y-3.0805
X10.11Y-3.2695
X10.1768Y-3.1082
X10.1768Y-3.2418
X10.2045Y-3.175
X2.9805Y-3.175
X3.0082Y-3.1082
X3.0082Y-3.2418
X3.075Y-3.0805
X3.075Y-3.2695
X3.1418Y-3.1082
X3.1418Y-3.2418
X3.1695Y-3.175
X1.5055Y-3.175
X1.5332Y-3.1082
X1.5332Y-3.2418
X1.6Y-3.0805
X1.6Y-3.2695
X1.6668Y-3.1082
X1.6668Y-3.2418
X1.6945Y-3.175
T3
X4.325Y-3.8
X5.805Y-4.5
X5.605Y-4.5
X5.705Y-4.5
X5.705Y-4.6
X5.805Y-4.6
X5.905Y-4.5
X5.905Y-4.6
X6.005Y-4.5
X4.425Y-3.8
X7.28Y-3.8
X7.38Y-3.8
X5.605Y-4.6
X6.005Y-4.6
X6.105Y-4.5
X6.105Y-4.6
X4.325Y-3.9
X4.425Y-3.9
X7.28Y-3.9
X7.38Y-3.9
T4
X9.163Y-3.7495
X9.1655Y-3.9979
X9.246Y-4.1262
X7.785Y-3.7495
X9.2486Y-3.6248
X7.7875Y-3.9979
X7.868Y-4.1262
X7.8706Y-3.6248
X7.995Y-3.5446
X7.9963Y-4.2076
X8.1432Y-3.5218
X8.1438Y-4.2283
X8.2868Y-4.1862
X8.2883Y-3.5625
X8.4019Y-4.087
X8.4024Y-3.6647
X8.4627Y-3.9483
X8.4636Y-3.7983
X9.373Y-3.5446
X9.3743Y-4.2076
X9.5212Y-3.5218
X9.5218Y-4.2283
X9.6648Y-4.1862
X9.6663Y-3.5625
X9.7799Y-4.087
X9.7804Y-3.6647
X9.8407Y-3.9483
X9.8416Y-3.7983
X1.8795Y-3.7495
X1.882Y-3.9979
X1.9625Y-4.1262
X1.9651Y-3.6248
X2.0895Y-3.5446
X2.0908Y-4.2076
X6.2102Y-3.7495
X6.2127Y-3.9979
X2.2377Y-3.5218
X2.2383Y-4.2283
X2.3813Y-4.1862
X2.3828Y-3.5625
X2.4964Y-4.087
X2.4969Y-3.6647
X2.5572Y-3.9483
X2.5581Y-3.7983
X6.2932Y-4.1262
X6.2958Y-3.6248
X3.8744Y-4.087
X6.4202Y-3.5446
X6.4215Y-4.2076
X6.5684Y-3.5218
X6.569Y-4.2283
X6.712Y-4.1862
X6.7135Y-3.5625
X6.8271Y-4.087
X6.8276Y-3.6647
X3.7593Y-4.1862
X3.2575Y-3.7495
X3.26Y-3.9979
X4.8323Y-3.7495
X4.8348Y-3.9979
X4.9153Y-4.1262
X4.9179Y-3.6248
X5.1911Y-4.2283
X3.3405Y-4.1262
X3.3431Y-3.6248
X3.4675Y-3.5446
X5.0423Y-3.5446
X5.0436Y-4.2076
X5.1905Y-3.5218
X5.3341Y-4.1862
X5.3356Y-3.5625
X5.4492Y-4.087
X5.4497Y-3.6647
X5.51Y-3.9483
X5.5109Y-3.7983
X6.8888Y-3.7983
X3.4688Y-4.2076
X3.6163Y-4.2283
X6.8879Y-3.9483
X3.6157Y-3.5218
X3.7608Y-3.5625
X3.8749Y-3.6647
X3.9352Y-3.9483
X3.9361Y-3.7983
T5
X8.635Y-3.175
X8.635Y-4.6
X3.075Y-4.6
X10.11Y-3.175
X1.6Y-3.175
X3.075Y-3.175
T0
M30
