G04 #@! TF.GenerationSoftware,KiCad,Pcbnew,(5.1.0-0)*
G04 #@! TF.CreationDate,2019-05-22T01:12:31-05:00*
G04 #@! TF.ProjectId,IN-18,494e2d31-382e-46b6-9963-61645f706362,rev?*
G04 #@! TF.SameCoordinates,Original*
G04 #@! TF.FileFunction,Legend,Top*
G04 #@! TF.FilePolarity,Positive*
%FSLAX46Y46*%
G04 Gerber Fmt 4.6, Leading zero omitted, Abs format (unit mm)*
G04 Created by KiCad (PCBNEW (5.1.0-0)) date 2019-05-22 01:12:31*
%MOMM*%
%LPD*%
G04 APERTURE LIST*
%ADD10C,0.152400*%
%ADD11C,0.127000*%
%ADD12C,0.254000*%
%ADD13C,0.381000*%
%ADD14C,0.150000*%
G04 APERTURE END LIST*
D10*
X156256566Y-79140050D02*
X156298900Y-79097716D01*
X156425900Y-79055383D01*
X156510566Y-79055383D01*
X156637566Y-79097716D01*
X156722233Y-79182383D01*
X156764566Y-79267050D01*
X156806900Y-79436383D01*
X156806900Y-79563383D01*
X156764566Y-79732716D01*
X156722233Y-79817383D01*
X156637566Y-79902050D01*
X156510566Y-79944383D01*
X156425900Y-79944383D01*
X156298900Y-79902050D01*
X156256566Y-79859716D01*
X155917900Y-79309383D02*
X155494566Y-79309383D01*
X156002566Y-79055383D02*
X155706233Y-79944383D01*
X155409900Y-79055383D01*
X155113566Y-79944383D02*
X155113566Y-79224716D01*
X155071233Y-79140050D01*
X155028900Y-79097716D01*
X154944233Y-79055383D01*
X154774900Y-79055383D01*
X154690233Y-79097716D01*
X154647900Y-79140050D01*
X154605566Y-79224716D01*
X154605566Y-79944383D01*
X154309233Y-79944383D02*
X153801233Y-79944383D01*
X154055233Y-79055383D02*
X154055233Y-79944383D01*
X153504900Y-79055383D02*
X153504900Y-79944383D01*
X152912233Y-79944383D02*
X152742900Y-79944383D01*
X152658233Y-79902050D01*
X152573566Y-79817383D01*
X152531233Y-79648050D01*
X152531233Y-79351716D01*
X152573566Y-79182383D01*
X152658233Y-79097716D01*
X152742900Y-79055383D01*
X152912233Y-79055383D01*
X152996900Y-79097716D01*
X153081566Y-79182383D01*
X153123900Y-79351716D01*
X153123900Y-79648050D01*
X153081566Y-79817383D01*
X152996900Y-79902050D01*
X152912233Y-79944383D01*
X152150233Y-79055383D02*
X152150233Y-79944383D01*
X151642233Y-79055383D01*
X151642233Y-79944383D01*
X151218900Y-79140050D02*
X151176566Y-79097716D01*
X151218900Y-79055383D01*
X151261233Y-79097716D01*
X151218900Y-79140050D01*
X151218900Y-79055383D01*
X151218900Y-79605716D02*
X151176566Y-79563383D01*
X151218900Y-79521050D01*
X151261233Y-79563383D01*
X151218900Y-79605716D01*
X151218900Y-79521050D01*
X150118233Y-79055383D02*
X150118233Y-79944383D01*
X150118233Y-79521050D02*
X149610233Y-79521050D01*
X149610233Y-79055383D02*
X149610233Y-79944383D01*
X149186900Y-79055383D02*
X149186900Y-79944383D01*
X148297900Y-79902050D02*
X148382566Y-79944383D01*
X148509566Y-79944383D01*
X148636566Y-79902050D01*
X148721233Y-79817383D01*
X148763566Y-79732716D01*
X148805900Y-79563383D01*
X148805900Y-79436383D01*
X148763566Y-79267050D01*
X148721233Y-79182383D01*
X148636566Y-79097716D01*
X148509566Y-79055383D01*
X148424900Y-79055383D01*
X148297900Y-79097716D01*
X148255566Y-79140050D01*
X148255566Y-79436383D01*
X148424900Y-79436383D01*
X147874566Y-79055383D02*
X147874566Y-79944383D01*
X147874566Y-79521050D02*
X147366566Y-79521050D01*
X147366566Y-79055383D02*
X147366566Y-79944383D01*
X146392900Y-79944383D02*
X146096566Y-79055383D01*
X145800233Y-79944383D01*
X145334566Y-79944383D02*
X145165233Y-79944383D01*
X145080566Y-79902050D01*
X144995900Y-79817383D01*
X144953566Y-79648050D01*
X144953566Y-79351716D01*
X144995900Y-79182383D01*
X145080566Y-79097716D01*
X145165233Y-79055383D01*
X145334566Y-79055383D01*
X145419233Y-79097716D01*
X145503900Y-79182383D01*
X145546233Y-79351716D01*
X145546233Y-79648050D01*
X145503900Y-79817383D01*
X145419233Y-79902050D01*
X145334566Y-79944383D01*
X144149233Y-79055383D02*
X144572566Y-79055383D01*
X144572566Y-79944383D01*
X143979900Y-79944383D02*
X143471900Y-79944383D01*
X143725900Y-79055383D02*
X143725900Y-79944383D01*
X143217900Y-79309383D02*
X142794566Y-79309383D01*
X143302566Y-79055383D02*
X143006233Y-79944383D01*
X142709900Y-79055383D01*
X141947900Y-79902050D02*
X142032566Y-79944383D01*
X142159566Y-79944383D01*
X142286566Y-79902050D01*
X142371233Y-79817383D01*
X142413566Y-79732716D01*
X142455900Y-79563383D01*
X142455900Y-79436383D01*
X142413566Y-79267050D01*
X142371233Y-79182383D01*
X142286566Y-79097716D01*
X142159566Y-79055383D01*
X142074900Y-79055383D01*
X141947900Y-79097716D01*
X141905566Y-79140050D01*
X141905566Y-79436383D01*
X142074900Y-79436383D01*
X141524566Y-79521050D02*
X141228233Y-79521050D01*
X141101233Y-79055383D02*
X141524566Y-79055383D01*
X141524566Y-79944383D01*
X141101233Y-79944383D01*
X140720233Y-79140050D02*
X140677900Y-79097716D01*
X140720233Y-79055383D01*
X140762566Y-79097716D01*
X140720233Y-79140050D01*
X140720233Y-79055383D01*
X140720233Y-79394050D02*
X140762566Y-79902050D01*
X140720233Y-79944383D01*
X140677900Y-79902050D01*
X140720233Y-79394050D01*
X140720233Y-79944383D01*
X153780066Y-77569483D02*
X153780066Y-78458483D01*
X153568400Y-78458483D01*
X153441400Y-78416150D01*
X153356733Y-78331483D01*
X153314400Y-78246816D01*
X153272066Y-78077483D01*
X153272066Y-77950483D01*
X153314400Y-77781150D01*
X153356733Y-77696483D01*
X153441400Y-77611816D01*
X153568400Y-77569483D01*
X153780066Y-77569483D01*
X152721733Y-78458483D02*
X152552400Y-78458483D01*
X152467733Y-78416150D01*
X152383066Y-78331483D01*
X152340733Y-78162150D01*
X152340733Y-77865816D01*
X152383066Y-77696483D01*
X152467733Y-77611816D01*
X152552400Y-77569483D01*
X152721733Y-77569483D01*
X152806400Y-77611816D01*
X152891066Y-77696483D01*
X152933400Y-77865816D01*
X152933400Y-78162150D01*
X152891066Y-78331483D01*
X152806400Y-78416150D01*
X152721733Y-78458483D01*
X151282400Y-77569483D02*
X151282400Y-78458483D01*
X150774400Y-77569483D01*
X150774400Y-78458483D01*
X150181733Y-78458483D02*
X150012400Y-78458483D01*
X149927733Y-78416150D01*
X149843066Y-78331483D01*
X149800733Y-78162150D01*
X149800733Y-77865816D01*
X149843066Y-77696483D01*
X149927733Y-77611816D01*
X150012400Y-77569483D01*
X150181733Y-77569483D01*
X150266400Y-77611816D01*
X150351066Y-77696483D01*
X150393400Y-77865816D01*
X150393400Y-78162150D01*
X150351066Y-78331483D01*
X150266400Y-78416150D01*
X150181733Y-78458483D01*
X149546733Y-78458483D02*
X149038733Y-78458483D01*
X149292733Y-77569483D02*
X149292733Y-78458483D01*
X148192066Y-78458483D02*
X147684066Y-78458483D01*
X147938066Y-77569483D02*
X147938066Y-78458483D01*
X147218400Y-78458483D02*
X147049066Y-78458483D01*
X146964400Y-78416150D01*
X146879733Y-78331483D01*
X146837400Y-78162150D01*
X146837400Y-77865816D01*
X146879733Y-77696483D01*
X146964400Y-77611816D01*
X147049066Y-77569483D01*
X147218400Y-77569483D01*
X147303066Y-77611816D01*
X147387733Y-77696483D01*
X147430066Y-77865816D01*
X147430066Y-78162150D01*
X147387733Y-78331483D01*
X147303066Y-78416150D01*
X147218400Y-78458483D01*
X146456400Y-78458483D02*
X146456400Y-77738816D01*
X146414066Y-77654150D01*
X146371733Y-77611816D01*
X146287066Y-77569483D01*
X146117733Y-77569483D01*
X146033066Y-77611816D01*
X145990733Y-77654150D01*
X145948400Y-77738816D01*
X145948400Y-78458483D01*
X145017066Y-77654150D02*
X145059400Y-77611816D01*
X145186400Y-77569483D01*
X145271066Y-77569483D01*
X145398066Y-77611816D01*
X145482733Y-77696483D01*
X145525066Y-77781150D01*
X145567400Y-77950483D01*
X145567400Y-78077483D01*
X145525066Y-78246816D01*
X145482733Y-78331483D01*
X145398066Y-78416150D01*
X145271066Y-78458483D01*
X145186400Y-78458483D01*
X145059400Y-78416150D01*
X145017066Y-78373816D01*
X144636066Y-77569483D02*
X144636066Y-78458483D01*
X144636066Y-78035150D02*
X144128066Y-78035150D01*
X144128066Y-77569483D02*
X144128066Y-78458483D01*
X143704733Y-77654150D02*
X143662400Y-77611816D01*
X143704733Y-77569483D01*
X143747066Y-77611816D01*
X143704733Y-77654150D01*
X143704733Y-77569483D01*
X143704733Y-77908150D02*
X143747066Y-78416150D01*
X143704733Y-78458483D01*
X143662400Y-78416150D01*
X143704733Y-77908150D01*
X143704733Y-78458483D01*
X141228233Y-119818150D02*
X141185900Y-119860483D01*
X141058900Y-119902816D01*
X140974233Y-119902816D01*
X140847233Y-119860483D01*
X140762566Y-119775816D01*
X140720233Y-119691150D01*
X140677900Y-119521816D01*
X140677900Y-119394816D01*
X140720233Y-119225483D01*
X140762566Y-119140816D01*
X140847233Y-119056150D01*
X140974233Y-119013816D01*
X141058900Y-119013816D01*
X141185900Y-119056150D01*
X141228233Y-119098483D01*
X141566900Y-119648816D02*
X141990233Y-119648816D01*
X141482233Y-119902816D02*
X141778566Y-119013816D01*
X142074900Y-119902816D01*
X142371233Y-119013816D02*
X142371233Y-119733483D01*
X142413566Y-119818150D01*
X142455900Y-119860483D01*
X142540566Y-119902816D01*
X142709900Y-119902816D01*
X142794566Y-119860483D01*
X142836900Y-119818150D01*
X142879233Y-119733483D01*
X142879233Y-119013816D01*
X143175566Y-119013816D02*
X143683566Y-119013816D01*
X143429566Y-119902816D02*
X143429566Y-119013816D01*
X143979900Y-119902816D02*
X143979900Y-119013816D01*
X144572566Y-119013816D02*
X144741900Y-119013816D01*
X144826566Y-119056150D01*
X144911233Y-119140816D01*
X144953566Y-119310150D01*
X144953566Y-119606483D01*
X144911233Y-119775816D01*
X144826566Y-119860483D01*
X144741900Y-119902816D01*
X144572566Y-119902816D01*
X144487900Y-119860483D01*
X144403233Y-119775816D01*
X144360900Y-119606483D01*
X144360900Y-119310150D01*
X144403233Y-119140816D01*
X144487900Y-119056150D01*
X144572566Y-119013816D01*
X145334566Y-119902816D02*
X145334566Y-119013816D01*
X145842566Y-119902816D01*
X145842566Y-119013816D01*
X146265900Y-119818150D02*
X146308233Y-119860483D01*
X146265900Y-119902816D01*
X146223566Y-119860483D01*
X146265900Y-119818150D01*
X146265900Y-119902816D01*
X146265900Y-119352483D02*
X146308233Y-119394816D01*
X146265900Y-119437150D01*
X146223566Y-119394816D01*
X146265900Y-119352483D01*
X146265900Y-119437150D01*
X147366566Y-119902816D02*
X147366566Y-119013816D01*
X147366566Y-119437150D02*
X147874566Y-119437150D01*
X147874566Y-119902816D02*
X147874566Y-119013816D01*
X148297900Y-119902816D02*
X148297900Y-119013816D01*
X149186900Y-119056150D02*
X149102233Y-119013816D01*
X148975233Y-119013816D01*
X148848233Y-119056150D01*
X148763566Y-119140816D01*
X148721233Y-119225483D01*
X148678900Y-119394816D01*
X148678900Y-119521816D01*
X148721233Y-119691150D01*
X148763566Y-119775816D01*
X148848233Y-119860483D01*
X148975233Y-119902816D01*
X149059900Y-119902816D01*
X149186900Y-119860483D01*
X149229233Y-119818150D01*
X149229233Y-119521816D01*
X149059900Y-119521816D01*
X149610233Y-119902816D02*
X149610233Y-119013816D01*
X149610233Y-119437150D02*
X150118233Y-119437150D01*
X150118233Y-119902816D02*
X150118233Y-119013816D01*
X151091900Y-119013816D02*
X151388233Y-119902816D01*
X151684566Y-119013816D01*
X152150233Y-119013816D02*
X152319566Y-119013816D01*
X152404233Y-119056150D01*
X152488900Y-119140816D01*
X152531233Y-119310150D01*
X152531233Y-119606483D01*
X152488900Y-119775816D01*
X152404233Y-119860483D01*
X152319566Y-119902816D01*
X152150233Y-119902816D01*
X152065566Y-119860483D01*
X151980900Y-119775816D01*
X151938566Y-119606483D01*
X151938566Y-119310150D01*
X151980900Y-119140816D01*
X152065566Y-119056150D01*
X152150233Y-119013816D01*
X153335566Y-119902816D02*
X152912233Y-119902816D01*
X152912233Y-119013816D01*
X153504900Y-119013816D02*
X154012900Y-119013816D01*
X153758900Y-119902816D02*
X153758900Y-119013816D01*
X154266900Y-119648816D02*
X154690233Y-119648816D01*
X154182233Y-119902816D02*
X154478566Y-119013816D01*
X154774900Y-119902816D01*
X155536900Y-119056150D02*
X155452233Y-119013816D01*
X155325233Y-119013816D01*
X155198233Y-119056150D01*
X155113566Y-119140816D01*
X155071233Y-119225483D01*
X155028900Y-119394816D01*
X155028900Y-119521816D01*
X155071233Y-119691150D01*
X155113566Y-119775816D01*
X155198233Y-119860483D01*
X155325233Y-119902816D01*
X155409900Y-119902816D01*
X155536900Y-119860483D01*
X155579233Y-119818150D01*
X155579233Y-119521816D01*
X155409900Y-119521816D01*
X155960233Y-119437150D02*
X156256566Y-119437150D01*
X156383566Y-119902816D02*
X155960233Y-119902816D01*
X155960233Y-119013816D01*
X156383566Y-119013816D01*
X156764566Y-119818150D02*
X156806900Y-119860483D01*
X156764566Y-119902816D01*
X156722233Y-119860483D01*
X156764566Y-119818150D01*
X156764566Y-119902816D01*
X156764566Y-119564150D02*
X156722233Y-119056150D01*
X156764566Y-119013816D01*
X156806900Y-119056150D01*
X156764566Y-119564150D01*
X156764566Y-119013816D01*
X143704733Y-121388716D02*
X143704733Y-120499716D01*
X143916400Y-120499716D01*
X144043400Y-120542050D01*
X144128066Y-120626716D01*
X144170400Y-120711383D01*
X144212733Y-120880716D01*
X144212733Y-121007716D01*
X144170400Y-121177050D01*
X144128066Y-121261716D01*
X144043400Y-121346383D01*
X143916400Y-121388716D01*
X143704733Y-121388716D01*
X144763066Y-120499716D02*
X144932400Y-120499716D01*
X145017066Y-120542050D01*
X145101733Y-120626716D01*
X145144066Y-120796050D01*
X145144066Y-121092383D01*
X145101733Y-121261716D01*
X145017066Y-121346383D01*
X144932400Y-121388716D01*
X144763066Y-121388716D01*
X144678400Y-121346383D01*
X144593733Y-121261716D01*
X144551400Y-121092383D01*
X144551400Y-120796050D01*
X144593733Y-120626716D01*
X144678400Y-120542050D01*
X144763066Y-120499716D01*
X146202400Y-121388716D02*
X146202400Y-120499716D01*
X146710400Y-121388716D01*
X146710400Y-120499716D01*
X147303066Y-120499716D02*
X147472400Y-120499716D01*
X147557066Y-120542050D01*
X147641733Y-120626716D01*
X147684066Y-120796050D01*
X147684066Y-121092383D01*
X147641733Y-121261716D01*
X147557066Y-121346383D01*
X147472400Y-121388716D01*
X147303066Y-121388716D01*
X147218400Y-121346383D01*
X147133733Y-121261716D01*
X147091400Y-121092383D01*
X147091400Y-120796050D01*
X147133733Y-120626716D01*
X147218400Y-120542050D01*
X147303066Y-120499716D01*
X147938066Y-120499716D02*
X148446066Y-120499716D01*
X148192066Y-121388716D02*
X148192066Y-120499716D01*
X149292733Y-120499716D02*
X149800733Y-120499716D01*
X149546733Y-121388716D02*
X149546733Y-120499716D01*
X150266400Y-120499716D02*
X150435733Y-120499716D01*
X150520400Y-120542050D01*
X150605066Y-120626716D01*
X150647400Y-120796050D01*
X150647400Y-121092383D01*
X150605066Y-121261716D01*
X150520400Y-121346383D01*
X150435733Y-121388716D01*
X150266400Y-121388716D01*
X150181733Y-121346383D01*
X150097066Y-121261716D01*
X150054733Y-121092383D01*
X150054733Y-120796050D01*
X150097066Y-120626716D01*
X150181733Y-120542050D01*
X150266400Y-120499716D01*
X151028400Y-120499716D02*
X151028400Y-121219383D01*
X151070733Y-121304050D01*
X151113066Y-121346383D01*
X151197733Y-121388716D01*
X151367066Y-121388716D01*
X151451733Y-121346383D01*
X151494066Y-121304050D01*
X151536400Y-121219383D01*
X151536400Y-120499716D01*
X152467733Y-121304050D02*
X152425400Y-121346383D01*
X152298400Y-121388716D01*
X152213733Y-121388716D01*
X152086733Y-121346383D01*
X152002066Y-121261716D01*
X151959733Y-121177050D01*
X151917400Y-121007716D01*
X151917400Y-120880716D01*
X151959733Y-120711383D01*
X152002066Y-120626716D01*
X152086733Y-120542050D01*
X152213733Y-120499716D01*
X152298400Y-120499716D01*
X152425400Y-120542050D01*
X152467733Y-120584383D01*
X152848733Y-121388716D02*
X152848733Y-120499716D01*
X152848733Y-120923050D02*
X153356733Y-120923050D01*
X153356733Y-121388716D02*
X153356733Y-120499716D01*
X153780066Y-121304050D02*
X153822400Y-121346383D01*
X153780066Y-121388716D01*
X153737733Y-121346383D01*
X153780066Y-121304050D01*
X153780066Y-121388716D01*
X153780066Y-121050050D02*
X153737733Y-120542050D01*
X153780066Y-120499716D01*
X153822400Y-120542050D01*
X153780066Y-121050050D01*
X153780066Y-120499716D01*
D11*
X82065283Y-115815533D02*
X82065283Y-115104333D01*
X82403950Y-115815533D02*
X82403950Y-115104333D01*
X82810350Y-115815533D01*
X82810350Y-115104333D01*
X83149016Y-115544600D02*
X83690883Y-115544600D01*
X84402083Y-115815533D02*
X83995683Y-115815533D01*
X84198883Y-115815533D02*
X84198883Y-115104333D01*
X84131150Y-115205933D01*
X84063416Y-115273666D01*
X83995683Y-115307533D01*
X84808483Y-115409133D02*
X84740750Y-115375266D01*
X84706883Y-115341400D01*
X84673016Y-115273666D01*
X84673016Y-115239800D01*
X84706883Y-115172066D01*
X84740750Y-115138200D01*
X84808483Y-115104333D01*
X84943950Y-115104333D01*
X85011683Y-115138200D01*
X85045550Y-115172066D01*
X85079416Y-115239800D01*
X85079416Y-115273666D01*
X85045550Y-115341400D01*
X85011683Y-115375266D01*
X84943950Y-115409133D01*
X84808483Y-115409133D01*
X84740750Y-115443000D01*
X84706883Y-115476866D01*
X84673016Y-115544600D01*
X84673016Y-115680066D01*
X84706883Y-115747800D01*
X84740750Y-115781666D01*
X84808483Y-115815533D01*
X84943950Y-115815533D01*
X85011683Y-115781666D01*
X85045550Y-115747800D01*
X85079416Y-115680066D01*
X85079416Y-115544600D01*
X85045550Y-115476866D01*
X85011683Y-115443000D01*
X84943950Y-115409133D01*
X85926083Y-115815533D02*
X85926083Y-115104333D01*
X86332483Y-115815533D01*
X86332483Y-115104333D01*
X86671150Y-115815533D02*
X86671150Y-115341400D01*
X86671150Y-115104333D02*
X86637283Y-115138200D01*
X86671150Y-115172066D01*
X86705016Y-115138200D01*
X86671150Y-115104333D01*
X86671150Y-115172066D01*
X86942083Y-115815533D02*
X87314616Y-115341400D01*
X86942083Y-115341400D02*
X87314616Y-115815533D01*
X87585550Y-115815533D02*
X87585550Y-115341400D01*
X87585550Y-115104333D02*
X87551683Y-115138200D01*
X87585550Y-115172066D01*
X87619416Y-115138200D01*
X87585550Y-115104333D01*
X87585550Y-115172066D01*
X88195150Y-115781666D02*
X88127416Y-115815533D01*
X87991950Y-115815533D01*
X87924216Y-115781666D01*
X87890350Y-115713933D01*
X87890350Y-115443000D01*
X87924216Y-115375266D01*
X87991950Y-115341400D01*
X88127416Y-115341400D01*
X88195150Y-115375266D01*
X88229016Y-115443000D01*
X88229016Y-115510733D01*
X87890350Y-115578466D01*
X89075683Y-115815533D02*
X89075683Y-115104333D01*
X89245016Y-115104333D01*
X89346616Y-115138200D01*
X89414350Y-115205933D01*
X89448216Y-115273666D01*
X89482083Y-115409133D01*
X89482083Y-115510733D01*
X89448216Y-115646200D01*
X89414350Y-115713933D01*
X89346616Y-115781666D01*
X89245016Y-115815533D01*
X89075683Y-115815533D01*
X89786883Y-115815533D02*
X89786883Y-115341400D01*
X89786883Y-115104333D02*
X89753016Y-115138200D01*
X89786883Y-115172066D01*
X89820750Y-115138200D01*
X89786883Y-115104333D01*
X89786883Y-115172066D01*
X90091683Y-115781666D02*
X90159416Y-115815533D01*
X90294883Y-115815533D01*
X90362616Y-115781666D01*
X90396483Y-115713933D01*
X90396483Y-115680066D01*
X90362616Y-115612333D01*
X90294883Y-115578466D01*
X90193283Y-115578466D01*
X90125550Y-115544600D01*
X90091683Y-115476866D01*
X90091683Y-115443000D01*
X90125550Y-115375266D01*
X90193283Y-115341400D01*
X90294883Y-115341400D01*
X90362616Y-115375266D01*
X90701283Y-115341400D02*
X90701283Y-116052600D01*
X90701283Y-115375266D02*
X90769016Y-115341400D01*
X90904483Y-115341400D01*
X90972216Y-115375266D01*
X91006083Y-115409133D01*
X91039950Y-115476866D01*
X91039950Y-115680066D01*
X91006083Y-115747800D01*
X90972216Y-115781666D01*
X90904483Y-115815533D01*
X90769016Y-115815533D01*
X90701283Y-115781666D01*
X91446350Y-115815533D02*
X91378616Y-115781666D01*
X91344750Y-115713933D01*
X91344750Y-115104333D01*
X92022083Y-115815533D02*
X92022083Y-115443000D01*
X91988216Y-115375266D01*
X91920483Y-115341400D01*
X91785016Y-115341400D01*
X91717283Y-115375266D01*
X92022083Y-115781666D02*
X91954350Y-115815533D01*
X91785016Y-115815533D01*
X91717283Y-115781666D01*
X91683416Y-115713933D01*
X91683416Y-115646200D01*
X91717283Y-115578466D01*
X91785016Y-115544600D01*
X91954350Y-115544600D01*
X92022083Y-115510733D01*
X92293016Y-115341400D02*
X92462350Y-115815533D01*
X92631683Y-115341400D02*
X92462350Y-115815533D01*
X92394616Y-115984866D01*
X92360750Y-116018733D01*
X92293016Y-116052600D01*
X93681550Y-115443000D02*
X93783150Y-115476866D01*
X93817016Y-115510733D01*
X93850883Y-115578466D01*
X93850883Y-115680066D01*
X93817016Y-115747800D01*
X93783150Y-115781666D01*
X93715416Y-115815533D01*
X93444483Y-115815533D01*
X93444483Y-115104333D01*
X93681550Y-115104333D01*
X93749283Y-115138200D01*
X93783150Y-115172066D01*
X93817016Y-115239800D01*
X93817016Y-115307533D01*
X93783150Y-115375266D01*
X93749283Y-115409133D01*
X93681550Y-115443000D01*
X93444483Y-115443000D01*
X94257283Y-115815533D02*
X94189550Y-115781666D01*
X94155683Y-115747800D01*
X94121816Y-115680066D01*
X94121816Y-115476866D01*
X94155683Y-115409133D01*
X94189550Y-115375266D01*
X94257283Y-115341400D01*
X94358883Y-115341400D01*
X94426616Y-115375266D01*
X94460483Y-115409133D01*
X94494350Y-115476866D01*
X94494350Y-115680066D01*
X94460483Y-115747800D01*
X94426616Y-115781666D01*
X94358883Y-115815533D01*
X94257283Y-115815533D01*
X95103950Y-115815533D02*
X95103950Y-115443000D01*
X95070083Y-115375266D01*
X95002350Y-115341400D01*
X94866883Y-115341400D01*
X94799150Y-115375266D01*
X95103950Y-115781666D02*
X95036216Y-115815533D01*
X94866883Y-115815533D01*
X94799150Y-115781666D01*
X94765283Y-115713933D01*
X94765283Y-115646200D01*
X94799150Y-115578466D01*
X94866883Y-115544600D01*
X95036216Y-115544600D01*
X95103950Y-115510733D01*
X95442616Y-115815533D02*
X95442616Y-115341400D01*
X95442616Y-115476866D02*
X95476483Y-115409133D01*
X95510350Y-115375266D01*
X95578083Y-115341400D01*
X95645816Y-115341400D01*
X96187683Y-115815533D02*
X96187683Y-115104333D01*
X96187683Y-115781666D02*
X96119950Y-115815533D01*
X95984483Y-115815533D01*
X95916750Y-115781666D01*
X95882883Y-115747800D01*
X95849016Y-115680066D01*
X95849016Y-115476866D01*
X95882883Y-115409133D01*
X95916750Y-115375266D01*
X95984483Y-115341400D01*
X96119950Y-115341400D01*
X96187683Y-115375266D01*
X97000483Y-115341400D02*
X97169816Y-115815533D01*
X97339150Y-115341400D01*
X97982616Y-115815533D02*
X97576216Y-115815533D01*
X97779416Y-115815533D02*
X97779416Y-115104333D01*
X97711683Y-115205933D01*
X97643950Y-115273666D01*
X97576216Y-115307533D01*
X98287416Y-115747800D02*
X98321283Y-115781666D01*
X98287416Y-115815533D01*
X98253550Y-115781666D01*
X98287416Y-115747800D01*
X98287416Y-115815533D01*
X98761550Y-115104333D02*
X98829283Y-115104333D01*
X98897016Y-115138200D01*
X98930883Y-115172066D01*
X98964750Y-115239800D01*
X98998616Y-115375266D01*
X98998616Y-115544600D01*
X98964750Y-115680066D01*
X98930883Y-115747800D01*
X98897016Y-115781666D01*
X98829283Y-115815533D01*
X98761550Y-115815533D01*
X98693816Y-115781666D01*
X98659950Y-115747800D01*
X98626083Y-115680066D01*
X98592216Y-115544600D01*
X98592216Y-115375266D01*
X98626083Y-115239800D01*
X98659950Y-115172066D01*
X98693816Y-115138200D01*
X98761550Y-115104333D01*
X99743683Y-115341400D02*
X100014616Y-115341400D01*
X99845283Y-115815533D02*
X99845283Y-115205933D01*
X99879150Y-115138200D01*
X99946883Y-115104333D01*
X100014616Y-115104333D01*
X100353283Y-115815533D02*
X100285550Y-115781666D01*
X100251683Y-115747800D01*
X100217816Y-115680066D01*
X100217816Y-115476866D01*
X100251683Y-115409133D01*
X100285550Y-115375266D01*
X100353283Y-115341400D01*
X100454883Y-115341400D01*
X100522616Y-115375266D01*
X100556483Y-115409133D01*
X100590350Y-115476866D01*
X100590350Y-115680066D01*
X100556483Y-115747800D01*
X100522616Y-115781666D01*
X100454883Y-115815533D01*
X100353283Y-115815533D01*
X100895150Y-115815533D02*
X100895150Y-115341400D01*
X100895150Y-115476866D02*
X100929016Y-115409133D01*
X100962883Y-115375266D01*
X101030616Y-115341400D01*
X101098350Y-115341400D01*
X101775683Y-115104333D02*
X102182083Y-115104333D01*
X101978883Y-115815533D02*
X101978883Y-115104333D01*
X102723950Y-115341400D02*
X102723950Y-115815533D01*
X102419150Y-115341400D02*
X102419150Y-115713933D01*
X102453016Y-115781666D01*
X102520750Y-115815533D01*
X102622350Y-115815533D01*
X102690083Y-115781666D01*
X102723950Y-115747800D01*
X103062616Y-115815533D02*
X103062616Y-115104333D01*
X103062616Y-115375266D02*
X103130350Y-115341400D01*
X103265816Y-115341400D01*
X103333550Y-115375266D01*
X103367416Y-115409133D01*
X103401283Y-115476866D01*
X103401283Y-115680066D01*
X103367416Y-115747800D01*
X103333550Y-115781666D01*
X103265816Y-115815533D01*
X103130350Y-115815533D01*
X103062616Y-115781666D01*
X103977016Y-115781666D02*
X103909283Y-115815533D01*
X103773816Y-115815533D01*
X103706083Y-115781666D01*
X103672216Y-115713933D01*
X103672216Y-115443000D01*
X103706083Y-115375266D01*
X103773816Y-115341400D01*
X103909283Y-115341400D01*
X103977016Y-115375266D01*
X104010883Y-115443000D01*
X104010883Y-115510733D01*
X103672216Y-115578466D01*
X105263950Y-115747800D02*
X105230083Y-115781666D01*
X105128483Y-115815533D01*
X105060750Y-115815533D01*
X104959150Y-115781666D01*
X104891416Y-115713933D01*
X104857550Y-115646200D01*
X104823683Y-115510733D01*
X104823683Y-115409133D01*
X104857550Y-115273666D01*
X104891416Y-115205933D01*
X104959150Y-115138200D01*
X105060750Y-115104333D01*
X105128483Y-115104333D01*
X105230083Y-115138200D01*
X105263950Y-115172066D01*
X105670350Y-115815533D02*
X105602616Y-115781666D01*
X105568750Y-115713933D01*
X105568750Y-115104333D01*
X106042883Y-115815533D02*
X105975150Y-115781666D01*
X105941283Y-115747800D01*
X105907416Y-115680066D01*
X105907416Y-115476866D01*
X105941283Y-115409133D01*
X105975150Y-115375266D01*
X106042883Y-115341400D01*
X106144483Y-115341400D01*
X106212216Y-115375266D01*
X106246083Y-115409133D01*
X106279950Y-115476866D01*
X106279950Y-115680066D01*
X106246083Y-115747800D01*
X106212216Y-115781666D01*
X106144483Y-115815533D01*
X106042883Y-115815533D01*
X106889550Y-115781666D02*
X106821816Y-115815533D01*
X106686350Y-115815533D01*
X106618616Y-115781666D01*
X106584750Y-115747800D01*
X106550883Y-115680066D01*
X106550883Y-115476866D01*
X106584750Y-115409133D01*
X106618616Y-115375266D01*
X106686350Y-115341400D01*
X106821816Y-115341400D01*
X106889550Y-115375266D01*
X107194350Y-115815533D02*
X107194350Y-115104333D01*
X107262083Y-115544600D02*
X107465283Y-115815533D01*
X107465283Y-115341400D02*
X107194350Y-115612333D01*
X108549016Y-115443000D02*
X108650616Y-115476866D01*
X108684483Y-115510733D01*
X108718350Y-115578466D01*
X108718350Y-115680066D01*
X108684483Y-115747800D01*
X108650616Y-115781666D01*
X108582883Y-115815533D01*
X108311950Y-115815533D01*
X108311950Y-115104333D01*
X108549016Y-115104333D01*
X108616750Y-115138200D01*
X108650616Y-115172066D01*
X108684483Y-115239800D01*
X108684483Y-115307533D01*
X108650616Y-115375266D01*
X108616750Y-115409133D01*
X108549016Y-115443000D01*
X108311950Y-115443000D01*
X109327950Y-115815533D02*
X109327950Y-115443000D01*
X109294083Y-115375266D01*
X109226350Y-115341400D01*
X109090883Y-115341400D01*
X109023150Y-115375266D01*
X109327950Y-115781666D02*
X109260216Y-115815533D01*
X109090883Y-115815533D01*
X109023150Y-115781666D01*
X108989283Y-115713933D01*
X108989283Y-115646200D01*
X109023150Y-115578466D01*
X109090883Y-115544600D01*
X109260216Y-115544600D01*
X109327950Y-115510733D01*
X109632750Y-115781666D02*
X109700483Y-115815533D01*
X109835950Y-115815533D01*
X109903683Y-115781666D01*
X109937550Y-115713933D01*
X109937550Y-115680066D01*
X109903683Y-115612333D01*
X109835950Y-115578466D01*
X109734350Y-115578466D01*
X109666616Y-115544600D01*
X109632750Y-115476866D01*
X109632750Y-115443000D01*
X109666616Y-115375266D01*
X109734350Y-115341400D01*
X109835950Y-115341400D01*
X109903683Y-115375266D01*
X110513283Y-115781666D02*
X110445550Y-115815533D01*
X110310083Y-115815533D01*
X110242350Y-115781666D01*
X110208483Y-115713933D01*
X110208483Y-115443000D01*
X110242350Y-115375266D01*
X110310083Y-115341400D01*
X110445550Y-115341400D01*
X110513283Y-115375266D01*
X110547150Y-115443000D01*
X110547150Y-115510733D01*
X110208483Y-115578466D01*
X82065283Y-117009333D02*
X82065283Y-116298133D01*
X82234616Y-116298133D01*
X82336216Y-116332000D01*
X82403950Y-116399733D01*
X82437816Y-116467466D01*
X82471683Y-116602933D01*
X82471683Y-116704533D01*
X82437816Y-116840000D01*
X82403950Y-116907733D01*
X82336216Y-116975466D01*
X82234616Y-117009333D01*
X82065283Y-117009333D01*
X83047416Y-116975466D02*
X82979683Y-117009333D01*
X82844216Y-117009333D01*
X82776483Y-116975466D01*
X82742616Y-116907733D01*
X82742616Y-116636800D01*
X82776483Y-116569066D01*
X82844216Y-116535200D01*
X82979683Y-116535200D01*
X83047416Y-116569066D01*
X83081283Y-116636800D01*
X83081283Y-116704533D01*
X82742616Y-116772266D01*
X83352216Y-116975466D02*
X83419950Y-117009333D01*
X83555416Y-117009333D01*
X83623150Y-116975466D01*
X83657016Y-116907733D01*
X83657016Y-116873866D01*
X83623150Y-116806133D01*
X83555416Y-116772266D01*
X83453816Y-116772266D01*
X83386083Y-116738400D01*
X83352216Y-116670666D01*
X83352216Y-116636800D01*
X83386083Y-116569066D01*
X83453816Y-116535200D01*
X83555416Y-116535200D01*
X83623150Y-116569066D01*
X83961816Y-117009333D02*
X83961816Y-116535200D01*
X83961816Y-116298133D02*
X83927950Y-116332000D01*
X83961816Y-116365866D01*
X83995683Y-116332000D01*
X83961816Y-116298133D01*
X83961816Y-116365866D01*
X84605283Y-116535200D02*
X84605283Y-117110933D01*
X84571416Y-117178666D01*
X84537550Y-117212533D01*
X84469816Y-117246400D01*
X84368216Y-117246400D01*
X84300483Y-117212533D01*
X84605283Y-116975466D02*
X84537550Y-117009333D01*
X84402083Y-117009333D01*
X84334350Y-116975466D01*
X84300483Y-116941600D01*
X84266616Y-116873866D01*
X84266616Y-116670666D01*
X84300483Y-116602933D01*
X84334350Y-116569066D01*
X84402083Y-116535200D01*
X84537550Y-116535200D01*
X84605283Y-116569066D01*
X84943950Y-116535200D02*
X84943950Y-117009333D01*
X84943950Y-116602933D02*
X84977816Y-116569066D01*
X85045550Y-116535200D01*
X85147150Y-116535200D01*
X85214883Y-116569066D01*
X85248750Y-116636800D01*
X85248750Y-117009333D01*
X85858350Y-116975466D02*
X85790616Y-117009333D01*
X85655150Y-117009333D01*
X85587416Y-116975466D01*
X85553550Y-116907733D01*
X85553550Y-116636800D01*
X85587416Y-116569066D01*
X85655150Y-116535200D01*
X85790616Y-116535200D01*
X85858350Y-116569066D01*
X85892216Y-116636800D01*
X85892216Y-116704533D01*
X85553550Y-116772266D01*
X86501816Y-117009333D02*
X86501816Y-116298133D01*
X86501816Y-116975466D02*
X86434083Y-117009333D01*
X86298616Y-117009333D01*
X86230883Y-116975466D01*
X86197016Y-116941600D01*
X86163150Y-116873866D01*
X86163150Y-116670666D01*
X86197016Y-116602933D01*
X86230883Y-116569066D01*
X86298616Y-116535200D01*
X86434083Y-116535200D01*
X86501816Y-116569066D01*
X87382350Y-117009333D02*
X87382350Y-116298133D01*
X87382350Y-116569066D02*
X87450083Y-116535200D01*
X87585550Y-116535200D01*
X87653283Y-116569066D01*
X87687150Y-116602933D01*
X87721016Y-116670666D01*
X87721016Y-116873866D01*
X87687150Y-116941600D01*
X87653283Y-116975466D01*
X87585550Y-117009333D01*
X87450083Y-117009333D01*
X87382350Y-116975466D01*
X87958083Y-116535200D02*
X88127416Y-117009333D01*
X88296750Y-116535200D02*
X88127416Y-117009333D01*
X88059683Y-117178666D01*
X88025816Y-117212533D01*
X87958083Y-117246400D01*
X89109550Y-117009333D02*
X89109550Y-116298133D01*
X89515950Y-117009333D02*
X89211150Y-116602933D01*
X89515950Y-116298133D02*
X89109550Y-116704533D01*
X90091683Y-116975466D02*
X90023950Y-117009333D01*
X89888483Y-117009333D01*
X89820750Y-116975466D01*
X89786883Y-116907733D01*
X89786883Y-116636800D01*
X89820750Y-116569066D01*
X89888483Y-116535200D01*
X90023950Y-116535200D01*
X90091683Y-116569066D01*
X90125550Y-116636800D01*
X90125550Y-116704533D01*
X89786883Y-116772266D01*
X90430350Y-117009333D02*
X90430350Y-116535200D01*
X90430350Y-116298133D02*
X90396483Y-116332000D01*
X90430350Y-116365866D01*
X90464216Y-116332000D01*
X90430350Y-116298133D01*
X90430350Y-116365866D01*
X90667416Y-116535200D02*
X90938350Y-116535200D01*
X90769016Y-116298133D02*
X90769016Y-116907733D01*
X90802883Y-116975466D01*
X90870616Y-117009333D01*
X90938350Y-117009333D01*
X91175416Y-117009333D02*
X91175416Y-116298133D01*
X91480216Y-117009333D02*
X91480216Y-116636800D01*
X91446350Y-116569066D01*
X91378616Y-116535200D01*
X91277016Y-116535200D01*
X91209283Y-116569066D01*
X91175416Y-116602933D01*
X92597816Y-116636800D02*
X92699416Y-116670666D01*
X92733283Y-116704533D01*
X92767150Y-116772266D01*
X92767150Y-116873866D01*
X92733283Y-116941600D01*
X92699416Y-116975466D01*
X92631683Y-117009333D01*
X92360750Y-117009333D01*
X92360750Y-116298133D01*
X92597816Y-116298133D01*
X92665550Y-116332000D01*
X92699416Y-116365866D01*
X92733283Y-116433600D01*
X92733283Y-116501333D01*
X92699416Y-116569066D01*
X92665550Y-116602933D01*
X92597816Y-116636800D01*
X92360750Y-116636800D01*
X93376750Y-116535200D02*
X93376750Y-117009333D01*
X93071950Y-116535200D02*
X93071950Y-116907733D01*
X93105816Y-116975466D01*
X93173550Y-117009333D01*
X93275150Y-117009333D01*
X93342883Y-116975466D01*
X93376750Y-116941600D01*
X93715416Y-117009333D02*
X93715416Y-116535200D01*
X93715416Y-116670666D02*
X93749283Y-116602933D01*
X93783150Y-116569066D01*
X93850883Y-116535200D01*
X93918616Y-116535200D01*
X94087950Y-116535200D02*
X94460483Y-116535200D01*
X94087950Y-117009333D01*
X94460483Y-117009333D01*
X94731416Y-117009333D02*
X94731416Y-116535200D01*
X94731416Y-116298133D02*
X94697550Y-116332000D01*
X94731416Y-116365866D01*
X94765283Y-116332000D01*
X94731416Y-116298133D01*
X94731416Y-116365866D01*
X95070083Y-116535200D02*
X95070083Y-117009333D01*
X95070083Y-116602933D02*
X95103950Y-116569066D01*
X95171683Y-116535200D01*
X95273283Y-116535200D01*
X95341016Y-116569066D01*
X95374883Y-116636800D01*
X95374883Y-117009333D01*
X95679683Y-116975466D02*
X95747416Y-117009333D01*
X95882883Y-117009333D01*
X95950616Y-116975466D01*
X95984483Y-116907733D01*
X95984483Y-116873866D01*
X95950616Y-116806133D01*
X95882883Y-116772266D01*
X95781283Y-116772266D01*
X95713550Y-116738400D01*
X95679683Y-116670666D01*
X95679683Y-116636800D01*
X95713550Y-116569066D01*
X95781283Y-116535200D01*
X95882883Y-116535200D01*
X95950616Y-116569066D01*
X96289283Y-117009333D02*
X96289283Y-116298133D01*
X96357016Y-116738400D02*
X96560216Y-117009333D01*
X96560216Y-116535200D02*
X96289283Y-116806133D01*
X96865016Y-117009333D02*
X96865016Y-116535200D01*
X96865016Y-116298133D02*
X96831150Y-116332000D01*
X96865016Y-116365866D01*
X96898883Y-116332000D01*
X96865016Y-116298133D01*
X96865016Y-116365866D01*
X97948750Y-117280266D02*
X97914883Y-117246400D01*
X97847150Y-117144800D01*
X97813283Y-117077066D01*
X97779416Y-116975466D01*
X97745550Y-116806133D01*
X97745550Y-116670666D01*
X97779416Y-116501333D01*
X97813283Y-116399733D01*
X97847150Y-116332000D01*
X97914883Y-116230400D01*
X97948750Y-116196533D01*
X98659950Y-116670666D02*
X98626083Y-116636800D01*
X98558350Y-116602933D01*
X98490616Y-116602933D01*
X98422883Y-116636800D01*
X98389016Y-116670666D01*
X98355150Y-116738400D01*
X98355150Y-116806133D01*
X98389016Y-116873866D01*
X98422883Y-116907733D01*
X98490616Y-116941600D01*
X98558350Y-116941600D01*
X98626083Y-116907733D01*
X98659950Y-116873866D01*
X98659950Y-116602933D02*
X98659950Y-116873866D01*
X98693816Y-116907733D01*
X98727683Y-116907733D01*
X98795416Y-116873866D01*
X98829283Y-116806133D01*
X98829283Y-116636800D01*
X98761550Y-116535200D01*
X98659950Y-116467466D01*
X98524483Y-116433600D01*
X98389016Y-116467466D01*
X98287416Y-116535200D01*
X98219683Y-116636800D01*
X98185816Y-116772266D01*
X98219683Y-116907733D01*
X98287416Y-117009333D01*
X98389016Y-117077066D01*
X98524483Y-117110933D01*
X98659950Y-117077066D01*
X98761550Y-117009333D01*
X99134083Y-117009333D02*
X99134083Y-116298133D01*
X99201816Y-116738400D02*
X99405016Y-117009333D01*
X99405016Y-116535200D02*
X99134083Y-116806133D01*
X99709816Y-117009333D02*
X99709816Y-116298133D01*
X99709816Y-116569066D02*
X99777550Y-116535200D01*
X99913016Y-116535200D01*
X99980750Y-116569066D01*
X100014616Y-116602933D01*
X100048483Y-116670666D01*
X100048483Y-116873866D01*
X100014616Y-116941600D01*
X99980750Y-116975466D01*
X99913016Y-117009333D01*
X99777550Y-117009333D01*
X99709816Y-116975466D01*
X100285550Y-117009333D02*
X100658083Y-116535200D01*
X100285550Y-116535200D02*
X100658083Y-117009333D01*
X101030616Y-116602933D02*
X100962883Y-116569066D01*
X100929016Y-116535200D01*
X100895150Y-116467466D01*
X100895150Y-116433600D01*
X100929016Y-116365866D01*
X100962883Y-116332000D01*
X101030616Y-116298133D01*
X101166083Y-116298133D01*
X101233816Y-116332000D01*
X101267683Y-116365866D01*
X101301550Y-116433600D01*
X101301550Y-116467466D01*
X101267683Y-116535200D01*
X101233816Y-116569066D01*
X101166083Y-116602933D01*
X101030616Y-116602933D01*
X100962883Y-116636800D01*
X100929016Y-116670666D01*
X100895150Y-116738400D01*
X100895150Y-116873866D01*
X100929016Y-116941600D01*
X100962883Y-116975466D01*
X101030616Y-117009333D01*
X101166083Y-117009333D01*
X101233816Y-116975466D01*
X101267683Y-116941600D01*
X101301550Y-116873866D01*
X101301550Y-116738400D01*
X101267683Y-116670666D01*
X101233816Y-116636800D01*
X101166083Y-116602933D01*
X101978883Y-117009333D02*
X101572483Y-117009333D01*
X101775683Y-117009333D02*
X101775683Y-116298133D01*
X101707950Y-116399733D01*
X101640216Y-116467466D01*
X101572483Y-116501333D01*
X102215950Y-117280266D02*
X102249816Y-117246400D01*
X102317550Y-117144800D01*
X102351416Y-117077066D01*
X102385283Y-116975466D01*
X102419150Y-116806133D01*
X102419150Y-116670666D01*
X102385283Y-116501333D01*
X102351416Y-116399733D01*
X102317550Y-116332000D01*
X102249816Y-116230400D01*
X102215950Y-116196533D01*
X103299683Y-117009333D02*
X103299683Y-116535200D01*
X103299683Y-116298133D02*
X103265816Y-116332000D01*
X103299683Y-116365866D01*
X103333550Y-116332000D01*
X103299683Y-116298133D01*
X103299683Y-116365866D01*
X103638350Y-116535200D02*
X103638350Y-117009333D01*
X103638350Y-116602933D02*
X103672216Y-116569066D01*
X103739950Y-116535200D01*
X103841550Y-116535200D01*
X103909283Y-116569066D01*
X103943150Y-116636800D01*
X103943150Y-117009333D01*
X105230083Y-116941600D02*
X105196216Y-116975466D01*
X105094616Y-117009333D01*
X105026883Y-117009333D01*
X104925283Y-116975466D01*
X104857550Y-116907733D01*
X104823683Y-116840000D01*
X104789816Y-116704533D01*
X104789816Y-116602933D01*
X104823683Y-116467466D01*
X104857550Y-116399733D01*
X104925283Y-116332000D01*
X105026883Y-116298133D01*
X105094616Y-116298133D01*
X105196216Y-116332000D01*
X105230083Y-116365866D01*
X105534883Y-117009333D02*
X105534883Y-116298133D01*
X105839683Y-117009333D02*
X105839683Y-116636800D01*
X105805816Y-116569066D01*
X105738083Y-116535200D01*
X105636483Y-116535200D01*
X105568750Y-116569066D01*
X105534883Y-116602933D01*
X106178350Y-117009333D02*
X106178350Y-116535200D01*
X106178350Y-116298133D02*
X106144483Y-116332000D01*
X106178350Y-116365866D01*
X106212216Y-116332000D01*
X106178350Y-116298133D01*
X106178350Y-116365866D01*
X106821816Y-116975466D02*
X106754083Y-117009333D01*
X106618616Y-117009333D01*
X106550883Y-116975466D01*
X106517016Y-116941600D01*
X106483150Y-116873866D01*
X106483150Y-116670666D01*
X106517016Y-116602933D01*
X106550883Y-116569066D01*
X106618616Y-116535200D01*
X106754083Y-116535200D01*
X106821816Y-116569066D01*
X107431416Y-117009333D02*
X107431416Y-116636800D01*
X107397550Y-116569066D01*
X107329816Y-116535200D01*
X107194350Y-116535200D01*
X107126616Y-116569066D01*
X107431416Y-116975466D02*
X107363683Y-117009333D01*
X107194350Y-117009333D01*
X107126616Y-116975466D01*
X107092750Y-116907733D01*
X107092750Y-116840000D01*
X107126616Y-116772266D01*
X107194350Y-116738400D01*
X107363683Y-116738400D01*
X107431416Y-116704533D01*
X108074883Y-116535200D02*
X108074883Y-117110933D01*
X108041016Y-117178666D01*
X108007150Y-117212533D01*
X107939416Y-117246400D01*
X107837816Y-117246400D01*
X107770083Y-117212533D01*
X108074883Y-116975466D02*
X108007150Y-117009333D01*
X107871683Y-117009333D01*
X107803950Y-116975466D01*
X107770083Y-116941600D01*
X107736216Y-116873866D01*
X107736216Y-116670666D01*
X107770083Y-116602933D01*
X107803950Y-116569066D01*
X107871683Y-116535200D01*
X108007150Y-116535200D01*
X108074883Y-116569066D01*
X108515150Y-117009333D02*
X108447416Y-116975466D01*
X108413550Y-116941600D01*
X108379683Y-116873866D01*
X108379683Y-116670666D01*
X108413550Y-116602933D01*
X108447416Y-116569066D01*
X108515150Y-116535200D01*
X108616750Y-116535200D01*
X108684483Y-116569066D01*
X108718350Y-116602933D01*
X108752216Y-116670666D01*
X108752216Y-116873866D01*
X108718350Y-116941600D01*
X108684483Y-116975466D01*
X108616750Y-117009333D01*
X108515150Y-117009333D01*
X109090883Y-116975466D02*
X109090883Y-117009333D01*
X109057016Y-117077066D01*
X109023150Y-117110933D01*
X109937550Y-117009333D02*
X109937550Y-116298133D01*
X110377816Y-117009333D02*
X110310083Y-116975466D01*
X110276216Y-116907733D01*
X110276216Y-116298133D01*
X110750350Y-117009333D02*
X110682616Y-116975466D01*
X110648750Y-116907733D01*
X110648750Y-116298133D01*
X111021283Y-117009333D02*
X111021283Y-116535200D01*
X111021283Y-116298133D02*
X110987416Y-116332000D01*
X111021283Y-116365866D01*
X111055150Y-116332000D01*
X111021283Y-116298133D01*
X111021283Y-116365866D01*
X111359950Y-116535200D02*
X111359950Y-117009333D01*
X111359950Y-116602933D02*
X111393816Y-116569066D01*
X111461550Y-116535200D01*
X111563150Y-116535200D01*
X111630883Y-116569066D01*
X111664750Y-116636800D01*
X111664750Y-117009333D01*
X112105016Y-117009333D02*
X112037283Y-116975466D01*
X112003416Y-116941600D01*
X111969550Y-116873866D01*
X111969550Y-116670666D01*
X112003416Y-116602933D01*
X112037283Y-116569066D01*
X112105016Y-116535200D01*
X112206616Y-116535200D01*
X112274350Y-116569066D01*
X112308216Y-116602933D01*
X112342083Y-116670666D01*
X112342083Y-116873866D01*
X112308216Y-116941600D01*
X112274350Y-116975466D01*
X112206616Y-117009333D01*
X112105016Y-117009333D01*
X112646883Y-117009333D02*
X112646883Y-116535200D01*
X112646883Y-116298133D02*
X112613016Y-116332000D01*
X112646883Y-116365866D01*
X112680750Y-116332000D01*
X112646883Y-116298133D01*
X112646883Y-116365866D01*
X112951683Y-116975466D02*
X113019416Y-117009333D01*
X113154883Y-117009333D01*
X113222616Y-116975466D01*
X113256483Y-116907733D01*
X113256483Y-116873866D01*
X113222616Y-116806133D01*
X113154883Y-116772266D01*
X113053283Y-116772266D01*
X112985550Y-116738400D01*
X112951683Y-116670666D01*
X112951683Y-116636800D01*
X112985550Y-116569066D01*
X113053283Y-116535200D01*
X113154883Y-116535200D01*
X113222616Y-116569066D01*
X82031416Y-118169266D02*
X82133016Y-118203133D01*
X82302350Y-118203133D01*
X82370083Y-118169266D01*
X82403950Y-118135400D01*
X82437816Y-118067666D01*
X82437816Y-117999933D01*
X82403950Y-117932200D01*
X82370083Y-117898333D01*
X82302350Y-117864466D01*
X82166883Y-117830600D01*
X82099150Y-117796733D01*
X82065283Y-117762866D01*
X82031416Y-117695133D01*
X82031416Y-117627400D01*
X82065283Y-117559666D01*
X82099150Y-117525800D01*
X82166883Y-117491933D01*
X82336216Y-117491933D01*
X82437816Y-117525800D01*
X82844216Y-118203133D02*
X82776483Y-118169266D01*
X82742616Y-118135400D01*
X82708750Y-118067666D01*
X82708750Y-117864466D01*
X82742616Y-117796733D01*
X82776483Y-117762866D01*
X82844216Y-117729000D01*
X82945816Y-117729000D01*
X83013550Y-117762866D01*
X83047416Y-117796733D01*
X83081283Y-117864466D01*
X83081283Y-118067666D01*
X83047416Y-118135400D01*
X83013550Y-118169266D01*
X82945816Y-118203133D01*
X82844216Y-118203133D01*
X83690883Y-117729000D02*
X83690883Y-118203133D01*
X83386083Y-117729000D02*
X83386083Y-118101533D01*
X83419950Y-118169266D01*
X83487683Y-118203133D01*
X83589283Y-118203133D01*
X83657016Y-118169266D01*
X83690883Y-118135400D01*
X84029550Y-118203133D02*
X84029550Y-117729000D01*
X84029550Y-117864466D02*
X84063416Y-117796733D01*
X84097283Y-117762866D01*
X84165016Y-117729000D01*
X84232750Y-117729000D01*
X84774616Y-118169266D02*
X84706883Y-118203133D01*
X84571416Y-118203133D01*
X84503683Y-118169266D01*
X84469816Y-118135400D01*
X84435950Y-118067666D01*
X84435950Y-117864466D01*
X84469816Y-117796733D01*
X84503683Y-117762866D01*
X84571416Y-117729000D01*
X84706883Y-117729000D01*
X84774616Y-117762866D01*
X85350350Y-118169266D02*
X85282616Y-118203133D01*
X85147150Y-118203133D01*
X85079416Y-118169266D01*
X85045550Y-118101533D01*
X85045550Y-117830600D01*
X85079416Y-117762866D01*
X85147150Y-117729000D01*
X85282616Y-117729000D01*
X85350350Y-117762866D01*
X85384216Y-117830600D01*
X85384216Y-117898333D01*
X85045550Y-117966066D01*
X85722883Y-118169266D02*
X85722883Y-118203133D01*
X85689016Y-118270866D01*
X85655150Y-118304733D01*
X86671150Y-118203133D02*
X86603416Y-118169266D01*
X86569550Y-118101533D01*
X86569550Y-117491933D01*
X86942083Y-118203133D02*
X86942083Y-117729000D01*
X86942083Y-117491933D02*
X86908216Y-117525800D01*
X86942083Y-117559666D01*
X86975950Y-117525800D01*
X86942083Y-117491933D01*
X86942083Y-117559666D01*
X87585550Y-118169266D02*
X87517816Y-118203133D01*
X87382350Y-118203133D01*
X87314616Y-118169266D01*
X87280750Y-118135400D01*
X87246883Y-118067666D01*
X87246883Y-117864466D01*
X87280750Y-117796733D01*
X87314616Y-117762866D01*
X87382350Y-117729000D01*
X87517816Y-117729000D01*
X87585550Y-117762866D01*
X88161283Y-118169266D02*
X88093550Y-118203133D01*
X87958083Y-118203133D01*
X87890350Y-118169266D01*
X87856483Y-118101533D01*
X87856483Y-117830600D01*
X87890350Y-117762866D01*
X87958083Y-117729000D01*
X88093550Y-117729000D01*
X88161283Y-117762866D01*
X88195150Y-117830600D01*
X88195150Y-117898333D01*
X87856483Y-117966066D01*
X88499950Y-117729000D02*
X88499950Y-118203133D01*
X88499950Y-117796733D02*
X88533816Y-117762866D01*
X88601550Y-117729000D01*
X88703150Y-117729000D01*
X88770883Y-117762866D01*
X88804750Y-117830600D01*
X88804750Y-118203133D01*
X89109550Y-118169266D02*
X89177283Y-118203133D01*
X89312750Y-118203133D01*
X89380483Y-118169266D01*
X89414350Y-118101533D01*
X89414350Y-118067666D01*
X89380483Y-117999933D01*
X89312750Y-117966066D01*
X89211150Y-117966066D01*
X89143416Y-117932200D01*
X89109550Y-117864466D01*
X89109550Y-117830600D01*
X89143416Y-117762866D01*
X89211150Y-117729000D01*
X89312750Y-117729000D01*
X89380483Y-117762866D01*
X89990083Y-118169266D02*
X89922350Y-118203133D01*
X89786883Y-118203133D01*
X89719150Y-118169266D01*
X89685283Y-118101533D01*
X89685283Y-117830600D01*
X89719150Y-117762866D01*
X89786883Y-117729000D01*
X89922350Y-117729000D01*
X89990083Y-117762866D01*
X90023950Y-117830600D01*
X90023950Y-117898333D01*
X89685283Y-117966066D01*
X91446350Y-118203133D02*
X91412483Y-118203133D01*
X91344750Y-118169266D01*
X91243150Y-118067666D01*
X91073816Y-117864466D01*
X91006083Y-117762866D01*
X90972216Y-117661266D01*
X90972216Y-117593533D01*
X91006083Y-117525800D01*
X91073816Y-117491933D01*
X91107683Y-117491933D01*
X91175416Y-117525800D01*
X91209283Y-117593533D01*
X91209283Y-117627400D01*
X91175416Y-117695133D01*
X91141550Y-117729000D01*
X90938350Y-117864466D01*
X90904483Y-117898333D01*
X90870616Y-117966066D01*
X90870616Y-118067666D01*
X90904483Y-118135400D01*
X90938350Y-118169266D01*
X91006083Y-118203133D01*
X91107683Y-118203133D01*
X91175416Y-118169266D01*
X91209283Y-118135400D01*
X91310883Y-117999933D01*
X91344750Y-117898333D01*
X91344750Y-117830600D01*
X92394616Y-118203133D02*
X92326883Y-118169266D01*
X92293016Y-118135400D01*
X92259150Y-118067666D01*
X92259150Y-117864466D01*
X92293016Y-117796733D01*
X92326883Y-117762866D01*
X92394616Y-117729000D01*
X92496216Y-117729000D01*
X92563950Y-117762866D01*
X92597816Y-117796733D01*
X92631683Y-117864466D01*
X92631683Y-118067666D01*
X92597816Y-118135400D01*
X92563950Y-118169266D01*
X92496216Y-118203133D01*
X92394616Y-118203133D01*
X92834883Y-117729000D02*
X93105816Y-117729000D01*
X92936483Y-117491933D02*
X92936483Y-118101533D01*
X92970350Y-118169266D01*
X93038083Y-118203133D01*
X93105816Y-118203133D01*
X93342883Y-118203133D02*
X93342883Y-117491933D01*
X93647683Y-118203133D02*
X93647683Y-117830600D01*
X93613816Y-117762866D01*
X93546083Y-117729000D01*
X93444483Y-117729000D01*
X93376750Y-117762866D01*
X93342883Y-117796733D01*
X94257283Y-118169266D02*
X94189550Y-118203133D01*
X94054083Y-118203133D01*
X93986350Y-118169266D01*
X93952483Y-118101533D01*
X93952483Y-117830600D01*
X93986350Y-117762866D01*
X94054083Y-117729000D01*
X94189550Y-117729000D01*
X94257283Y-117762866D01*
X94291150Y-117830600D01*
X94291150Y-117898333D01*
X93952483Y-117966066D01*
X94595950Y-118203133D02*
X94595950Y-117729000D01*
X94595950Y-117864466D02*
X94629816Y-117796733D01*
X94663683Y-117762866D01*
X94731416Y-117729000D01*
X94799150Y-117729000D01*
X95882883Y-118203133D02*
X95882883Y-117491933D01*
X95882883Y-118169266D02*
X95815150Y-118203133D01*
X95679683Y-118203133D01*
X95611950Y-118169266D01*
X95578083Y-118135400D01*
X95544216Y-118067666D01*
X95544216Y-117864466D01*
X95578083Y-117796733D01*
X95611950Y-117762866D01*
X95679683Y-117729000D01*
X95815150Y-117729000D01*
X95882883Y-117762866D01*
X96492483Y-118169266D02*
X96424750Y-118203133D01*
X96289283Y-118203133D01*
X96221550Y-118169266D01*
X96187683Y-118101533D01*
X96187683Y-117830600D01*
X96221550Y-117762866D01*
X96289283Y-117729000D01*
X96424750Y-117729000D01*
X96492483Y-117762866D01*
X96526350Y-117830600D01*
X96526350Y-117898333D01*
X96187683Y-117966066D01*
X96729550Y-117729000D02*
X97000483Y-117729000D01*
X96831150Y-117491933D02*
X96831150Y-118101533D01*
X96865016Y-118169266D01*
X96932750Y-118203133D01*
X97000483Y-118203133D01*
X97542350Y-118203133D02*
X97542350Y-117830600D01*
X97508483Y-117762866D01*
X97440750Y-117729000D01*
X97305283Y-117729000D01*
X97237550Y-117762866D01*
X97542350Y-118169266D02*
X97474616Y-118203133D01*
X97305283Y-118203133D01*
X97237550Y-118169266D01*
X97203683Y-118101533D01*
X97203683Y-118033800D01*
X97237550Y-117966066D01*
X97305283Y-117932200D01*
X97474616Y-117932200D01*
X97542350Y-117898333D01*
X97881016Y-118203133D02*
X97881016Y-117729000D01*
X97881016Y-117491933D02*
X97847150Y-117525800D01*
X97881016Y-117559666D01*
X97914883Y-117525800D01*
X97881016Y-117491933D01*
X97881016Y-117559666D01*
X98321283Y-118203133D02*
X98253550Y-118169266D01*
X98219683Y-118101533D01*
X98219683Y-117491933D01*
X98558350Y-118169266D02*
X98626083Y-118203133D01*
X98761550Y-118203133D01*
X98829283Y-118169266D01*
X98863150Y-118101533D01*
X98863150Y-118067666D01*
X98829283Y-117999933D01*
X98761550Y-117966066D01*
X98659950Y-117966066D01*
X98592216Y-117932200D01*
X98558350Y-117864466D01*
X98558350Y-117830600D01*
X98592216Y-117762866D01*
X98659950Y-117729000D01*
X98761550Y-117729000D01*
X98829283Y-117762866D01*
X99167950Y-118135400D02*
X99201816Y-118169266D01*
X99167950Y-118203133D01*
X99134083Y-118169266D01*
X99167950Y-118135400D01*
X99167950Y-118203133D01*
X99167950Y-117762866D02*
X99201816Y-117796733D01*
X99167950Y-117830600D01*
X99134083Y-117796733D01*
X99167950Y-117762866D01*
X99167950Y-117830600D01*
X100048483Y-118203133D02*
X100048483Y-117491933D01*
X100353283Y-118203133D02*
X100353283Y-117830600D01*
X100319416Y-117762866D01*
X100251683Y-117729000D01*
X100150083Y-117729000D01*
X100082350Y-117762866D01*
X100048483Y-117796733D01*
X100590350Y-117729000D02*
X100861283Y-117729000D01*
X100691950Y-117491933D02*
X100691950Y-118101533D01*
X100725816Y-118169266D01*
X100793550Y-118203133D01*
X100861283Y-118203133D01*
X100996750Y-117729000D02*
X101267683Y-117729000D01*
X101098350Y-117491933D02*
X101098350Y-118101533D01*
X101132216Y-118169266D01*
X101199950Y-118203133D01*
X101267683Y-118203133D01*
X101504750Y-117729000D02*
X101504750Y-118440200D01*
X101504750Y-117762866D02*
X101572483Y-117729000D01*
X101707950Y-117729000D01*
X101775683Y-117762866D01*
X101809550Y-117796733D01*
X101843416Y-117864466D01*
X101843416Y-118067666D01*
X101809550Y-118135400D01*
X101775683Y-118169266D01*
X101707950Y-118203133D01*
X101572483Y-118203133D01*
X101504750Y-118169266D01*
X102114350Y-118169266D02*
X102182083Y-118203133D01*
X102317550Y-118203133D01*
X102385283Y-118169266D01*
X102419150Y-118101533D01*
X102419150Y-118067666D01*
X102385283Y-117999933D01*
X102317550Y-117966066D01*
X102215950Y-117966066D01*
X102148216Y-117932200D01*
X102114350Y-117864466D01*
X102114350Y-117830600D01*
X102148216Y-117762866D01*
X102215950Y-117729000D01*
X102317550Y-117729000D01*
X102385283Y-117762866D01*
X102723950Y-118135400D02*
X102757816Y-118169266D01*
X102723950Y-118203133D01*
X102690083Y-118169266D01*
X102723950Y-118135400D01*
X102723950Y-118203133D01*
X102723950Y-117762866D02*
X102757816Y-117796733D01*
X102723950Y-117830600D01*
X102690083Y-117796733D01*
X102723950Y-117762866D01*
X102723950Y-117830600D01*
X103570616Y-117458066D02*
X102961016Y-118372466D01*
X104315683Y-117458066D02*
X103706083Y-118372466D01*
X104857550Y-117729000D02*
X104857550Y-118304733D01*
X104823683Y-118372466D01*
X104789816Y-118406333D01*
X104722083Y-118440200D01*
X104620483Y-118440200D01*
X104552750Y-118406333D01*
X104857550Y-118169266D02*
X104789816Y-118203133D01*
X104654350Y-118203133D01*
X104586616Y-118169266D01*
X104552750Y-118135400D01*
X104518883Y-118067666D01*
X104518883Y-117864466D01*
X104552750Y-117796733D01*
X104586616Y-117762866D01*
X104654350Y-117729000D01*
X104789816Y-117729000D01*
X104857550Y-117762866D01*
X105196216Y-118203133D02*
X105196216Y-117729000D01*
X105196216Y-117491933D02*
X105162350Y-117525800D01*
X105196216Y-117559666D01*
X105230083Y-117525800D01*
X105196216Y-117491933D01*
X105196216Y-117559666D01*
X105433283Y-117729000D02*
X105704216Y-117729000D01*
X105534883Y-117491933D02*
X105534883Y-118101533D01*
X105568750Y-118169266D01*
X105636483Y-118203133D01*
X105704216Y-118203133D01*
X105941283Y-118203133D02*
X105941283Y-117491933D01*
X106246083Y-118203133D02*
X106246083Y-117830600D01*
X106212216Y-117762866D01*
X106144483Y-117729000D01*
X106042883Y-117729000D01*
X105975150Y-117762866D01*
X105941283Y-117796733D01*
X106889550Y-117729000D02*
X106889550Y-118203133D01*
X106584750Y-117729000D02*
X106584750Y-118101533D01*
X106618616Y-118169266D01*
X106686350Y-118203133D01*
X106787950Y-118203133D01*
X106855683Y-118169266D01*
X106889550Y-118135400D01*
X107228216Y-118203133D02*
X107228216Y-117491933D01*
X107228216Y-117762866D02*
X107295950Y-117729000D01*
X107431416Y-117729000D01*
X107499150Y-117762866D01*
X107533016Y-117796733D01*
X107566883Y-117864466D01*
X107566883Y-118067666D01*
X107533016Y-118135400D01*
X107499150Y-118169266D01*
X107431416Y-118203133D01*
X107295950Y-118203133D01*
X107228216Y-118169266D01*
X107871683Y-118135400D02*
X107905550Y-118169266D01*
X107871683Y-118203133D01*
X107837816Y-118169266D01*
X107871683Y-118135400D01*
X107871683Y-118203133D01*
X108515150Y-118169266D02*
X108447416Y-118203133D01*
X108311950Y-118203133D01*
X108244216Y-118169266D01*
X108210350Y-118135400D01*
X108176483Y-118067666D01*
X108176483Y-117864466D01*
X108210350Y-117796733D01*
X108244216Y-117762866D01*
X108311950Y-117729000D01*
X108447416Y-117729000D01*
X108515150Y-117762866D01*
X108921550Y-118203133D02*
X108853816Y-118169266D01*
X108819950Y-118135400D01*
X108786083Y-118067666D01*
X108786083Y-117864466D01*
X108819950Y-117796733D01*
X108853816Y-117762866D01*
X108921550Y-117729000D01*
X109023150Y-117729000D01*
X109090883Y-117762866D01*
X109124750Y-117796733D01*
X109158616Y-117864466D01*
X109158616Y-118067666D01*
X109124750Y-118135400D01*
X109090883Y-118169266D01*
X109023150Y-118203133D01*
X108921550Y-118203133D01*
X109463416Y-118203133D02*
X109463416Y-117729000D01*
X109463416Y-117796733D02*
X109497283Y-117762866D01*
X109565016Y-117729000D01*
X109666616Y-117729000D01*
X109734350Y-117762866D01*
X109768216Y-117830600D01*
X109768216Y-118203133D01*
X109768216Y-117830600D02*
X109802083Y-117762866D01*
X109869816Y-117729000D01*
X109971416Y-117729000D01*
X110039150Y-117762866D01*
X110073016Y-117830600D01*
X110073016Y-118203133D01*
X110919683Y-117458066D02*
X110310083Y-118372466D01*
X111156750Y-118203133D02*
X111156750Y-117491933D01*
X111224483Y-117932200D02*
X111427683Y-118203133D01*
X111427683Y-117729000D02*
X111156750Y-117999933D01*
X111732483Y-118203133D02*
X111732483Y-117491933D01*
X111732483Y-117762866D02*
X111800216Y-117729000D01*
X111935683Y-117729000D01*
X112003416Y-117762866D01*
X112037283Y-117796733D01*
X112071150Y-117864466D01*
X112071150Y-118067666D01*
X112037283Y-118135400D01*
X112003416Y-118169266D01*
X111935683Y-118203133D01*
X111800216Y-118203133D01*
X111732483Y-118169266D01*
X112308216Y-118203133D02*
X112680750Y-117729000D01*
X112308216Y-117729000D02*
X112680750Y-118203133D01*
X113053283Y-117796733D02*
X112985550Y-117762866D01*
X112951683Y-117729000D01*
X112917816Y-117661266D01*
X112917816Y-117627400D01*
X112951683Y-117559666D01*
X112985550Y-117525800D01*
X113053283Y-117491933D01*
X113188750Y-117491933D01*
X113256483Y-117525800D01*
X113290350Y-117559666D01*
X113324216Y-117627400D01*
X113324216Y-117661266D01*
X113290350Y-117729000D01*
X113256483Y-117762866D01*
X113188750Y-117796733D01*
X113053283Y-117796733D01*
X112985550Y-117830600D01*
X112951683Y-117864466D01*
X112917816Y-117932200D01*
X112917816Y-118067666D01*
X112951683Y-118135400D01*
X112985550Y-118169266D01*
X113053283Y-118203133D01*
X113188750Y-118203133D01*
X113256483Y-118169266D01*
X113290350Y-118135400D01*
X113324216Y-118067666D01*
X113324216Y-117932200D01*
X113290350Y-117864466D01*
X113256483Y-117830600D01*
X113188750Y-117796733D01*
X114001550Y-118203133D02*
X113595150Y-118203133D01*
X113798350Y-118203133D02*
X113798350Y-117491933D01*
X113730616Y-117593533D01*
X113662883Y-117661266D01*
X113595150Y-117695133D01*
X114814350Y-117458066D02*
X114204750Y-118372466D01*
X114949816Y-117491933D02*
X115356216Y-117491933D01*
X115153016Y-118203133D02*
X115153016Y-117491933D01*
X115898083Y-117729000D02*
X115898083Y-118203133D01*
X115593283Y-117729000D02*
X115593283Y-118101533D01*
X115627150Y-118169266D01*
X115694883Y-118203133D01*
X115796483Y-118203133D01*
X115864216Y-118169266D01*
X115898083Y-118135400D01*
X116236750Y-118203133D02*
X116236750Y-117491933D01*
X116236750Y-117762866D02*
X116304483Y-117729000D01*
X116439950Y-117729000D01*
X116507683Y-117762866D01*
X116541550Y-117796733D01*
X116575416Y-117864466D01*
X116575416Y-118067666D01*
X116541550Y-118135400D01*
X116507683Y-118169266D01*
X116439950Y-118203133D01*
X116304483Y-118203133D01*
X116236750Y-118169266D01*
X117151150Y-118169266D02*
X117083416Y-118203133D01*
X116947950Y-118203133D01*
X116880216Y-118169266D01*
X116846350Y-118101533D01*
X116846350Y-117830600D01*
X116880216Y-117762866D01*
X116947950Y-117729000D01*
X117083416Y-117729000D01*
X117151150Y-117762866D01*
X117185016Y-117830600D01*
X117185016Y-117898333D01*
X116846350Y-117966066D01*
X117896216Y-118135400D02*
X117862350Y-118169266D01*
X117760750Y-118203133D01*
X117693016Y-118203133D01*
X117591416Y-118169266D01*
X117523683Y-118101533D01*
X117489816Y-118033800D01*
X117455950Y-117898333D01*
X117455950Y-117796733D01*
X117489816Y-117661266D01*
X117523683Y-117593533D01*
X117591416Y-117525800D01*
X117693016Y-117491933D01*
X117760750Y-117491933D01*
X117862350Y-117525800D01*
X117896216Y-117559666D01*
X118302616Y-118203133D02*
X118234883Y-118169266D01*
X118201016Y-118101533D01*
X118201016Y-117491933D01*
X118675150Y-118203133D02*
X118607416Y-118169266D01*
X118573550Y-118135400D01*
X118539683Y-118067666D01*
X118539683Y-117864466D01*
X118573550Y-117796733D01*
X118607416Y-117762866D01*
X118675150Y-117729000D01*
X118776750Y-117729000D01*
X118844483Y-117762866D01*
X118878350Y-117796733D01*
X118912216Y-117864466D01*
X118912216Y-118067666D01*
X118878350Y-118135400D01*
X118844483Y-118169266D01*
X118776750Y-118203133D01*
X118675150Y-118203133D01*
X119521816Y-118169266D02*
X119454083Y-118203133D01*
X119318616Y-118203133D01*
X119250883Y-118169266D01*
X119217016Y-118135400D01*
X119183150Y-118067666D01*
X119183150Y-117864466D01*
X119217016Y-117796733D01*
X119250883Y-117762866D01*
X119318616Y-117729000D01*
X119454083Y-117729000D01*
X119521816Y-117762866D01*
X119826616Y-118203133D02*
X119826616Y-117491933D01*
X119894350Y-117932200D02*
X120097550Y-118203133D01*
X120097550Y-117729000D02*
X119826616Y-117999933D01*
D12*
X43495000Y-98267520D02*
G75*
G03X68895000Y-98425000I12700000J-78740D01*
G01*
X71948080Y-98425000D02*
G75*
G03X71948080Y-98425000I-15753080J0D01*
G01*
X72011580Y-98425000D02*
G75*
G03X72011580Y-98425000I-15816580J0D01*
G01*
X78495000Y-98267520D02*
G75*
G03X103895000Y-98425000I12700000J-78740D01*
G01*
X106948080Y-98425000D02*
G75*
G03X106948080Y-98425000I-15753080J0D01*
G01*
X107011580Y-98425000D02*
G75*
G03X107011580Y-98425000I-15816580J0D01*
G01*
X118495000Y-98267520D02*
G75*
G03X143895000Y-98425000I12700000J-78740D01*
G01*
X146948080Y-98425000D02*
G75*
G03X146948080Y-98425000I-15753080J0D01*
G01*
X147011580Y-98425000D02*
G75*
G03X147011580Y-98425000I-15816580J0D01*
G01*
X153495000Y-98267520D02*
G75*
G03X178895000Y-98425000I12700000J-78740D01*
G01*
X181948080Y-98425000D02*
G75*
G03X181948080Y-98425000I-15753080J0D01*
G01*
X182011580Y-98425000D02*
G75*
G03X182011580Y-98425000I-15816580J0D01*
G01*
X193495000Y-98267520D02*
G75*
G03X218895000Y-98425000I12700000J-78740D01*
G01*
X221948080Y-98425000D02*
G75*
G03X221948080Y-98425000I-15753080J0D01*
G01*
X222011580Y-98425000D02*
G75*
G03X222011580Y-98425000I-15816580J0D01*
G01*
X228495000Y-98267520D02*
G75*
G03X253895000Y-98425000I12700000J-78740D01*
G01*
X256948080Y-98425000D02*
G75*
G03X256948080Y-98425000I-15753080J0D01*
G01*
X257011580Y-98425000D02*
G75*
G03X257011580Y-98425000I-15816580J0D01*
G01*
D13*
X149240240Y-81594960D02*
X148041360Y-84693760D01*
X148041360Y-84693760D02*
X148640800Y-84294980D01*
X149641560Y-83593940D02*
X148341080Y-86395560D01*
X149240240Y-81594960D02*
X148640800Y-82293460D01*
X148841460Y-86593680D02*
X149641560Y-83593940D01*
X149641560Y-83593940D02*
X148442680Y-84394040D01*
X148442680Y-84394040D02*
X149240240Y-81594960D01*
X149240240Y-81594960D02*
X149341840Y-82494120D01*
X148742400Y-87985600D02*
X144043400Y-81000600D01*
X144043400Y-81000600D02*
X153441400Y-81000600D01*
X153441400Y-81000600D02*
X148742400Y-87985600D01*
X229524560Y-120284240D02*
X230723440Y-117185440D01*
X230723440Y-117185440D02*
X230124000Y-117584220D01*
X229123240Y-118285260D02*
X230423720Y-115483640D01*
X229524560Y-120284240D02*
X230124000Y-119585740D01*
X229923340Y-115285520D02*
X229123240Y-118285260D01*
X229123240Y-118285260D02*
X230322120Y-117485160D01*
X230322120Y-117485160D02*
X229524560Y-120284240D01*
X229524560Y-120284240D02*
X229422960Y-119385080D01*
X230022400Y-113893600D02*
X234721400Y-120878600D01*
X234721400Y-120878600D02*
X225323400Y-120878600D01*
X225323400Y-120878600D02*
X230022400Y-113893600D01*
X62763400Y-120878600D02*
X67462400Y-113893600D01*
X72161400Y-120878600D02*
X62763400Y-120878600D01*
X67462400Y-113893600D02*
X72161400Y-120878600D01*
X66964560Y-120284240D02*
X66862960Y-119385080D01*
X67762120Y-117485160D02*
X66964560Y-120284240D01*
X66563240Y-118285260D02*
X67762120Y-117485160D01*
X67363340Y-115285520D02*
X66563240Y-118285260D01*
X66964560Y-120284240D02*
X67564000Y-119585740D01*
X66563240Y-118285260D02*
X67863720Y-115483640D01*
X68163440Y-117185440D02*
X67564000Y-117584220D01*
X66964560Y-120284240D02*
X68163440Y-117185440D01*
D14*
X55480495Y-81266980D02*
X56051923Y-81266980D01*
X55766209Y-82266980D02*
X55766209Y-81266980D01*
X56813828Y-81266980D02*
X56623352Y-81266980D01*
X56528114Y-81314600D01*
X56480495Y-81362219D01*
X56385257Y-81505076D01*
X56337638Y-81695552D01*
X56337638Y-82076504D01*
X56385257Y-82171742D01*
X56432876Y-82219361D01*
X56528114Y-82266980D01*
X56718590Y-82266980D01*
X56813828Y-82219361D01*
X56861447Y-82171742D01*
X56909066Y-82076504D01*
X56909066Y-81838409D01*
X56861447Y-81743171D01*
X56813828Y-81695552D01*
X56718590Y-81647933D01*
X56528114Y-81647933D01*
X56432876Y-81695552D01*
X56385257Y-81743171D01*
X56337638Y-81838409D01*
X90480495Y-81266980D02*
X91051923Y-81266980D01*
X90766209Y-82266980D02*
X90766209Y-81266980D01*
X91861447Y-81266980D02*
X91385257Y-81266980D01*
X91337638Y-81743171D01*
X91385257Y-81695552D01*
X91480495Y-81647933D01*
X91718590Y-81647933D01*
X91813828Y-81695552D01*
X91861447Y-81743171D01*
X91909066Y-81838409D01*
X91909066Y-82076504D01*
X91861447Y-82171742D01*
X91813828Y-82219361D01*
X91718590Y-82266980D01*
X91480495Y-82266980D01*
X91385257Y-82219361D01*
X91337638Y-82171742D01*
X130480495Y-81266980D02*
X131051923Y-81266980D01*
X130766209Y-82266980D02*
X130766209Y-81266980D01*
X131813828Y-81600314D02*
X131813828Y-82266980D01*
X131575733Y-81219361D02*
X131337638Y-81933647D01*
X131956685Y-81933647D01*
X165480495Y-81266980D02*
X166051923Y-81266980D01*
X165766209Y-82266980D02*
X165766209Y-81266980D01*
X166290019Y-81266980D02*
X166909066Y-81266980D01*
X166575733Y-81647933D01*
X166718590Y-81647933D01*
X166813828Y-81695552D01*
X166861447Y-81743171D01*
X166909066Y-81838409D01*
X166909066Y-82076504D01*
X166861447Y-82171742D01*
X166813828Y-82219361D01*
X166718590Y-82266980D01*
X166432876Y-82266980D01*
X166337638Y-82219361D01*
X166290019Y-82171742D01*
X205380495Y-81266980D02*
X205951923Y-81266980D01*
X205666209Y-82266980D02*
X205666209Y-81266980D01*
X206237638Y-81362219D02*
X206285257Y-81314600D01*
X206380495Y-81266980D01*
X206618590Y-81266980D01*
X206713828Y-81314600D01*
X206761447Y-81362219D01*
X206809066Y-81457457D01*
X206809066Y-81552695D01*
X206761447Y-81695552D01*
X206190019Y-82266980D01*
X206809066Y-82266980D01*
X240380495Y-81266980D02*
X240951923Y-81266980D01*
X240666209Y-82266980D02*
X240666209Y-81266980D01*
X241809066Y-82266980D02*
X241237638Y-82266980D01*
X241523352Y-82266980D02*
X241523352Y-81266980D01*
X241428114Y-81409838D01*
X241332876Y-81505076D01*
X241237638Y-81552695D01*
M02*
