G04 #@! TF.GenerationSoftware,KiCad,Pcbnew,(5.1.0-0)*
G04 #@! TF.CreationDate,2019-05-22T01:12:31-05:00*
G04 #@! TF.ProjectId,IN-18,494e2d31-382e-46b6-9963-61645f706362,rev?*
G04 #@! TF.SameCoordinates,Original*
G04 #@! TF.FileFunction,Paste,Top*
G04 #@! TF.FilePolarity,Positive*
%FSLAX46Y46*%
G04 Gerber Fmt 4.6, Leading zero omitted, Abs format (unit mm)*
G04 Created by KiCad (PCBNEW (5.1.0-0)) date 2019-05-22 01:12:31*
%MOMM*%
%LPD*%
G04 APERTURE LIST*
%ADD10C,2.750000*%
G04 APERTURE END LIST*
D10*
X64975780Y-96476820D03*
X47802840Y-101546660D03*
X53073340Y-90032840D03*
X56852860Y-107398820D03*
X47739340Y-95237300D03*
X63421300Y-93083380D03*
X63408600Y-103809800D03*
X60485060Y-106329480D03*
X53106360Y-106873040D03*
X49847540Y-104805480D03*
X64952920Y-100286820D03*
X60523160Y-90487500D03*
X56837620Y-89453720D03*
X49913580Y-92069920D03*
X99975780Y-96476820D03*
X82802840Y-101546660D03*
X88073340Y-90032840D03*
X91852860Y-107398820D03*
X82739340Y-95237300D03*
X98421300Y-93083380D03*
X98408600Y-103809800D03*
X95485060Y-106329480D03*
X88106360Y-106873040D03*
X84847540Y-104805480D03*
X99952920Y-100286820D03*
X95523160Y-90487500D03*
X91837620Y-89453720D03*
X84913580Y-92069920D03*
X139975780Y-96476820D03*
X122802840Y-101546660D03*
X128073340Y-90032840D03*
X131852860Y-107398820D03*
X122739340Y-95237300D03*
X138421300Y-93083380D03*
X138408600Y-103809800D03*
X135485060Y-106329480D03*
X128106360Y-106873040D03*
X124847540Y-104805480D03*
X139952920Y-100286820D03*
X135523160Y-90487500D03*
X131837620Y-89453720D03*
X124913580Y-92069920D03*
X174975780Y-96476820D03*
X157802840Y-101546660D03*
X163073340Y-90032840D03*
X166852860Y-107398820D03*
X157739340Y-95237300D03*
X173421300Y-93083380D03*
X173408600Y-103809800D03*
X170485060Y-106329480D03*
X163106360Y-106873040D03*
X159847540Y-104805480D03*
X174952920Y-100286820D03*
X170523160Y-90487500D03*
X166837620Y-89453720D03*
X159913580Y-92069920D03*
X214975780Y-96476820D03*
X197802840Y-101546660D03*
X203073340Y-90032840D03*
X206852860Y-107398820D03*
X197739340Y-95237300D03*
X213421300Y-93083380D03*
X213408600Y-103809800D03*
X210485060Y-106329480D03*
X203106360Y-106873040D03*
X199847540Y-104805480D03*
X214952920Y-100286820D03*
X210523160Y-90487500D03*
X206837620Y-89453720D03*
X199913580Y-92069920D03*
X249975780Y-96476820D03*
X232802840Y-101546660D03*
X238073340Y-90032840D03*
X241852860Y-107398820D03*
X232739340Y-95237300D03*
X248421300Y-93083380D03*
X248408600Y-103809800D03*
X245485060Y-106329480D03*
X238106360Y-106873040D03*
X234847540Y-104805480D03*
X249952920Y-100286820D03*
X245523160Y-90487500D03*
X241837620Y-89453720D03*
X234913580Y-92069920D03*
M02*
