G04 #@! TF.GenerationSoftware,KiCad,Pcbnew,9.0.7*
G04 #@! TF.CreationDate,2026-03-02T03:16:57-06:00*
G04 #@! TF.ProjectId,TubeClock,54756265-436c-46f6-936b-2e6b69636164,rev?*
G04 #@! TF.SameCoordinates,Original*
G04 #@! TF.FileFunction,Soldermask,Top*
G04 #@! TF.FilePolarity,Negative*
%FSLAX46Y46*%
G04 Gerber Fmt 4.6, Leading zero omitted, Abs format (unit mm)*
G04 Created by KiCad (PCBNEW 9.0.7) date 2026-03-02 03:16:57*
%MOMM*%
%LPD*%
G01*
G04 APERTURE LIST*
G04 APERTURE END LIST*
G36*
X215239946Y-122832797D02*
G01*
X215403128Y-122900389D01*
X215549988Y-122998518D01*
X215674882Y-123123412D01*
X215773011Y-123270272D01*
X215840603Y-123433454D01*
X215875061Y-123606687D01*
X215875061Y-123783313D01*
X215840603Y-123956546D01*
X215773011Y-124119728D01*
X215674882Y-124266588D01*
X215549988Y-124391482D01*
X215403128Y-124489611D01*
X215239946Y-124557203D01*
X215066713Y-124591661D01*
X214890087Y-124591661D01*
X214716854Y-124557203D01*
X214553672Y-124489611D01*
X214406812Y-124391482D01*
X214281918Y-124266588D01*
X214183789Y-124119728D01*
X214116197Y-123956546D01*
X214081739Y-123783313D01*
X214081739Y-123606687D01*
X214116197Y-123433454D01*
X214183789Y-123270272D01*
X214281918Y-123123412D01*
X214406812Y-122998518D01*
X214553672Y-122900389D01*
X214716854Y-122832797D01*
X214890087Y-122798339D01*
X215066713Y-122798339D01*
X215239946Y-122832797D01*
G37*
G36*
X217779946Y-122832797D02*
G01*
X217943128Y-122900389D01*
X218089988Y-122998518D01*
X218214882Y-123123412D01*
X218313011Y-123270272D01*
X218380603Y-123433454D01*
X218415061Y-123606687D01*
X218415061Y-123783313D01*
X218380603Y-123956546D01*
X218313011Y-124119728D01*
X218214882Y-124266588D01*
X218089988Y-124391482D01*
X217943128Y-124489611D01*
X217779946Y-124557203D01*
X217606713Y-124591661D01*
X217430087Y-124591661D01*
X217256854Y-124557203D01*
X217093672Y-124489611D01*
X216946812Y-124391482D01*
X216821918Y-124266588D01*
X216723789Y-124119728D01*
X216656197Y-123956546D01*
X216621739Y-123783313D01*
X216621739Y-123606687D01*
X216656197Y-123433454D01*
X216723789Y-123270272D01*
X216821918Y-123123412D01*
X216946812Y-122998518D01*
X217093672Y-122900389D01*
X217256854Y-122832797D01*
X217430087Y-122798339D01*
X217606713Y-122798339D01*
X217779946Y-122832797D01*
G37*
G36*
X191097917Y-122737882D02*
G01*
X191114462Y-122748938D01*
X191125518Y-122765483D01*
X191129400Y-122785000D01*
X191129400Y-124485000D01*
X191125518Y-124504517D01*
X191114462Y-124521062D01*
X191097917Y-124532118D01*
X191078400Y-124536000D01*
X189378400Y-124536000D01*
X189358883Y-124532118D01*
X189342338Y-124521062D01*
X189331282Y-124504517D01*
X189327400Y-124485000D01*
X189327400Y-122785000D01*
X189331282Y-122765483D01*
X189342338Y-122748938D01*
X189358883Y-122737882D01*
X189378400Y-122734000D01*
X191078400Y-122734000D01*
X191097917Y-122737882D01*
G37*
G36*
X215239946Y-120292797D02*
G01*
X215403128Y-120360389D01*
X215549988Y-120458518D01*
X215674882Y-120583412D01*
X215773011Y-120730272D01*
X215840603Y-120893454D01*
X215875061Y-121066687D01*
X215875061Y-121243313D01*
X215840603Y-121416546D01*
X215773011Y-121579728D01*
X215674882Y-121726588D01*
X215549988Y-121851482D01*
X215403128Y-121949611D01*
X215239946Y-122017203D01*
X215066713Y-122051661D01*
X214890087Y-122051661D01*
X214716854Y-122017203D01*
X214553672Y-121949611D01*
X214406812Y-121851482D01*
X214281918Y-121726588D01*
X214183789Y-121579728D01*
X214116197Y-121416546D01*
X214081739Y-121243313D01*
X214081739Y-121066687D01*
X214116197Y-120893454D01*
X214183789Y-120730272D01*
X214281918Y-120583412D01*
X214406812Y-120458518D01*
X214553672Y-120360389D01*
X214716854Y-120292797D01*
X214890087Y-120258339D01*
X215066713Y-120258339D01*
X215239946Y-120292797D01*
G37*
G36*
X217779946Y-120292797D02*
G01*
X217943128Y-120360389D01*
X218089988Y-120458518D01*
X218214882Y-120583412D01*
X218313011Y-120730272D01*
X218380603Y-120893454D01*
X218415061Y-121066687D01*
X218415061Y-121243313D01*
X218380603Y-121416546D01*
X218313011Y-121579728D01*
X218214882Y-121726588D01*
X218089988Y-121851482D01*
X217943128Y-121949611D01*
X217779946Y-122017203D01*
X217606713Y-122051661D01*
X217430087Y-122051661D01*
X217256854Y-122017203D01*
X217093672Y-121949611D01*
X216946812Y-121851482D01*
X216821918Y-121726588D01*
X216723789Y-121579728D01*
X216656197Y-121416546D01*
X216621739Y-121243313D01*
X216621739Y-121066687D01*
X216656197Y-120893454D01*
X216723789Y-120730272D01*
X216821918Y-120583412D01*
X216946812Y-120458518D01*
X217093672Y-120360389D01*
X217256854Y-120292797D01*
X217430087Y-120258339D01*
X217606713Y-120258339D01*
X217779946Y-120292797D01*
G37*
G36*
X190489946Y-120232797D02*
G01*
X190653128Y-120300389D01*
X190799988Y-120398518D01*
X190924882Y-120523412D01*
X191023011Y-120670272D01*
X191090603Y-120833454D01*
X191125061Y-121006687D01*
X191125061Y-121183313D01*
X191090603Y-121356546D01*
X191023011Y-121519728D01*
X190924882Y-121666588D01*
X190799988Y-121791482D01*
X190653128Y-121889611D01*
X190489946Y-121957203D01*
X190316713Y-121991661D01*
X190140087Y-121991661D01*
X189966854Y-121957203D01*
X189803672Y-121889611D01*
X189656812Y-121791482D01*
X189531918Y-121666588D01*
X189433789Y-121519728D01*
X189366197Y-121356546D01*
X189331739Y-121183313D01*
X189331739Y-121006687D01*
X189366197Y-120833454D01*
X189433789Y-120670272D01*
X189531918Y-120523412D01*
X189656812Y-120398518D01*
X189803672Y-120300389D01*
X189966854Y-120232797D01*
X190140087Y-120198339D01*
X190316713Y-120198339D01*
X190489946Y-120232797D01*
G37*
G36*
X215239946Y-117752797D02*
G01*
X215403128Y-117820389D01*
X215549988Y-117918518D01*
X215674882Y-118043412D01*
X215773011Y-118190272D01*
X215840603Y-118353454D01*
X215875061Y-118526687D01*
X215875061Y-118703313D01*
X215840603Y-118876546D01*
X215773011Y-119039728D01*
X215674882Y-119186588D01*
X215549988Y-119311482D01*
X215403128Y-119409611D01*
X215239946Y-119477203D01*
X215066713Y-119511661D01*
X214890087Y-119511661D01*
X214716854Y-119477203D01*
X214553672Y-119409611D01*
X214406812Y-119311482D01*
X214281918Y-119186588D01*
X214183789Y-119039728D01*
X214116197Y-118876546D01*
X214081739Y-118703313D01*
X214081739Y-118526687D01*
X214116197Y-118353454D01*
X214183789Y-118190272D01*
X214281918Y-118043412D01*
X214406812Y-117918518D01*
X214553672Y-117820389D01*
X214716854Y-117752797D01*
X214890087Y-117718339D01*
X215066713Y-117718339D01*
X215239946Y-117752797D01*
G37*
G36*
X217779946Y-117752797D02*
G01*
X217943128Y-117820389D01*
X218089988Y-117918518D01*
X218214882Y-118043412D01*
X218313011Y-118190272D01*
X218380603Y-118353454D01*
X218415061Y-118526687D01*
X218415061Y-118703313D01*
X218380603Y-118876546D01*
X218313011Y-119039728D01*
X218214882Y-119186588D01*
X218089988Y-119311482D01*
X217943128Y-119409611D01*
X217779946Y-119477203D01*
X217606713Y-119511661D01*
X217430087Y-119511661D01*
X217256854Y-119477203D01*
X217093672Y-119409611D01*
X216946812Y-119311482D01*
X216821918Y-119186588D01*
X216723789Y-119039728D01*
X216656197Y-118876546D01*
X216621739Y-118703313D01*
X216621739Y-118526687D01*
X216656197Y-118353454D01*
X216723789Y-118190272D01*
X216821918Y-118043412D01*
X216946812Y-117918518D01*
X217093672Y-117820389D01*
X217256854Y-117752797D01*
X217430087Y-117718339D01*
X217606713Y-117718339D01*
X217779946Y-117752797D01*
G37*
G36*
X190489946Y-117692797D02*
G01*
X190653128Y-117760389D01*
X190799988Y-117858518D01*
X190924882Y-117983412D01*
X191023011Y-118130272D01*
X191090603Y-118293454D01*
X191125061Y-118466687D01*
X191125061Y-118643313D01*
X191090603Y-118816546D01*
X191023011Y-118979728D01*
X190924882Y-119126588D01*
X190799988Y-119251482D01*
X190653128Y-119349611D01*
X190489946Y-119417203D01*
X190316713Y-119451661D01*
X190140087Y-119451661D01*
X189966854Y-119417203D01*
X189803672Y-119349611D01*
X189656812Y-119251482D01*
X189531918Y-119126588D01*
X189433789Y-118979728D01*
X189366197Y-118816546D01*
X189331739Y-118643313D01*
X189331739Y-118466687D01*
X189366197Y-118293454D01*
X189433789Y-118130272D01*
X189531918Y-117983412D01*
X189656812Y-117858518D01*
X189803672Y-117760389D01*
X189966854Y-117692797D01*
X190140087Y-117658339D01*
X190316713Y-117658339D01*
X190489946Y-117692797D01*
G37*
G36*
X215239946Y-115212797D02*
G01*
X215403128Y-115280389D01*
X215549988Y-115378518D01*
X215674882Y-115503412D01*
X215773011Y-115650272D01*
X215840603Y-115813454D01*
X215875061Y-115986687D01*
X215875061Y-116163313D01*
X215840603Y-116336546D01*
X215773011Y-116499728D01*
X215674882Y-116646588D01*
X215549988Y-116771482D01*
X215403128Y-116869611D01*
X215239946Y-116937203D01*
X215066713Y-116971661D01*
X214890087Y-116971661D01*
X214716854Y-116937203D01*
X214553672Y-116869611D01*
X214406812Y-116771482D01*
X214281918Y-116646588D01*
X214183789Y-116499728D01*
X214116197Y-116336546D01*
X214081739Y-116163313D01*
X214081739Y-115986687D01*
X214116197Y-115813454D01*
X214183789Y-115650272D01*
X214281918Y-115503412D01*
X214406812Y-115378518D01*
X214553672Y-115280389D01*
X214716854Y-115212797D01*
X214890087Y-115178339D01*
X215066713Y-115178339D01*
X215239946Y-115212797D01*
G37*
G36*
X217779946Y-115212797D02*
G01*
X217943128Y-115280389D01*
X218089988Y-115378518D01*
X218214882Y-115503412D01*
X218313011Y-115650272D01*
X218380603Y-115813454D01*
X218415061Y-115986687D01*
X218415061Y-116163313D01*
X218380603Y-116336546D01*
X218313011Y-116499728D01*
X218214882Y-116646588D01*
X218089988Y-116771482D01*
X217943128Y-116869611D01*
X217779946Y-116937203D01*
X217606713Y-116971661D01*
X217430087Y-116971661D01*
X217256854Y-116937203D01*
X217093672Y-116869611D01*
X216946812Y-116771482D01*
X216821918Y-116646588D01*
X216723789Y-116499728D01*
X216656197Y-116336546D01*
X216621739Y-116163313D01*
X216621739Y-115986687D01*
X216656197Y-115813454D01*
X216723789Y-115650272D01*
X216821918Y-115503412D01*
X216946812Y-115378518D01*
X217093672Y-115280389D01*
X217256854Y-115212797D01*
X217430087Y-115178339D01*
X217606713Y-115178339D01*
X217779946Y-115212797D01*
G37*
G36*
X215847917Y-112637882D02*
G01*
X215864462Y-112648938D01*
X215875518Y-112665483D01*
X215879400Y-112685000D01*
X215879400Y-114385000D01*
X215875518Y-114404517D01*
X215864462Y-114421062D01*
X215847917Y-114432118D01*
X215828400Y-114436000D01*
X214128400Y-114436000D01*
X214108883Y-114432118D01*
X214092338Y-114421062D01*
X214081282Y-114404517D01*
X214077400Y-114385000D01*
X214077400Y-112685000D01*
X214081282Y-112665483D01*
X214092338Y-112648938D01*
X214108883Y-112637882D01*
X214128400Y-112634000D01*
X215828400Y-112634000D01*
X215847917Y-112637882D01*
G37*
G36*
X217779946Y-112672797D02*
G01*
X217943128Y-112740389D01*
X218089988Y-112838518D01*
X218214882Y-112963412D01*
X218313011Y-113110272D01*
X218380603Y-113273454D01*
X218415061Y-113446687D01*
X218415061Y-113623313D01*
X218380603Y-113796546D01*
X218313011Y-113959728D01*
X218214882Y-114106588D01*
X218089988Y-114231482D01*
X217943128Y-114329611D01*
X217779946Y-114397203D01*
X217606713Y-114431661D01*
X217430087Y-114431661D01*
X217256854Y-114397203D01*
X217093672Y-114329611D01*
X216946812Y-114231482D01*
X216821918Y-114106588D01*
X216723789Y-113959728D01*
X216656197Y-113796546D01*
X216621739Y-113623313D01*
X216621739Y-113446687D01*
X216656197Y-113273454D01*
X216723789Y-113110272D01*
X216821918Y-112963412D01*
X216946812Y-112838518D01*
X217093672Y-112740389D01*
X217256854Y-112672797D01*
X217430087Y-112638339D01*
X217606713Y-112638339D01*
X217779946Y-112672797D01*
G37*
G36*
X218719709Y-106992135D02*
G01*
X218844875Y-107017032D01*
X218962779Y-107065869D01*
X219068890Y-107136770D01*
X219159130Y-107227010D01*
X219230031Y-107333121D01*
X219278868Y-107451025D01*
X219303765Y-107576191D01*
X219303765Y-107703809D01*
X219278868Y-107828975D01*
X219230031Y-107946879D01*
X219159130Y-108052990D01*
X219068890Y-108143230D01*
X218962779Y-108214131D01*
X218844875Y-108262968D01*
X218719709Y-108287865D01*
X218655900Y-108291000D01*
X218652839Y-108291000D01*
X217958961Y-108291000D01*
X217955900Y-108291000D01*
X217892091Y-108287865D01*
X217766925Y-108262968D01*
X217649021Y-108214131D01*
X217542910Y-108143230D01*
X217452670Y-108052990D01*
X217381769Y-107946879D01*
X217332932Y-107828975D01*
X217308035Y-107703809D01*
X217308035Y-107576191D01*
X217332932Y-107451025D01*
X217381769Y-107333121D01*
X217452670Y-107227010D01*
X217542910Y-107136770D01*
X217649021Y-107065869D01*
X217766925Y-107017032D01*
X217892091Y-106992135D01*
X217955900Y-106989000D01*
X218655900Y-106989000D01*
X218719709Y-106992135D01*
G37*
G36*
X215831161Y-105897414D02*
G01*
X215971704Y-105955629D01*
X216098189Y-106040144D01*
X216205756Y-106147711D01*
X216290271Y-106274196D01*
X216348486Y-106414739D01*
X216378163Y-106563939D01*
X216378163Y-106716061D01*
X216348486Y-106865261D01*
X216290271Y-107005804D01*
X216205756Y-107132289D01*
X216098189Y-107239856D01*
X215971704Y-107324371D01*
X215831161Y-107382586D01*
X215681961Y-107412263D01*
X215529839Y-107412263D01*
X215380639Y-107382586D01*
X215240096Y-107324371D01*
X215113611Y-107239856D01*
X215006044Y-107132289D01*
X214921529Y-107005804D01*
X214863314Y-106865261D01*
X214833637Y-106716061D01*
X214833637Y-106563939D01*
X214863314Y-106414739D01*
X214921529Y-106274196D01*
X215006044Y-106147711D01*
X215113611Y-106040144D01*
X215240096Y-105955629D01*
X215380639Y-105897414D01*
X215529839Y-105867737D01*
X215681961Y-105867737D01*
X215831161Y-105897414D01*
G37*
G36*
X195341932Y-102584605D02*
G01*
X195345182Y-102585000D01*
X195573372Y-102585000D01*
X195578400Y-102584000D01*
X196578400Y-102584000D01*
X196583428Y-102585000D01*
X196805602Y-102585000D01*
X196820510Y-102582267D01*
X196828400Y-102579000D01*
X197378400Y-102579000D01*
X197388728Y-102583278D01*
X197435468Y-102583278D01*
X197443663Y-102583278D01*
X197458157Y-102585186D01*
X197471667Y-102588806D01*
X197576321Y-102616847D01*
X197576322Y-102616847D01*
X197584236Y-102618968D01*
X197597742Y-102624563D01*
X197604833Y-102628657D01*
X197604840Y-102628660D01*
X197703685Y-102685728D01*
X197703690Y-102685732D01*
X197710781Y-102689826D01*
X197722379Y-102698725D01*
X197814675Y-102791021D01*
X197823574Y-102802619D01*
X197827668Y-102809710D01*
X197827671Y-102809714D01*
X197884739Y-102908559D01*
X197884740Y-102908562D01*
X197888837Y-102915658D01*
X197894432Y-102929164D01*
X197928214Y-103055243D01*
X197930122Y-103069737D01*
X197930122Y-103077931D01*
X197930122Y-103116741D01*
X197932728Y-103130964D01*
X197934400Y-103135000D01*
X197934400Y-103635000D01*
X197930122Y-103645328D01*
X197930122Y-103700263D01*
X197928214Y-103714757D01*
X197894432Y-103840836D01*
X197888837Y-103854342D01*
X197823574Y-103967381D01*
X197814675Y-103978979D01*
X197722379Y-104071275D01*
X197710781Y-104080174D01*
X197703685Y-104084270D01*
X197703685Y-104084271D01*
X197604840Y-104141339D01*
X197597742Y-104145437D01*
X197584236Y-104151032D01*
X197458157Y-104184814D01*
X197443663Y-104186722D01*
X197435468Y-104186722D01*
X197396659Y-104186722D01*
X197382434Y-104189328D01*
X197378400Y-104191000D01*
X197373831Y-104191000D01*
X196843578Y-104191000D01*
X196828400Y-104191000D01*
X196814867Y-104185394D01*
X196811618Y-104185000D01*
X196583428Y-104185000D01*
X196578400Y-104186000D01*
X195578400Y-104186000D01*
X195573372Y-104185000D01*
X195351198Y-104185000D01*
X195336289Y-104187732D01*
X195328400Y-104191000D01*
X195323829Y-104191000D01*
X194793576Y-104191000D01*
X194778400Y-104191000D01*
X194768072Y-104186722D01*
X194721332Y-104186722D01*
X194713137Y-104186722D01*
X194698643Y-104184814D01*
X194572564Y-104151032D01*
X194559058Y-104145437D01*
X194551962Y-104141340D01*
X194551959Y-104141339D01*
X194453114Y-104084271D01*
X194453110Y-104084268D01*
X194446019Y-104080174D01*
X194434421Y-104071275D01*
X194342125Y-103978979D01*
X194333226Y-103967381D01*
X194329132Y-103960290D01*
X194329128Y-103960285D01*
X194272060Y-103861440D01*
X194272057Y-103861433D01*
X194267963Y-103854342D01*
X194262368Y-103840836D01*
X194228586Y-103714757D01*
X194226678Y-103700263D01*
X194226678Y-103653256D01*
X194224071Y-103639035D01*
X194222400Y-103635000D01*
X194222400Y-103135000D01*
X194226678Y-103124671D01*
X194226678Y-103069737D01*
X194228586Y-103055243D01*
X194262368Y-102929164D01*
X194267963Y-102915658D01*
X194272055Y-102908568D01*
X194272060Y-102908559D01*
X194329128Y-102809714D01*
X194329134Y-102809705D01*
X194333226Y-102802619D01*
X194342125Y-102791021D01*
X194347909Y-102785236D01*
X194347913Y-102785232D01*
X194428632Y-102704513D01*
X194428636Y-102704509D01*
X194434421Y-102698725D01*
X194446019Y-102689826D01*
X194453105Y-102685734D01*
X194453114Y-102685728D01*
X194551959Y-102628660D01*
X194551968Y-102628655D01*
X194559058Y-102624563D01*
X194572564Y-102618968D01*
X194580474Y-102616848D01*
X194580478Y-102616847D01*
X194690727Y-102587307D01*
X194690727Y-102587306D01*
X194698643Y-102585186D01*
X194713137Y-102583278D01*
X194760141Y-102583278D01*
X194774365Y-102580671D01*
X194778400Y-102579000D01*
X195328400Y-102579000D01*
X195341932Y-102584605D01*
G37*
G36*
X191293728Y-99083278D02*
G01*
X191340468Y-99083278D01*
X191348663Y-99083278D01*
X191363157Y-99085186D01*
X191376667Y-99088806D01*
X191481321Y-99116847D01*
X191481322Y-99116847D01*
X191489236Y-99118968D01*
X191502742Y-99124563D01*
X191509833Y-99128657D01*
X191509840Y-99128660D01*
X191608685Y-99185728D01*
X191608690Y-99185732D01*
X191615781Y-99189826D01*
X191627379Y-99198725D01*
X191719675Y-99291021D01*
X191728574Y-99302619D01*
X191732668Y-99309710D01*
X191732671Y-99309714D01*
X191789739Y-99408559D01*
X191789740Y-99408562D01*
X191793837Y-99415658D01*
X191799432Y-99429164D01*
X191833214Y-99555243D01*
X191835122Y-99569737D01*
X191835122Y-99577931D01*
X191835122Y-99616741D01*
X191837728Y-99630964D01*
X191839400Y-99635000D01*
X191839400Y-100185000D01*
X191833794Y-100198532D01*
X191833400Y-100201782D01*
X191833400Y-100429972D01*
X191834400Y-100435000D01*
X191834400Y-101435000D01*
X191833400Y-101440027D01*
X191833400Y-101662200D01*
X191836131Y-101677110D01*
X191839400Y-101685000D01*
X191839400Y-102235000D01*
X191835122Y-102245328D01*
X191835122Y-102300263D01*
X191833214Y-102314757D01*
X191799432Y-102440836D01*
X191793837Y-102454342D01*
X191728574Y-102567381D01*
X191719675Y-102578979D01*
X191627379Y-102671275D01*
X191615781Y-102680174D01*
X191502742Y-102745437D01*
X191489236Y-102751032D01*
X191363157Y-102784814D01*
X191348663Y-102786722D01*
X191340468Y-102786722D01*
X191301659Y-102786722D01*
X191287434Y-102789328D01*
X191283400Y-102791000D01*
X191278831Y-102791000D01*
X190798576Y-102791000D01*
X190783400Y-102791000D01*
X190773072Y-102786722D01*
X190726332Y-102786722D01*
X190718137Y-102786722D01*
X190703643Y-102784814D01*
X190577564Y-102751032D01*
X190564058Y-102745437D01*
X190556962Y-102741340D01*
X190556959Y-102741339D01*
X190458114Y-102684271D01*
X190458110Y-102684268D01*
X190451019Y-102680174D01*
X190439421Y-102671275D01*
X190347125Y-102578979D01*
X190338226Y-102567381D01*
X190334132Y-102560290D01*
X190334128Y-102560285D01*
X190277060Y-102461440D01*
X190277057Y-102461433D01*
X190272963Y-102454342D01*
X190267368Y-102440836D01*
X190233586Y-102314757D01*
X190231678Y-102300263D01*
X190231678Y-102253256D01*
X190229071Y-102239035D01*
X190227400Y-102235000D01*
X190227400Y-101685000D01*
X190233005Y-101671467D01*
X190233400Y-101668217D01*
X190233400Y-101440027D01*
X190232400Y-101435000D01*
X190232400Y-100435000D01*
X190233400Y-100429972D01*
X190233400Y-100207798D01*
X190230667Y-100192889D01*
X190227400Y-100185000D01*
X190227400Y-99635000D01*
X190231678Y-99624671D01*
X190231678Y-99569737D01*
X190233586Y-99555243D01*
X190267368Y-99429164D01*
X190272963Y-99415658D01*
X190277055Y-99408568D01*
X190277060Y-99408559D01*
X190334128Y-99309714D01*
X190334134Y-99309705D01*
X190338226Y-99302619D01*
X190347125Y-99291021D01*
X190352909Y-99285236D01*
X190352913Y-99285232D01*
X190433632Y-99204513D01*
X190433636Y-99204509D01*
X190439421Y-99198725D01*
X190451019Y-99189826D01*
X190458105Y-99185734D01*
X190458114Y-99185728D01*
X190556959Y-99128660D01*
X190556968Y-99128655D01*
X190564058Y-99124563D01*
X190577564Y-99118968D01*
X190585474Y-99116848D01*
X190585478Y-99116847D01*
X190695727Y-99087307D01*
X190695727Y-99087306D01*
X190703643Y-99085186D01*
X190718137Y-99083278D01*
X190765141Y-99083278D01*
X190779365Y-99080671D01*
X190783400Y-99079000D01*
X191283400Y-99079000D01*
X191293728Y-99083278D01*
G37*
G36*
X215831161Y-100897414D02*
G01*
X215971704Y-100955629D01*
X216098189Y-101040144D01*
X216205756Y-101147711D01*
X216290271Y-101274196D01*
X216348486Y-101414739D01*
X216378163Y-101563939D01*
X216378163Y-101716061D01*
X216348486Y-101865261D01*
X216290271Y-102005804D01*
X216205756Y-102132289D01*
X216098189Y-102239856D01*
X215971704Y-102324371D01*
X215831161Y-102382586D01*
X215681961Y-102412263D01*
X215529839Y-102412263D01*
X215380639Y-102382586D01*
X215240096Y-102324371D01*
X215113611Y-102239856D01*
X215006044Y-102132289D01*
X214921529Y-102005804D01*
X214863314Y-101865261D01*
X214833637Y-101716061D01*
X214833637Y-101563939D01*
X214863314Y-101414739D01*
X214921529Y-101274196D01*
X215006044Y-101147711D01*
X215113611Y-101040144D01*
X215240096Y-100955629D01*
X215380639Y-100897414D01*
X215529839Y-100867737D01*
X215681961Y-100867737D01*
X215831161Y-100897414D01*
G37*
G36*
X218719709Y-99992135D02*
G01*
X218844875Y-100017032D01*
X218962779Y-100065869D01*
X219068890Y-100136770D01*
X219159130Y-100227010D01*
X219230031Y-100333121D01*
X219278868Y-100451025D01*
X219303765Y-100576191D01*
X219303765Y-100703809D01*
X219278868Y-100828975D01*
X219230031Y-100946879D01*
X219159130Y-101052990D01*
X219068890Y-101143230D01*
X218962779Y-101214131D01*
X218844875Y-101262968D01*
X218719709Y-101287865D01*
X218655900Y-101291000D01*
X218652839Y-101291000D01*
X217958961Y-101291000D01*
X217955900Y-101291000D01*
X217892091Y-101287865D01*
X217766925Y-101262968D01*
X217649021Y-101214131D01*
X217542910Y-101143230D01*
X217452670Y-101052990D01*
X217381769Y-100946879D01*
X217332932Y-100828975D01*
X217308035Y-100703809D01*
X217308035Y-100576191D01*
X217332932Y-100451025D01*
X217381769Y-100333121D01*
X217452670Y-100227010D01*
X217542910Y-100136770D01*
X217649021Y-100065869D01*
X217766925Y-100017032D01*
X217892091Y-99992135D01*
X217955900Y-99989000D01*
X218655900Y-99989000D01*
X218719709Y-99992135D01*
G37*
G36*
X195341932Y-99084605D02*
G01*
X195345182Y-99085000D01*
X195573372Y-99085000D01*
X195578400Y-99084000D01*
X196578400Y-99084000D01*
X196583428Y-99085000D01*
X196805602Y-99085000D01*
X196820510Y-99082267D01*
X196828400Y-99079000D01*
X197378400Y-99079000D01*
X197388728Y-99083278D01*
X197435468Y-99083278D01*
X197443663Y-99083278D01*
X197458157Y-99085186D01*
X197471667Y-99088806D01*
X197576321Y-99116847D01*
X197576322Y-99116847D01*
X197584236Y-99118968D01*
X197597742Y-99124563D01*
X197604833Y-99128657D01*
X197604840Y-99128660D01*
X197703685Y-99185728D01*
X197703690Y-99185732D01*
X197710781Y-99189826D01*
X197722379Y-99198725D01*
X197814675Y-99291021D01*
X197823574Y-99302619D01*
X197827668Y-99309710D01*
X197827671Y-99309714D01*
X197884739Y-99408559D01*
X197884740Y-99408562D01*
X197888837Y-99415658D01*
X197894432Y-99429164D01*
X197928214Y-99555243D01*
X197930122Y-99569737D01*
X197930122Y-99577931D01*
X197930122Y-99616741D01*
X197932728Y-99630964D01*
X197934400Y-99635000D01*
X197934400Y-100135000D01*
X197930122Y-100145328D01*
X197930122Y-100200263D01*
X197928214Y-100214757D01*
X197894432Y-100340836D01*
X197888837Y-100354342D01*
X197823574Y-100467381D01*
X197814675Y-100478979D01*
X197722379Y-100571275D01*
X197710781Y-100580174D01*
X197703685Y-100584270D01*
X197703685Y-100584271D01*
X197604840Y-100641339D01*
X197597742Y-100645437D01*
X197584236Y-100651032D01*
X197458157Y-100684814D01*
X197443663Y-100686722D01*
X197435468Y-100686722D01*
X197396659Y-100686722D01*
X197382434Y-100689328D01*
X197378400Y-100691000D01*
X197373831Y-100691000D01*
X196843578Y-100691000D01*
X196828400Y-100691000D01*
X196814867Y-100685394D01*
X196811618Y-100685000D01*
X196583428Y-100685000D01*
X196578400Y-100686000D01*
X195578400Y-100686000D01*
X195573372Y-100685000D01*
X195351198Y-100685000D01*
X195336289Y-100687732D01*
X195328400Y-100691000D01*
X195323829Y-100691000D01*
X194793576Y-100691000D01*
X194778400Y-100691000D01*
X194768072Y-100686722D01*
X194721332Y-100686722D01*
X194713137Y-100686722D01*
X194698643Y-100684814D01*
X194572564Y-100651032D01*
X194559058Y-100645437D01*
X194551962Y-100641340D01*
X194551959Y-100641339D01*
X194453114Y-100584271D01*
X194453110Y-100584268D01*
X194446019Y-100580174D01*
X194434421Y-100571275D01*
X194342125Y-100478979D01*
X194333226Y-100467381D01*
X194329132Y-100460290D01*
X194329128Y-100460285D01*
X194272060Y-100361440D01*
X194272057Y-100361433D01*
X194267963Y-100354342D01*
X194262368Y-100340836D01*
X194228586Y-100214757D01*
X194226678Y-100200263D01*
X194226678Y-100153256D01*
X194224071Y-100139035D01*
X194222400Y-100135000D01*
X194222400Y-99635000D01*
X194226678Y-99624671D01*
X194226678Y-99569737D01*
X194228586Y-99555243D01*
X194262368Y-99429164D01*
X194267963Y-99415658D01*
X194272055Y-99408568D01*
X194272060Y-99408559D01*
X194329128Y-99309714D01*
X194329134Y-99309705D01*
X194333226Y-99302619D01*
X194342125Y-99291021D01*
X194347909Y-99285236D01*
X194347913Y-99285232D01*
X194428632Y-99204513D01*
X194428636Y-99204509D01*
X194434421Y-99198725D01*
X194446019Y-99189826D01*
X194453105Y-99185734D01*
X194453114Y-99185728D01*
X194551959Y-99128660D01*
X194551968Y-99128655D01*
X194559058Y-99124563D01*
X194572564Y-99118968D01*
X194580474Y-99116848D01*
X194580478Y-99116847D01*
X194690727Y-99087307D01*
X194690727Y-99087306D01*
X194698643Y-99085186D01*
X194713137Y-99083278D01*
X194760141Y-99083278D01*
X194774365Y-99080671D01*
X194778400Y-99079000D01*
X195328400Y-99079000D01*
X195341932Y-99084605D01*
G37*
G36*
X202941932Y-99084605D02*
G01*
X202945182Y-99085000D01*
X203173372Y-99085000D01*
X203178400Y-99084000D01*
X204178400Y-99084000D01*
X204183428Y-99085000D01*
X204405602Y-99085000D01*
X204420510Y-99082267D01*
X204428400Y-99079000D01*
X204978400Y-99079000D01*
X204988728Y-99083278D01*
X205035468Y-99083278D01*
X205043663Y-99083278D01*
X205058157Y-99085186D01*
X205071667Y-99088806D01*
X205176321Y-99116847D01*
X205176322Y-99116847D01*
X205184236Y-99118968D01*
X205197742Y-99124563D01*
X205204833Y-99128657D01*
X205204840Y-99128660D01*
X205303685Y-99185728D01*
X205303690Y-99185732D01*
X205310781Y-99189826D01*
X205322379Y-99198725D01*
X205414675Y-99291021D01*
X205423574Y-99302619D01*
X205427668Y-99309710D01*
X205427671Y-99309714D01*
X205484739Y-99408559D01*
X205484740Y-99408562D01*
X205488837Y-99415658D01*
X205494432Y-99429164D01*
X205528214Y-99555243D01*
X205530122Y-99569737D01*
X205530122Y-99577931D01*
X205530122Y-99616741D01*
X205532728Y-99630964D01*
X205534400Y-99635000D01*
X205534400Y-100135000D01*
X205530122Y-100145328D01*
X205530122Y-100200263D01*
X205528214Y-100214757D01*
X205494432Y-100340836D01*
X205488837Y-100354342D01*
X205423574Y-100467381D01*
X205414675Y-100478979D01*
X205322379Y-100571275D01*
X205310781Y-100580174D01*
X205303685Y-100584270D01*
X205303685Y-100584271D01*
X205204840Y-100641339D01*
X205197742Y-100645437D01*
X205184236Y-100651032D01*
X205058157Y-100684814D01*
X205043663Y-100686722D01*
X205035468Y-100686722D01*
X204996659Y-100686722D01*
X204982434Y-100689328D01*
X204978400Y-100691000D01*
X204973831Y-100691000D01*
X204443578Y-100691000D01*
X204428400Y-100691000D01*
X204414867Y-100685394D01*
X204411618Y-100685000D01*
X204183428Y-100685000D01*
X204178400Y-100686000D01*
X203178400Y-100686000D01*
X203173372Y-100685000D01*
X202951198Y-100685000D01*
X202936289Y-100687732D01*
X202928400Y-100691000D01*
X202923829Y-100691000D01*
X202393576Y-100691000D01*
X202378400Y-100691000D01*
X202368072Y-100686722D01*
X202321332Y-100686722D01*
X202313137Y-100686722D01*
X202298643Y-100684814D01*
X202172564Y-100651032D01*
X202159058Y-100645437D01*
X202151962Y-100641340D01*
X202151959Y-100641339D01*
X202053114Y-100584271D01*
X202053110Y-100584268D01*
X202046019Y-100580174D01*
X202034421Y-100571275D01*
X201942125Y-100478979D01*
X201933226Y-100467381D01*
X201929132Y-100460290D01*
X201929128Y-100460285D01*
X201872060Y-100361440D01*
X201872057Y-100361433D01*
X201867963Y-100354342D01*
X201862368Y-100340836D01*
X201828586Y-100214757D01*
X201826678Y-100200263D01*
X201826678Y-100153256D01*
X201824071Y-100139035D01*
X201822400Y-100135000D01*
X201822400Y-99635000D01*
X201826678Y-99624671D01*
X201826678Y-99569737D01*
X201828586Y-99555243D01*
X201862368Y-99429164D01*
X201867963Y-99415658D01*
X201872055Y-99408568D01*
X201872060Y-99408559D01*
X201929128Y-99309714D01*
X201929134Y-99309705D01*
X201933226Y-99302619D01*
X201942125Y-99291021D01*
X201947909Y-99285236D01*
X201947913Y-99285232D01*
X202028632Y-99204513D01*
X202028636Y-99204509D01*
X202034421Y-99198725D01*
X202046019Y-99189826D01*
X202053105Y-99185734D01*
X202053114Y-99185728D01*
X202151959Y-99128660D01*
X202151968Y-99128655D01*
X202159058Y-99124563D01*
X202172564Y-99118968D01*
X202180474Y-99116848D01*
X202180478Y-99116847D01*
X202290727Y-99087307D01*
X202290727Y-99087306D01*
X202298643Y-99085186D01*
X202313137Y-99083278D01*
X202360141Y-99083278D01*
X202374365Y-99080671D01*
X202378400Y-99079000D01*
X202928400Y-99079000D01*
X202941932Y-99084605D01*
G37*
G36*
X208941932Y-99084605D02*
G01*
X208945182Y-99085000D01*
X209173372Y-99085000D01*
X209178400Y-99084000D01*
X210178400Y-99084000D01*
X210183428Y-99085000D01*
X210405602Y-99085000D01*
X210420510Y-99082267D01*
X210428400Y-99079000D01*
X210978400Y-99079000D01*
X210988728Y-99083278D01*
X211035468Y-99083278D01*
X211043663Y-99083278D01*
X211058157Y-99085186D01*
X211071667Y-99088806D01*
X211176321Y-99116847D01*
X211176322Y-99116847D01*
X211184236Y-99118968D01*
X211197742Y-99124563D01*
X211204833Y-99128657D01*
X211204840Y-99128660D01*
X211303685Y-99185728D01*
X211303690Y-99185732D01*
X211310781Y-99189826D01*
X211322379Y-99198725D01*
X211414675Y-99291021D01*
X211423574Y-99302619D01*
X211427668Y-99309710D01*
X211427671Y-99309714D01*
X211484739Y-99408559D01*
X211484740Y-99408562D01*
X211488837Y-99415658D01*
X211494432Y-99429164D01*
X211528214Y-99555243D01*
X211530122Y-99569737D01*
X211530122Y-99577931D01*
X211530122Y-99616741D01*
X211532728Y-99630964D01*
X211534400Y-99635000D01*
X211534400Y-100135000D01*
X211530122Y-100145328D01*
X211530122Y-100200263D01*
X211528214Y-100214757D01*
X211494432Y-100340836D01*
X211488837Y-100354342D01*
X211423574Y-100467381D01*
X211414675Y-100478979D01*
X211322379Y-100571275D01*
X211310781Y-100580174D01*
X211303685Y-100584270D01*
X211303685Y-100584271D01*
X211204840Y-100641339D01*
X211197742Y-100645437D01*
X211184236Y-100651032D01*
X211058157Y-100684814D01*
X211043663Y-100686722D01*
X211035468Y-100686722D01*
X210996659Y-100686722D01*
X210982434Y-100689328D01*
X210978400Y-100691000D01*
X210973831Y-100691000D01*
X210443578Y-100691000D01*
X210428400Y-100691000D01*
X210414867Y-100685394D01*
X210411618Y-100685000D01*
X210183428Y-100685000D01*
X210178400Y-100686000D01*
X209178400Y-100686000D01*
X209173372Y-100685000D01*
X208951198Y-100685000D01*
X208936289Y-100687732D01*
X208928400Y-100691000D01*
X208923829Y-100691000D01*
X208393576Y-100691000D01*
X208378400Y-100691000D01*
X208368072Y-100686722D01*
X208321332Y-100686722D01*
X208313137Y-100686722D01*
X208298643Y-100684814D01*
X208172564Y-100651032D01*
X208159058Y-100645437D01*
X208151962Y-100641340D01*
X208151959Y-100641339D01*
X208053114Y-100584271D01*
X208053110Y-100584268D01*
X208046019Y-100580174D01*
X208034421Y-100571275D01*
X207942125Y-100478979D01*
X207933226Y-100467381D01*
X207929132Y-100460290D01*
X207929128Y-100460285D01*
X207872060Y-100361440D01*
X207872057Y-100361433D01*
X207867963Y-100354342D01*
X207862368Y-100340836D01*
X207828586Y-100214757D01*
X207826678Y-100200263D01*
X207826678Y-100153256D01*
X207824071Y-100139035D01*
X207822400Y-100135000D01*
X207822400Y-99635000D01*
X207826678Y-99624671D01*
X207826678Y-99569737D01*
X207828586Y-99555243D01*
X207862368Y-99429164D01*
X207867963Y-99415658D01*
X207872055Y-99408568D01*
X207872060Y-99408559D01*
X207929128Y-99309714D01*
X207929134Y-99309705D01*
X207933226Y-99302619D01*
X207942125Y-99291021D01*
X207947909Y-99285236D01*
X207947913Y-99285232D01*
X208028632Y-99204513D01*
X208028636Y-99204509D01*
X208034421Y-99198725D01*
X208046019Y-99189826D01*
X208053105Y-99185734D01*
X208053114Y-99185728D01*
X208151959Y-99128660D01*
X208151968Y-99128655D01*
X208159058Y-99124563D01*
X208172564Y-99118968D01*
X208180474Y-99116848D01*
X208180478Y-99116847D01*
X208290727Y-99087307D01*
X208290727Y-99087306D01*
X208298643Y-99085186D01*
X208313137Y-99083278D01*
X208360141Y-99083278D01*
X208374365Y-99080671D01*
X208378400Y-99079000D01*
X208928400Y-99079000D01*
X208941932Y-99084605D01*
G37*
G36*
X191902917Y-96257882D02*
G01*
X191919462Y-96268938D01*
X191930518Y-96285483D01*
X191934400Y-96305000D01*
X191934400Y-98005000D01*
X191930518Y-98024517D01*
X191919462Y-98041062D01*
X191902917Y-98052118D01*
X191883400Y-98056000D01*
X190183400Y-98056000D01*
X190163883Y-98052118D01*
X190147338Y-98041062D01*
X190136282Y-98024517D01*
X190132400Y-98005000D01*
X190132400Y-96305000D01*
X190136282Y-96285483D01*
X190147338Y-96268938D01*
X190163883Y-96257882D01*
X190183400Y-96254000D01*
X191883400Y-96254000D01*
X191902917Y-96257882D01*
G37*
G36*
X193834946Y-96292797D02*
G01*
X193998128Y-96360389D01*
X194144988Y-96458518D01*
X194269882Y-96583412D01*
X194368011Y-96730272D01*
X194435603Y-96893454D01*
X194470061Y-97066687D01*
X194470061Y-97243313D01*
X194435603Y-97416546D01*
X194368011Y-97579728D01*
X194269882Y-97726588D01*
X194144988Y-97851482D01*
X193998128Y-97949611D01*
X193834946Y-98017203D01*
X193661713Y-98051661D01*
X193485087Y-98051661D01*
X193311854Y-98017203D01*
X193148672Y-97949611D01*
X193001812Y-97851482D01*
X192876918Y-97726588D01*
X192778789Y-97579728D01*
X192711197Y-97416546D01*
X192676739Y-97243313D01*
X192676739Y-97066687D01*
X192711197Y-96893454D01*
X192778789Y-96730272D01*
X192876918Y-96583412D01*
X193001812Y-96458518D01*
X193148672Y-96360389D01*
X193311854Y-96292797D01*
X193485087Y-96258339D01*
X193661713Y-96258339D01*
X193834946Y-96292797D01*
G37*
G36*
X196374946Y-96292797D02*
G01*
X196538128Y-96360389D01*
X196684988Y-96458518D01*
X196809882Y-96583412D01*
X196908011Y-96730272D01*
X196975603Y-96893454D01*
X197010061Y-97066687D01*
X197010061Y-97243313D01*
X196975603Y-97416546D01*
X196908011Y-97579728D01*
X196809882Y-97726588D01*
X196684988Y-97851482D01*
X196538128Y-97949611D01*
X196374946Y-98017203D01*
X196201713Y-98051661D01*
X196025087Y-98051661D01*
X195851854Y-98017203D01*
X195688672Y-97949611D01*
X195541812Y-97851482D01*
X195416918Y-97726588D01*
X195318789Y-97579728D01*
X195251197Y-97416546D01*
X195216739Y-97243313D01*
X195216739Y-97066687D01*
X195251197Y-96893454D01*
X195318789Y-96730272D01*
X195416918Y-96583412D01*
X195541812Y-96458518D01*
X195688672Y-96360389D01*
X195851854Y-96292797D01*
X196025087Y-96258339D01*
X196201713Y-96258339D01*
X196374946Y-96292797D01*
G37*
G36*
X198914946Y-96292797D02*
G01*
X199078128Y-96360389D01*
X199224988Y-96458518D01*
X199349882Y-96583412D01*
X199448011Y-96730272D01*
X199515603Y-96893454D01*
X199550061Y-97066687D01*
X199550061Y-97243313D01*
X199515603Y-97416546D01*
X199448011Y-97579728D01*
X199349882Y-97726588D01*
X199224988Y-97851482D01*
X199078128Y-97949611D01*
X198914946Y-98017203D01*
X198741713Y-98051661D01*
X198565087Y-98051661D01*
X198391854Y-98017203D01*
X198228672Y-97949611D01*
X198081812Y-97851482D01*
X197956918Y-97726588D01*
X197858789Y-97579728D01*
X197791197Y-97416546D01*
X197756739Y-97243313D01*
X197756739Y-97066687D01*
X197791197Y-96893454D01*
X197858789Y-96730272D01*
X197956918Y-96583412D01*
X198081812Y-96458518D01*
X198228672Y-96360389D01*
X198391854Y-96292797D01*
X198565087Y-96258339D01*
X198741713Y-96258339D01*
X198914946Y-96292797D01*
G37*
G36*
X201454946Y-96292797D02*
G01*
X201618128Y-96360389D01*
X201764988Y-96458518D01*
X201889882Y-96583412D01*
X201988011Y-96730272D01*
X202055603Y-96893454D01*
X202090061Y-97066687D01*
X202090061Y-97243313D01*
X202055603Y-97416546D01*
X201988011Y-97579728D01*
X201889882Y-97726588D01*
X201764988Y-97851482D01*
X201618128Y-97949611D01*
X201454946Y-98017203D01*
X201281713Y-98051661D01*
X201105087Y-98051661D01*
X200931854Y-98017203D01*
X200768672Y-97949611D01*
X200621812Y-97851482D01*
X200496918Y-97726588D01*
X200398789Y-97579728D01*
X200331197Y-97416546D01*
X200296739Y-97243313D01*
X200296739Y-97066687D01*
X200331197Y-96893454D01*
X200398789Y-96730272D01*
X200496918Y-96583412D01*
X200621812Y-96458518D01*
X200768672Y-96360389D01*
X200931854Y-96292797D01*
X201105087Y-96258339D01*
X201281713Y-96258339D01*
X201454946Y-96292797D01*
G37*
G36*
X203994946Y-96292797D02*
G01*
X204158128Y-96360389D01*
X204304988Y-96458518D01*
X204429882Y-96583412D01*
X204528011Y-96730272D01*
X204595603Y-96893454D01*
X204630061Y-97066687D01*
X204630061Y-97243313D01*
X204595603Y-97416546D01*
X204528011Y-97579728D01*
X204429882Y-97726588D01*
X204304988Y-97851482D01*
X204158128Y-97949611D01*
X203994946Y-98017203D01*
X203821713Y-98051661D01*
X203645087Y-98051661D01*
X203471854Y-98017203D01*
X203308672Y-97949611D01*
X203161812Y-97851482D01*
X203036918Y-97726588D01*
X202938789Y-97579728D01*
X202871197Y-97416546D01*
X202836739Y-97243313D01*
X202836739Y-97066687D01*
X202871197Y-96893454D01*
X202938789Y-96730272D01*
X203036918Y-96583412D01*
X203161812Y-96458518D01*
X203308672Y-96360389D01*
X203471854Y-96292797D01*
X203645087Y-96258339D01*
X203821713Y-96258339D01*
X203994946Y-96292797D01*
G37*
G36*
X206534946Y-96292797D02*
G01*
X206698128Y-96360389D01*
X206844988Y-96458518D01*
X206969882Y-96583412D01*
X207068011Y-96730272D01*
X207135603Y-96893454D01*
X207170061Y-97066687D01*
X207170061Y-97243313D01*
X207135603Y-97416546D01*
X207068011Y-97579728D01*
X206969882Y-97726588D01*
X206844988Y-97851482D01*
X206698128Y-97949611D01*
X206534946Y-98017203D01*
X206361713Y-98051661D01*
X206185087Y-98051661D01*
X206011854Y-98017203D01*
X205848672Y-97949611D01*
X205701812Y-97851482D01*
X205576918Y-97726588D01*
X205478789Y-97579728D01*
X205411197Y-97416546D01*
X205376739Y-97243313D01*
X205376739Y-97066687D01*
X205411197Y-96893454D01*
X205478789Y-96730272D01*
X205576918Y-96583412D01*
X205701812Y-96458518D01*
X205848672Y-96360389D01*
X206011854Y-96292797D01*
X206185087Y-96258339D01*
X206361713Y-96258339D01*
X206534946Y-96292797D01*
G37*
G36*
X191902917Y-93717882D02*
G01*
X191919462Y-93728938D01*
X191930518Y-93745483D01*
X191934400Y-93765000D01*
X191934400Y-95465000D01*
X191930518Y-95484517D01*
X191919462Y-95501062D01*
X191902917Y-95512118D01*
X191883400Y-95516000D01*
X190183400Y-95516000D01*
X190163883Y-95512118D01*
X190147338Y-95501062D01*
X190136282Y-95484517D01*
X190132400Y-95465000D01*
X190132400Y-93765000D01*
X190136282Y-93745483D01*
X190147338Y-93728938D01*
X190163883Y-93717882D01*
X190183400Y-93714000D01*
X191883400Y-93714000D01*
X191902917Y-93717882D01*
G37*
G36*
X193834946Y-93752797D02*
G01*
X193998128Y-93820389D01*
X194144988Y-93918518D01*
X194269882Y-94043412D01*
X194368011Y-94190272D01*
X194435603Y-94353454D01*
X194470061Y-94526687D01*
X194470061Y-94703313D01*
X194435603Y-94876546D01*
X194368011Y-95039728D01*
X194269882Y-95186588D01*
X194144988Y-95311482D01*
X193998128Y-95409611D01*
X193834946Y-95477203D01*
X193661713Y-95511661D01*
X193485087Y-95511661D01*
X193311854Y-95477203D01*
X193148672Y-95409611D01*
X193001812Y-95311482D01*
X192876918Y-95186588D01*
X192778789Y-95039728D01*
X192711197Y-94876546D01*
X192676739Y-94703313D01*
X192676739Y-94526687D01*
X192711197Y-94353454D01*
X192778789Y-94190272D01*
X192876918Y-94043412D01*
X193001812Y-93918518D01*
X193148672Y-93820389D01*
X193311854Y-93752797D01*
X193485087Y-93718339D01*
X193661713Y-93718339D01*
X193834946Y-93752797D01*
G37*
G36*
X196374946Y-93752797D02*
G01*
X196538128Y-93820389D01*
X196684988Y-93918518D01*
X196809882Y-94043412D01*
X196908011Y-94190272D01*
X196975603Y-94353454D01*
X197010061Y-94526687D01*
X197010061Y-94703313D01*
X196975603Y-94876546D01*
X196908011Y-95039728D01*
X196809882Y-95186588D01*
X196684988Y-95311482D01*
X196538128Y-95409611D01*
X196374946Y-95477203D01*
X196201713Y-95511661D01*
X196025087Y-95511661D01*
X195851854Y-95477203D01*
X195688672Y-95409611D01*
X195541812Y-95311482D01*
X195416918Y-95186588D01*
X195318789Y-95039728D01*
X195251197Y-94876546D01*
X195216739Y-94703313D01*
X195216739Y-94526687D01*
X195251197Y-94353454D01*
X195318789Y-94190272D01*
X195416918Y-94043412D01*
X195541812Y-93918518D01*
X195688672Y-93820389D01*
X195851854Y-93752797D01*
X196025087Y-93718339D01*
X196201713Y-93718339D01*
X196374946Y-93752797D01*
G37*
G36*
X198914946Y-93752797D02*
G01*
X199078128Y-93820389D01*
X199224988Y-93918518D01*
X199349882Y-94043412D01*
X199448011Y-94190272D01*
X199515603Y-94353454D01*
X199550061Y-94526687D01*
X199550061Y-94703313D01*
X199515603Y-94876546D01*
X199448011Y-95039728D01*
X199349882Y-95186588D01*
X199224988Y-95311482D01*
X199078128Y-95409611D01*
X198914946Y-95477203D01*
X198741713Y-95511661D01*
X198565087Y-95511661D01*
X198391854Y-95477203D01*
X198228672Y-95409611D01*
X198081812Y-95311482D01*
X197956918Y-95186588D01*
X197858789Y-95039728D01*
X197791197Y-94876546D01*
X197756739Y-94703313D01*
X197756739Y-94526687D01*
X197791197Y-94353454D01*
X197858789Y-94190272D01*
X197956918Y-94043412D01*
X198081812Y-93918518D01*
X198228672Y-93820389D01*
X198391854Y-93752797D01*
X198565087Y-93718339D01*
X198741713Y-93718339D01*
X198914946Y-93752797D01*
G37*
G36*
X201454946Y-93752797D02*
G01*
X201618128Y-93820389D01*
X201764988Y-93918518D01*
X201889882Y-94043412D01*
X201988011Y-94190272D01*
X202055603Y-94353454D01*
X202090061Y-94526687D01*
X202090061Y-94703313D01*
X202055603Y-94876546D01*
X201988011Y-95039728D01*
X201889882Y-95186588D01*
X201764988Y-95311482D01*
X201618128Y-95409611D01*
X201454946Y-95477203D01*
X201281713Y-95511661D01*
X201105087Y-95511661D01*
X200931854Y-95477203D01*
X200768672Y-95409611D01*
X200621812Y-95311482D01*
X200496918Y-95186588D01*
X200398789Y-95039728D01*
X200331197Y-94876546D01*
X200296739Y-94703313D01*
X200296739Y-94526687D01*
X200331197Y-94353454D01*
X200398789Y-94190272D01*
X200496918Y-94043412D01*
X200621812Y-93918518D01*
X200768672Y-93820389D01*
X200931854Y-93752797D01*
X201105087Y-93718339D01*
X201281713Y-93718339D01*
X201454946Y-93752797D01*
G37*
G36*
X203994946Y-93752797D02*
G01*
X204158128Y-93820389D01*
X204304988Y-93918518D01*
X204429882Y-94043412D01*
X204528011Y-94190272D01*
X204595603Y-94353454D01*
X204630061Y-94526687D01*
X204630061Y-94703313D01*
X204595603Y-94876546D01*
X204528011Y-95039728D01*
X204429882Y-95186588D01*
X204304988Y-95311482D01*
X204158128Y-95409611D01*
X203994946Y-95477203D01*
X203821713Y-95511661D01*
X203645087Y-95511661D01*
X203471854Y-95477203D01*
X203308672Y-95409611D01*
X203161812Y-95311482D01*
X203036918Y-95186588D01*
X202938789Y-95039728D01*
X202871197Y-94876546D01*
X202836739Y-94703313D01*
X202836739Y-94526687D01*
X202871197Y-94353454D01*
X202938789Y-94190272D01*
X203036918Y-94043412D01*
X203161812Y-93918518D01*
X203308672Y-93820389D01*
X203471854Y-93752797D01*
X203645087Y-93718339D01*
X203821713Y-93718339D01*
X203994946Y-93752797D01*
G37*
G36*
X206534946Y-93752797D02*
G01*
X206698128Y-93820389D01*
X206844988Y-93918518D01*
X206969882Y-94043412D01*
X207068011Y-94190272D01*
X207135603Y-94353454D01*
X207170061Y-94526687D01*
X207170061Y-94703313D01*
X207135603Y-94876546D01*
X207068011Y-95039728D01*
X206969882Y-95186588D01*
X206844988Y-95311482D01*
X206698128Y-95409611D01*
X206534946Y-95477203D01*
X206361713Y-95511661D01*
X206185087Y-95511661D01*
X206011854Y-95477203D01*
X205848672Y-95409611D01*
X205701812Y-95311482D01*
X205576918Y-95186588D01*
X205478789Y-95039728D01*
X205411197Y-94876546D01*
X205376739Y-94703313D01*
X205376739Y-94526687D01*
X205411197Y-94353454D01*
X205478789Y-94190272D01*
X205576918Y-94043412D01*
X205701812Y-93918518D01*
X205848672Y-93820389D01*
X206011854Y-93752797D01*
X206185087Y-93718339D01*
X206361713Y-93718339D01*
X206534946Y-93752797D01*
G37*
G36*
X209074946Y-93752797D02*
G01*
X209238128Y-93820389D01*
X209384988Y-93918518D01*
X209509882Y-94043412D01*
X209608011Y-94190272D01*
X209675603Y-94353454D01*
X209710061Y-94526687D01*
X209710061Y-94703313D01*
X209675603Y-94876546D01*
X209608011Y-95039728D01*
X209509882Y-95186588D01*
X209384988Y-95311482D01*
X209238128Y-95409611D01*
X209074946Y-95477203D01*
X208901713Y-95511661D01*
X208725087Y-95511661D01*
X208551854Y-95477203D01*
X208388672Y-95409611D01*
X208241812Y-95311482D01*
X208116918Y-95186588D01*
X208018789Y-95039728D01*
X207951197Y-94876546D01*
X207916739Y-94703313D01*
X207916739Y-94526687D01*
X207951197Y-94353454D01*
X208018789Y-94190272D01*
X208116918Y-94043412D01*
X208241812Y-93918518D01*
X208388672Y-93820389D01*
X208551854Y-93752797D01*
X208725087Y-93718339D01*
X208901713Y-93718339D01*
X209074946Y-93752797D01*
G37*
G36*
X191294946Y-91212797D02*
G01*
X191458128Y-91280389D01*
X191604988Y-91378518D01*
X191729882Y-91503412D01*
X191828011Y-91650272D01*
X191895603Y-91813454D01*
X191930061Y-91986687D01*
X191930061Y-92163313D01*
X191895603Y-92336546D01*
X191828011Y-92499728D01*
X191729882Y-92646588D01*
X191604988Y-92771482D01*
X191458128Y-92869611D01*
X191294946Y-92937203D01*
X191121713Y-92971661D01*
X190945087Y-92971661D01*
X190771854Y-92937203D01*
X190608672Y-92869611D01*
X190461812Y-92771482D01*
X190336918Y-92646588D01*
X190238789Y-92499728D01*
X190171197Y-92336546D01*
X190136739Y-92163313D01*
X190136739Y-91986687D01*
X190171197Y-91813454D01*
X190238789Y-91650272D01*
X190336918Y-91503412D01*
X190461812Y-91378518D01*
X190608672Y-91280389D01*
X190771854Y-91212797D01*
X190945087Y-91178339D01*
X191121713Y-91178339D01*
X191294946Y-91212797D01*
G37*
G36*
X193834946Y-91212797D02*
G01*
X193998128Y-91280389D01*
X194144988Y-91378518D01*
X194269882Y-91503412D01*
X194368011Y-91650272D01*
X194435603Y-91813454D01*
X194470061Y-91986687D01*
X194470061Y-92163313D01*
X194435603Y-92336546D01*
X194368011Y-92499728D01*
X194269882Y-92646588D01*
X194144988Y-92771482D01*
X193998128Y-92869611D01*
X193834946Y-92937203D01*
X193661713Y-92971661D01*
X193485087Y-92971661D01*
X193311854Y-92937203D01*
X193148672Y-92869611D01*
X193001812Y-92771482D01*
X192876918Y-92646588D01*
X192778789Y-92499728D01*
X192711197Y-92336546D01*
X192676739Y-92163313D01*
X192676739Y-91986687D01*
X192711197Y-91813454D01*
X192778789Y-91650272D01*
X192876918Y-91503412D01*
X193001812Y-91378518D01*
X193148672Y-91280389D01*
X193311854Y-91212797D01*
X193485087Y-91178339D01*
X193661713Y-91178339D01*
X193834946Y-91212797D01*
G37*
G36*
X196374946Y-91212797D02*
G01*
X196538128Y-91280389D01*
X196684988Y-91378518D01*
X196809882Y-91503412D01*
X196908011Y-91650272D01*
X196975603Y-91813454D01*
X197010061Y-91986687D01*
X197010061Y-92163313D01*
X196975603Y-92336546D01*
X196908011Y-92499728D01*
X196809882Y-92646588D01*
X196684988Y-92771482D01*
X196538128Y-92869611D01*
X196374946Y-92937203D01*
X196201713Y-92971661D01*
X196025087Y-92971661D01*
X195851854Y-92937203D01*
X195688672Y-92869611D01*
X195541812Y-92771482D01*
X195416918Y-92646588D01*
X195318789Y-92499728D01*
X195251197Y-92336546D01*
X195216739Y-92163313D01*
X195216739Y-91986687D01*
X195251197Y-91813454D01*
X195318789Y-91650272D01*
X195416918Y-91503412D01*
X195541812Y-91378518D01*
X195688672Y-91280389D01*
X195851854Y-91212797D01*
X196025087Y-91178339D01*
X196201713Y-91178339D01*
X196374946Y-91212797D01*
G37*
G36*
X198914946Y-91212797D02*
G01*
X199078128Y-91280389D01*
X199224988Y-91378518D01*
X199349882Y-91503412D01*
X199448011Y-91650272D01*
X199515603Y-91813454D01*
X199550061Y-91986687D01*
X199550061Y-92163313D01*
X199515603Y-92336546D01*
X199448011Y-92499728D01*
X199349882Y-92646588D01*
X199224988Y-92771482D01*
X199078128Y-92869611D01*
X198914946Y-92937203D01*
X198741713Y-92971661D01*
X198565087Y-92971661D01*
X198391854Y-92937203D01*
X198228672Y-92869611D01*
X198081812Y-92771482D01*
X197956918Y-92646588D01*
X197858789Y-92499728D01*
X197791197Y-92336546D01*
X197756739Y-92163313D01*
X197756739Y-91986687D01*
X197791197Y-91813454D01*
X197858789Y-91650272D01*
X197956918Y-91503412D01*
X198081812Y-91378518D01*
X198228672Y-91280389D01*
X198391854Y-91212797D01*
X198565087Y-91178339D01*
X198741713Y-91178339D01*
X198914946Y-91212797D01*
G37*
G36*
X201454946Y-91212797D02*
G01*
X201618128Y-91280389D01*
X201764988Y-91378518D01*
X201889882Y-91503412D01*
X201988011Y-91650272D01*
X202055603Y-91813454D01*
X202090061Y-91986687D01*
X202090061Y-92163313D01*
X202055603Y-92336546D01*
X201988011Y-92499728D01*
X201889882Y-92646588D01*
X201764988Y-92771482D01*
X201618128Y-92869611D01*
X201454946Y-92937203D01*
X201281713Y-92971661D01*
X201105087Y-92971661D01*
X200931854Y-92937203D01*
X200768672Y-92869611D01*
X200621812Y-92771482D01*
X200496918Y-92646588D01*
X200398789Y-92499728D01*
X200331197Y-92336546D01*
X200296739Y-92163313D01*
X200296739Y-91986687D01*
X200331197Y-91813454D01*
X200398789Y-91650272D01*
X200496918Y-91503412D01*
X200621812Y-91378518D01*
X200768672Y-91280389D01*
X200931854Y-91212797D01*
X201105087Y-91178339D01*
X201281713Y-91178339D01*
X201454946Y-91212797D01*
G37*
G36*
X203994946Y-91212797D02*
G01*
X204158128Y-91280389D01*
X204304988Y-91378518D01*
X204429882Y-91503412D01*
X204528011Y-91650272D01*
X204595603Y-91813454D01*
X204630061Y-91986687D01*
X204630061Y-92163313D01*
X204595603Y-92336546D01*
X204528011Y-92499728D01*
X204429882Y-92646588D01*
X204304988Y-92771482D01*
X204158128Y-92869611D01*
X203994946Y-92937203D01*
X203821713Y-92971661D01*
X203645087Y-92971661D01*
X203471854Y-92937203D01*
X203308672Y-92869611D01*
X203161812Y-92771482D01*
X203036918Y-92646588D01*
X202938789Y-92499728D01*
X202871197Y-92336546D01*
X202836739Y-92163313D01*
X202836739Y-91986687D01*
X202871197Y-91813454D01*
X202938789Y-91650272D01*
X203036918Y-91503412D01*
X203161812Y-91378518D01*
X203308672Y-91280389D01*
X203471854Y-91212797D01*
X203645087Y-91178339D01*
X203821713Y-91178339D01*
X203994946Y-91212797D01*
G37*
G36*
X206534946Y-91212797D02*
G01*
X206698128Y-91280389D01*
X206844988Y-91378518D01*
X206969882Y-91503412D01*
X207068011Y-91650272D01*
X207135603Y-91813454D01*
X207170061Y-91986687D01*
X207170061Y-92163313D01*
X207135603Y-92336546D01*
X207068011Y-92499728D01*
X206969882Y-92646588D01*
X206844988Y-92771482D01*
X206698128Y-92869611D01*
X206534946Y-92937203D01*
X206361713Y-92971661D01*
X206185087Y-92971661D01*
X206011854Y-92937203D01*
X205848672Y-92869611D01*
X205701812Y-92771482D01*
X205576918Y-92646588D01*
X205478789Y-92499728D01*
X205411197Y-92336546D01*
X205376739Y-92163313D01*
X205376739Y-91986687D01*
X205411197Y-91813454D01*
X205478789Y-91650272D01*
X205576918Y-91503412D01*
X205701812Y-91378518D01*
X205848672Y-91280389D01*
X206011854Y-91212797D01*
X206185087Y-91178339D01*
X206361713Y-91178339D01*
X206534946Y-91212797D01*
G37*
G36*
X209074946Y-91212797D02*
G01*
X209238128Y-91280389D01*
X209384988Y-91378518D01*
X209509882Y-91503412D01*
X209608011Y-91650272D01*
X209675603Y-91813454D01*
X209710061Y-91986687D01*
X209710061Y-92163313D01*
X209675603Y-92336546D01*
X209608011Y-92499728D01*
X209509882Y-92646588D01*
X209384988Y-92771482D01*
X209238128Y-92869611D01*
X209074946Y-92937203D01*
X208901713Y-92971661D01*
X208725087Y-92971661D01*
X208551854Y-92937203D01*
X208388672Y-92869611D01*
X208241812Y-92771482D01*
X208116918Y-92646588D01*
X208018789Y-92499728D01*
X207951197Y-92336546D01*
X207916739Y-92163313D01*
X207916739Y-91986687D01*
X207951197Y-91813454D01*
X208018789Y-91650272D01*
X208116918Y-91503412D01*
X208241812Y-91378518D01*
X208388672Y-91280389D01*
X208551854Y-91212797D01*
X208725087Y-91178339D01*
X208901713Y-91178339D01*
X209074946Y-91212797D01*
G37*
M02*
