G04 #@! TF.GenerationSoftware,KiCad,Pcbnew,9.0.7*
G04 #@! TF.CreationDate,2026-03-02T03:16:57-06:00*
G04 #@! TF.ProjectId,TubeClock,54756265-436c-46f6-936b-2e6b69636164,rev?*
G04 #@! TF.SameCoordinates,Original*
G04 #@! TF.FileFunction,Legend,Bot*
G04 #@! TF.FilePolarity,Positive*
%FSLAX46Y46*%
G04 Gerber Fmt 4.6, Leading zero omitted, Abs format (unit mm)*
G04 Created by KiCad (PCBNEW 9.0.7) date 2026-03-02 03:16:57*
%MOMM*%
%LPD*%
G01*
G04 APERTURE LIST*
%ADD10C,0.160000*%
%ADD11C,0.120000*%
G04 APERTURE END LIST*
D10*
X218087923Y-98746775D02*
X218087923Y-99394394D01*
X218087923Y-99394394D02*
X218049828Y-99470584D01*
X218049828Y-99470584D02*
X218011733Y-99508680D01*
X218011733Y-99508680D02*
X217935542Y-99546775D01*
X217935542Y-99546775D02*
X217783161Y-99546775D01*
X217783161Y-99546775D02*
X217706971Y-99508680D01*
X217706971Y-99508680D02*
X217668876Y-99470584D01*
X217668876Y-99470584D02*
X217630780Y-99394394D01*
X217630780Y-99394394D02*
X217630780Y-98746775D01*
X217287924Y-99508680D02*
X217173638Y-99546775D01*
X217173638Y-99546775D02*
X216983162Y-99546775D01*
X216983162Y-99546775D02*
X216906971Y-99508680D01*
X216906971Y-99508680D02*
X216868876Y-99470584D01*
X216868876Y-99470584D02*
X216830781Y-99394394D01*
X216830781Y-99394394D02*
X216830781Y-99318203D01*
X216830781Y-99318203D02*
X216868876Y-99242013D01*
X216868876Y-99242013D02*
X216906971Y-99203918D01*
X216906971Y-99203918D02*
X216983162Y-99165822D01*
X216983162Y-99165822D02*
X217135543Y-99127727D01*
X217135543Y-99127727D02*
X217211733Y-99089632D01*
X217211733Y-99089632D02*
X217249828Y-99051537D01*
X217249828Y-99051537D02*
X217287924Y-98975346D01*
X217287924Y-98975346D02*
X217287924Y-98899156D01*
X217287924Y-98899156D02*
X217249828Y-98822965D01*
X217249828Y-98822965D02*
X217211733Y-98784870D01*
X217211733Y-98784870D02*
X217135543Y-98746775D01*
X217135543Y-98746775D02*
X216945066Y-98746775D01*
X216945066Y-98746775D02*
X216830781Y-98784870D01*
X216221257Y-99127727D02*
X216106971Y-99165822D01*
X216106971Y-99165822D02*
X216068876Y-99203918D01*
X216068876Y-99203918D02*
X216030780Y-99280108D01*
X216030780Y-99280108D02*
X216030780Y-99394394D01*
X216030780Y-99394394D02*
X216068876Y-99470584D01*
X216068876Y-99470584D02*
X216106971Y-99508680D01*
X216106971Y-99508680D02*
X216183161Y-99546775D01*
X216183161Y-99546775D02*
X216487923Y-99546775D01*
X216487923Y-99546775D02*
X216487923Y-98746775D01*
X216487923Y-98746775D02*
X216221257Y-98746775D01*
X216221257Y-98746775D02*
X216145066Y-98784870D01*
X216145066Y-98784870D02*
X216106971Y-98822965D01*
X216106971Y-98822965D02*
X216068876Y-98899156D01*
X216068876Y-98899156D02*
X216068876Y-98975346D01*
X216068876Y-98975346D02*
X216106971Y-99051537D01*
X216106971Y-99051537D02*
X216145066Y-99089632D01*
X216145066Y-99089632D02*
X216221257Y-99127727D01*
X216221257Y-99127727D02*
X216487923Y-99127727D01*
X192628529Y-124244523D02*
X192666624Y-124320713D01*
X192666624Y-124320713D02*
X192666624Y-124434999D01*
X192666624Y-124434999D02*
X192628529Y-124549285D01*
X192628529Y-124549285D02*
X192552339Y-124625475D01*
X192552339Y-124625475D02*
X192476148Y-124663570D01*
X192476148Y-124663570D02*
X192323767Y-124701666D01*
X192323767Y-124701666D02*
X192209481Y-124701666D01*
X192209481Y-124701666D02*
X192057100Y-124663570D01*
X192057100Y-124663570D02*
X191980910Y-124625475D01*
X191980910Y-124625475D02*
X191904720Y-124549285D01*
X191904720Y-124549285D02*
X191866624Y-124434999D01*
X191866624Y-124434999D02*
X191866624Y-124358808D01*
X191866624Y-124358808D02*
X191904720Y-124244523D01*
X191904720Y-124244523D02*
X191942815Y-124206427D01*
X191942815Y-124206427D02*
X192209481Y-124206427D01*
X192209481Y-124206427D02*
X192209481Y-124358808D01*
X191866624Y-123863570D02*
X192666624Y-123863570D01*
X192666624Y-123863570D02*
X191866624Y-123406427D01*
X191866624Y-123406427D02*
X192666624Y-123406427D01*
X191866624Y-123025475D02*
X192666624Y-123025475D01*
X192666624Y-123025475D02*
X192666624Y-122834999D01*
X192666624Y-122834999D02*
X192628529Y-122720713D01*
X192628529Y-122720713D02*
X192552339Y-122644523D01*
X192552339Y-122644523D02*
X192476148Y-122606428D01*
X192476148Y-122606428D02*
X192323767Y-122568332D01*
X192323767Y-122568332D02*
X192209481Y-122568332D01*
X192209481Y-122568332D02*
X192057100Y-122606428D01*
X192057100Y-122606428D02*
X191980910Y-122644523D01*
X191980910Y-122644523D02*
X191904720Y-122720713D01*
X191904720Y-122720713D02*
X191866624Y-122834999D01*
X191866624Y-122834999D02*
X191866624Y-123025475D01*
X193078901Y-118146775D02*
X192621758Y-118146775D01*
X192850330Y-118946775D02*
X192850330Y-118146775D01*
X192431282Y-118146775D02*
X191897948Y-118946775D01*
X191897948Y-118146775D02*
X192431282Y-118946775D01*
X192697948Y-121446775D02*
X192964615Y-121065822D01*
X193155091Y-121446775D02*
X193155091Y-120646775D01*
X193155091Y-120646775D02*
X192850329Y-120646775D01*
X192850329Y-120646775D02*
X192774139Y-120684870D01*
X192774139Y-120684870D02*
X192736044Y-120722965D01*
X192736044Y-120722965D02*
X192697948Y-120799156D01*
X192697948Y-120799156D02*
X192697948Y-120913441D01*
X192697948Y-120913441D02*
X192736044Y-120989632D01*
X192736044Y-120989632D02*
X192774139Y-121027727D01*
X192774139Y-121027727D02*
X192850329Y-121065822D01*
X192850329Y-121065822D02*
X193155091Y-121065822D01*
X192431282Y-120646775D02*
X191897948Y-121446775D01*
X191897948Y-120646775D02*
X192431282Y-121446775D01*
X213749526Y-107744129D02*
X214207462Y-108202065D01*
X214207462Y-108202065D02*
X214234399Y-108282877D01*
X214234399Y-108282877D02*
X214234399Y-108336752D01*
X214234399Y-108336752D02*
X214207462Y-108417564D01*
X214207462Y-108417564D02*
X214099712Y-108525314D01*
X214099712Y-108525314D02*
X214018900Y-108552251D01*
X214018900Y-108552251D02*
X213965025Y-108552251D01*
X213965025Y-108552251D02*
X213884213Y-108525314D01*
X213884213Y-108525314D02*
X213426277Y-108067378D01*
X213237716Y-108363689D02*
X213183841Y-108363689D01*
X213183841Y-108363689D02*
X213103029Y-108390627D01*
X213103029Y-108390627D02*
X212968342Y-108525314D01*
X212968342Y-108525314D02*
X212941404Y-108606126D01*
X212941404Y-108606126D02*
X212941404Y-108660001D01*
X212941404Y-108660001D02*
X212968342Y-108740813D01*
X212968342Y-108740813D02*
X213022217Y-108794688D01*
X213022217Y-108794688D02*
X213129966Y-108848563D01*
X213129966Y-108848563D02*
X213776464Y-108848563D01*
X213776464Y-108848563D02*
X213426278Y-109198749D01*
X199611732Y-108596775D02*
X199878399Y-108215822D01*
X200068875Y-108596775D02*
X200068875Y-107796775D01*
X200068875Y-107796775D02*
X199764113Y-107796775D01*
X199764113Y-107796775D02*
X199687923Y-107834870D01*
X199687923Y-107834870D02*
X199649828Y-107872965D01*
X199649828Y-107872965D02*
X199611732Y-107949156D01*
X199611732Y-107949156D02*
X199611732Y-108063441D01*
X199611732Y-108063441D02*
X199649828Y-108139632D01*
X199649828Y-108139632D02*
X199687923Y-108177727D01*
X199687923Y-108177727D02*
X199764113Y-108215822D01*
X199764113Y-108215822D02*
X200068875Y-108215822D01*
X199306971Y-107872965D02*
X199268875Y-107834870D01*
X199268875Y-107834870D02*
X199192685Y-107796775D01*
X199192685Y-107796775D02*
X199002209Y-107796775D01*
X199002209Y-107796775D02*
X198926018Y-107834870D01*
X198926018Y-107834870D02*
X198887923Y-107872965D01*
X198887923Y-107872965D02*
X198849828Y-107949156D01*
X198849828Y-107949156D02*
X198849828Y-108025346D01*
X198849828Y-108025346D02*
X198887923Y-108139632D01*
X198887923Y-108139632D02*
X199345066Y-108596775D01*
X199345066Y-108596775D02*
X198849828Y-108596775D01*
X194163984Y-120701667D02*
X194202080Y-120663571D01*
X194202080Y-120663571D02*
X194240175Y-120549286D01*
X194240175Y-120549286D02*
X194240175Y-120473095D01*
X194240175Y-120473095D02*
X194202080Y-120358809D01*
X194202080Y-120358809D02*
X194125889Y-120282619D01*
X194125889Y-120282619D02*
X194049699Y-120244524D01*
X194049699Y-120244524D02*
X193897318Y-120206428D01*
X193897318Y-120206428D02*
X193783032Y-120206428D01*
X193783032Y-120206428D02*
X193630651Y-120244524D01*
X193630651Y-120244524D02*
X193554460Y-120282619D01*
X193554460Y-120282619D02*
X193478270Y-120358809D01*
X193478270Y-120358809D02*
X193440175Y-120473095D01*
X193440175Y-120473095D02*
X193440175Y-120549286D01*
X193440175Y-120549286D02*
X193478270Y-120663571D01*
X193478270Y-120663571D02*
X193516365Y-120701667D01*
X193440175Y-120968333D02*
X193440175Y-121463571D01*
X193440175Y-121463571D02*
X193744937Y-121196905D01*
X193744937Y-121196905D02*
X193744937Y-121311190D01*
X193744937Y-121311190D02*
X193783032Y-121387381D01*
X193783032Y-121387381D02*
X193821127Y-121425476D01*
X193821127Y-121425476D02*
X193897318Y-121463571D01*
X193897318Y-121463571D02*
X194087794Y-121463571D01*
X194087794Y-121463571D02*
X194163984Y-121425476D01*
X194163984Y-121425476D02*
X194202080Y-121387381D01*
X194202080Y-121387381D02*
X194240175Y-121311190D01*
X194240175Y-121311190D02*
X194240175Y-121082619D01*
X194240175Y-121082619D02*
X194202080Y-121006428D01*
X194202080Y-121006428D02*
X194163984Y-120968333D01*
X195813984Y-118751667D02*
X195852080Y-118713571D01*
X195852080Y-118713571D02*
X195890175Y-118599286D01*
X195890175Y-118599286D02*
X195890175Y-118523095D01*
X195890175Y-118523095D02*
X195852080Y-118408809D01*
X195852080Y-118408809D02*
X195775889Y-118332619D01*
X195775889Y-118332619D02*
X195699699Y-118294524D01*
X195699699Y-118294524D02*
X195547318Y-118256428D01*
X195547318Y-118256428D02*
X195433032Y-118256428D01*
X195433032Y-118256428D02*
X195280651Y-118294524D01*
X195280651Y-118294524D02*
X195204460Y-118332619D01*
X195204460Y-118332619D02*
X195128270Y-118408809D01*
X195128270Y-118408809D02*
X195090175Y-118523095D01*
X195090175Y-118523095D02*
X195090175Y-118599286D01*
X195090175Y-118599286D02*
X195128270Y-118713571D01*
X195128270Y-118713571D02*
X195166365Y-118751667D01*
X195890175Y-119132619D02*
X195890175Y-119285000D01*
X195890175Y-119285000D02*
X195852080Y-119361190D01*
X195852080Y-119361190D02*
X195813984Y-119399286D01*
X195813984Y-119399286D02*
X195699699Y-119475476D01*
X195699699Y-119475476D02*
X195547318Y-119513571D01*
X195547318Y-119513571D02*
X195242556Y-119513571D01*
X195242556Y-119513571D02*
X195166365Y-119475476D01*
X195166365Y-119475476D02*
X195128270Y-119437381D01*
X195128270Y-119437381D02*
X195090175Y-119361190D01*
X195090175Y-119361190D02*
X195090175Y-119208809D01*
X195090175Y-119208809D02*
X195128270Y-119132619D01*
X195128270Y-119132619D02*
X195166365Y-119094524D01*
X195166365Y-119094524D02*
X195242556Y-119056428D01*
X195242556Y-119056428D02*
X195433032Y-119056428D01*
X195433032Y-119056428D02*
X195509222Y-119094524D01*
X195509222Y-119094524D02*
X195547318Y-119132619D01*
X195547318Y-119132619D02*
X195585413Y-119208809D01*
X195585413Y-119208809D02*
X195585413Y-119361190D01*
X195585413Y-119361190D02*
X195547318Y-119437381D01*
X195547318Y-119437381D02*
X195509222Y-119475476D01*
X195509222Y-119475476D02*
X195433032Y-119513571D01*
X195890175Y-120851667D02*
X195509222Y-120585000D01*
X195890175Y-120394524D02*
X195090175Y-120394524D01*
X195090175Y-120394524D02*
X195090175Y-120699286D01*
X195090175Y-120699286D02*
X195128270Y-120775476D01*
X195128270Y-120775476D02*
X195166365Y-120813571D01*
X195166365Y-120813571D02*
X195242556Y-120851667D01*
X195242556Y-120851667D02*
X195356841Y-120851667D01*
X195356841Y-120851667D02*
X195433032Y-120813571D01*
X195433032Y-120813571D02*
X195471127Y-120775476D01*
X195471127Y-120775476D02*
X195509222Y-120699286D01*
X195509222Y-120699286D02*
X195509222Y-120394524D01*
X195090175Y-121118333D02*
X195090175Y-121613571D01*
X195090175Y-121613571D02*
X195394937Y-121346905D01*
X195394937Y-121346905D02*
X195394937Y-121461190D01*
X195394937Y-121461190D02*
X195433032Y-121537381D01*
X195433032Y-121537381D02*
X195471127Y-121575476D01*
X195471127Y-121575476D02*
X195547318Y-121613571D01*
X195547318Y-121613571D02*
X195737794Y-121613571D01*
X195737794Y-121613571D02*
X195813984Y-121575476D01*
X195813984Y-121575476D02*
X195852080Y-121537381D01*
X195852080Y-121537381D02*
X195890175Y-121461190D01*
X195890175Y-121461190D02*
X195890175Y-121232619D01*
X195890175Y-121232619D02*
X195852080Y-121156428D01*
X195852080Y-121156428D02*
X195813984Y-121118333D01*
X188390175Y-96888333D02*
X188961603Y-96888333D01*
X188961603Y-96888333D02*
X189075889Y-96850238D01*
X189075889Y-96850238D02*
X189152080Y-96774047D01*
X189152080Y-96774047D02*
X189190175Y-96659762D01*
X189190175Y-96659762D02*
X189190175Y-96583571D01*
X188390175Y-97193095D02*
X188390175Y-97688333D01*
X188390175Y-97688333D02*
X188694937Y-97421667D01*
X188694937Y-97421667D02*
X188694937Y-97535952D01*
X188694937Y-97535952D02*
X188733032Y-97612143D01*
X188733032Y-97612143D02*
X188771127Y-97650238D01*
X188771127Y-97650238D02*
X188847318Y-97688333D01*
X188847318Y-97688333D02*
X189037794Y-97688333D01*
X189037794Y-97688333D02*
X189113984Y-97650238D01*
X189113984Y-97650238D02*
X189152080Y-97612143D01*
X189152080Y-97612143D02*
X189190175Y-97535952D01*
X189190175Y-97535952D02*
X189190175Y-97307381D01*
X189190175Y-97307381D02*
X189152080Y-97231190D01*
X189152080Y-97231190D02*
X189113984Y-97193095D01*
X188390175Y-93078333D02*
X188961603Y-93078333D01*
X188961603Y-93078333D02*
X189075889Y-93040238D01*
X189075889Y-93040238D02*
X189152080Y-92964047D01*
X189152080Y-92964047D02*
X189190175Y-92849762D01*
X189190175Y-92849762D02*
X189190175Y-92773571D01*
X188390175Y-93840238D02*
X188390175Y-93459286D01*
X188390175Y-93459286D02*
X188771127Y-93421190D01*
X188771127Y-93421190D02*
X188733032Y-93459286D01*
X188733032Y-93459286D02*
X188694937Y-93535476D01*
X188694937Y-93535476D02*
X188694937Y-93725952D01*
X188694937Y-93725952D02*
X188733032Y-93802143D01*
X188733032Y-93802143D02*
X188771127Y-93840238D01*
X188771127Y-93840238D02*
X188847318Y-93878333D01*
X188847318Y-93878333D02*
X189037794Y-93878333D01*
X189037794Y-93878333D02*
X189113984Y-93840238D01*
X189113984Y-93840238D02*
X189152080Y-93802143D01*
X189152080Y-93802143D02*
X189190175Y-93725952D01*
X189190175Y-93725952D02*
X189190175Y-93535476D01*
X189190175Y-93535476D02*
X189152080Y-93459286D01*
X189152080Y-93459286D02*
X189113984Y-93421190D01*
X195052080Y-110518332D02*
X195090175Y-110632618D01*
X195090175Y-110632618D02*
X195090175Y-110823094D01*
X195090175Y-110823094D02*
X195052080Y-110899285D01*
X195052080Y-110899285D02*
X195013984Y-110937380D01*
X195013984Y-110937380D02*
X194937794Y-110975475D01*
X194937794Y-110975475D02*
X194861603Y-110975475D01*
X194861603Y-110975475D02*
X194785413Y-110937380D01*
X194785413Y-110937380D02*
X194747318Y-110899285D01*
X194747318Y-110899285D02*
X194709222Y-110823094D01*
X194709222Y-110823094D02*
X194671127Y-110670713D01*
X194671127Y-110670713D02*
X194633032Y-110594523D01*
X194633032Y-110594523D02*
X194594937Y-110556428D01*
X194594937Y-110556428D02*
X194518746Y-110518332D01*
X194518746Y-110518332D02*
X194442556Y-110518332D01*
X194442556Y-110518332D02*
X194366365Y-110556428D01*
X194366365Y-110556428D02*
X194328270Y-110594523D01*
X194328270Y-110594523D02*
X194290175Y-110670713D01*
X194290175Y-110670713D02*
X194290175Y-110861190D01*
X194290175Y-110861190D02*
X194328270Y-110975475D01*
X194290175Y-111242142D02*
X195090175Y-111432618D01*
X195090175Y-111432618D02*
X194518746Y-111584999D01*
X194518746Y-111584999D02*
X195090175Y-111737380D01*
X195090175Y-111737380D02*
X194290175Y-111927857D01*
X195090175Y-112651666D02*
X195090175Y-112194523D01*
X195090175Y-112423095D02*
X194290175Y-112423095D01*
X194290175Y-112423095D02*
X194404460Y-112346904D01*
X194404460Y-112346904D02*
X194480651Y-112270714D01*
X194480651Y-112270714D02*
X194518746Y-112194523D01*
X192414114Y-108377727D02*
X192299828Y-108415822D01*
X192299828Y-108415822D02*
X192261733Y-108453918D01*
X192261733Y-108453918D02*
X192223637Y-108530108D01*
X192223637Y-108530108D02*
X192223637Y-108644394D01*
X192223637Y-108644394D02*
X192261733Y-108720584D01*
X192261733Y-108720584D02*
X192299828Y-108758680D01*
X192299828Y-108758680D02*
X192376018Y-108796775D01*
X192376018Y-108796775D02*
X192680780Y-108796775D01*
X192680780Y-108796775D02*
X192680780Y-107996775D01*
X192680780Y-107996775D02*
X192414114Y-107996775D01*
X192414114Y-107996775D02*
X192337923Y-108034870D01*
X192337923Y-108034870D02*
X192299828Y-108072965D01*
X192299828Y-108072965D02*
X192261733Y-108149156D01*
X192261733Y-108149156D02*
X192261733Y-108225346D01*
X192261733Y-108225346D02*
X192299828Y-108301537D01*
X192299828Y-108301537D02*
X192337923Y-108339632D01*
X192337923Y-108339632D02*
X192414114Y-108377727D01*
X192414114Y-108377727D02*
X192680780Y-108377727D01*
X191728399Y-107996775D02*
X191576018Y-107996775D01*
X191576018Y-107996775D02*
X191499828Y-108034870D01*
X191499828Y-108034870D02*
X191423637Y-108111060D01*
X191423637Y-108111060D02*
X191385542Y-108263441D01*
X191385542Y-108263441D02*
X191385542Y-108530108D01*
X191385542Y-108530108D02*
X191423637Y-108682489D01*
X191423637Y-108682489D02*
X191499828Y-108758680D01*
X191499828Y-108758680D02*
X191576018Y-108796775D01*
X191576018Y-108796775D02*
X191728399Y-108796775D01*
X191728399Y-108796775D02*
X191804590Y-108758680D01*
X191804590Y-108758680D02*
X191880780Y-108682489D01*
X191880780Y-108682489D02*
X191918876Y-108530108D01*
X191918876Y-108530108D02*
X191918876Y-108263441D01*
X191918876Y-108263441D02*
X191880780Y-108111060D01*
X191880780Y-108111060D02*
X191804590Y-108034870D01*
X191804590Y-108034870D02*
X191728399Y-107996775D01*
X190890304Y-107996775D02*
X190737923Y-107996775D01*
X190737923Y-107996775D02*
X190661733Y-108034870D01*
X190661733Y-108034870D02*
X190585542Y-108111060D01*
X190585542Y-108111060D02*
X190547447Y-108263441D01*
X190547447Y-108263441D02*
X190547447Y-108530108D01*
X190547447Y-108530108D02*
X190585542Y-108682489D01*
X190585542Y-108682489D02*
X190661733Y-108758680D01*
X190661733Y-108758680D02*
X190737923Y-108796775D01*
X190737923Y-108796775D02*
X190890304Y-108796775D01*
X190890304Y-108796775D02*
X190966495Y-108758680D01*
X190966495Y-108758680D02*
X191042685Y-108682489D01*
X191042685Y-108682489D02*
X191080781Y-108530108D01*
X191080781Y-108530108D02*
X191080781Y-108263441D01*
X191080781Y-108263441D02*
X191042685Y-108111060D01*
X191042685Y-108111060D02*
X190966495Y-108034870D01*
X190966495Y-108034870D02*
X190890304Y-107996775D01*
X190318876Y-107996775D02*
X189861733Y-107996775D01*
X190090305Y-108796775D02*
X190090305Y-107996775D01*
X206149526Y-108294129D02*
X206607462Y-108752065D01*
X206607462Y-108752065D02*
X206634399Y-108832877D01*
X206634399Y-108832877D02*
X206634399Y-108886752D01*
X206634399Y-108886752D02*
X206607462Y-108967564D01*
X206607462Y-108967564D02*
X206499712Y-109075314D01*
X206499712Y-109075314D02*
X206418900Y-109102251D01*
X206418900Y-109102251D02*
X206365025Y-109102251D01*
X206365025Y-109102251D02*
X206284213Y-109075314D01*
X206284213Y-109075314D02*
X205826277Y-108617378D01*
X205503029Y-109317750D02*
X205880152Y-109694874D01*
X205422217Y-108967564D02*
X205960965Y-109236938D01*
X205960965Y-109236938D02*
X205610778Y-109587124D01*
X196763984Y-124601667D02*
X196802080Y-124563571D01*
X196802080Y-124563571D02*
X196840175Y-124449286D01*
X196840175Y-124449286D02*
X196840175Y-124373095D01*
X196840175Y-124373095D02*
X196802080Y-124258809D01*
X196802080Y-124258809D02*
X196725889Y-124182619D01*
X196725889Y-124182619D02*
X196649699Y-124144524D01*
X196649699Y-124144524D02*
X196497318Y-124106428D01*
X196497318Y-124106428D02*
X196383032Y-124106428D01*
X196383032Y-124106428D02*
X196230651Y-124144524D01*
X196230651Y-124144524D02*
X196154460Y-124182619D01*
X196154460Y-124182619D02*
X196078270Y-124258809D01*
X196078270Y-124258809D02*
X196040175Y-124373095D01*
X196040175Y-124373095D02*
X196040175Y-124449286D01*
X196040175Y-124449286D02*
X196078270Y-124563571D01*
X196078270Y-124563571D02*
X196116365Y-124601667D01*
X196840175Y-125363571D02*
X196840175Y-124906428D01*
X196840175Y-125135000D02*
X196040175Y-125135000D01*
X196040175Y-125135000D02*
X196154460Y-125058809D01*
X196154460Y-125058809D02*
X196230651Y-124982619D01*
X196230651Y-124982619D02*
X196268746Y-124906428D01*
X199611732Y-109846775D02*
X199878399Y-109465822D01*
X200068875Y-109846775D02*
X200068875Y-109046775D01*
X200068875Y-109046775D02*
X199764113Y-109046775D01*
X199764113Y-109046775D02*
X199687923Y-109084870D01*
X199687923Y-109084870D02*
X199649828Y-109122965D01*
X199649828Y-109122965D02*
X199611732Y-109199156D01*
X199611732Y-109199156D02*
X199611732Y-109313441D01*
X199611732Y-109313441D02*
X199649828Y-109389632D01*
X199649828Y-109389632D02*
X199687923Y-109427727D01*
X199687923Y-109427727D02*
X199764113Y-109465822D01*
X199764113Y-109465822D02*
X200068875Y-109465822D01*
X198849828Y-109846775D02*
X199306971Y-109846775D01*
X199078399Y-109846775D02*
X199078399Y-109046775D01*
X199078399Y-109046775D02*
X199154590Y-109161060D01*
X199154590Y-109161060D02*
X199230780Y-109237251D01*
X199230780Y-109237251D02*
X199306971Y-109275346D01*
X195052080Y-113668332D02*
X195090175Y-113782618D01*
X195090175Y-113782618D02*
X195090175Y-113973094D01*
X195090175Y-113973094D02*
X195052080Y-114049285D01*
X195052080Y-114049285D02*
X195013984Y-114087380D01*
X195013984Y-114087380D02*
X194937794Y-114125475D01*
X194937794Y-114125475D02*
X194861603Y-114125475D01*
X194861603Y-114125475D02*
X194785413Y-114087380D01*
X194785413Y-114087380D02*
X194747318Y-114049285D01*
X194747318Y-114049285D02*
X194709222Y-113973094D01*
X194709222Y-113973094D02*
X194671127Y-113820713D01*
X194671127Y-113820713D02*
X194633032Y-113744523D01*
X194633032Y-113744523D02*
X194594937Y-113706428D01*
X194594937Y-113706428D02*
X194518746Y-113668332D01*
X194518746Y-113668332D02*
X194442556Y-113668332D01*
X194442556Y-113668332D02*
X194366365Y-113706428D01*
X194366365Y-113706428D02*
X194328270Y-113744523D01*
X194328270Y-113744523D02*
X194290175Y-113820713D01*
X194290175Y-113820713D02*
X194290175Y-114011190D01*
X194290175Y-114011190D02*
X194328270Y-114125475D01*
X194290175Y-114392142D02*
X195090175Y-114582618D01*
X195090175Y-114582618D02*
X194518746Y-114734999D01*
X194518746Y-114734999D02*
X195090175Y-114887380D01*
X195090175Y-114887380D02*
X194290175Y-115077857D01*
X194366365Y-115344523D02*
X194328270Y-115382619D01*
X194328270Y-115382619D02*
X194290175Y-115458809D01*
X194290175Y-115458809D02*
X194290175Y-115649285D01*
X194290175Y-115649285D02*
X194328270Y-115725476D01*
X194328270Y-115725476D02*
X194366365Y-115763571D01*
X194366365Y-115763571D02*
X194442556Y-115801666D01*
X194442556Y-115801666D02*
X194518746Y-115801666D01*
X194518746Y-115801666D02*
X194633032Y-115763571D01*
X194633032Y-115763571D02*
X195090175Y-115306428D01*
X195090175Y-115306428D02*
X195090175Y-115801666D01*
X194740304Y-117496775D02*
X195006971Y-117115822D01*
X195197447Y-117496775D02*
X195197447Y-116696775D01*
X195197447Y-116696775D02*
X194892685Y-116696775D01*
X194892685Y-116696775D02*
X194816495Y-116734870D01*
X194816495Y-116734870D02*
X194778400Y-116772965D01*
X194778400Y-116772965D02*
X194740304Y-116849156D01*
X194740304Y-116849156D02*
X194740304Y-116963441D01*
X194740304Y-116963441D02*
X194778400Y-117039632D01*
X194778400Y-117039632D02*
X194816495Y-117077727D01*
X194816495Y-117077727D02*
X194892685Y-117115822D01*
X194892685Y-117115822D02*
X195197447Y-117115822D01*
X194397447Y-117077727D02*
X194130781Y-117077727D01*
X194016495Y-117496775D02*
X194397447Y-117496775D01*
X194397447Y-117496775D02*
X194397447Y-116696775D01*
X194397447Y-116696775D02*
X194016495Y-116696775D01*
X193711733Y-117458680D02*
X193597447Y-117496775D01*
X193597447Y-117496775D02*
X193406971Y-117496775D01*
X193406971Y-117496775D02*
X193330780Y-117458680D01*
X193330780Y-117458680D02*
X193292685Y-117420584D01*
X193292685Y-117420584D02*
X193254590Y-117344394D01*
X193254590Y-117344394D02*
X193254590Y-117268203D01*
X193254590Y-117268203D02*
X193292685Y-117192013D01*
X193292685Y-117192013D02*
X193330780Y-117153918D01*
X193330780Y-117153918D02*
X193406971Y-117115822D01*
X193406971Y-117115822D02*
X193559352Y-117077727D01*
X193559352Y-117077727D02*
X193635542Y-117039632D01*
X193635542Y-117039632D02*
X193673637Y-117001537D01*
X193673637Y-117001537D02*
X193711733Y-116925346D01*
X193711733Y-116925346D02*
X193711733Y-116849156D01*
X193711733Y-116849156D02*
X193673637Y-116772965D01*
X193673637Y-116772965D02*
X193635542Y-116734870D01*
X193635542Y-116734870D02*
X193559352Y-116696775D01*
X193559352Y-116696775D02*
X193368875Y-116696775D01*
X193368875Y-116696775D02*
X193254590Y-116734870D01*
X192911732Y-117077727D02*
X192645066Y-117077727D01*
X192530780Y-117496775D02*
X192911732Y-117496775D01*
X192911732Y-117496775D02*
X192911732Y-116696775D01*
X192911732Y-116696775D02*
X192530780Y-116696775D01*
X192302208Y-116696775D02*
X191845065Y-116696775D01*
X192073637Y-117496775D02*
X192073637Y-116696775D01*
X209149526Y-105894129D02*
X209607462Y-106352065D01*
X209607462Y-106352065D02*
X209634399Y-106432877D01*
X209634399Y-106432877D02*
X209634399Y-106486752D01*
X209634399Y-106486752D02*
X209607462Y-106567564D01*
X209607462Y-106567564D02*
X209499712Y-106675314D01*
X209499712Y-106675314D02*
X209418900Y-106702251D01*
X209418900Y-106702251D02*
X209365025Y-106702251D01*
X209365025Y-106702251D02*
X209284213Y-106675314D01*
X209284213Y-106675314D02*
X208826277Y-106217378D01*
X208610778Y-106432877D02*
X208260592Y-106783063D01*
X208260592Y-106783063D02*
X208664653Y-106810001D01*
X208664653Y-106810001D02*
X208583841Y-106890813D01*
X208583841Y-106890813D02*
X208556904Y-106971625D01*
X208556904Y-106971625D02*
X208556904Y-107025500D01*
X208556904Y-107025500D02*
X208583841Y-107106312D01*
X208583841Y-107106312D02*
X208718528Y-107240999D01*
X208718528Y-107240999D02*
X208799340Y-107267937D01*
X208799340Y-107267937D02*
X208853215Y-107267937D01*
X208853215Y-107267937D02*
X208934027Y-107240999D01*
X208934027Y-107240999D02*
X209095652Y-107079375D01*
X209095652Y-107079375D02*
X209122589Y-106998563D01*
X209122589Y-106998563D02*
X209122589Y-106944688D01*
X210890175Y-124125476D02*
X211537794Y-124125476D01*
X211537794Y-124125476D02*
X211613984Y-124163571D01*
X211613984Y-124163571D02*
X211652080Y-124201666D01*
X211652080Y-124201666D02*
X211690175Y-124277857D01*
X211690175Y-124277857D02*
X211690175Y-124430238D01*
X211690175Y-124430238D02*
X211652080Y-124506428D01*
X211652080Y-124506428D02*
X211613984Y-124544523D01*
X211613984Y-124544523D02*
X211537794Y-124582619D01*
X211537794Y-124582619D02*
X210890175Y-124582619D01*
X211690175Y-125382618D02*
X211690175Y-124925475D01*
X211690175Y-125154047D02*
X210890175Y-125154047D01*
X210890175Y-125154047D02*
X211004460Y-125077856D01*
X211004460Y-125077856D02*
X211080651Y-125001666D01*
X211080651Y-125001666D02*
X211118746Y-124925475D01*
X207787924Y-128868203D02*
X207406971Y-128868203D01*
X207864114Y-129096775D02*
X207597447Y-128296775D01*
X207597447Y-128296775D02*
X207330781Y-129096775D01*
X207064114Y-128563441D02*
X207064114Y-129096775D01*
X207064114Y-128639632D02*
X207026019Y-128601537D01*
X207026019Y-128601537D02*
X206949829Y-128563441D01*
X206949829Y-128563441D02*
X206835543Y-128563441D01*
X206835543Y-128563441D02*
X206759352Y-128601537D01*
X206759352Y-128601537D02*
X206721257Y-128677727D01*
X206721257Y-128677727D02*
X206721257Y-129096775D01*
X206454590Y-128563441D02*
X206149828Y-128563441D01*
X206340304Y-128296775D02*
X206340304Y-128982489D01*
X206340304Y-128982489D02*
X206302209Y-129058680D01*
X206302209Y-129058680D02*
X206226019Y-129096775D01*
X206226019Y-129096775D02*
X206149828Y-129096775D01*
X205578399Y-129058680D02*
X205654590Y-129096775D01*
X205654590Y-129096775D02*
X205806971Y-129096775D01*
X205806971Y-129096775D02*
X205883161Y-129058680D01*
X205883161Y-129058680D02*
X205921257Y-128982489D01*
X205921257Y-128982489D02*
X205921257Y-128677727D01*
X205921257Y-128677727D02*
X205883161Y-128601537D01*
X205883161Y-128601537D02*
X205806971Y-128563441D01*
X205806971Y-128563441D02*
X205654590Y-128563441D01*
X205654590Y-128563441D02*
X205578399Y-128601537D01*
X205578399Y-128601537D02*
X205540304Y-128677727D01*
X205540304Y-128677727D02*
X205540304Y-128753918D01*
X205540304Y-128753918D02*
X205921257Y-128830108D01*
X205197447Y-128563441D02*
X205197447Y-129096775D01*
X205197447Y-128639632D02*
X205159352Y-128601537D01*
X205159352Y-128601537D02*
X205083162Y-128563441D01*
X205083162Y-128563441D02*
X204968876Y-128563441D01*
X204968876Y-128563441D02*
X204892685Y-128601537D01*
X204892685Y-128601537D02*
X204854590Y-128677727D01*
X204854590Y-128677727D02*
X204854590Y-129096775D01*
X204473637Y-128563441D02*
X204473637Y-129096775D01*
X204473637Y-128639632D02*
X204435542Y-128601537D01*
X204435542Y-128601537D02*
X204359352Y-128563441D01*
X204359352Y-128563441D02*
X204245066Y-128563441D01*
X204245066Y-128563441D02*
X204168875Y-128601537D01*
X204168875Y-128601537D02*
X204130780Y-128677727D01*
X204130780Y-128677727D02*
X204130780Y-129096775D01*
X203406970Y-129096775D02*
X203406970Y-128677727D01*
X203406970Y-128677727D02*
X203445065Y-128601537D01*
X203445065Y-128601537D02*
X203521256Y-128563441D01*
X203521256Y-128563441D02*
X203673637Y-128563441D01*
X203673637Y-128563441D02*
X203749827Y-128601537D01*
X203406970Y-129058680D02*
X203483161Y-129096775D01*
X203483161Y-129096775D02*
X203673637Y-129096775D01*
X203673637Y-129096775D02*
X203749827Y-129058680D01*
X203749827Y-129058680D02*
X203787923Y-128982489D01*
X203787923Y-128982489D02*
X203787923Y-128906299D01*
X203787923Y-128906299D02*
X203749827Y-128830108D01*
X203749827Y-128830108D02*
X203673637Y-128792013D01*
X203673637Y-128792013D02*
X203483161Y-128792013D01*
X203483161Y-128792013D02*
X203406970Y-128753918D01*
X202454589Y-128868203D02*
X202073636Y-128868203D01*
X202530779Y-129096775D02*
X202264112Y-128296775D01*
X202264112Y-128296775D02*
X201997446Y-129096775D01*
X201730779Y-129096775D02*
X201730779Y-128563441D01*
X201730779Y-128715822D02*
X201692684Y-128639632D01*
X201692684Y-128639632D02*
X201654589Y-128601537D01*
X201654589Y-128601537D02*
X201578398Y-128563441D01*
X201578398Y-128563441D02*
X201502208Y-128563441D01*
X200930779Y-129058680D02*
X201006970Y-129096775D01*
X201006970Y-129096775D02*
X201159351Y-129096775D01*
X201159351Y-129096775D02*
X201235541Y-129058680D01*
X201235541Y-129058680D02*
X201273637Y-128982489D01*
X201273637Y-128982489D02*
X201273637Y-128677727D01*
X201273637Y-128677727D02*
X201235541Y-128601537D01*
X201235541Y-128601537D02*
X201159351Y-128563441D01*
X201159351Y-128563441D02*
X201006970Y-128563441D01*
X201006970Y-128563441D02*
X200930779Y-128601537D01*
X200930779Y-128601537D02*
X200892684Y-128677727D01*
X200892684Y-128677727D02*
X200892684Y-128753918D01*
X200892684Y-128753918D02*
X201273637Y-128830108D01*
X200206970Y-129096775D02*
X200206970Y-128677727D01*
X200206970Y-128677727D02*
X200245065Y-128601537D01*
X200245065Y-128601537D02*
X200321256Y-128563441D01*
X200321256Y-128563441D02*
X200473637Y-128563441D01*
X200473637Y-128563441D02*
X200549827Y-128601537D01*
X200206970Y-129058680D02*
X200283161Y-129096775D01*
X200283161Y-129096775D02*
X200473637Y-129096775D01*
X200473637Y-129096775D02*
X200549827Y-129058680D01*
X200549827Y-129058680D02*
X200587923Y-128982489D01*
X200587923Y-128982489D02*
X200587923Y-128906299D01*
X200587923Y-128906299D02*
X200549827Y-128830108D01*
X200549827Y-128830108D02*
X200473637Y-128792013D01*
X200473637Y-128792013D02*
X200283161Y-128792013D01*
X200283161Y-128792013D02*
X200206970Y-128753918D01*
X204524619Y-102842658D02*
X204578494Y-102842658D01*
X204578494Y-102842658D02*
X204686243Y-102788783D01*
X204686243Y-102788783D02*
X204740118Y-102734908D01*
X204740118Y-102734908D02*
X204793993Y-102627159D01*
X204793993Y-102627159D02*
X204793993Y-102519409D01*
X204793993Y-102519409D02*
X204767056Y-102438597D01*
X204767056Y-102438597D02*
X204686243Y-102303910D01*
X204686243Y-102303910D02*
X204605431Y-102223098D01*
X204605431Y-102223098D02*
X204470744Y-102142285D01*
X204470744Y-102142285D02*
X204389932Y-102115348D01*
X204389932Y-102115348D02*
X204282182Y-102115348D01*
X204282182Y-102115348D02*
X204174433Y-102169223D01*
X204174433Y-102169223D02*
X204120558Y-102223098D01*
X204120558Y-102223098D02*
X204066683Y-102330847D01*
X204066683Y-102330847D02*
X204066683Y-102384722D01*
X203527935Y-102815720D02*
X203635685Y-102707971D01*
X203635685Y-102707971D02*
X203716497Y-102681033D01*
X203716497Y-102681033D02*
X203770372Y-102681033D01*
X203770372Y-102681033D02*
X203905059Y-102707971D01*
X203905059Y-102707971D02*
X204039746Y-102788783D01*
X204039746Y-102788783D02*
X204255245Y-103004282D01*
X204255245Y-103004282D02*
X204282182Y-103085094D01*
X204282182Y-103085094D02*
X204282182Y-103138969D01*
X204282182Y-103138969D02*
X204255245Y-103219781D01*
X204255245Y-103219781D02*
X204147495Y-103327531D01*
X204147495Y-103327531D02*
X204066683Y-103354468D01*
X204066683Y-103354468D02*
X204012808Y-103354468D01*
X204012808Y-103354468D02*
X203931996Y-103327531D01*
X203931996Y-103327531D02*
X203797309Y-103192844D01*
X203797309Y-103192844D02*
X203770372Y-103112032D01*
X203770372Y-103112032D02*
X203770372Y-103058157D01*
X203770372Y-103058157D02*
X203797309Y-102977345D01*
X203797309Y-102977345D02*
X203905059Y-102869595D01*
X203905059Y-102869595D02*
X203985871Y-102842658D01*
X203985871Y-102842658D02*
X204039746Y-102842658D01*
X204039746Y-102842658D02*
X204120558Y-102869595D01*
X216515066Y-110866775D02*
X216515066Y-111438203D01*
X216515066Y-111438203D02*
X216553161Y-111552489D01*
X216553161Y-111552489D02*
X216629352Y-111628680D01*
X216629352Y-111628680D02*
X216743637Y-111666775D01*
X216743637Y-111666775D02*
X216819828Y-111666775D01*
X215791256Y-110866775D02*
X215943637Y-110866775D01*
X215943637Y-110866775D02*
X216019828Y-110904870D01*
X216019828Y-110904870D02*
X216057923Y-110942965D01*
X216057923Y-110942965D02*
X216134113Y-111057251D01*
X216134113Y-111057251D02*
X216172209Y-111209632D01*
X216172209Y-111209632D02*
X216172209Y-111514394D01*
X216172209Y-111514394D02*
X216134113Y-111590584D01*
X216134113Y-111590584D02*
X216096018Y-111628680D01*
X216096018Y-111628680D02*
X216019828Y-111666775D01*
X216019828Y-111666775D02*
X215867447Y-111666775D01*
X215867447Y-111666775D02*
X215791256Y-111628680D01*
X215791256Y-111628680D02*
X215753161Y-111590584D01*
X215753161Y-111590584D02*
X215715066Y-111514394D01*
X215715066Y-111514394D02*
X215715066Y-111323918D01*
X215715066Y-111323918D02*
X215753161Y-111247727D01*
X215753161Y-111247727D02*
X215791256Y-111209632D01*
X215791256Y-111209632D02*
X215867447Y-111171537D01*
X215867447Y-111171537D02*
X216019828Y-111171537D01*
X216019828Y-111171537D02*
X216096018Y-111209632D01*
X216096018Y-111209632D02*
X216134113Y-111247727D01*
X216134113Y-111247727D02*
X216172209Y-111323918D01*
X217335066Y-108646775D02*
X217335066Y-109218203D01*
X217335066Y-109218203D02*
X217373161Y-109332489D01*
X217373161Y-109332489D02*
X217449352Y-109408680D01*
X217449352Y-109408680D02*
X217563637Y-109446775D01*
X217563637Y-109446775D02*
X217639828Y-109446775D01*
X216535066Y-109446775D02*
X216992209Y-109446775D01*
X216763637Y-109446775D02*
X216763637Y-108646775D01*
X216763637Y-108646775D02*
X216839828Y-108761060D01*
X216839828Y-108761060D02*
X216916018Y-108837251D01*
X216916018Y-108837251D02*
X216992209Y-108875346D01*
X206711732Y-100270584D02*
X206749828Y-100308680D01*
X206749828Y-100308680D02*
X206864113Y-100346775D01*
X206864113Y-100346775D02*
X206940304Y-100346775D01*
X206940304Y-100346775D02*
X207054590Y-100308680D01*
X207054590Y-100308680D02*
X207130780Y-100232489D01*
X207130780Y-100232489D02*
X207168875Y-100156299D01*
X207168875Y-100156299D02*
X207206971Y-100003918D01*
X207206971Y-100003918D02*
X207206971Y-99889632D01*
X207206971Y-99889632D02*
X207168875Y-99737251D01*
X207168875Y-99737251D02*
X207130780Y-99661060D01*
X207130780Y-99661060D02*
X207054590Y-99584870D01*
X207054590Y-99584870D02*
X206940304Y-99546775D01*
X206940304Y-99546775D02*
X206864113Y-99546775D01*
X206864113Y-99546775D02*
X206749828Y-99584870D01*
X206749828Y-99584870D02*
X206711732Y-99622965D01*
X205987923Y-99546775D02*
X206368875Y-99546775D01*
X206368875Y-99546775D02*
X206406971Y-99927727D01*
X206406971Y-99927727D02*
X206368875Y-99889632D01*
X206368875Y-99889632D02*
X206292685Y-99851537D01*
X206292685Y-99851537D02*
X206102209Y-99851537D01*
X206102209Y-99851537D02*
X206026018Y-99889632D01*
X206026018Y-99889632D02*
X205987923Y-99927727D01*
X205987923Y-99927727D02*
X205949828Y-100003918D01*
X205949828Y-100003918D02*
X205949828Y-100194394D01*
X205949828Y-100194394D02*
X205987923Y-100270584D01*
X205987923Y-100270584D02*
X206026018Y-100308680D01*
X206026018Y-100308680D02*
X206102209Y-100346775D01*
X206102209Y-100346775D02*
X206292685Y-100346775D01*
X206292685Y-100346775D02*
X206368875Y-100308680D01*
X206368875Y-100308680D02*
X206406971Y-100270584D01*
X214913984Y-98701667D02*
X214952080Y-98663571D01*
X214952080Y-98663571D02*
X214990175Y-98549286D01*
X214990175Y-98549286D02*
X214990175Y-98473095D01*
X214990175Y-98473095D02*
X214952080Y-98358809D01*
X214952080Y-98358809D02*
X214875889Y-98282619D01*
X214875889Y-98282619D02*
X214799699Y-98244524D01*
X214799699Y-98244524D02*
X214647318Y-98206428D01*
X214647318Y-98206428D02*
X214533032Y-98206428D01*
X214533032Y-98206428D02*
X214380651Y-98244524D01*
X214380651Y-98244524D02*
X214304460Y-98282619D01*
X214304460Y-98282619D02*
X214228270Y-98358809D01*
X214228270Y-98358809D02*
X214190175Y-98473095D01*
X214190175Y-98473095D02*
X214190175Y-98549286D01*
X214190175Y-98549286D02*
X214228270Y-98663571D01*
X214228270Y-98663571D02*
X214266365Y-98701667D01*
X214456841Y-99387381D02*
X214990175Y-99387381D01*
X214152080Y-99196905D02*
X214723508Y-99006428D01*
X214723508Y-99006428D02*
X214723508Y-99501667D01*
X195563984Y-124601667D02*
X195602080Y-124563571D01*
X195602080Y-124563571D02*
X195640175Y-124449286D01*
X195640175Y-124449286D02*
X195640175Y-124373095D01*
X195640175Y-124373095D02*
X195602080Y-124258809D01*
X195602080Y-124258809D02*
X195525889Y-124182619D01*
X195525889Y-124182619D02*
X195449699Y-124144524D01*
X195449699Y-124144524D02*
X195297318Y-124106428D01*
X195297318Y-124106428D02*
X195183032Y-124106428D01*
X195183032Y-124106428D02*
X195030651Y-124144524D01*
X195030651Y-124144524D02*
X194954460Y-124182619D01*
X194954460Y-124182619D02*
X194878270Y-124258809D01*
X194878270Y-124258809D02*
X194840175Y-124373095D01*
X194840175Y-124373095D02*
X194840175Y-124449286D01*
X194840175Y-124449286D02*
X194878270Y-124563571D01*
X194878270Y-124563571D02*
X194916365Y-124601667D01*
X194916365Y-124906428D02*
X194878270Y-124944524D01*
X194878270Y-124944524D02*
X194840175Y-125020714D01*
X194840175Y-125020714D02*
X194840175Y-125211190D01*
X194840175Y-125211190D02*
X194878270Y-125287381D01*
X194878270Y-125287381D02*
X194916365Y-125325476D01*
X194916365Y-125325476D02*
X194992556Y-125363571D01*
X194992556Y-125363571D02*
X195068746Y-125363571D01*
X195068746Y-125363571D02*
X195183032Y-125325476D01*
X195183032Y-125325476D02*
X195640175Y-124868333D01*
X195640175Y-124868333D02*
X195640175Y-125363571D01*
X192645066Y-99996775D02*
X192645066Y-100568203D01*
X192645066Y-100568203D02*
X192683161Y-100682489D01*
X192683161Y-100682489D02*
X192759352Y-100758680D01*
X192759352Y-100758680D02*
X192873637Y-100796775D01*
X192873637Y-100796775D02*
X192949828Y-100796775D01*
X191921256Y-100263441D02*
X191921256Y-100796775D01*
X192111732Y-99958680D02*
X192302209Y-100530108D01*
X192302209Y-100530108D02*
X191806970Y-100530108D01*
X197761732Y-99970584D02*
X197799828Y-100008680D01*
X197799828Y-100008680D02*
X197914113Y-100046775D01*
X197914113Y-100046775D02*
X197990304Y-100046775D01*
X197990304Y-100046775D02*
X198104590Y-100008680D01*
X198104590Y-100008680D02*
X198180780Y-99932489D01*
X198180780Y-99932489D02*
X198218875Y-99856299D01*
X198218875Y-99856299D02*
X198256971Y-99703918D01*
X198256971Y-99703918D02*
X198256971Y-99589632D01*
X198256971Y-99589632D02*
X198218875Y-99437251D01*
X198218875Y-99437251D02*
X198180780Y-99361060D01*
X198180780Y-99361060D02*
X198104590Y-99284870D01*
X198104590Y-99284870D02*
X197990304Y-99246775D01*
X197990304Y-99246775D02*
X197914113Y-99246775D01*
X197914113Y-99246775D02*
X197799828Y-99284870D01*
X197799828Y-99284870D02*
X197761732Y-99322965D01*
X197495066Y-99246775D02*
X196961732Y-99246775D01*
X196961732Y-99246775D02*
X197304590Y-100046775D01*
X199611732Y-107396775D02*
X199878399Y-107015822D01*
X200068875Y-107396775D02*
X200068875Y-106596775D01*
X200068875Y-106596775D02*
X199764113Y-106596775D01*
X199764113Y-106596775D02*
X199687923Y-106634870D01*
X199687923Y-106634870D02*
X199649828Y-106672965D01*
X199649828Y-106672965D02*
X199611732Y-106749156D01*
X199611732Y-106749156D02*
X199611732Y-106863441D01*
X199611732Y-106863441D02*
X199649828Y-106939632D01*
X199649828Y-106939632D02*
X199687923Y-106977727D01*
X199687923Y-106977727D02*
X199764113Y-107015822D01*
X199764113Y-107015822D02*
X200068875Y-107015822D01*
X198926018Y-106863441D02*
X198926018Y-107396775D01*
X199116494Y-106558680D02*
X199306971Y-107130108D01*
X199306971Y-107130108D02*
X198811732Y-107130108D01*
X199611732Y-105036775D02*
X199878399Y-104655822D01*
X200068875Y-105036775D02*
X200068875Y-104236775D01*
X200068875Y-104236775D02*
X199764113Y-104236775D01*
X199764113Y-104236775D02*
X199687923Y-104274870D01*
X199687923Y-104274870D02*
X199649828Y-104312965D01*
X199649828Y-104312965D02*
X199611732Y-104389156D01*
X199611732Y-104389156D02*
X199611732Y-104503441D01*
X199611732Y-104503441D02*
X199649828Y-104579632D01*
X199649828Y-104579632D02*
X199687923Y-104617727D01*
X199687923Y-104617727D02*
X199764113Y-104655822D01*
X199764113Y-104655822D02*
X200068875Y-104655822D01*
X198926018Y-104236775D02*
X199078399Y-104236775D01*
X199078399Y-104236775D02*
X199154590Y-104274870D01*
X199154590Y-104274870D02*
X199192685Y-104312965D01*
X199192685Y-104312965D02*
X199268875Y-104427251D01*
X199268875Y-104427251D02*
X199306971Y-104579632D01*
X199306971Y-104579632D02*
X199306971Y-104884394D01*
X199306971Y-104884394D02*
X199268875Y-104960584D01*
X199268875Y-104960584D02*
X199230780Y-104998680D01*
X199230780Y-104998680D02*
X199154590Y-105036775D01*
X199154590Y-105036775D02*
X199002209Y-105036775D01*
X199002209Y-105036775D02*
X198926018Y-104998680D01*
X198926018Y-104998680D02*
X198887923Y-104960584D01*
X198887923Y-104960584D02*
X198849828Y-104884394D01*
X198849828Y-104884394D02*
X198849828Y-104693918D01*
X198849828Y-104693918D02*
X198887923Y-104617727D01*
X198887923Y-104617727D02*
X198926018Y-104579632D01*
X198926018Y-104579632D02*
X199002209Y-104541537D01*
X199002209Y-104541537D02*
X199154590Y-104541537D01*
X199154590Y-104541537D02*
X199230780Y-104579632D01*
X199230780Y-104579632D02*
X199268875Y-104617727D01*
X199268875Y-104617727D02*
X199306971Y-104693918D01*
X195811732Y-108846775D02*
X196078399Y-108465822D01*
X196268875Y-108846775D02*
X196268875Y-108046775D01*
X196268875Y-108046775D02*
X195964113Y-108046775D01*
X195964113Y-108046775D02*
X195887923Y-108084870D01*
X195887923Y-108084870D02*
X195849828Y-108122965D01*
X195849828Y-108122965D02*
X195811732Y-108199156D01*
X195811732Y-108199156D02*
X195811732Y-108313441D01*
X195811732Y-108313441D02*
X195849828Y-108389632D01*
X195849828Y-108389632D02*
X195887923Y-108427727D01*
X195887923Y-108427727D02*
X195964113Y-108465822D01*
X195964113Y-108465822D02*
X196268875Y-108465822D01*
X195087923Y-108046775D02*
X195468875Y-108046775D01*
X195468875Y-108046775D02*
X195506971Y-108427727D01*
X195506971Y-108427727D02*
X195468875Y-108389632D01*
X195468875Y-108389632D02*
X195392685Y-108351537D01*
X195392685Y-108351537D02*
X195202209Y-108351537D01*
X195202209Y-108351537D02*
X195126018Y-108389632D01*
X195126018Y-108389632D02*
X195087923Y-108427727D01*
X195087923Y-108427727D02*
X195049828Y-108503918D01*
X195049828Y-108503918D02*
X195049828Y-108694394D01*
X195049828Y-108694394D02*
X195087923Y-108770584D01*
X195087923Y-108770584D02*
X195126018Y-108808680D01*
X195126018Y-108808680D02*
X195202209Y-108846775D01*
X195202209Y-108846775D02*
X195392685Y-108846775D01*
X195392685Y-108846775D02*
X195468875Y-108808680D01*
X195468875Y-108808680D02*
X195506971Y-108770584D01*
X201924619Y-105442658D02*
X201978494Y-105442658D01*
X201978494Y-105442658D02*
X202086243Y-105388783D01*
X202086243Y-105388783D02*
X202140118Y-105334908D01*
X202140118Y-105334908D02*
X202193993Y-105227159D01*
X202193993Y-105227159D02*
X202193993Y-105119409D01*
X202193993Y-105119409D02*
X202167056Y-105038597D01*
X202167056Y-105038597D02*
X202086243Y-104903910D01*
X202086243Y-104903910D02*
X202005431Y-104823098D01*
X202005431Y-104823098D02*
X201870744Y-104742285D01*
X201870744Y-104742285D02*
X201789932Y-104715348D01*
X201789932Y-104715348D02*
X201682182Y-104715348D01*
X201682182Y-104715348D02*
X201574433Y-104769223D01*
X201574433Y-104769223D02*
X201520558Y-104823098D01*
X201520558Y-104823098D02*
X201466683Y-104930847D01*
X201466683Y-104930847D02*
X201466683Y-104984722D01*
X201331996Y-105496533D02*
X201358934Y-105415720D01*
X201358934Y-105415720D02*
X201358934Y-105361846D01*
X201358934Y-105361846D02*
X201331996Y-105281033D01*
X201331996Y-105281033D02*
X201305059Y-105254096D01*
X201305059Y-105254096D02*
X201224247Y-105227159D01*
X201224247Y-105227159D02*
X201170372Y-105227159D01*
X201170372Y-105227159D02*
X201089560Y-105254096D01*
X201089560Y-105254096D02*
X200981810Y-105361846D01*
X200981810Y-105361846D02*
X200954873Y-105442658D01*
X200954873Y-105442658D02*
X200954873Y-105496533D01*
X200954873Y-105496533D02*
X200981810Y-105577345D01*
X200981810Y-105577345D02*
X201008747Y-105604282D01*
X201008747Y-105604282D02*
X201089560Y-105631220D01*
X201089560Y-105631220D02*
X201143434Y-105631220D01*
X201143434Y-105631220D02*
X201224247Y-105604282D01*
X201224247Y-105604282D02*
X201331996Y-105496533D01*
X201331996Y-105496533D02*
X201412808Y-105469595D01*
X201412808Y-105469595D02*
X201466683Y-105469595D01*
X201466683Y-105469595D02*
X201547495Y-105496533D01*
X201547495Y-105496533D02*
X201655245Y-105604282D01*
X201655245Y-105604282D02*
X201682182Y-105685094D01*
X201682182Y-105685094D02*
X201682182Y-105738969D01*
X201682182Y-105738969D02*
X201655245Y-105819781D01*
X201655245Y-105819781D02*
X201547495Y-105927531D01*
X201547495Y-105927531D02*
X201466683Y-105954468D01*
X201466683Y-105954468D02*
X201412808Y-105954468D01*
X201412808Y-105954468D02*
X201331996Y-105927531D01*
X201331996Y-105927531D02*
X201224247Y-105819781D01*
X201224247Y-105819781D02*
X201197309Y-105738969D01*
X201197309Y-105738969D02*
X201197309Y-105685094D01*
X201197309Y-105685094D02*
X201224247Y-105604282D01*
X202009306Y-108473098D02*
X202197868Y-108284536D01*
X202494179Y-108580847D02*
X201928494Y-108015162D01*
X201928494Y-108015162D02*
X201659120Y-108284536D01*
X201524433Y-108957971D02*
X201470558Y-109065720D01*
X201470558Y-109065720D02*
X201470558Y-109119595D01*
X201470558Y-109119595D02*
X201497496Y-109200407D01*
X201497496Y-109200407D02*
X201578308Y-109281219D01*
X201578308Y-109281219D02*
X201659120Y-109308157D01*
X201659120Y-109308157D02*
X201712995Y-109308157D01*
X201712995Y-109308157D02*
X201793807Y-109281219D01*
X201793807Y-109281219D02*
X202009306Y-109065720D01*
X202009306Y-109065720D02*
X201443621Y-108500035D01*
X201443621Y-108500035D02*
X201255059Y-108688597D01*
X201255059Y-108688597D02*
X201228122Y-108769409D01*
X201228122Y-108769409D02*
X201228122Y-108823284D01*
X201228122Y-108823284D02*
X201255059Y-108904096D01*
X201255059Y-108904096D02*
X201308934Y-108957971D01*
X201308934Y-108957971D02*
X201389746Y-108984908D01*
X201389746Y-108984908D02*
X201443621Y-108984908D01*
X201443621Y-108984908D02*
X201524433Y-108957971D01*
X201524433Y-108957971D02*
X201712995Y-108769409D01*
X201147309Y-109927717D02*
X201470558Y-109604468D01*
X201308934Y-109766093D02*
X200743248Y-109200407D01*
X200743248Y-109200407D02*
X200877935Y-109227345D01*
X200877935Y-109227345D02*
X200985685Y-109227345D01*
X200985685Y-109227345D02*
X201066497Y-109200407D01*
X192040175Y-119568333D02*
X192611603Y-119568333D01*
X192611603Y-119568333D02*
X192725889Y-119530238D01*
X192725889Y-119530238D02*
X192802080Y-119454047D01*
X192802080Y-119454047D02*
X192840175Y-119339762D01*
X192840175Y-119339762D02*
X192840175Y-119263571D01*
X192116365Y-119911190D02*
X192078270Y-119949286D01*
X192078270Y-119949286D02*
X192040175Y-120025476D01*
X192040175Y-120025476D02*
X192040175Y-120215952D01*
X192040175Y-120215952D02*
X192078270Y-120292143D01*
X192078270Y-120292143D02*
X192116365Y-120330238D01*
X192116365Y-120330238D02*
X192192556Y-120368333D01*
X192192556Y-120368333D02*
X192268746Y-120368333D01*
X192268746Y-120368333D02*
X192383032Y-120330238D01*
X192383032Y-120330238D02*
X192840175Y-119873095D01*
X192840175Y-119873095D02*
X192840175Y-120368333D01*
X210231846Y-106375381D02*
X210267202Y-106410736D01*
X211518781Y-105088446D02*
X210231846Y-106375381D01*
X211554136Y-105123802D02*
X211518781Y-105088446D01*
X212402664Y-108546198D02*
X212438019Y-108581554D01*
X212438019Y-108581554D02*
X213724954Y-107294619D01*
X213724954Y-107294619D02*
X213689598Y-107259264D01*
X211935974Y-104741964D02*
X211532923Y-104678324D01*
X211872334Y-104338913D01*
X211935974Y-104741964D01*
G36*
X211935974Y-104741964D02*
G01*
X211532923Y-104678324D01*
X211872334Y-104338913D01*
X211935974Y-104741964D01*
G37*
X197624759Y-107855000D02*
X197932041Y-107855000D01*
X197624759Y-108615000D02*
X197932041Y-108615000D01*
X193368400Y-122944420D02*
X193368400Y-123225580D01*
X194388400Y-122944420D02*
X194388400Y-123225580D01*
X196118400Y-118992836D02*
X196118400Y-118777164D01*
X196838400Y-118992836D02*
X196838400Y-118777164D01*
X196098400Y-120831359D02*
X196098400Y-121138641D01*
X196858400Y-120831359D02*
X196858400Y-121138641D01*
X189703400Y-97155000D02*
X189703400Y-98485000D01*
X189703400Y-98485000D02*
X191033400Y-98485000D01*
X192303400Y-95825000D02*
X192303400Y-98485000D01*
X192303400Y-95825000D02*
X207603400Y-95825000D01*
X192303400Y-98485000D02*
X207603400Y-98485000D01*
X207603400Y-95825000D02*
X207603400Y-98485000D01*
X189703400Y-90745000D02*
X189703400Y-93345000D01*
X189703400Y-90745000D02*
X210143400Y-90745000D01*
X189703400Y-93345000D02*
X192303400Y-93345000D01*
X189703400Y-94615000D02*
X189703400Y-95945000D01*
X189703400Y-95945000D02*
X191033400Y-95945000D01*
X192303400Y-93345000D02*
X192303400Y-95945000D01*
X192303400Y-95945000D02*
X210143400Y-95945000D01*
X210143400Y-90745000D02*
X210143400Y-95945000D01*
X189128400Y-109085000D02*
X193528400Y-109085000D01*
X189128400Y-110685000D02*
X189128400Y-110585000D01*
X193528400Y-110685000D02*
X193528400Y-110585000D01*
X193528400Y-112185000D02*
X189128400Y-112185000D01*
X204317776Y-108964863D02*
X203575313Y-108222401D01*
X205958263Y-107324376D02*
X205039024Y-106405137D01*
X203320755Y-107967843D02*
X203122765Y-108165833D01*
X203122765Y-107769853D01*
X203320755Y-107967843D01*
G36*
X203320755Y-107967843D02*
G01*
X203122765Y-108165833D01*
X203122765Y-107769853D01*
X203320755Y-107967843D01*
G37*
X196118400Y-122977164D02*
X196118400Y-123192836D01*
X196838400Y-122977164D02*
X196838400Y-123192836D01*
X197624759Y-109105000D02*
X197932041Y-109105000D01*
X197624759Y-109865000D02*
X197932041Y-109865000D01*
X189128400Y-113185000D02*
X193528400Y-113185000D01*
X189128400Y-114685000D02*
X189128400Y-114785000D01*
X193528400Y-114685000D02*
X193528400Y-114785000D01*
X193528400Y-116285000D02*
X189128400Y-116285000D01*
X205581846Y-104575381D02*
X205617202Y-104610736D01*
X206409161Y-105402696D02*
X206960704Y-105954239D01*
X206868781Y-103288446D02*
X205581846Y-104575381D01*
X206904136Y-103323802D02*
X206868781Y-103288446D01*
X207752664Y-106746198D02*
X207788019Y-106781554D01*
X207788019Y-106781554D02*
X209074954Y-105494619D01*
X209074954Y-105494619D02*
X209039598Y-105459264D01*
X207285974Y-102941964D02*
X206882923Y-102878324D01*
X207222334Y-102538913D01*
X207285974Y-102941964D01*
G36*
X207285974Y-102941964D02*
G01*
X206882923Y-102878324D01*
X207222334Y-102538913D01*
X207285974Y-102941964D01*
G37*
X197178400Y-114385000D02*
X197978400Y-114385000D01*
X197178400Y-115185000D02*
X197178400Y-114385000D01*
X197378400Y-114585000D02*
X197378400Y-131185000D01*
X197378400Y-125785000D02*
X210578400Y-125785000D01*
X197378400Y-131185000D02*
X210578400Y-131185000D01*
X198053400Y-131385000D02*
X197203400Y-131385000D01*
X210028400Y-131385000D02*
X210778400Y-131385000D01*
X210578400Y-114585000D02*
X197378400Y-114585000D01*
X210578400Y-131185000D02*
X210578400Y-114585000D01*
X210778400Y-114385000D02*
X209978400Y-114385000D01*
X210778400Y-115185000D02*
X210778400Y-114385000D01*
X210778400Y-131385000D02*
X210778400Y-130785000D01*
X204618370Y-103323781D02*
X204817181Y-103124970D01*
X205339619Y-104045030D02*
X205538430Y-103846219D01*
X213648400Y-112205000D02*
X213648400Y-113535000D01*
X213648400Y-114805000D02*
X213648400Y-125025000D01*
X214978400Y-112205000D02*
X213648400Y-112205000D01*
X216248400Y-112205000D02*
X216248400Y-114805000D01*
X216248400Y-114805000D02*
X213648400Y-114805000D01*
X218848400Y-112205000D02*
X216248400Y-112205000D01*
X218848400Y-112205000D02*
X218848400Y-125025000D01*
X218848400Y-125025000D02*
X213648400Y-125025000D01*
X214755900Y-102440000D02*
X214755900Y-102890000D01*
X214755900Y-102440000D02*
X215205900Y-102440000D01*
X215305900Y-100240000D02*
X215305900Y-100690000D01*
X215305900Y-108040000D02*
X215305900Y-107590000D01*
X217155900Y-100240000D02*
X215305900Y-100240000D01*
X217155900Y-108040000D02*
X215305900Y-108040000D01*
X219705900Y-100240000D02*
X219455900Y-100240000D01*
X219705900Y-108040000D02*
X219455900Y-108040000D01*
X206718981Y-100675000D02*
X206437819Y-100675000D01*
X206718981Y-101695000D02*
X206437819Y-101695000D01*
X208318400Y-97725000D02*
X210018400Y-97725000D01*
X208318400Y-102180563D02*
X208318400Y-97725000D01*
X209382837Y-103245000D02*
X208318400Y-102180563D01*
X209382837Y-103245000D02*
X210018400Y-103245000D01*
X212763400Y-104110000D02*
X212763400Y-103485000D01*
X212773963Y-103245000D02*
X212138400Y-103245000D01*
X212773963Y-103245000D02*
X213838400Y-102180563D01*
X213075900Y-103797500D02*
X212450900Y-103797500D01*
X213838400Y-97725000D02*
X212138400Y-97725000D01*
X213838400Y-102180563D02*
X213838400Y-97725000D01*
X194918400Y-122977164D02*
X194918400Y-123192836D01*
X195638400Y-122977164D02*
X195638400Y-123192836D01*
D11*
X189288400Y-107705000D02*
X190563400Y-107705000D01*
X190563400Y-101200000D02*
X194193400Y-101200000D01*
X190563400Y-101265000D02*
X190563400Y-101200000D01*
X190563400Y-107770000D02*
X190563400Y-107705000D01*
X190563400Y-107770000D02*
X194193400Y-107770000D01*
X194193400Y-101265000D02*
X194193400Y-101200000D01*
X194193400Y-107770000D02*
X194193400Y-107705000D01*
D10*
X195187820Y-99175000D02*
X195468980Y-99175000D01*
X195187820Y-100195000D02*
X195468980Y-100195000D01*
X197932041Y-106645000D02*
X197624759Y-106645000D01*
X197932041Y-107405000D02*
X197624759Y-107405000D01*
X197932041Y-104305000D02*
X197624759Y-104305000D01*
X197932041Y-105065000D02*
X197624759Y-105065000D01*
X195832041Y-109105000D02*
X195524759Y-109105000D01*
X195832041Y-109865000D02*
X195524759Y-109865000D01*
X202217181Y-105724970D02*
X202018370Y-105923781D01*
X202938430Y-106446219D02*
X202739619Y-106645030D01*
X202232878Y-109409273D02*
X202002673Y-109639478D01*
X202954127Y-110130522D02*
X202723922Y-110360727D01*
X188898400Y-117225000D02*
X191558400Y-117225000D01*
X188898400Y-122365000D02*
X188898400Y-117225000D01*
X188898400Y-122365000D02*
X191558400Y-122365000D01*
X190228400Y-124965000D02*
X191558400Y-124965000D01*
X191558400Y-122365000D02*
X191558400Y-117225000D01*
X191558400Y-124965000D02*
X191558400Y-123635000D01*
M02*
