G04 #@! TF.GenerationSoftware,KiCad,Pcbnew,9.0.7*
G04 #@! TF.CreationDate,2026-03-02T03:16:57-06:00*
G04 #@! TF.ProjectId,TubeClock,54756265-436c-46f6-936b-2e6b69636164,rev?*
G04 #@! TF.SameCoordinates,Original*
G04 #@! TF.FileFunction,Copper,L2,Bot*
G04 #@! TF.FilePolarity,Positive*
%FSLAX46Y46*%
G04 Gerber Fmt 4.6, Leading zero omitted, Abs format (unit mm)*
G04 Created by KiCad (PCBNEW 9.0.7) date 2026-03-02 03:16:57*
%MOMM*%
%LPD*%
G01*
G04 APERTURE LIST*
G04 Aperture macros list*
%AMRoundRect*
0 Rectangle with rounded corners*
0 $1 Rounding radius*
0 $2 $3 $4 $5 $6 $7 $8 $9 X,Y pos of 4 corners*
0 Add a 4 corners polygon primitive as box body*
4,1,4,$2,$3,$4,$5,$6,$7,$8,$9,$2,$3,0*
0 Add four circle primitives for the rounded corners*
1,1,$1+$1,$2,$3*
1,1,$1+$1,$4,$5*
1,1,$1+$1,$6,$7*
1,1,$1+$1,$8,$9*
0 Add four rect primitives between the rounded corners*
20,1,$1+$1,$2,$3,$4,$5,0*
20,1,$1+$1,$4,$5,$6,$7,0*
20,1,$1+$1,$6,$7,$8,$9,0*
20,1,$1+$1,$8,$9,$2,$3,0*%
%AMFreePoly0*
4,1,6,0.725000,-0.725000,-0.125000,-0.725000,-0.725000,-0.125000,-0.725000,0.725000,0.725000,0.725000,0.725000,-0.725000,0.725000,-0.725000,$1*%
G04 Aperture macros list end*
G04 #@! TA.AperFunction,SMDPad,CuDef*
%ADD10RoundRect,0.150000X0.256326X0.468458X-0.468458X-0.256326X-0.256326X-0.468458X0.468458X0.256326X0*%
G04 #@! TD*
G04 #@! TA.AperFunction,SMDPad,CuDef*
%ADD11RoundRect,0.135000X-0.135000X-0.185000X0.135000X-0.185000X0.135000X0.185000X-0.135000X0.185000X0*%
G04 #@! TD*
G04 #@! TA.AperFunction,SMDPad,CuDef*
%ADD12RoundRect,0.225000X-0.250000X0.225000X-0.250000X-0.225000X0.250000X-0.225000X0.250000X0.225000X0*%
G04 #@! TD*
G04 #@! TA.AperFunction,SMDPad,CuDef*
%ADD13RoundRect,0.140000X0.170000X-0.140000X0.170000X0.140000X-0.170000X0.140000X-0.170000X-0.140000X0*%
G04 #@! TD*
G04 #@! TA.AperFunction,SMDPad,CuDef*
%ADD14RoundRect,0.135000X-0.185000X0.135000X-0.185000X-0.135000X0.185000X-0.135000X0.185000X0.135000X0*%
G04 #@! TD*
G04 #@! TA.AperFunction,ComponentPad*
%ADD15R,1.700000X1.700000*%
G04 #@! TD*
G04 #@! TA.AperFunction,ComponentPad*
%ADD16C,1.700000*%
G04 #@! TD*
G04 #@! TA.AperFunction,SMDPad,CuDef*
%ADD17R,1.000000X0.900000*%
G04 #@! TD*
G04 #@! TA.AperFunction,SMDPad,CuDef*
%ADD18RoundRect,0.050000X-0.272236X0.130815X0.130815X-0.272236X0.272236X-0.130815X-0.130815X0.272236X0*%
G04 #@! TD*
G04 #@! TA.AperFunction,SMDPad,CuDef*
%ADD19RoundRect,0.140000X-0.170000X0.140000X-0.170000X-0.140000X0.170000X-0.140000X0.170000X0.140000X0*%
G04 #@! TD*
G04 #@! TA.AperFunction,SMDPad,CuDef*
%ADD20R,0.800000X0.400000*%
G04 #@! TD*
G04 #@! TA.AperFunction,SMDPad,CuDef*
%ADD21R,0.400000X0.800000*%
G04 #@! TD*
G04 #@! TA.AperFunction,SMDPad,CuDef*
%ADD22R,1.450000X1.450000*%
G04 #@! TD*
G04 #@! TA.AperFunction,SMDPad,CuDef*
%ADD23FreePoly0,0.000000*%
G04 #@! TD*
G04 #@! TA.AperFunction,SMDPad,CuDef*
%ADD24R,0.700000X0.700000*%
G04 #@! TD*
G04 #@! TA.AperFunction,SMDPad,CuDef*
%ADD25RoundRect,0.225000X0.017678X-0.335876X0.335876X-0.017678X-0.017678X0.335876X-0.335876X0.017678X0*%
G04 #@! TD*
G04 #@! TA.AperFunction,SMDPad,CuDef*
%ADD26R,1.350000X0.400000*%
G04 #@! TD*
G04 #@! TA.AperFunction,HeatsinkPad*
%ADD27O,1.900000X1.200000*%
G04 #@! TD*
G04 #@! TA.AperFunction,SMDPad,CuDef*
%ADD28R,1.900000X1.200000*%
G04 #@! TD*
G04 #@! TA.AperFunction,HeatsinkPad*
%ADD29C,1.450000*%
G04 #@! TD*
G04 #@! TA.AperFunction,SMDPad,CuDef*
%ADD30R,1.900000X1.500000*%
G04 #@! TD*
G04 #@! TA.AperFunction,SMDPad,CuDef*
%ADD31RoundRect,0.225000X0.225000X0.250000X-0.225000X0.250000X-0.225000X-0.250000X0.225000X-0.250000X0*%
G04 #@! TD*
G04 #@! TA.AperFunction,SMDPad,CuDef*
%ADD32RoundRect,0.250000X0.550000X-1.250000X0.550000X1.250000X-0.550000X1.250000X-0.550000X-1.250000X0*%
G04 #@! TD*
G04 #@! TA.AperFunction,SMDPad,CuDef*
%ADD33R,2.400000X0.740000*%
G04 #@! TD*
G04 #@! TA.AperFunction,SMDPad,CuDef*
%ADD34RoundRect,0.225000X-0.225000X-0.250000X0.225000X-0.250000X0.225000X0.250000X-0.225000X0.250000X0*%
G04 #@! TD*
G04 #@! TA.AperFunction,SMDPad,CuDef*
%ADD35RoundRect,0.135000X0.135000X0.185000X-0.135000X0.185000X-0.135000X-0.185000X0.135000X-0.185000X0*%
G04 #@! TD*
G04 #@! TA.AperFunction,SMDPad,CuDef*
%ADD36RoundRect,0.225000X-0.017678X0.335876X-0.335876X0.017678X0.017678X-0.335876X0.335876X-0.017678X0*%
G04 #@! TD*
G04 #@! TA.AperFunction,SMDPad,CuDef*
%ADD37RoundRect,0.218750X-0.026517X0.335876X-0.335876X0.026517X0.026517X-0.335876X0.335876X-0.026517X0*%
G04 #@! TD*
G04 #@! TA.AperFunction,ViaPad*
%ADD38C,0.635000*%
G04 #@! TD*
G04 #@! TA.AperFunction,Conductor*
%ADD39C,0.635000*%
G04 #@! TD*
G04 #@! TA.AperFunction,Conductor*
%ADD40C,0.304800*%
G04 #@! TD*
G04 #@! TA.AperFunction,Conductor*
%ADD41C,0.381000*%
G04 #@! TD*
G04 #@! TA.AperFunction,Conductor*
%ADD42C,0.203200*%
G04 #@! TD*
G04 #@! TA.AperFunction,Conductor*
%ADD43C,0.152400*%
G04 #@! TD*
G04 APERTURE END LIST*
D10*
X212110983Y-105358915D03*
X212782734Y-106030666D03*
X213454485Y-106702417D03*
X211845817Y-108311085D03*
X211174066Y-107639334D03*
X210502315Y-106967583D03*
D11*
X197268400Y-108235000D03*
X198288400Y-108235000D03*
D12*
X193878400Y-122310000D03*
X193878400Y-123860000D03*
D13*
X196478400Y-119365000D03*
X196478400Y-118405000D03*
D14*
X196478400Y-120475000D03*
X196478400Y-121495000D03*
D15*
X191033400Y-97155000D03*
D16*
X193573400Y-97155000D03*
X196113400Y-97155000D03*
X198653400Y-97155000D03*
X201193400Y-97155000D03*
X203733400Y-97155000D03*
X206273400Y-97155000D03*
D15*
X191033400Y-94615000D03*
D16*
X191033400Y-92075000D03*
X193573400Y-94615000D03*
X193573400Y-92075000D03*
X196113400Y-94615000D03*
X196113400Y-92075000D03*
X198653400Y-94615000D03*
X198653400Y-92075000D03*
X201193400Y-94615000D03*
X201193400Y-92075000D03*
X203733400Y-94615000D03*
X203733400Y-92075000D03*
X206273400Y-94615000D03*
X206273400Y-92075000D03*
X208813400Y-94615000D03*
X208813400Y-92075000D03*
D17*
X193378400Y-109835000D03*
X189278400Y-109835000D03*
X193378400Y-111435000D03*
X189278400Y-111435000D03*
D18*
X203624811Y-107692071D03*
X203978364Y-107338518D03*
X204331918Y-106984964D03*
X204685471Y-106631411D03*
X205731989Y-107677929D03*
X205378436Y-108031482D03*
X205024882Y-108385036D03*
X204671329Y-108738589D03*
D19*
X196478400Y-122605000D03*
X196478400Y-123565000D03*
D11*
X197268400Y-109485000D03*
X198288400Y-109485000D03*
D17*
X189278400Y-115535000D03*
X193378400Y-115535000D03*
X189278400Y-113935000D03*
X193378400Y-113935000D03*
D10*
X207460983Y-103558915D03*
X208132734Y-104230666D03*
X208804485Y-104902417D03*
X207195817Y-106511085D03*
X205852315Y-105167583D03*
D20*
X198078400Y-124185000D03*
X198078400Y-123385000D03*
X198078400Y-122585000D03*
X198078400Y-121785000D03*
X198078400Y-120985000D03*
X198078400Y-120185000D03*
X198078400Y-119385000D03*
X198078400Y-118585000D03*
X198078400Y-117785000D03*
X198078400Y-116985000D03*
X198078400Y-116185000D03*
D21*
X199178400Y-115285000D03*
X199978400Y-115285000D03*
X200778400Y-115285000D03*
X201578400Y-115285000D03*
X202378400Y-115285000D03*
X203178400Y-115285000D03*
X203978400Y-115285000D03*
X204778400Y-115285000D03*
X205578400Y-115285000D03*
X206378400Y-115285000D03*
X207178400Y-115285000D03*
X207978400Y-115285000D03*
X208778400Y-115285000D03*
D20*
X209878400Y-116185000D03*
X209878400Y-116985000D03*
X209878400Y-117785000D03*
X209878400Y-118585000D03*
X209878400Y-119385000D03*
X209878400Y-120185000D03*
X209878400Y-120985000D03*
X209878400Y-121785000D03*
X209878400Y-122585000D03*
X209878400Y-123385000D03*
X209878400Y-124185000D03*
D21*
X208778400Y-125085000D03*
X207978400Y-125085000D03*
X207178400Y-125085000D03*
X206378400Y-125085000D03*
X205578400Y-125085000D03*
X204778400Y-125085000D03*
X203978400Y-125085000D03*
X203178400Y-125085000D03*
X202378400Y-125085000D03*
X201578400Y-125085000D03*
X200778400Y-125085000D03*
X199978400Y-125085000D03*
X199178400Y-125085000D03*
D22*
X202003400Y-118210000D03*
X202003400Y-120185000D03*
D23*
X202003400Y-122160000D03*
D22*
X203978400Y-118210000D03*
X203978400Y-120185000D03*
X203978400Y-122160000D03*
X205953400Y-118210000D03*
X205953400Y-120185000D03*
X205953400Y-122160000D03*
D24*
X209928400Y-125135000D03*
X209928400Y-115235000D03*
X198028400Y-115235000D03*
X198028400Y-125135000D03*
D25*
X204530392Y-104133008D03*
X205626408Y-103036992D03*
D15*
X214978400Y-113535000D03*
D16*
X217518400Y-113535000D03*
X214978400Y-116075000D03*
X217518400Y-116075000D03*
X214978400Y-118615000D03*
X217518400Y-118615000D03*
X214978400Y-121155000D03*
X217518400Y-121155000D03*
X214978400Y-123695000D03*
X217518400Y-123695000D03*
D26*
X215605900Y-102840000D03*
X215605900Y-103490000D03*
X215605900Y-104140000D03*
X215605900Y-104790000D03*
X215605900Y-105440000D03*
D27*
X218305900Y-100640000D03*
D28*
X218305900Y-101240000D03*
D29*
X215605900Y-101640000D03*
D30*
X218305900Y-103140000D03*
X218305900Y-105140000D03*
D29*
X215605900Y-106640000D03*
D28*
X218305900Y-107040000D03*
D27*
X218305900Y-107640000D03*
D31*
X207353400Y-101185000D03*
X205803400Y-101185000D03*
D32*
X211078400Y-102685000D03*
X211078400Y-98285000D03*
D19*
X195278400Y-122605000D03*
X195278400Y-123565000D03*
D33*
X190428400Y-107025000D03*
X194328400Y-107025000D03*
X190428400Y-105755000D03*
X194328400Y-105755000D03*
X190428400Y-104485000D03*
X194328400Y-104485000D03*
X190428400Y-103215000D03*
X194328400Y-103215000D03*
X190428400Y-101945000D03*
X194328400Y-101945000D03*
D34*
X194553400Y-99685000D03*
X196103400Y-99685000D03*
D35*
X198288400Y-107025000D03*
X197268400Y-107025000D03*
X198288400Y-104685000D03*
X197268400Y-104685000D03*
X196188400Y-109485000D03*
X195168400Y-109485000D03*
D36*
X203026408Y-105636992D03*
X201930392Y-106733008D03*
D37*
X203035247Y-109328153D03*
X201921553Y-110441847D03*
D15*
X190228400Y-123635000D03*
D16*
X190228400Y-121095000D03*
X190228400Y-118555000D03*
D38*
X212403400Y-106735000D03*
X195328400Y-110985000D03*
X199328400Y-103485000D03*
X208778400Y-103585000D03*
X211228400Y-121635000D03*
X205178400Y-113685000D03*
X192378400Y-104485000D03*
X213203400Y-105210000D03*
X207328400Y-105035000D03*
X193678400Y-116185000D03*
X196478400Y-119935000D03*
X196178400Y-110135000D03*
X200128400Y-118635000D03*
X198678400Y-107025000D03*
X200128400Y-116285000D03*
X200128400Y-119485000D03*
X199528400Y-118035000D03*
X204778400Y-114660000D03*
X205578400Y-114660000D03*
X199328400Y-106385000D03*
X199328400Y-114085000D03*
X198678400Y-105135000D03*
X199528400Y-116835000D03*
X199978400Y-105785000D03*
X199978400Y-114660000D03*
X208578400Y-121585000D03*
X209228400Y-120985000D03*
X200128400Y-117435000D03*
X202778400Y-114335000D03*
X202128400Y-113735000D03*
X191878400Y-103035000D03*
X194178400Y-95885000D03*
X191033400Y-100935000D03*
X193528400Y-99535000D03*
D39*
X207328400Y-105035000D02*
X208778400Y-103585000D01*
D40*
X198288400Y-110738066D02*
X198288400Y-109485000D01*
X198288400Y-109485000D02*
X199611520Y-109485000D01*
D41*
X195278400Y-122605000D02*
X194590593Y-122605000D01*
D42*
X198298400Y-108435000D02*
X198288400Y-108425000D01*
D41*
X198078400Y-122585000D02*
X196498400Y-122585000D01*
D40*
X195741050Y-114572351D02*
X197378400Y-112935000D01*
D41*
X196478400Y-122605000D02*
X195278400Y-122605000D01*
D40*
X198288400Y-108235000D02*
X198288400Y-109485000D01*
D41*
X196478400Y-121495000D02*
X196478400Y-122605000D01*
X196498400Y-122585000D02*
X196478400Y-122605000D01*
D40*
X194928400Y-119775076D02*
X194928400Y-116534260D01*
D41*
X194590593Y-122605000D02*
G75*
G02*
X193878402Y-122309998I7J1007200D01*
G01*
D40*
X197378400Y-112935000D02*
G75*
G03*
X198288386Y-110738066I-2196900J2196900D01*
G01*
X193878400Y-122310000D02*
G75*
G03*
X194928390Y-119775076I-2534900J2534900D01*
G01*
X199611520Y-109485000D02*
G75*
G02*
X201921547Y-110441853I-20J-3266900D01*
G01*
X194928400Y-116534260D02*
G75*
G02*
X195741061Y-114572362I2774600J-40D01*
G01*
D42*
X210328400Y-104135000D02*
X211078400Y-103385000D01*
D41*
X215605900Y-102840000D02*
X211233400Y-102840000D01*
D42*
X209071902Y-104635000D02*
X209328400Y-104635000D01*
X211078400Y-103385000D02*
X211078400Y-102685000D01*
D40*
X211528400Y-106785000D02*
X211528400Y-106667843D01*
X211174066Y-107639334D02*
X211528400Y-107285000D01*
D42*
X210181954Y-104281447D02*
X210328400Y-104135000D01*
D40*
X211528400Y-107285000D02*
X211528400Y-106785000D01*
D41*
X207460983Y-101292583D02*
X207460983Y-103558915D01*
X207353400Y-101185000D02*
X207460983Y-101292583D01*
D40*
X211078400Y-105581447D02*
X211078400Y-102685000D01*
D42*
X208804485Y-104902417D02*
X209071902Y-104635000D01*
D41*
X207353400Y-101185000D02*
X209578400Y-101185000D01*
X211233400Y-102840000D02*
X211078400Y-102685000D01*
D42*
X209328400Y-104635000D02*
G75*
G03*
X210181952Y-104281445I0J1207100D01*
G01*
D41*
X209578400Y-101185000D02*
G75*
G02*
X211078400Y-102685000I0J-1500000D01*
G01*
D40*
X211528400Y-106667843D02*
G75*
G03*
X211328413Y-106184987I-682800J43D01*
G01*
X211328400Y-106185000D02*
G75*
G02*
X211078381Y-105581447I603600J603600D01*
G01*
D39*
X196478400Y-119365000D02*
X196478400Y-119935000D01*
D42*
X193378400Y-115535000D02*
X189278400Y-115535000D01*
X197316266Y-118946590D02*
X197194456Y-119068400D01*
D39*
X196478400Y-120475000D02*
X196478400Y-119935000D01*
D42*
X197395558Y-118867843D02*
X197328400Y-118935000D01*
X193378400Y-115885000D02*
X193678400Y-116185000D01*
X197328400Y-118935000D02*
X197316266Y-118946590D01*
X193378400Y-115535000D02*
X193378400Y-115885000D01*
X198078400Y-118585000D02*
G75*
G03*
X197395554Y-118867839I0J-965700D01*
G01*
X197194456Y-119068400D02*
G75*
G02*
X196478400Y-119364987I-716056J716100D01*
G01*
D40*
X203035247Y-109328153D02*
X204501623Y-107861777D01*
X204501623Y-107861777D02*
X205024882Y-108385036D01*
X203978364Y-107338518D02*
X204501623Y-107861777D01*
D43*
X213728400Y-105835000D02*
X213728400Y-106428502D01*
X215605900Y-104140000D02*
X215423400Y-104140000D01*
X213728400Y-106428502D02*
X213454485Y-106702417D01*
X215423400Y-104140000D02*
G75*
G03*
X213728400Y-105835000I0J-1695000D01*
G01*
X212830141Y-104639757D02*
X212110983Y-105358915D01*
X215605900Y-103490000D02*
G75*
G03*
X212830144Y-104639760I0J-3925500D01*
G01*
D42*
X212465507Y-118322107D02*
X210621293Y-116477893D01*
X209914186Y-116185000D02*
X209878400Y-116185000D01*
X214978400Y-118615000D02*
X213172614Y-118615000D01*
X209914186Y-116185000D02*
G75*
G02*
X210621300Y-116477886I14J-1000000D01*
G01*
X213172614Y-118615000D02*
G75*
G02*
X212465500Y-118322114I-14J1000000D01*
G01*
D39*
X196178400Y-109509142D02*
X196178400Y-110135000D01*
D42*
X197268400Y-109485000D02*
X196188400Y-109485000D01*
X193678400Y-110135000D02*
X196178400Y-110135000D01*
X193378400Y-109835000D02*
X189278400Y-109835000D01*
X200778400Y-117985000D02*
X200778400Y-117335000D01*
X193378400Y-109835000D02*
X193678400Y-110135000D01*
X201378400Y-116735000D02*
X206528400Y-116735000D01*
X200128400Y-118635000D02*
G75*
G03*
X200778400Y-117985000I0J650000D01*
G01*
X206528400Y-116735000D02*
G75*
G03*
X207978400Y-115285000I0J1450000D01*
G01*
X200778400Y-117335000D02*
G75*
G02*
X201378400Y-116735000I600000J0D01*
G01*
D39*
X196188400Y-109485000D02*
G75*
G03*
X196178417Y-109509142I24100J-24100D01*
G01*
D42*
X197268400Y-108145000D02*
X198288400Y-107125000D01*
X200128400Y-116285000D02*
X206178400Y-116285000D01*
X198288400Y-107025000D02*
X198678400Y-107025000D01*
X197268400Y-108235000D02*
X197268400Y-108145000D01*
X198288400Y-107125000D02*
X198288400Y-107025000D01*
X206178400Y-116285000D02*
G75*
G03*
X207178400Y-115285000I0J1000000D01*
G01*
X198078400Y-120985000D02*
X198628400Y-120985000D01*
X198628400Y-120985000D02*
G75*
G03*
X200128400Y-119485000I0J1500000D01*
G01*
X199528400Y-118735000D02*
X199528400Y-118035000D01*
X198078400Y-120185000D02*
G75*
G03*
X199528400Y-118735000I0J1450000D01*
G01*
D43*
X203178400Y-115285000D02*
X203428400Y-115035000D01*
X204102055Y-113367843D02*
X210502315Y-106967583D01*
X203428400Y-115035000D02*
X203428400Y-114994189D01*
X203428400Y-114994189D02*
G75*
G02*
X204102060Y-113367848I2300000J-11D01*
G01*
X211571902Y-108585000D02*
X211845817Y-108311085D01*
X203734200Y-115040800D02*
X203734200Y-115007627D01*
X209742614Y-108585000D02*
X211571902Y-108585000D01*
X203978400Y-115285000D02*
X203734200Y-115040800D01*
X204319987Y-113593413D02*
X209035507Y-108877893D01*
X204319987Y-113593413D02*
G75*
G03*
X203734219Y-115007627I1414213J-1414187D01*
G01*
X209035507Y-108877893D02*
G75*
G02*
X209742614Y-108585010I707093J-707107D01*
G01*
D42*
X204778400Y-115285000D02*
X204778400Y-114660000D01*
X205578400Y-115285000D02*
X205578400Y-114660000D01*
X199328400Y-106385000D02*
X198105355Y-106385000D01*
X199178400Y-115285000D02*
X199178400Y-114447132D01*
X195128400Y-104485000D02*
X194328400Y-104485000D01*
X196266877Y-105623477D02*
X195128400Y-104485000D01*
X196266877Y-105623477D02*
G75*
G03*
X198105355Y-106385032I1838523J1838477D01*
G01*
X199178400Y-114447132D02*
G75*
G02*
X199328391Y-114084991I512100J32D01*
G01*
X198178400Y-116885000D02*
X199478400Y-116885000D01*
D41*
X198288400Y-104685000D02*
X198288400Y-104745000D01*
D42*
X199478400Y-116885000D02*
X199528400Y-116835000D01*
D41*
X198288400Y-104745000D02*
X198678400Y-105135000D01*
D42*
X198078400Y-116985000D02*
X198178400Y-116885000D01*
X210961293Y-119677893D02*
X214978400Y-123695000D01*
X209878400Y-119385000D02*
X210254186Y-119385000D01*
X210961293Y-119677893D02*
G75*
G03*
X210254186Y-119385010I-707093J-707107D01*
G01*
X195752664Y-103809264D02*
X195158400Y-103215000D01*
X195158400Y-103215000D02*
X194328400Y-103215000D01*
X199978400Y-115285000D02*
X199978400Y-114660000D01*
X195928400Y-104236472D02*
X195928400Y-104233528D01*
X199978400Y-105785000D02*
X198056827Y-105785000D01*
X196642613Y-105199213D02*
X196104136Y-104660736D01*
X195928400Y-104236472D02*
G75*
G03*
X196104122Y-104660750I600000J-28D01*
G01*
X195752664Y-103809264D02*
G75*
G02*
X195928380Y-104233528I-424264J-424236D01*
G01*
X198056827Y-105785000D02*
G75*
G02*
X196642599Y-105199227I-27J2000000D01*
G01*
X208578400Y-120985000D02*
X208578400Y-121585000D01*
X209878400Y-120185000D02*
X209378400Y-120185000D01*
X209378400Y-120185000D02*
G75*
G03*
X208578400Y-120985000I0J-800000D01*
G01*
X214978400Y-121155000D02*
X214312614Y-121155000D01*
X210114186Y-117785000D02*
X209878400Y-117785000D01*
X213605507Y-120862107D02*
X210821293Y-118077893D01*
X214312614Y-121155000D02*
G75*
G02*
X213605500Y-120862114I-14J1000000D01*
G01*
X210114186Y-117785000D02*
G75*
G02*
X210821300Y-118077886I14J-1000000D01*
G01*
X209228400Y-120985000D02*
X209878400Y-120985000D01*
X210164186Y-118585000D02*
X209878400Y-118585000D01*
X215844186Y-122435000D02*
X214842614Y-122435000D01*
X217518400Y-123695000D02*
X216551293Y-122727893D01*
X214135507Y-122142107D02*
X210871293Y-118877893D01*
X214842614Y-122435000D02*
G75*
G02*
X214135500Y-122142114I-14J1000000D01*
G01*
X210164186Y-118585000D02*
G75*
G02*
X210871300Y-118877886I14J-1000000D01*
G01*
X216551293Y-122727893D02*
G75*
G03*
X215844186Y-122435010I-707093J-707107D01*
G01*
X210014186Y-116985000D02*
X209878400Y-116985000D01*
X217518400Y-121155000D02*
X216541293Y-120177893D01*
X213035507Y-119592107D02*
X210721293Y-117277893D01*
X215834186Y-119885000D02*
X213742614Y-119885000D01*
X215834186Y-119885000D02*
G75*
G02*
X216541300Y-120177886I14J-1000000D01*
G01*
X213035507Y-119592107D02*
G75*
G03*
X213742614Y-119884990I707093J707107D01*
G01*
X210014186Y-116985000D02*
G75*
G02*
X210721300Y-117277886I14J-1000000D01*
G01*
X210228400Y-114485000D02*
X209578400Y-114485000D01*
X211885507Y-117042107D02*
X210971293Y-116127893D01*
X210678400Y-115420786D02*
X210678400Y-114935000D01*
X215824186Y-117335000D02*
X212592614Y-117335000D01*
X217518400Y-118615000D02*
X216531293Y-117627893D01*
X209578400Y-114485000D02*
G75*
G03*
X208778400Y-115285000I0J-800000D01*
G01*
X210678400Y-114935000D02*
G75*
G03*
X210228400Y-114485000I-450000J0D01*
G01*
X210678400Y-115420786D02*
G75*
G03*
X210971286Y-116127900I1000000J-14D01*
G01*
X211885507Y-117042107D02*
G75*
G03*
X212592614Y-117334990I707093J707107D01*
G01*
X215824186Y-117335000D02*
G75*
G02*
X216531300Y-117627886I14J-1000000D01*
G01*
X198645557Y-117785000D02*
X198078400Y-117785000D01*
X200128400Y-117435000D02*
X199490532Y-117435000D01*
X199490532Y-117435000D02*
G75*
G03*
X199128391Y-117584991I-32J-512100D01*
G01*
X199128400Y-117585000D02*
G75*
G02*
X198645557Y-117784982I-482800J482800D01*
G01*
X202767309Y-114346092D02*
X202778400Y-114335000D01*
X202378400Y-115285000D02*
G75*
G02*
X202767312Y-114346095I1327800J0D01*
G01*
X201578400Y-115285000D02*
X201578400Y-115062817D01*
X201578400Y-115062817D02*
G75*
G02*
X202128395Y-113734995I1877800J17D01*
G01*
D40*
X205378436Y-108031482D02*
X205101623Y-107754669D01*
X205578400Y-105441498D02*
X205852315Y-105167583D01*
X205852315Y-105167583D02*
X204817740Y-104133008D01*
X205101624Y-107261776D02*
X205139060Y-107224340D01*
X204817740Y-104133008D02*
X204530392Y-104133008D01*
X205028400Y-107577893D02*
X205028400Y-107438553D01*
X205578400Y-106163680D02*
X205578400Y-105441498D01*
X205028400Y-107577893D02*
G75*
G03*
X205101619Y-107754673I250000J-7D01*
G01*
X205028400Y-107438553D02*
G75*
G02*
X205101647Y-107261799I250000J-47D01*
G01*
X205578400Y-106163680D02*
G75*
G02*
X205139070Y-107224350I-1500000J-20D01*
G01*
X194978400Y-100135000D02*
X194553400Y-99710000D01*
X193573400Y-97155000D02*
X189866139Y-100862261D01*
X193573400Y-97319071D02*
X193573400Y-97155000D01*
X189178400Y-106785000D02*
X189848989Y-106785000D01*
X203026408Y-105636992D02*
X198522639Y-101133223D01*
X188778400Y-101635000D02*
X188778400Y-106385000D01*
X197078400Y-100535000D02*
X195944085Y-100535000D01*
X191033400Y-92075000D02*
X191878885Y-92920485D01*
X203026408Y-105679454D02*
X204331918Y-106984964D01*
X203026408Y-105636992D02*
X203026408Y-105679454D01*
X193573400Y-97155000D02*
X193144605Y-96726205D01*
X192278400Y-93885000D02*
X192278400Y-94635000D01*
X194553400Y-99710000D02*
X194553400Y-99685000D01*
X191878885Y-92920485D02*
G75*
G02*
X192278409Y-93885000I-964485J-964515D01*
G01*
X193144605Y-96726205D02*
G75*
G02*
X192278397Y-94635000I2091195J2091205D01*
G01*
X195944085Y-100535000D02*
G75*
G02*
X194978404Y-100134996I15J1365700D01*
G01*
X194553400Y-99685000D02*
G75*
G02*
X193573412Y-97319071I2365900J2365900D01*
G01*
X188778400Y-106385000D02*
G75*
G03*
X189178400Y-106785000I400000J0D01*
G01*
X189328400Y-101085000D02*
G75*
G03*
X188778400Y-101635000I0J-550000D01*
G01*
X189866139Y-100862261D02*
G75*
G02*
X189328400Y-101084993I-537739J537761D01*
G01*
X198522639Y-101133223D02*
G75*
G03*
X197078400Y-100535011I-1444239J-1444277D01*
G01*
X189848989Y-106785000D02*
G75*
G02*
X190428403Y-107024997I11J-819400D01*
G01*
D42*
X195088400Y-101945000D02*
X195752664Y-102609264D01*
X197268400Y-104625000D02*
X197268400Y-104685000D01*
X195928400Y-103033528D02*
X195928400Y-103036472D01*
X194328400Y-101945000D02*
X195088400Y-101945000D01*
X196104136Y-103460736D02*
X197268400Y-104625000D01*
X196104136Y-103460736D02*
G75*
G02*
X195928420Y-103036472I424264J424236D01*
G01*
X195928400Y-103033528D02*
G75*
G03*
X195752678Y-102609250I-600000J28D01*
G01*
X197268400Y-107025000D02*
X194328400Y-107025000D01*
X191698400Y-103215000D02*
X191878400Y-103035000D01*
X190428400Y-103215000D02*
X191698400Y-103215000D01*
X192778400Y-106835000D02*
X192778400Y-107385000D01*
X195168400Y-109485000D02*
X195168400Y-108125000D01*
X194328400Y-105755000D02*
X193508400Y-105755000D01*
X193508400Y-105755000D02*
X193025887Y-106237513D01*
X193128400Y-107735000D02*
X194778400Y-107735000D01*
X193025887Y-106237513D02*
G75*
G03*
X192778407Y-106835000I597513J-597487D01*
G01*
X195168400Y-108125000D02*
G75*
G03*
X194778400Y-107735000I-390000J0D01*
G01*
X192778400Y-107385000D02*
G75*
G03*
X193128400Y-107735000I350000J0D01*
G01*
X194368781Y-95694620D02*
X194178400Y-95885000D01*
X203728400Y-93335000D02*
X196078400Y-93335000D01*
X206273400Y-92075000D02*
X205922032Y-92426368D01*
X196078400Y-93335000D02*
G75*
G03*
X194828400Y-94585000I0J-1250000D01*
G01*
X194828400Y-94585000D02*
G75*
G02*
X194368772Y-95694611I-1569200J0D01*
G01*
X205922032Y-92426368D02*
G75*
G02*
X203728400Y-93334990I-2193632J2193668D01*
G01*
X191659118Y-100309282D02*
X191033400Y-100935000D01*
X193528400Y-99535000D02*
G75*
G03*
X191659111Y-100309275I0J-2643600D01*
G01*
G04 #@! TA.AperFunction,Conductor*
G36*
X210182755Y-89085929D02*
G01*
X210202361Y-89087860D01*
X210345161Y-89101924D01*
X210362263Y-89105325D01*
X210502776Y-89147949D01*
X210514234Y-89151425D01*
X210530353Y-89158102D01*
X210670405Y-89232961D01*
X210684907Y-89242650D01*
X210746289Y-89293025D01*
X210807666Y-89343396D01*
X210820003Y-89355733D01*
X210883537Y-89433149D01*
X210920747Y-89478490D01*
X210930438Y-89492994D01*
X211005297Y-89633046D01*
X211011974Y-89649165D01*
X211058072Y-89801130D01*
X211061475Y-89818241D01*
X211077471Y-89980644D01*
X211077900Y-89989368D01*
X211077900Y-93574584D01*
X211112881Y-93952099D01*
X211112884Y-93952115D01*
X211182554Y-94324815D01*
X211229553Y-94489999D01*
X211286314Y-94689497D01*
X211332220Y-94807993D01*
X211423281Y-95043047D01*
X211592285Y-95382453D01*
X211592291Y-95382465D01*
X211791882Y-95704815D01*
X211979449Y-95953193D01*
X212020376Y-96007389D01*
X212275812Y-96287588D01*
X212513161Y-96503961D01*
X212556011Y-96543024D01*
X212858584Y-96771517D01*
X213180934Y-96971108D01*
X213180942Y-96971112D01*
X213180947Y-96971115D01*
X213520353Y-97140119D01*
X213873904Y-97277086D01*
X214238585Y-97380846D01*
X214611285Y-97450516D01*
X214611293Y-97450516D01*
X214611300Y-97450518D01*
X214850847Y-97472714D01*
X214988822Y-97485500D01*
X215158409Y-97485500D01*
X218651471Y-97485500D01*
X218674032Y-97485500D01*
X218682755Y-97485929D01*
X218702361Y-97487860D01*
X218845161Y-97501924D01*
X218862263Y-97505325D01*
X219002776Y-97547949D01*
X219014234Y-97551425D01*
X219030353Y-97558102D01*
X219170405Y-97632961D01*
X219184907Y-97642650D01*
X219246289Y-97693025D01*
X219307666Y-97743396D01*
X219320003Y-97755733D01*
X219361287Y-97806037D01*
X219420747Y-97878490D01*
X219430438Y-97892994D01*
X219505297Y-98033046D01*
X219511974Y-98049165D01*
X219558072Y-98201130D01*
X219561475Y-98218241D01*
X219577471Y-98380644D01*
X219577900Y-98389368D01*
X219577900Y-100327971D01*
X219557078Y-100385179D01*
X219504355Y-100415619D01*
X219444400Y-100405047D01*
X219406675Y-100362030D01*
X219364852Y-100261061D01*
X219364850Y-100261058D01*
X219277302Y-100130032D01*
X219165867Y-100018597D01*
X219034841Y-99931049D01*
X219034838Y-99931047D01*
X218889250Y-99870743D01*
X218889248Y-99870742D01*
X218734697Y-99840000D01*
X218430901Y-99840000D01*
X218430900Y-99840001D01*
X218430900Y-100340000D01*
X218180900Y-100340000D01*
X218180900Y-99840001D01*
X218180899Y-99840000D01*
X217877102Y-99840000D01*
X217722551Y-99870742D01*
X217722549Y-99870743D01*
X217576961Y-99931047D01*
X217576958Y-99931049D01*
X217445932Y-100018597D01*
X217334497Y-100130032D01*
X217246949Y-100261058D01*
X217246947Y-100261061D01*
X217186643Y-100406649D01*
X217186642Y-100406651D01*
X217165090Y-100514999D01*
X217165091Y-100515000D01*
X217681658Y-100515000D01*
X217676344Y-100524204D01*
X217655900Y-100600504D01*
X217655900Y-100679496D01*
X217676344Y-100755796D01*
X217681658Y-100765000D01*
X217155901Y-100765000D01*
X217155900Y-100765001D01*
X217155900Y-101114999D01*
X217155901Y-101115000D01*
X218216900Y-101115000D01*
X218238629Y-101122908D01*
X218261400Y-101126924D01*
X218266561Y-101133075D01*
X218274108Y-101135822D01*
X218285669Y-101155846D01*
X218300533Y-101173560D01*
X218302571Y-101185121D01*
X218304548Y-101188545D01*
X218305900Y-101204000D01*
X218305900Y-101240000D01*
X218341900Y-101240000D01*
X218399108Y-101260822D01*
X218429548Y-101313545D01*
X218430900Y-101329000D01*
X218430900Y-102039999D01*
X218442968Y-102052067D01*
X218454289Y-102076347D01*
X218467683Y-102099545D01*
X218466976Y-102103554D01*
X218468696Y-102107243D01*
X218461762Y-102133119D01*
X218457111Y-102159500D01*
X218453993Y-102162115D01*
X218452940Y-102166048D01*
X218442968Y-102177933D01*
X218430900Y-102190001D01*
X218430900Y-104104136D01*
X218442683Y-104124545D01*
X218441976Y-104128554D01*
X218443696Y-104132243D01*
X218436762Y-104158119D01*
X218432111Y-104184500D01*
X218430900Y-104186078D01*
X218430900Y-106089999D01*
X218442968Y-106102067D01*
X218454289Y-106126347D01*
X218467683Y-106149545D01*
X218466976Y-106153554D01*
X218468696Y-106157243D01*
X218461762Y-106183119D01*
X218457111Y-106209500D01*
X218453397Y-106214339D01*
X218452940Y-106216048D01*
X218451096Y-106217338D01*
X218442968Y-106227933D01*
X218430900Y-106240001D01*
X218430900Y-106951000D01*
X218410078Y-107008208D01*
X218357355Y-107038648D01*
X218341900Y-107040000D01*
X218305900Y-107040000D01*
X218305900Y-107076000D01*
X218285078Y-107133208D01*
X218232355Y-107163648D01*
X218216900Y-107165000D01*
X217155901Y-107165000D01*
X217155900Y-107165001D01*
X217155900Y-107514999D01*
X217155901Y-107515000D01*
X217681658Y-107515000D01*
X217676344Y-107524204D01*
X217655900Y-107600504D01*
X217655900Y-107679496D01*
X217676344Y-107755796D01*
X217681658Y-107765000D01*
X217165091Y-107765000D01*
X217186642Y-107873348D01*
X217186643Y-107873350D01*
X217246947Y-108018938D01*
X217246949Y-108018941D01*
X217334497Y-108149967D01*
X217445932Y-108261402D01*
X217576958Y-108348950D01*
X217576961Y-108348952D01*
X217722549Y-108409256D01*
X217722551Y-108409257D01*
X217877102Y-108439999D01*
X217877111Y-108440000D01*
X218180899Y-108440000D01*
X218180900Y-108439999D01*
X218180900Y-107940000D01*
X218430900Y-107940000D01*
X218430900Y-108439999D01*
X218430901Y-108440000D01*
X218734689Y-108440000D01*
X218734697Y-108439999D01*
X218889248Y-108409257D01*
X218889250Y-108409256D01*
X219034838Y-108348952D01*
X219034841Y-108348950D01*
X219165867Y-108261402D01*
X219277302Y-108149967D01*
X219364850Y-108018941D01*
X219364852Y-108018938D01*
X219406675Y-107917969D01*
X219447804Y-107873084D01*
X219508163Y-107865138D01*
X219559508Y-107897848D01*
X219577900Y-107952028D01*
X219577900Y-124780631D01*
X219577471Y-124789354D01*
X219577471Y-124789355D01*
X219561475Y-124951758D01*
X219558072Y-124968869D01*
X219511974Y-125120834D01*
X219505297Y-125136953D01*
X219430438Y-125277005D01*
X219420745Y-125291512D01*
X219320003Y-125414266D01*
X219307666Y-125426603D01*
X219184912Y-125527345D01*
X219170405Y-125537038D01*
X219030353Y-125611897D01*
X219014234Y-125618574D01*
X218862269Y-125664672D01*
X218845158Y-125668075D01*
X218682756Y-125684071D01*
X218674032Y-125684500D01*
X210549682Y-125684500D01*
X210492474Y-125663678D01*
X210462034Y-125610955D01*
X210466314Y-125571877D01*
X210465086Y-125571633D01*
X210478399Y-125504702D01*
X210478400Y-125504694D01*
X210478400Y-125260001D01*
X210478399Y-125260000D01*
X209378401Y-125260000D01*
X209378400Y-125260001D01*
X209378400Y-125504702D01*
X209391714Y-125571633D01*
X209390095Y-125571955D01*
X209394766Y-125580045D01*
X209391070Y-125601002D01*
X209391999Y-125622263D01*
X209385926Y-125630177D01*
X209384194Y-125640000D01*
X209367891Y-125653679D01*
X209354937Y-125670562D01*
X209343959Y-125673761D01*
X209337558Y-125679133D01*
X209307118Y-125684500D01*
X209249682Y-125684500D01*
X209192474Y-125663678D01*
X209162034Y-125610955D01*
X209166314Y-125571877D01*
X209165086Y-125571633D01*
X209178399Y-125504702D01*
X209178400Y-125504694D01*
X209178400Y-125210001D01*
X209178399Y-125210000D01*
X198778401Y-125210000D01*
X198778400Y-125210001D01*
X198778400Y-125504702D01*
X198791714Y-125571633D01*
X198790095Y-125571955D01*
X198794766Y-125580045D01*
X198791070Y-125601002D01*
X198791999Y-125622263D01*
X198785926Y-125630177D01*
X198784194Y-125640000D01*
X198767891Y-125653679D01*
X198754937Y-125670562D01*
X198743959Y-125673761D01*
X198737558Y-125679133D01*
X198707118Y-125684500D01*
X198649682Y-125684500D01*
X198592474Y-125663678D01*
X198562034Y-125610955D01*
X198566314Y-125571877D01*
X198565086Y-125571633D01*
X198578399Y-125504702D01*
X198578400Y-125504694D01*
X198578400Y-125260001D01*
X198578399Y-125260000D01*
X197478401Y-125260000D01*
X197478400Y-125260001D01*
X197478400Y-125504702D01*
X197491714Y-125571633D01*
X197489804Y-125572012D01*
X197491999Y-125622263D01*
X197454937Y-125670562D01*
X197407118Y-125684500D01*
X189082768Y-125684500D01*
X189074044Y-125684071D01*
X188911641Y-125668075D01*
X188894530Y-125664672D01*
X188742565Y-125618574D01*
X188726446Y-125611897D01*
X188586394Y-125537038D01*
X188571890Y-125527347D01*
X188526549Y-125490137D01*
X188449133Y-125426603D01*
X188436796Y-125414266D01*
X188386425Y-125352889D01*
X188336050Y-125291507D01*
X188326361Y-125277005D01*
X188251502Y-125136953D01*
X188244825Y-125120834D01*
X188211204Y-125009999D01*
X188198725Y-124968863D01*
X188195324Y-124951761D01*
X188179329Y-124789354D01*
X188178900Y-124780631D01*
X188178900Y-122765297D01*
X189178400Y-122765297D01*
X189178400Y-123509999D01*
X189178401Y-123510000D01*
X189744256Y-123510000D01*
X189728400Y-123569174D01*
X189728400Y-123700826D01*
X189744256Y-123760000D01*
X189178401Y-123760000D01*
X189178400Y-123760001D01*
X189178400Y-124504702D01*
X189190003Y-124563035D01*
X189234206Y-124629189D01*
X189234210Y-124629193D01*
X189300364Y-124673396D01*
X189358697Y-124684999D01*
X189358706Y-124685000D01*
X190103399Y-124685000D01*
X190103400Y-124684999D01*
X190103400Y-124119144D01*
X190162574Y-124135000D01*
X190294226Y-124135000D01*
X190353400Y-124119144D01*
X190353400Y-124684999D01*
X190353401Y-124685000D01*
X191098094Y-124685000D01*
X191098102Y-124684999D01*
X191156435Y-124673396D01*
X191222589Y-124629193D01*
X191222593Y-124629189D01*
X191266796Y-124563035D01*
X191278399Y-124504702D01*
X191278400Y-124504694D01*
X191278400Y-123985001D01*
X193203401Y-123985001D01*
X193203401Y-124118444D01*
X193219162Y-124217972D01*
X193280278Y-124337918D01*
X193375478Y-124433118D01*
X193495435Y-124494239D01*
X193594948Y-124509999D01*
X193753398Y-124509999D01*
X193753400Y-124509998D01*
X193753400Y-123985001D01*
X194003400Y-123985001D01*
X194003400Y-124509998D01*
X194003401Y-124509999D01*
X194161845Y-124509999D01*
X194261372Y-124494237D01*
X194381318Y-124433121D01*
X194476518Y-124337921D01*
X194490744Y-124310001D01*
X197478400Y-124310001D01*
X197478400Y-124404702D01*
X197490003Y-124463035D01*
X197538459Y-124535554D01*
X197552929Y-124594689D01*
X197538459Y-124634446D01*
X197490003Y-124706964D01*
X197478400Y-124765297D01*
X197478400Y-125009999D01*
X197478401Y-125010000D01*
X197903399Y-125010000D01*
X197903400Y-125009999D01*
X197903400Y-124680001D01*
X198153400Y-124680001D01*
X198153400Y-125009999D01*
X198153401Y-125010000D01*
X198578399Y-125010000D01*
X198578400Y-125009999D01*
X198578400Y-124765305D01*
X198578399Y-124765297D01*
X198566796Y-124706965D01*
X198551343Y-124683838D01*
X198546806Y-124665297D01*
X198778400Y-124665297D01*
X198778400Y-124959999D01*
X198778401Y-124960000D01*
X199053399Y-124960000D01*
X199053400Y-124959999D01*
X199053400Y-124485001D01*
X199303400Y-124485001D01*
X199303400Y-124959999D01*
X199303401Y-124960000D01*
X199853399Y-124960000D01*
X199853400Y-124959999D01*
X199853400Y-124485001D01*
X200103400Y-124485001D01*
X200103400Y-124959999D01*
X200103401Y-124960000D01*
X200653399Y-124960000D01*
X200653400Y-124959999D01*
X200653400Y-124485001D01*
X200903400Y-124485001D01*
X200903400Y-124959999D01*
X200903401Y-124960000D01*
X201453399Y-124960000D01*
X201453400Y-124959999D01*
X201453400Y-124485001D01*
X201703400Y-124485001D01*
X201703400Y-124959999D01*
X201703401Y-124960000D01*
X202253399Y-124960000D01*
X202253400Y-124959999D01*
X202253400Y-124485001D01*
X202503400Y-124485001D01*
X202503400Y-124959999D01*
X202503401Y-124960000D01*
X203053399Y-124960000D01*
X203053400Y-124959999D01*
X203053400Y-124485001D01*
X203303400Y-124485001D01*
X203303400Y-124959999D01*
X203303401Y-124960000D01*
X203853399Y-124960000D01*
X203853400Y-124959999D01*
X203853400Y-124485001D01*
X204103400Y-124485001D01*
X204103400Y-124959999D01*
X204103401Y-124960000D01*
X204653399Y-124960000D01*
X204653400Y-124959999D01*
X204653400Y-124485001D01*
X204903400Y-124485001D01*
X204903400Y-124959999D01*
X204903401Y-124960000D01*
X205453399Y-124960000D01*
X205453400Y-124959999D01*
X205453400Y-124485001D01*
X205703400Y-124485001D01*
X205703400Y-124959999D01*
X205703401Y-124960000D01*
X206253399Y-124960000D01*
X206253400Y-124959999D01*
X206253400Y-124485001D01*
X206503400Y-124485001D01*
X206503400Y-124959999D01*
X206503401Y-124960000D01*
X207053399Y-124960000D01*
X207053400Y-124959999D01*
X207053400Y-124485001D01*
X207303400Y-124485001D01*
X207303400Y-124959999D01*
X207303401Y-124960000D01*
X207853399Y-124960000D01*
X207853400Y-124959999D01*
X207853400Y-124485001D01*
X208103400Y-124485001D01*
X208103400Y-124959999D01*
X208103401Y-124960000D01*
X208653399Y-124960000D01*
X208653400Y-124959999D01*
X208653400Y-124485001D01*
X208903400Y-124485001D01*
X208903400Y-124959999D01*
X208903401Y-124960000D01*
X209178399Y-124960000D01*
X209178400Y-124959999D01*
X209178400Y-124665305D01*
X209178399Y-124665297D01*
X209166796Y-124606964D01*
X209122593Y-124540810D01*
X209122589Y-124540806D01*
X209056435Y-124496603D01*
X208998102Y-124485000D01*
X208903401Y-124485000D01*
X208903400Y-124485001D01*
X208653400Y-124485001D01*
X208653399Y-124485000D01*
X208558697Y-124485000D01*
X208500364Y-124496603D01*
X208427846Y-124545059D01*
X208368711Y-124559529D01*
X208328954Y-124545059D01*
X208256435Y-124496603D01*
X208198102Y-124485000D01*
X208103401Y-124485000D01*
X208103400Y-124485001D01*
X207853400Y-124485001D01*
X207853399Y-124485000D01*
X207758697Y-124485000D01*
X207700364Y-124496603D01*
X207627846Y-124545059D01*
X207568711Y-124559529D01*
X207528954Y-124545059D01*
X207456435Y-124496603D01*
X207398102Y-124485000D01*
X207303401Y-124485000D01*
X207303400Y-124485001D01*
X207053400Y-124485001D01*
X207053399Y-124485000D01*
X206958697Y-124485000D01*
X206900364Y-124496603D01*
X206827846Y-124545059D01*
X206768711Y-124559529D01*
X206728954Y-124545059D01*
X206656435Y-124496603D01*
X206598102Y-124485000D01*
X206503401Y-124485000D01*
X206503400Y-124485001D01*
X206253400Y-124485001D01*
X206253399Y-124485000D01*
X206158697Y-124485000D01*
X206100364Y-124496603D01*
X206027846Y-124545059D01*
X205968711Y-124559529D01*
X205928954Y-124545059D01*
X205856435Y-124496603D01*
X205798102Y-124485000D01*
X205703401Y-124485000D01*
X205703400Y-124485001D01*
X205453400Y-124485001D01*
X205453399Y-124485000D01*
X205358697Y-124485000D01*
X205300364Y-124496603D01*
X205227846Y-124545059D01*
X205168711Y-124559529D01*
X205128954Y-124545059D01*
X205056435Y-124496603D01*
X204998102Y-124485000D01*
X204903401Y-124485000D01*
X204903400Y-124485001D01*
X204653400Y-124485001D01*
X204653399Y-124485000D01*
X204558697Y-124485000D01*
X204500364Y-124496603D01*
X204427846Y-124545059D01*
X204368711Y-124559529D01*
X204328954Y-124545059D01*
X204256435Y-124496603D01*
X204198102Y-124485000D01*
X204103401Y-124485000D01*
X204103400Y-124485001D01*
X203853400Y-124485001D01*
X203853399Y-124485000D01*
X203758697Y-124485000D01*
X203700364Y-124496603D01*
X203627846Y-124545059D01*
X203568711Y-124559529D01*
X203528954Y-124545059D01*
X203456435Y-124496603D01*
X203398102Y-124485000D01*
X203303401Y-124485000D01*
X203303400Y-124485001D01*
X203053400Y-124485001D01*
X203053399Y-124485000D01*
X202958697Y-124485000D01*
X202900364Y-124496603D01*
X202827846Y-124545059D01*
X202768711Y-124559529D01*
X202728954Y-124545059D01*
X202656435Y-124496603D01*
X202598102Y-124485000D01*
X202503401Y-124485000D01*
X202503400Y-124485001D01*
X202253400Y-124485001D01*
X202253399Y-124485000D01*
X202158697Y-124485000D01*
X202100364Y-124496603D01*
X202027846Y-124545059D01*
X201968711Y-124559529D01*
X201928954Y-124545059D01*
X201856435Y-124496603D01*
X201798102Y-124485000D01*
X201703401Y-124485000D01*
X201703400Y-124485001D01*
X201453400Y-124485001D01*
X201453399Y-124485000D01*
X201358697Y-124485000D01*
X201300364Y-124496603D01*
X201227846Y-124545059D01*
X201168711Y-124559529D01*
X201128954Y-124545059D01*
X201056435Y-124496603D01*
X200998102Y-124485000D01*
X200903401Y-124485000D01*
X200903400Y-124485001D01*
X200653400Y-124485001D01*
X200653399Y-124485000D01*
X200558697Y-124485000D01*
X200500364Y-124496603D01*
X200427846Y-124545059D01*
X200368711Y-124559529D01*
X200328954Y-124545059D01*
X200256435Y-124496603D01*
X200198102Y-124485000D01*
X200103401Y-124485000D01*
X200103400Y-124485001D01*
X199853400Y-124485001D01*
X199853399Y-124485000D01*
X199758697Y-124485000D01*
X199700364Y-124496603D01*
X199627846Y-124545059D01*
X199568711Y-124559529D01*
X199528954Y-124545059D01*
X199456435Y-124496603D01*
X199398102Y-124485000D01*
X199303401Y-124485000D01*
X199303400Y-124485001D01*
X199053400Y-124485001D01*
X199053399Y-124485000D01*
X198958697Y-124485000D01*
X198900364Y-124496603D01*
X198834210Y-124540806D01*
X198834206Y-124540810D01*
X198790003Y-124606964D01*
X198778400Y-124665297D01*
X198546806Y-124665297D01*
X198536873Y-124624703D01*
X198563800Y-124570101D01*
X198575899Y-124560391D01*
X198622588Y-124529194D01*
X198622593Y-124529189D01*
X198666796Y-124463035D01*
X198678399Y-124404702D01*
X198678400Y-124404694D01*
X198678400Y-124310001D01*
X198678399Y-124310000D01*
X198203401Y-124310000D01*
X198203400Y-124310001D01*
X198203400Y-124593135D01*
X198182578Y-124650343D01*
X198177333Y-124656068D01*
X198153400Y-124680001D01*
X197903400Y-124680001D01*
X197903400Y-124576865D01*
X197924222Y-124519657D01*
X197929467Y-124513932D01*
X197953400Y-124489999D01*
X197953400Y-124310001D01*
X197953399Y-124310000D01*
X197478401Y-124310000D01*
X197478400Y-124310001D01*
X194490744Y-124310001D01*
X194530116Y-124232730D01*
X194537639Y-124217964D01*
X194537639Y-124217963D01*
X194553400Y-124118451D01*
X194553400Y-123985001D01*
X194553399Y-123985000D01*
X194003401Y-123985000D01*
X194003400Y-123985001D01*
X193753400Y-123985001D01*
X193753399Y-123985000D01*
X193203402Y-123985000D01*
X193203401Y-123985001D01*
X191278400Y-123985001D01*
X191278400Y-123760001D01*
X191278399Y-123760000D01*
X190712544Y-123760000D01*
X190728400Y-123700826D01*
X190728400Y-123601548D01*
X193203400Y-123601548D01*
X193203400Y-123734999D01*
X193203401Y-123735000D01*
X193753399Y-123735000D01*
X193753400Y-123734999D01*
X193753400Y-123210001D01*
X194003400Y-123210001D01*
X194003400Y-123734999D01*
X194003401Y-123735000D01*
X194553398Y-123735000D01*
X194553399Y-123734999D01*
X194553399Y-123690001D01*
X194768400Y-123690001D01*
X194768400Y-123744841D01*
X194774919Y-123794357D01*
X194825589Y-123903020D01*
X194910379Y-123987810D01*
X195019042Y-124038480D01*
X195019041Y-124038480D01*
X195068558Y-124044999D01*
X195068567Y-124045000D01*
X195153399Y-124045000D01*
X195153400Y-124044999D01*
X195153400Y-123690001D01*
X195403400Y-123690001D01*
X195403400Y-124044999D01*
X195403401Y-124045000D01*
X195488233Y-124045000D01*
X195488241Y-124044999D01*
X195537757Y-124038480D01*
X195646420Y-123987810D01*
X195731210Y-123903020D01*
X195781880Y-123794357D01*
X195788399Y-123744841D01*
X195788400Y-123744833D01*
X195788400Y-123690001D01*
X195968400Y-123690001D01*
X195968400Y-123744841D01*
X195974919Y-123794357D01*
X196025589Y-123903020D01*
X196110379Y-123987810D01*
X196219042Y-124038480D01*
X196219041Y-124038480D01*
X196268558Y-124044999D01*
X196268567Y-124045000D01*
X196353399Y-124045000D01*
X196353400Y-124044999D01*
X196353400Y-123690001D01*
X196603400Y-123690001D01*
X196603400Y-124044999D01*
X196603401Y-124045000D01*
X196688233Y-124045000D01*
X196688241Y-124044999D01*
X196737757Y-124038480D01*
X196846420Y-123987810D01*
X196931210Y-123903020D01*
X196981880Y-123794357D01*
X196988399Y-123744841D01*
X196988400Y-123744833D01*
X196988400Y-123690001D01*
X196988399Y-123690000D01*
X196603401Y-123690000D01*
X196603400Y-123690001D01*
X196353400Y-123690001D01*
X196353399Y-123690000D01*
X195968401Y-123690000D01*
X195968400Y-123690001D01*
X195788400Y-123690001D01*
X195788399Y-123690000D01*
X195403401Y-123690000D01*
X195403400Y-123690001D01*
X195153400Y-123690001D01*
X195153399Y-123690000D01*
X194768401Y-123690000D01*
X194768400Y-123690001D01*
X194553399Y-123690001D01*
X194553399Y-123601555D01*
X194538900Y-123510001D01*
X197478400Y-123510001D01*
X197478400Y-123604702D01*
X197490003Y-123663035D01*
X197538459Y-123735554D01*
X197552929Y-123794689D01*
X197538459Y-123834446D01*
X197490003Y-123906964D01*
X197478400Y-123965297D01*
X197478400Y-124059999D01*
X197478401Y-124060000D01*
X197953399Y-124060000D01*
X197953400Y-124059999D01*
X197953400Y-123510001D01*
X198203400Y-123510001D01*
X198203400Y-124059999D01*
X198203401Y-124060000D01*
X198678399Y-124060000D01*
X198678400Y-124059999D01*
X198678400Y-123965305D01*
X198678399Y-123965297D01*
X198666796Y-123906964D01*
X198618340Y-123834446D01*
X198603870Y-123775311D01*
X198618340Y-123735554D01*
X198666796Y-123663035D01*
X198678399Y-123604702D01*
X198678400Y-123604694D01*
X198678400Y-123510001D01*
X198678399Y-123510000D01*
X198203401Y-123510000D01*
X198203400Y-123510001D01*
X197953400Y-123510001D01*
X197953399Y-123510000D01*
X197478401Y-123510000D01*
X197478400Y-123510001D01*
X194538900Y-123510001D01*
X194537637Y-123502027D01*
X194476521Y-123382081D01*
X194381321Y-123286881D01*
X194261364Y-123225760D01*
X194161852Y-123210000D01*
X194003401Y-123210000D01*
X194003400Y-123210001D01*
X193753400Y-123210001D01*
X193753399Y-123210000D01*
X193594955Y-123210000D01*
X193495427Y-123225762D01*
X193375481Y-123286878D01*
X193280281Y-123382078D01*
X193219160Y-123502035D01*
X193219160Y-123502036D01*
X193203400Y-123601548D01*
X190728400Y-123601548D01*
X190728400Y-123569174D01*
X190712544Y-123510000D01*
X191278399Y-123510000D01*
X191278400Y-123509999D01*
X191278400Y-122765305D01*
X191278399Y-122765297D01*
X191266796Y-122706964D01*
X191222593Y-122640810D01*
X191222589Y-122640806D01*
X191156435Y-122596603D01*
X191098102Y-122585000D01*
X190353401Y-122585000D01*
X190353400Y-122585001D01*
X190353400Y-123150855D01*
X190294226Y-123135000D01*
X190162574Y-123135000D01*
X190103400Y-123150855D01*
X190103400Y-122585001D01*
X190103399Y-122585000D01*
X189358697Y-122585000D01*
X189300364Y-122596603D01*
X189234210Y-122640806D01*
X189234206Y-122640810D01*
X189190003Y-122706964D01*
X189178400Y-122765297D01*
X188178900Y-122765297D01*
X188178900Y-120991530D01*
X189177900Y-120991530D01*
X189177900Y-121198469D01*
X189216931Y-121394689D01*
X189218270Y-121401420D01*
X189234436Y-121440448D01*
X189290809Y-121576545D01*
X189297459Y-121592598D01*
X189308151Y-121608600D01*
X189412419Y-121764650D01*
X189412420Y-121764651D01*
X189412423Y-121764655D01*
X189558745Y-121910977D01*
X189730802Y-122025941D01*
X189921980Y-122105130D01*
X190124935Y-122145500D01*
X190124939Y-122145500D01*
X190331861Y-122145500D01*
X190331865Y-122145500D01*
X190534820Y-122105130D01*
X190725998Y-122025941D01*
X190898055Y-121910977D01*
X191044377Y-121764655D01*
X191159341Y-121592598D01*
X191238530Y-121401420D01*
X191278900Y-121198465D01*
X191278900Y-120991535D01*
X191238530Y-120788580D01*
X191159341Y-120597402D01*
X191082523Y-120482435D01*
X191044380Y-120425349D01*
X191044379Y-120425348D01*
X191044377Y-120425345D01*
X190898055Y-120279023D01*
X190898051Y-120279020D01*
X190898050Y-120279019D01*
X190760483Y-120187101D01*
X190725998Y-120164059D01*
X190725995Y-120164058D01*
X190725994Y-120164057D01*
X190639377Y-120128179D01*
X190534820Y-120084870D01*
X190534818Y-120084869D01*
X190534817Y-120084869D01*
X190331869Y-120044500D01*
X190331865Y-120044500D01*
X190124935Y-120044500D01*
X190124930Y-120044500D01*
X189921982Y-120084869D01*
X189921980Y-120084870D01*
X189730805Y-120164057D01*
X189730797Y-120164062D01*
X189558749Y-120279019D01*
X189412419Y-120425349D01*
X189297462Y-120597397D01*
X189297457Y-120597405D01*
X189218270Y-120788580D01*
X189218269Y-120788582D01*
X189177900Y-120991530D01*
X188178900Y-120991530D01*
X188178900Y-118451530D01*
X189177900Y-118451530D01*
X189177900Y-118658469D01*
X189216948Y-118854776D01*
X189218270Y-118861420D01*
X189255739Y-118951878D01*
X189289940Y-119034447D01*
X189297459Y-119052598D01*
X189323412Y-119091440D01*
X189412419Y-119224650D01*
X189412420Y-119224651D01*
X189412423Y-119224655D01*
X189558745Y-119370977D01*
X189730802Y-119485941D01*
X189921980Y-119565130D01*
X190124935Y-119605500D01*
X190124939Y-119605500D01*
X190331861Y-119605500D01*
X190331865Y-119605500D01*
X190534820Y-119565130D01*
X190725998Y-119485941D01*
X190898055Y-119370977D01*
X191044377Y-119224655D01*
X191159341Y-119052598D01*
X191238530Y-118861420D01*
X191278900Y-118658465D01*
X191278900Y-118451535D01*
X191238530Y-118248580D01*
X191159341Y-118057402D01*
X191070874Y-117925001D01*
X191044380Y-117885349D01*
X191044379Y-117885348D01*
X191044377Y-117885345D01*
X190898055Y-117739023D01*
X190898051Y-117739020D01*
X190898050Y-117739019D01*
X190759253Y-117646279D01*
X190725998Y-117624059D01*
X190725995Y-117624058D01*
X190725994Y-117624057D01*
X190584014Y-117565247D01*
X190534820Y-117544870D01*
X190534818Y-117544869D01*
X190534817Y-117544869D01*
X190331869Y-117504500D01*
X190331865Y-117504500D01*
X190124935Y-117504500D01*
X190124930Y-117504500D01*
X189921982Y-117544869D01*
X189921980Y-117544870D01*
X189730805Y-117624057D01*
X189730797Y-117624062D01*
X189558749Y-117739019D01*
X189412419Y-117885349D01*
X189297462Y-118057397D01*
X189297457Y-118057405D01*
X189218270Y-118248580D01*
X189218269Y-118248582D01*
X189177900Y-118451530D01*
X188178900Y-118451530D01*
X188178900Y-115065247D01*
X188577900Y-115065247D01*
X188577900Y-116004752D01*
X188589532Y-116063231D01*
X188625331Y-116116806D01*
X188633848Y-116129552D01*
X188633851Y-116129554D01*
X188700168Y-116173867D01*
X188757090Y-116185189D01*
X188758652Y-116185500D01*
X188758656Y-116185500D01*
X189798144Y-116185500D01*
X189798148Y-116185500D01*
X189856631Y-116173867D01*
X189922952Y-116129552D01*
X189967267Y-116063231D01*
X189978900Y-116004748D01*
X189978900Y-115926100D01*
X189999722Y-115868892D01*
X190052445Y-115838452D01*
X190067900Y-115837100D01*
X192588900Y-115837100D01*
X192646108Y-115857922D01*
X192676548Y-115910645D01*
X192677900Y-115926100D01*
X192677900Y-116004752D01*
X192689532Y-116063231D01*
X192725331Y-116116806D01*
X192733848Y-116129552D01*
X192733851Y-116129554D01*
X192800168Y-116173867D01*
X192857090Y-116185189D01*
X192858652Y-116185500D01*
X193073969Y-116185500D01*
X193131177Y-116206322D01*
X193159937Y-116251465D01*
X193160400Y-116253192D01*
X193160400Y-116253196D01*
X193195701Y-116384940D01*
X193195702Y-116384943D01*
X193263893Y-116503055D01*
X193263895Y-116503057D01*
X193263897Y-116503060D01*
X193360340Y-116599503D01*
X193360342Y-116599504D01*
X193360344Y-116599506D01*
X193420598Y-116634293D01*
X193478459Y-116667699D01*
X193610204Y-116703000D01*
X193610206Y-116703000D01*
X193746594Y-116703000D01*
X193746596Y-116703000D01*
X193878341Y-116667699D01*
X193996460Y-116599503D01*
X194092903Y-116503060D01*
X194161099Y-116384941D01*
X194196400Y-116253196D01*
X194196400Y-116116804D01*
X194161099Y-115985059D01*
X194092903Y-115866940D01*
X194090823Y-115863337D01*
X194078900Y-115818837D01*
X194078900Y-115065255D01*
X194078899Y-115065247D01*
X194067267Y-115006768D01*
X194022954Y-114940451D01*
X194022952Y-114940448D01*
X194003202Y-114927251D01*
X193956631Y-114896132D01*
X193898152Y-114884500D01*
X193898148Y-114884500D01*
X192858652Y-114884500D01*
X192858647Y-114884500D01*
X192800168Y-114896132D01*
X192733851Y-114940445D01*
X192733845Y-114940451D01*
X192689532Y-115006768D01*
X192677900Y-115065247D01*
X192677900Y-115143900D01*
X192657078Y-115201108D01*
X192604355Y-115231548D01*
X192588900Y-115232900D01*
X190067900Y-115232900D01*
X190010692Y-115212078D01*
X189980252Y-115159355D01*
X189978900Y-115143900D01*
X189978900Y-115065255D01*
X189978899Y-115065247D01*
X189967267Y-115006768D01*
X189922954Y-114940451D01*
X189922952Y-114940448D01*
X189903202Y-114927251D01*
X189856631Y-114896132D01*
X189798152Y-114884500D01*
X189798148Y-114884500D01*
X188758652Y-114884500D01*
X188758647Y-114884500D01*
X188700168Y-114896132D01*
X188633851Y-114940445D01*
X188633845Y-114940451D01*
X188589532Y-115006768D01*
X188577900Y-115065247D01*
X188178900Y-115065247D01*
X188178900Y-114060001D01*
X188578400Y-114060001D01*
X188578400Y-114404702D01*
X188590003Y-114463035D01*
X188634206Y-114529189D01*
X188634210Y-114529193D01*
X188700364Y-114573396D01*
X188758697Y-114584999D01*
X188758706Y-114585000D01*
X189153399Y-114585000D01*
X189153400Y-114584999D01*
X189153400Y-114060001D01*
X189403400Y-114060001D01*
X189403400Y-114584999D01*
X189403401Y-114585000D01*
X189798094Y-114585000D01*
X189798102Y-114584999D01*
X189856435Y-114573396D01*
X189922589Y-114529193D01*
X189922593Y-114529189D01*
X189966796Y-114463035D01*
X189978399Y-114404702D01*
X189978400Y-114404694D01*
X189978400Y-114060001D01*
X192678400Y-114060001D01*
X192678400Y-114404702D01*
X192690003Y-114463035D01*
X192734206Y-114529189D01*
X192734210Y-114529193D01*
X192800364Y-114573396D01*
X192858697Y-114584999D01*
X192858706Y-114585000D01*
X193253399Y-114585000D01*
X193253400Y-114584999D01*
X193253400Y-114060001D01*
X193503400Y-114060001D01*
X193503400Y-114584999D01*
X193503401Y-114585000D01*
X193898094Y-114585000D01*
X193898102Y-114584999D01*
X193956435Y-114573396D01*
X194022589Y-114529193D01*
X194022593Y-114529189D01*
X194066796Y-114463035D01*
X194078399Y-114404702D01*
X194078400Y-114404694D01*
X194078400Y-114060001D01*
X194078399Y-114060000D01*
X193503401Y-114060000D01*
X193503400Y-114060001D01*
X193253400Y-114060001D01*
X193253399Y-114060000D01*
X192678401Y-114060000D01*
X192678400Y-114060001D01*
X189978400Y-114060001D01*
X189978399Y-114060000D01*
X189403401Y-114060000D01*
X189403400Y-114060001D01*
X189153400Y-114060001D01*
X189153399Y-114060000D01*
X188578401Y-114060000D01*
X188578400Y-114060001D01*
X188178900Y-114060001D01*
X188178900Y-113465297D01*
X188578400Y-113465297D01*
X188578400Y-113809999D01*
X188578401Y-113810000D01*
X189153399Y-113810000D01*
X189153400Y-113809999D01*
X189153400Y-113285001D01*
X189403400Y-113285001D01*
X189403400Y-113809999D01*
X189403401Y-113810000D01*
X189978399Y-113810000D01*
X189978400Y-113809999D01*
X189978400Y-113465305D01*
X189978399Y-113465297D01*
X192678400Y-113465297D01*
X192678400Y-113809999D01*
X192678401Y-113810000D01*
X193253399Y-113810000D01*
X193253400Y-113809999D01*
X193253400Y-113285001D01*
X193503400Y-113285001D01*
X193503400Y-113809999D01*
X193503401Y-113810000D01*
X194078399Y-113810000D01*
X194078400Y-113809999D01*
X194078400Y-113465305D01*
X194078399Y-113465297D01*
X194066796Y-113406964D01*
X194022593Y-113340810D01*
X194022589Y-113340806D01*
X193956435Y-113296603D01*
X193898102Y-113285000D01*
X193503401Y-113285000D01*
X193503400Y-113285001D01*
X193253400Y-113285001D01*
X193253399Y-113285000D01*
X192858697Y-113285000D01*
X192800364Y-113296603D01*
X192734210Y-113340806D01*
X192734206Y-113340810D01*
X192690003Y-113406964D01*
X192678400Y-113465297D01*
X189978399Y-113465297D01*
X189966796Y-113406964D01*
X189922593Y-113340810D01*
X189922589Y-113340806D01*
X189856435Y-113296603D01*
X189798102Y-113285000D01*
X189403401Y-113285000D01*
X189403400Y-113285001D01*
X189153400Y-113285001D01*
X189153399Y-113285000D01*
X188758697Y-113285000D01*
X188700364Y-113296603D01*
X188634210Y-113340806D01*
X188634206Y-113340810D01*
X188590003Y-113406964D01*
X188578400Y-113465297D01*
X188178900Y-113465297D01*
X188178900Y-111560001D01*
X188578400Y-111560001D01*
X188578400Y-111904702D01*
X188590003Y-111963035D01*
X188634206Y-112029189D01*
X188634210Y-112029193D01*
X188700364Y-112073396D01*
X188758697Y-112084999D01*
X188758706Y-112085000D01*
X189153399Y-112085000D01*
X189153400Y-112084999D01*
X189153400Y-111560001D01*
X189403400Y-111560001D01*
X189403400Y-112084999D01*
X189403401Y-112085000D01*
X189798094Y-112085000D01*
X189798102Y-112084999D01*
X189856435Y-112073396D01*
X189922589Y-112029193D01*
X189922593Y-112029189D01*
X189966796Y-111963035D01*
X189978399Y-111904702D01*
X189978400Y-111904694D01*
X189978400Y-111560001D01*
X192678400Y-111560001D01*
X192678400Y-111904702D01*
X192690003Y-111963035D01*
X192734206Y-112029189D01*
X192734210Y-112029193D01*
X192800364Y-112073396D01*
X192858697Y-112084999D01*
X192858706Y-112085000D01*
X193253399Y-112085000D01*
X193253400Y-112084999D01*
X193253400Y-111560001D01*
X193503400Y-111560001D01*
X193503400Y-112084999D01*
X193503401Y-112085000D01*
X193898094Y-112085000D01*
X193898102Y-112084999D01*
X193956435Y-112073396D01*
X194022589Y-112029193D01*
X194022593Y-112029189D01*
X194066796Y-111963035D01*
X194078399Y-111904702D01*
X194078400Y-111904694D01*
X194078400Y-111560001D01*
X194078399Y-111560000D01*
X193503401Y-111560000D01*
X193503400Y-111560001D01*
X193253400Y-111560001D01*
X193253399Y-111560000D01*
X192678401Y-111560000D01*
X192678400Y-111560001D01*
X189978400Y-111560001D01*
X189978399Y-111560000D01*
X189403401Y-111560000D01*
X189403400Y-111560001D01*
X189153400Y-111560001D01*
X189153399Y-111560000D01*
X188578401Y-111560000D01*
X188578400Y-111560001D01*
X188178900Y-111560001D01*
X188178900Y-110965297D01*
X188578400Y-110965297D01*
X188578400Y-111309999D01*
X188578401Y-111310000D01*
X189153399Y-111310000D01*
X189153400Y-111309999D01*
X189153400Y-110785001D01*
X189403400Y-110785001D01*
X189403400Y-111309999D01*
X189403401Y-111310000D01*
X189978399Y-111310000D01*
X189978400Y-111309999D01*
X189978400Y-110965305D01*
X189978399Y-110965297D01*
X192678400Y-110965297D01*
X192678400Y-111309999D01*
X192678401Y-111310000D01*
X193253399Y-111310000D01*
X193253400Y-111309999D01*
X193253400Y-110785001D01*
X193503400Y-110785001D01*
X193503400Y-111309999D01*
X193503401Y-111310000D01*
X194078399Y-111310000D01*
X194078400Y-111309999D01*
X194078400Y-110965305D01*
X194078399Y-110965297D01*
X194066796Y-110906964D01*
X194022593Y-110840810D01*
X194022589Y-110840806D01*
X193956435Y-110796603D01*
X193898102Y-110785000D01*
X193503401Y-110785000D01*
X193503400Y-110785001D01*
X193253400Y-110785001D01*
X193253399Y-110785000D01*
X192858697Y-110785000D01*
X192800364Y-110796603D01*
X192734210Y-110840806D01*
X192734206Y-110840810D01*
X192690003Y-110906964D01*
X192678400Y-110965297D01*
X189978399Y-110965297D01*
X189966796Y-110906964D01*
X189922593Y-110840810D01*
X189922589Y-110840806D01*
X189856435Y-110796603D01*
X189798102Y-110785000D01*
X189403401Y-110785000D01*
X189403400Y-110785001D01*
X189153400Y-110785001D01*
X189153399Y-110785000D01*
X188758697Y-110785000D01*
X188700364Y-110796603D01*
X188634210Y-110840806D01*
X188634206Y-110840810D01*
X188590003Y-110906964D01*
X188578400Y-110965297D01*
X188178900Y-110965297D01*
X188178900Y-109365247D01*
X188577900Y-109365247D01*
X188577900Y-110304752D01*
X188589532Y-110363231D01*
X188633845Y-110429548D01*
X188633848Y-110429552D01*
X188633851Y-110429554D01*
X188700168Y-110473867D01*
X188739714Y-110481733D01*
X188758652Y-110485500D01*
X188758656Y-110485500D01*
X189798144Y-110485500D01*
X189798148Y-110485500D01*
X189856631Y-110473867D01*
X189922952Y-110429552D01*
X189967267Y-110363231D01*
X189978900Y-110304748D01*
X189978900Y-110226100D01*
X189999722Y-110168892D01*
X190052445Y-110138452D01*
X190067900Y-110137100D01*
X192588900Y-110137100D01*
X192646108Y-110157922D01*
X192676548Y-110210645D01*
X192677900Y-110226100D01*
X192677900Y-110304752D01*
X192689532Y-110363231D01*
X192733845Y-110429548D01*
X192733848Y-110429552D01*
X192733851Y-110429554D01*
X192800168Y-110473867D01*
X192839714Y-110481733D01*
X192858652Y-110485500D01*
X192858656Y-110485500D01*
X193898144Y-110485500D01*
X193898148Y-110485500D01*
X193956631Y-110473867D01*
X193956634Y-110473865D01*
X193989209Y-110452100D01*
X194038655Y-110437100D01*
X195711072Y-110437100D01*
X195768280Y-110457922D01*
X195773993Y-110463156D01*
X195860340Y-110549503D01*
X195860342Y-110549504D01*
X195860344Y-110549506D01*
X195945439Y-110598635D01*
X195978459Y-110617699D01*
X196110204Y-110653000D01*
X196110206Y-110653000D01*
X196246594Y-110653000D01*
X196246596Y-110653000D01*
X196378341Y-110617699D01*
X196496460Y-110549503D01*
X196592903Y-110453060D01*
X196661099Y-110334941D01*
X196696400Y-110203196D01*
X196696400Y-109922121D01*
X196717222Y-109864913D01*
X196769945Y-109834473D01*
X196829900Y-109845045D01*
X196847527Y-109861200D01*
X196848830Y-109859898D01*
X196854334Y-109865402D01*
X196854335Y-109865404D01*
X196937996Y-109949065D01*
X196937997Y-109949065D01*
X196937999Y-109949067D01*
X197045225Y-109999067D01*
X197045227Y-109999068D01*
X197094084Y-110005500D01*
X197094090Y-110005500D01*
X197442710Y-110005500D01*
X197442716Y-110005500D01*
X197491573Y-109999068D01*
X197598804Y-109949065D01*
X197682465Y-109865404D01*
X197697739Y-109832648D01*
X197740787Y-109789602D01*
X197801435Y-109784296D01*
X197850253Y-109817745D01*
X197855385Y-109824767D01*
X197874335Y-109865404D01*
X197914294Y-109905363D01*
X197918353Y-109910916D01*
X197925028Y-109933946D01*
X197935161Y-109955677D01*
X197935500Y-109963434D01*
X197935500Y-110676711D01*
X197935499Y-110676729D01*
X197935499Y-110735883D01*
X197935392Y-110740249D01*
X197922455Y-111003645D01*
X197921599Y-111012337D01*
X197883228Y-111271031D01*
X197881524Y-111279598D01*
X197817982Y-111533281D01*
X197815447Y-111541639D01*
X197727340Y-111787886D01*
X197723997Y-111795955D01*
X197612186Y-112032361D01*
X197608069Y-112040064D01*
X197473619Y-112264381D01*
X197468767Y-112271643D01*
X197312978Y-112481702D01*
X197307437Y-112488454D01*
X197130526Y-112683645D01*
X197127514Y-112686808D01*
X195454842Y-114359482D01*
X195454683Y-114359663D01*
X195382881Y-114431465D01*
X195187941Y-114668998D01*
X195085783Y-114821889D01*
X195017225Y-114924493D01*
X195017223Y-114924497D01*
X194872372Y-115195489D01*
X194872368Y-115195498D01*
X194754783Y-115479369D01*
X194754772Y-115479400D01*
X194665579Y-115773419D01*
X194665576Y-115773430D01*
X194665576Y-115773433D01*
X194654413Y-115829552D01*
X194605624Y-116074815D01*
X194575501Y-116380615D01*
X194575501Y-116420493D01*
X194575500Y-116487797D01*
X194575500Y-116487800D01*
X194575500Y-116500508D01*
X194575500Y-116534255D01*
X194575499Y-116590149D01*
X194575500Y-116590152D01*
X194575500Y-119772890D01*
X194575393Y-119777257D01*
X194560153Y-120087505D01*
X194559297Y-120096197D01*
X194514042Y-120401292D01*
X194512338Y-120409858D01*
X194437398Y-120709042D01*
X194434863Y-120717400D01*
X194330953Y-121007812D01*
X194327610Y-121015881D01*
X194195743Y-121294691D01*
X194191626Y-121302394D01*
X194033057Y-121566952D01*
X194028206Y-121574213D01*
X193991639Y-121623517D01*
X193940839Y-121657063D01*
X193920155Y-121659500D01*
X193594911Y-121659500D01*
X193495276Y-121675279D01*
X193495275Y-121675280D01*
X193375181Y-121736471D01*
X193279871Y-121831781D01*
X193218680Y-121951875D01*
X193218679Y-121951876D01*
X193202900Y-122051511D01*
X193202900Y-122568488D01*
X193218679Y-122668123D01*
X193218680Y-122668124D01*
X193218680Y-122668125D01*
X193218681Y-122668126D01*
X193279872Y-122788220D01*
X193375180Y-122883528D01*
X193495274Y-122944719D01*
X193495275Y-122944719D01*
X193495276Y-122944720D01*
X193594911Y-122960500D01*
X193594912Y-122960500D01*
X194161886Y-122960500D01*
X194161888Y-122960500D01*
X194213689Y-122952295D01*
X194250643Y-122954231D01*
X194317232Y-122972075D01*
X194498948Y-122995999D01*
X194531939Y-122995999D01*
X194539114Y-122995999D01*
X194539117Y-122996000D01*
X194590590Y-122996000D01*
X194646808Y-122996001D01*
X194646811Y-122996000D01*
X194840995Y-122996000D01*
X194859309Y-123002665D01*
X194878722Y-123004392D01*
X194894502Y-123015474D01*
X194898203Y-123016822D01*
X194904016Y-123022157D01*
X194904369Y-123022511D01*
X194930020Y-123077723D01*
X194914180Y-123136505D01*
X194904281Y-123148286D01*
X194825590Y-123226977D01*
X194774919Y-123335642D01*
X194768400Y-123385158D01*
X194768400Y-123439999D01*
X194768401Y-123440000D01*
X195788399Y-123440000D01*
X195788400Y-123439999D01*
X195788400Y-123385166D01*
X195788399Y-123385158D01*
X195781880Y-123335642D01*
X195731210Y-123226979D01*
X195652518Y-123148287D01*
X195642744Y-123127327D01*
X195629484Y-123108389D01*
X195630183Y-123100389D01*
X195626790Y-123093111D01*
X195632774Y-123070774D01*
X195634790Y-123047741D01*
X195641522Y-123038124D01*
X195642546Y-123034306D01*
X195652512Y-123022427D01*
X195652873Y-123022066D01*
X195708048Y-122996339D01*
X195715805Y-122996000D01*
X196040995Y-122996000D01*
X196098203Y-123016822D01*
X196104016Y-123022157D01*
X196104369Y-123022511D01*
X196130020Y-123077723D01*
X196114180Y-123136505D01*
X196104281Y-123148286D01*
X196025590Y-123226977D01*
X195974919Y-123335642D01*
X195968400Y-123385158D01*
X195968400Y-123439999D01*
X195968401Y-123440000D01*
X196988399Y-123440000D01*
X196988400Y-123439999D01*
X196988400Y-123385166D01*
X196988399Y-123385158D01*
X196981880Y-123335642D01*
X196931210Y-123226979D01*
X196852518Y-123148287D01*
X196842744Y-123127327D01*
X196829483Y-123108387D01*
X196830183Y-123100387D01*
X196826790Y-123093111D01*
X196832774Y-123070773D01*
X196834791Y-123047739D01*
X196841522Y-123038125D01*
X196842546Y-123034306D01*
X196852520Y-123022420D01*
X196872875Y-123002066D01*
X196928051Y-122976338D01*
X196935806Y-122976000D01*
X197411053Y-122976000D01*
X197468261Y-122996822D01*
X197498701Y-123049545D01*
X197493278Y-123099059D01*
X197490004Y-123106962D01*
X197478400Y-123165297D01*
X197478400Y-123259999D01*
X197478401Y-123260000D01*
X198678399Y-123260000D01*
X198678400Y-123259999D01*
X198678400Y-123165305D01*
X198678399Y-123165297D01*
X198666796Y-123106964D01*
X198618641Y-123034895D01*
X198604171Y-122975760D01*
X198618642Y-122936002D01*
X198667267Y-122863231D01*
X198678899Y-122804752D01*
X198678900Y-122804748D01*
X198678900Y-122365252D01*
X198667267Y-122306769D01*
X198667267Y-122306768D01*
X198618942Y-122234447D01*
X198604471Y-122175312D01*
X198618942Y-122135553D01*
X198625994Y-122125000D01*
X198667267Y-122063231D01*
X198678900Y-122004748D01*
X198678900Y-121565252D01*
X198667267Y-121506769D01*
X198667266Y-121506768D01*
X198667266Y-121506766D01*
X198618942Y-121434445D01*
X198617500Y-121428552D01*
X198613118Y-121424357D01*
X198610402Y-121399550D01*
X198604471Y-121375311D01*
X198606991Y-121368386D01*
X198606494Y-121363839D01*
X198618945Y-121335548D01*
X198624892Y-121326649D01*
X198673990Y-121290654D01*
X198698889Y-121287100D01*
X198746509Y-121287100D01*
X198746516Y-121287100D01*
X198980727Y-121256266D01*
X198980733Y-121256264D01*
X198980735Y-121256264D01*
X198980744Y-121256262D01*
X199073945Y-121231288D01*
X199208909Y-121195125D01*
X199427159Y-121104723D01*
X199631742Y-120986607D01*
X199819157Y-120842798D01*
X199986198Y-120675757D01*
X200130007Y-120488342D01*
X200248123Y-120283759D01*
X200338525Y-120065509D01*
X200361852Y-119978448D01*
X200396769Y-119928582D01*
X200403303Y-119924418D01*
X200446460Y-119899503D01*
X200542903Y-119803060D01*
X200611099Y-119684941D01*
X200646400Y-119553196D01*
X200646400Y-119416804D01*
X200611099Y-119285059D01*
X200569028Y-119212190D01*
X200542906Y-119166944D01*
X200542904Y-119166942D01*
X200542903Y-119166940D01*
X200498894Y-119122931D01*
X200473167Y-119067757D01*
X200488923Y-119008952D01*
X200498889Y-118997073D01*
X200542903Y-118953060D01*
X200542906Y-118953055D01*
X200611098Y-118834943D01*
X200613331Y-118829552D01*
X200614871Y-118830189D01*
X200645732Y-118786101D01*
X200652280Y-118781927D01*
X200676588Y-118767894D01*
X200804208Y-118660808D01*
X200911294Y-118533188D01*
X200994592Y-118388912D01*
X201051571Y-118232363D01*
X201080500Y-118068298D01*
X201080500Y-117985000D01*
X201080500Y-117937152D01*
X201080500Y-117342002D01*
X201081596Y-117328080D01*
X201082781Y-117320600D01*
X201092875Y-117256863D01*
X201101479Y-117230385D01*
X201130993Y-117172461D01*
X201147356Y-117149936D01*
X201193336Y-117103956D01*
X201215859Y-117087593D01*
X201273786Y-117058078D01*
X201300263Y-117049475D01*
X201371480Y-117038195D01*
X201385402Y-117037100D01*
X206653706Y-117037100D01*
X206653713Y-117037100D01*
X206870433Y-117005941D01*
X206901781Y-117001434D01*
X206901781Y-117001433D01*
X206901787Y-117001433D01*
X207142260Y-116930823D01*
X207353282Y-116834453D01*
X207370233Y-116826712D01*
X207370233Y-116826711D01*
X207370237Y-116826710D01*
X207581077Y-116691212D01*
X207770487Y-116527087D01*
X207934612Y-116337677D01*
X208070110Y-116126837D01*
X208159622Y-115930830D01*
X208201078Y-115888049D01*
X208211645Y-115882815D01*
X208256631Y-115873867D01*
X208322952Y-115829552D01*
X208324815Y-115826763D01*
X208338899Y-115819788D01*
X208363778Y-115817019D01*
X208388088Y-115811071D01*
X208394914Y-115813555D01*
X208399405Y-115813056D01*
X208406477Y-115817764D01*
X208427847Y-115825542D01*
X208500168Y-115873867D01*
X208557090Y-115885189D01*
X208558652Y-115885500D01*
X208558656Y-115885500D01*
X208998144Y-115885500D01*
X208998148Y-115885500D01*
X209056631Y-115873867D01*
X209122952Y-115829552D01*
X209167267Y-115763231D01*
X209178900Y-115704748D01*
X209178900Y-115021656D01*
X209185545Y-115003396D01*
X209187239Y-114984043D01*
X209198383Y-114968126D01*
X209199722Y-114964448D01*
X209204967Y-114958723D01*
X209226467Y-114937223D01*
X209281643Y-114911495D01*
X209340448Y-114927251D01*
X209375367Y-114977121D01*
X209378400Y-115000156D01*
X209378400Y-115109999D01*
X209378401Y-115110000D01*
X209839400Y-115110000D01*
X209861129Y-115117908D01*
X209883900Y-115121924D01*
X209889061Y-115128075D01*
X209896608Y-115130822D01*
X209908169Y-115150846D01*
X209923033Y-115168560D01*
X209925071Y-115180121D01*
X209927048Y-115183545D01*
X209928400Y-115199000D01*
X209928400Y-115271000D01*
X209907578Y-115328208D01*
X209854855Y-115358648D01*
X209839400Y-115360000D01*
X209378401Y-115360000D01*
X209378400Y-115360001D01*
X209378400Y-115604702D01*
X209390003Y-115663035D01*
X209405178Y-115685745D01*
X209419648Y-115744880D01*
X209392722Y-115799481D01*
X209380625Y-115809190D01*
X209333852Y-115840444D01*
X209333845Y-115840451D01*
X209289532Y-115906768D01*
X209277900Y-115965247D01*
X209277900Y-116404752D01*
X209289532Y-116463231D01*
X209337858Y-116535554D01*
X209352328Y-116594689D01*
X209337858Y-116634446D01*
X209289532Y-116706768D01*
X209277900Y-116765247D01*
X209277900Y-117204752D01*
X209289532Y-117263231D01*
X209337858Y-117335554D01*
X209352328Y-117394689D01*
X209337858Y-117434446D01*
X209289532Y-117506768D01*
X209277900Y-117565247D01*
X209277900Y-118004752D01*
X209289532Y-118063231D01*
X209337858Y-118135554D01*
X209352328Y-118194689D01*
X209337858Y-118234446D01*
X209289532Y-118306768D01*
X209277900Y-118365247D01*
X209277900Y-118804752D01*
X209289532Y-118863231D01*
X209337858Y-118935554D01*
X209352328Y-118994689D01*
X209337858Y-119034446D01*
X209289532Y-119106768D01*
X209277900Y-119165247D01*
X209277900Y-119604752D01*
X209289532Y-119663231D01*
X209337858Y-119735554D01*
X209339299Y-119741445D01*
X209343680Y-119745639D01*
X209346396Y-119770447D01*
X209352328Y-119794689D01*
X209349808Y-119801611D01*
X209350306Y-119806157D01*
X209337856Y-119834448D01*
X209329735Y-119846601D01*
X209280638Y-119882598D01*
X209271191Y-119884801D01*
X209092066Y-119916387D01*
X208910851Y-119982343D01*
X208743846Y-120078764D01*
X208596127Y-120202715D01*
X208596115Y-120202727D01*
X208472164Y-120350446D01*
X208375743Y-120517451D01*
X208309787Y-120698666D01*
X208276300Y-120888575D01*
X208276300Y-121117672D01*
X208255478Y-121174880D01*
X208250243Y-121180593D01*
X208174575Y-121256262D01*
X208163893Y-121266944D01*
X208095702Y-121385056D01*
X208095700Y-121385060D01*
X208075319Y-121461123D01*
X208060400Y-121516804D01*
X208060400Y-121653196D01*
X208066318Y-121675281D01*
X208095700Y-121784939D01*
X208095702Y-121784943D01*
X208163893Y-121903055D01*
X208163895Y-121903057D01*
X208163897Y-121903060D01*
X208260340Y-121999503D01*
X208260342Y-121999504D01*
X208260344Y-121999506D01*
X208317544Y-122032530D01*
X208378459Y-122067699D01*
X208510204Y-122103000D01*
X208510206Y-122103000D01*
X208646594Y-122103000D01*
X208646596Y-122103000D01*
X208778341Y-122067699D01*
X208882500Y-122007562D01*
X208896455Y-121999506D01*
X208896455Y-121999505D01*
X208896460Y-121999503D01*
X208992903Y-121903060D01*
X209061099Y-121784941D01*
X209096400Y-121653196D01*
X209096400Y-121592000D01*
X209104308Y-121570270D01*
X209108324Y-121547500D01*
X209114475Y-121542338D01*
X209117222Y-121534792D01*
X209137246Y-121523230D01*
X209154960Y-121508367D01*
X209166521Y-121506328D01*
X209169945Y-121504352D01*
X209185400Y-121503000D01*
X209188900Y-121503000D01*
X209246108Y-121523822D01*
X209276548Y-121576545D01*
X209277900Y-121592000D01*
X209277900Y-122004752D01*
X209289532Y-122063231D01*
X209337858Y-122135554D01*
X209352328Y-122194689D01*
X209337858Y-122234446D01*
X209289532Y-122306768D01*
X209277900Y-122365247D01*
X209277900Y-122804752D01*
X209289532Y-122863231D01*
X209337858Y-122935554D01*
X209352328Y-122994689D01*
X209337858Y-123034446D01*
X209289532Y-123106768D01*
X209277900Y-123165247D01*
X209277900Y-123604752D01*
X209289532Y-123663231D01*
X209337858Y-123735554D01*
X209352328Y-123794689D01*
X209337858Y-123834446D01*
X209289532Y-123906768D01*
X209277900Y-123965247D01*
X209277900Y-124404752D01*
X209289532Y-124463231D01*
X209333845Y-124529548D01*
X209333848Y-124529552D01*
X209333851Y-124529554D01*
X209380624Y-124560808D01*
X209416622Y-124609905D01*
X209412639Y-124670654D01*
X209405179Y-124684253D01*
X209390003Y-124706965D01*
X209378400Y-124765297D01*
X209378400Y-125009999D01*
X209378401Y-125010000D01*
X210478399Y-125010000D01*
X210478400Y-125009999D01*
X210478400Y-124765305D01*
X210478399Y-124765297D01*
X210466796Y-124706964D01*
X210418641Y-124634895D01*
X210404171Y-124575760D01*
X210418642Y-124536002D01*
X210423195Y-124529189D01*
X210467267Y-124463231D01*
X210478900Y-124404748D01*
X210478900Y-123965252D01*
X210467267Y-123906769D01*
X210467267Y-123906768D01*
X210418942Y-123834447D01*
X210404471Y-123775312D01*
X210418942Y-123735553D01*
X210449380Y-123690001D01*
X210467267Y-123663231D01*
X210478900Y-123604748D01*
X210478900Y-123165252D01*
X210478589Y-123163690D01*
X210467267Y-123106768D01*
X210418942Y-123034447D01*
X210404471Y-122975312D01*
X210418942Y-122935553D01*
X210467267Y-122863231D01*
X210478899Y-122804752D01*
X210478900Y-122804748D01*
X210478900Y-122365252D01*
X210467267Y-122306769D01*
X210467267Y-122306768D01*
X210418942Y-122234447D01*
X210404471Y-122175312D01*
X210418942Y-122135553D01*
X210425994Y-122125000D01*
X210467267Y-122063231D01*
X210478900Y-122004748D01*
X210478900Y-121565252D01*
X210470541Y-121523230D01*
X210467267Y-121506768D01*
X210418942Y-121434447D01*
X210404471Y-121375312D01*
X210418942Y-121335553D01*
X210428878Y-121320684D01*
X210467267Y-121263231D01*
X210478900Y-121204748D01*
X210478900Y-120765252D01*
X210467267Y-120706769D01*
X210467267Y-120706768D01*
X210429834Y-120650747D01*
X210422952Y-120640448D01*
X210422951Y-120640447D01*
X210418942Y-120634447D01*
X210404471Y-120575312D01*
X210418942Y-120535553D01*
X210467267Y-120463231D01*
X210474803Y-120425345D01*
X210478900Y-120404748D01*
X210478900Y-119965252D01*
X210467267Y-119906769D01*
X210467267Y-119906768D01*
X210461555Y-119898220D01*
X210459299Y-119889001D01*
X210452963Y-119881934D01*
X210452251Y-119860201D01*
X210447084Y-119839085D01*
X210451281Y-119830572D01*
X210450971Y-119821087D01*
X210464393Y-119803983D01*
X210474009Y-119784484D01*
X210482695Y-119780661D01*
X210488556Y-119773194D01*
X210509836Y-119768719D01*
X210529733Y-119759964D01*
X210540457Y-119762280D01*
X210548133Y-119760666D01*
X210577508Y-119770282D01*
X210634193Y-119800580D01*
X210648699Y-119810271D01*
X210692968Y-119846601D01*
X210744221Y-119888662D01*
X210750694Y-119894528D01*
X214007198Y-123151032D01*
X214032926Y-123206208D01*
X214026490Y-123248024D01*
X213968270Y-123388580D01*
X213968269Y-123388582D01*
X213927900Y-123591530D01*
X213927900Y-123798469D01*
X213968269Y-124001417D01*
X213968270Y-124001420D01*
X214047459Y-124192598D01*
X214047462Y-124192602D01*
X214162419Y-124364650D01*
X214162420Y-124364651D01*
X214162423Y-124364655D01*
X214308745Y-124510977D01*
X214308748Y-124510979D01*
X214308749Y-124510980D01*
X214359753Y-124545059D01*
X214480802Y-124625941D01*
X214671980Y-124705130D01*
X214874935Y-124745500D01*
X214874939Y-124745500D01*
X215081861Y-124745500D01*
X215081865Y-124745500D01*
X215284820Y-124705130D01*
X215475998Y-124625941D01*
X215648055Y-124510977D01*
X215794377Y-124364655D01*
X215909341Y-124192598D01*
X215988530Y-124001420D01*
X216028900Y-123798465D01*
X216028900Y-123591535D01*
X215988530Y-123388580D01*
X215909341Y-123197402D01*
X215829375Y-123077723D01*
X215794380Y-123025349D01*
X215794379Y-123025348D01*
X215794377Y-123025345D01*
X215658063Y-122889031D01*
X215646742Y-122864752D01*
X215633349Y-122841555D01*
X215634055Y-122837545D01*
X215632336Y-122833857D01*
X215639269Y-122807980D01*
X215643921Y-122781600D01*
X215647038Y-122778984D01*
X215648092Y-122775052D01*
X215670033Y-122759688D01*
X215690557Y-122742467D01*
X215695998Y-122741507D01*
X215697962Y-122740133D01*
X215720997Y-122737100D01*
X215796339Y-122737100D01*
X215796342Y-122737101D01*
X215839814Y-122737100D01*
X215848535Y-122737527D01*
X215971623Y-122749649D01*
X215988735Y-122753053D01*
X216102881Y-122787677D01*
X216118997Y-122794353D01*
X216224193Y-122850580D01*
X216238699Y-122860271D01*
X216330434Y-122935554D01*
X216334221Y-122938662D01*
X216340694Y-122944528D01*
X216547198Y-123151032D01*
X216572926Y-123206208D01*
X216566490Y-123248024D01*
X216508270Y-123388580D01*
X216508269Y-123388582D01*
X216467900Y-123591530D01*
X216467900Y-123798469D01*
X216508269Y-124001417D01*
X216508270Y-124001420D01*
X216587459Y-124192598D01*
X216587462Y-124192602D01*
X216702419Y-124364650D01*
X216702420Y-124364651D01*
X216702423Y-124364655D01*
X216848745Y-124510977D01*
X216848748Y-124510979D01*
X216848749Y-124510980D01*
X216899753Y-124545059D01*
X217020802Y-124625941D01*
X217211980Y-124705130D01*
X217414935Y-124745500D01*
X217414939Y-124745500D01*
X217621861Y-124745500D01*
X217621865Y-124745500D01*
X217824820Y-124705130D01*
X218015998Y-124625941D01*
X218188055Y-124510977D01*
X218334377Y-124364655D01*
X218449341Y-124192598D01*
X218528530Y-124001420D01*
X218568900Y-123798465D01*
X218568900Y-123591535D01*
X218528530Y-123388580D01*
X218449341Y-123197402D01*
X218369375Y-123077723D01*
X218334380Y-123025349D01*
X218334379Y-123025348D01*
X218334377Y-123025345D01*
X218188055Y-122879023D01*
X218188051Y-122879020D01*
X218188050Y-122879019D01*
X218052155Y-122788218D01*
X218015998Y-122764059D01*
X218015995Y-122764058D01*
X218015994Y-122764057D01*
X217918800Y-122723798D01*
X217824820Y-122684870D01*
X217824818Y-122684869D01*
X217824817Y-122684869D01*
X217621869Y-122644500D01*
X217621865Y-122644500D01*
X217414935Y-122644500D01*
X217414930Y-122644500D01*
X217211982Y-122684869D01*
X217211980Y-122684870D01*
X217071424Y-122743090D01*
X217010602Y-122745746D01*
X216974432Y-122723798D01*
X216798743Y-122548109D01*
X216798742Y-122548107D01*
X216790981Y-122540346D01*
X216790968Y-122540319D01*
X216692450Y-122441804D01*
X216692449Y-122441803D01*
X216587075Y-122365247D01*
X216526637Y-122321337D01*
X216526634Y-122321335D01*
X216526632Y-122321334D01*
X216344018Y-122228290D01*
X216149095Y-122164958D01*
X215946661Y-122132899D01*
X215946660Y-122132899D01*
X215844182Y-122132900D01*
X215699114Y-122132900D01*
X215641906Y-122112078D01*
X215611466Y-122059355D01*
X215622038Y-121999400D01*
X215645321Y-121974540D01*
X215644674Y-121973752D01*
X215648048Y-121970982D01*
X215648048Y-121970981D01*
X215648055Y-121970977D01*
X215794377Y-121824655D01*
X215909341Y-121652598D01*
X215988530Y-121461420D01*
X216028900Y-121258465D01*
X216028900Y-121051535D01*
X215988530Y-120848580D01*
X215909341Y-120657402D01*
X215815831Y-120517453D01*
X215794380Y-120485349D01*
X215794379Y-120485348D01*
X215794377Y-120485345D01*
X215648063Y-120339031D01*
X215636742Y-120314752D01*
X215623349Y-120291555D01*
X215624055Y-120287545D01*
X215622336Y-120283857D01*
X215629269Y-120257980D01*
X215633921Y-120231600D01*
X215637038Y-120228984D01*
X215638092Y-120225052D01*
X215660033Y-120209688D01*
X215680557Y-120192467D01*
X215685998Y-120191507D01*
X215687962Y-120190133D01*
X215710997Y-120187100D01*
X215786339Y-120187100D01*
X215786342Y-120187101D01*
X215829814Y-120187100D01*
X215838535Y-120187527D01*
X215961623Y-120199649D01*
X215978735Y-120203053D01*
X216092881Y-120237677D01*
X216108997Y-120244353D01*
X216214193Y-120300580D01*
X216228699Y-120310271D01*
X216249866Y-120327642D01*
X216324221Y-120388662D01*
X216330694Y-120394528D01*
X216547198Y-120611032D01*
X216572926Y-120666208D01*
X216566490Y-120708024D01*
X216508270Y-120848580D01*
X216508269Y-120848582D01*
X216467900Y-121051530D01*
X216467900Y-121258469D01*
X216504098Y-121440448D01*
X216508270Y-121461420D01*
X216527716Y-121508367D01*
X216563641Y-121595098D01*
X216587459Y-121652598D01*
X216592071Y-121659500D01*
X216702419Y-121824650D01*
X216702420Y-121824651D01*
X216702423Y-121824655D01*
X216848745Y-121970977D01*
X217020802Y-122085941D01*
X217211980Y-122165130D01*
X217414935Y-122205500D01*
X217414939Y-122205500D01*
X217621861Y-122205500D01*
X217621865Y-122205500D01*
X217824820Y-122165130D01*
X218015998Y-122085941D01*
X218188055Y-121970977D01*
X218334377Y-121824655D01*
X218449341Y-121652598D01*
X218528530Y-121461420D01*
X218568900Y-121258465D01*
X218568900Y-121051535D01*
X218528530Y-120848580D01*
X218449341Y-120657402D01*
X218355831Y-120517453D01*
X218334380Y-120485349D01*
X218334379Y-120485348D01*
X218334377Y-120485345D01*
X218188055Y-120339023D01*
X218188051Y-120339020D01*
X218188050Y-120339019D01*
X218046370Y-120244353D01*
X218015998Y-120224059D01*
X218015995Y-120224058D01*
X218015994Y-120224057D01*
X217906077Y-120178528D01*
X217824820Y-120144870D01*
X217824818Y-120144869D01*
X217824817Y-120144869D01*
X217621869Y-120104500D01*
X217621865Y-120104500D01*
X217414935Y-120104500D01*
X217414930Y-120104500D01*
X217211982Y-120144869D01*
X217211980Y-120144870D01*
X217071424Y-120203090D01*
X217010602Y-120205746D01*
X216974432Y-120183798D01*
X216788743Y-119998109D01*
X216788742Y-119998107D01*
X216780981Y-119990346D01*
X216780968Y-119990319D01*
X216682450Y-119891804D01*
X216682449Y-119891803D01*
X216598169Y-119830572D01*
X216516637Y-119771337D01*
X216516634Y-119771335D01*
X216516632Y-119771334D01*
X216334018Y-119678290D01*
X216139095Y-119614958D01*
X215936661Y-119582899D01*
X215936660Y-119582899D01*
X215834182Y-119582900D01*
X215710997Y-119582900D01*
X215653789Y-119562078D01*
X215623349Y-119509355D01*
X215633921Y-119449400D01*
X215648060Y-119430971D01*
X215794377Y-119284655D01*
X215909341Y-119112598D01*
X215988530Y-118921420D01*
X216028900Y-118718465D01*
X216028900Y-118511535D01*
X215988530Y-118308580D01*
X215909341Y-118117402D01*
X215832523Y-118002435D01*
X215794380Y-117945349D01*
X215794379Y-117945348D01*
X215794377Y-117945345D01*
X215648055Y-117799023D01*
X215648051Y-117799020D01*
X215648048Y-117799017D01*
X215644674Y-117796248D01*
X215645282Y-117795506D01*
X215641906Y-117794278D01*
X215628968Y-117771869D01*
X215613670Y-117751006D01*
X215614001Y-117745946D01*
X215611466Y-117741555D01*
X215615959Y-117716073D01*
X215617651Y-117690257D01*
X215621157Y-117686594D01*
X215622038Y-117681600D01*
X215641859Y-117664967D01*
X215659749Y-117646279D01*
X215665817Y-117644863D01*
X215668674Y-117642467D01*
X215699114Y-117637100D01*
X215776339Y-117637100D01*
X215776342Y-117637101D01*
X215819814Y-117637100D01*
X215828535Y-117637527D01*
X215951623Y-117649649D01*
X215968735Y-117653053D01*
X216082881Y-117687677D01*
X216098997Y-117694353D01*
X216204193Y-117750580D01*
X216218699Y-117760271D01*
X216265919Y-117799023D01*
X216314221Y-117838662D01*
X216320694Y-117844528D01*
X216547198Y-118071032D01*
X216572926Y-118126208D01*
X216566490Y-118168024D01*
X216508270Y-118308580D01*
X216508269Y-118308582D01*
X216467900Y-118511530D01*
X216467900Y-118718469D01*
X216508269Y-118921417D01*
X216508270Y-118921420D01*
X216530593Y-118975312D01*
X216585044Y-119106769D01*
X216587459Y-119112598D01*
X216602202Y-119134662D01*
X216702419Y-119284650D01*
X216702420Y-119284651D01*
X216702423Y-119284655D01*
X216848745Y-119430977D01*
X217020802Y-119545941D01*
X217211980Y-119625130D01*
X217414935Y-119665500D01*
X217414939Y-119665500D01*
X217621861Y-119665500D01*
X217621865Y-119665500D01*
X217824820Y-119625130D01*
X218015998Y-119545941D01*
X218188055Y-119430977D01*
X218334377Y-119284655D01*
X218449341Y-119112598D01*
X218528530Y-118921420D01*
X218568900Y-118718465D01*
X218568900Y-118511535D01*
X218528530Y-118308580D01*
X218449341Y-118117402D01*
X218372523Y-118002435D01*
X218334380Y-117945349D01*
X218334379Y-117945348D01*
X218334377Y-117945345D01*
X218188055Y-117799023D01*
X218188051Y-117799020D01*
X218188050Y-117799019D01*
X218021411Y-117687676D01*
X218015998Y-117684059D01*
X218015995Y-117684058D01*
X218015994Y-117684057D01*
X217902632Y-117637101D01*
X217824820Y-117604870D01*
X217824818Y-117604869D01*
X217824817Y-117604869D01*
X217621869Y-117564500D01*
X217621865Y-117564500D01*
X217414935Y-117564500D01*
X217414930Y-117564500D01*
X217211982Y-117604869D01*
X217211980Y-117604870D01*
X217071424Y-117663090D01*
X217010602Y-117665746D01*
X216974432Y-117643798D01*
X216778743Y-117448109D01*
X216778742Y-117448107D01*
X216770981Y-117440346D01*
X216770968Y-117440319D01*
X216672450Y-117341804D01*
X216672449Y-117341803D01*
X216595562Y-117285943D01*
X216506637Y-117221337D01*
X216506634Y-117221335D01*
X216506632Y-117221334D01*
X216324018Y-117128290D01*
X216129095Y-117064958D01*
X215926661Y-117032899D01*
X215926660Y-117032899D01*
X215824182Y-117032900D01*
X215720997Y-117032900D01*
X215663789Y-117012078D01*
X215633349Y-116959355D01*
X215643921Y-116899400D01*
X215658060Y-116880971D01*
X215794377Y-116744655D01*
X215909341Y-116572598D01*
X215988530Y-116381420D01*
X216028900Y-116178465D01*
X216028900Y-115971535D01*
X216028899Y-115971530D01*
X216467900Y-115971530D01*
X216467900Y-116178469D01*
X216508269Y-116381417D01*
X216508270Y-116381420D01*
X216545638Y-116471633D01*
X216572615Y-116536763D01*
X216587459Y-116572598D01*
X216614566Y-116613167D01*
X216702419Y-116744650D01*
X216702420Y-116744651D01*
X216702423Y-116744655D01*
X216848745Y-116890977D01*
X216848748Y-116890979D01*
X216848749Y-116890980D01*
X216878785Y-116911049D01*
X217020802Y-117005941D01*
X217211980Y-117085130D01*
X217414935Y-117125500D01*
X217414939Y-117125500D01*
X217621861Y-117125500D01*
X217621865Y-117125500D01*
X217824820Y-117085130D01*
X218015998Y-117005941D01*
X218188055Y-116890977D01*
X218334377Y-116744655D01*
X218449341Y-116572598D01*
X218528530Y-116381420D01*
X218568900Y-116178465D01*
X218568900Y-115971535D01*
X218528530Y-115768580D01*
X218449341Y-115577402D01*
X218371269Y-115460558D01*
X218334380Y-115405349D01*
X218334379Y-115405348D01*
X218334377Y-115405345D01*
X218188055Y-115259023D01*
X218188051Y-115259020D01*
X218188050Y-115259019D01*
X218069969Y-115180121D01*
X218015998Y-115144059D01*
X218015995Y-115144058D01*
X218015994Y-115144057D01*
X217929377Y-115108179D01*
X217824820Y-115064870D01*
X217824818Y-115064869D01*
X217824817Y-115064869D01*
X217621869Y-115024500D01*
X217621865Y-115024500D01*
X217414935Y-115024500D01*
X217414930Y-115024500D01*
X217211982Y-115064869D01*
X217211980Y-115064870D01*
X217020805Y-115144057D01*
X217020797Y-115144062D01*
X216848749Y-115259019D01*
X216702419Y-115405349D01*
X216587462Y-115577397D01*
X216587457Y-115577405D01*
X216508270Y-115768580D01*
X216508269Y-115768582D01*
X216467900Y-115971530D01*
X216028899Y-115971530D01*
X215988530Y-115768580D01*
X215909341Y-115577402D01*
X215831269Y-115460558D01*
X215794380Y-115405349D01*
X215794379Y-115405348D01*
X215794377Y-115405345D01*
X215648055Y-115259023D01*
X215648051Y-115259020D01*
X215648050Y-115259019D01*
X215529969Y-115180121D01*
X215475998Y-115144059D01*
X215475995Y-115144058D01*
X215475994Y-115144057D01*
X215389377Y-115108179D01*
X215284820Y-115064870D01*
X215284818Y-115064869D01*
X215284817Y-115064869D01*
X215081869Y-115024500D01*
X215081865Y-115024500D01*
X214874935Y-115024500D01*
X214874930Y-115024500D01*
X214671982Y-115064869D01*
X214671980Y-115064870D01*
X214480805Y-115144057D01*
X214480797Y-115144062D01*
X214308749Y-115259019D01*
X214162419Y-115405349D01*
X214047462Y-115577397D01*
X214047457Y-115577405D01*
X213968270Y-115768580D01*
X213968269Y-115768582D01*
X213927900Y-115971530D01*
X213927900Y-116178469D01*
X213968269Y-116381417D01*
X213968270Y-116381420D01*
X214005638Y-116471633D01*
X214032615Y-116536763D01*
X214047459Y-116572598D01*
X214074566Y-116613167D01*
X214162419Y-116744650D01*
X214162420Y-116744651D01*
X214162423Y-116744655D01*
X214298736Y-116880968D01*
X214324464Y-116936143D01*
X214308708Y-116994948D01*
X214258838Y-117029867D01*
X214235803Y-117032900D01*
X212647635Y-117032900D01*
X212640460Y-117032899D01*
X212640458Y-117032899D01*
X212619339Y-117032899D01*
X212596982Y-117032899D01*
X212596981Y-117032898D01*
X212588262Y-117032471D01*
X212465176Y-117020350D01*
X212448064Y-117016946D01*
X212333921Y-116982323D01*
X212317802Y-116975646D01*
X212212606Y-116919419D01*
X212198099Y-116909727D01*
X212102577Y-116831336D01*
X212096104Y-116825470D01*
X211187994Y-115917360D01*
X211182129Y-115910887D01*
X211103682Y-115815298D01*
X211093990Y-115800793D01*
X211093289Y-115799481D01*
X211037760Y-115695588D01*
X211031088Y-115679480D01*
X210996460Y-115565325D01*
X210993059Y-115548227D01*
X210980927Y-115425031D01*
X210980500Y-115416316D01*
X210980500Y-115405345D01*
X210980501Y-115372942D01*
X210980500Y-115372938D01*
X210980500Y-114895228D01*
X210980500Y-114860925D01*
X210951597Y-114715621D01*
X210894902Y-114578747D01*
X210812594Y-114455564D01*
X210707836Y-114350806D01*
X210584653Y-114268498D01*
X210584650Y-114268496D01*
X210584649Y-114268496D01*
X210522635Y-114242809D01*
X210447779Y-114211803D01*
X210447777Y-114211802D01*
X210447776Y-114211802D01*
X210302479Y-114182900D01*
X210302475Y-114182900D01*
X210268172Y-114182900D01*
X209626248Y-114182900D01*
X209578400Y-114182900D01*
X209481979Y-114182900D01*
X209481975Y-114182900D01*
X209292066Y-114216387D01*
X209110851Y-114282343D01*
X208943846Y-114378764D01*
X208796127Y-114502715D01*
X208796115Y-114502727D01*
X208670266Y-114652708D01*
X208617542Y-114683148D01*
X208602088Y-114684500D01*
X208558647Y-114684500D01*
X208500168Y-114696132D01*
X208427846Y-114744458D01*
X208368711Y-114758928D01*
X208328954Y-114744458D01*
X208256631Y-114696132D01*
X208198152Y-114684500D01*
X208198148Y-114684500D01*
X207758652Y-114684500D01*
X207758647Y-114684500D01*
X207700168Y-114696132D01*
X207627846Y-114744458D01*
X207568711Y-114758928D01*
X207528954Y-114744458D01*
X207456631Y-114696132D01*
X207398152Y-114684500D01*
X207398148Y-114684500D01*
X206958652Y-114684500D01*
X206958647Y-114684500D01*
X206900168Y-114696132D01*
X206827846Y-114744458D01*
X206768711Y-114758928D01*
X206728954Y-114744458D01*
X206656631Y-114696132D01*
X206598152Y-114684500D01*
X206598148Y-114684500D01*
X206185400Y-114684500D01*
X206128192Y-114663678D01*
X206097752Y-114610955D01*
X206096400Y-114595500D01*
X206096400Y-114591806D01*
X206096400Y-114591804D01*
X206061099Y-114460059D01*
X206016648Y-114383067D01*
X205992906Y-114341944D01*
X205992904Y-114341942D01*
X205992903Y-114341940D01*
X205896460Y-114245497D01*
X205896457Y-114245495D01*
X205896455Y-114245493D01*
X205778343Y-114177302D01*
X205778339Y-114177300D01*
X205712101Y-114159552D01*
X205646596Y-114142000D01*
X205510204Y-114142000D01*
X205468420Y-114153196D01*
X205378460Y-114177300D01*
X205378456Y-114177302D01*
X205260342Y-114245494D01*
X205241331Y-114264505D01*
X205186155Y-114290232D01*
X205127350Y-114274474D01*
X205115469Y-114264505D01*
X205096459Y-114245496D01*
X205096457Y-114245494D01*
X204978343Y-114177302D01*
X204978339Y-114177300D01*
X204912101Y-114159552D01*
X204846596Y-114142000D01*
X204710204Y-114142000D01*
X204668420Y-114153196D01*
X204578460Y-114177300D01*
X204578456Y-114177302D01*
X204460344Y-114245493D01*
X204363893Y-114341944D01*
X204295702Y-114460056D01*
X204295700Y-114460060D01*
X204281131Y-114514435D01*
X204260400Y-114591804D01*
X204260400Y-114591806D01*
X204260400Y-114595500D01*
X204252491Y-114617229D01*
X204248476Y-114640000D01*
X204242324Y-114645161D01*
X204239578Y-114652708D01*
X204219553Y-114664269D01*
X204201840Y-114679133D01*
X204190278Y-114681171D01*
X204186855Y-114683148D01*
X204171400Y-114684500D01*
X204153615Y-114684500D01*
X204096407Y-114663678D01*
X204065967Y-114610955D01*
X204066325Y-114578139D01*
X204068477Y-114567319D01*
X204071490Y-114556073D01*
X204140200Y-114353651D01*
X204144644Y-114342921D01*
X204239195Y-114151184D01*
X204245004Y-114141124D01*
X204363771Y-113963373D01*
X204370841Y-113954158D01*
X204513529Y-113791450D01*
X204517465Y-113787246D01*
X205639414Y-112665297D01*
X213928400Y-112665297D01*
X213928400Y-113409999D01*
X213928401Y-113410000D01*
X214494256Y-113410000D01*
X214478400Y-113469174D01*
X214478400Y-113600826D01*
X214494256Y-113660000D01*
X213928401Y-113660000D01*
X213928400Y-113660001D01*
X213928400Y-114404702D01*
X213940003Y-114463035D01*
X213984206Y-114529189D01*
X213984210Y-114529193D01*
X214050364Y-114573396D01*
X214108697Y-114584999D01*
X214108706Y-114585000D01*
X214853399Y-114585000D01*
X214853400Y-114584999D01*
X214853400Y-114019144D01*
X214912574Y-114035000D01*
X215044226Y-114035000D01*
X215103400Y-114019144D01*
X215103400Y-114584999D01*
X215103401Y-114585000D01*
X215848094Y-114585000D01*
X215848102Y-114584999D01*
X215906435Y-114573396D01*
X215972589Y-114529193D01*
X215972593Y-114529189D01*
X216016796Y-114463035D01*
X216028399Y-114404702D01*
X216028400Y-114404694D01*
X216028400Y-113660001D01*
X216028399Y-113660000D01*
X215462544Y-113660000D01*
X215478400Y-113600826D01*
X215478400Y-113469174D01*
X215468313Y-113431530D01*
X216467900Y-113431530D01*
X216467900Y-113638469D01*
X216508269Y-113841417D01*
X216508270Y-113841420D01*
X216531023Y-113896351D01*
X216580917Y-114016806D01*
X216587459Y-114032598D01*
X216601091Y-114053000D01*
X216702419Y-114204650D01*
X216702420Y-114204651D01*
X216702423Y-114204655D01*
X216848745Y-114350977D01*
X216848748Y-114350979D01*
X216848749Y-114350980D01*
X216872625Y-114366933D01*
X217020802Y-114465941D01*
X217211980Y-114545130D01*
X217414935Y-114585500D01*
X217414939Y-114585500D01*
X217621861Y-114585500D01*
X217621865Y-114585500D01*
X217824820Y-114545130D01*
X218015998Y-114465941D01*
X218188055Y-114350977D01*
X218334377Y-114204655D01*
X218449341Y-114032598D01*
X218528530Y-113841420D01*
X218568900Y-113638465D01*
X218568900Y-113431535D01*
X218528530Y-113228580D01*
X218449341Y-113037402D01*
X218334377Y-112865345D01*
X218188055Y-112719023D01*
X218188051Y-112719020D01*
X218188050Y-112719019D01*
X218073088Y-112642205D01*
X218015998Y-112604059D01*
X218015995Y-112604058D01*
X218015994Y-112604057D01*
X217863302Y-112540810D01*
X217824820Y-112524870D01*
X217824818Y-112524869D01*
X217824817Y-112524869D01*
X217621869Y-112484500D01*
X217621865Y-112484500D01*
X217414935Y-112484500D01*
X217414930Y-112484500D01*
X217211982Y-112524869D01*
X217211980Y-112524870D01*
X217020805Y-112604057D01*
X217020797Y-112604062D01*
X216848749Y-112719019D01*
X216702419Y-112865349D01*
X216587462Y-113037397D01*
X216587457Y-113037405D01*
X216508270Y-113228580D01*
X216508269Y-113228582D01*
X216467900Y-113431530D01*
X215468313Y-113431530D01*
X215462544Y-113410000D01*
X216028399Y-113410000D01*
X216028400Y-113409999D01*
X216028400Y-112665305D01*
X216028399Y-112665297D01*
X216016796Y-112606964D01*
X215972593Y-112540810D01*
X215972589Y-112540806D01*
X215906435Y-112496603D01*
X215848102Y-112485000D01*
X215103401Y-112485000D01*
X215103400Y-112485001D01*
X215103400Y-113050855D01*
X215044226Y-113035000D01*
X214912574Y-113035000D01*
X214853400Y-113050855D01*
X214853400Y-112485001D01*
X214853399Y-112485000D01*
X214108697Y-112485000D01*
X214050364Y-112496603D01*
X213984210Y-112540806D01*
X213984206Y-112540810D01*
X213940003Y-112606964D01*
X213928400Y-112665297D01*
X205639414Y-112665297D01*
X209228075Y-109076637D01*
X209234522Y-109070794D01*
X209333995Y-108989160D01*
X209348497Y-108979471D01*
X209392847Y-108955766D01*
X209458092Y-108920892D01*
X209474197Y-108914221D01*
X209593113Y-108878150D01*
X209610219Y-108874747D01*
X209738370Y-108862127D01*
X209747081Y-108861700D01*
X209791400Y-108861701D01*
X209791403Y-108861700D01*
X211139099Y-108861700D01*
X211196307Y-108882522D01*
X211202031Y-108887767D01*
X211285197Y-108970932D01*
X211365168Y-109050903D01*
X211420365Y-109092060D01*
X211420366Y-109092060D01*
X211420367Y-109092061D01*
X211476343Y-109111278D01*
X211531002Y-109130043D01*
X211531003Y-109130043D01*
X211647978Y-109130043D01*
X211647979Y-109130043D01*
X211758617Y-109092060D01*
X211813813Y-109050903D01*
X212585635Y-108279081D01*
X212626792Y-108223885D01*
X212664775Y-108113247D01*
X212664775Y-107996270D01*
X212639663Y-107923124D01*
X212626793Y-107885635D01*
X212622636Y-107880060D01*
X212585635Y-107830436D01*
X212326466Y-107571267D01*
X212271269Y-107530110D01*
X212271268Y-107530109D01*
X212271266Y-107530108D01*
X212160634Y-107492127D01*
X212160632Y-107492127D01*
X212150979Y-107492127D01*
X212093771Y-107471305D01*
X212063331Y-107418582D01*
X212063689Y-107385761D01*
X212067235Y-107367942D01*
X212072612Y-107327100D01*
X212081079Y-107262798D01*
X212081081Y-107262778D01*
X212082399Y-107249395D01*
X212083460Y-107233209D01*
X212083900Y-107219767D01*
X212083900Y-106589587D01*
X212104722Y-106532379D01*
X212109968Y-106526654D01*
X212694347Y-105942278D01*
X213304223Y-105332398D01*
X213263055Y-105291230D01*
X213207943Y-105250133D01*
X213097466Y-105212208D01*
X213018941Y-105212208D01*
X213001656Y-105205916D01*
X212983297Y-105204759D01*
X212973911Y-105195818D01*
X212961733Y-105191386D01*
X212952535Y-105175456D01*
X212939216Y-105162768D01*
X212935117Y-105145287D01*
X212931293Y-105138663D01*
X212930494Y-105133115D01*
X212929941Y-105128177D01*
X212929941Y-105044100D01*
X212915963Y-105003387D01*
X212914874Y-104993661D01*
X212919870Y-104973021D01*
X212920260Y-104951786D01*
X212927831Y-104940137D01*
X212929199Y-104934490D01*
X212933621Y-104931230D01*
X212940386Y-104920823D01*
X212978781Y-104882428D01*
X212978784Y-104882427D01*
X212991298Y-104869913D01*
X212991299Y-104869913D01*
X213024440Y-104836770D01*
X213027195Y-104834133D01*
X213257629Y-104622979D01*
X213263566Y-104617997D01*
X213509944Y-104428942D01*
X213516288Y-104424499D01*
X213778226Y-104257627D01*
X213784928Y-104253758D01*
X214060406Y-104110352D01*
X214067432Y-104107076D01*
X214247723Y-104032396D01*
X214308543Y-104029741D01*
X214356843Y-104066802D01*
X214370020Y-104126238D01*
X214341909Y-104180239D01*
X214328026Y-104190419D01*
X214328051Y-104190457D01*
X214327204Y-104191022D01*
X214326293Y-104191691D01*
X214325638Y-104192068D01*
X214120579Y-104349415D01*
X213937815Y-104532179D01*
X213905725Y-104574000D01*
X213793318Y-104720493D01*
X213780471Y-104737235D01*
X213651246Y-104961057D01*
X213651237Y-104961075D01*
X213552331Y-105199856D01*
X213552330Y-105199860D01*
X213485435Y-105449515D01*
X213481005Y-105483162D01*
X213455700Y-105534474D01*
X212871122Y-106119053D01*
X212871122Y-106119054D01*
X212261900Y-106728276D01*
X212261900Y-106729589D01*
X212302412Y-106770101D01*
X212357524Y-106811198D01*
X212468001Y-106849123D01*
X212468005Y-106849124D01*
X212546527Y-106849124D01*
X212603735Y-106869946D01*
X212634175Y-106922669D01*
X212635527Y-106938124D01*
X212635527Y-107017234D01*
X212673508Y-107127866D01*
X212673509Y-107127868D01*
X212673510Y-107127869D01*
X212714667Y-107183066D01*
X212973836Y-107442235D01*
X213029033Y-107483392D01*
X213029034Y-107483392D01*
X213029035Y-107483393D01*
X213121098Y-107514999D01*
X213139670Y-107521375D01*
X213139671Y-107521375D01*
X213256646Y-107521375D01*
X213256647Y-107521375D01*
X213367285Y-107483392D01*
X213422481Y-107442235D01*
X214194303Y-106670413D01*
X214235460Y-106615217D01*
X214239100Y-106604615D01*
X214258231Y-106548890D01*
X214680900Y-106548890D01*
X214680900Y-106731109D01*
X214716447Y-106909812D01*
X214716448Y-106909818D01*
X214786173Y-107078148D01*
X214786175Y-107078151D01*
X214868204Y-107200917D01*
X214868205Y-107200917D01*
X215230073Y-106839049D01*
X215265816Y-106900956D01*
X215344944Y-106980084D01*
X215406849Y-107015825D01*
X215044981Y-107377693D01*
X215044981Y-107377695D01*
X215167739Y-107459720D01*
X215167748Y-107459725D01*
X215336081Y-107529451D01*
X215336087Y-107529452D01*
X215514790Y-107564999D01*
X215514799Y-107565000D01*
X215697001Y-107565000D01*
X215697009Y-107564999D01*
X215875712Y-107529452D01*
X215875718Y-107529451D01*
X216044051Y-107459725D01*
X216044060Y-107459720D01*
X216166817Y-107377695D01*
X216166817Y-107377694D01*
X215804949Y-107015826D01*
X215866856Y-106980084D01*
X215945984Y-106900956D01*
X215981726Y-106839049D01*
X216343594Y-107200917D01*
X216343595Y-107200917D01*
X216425620Y-107078160D01*
X216425625Y-107078151D01*
X216495351Y-106909818D01*
X216495352Y-106909812D01*
X216530899Y-106731109D01*
X216530900Y-106731101D01*
X216530900Y-106548898D01*
X216530899Y-106548890D01*
X216495352Y-106370187D01*
X216495351Y-106370181D01*
X216425625Y-106201848D01*
X216425620Y-106201839D01*
X216343595Y-106079081D01*
X216343593Y-106079081D01*
X215981725Y-106440949D01*
X215945984Y-106379044D01*
X215866856Y-106299916D01*
X215804949Y-106264173D01*
X216183717Y-105885405D01*
X216185425Y-105878744D01*
X216234914Y-105843287D01*
X216258878Y-105840000D01*
X216300594Y-105840000D01*
X216300602Y-105839999D01*
X216358935Y-105828396D01*
X216425089Y-105784193D01*
X216425093Y-105784189D01*
X216469296Y-105718035D01*
X216480899Y-105659702D01*
X216480900Y-105659694D01*
X216480900Y-105565001D01*
X216480899Y-105565000D01*
X214730901Y-105565000D01*
X214730900Y-105565001D01*
X214730900Y-105659702D01*
X214742503Y-105718035D01*
X214786706Y-105784189D01*
X214786710Y-105784193D01*
X214852864Y-105828396D01*
X214911197Y-105839999D01*
X214911206Y-105840000D01*
X214952922Y-105840000D01*
X215010130Y-105860822D01*
X215019188Y-105876511D01*
X215406850Y-106264173D01*
X215344944Y-106299916D01*
X215265816Y-106379044D01*
X215230073Y-106440950D01*
X214868204Y-106079081D01*
X214786175Y-106201848D01*
X214786173Y-106201851D01*
X214716448Y-106370181D01*
X214716447Y-106370187D01*
X214680900Y-106548890D01*
X214258231Y-106548890D01*
X214269652Y-106515624D01*
X214273442Y-106504581D01*
X214273443Y-106504578D01*
X214273443Y-106387602D01*
X214273442Y-106387599D01*
X214235461Y-106276967D01*
X214229935Y-106269556D01*
X214194303Y-106221768D01*
X214112883Y-106140348D01*
X214031167Y-106058631D01*
X214022956Y-106041023D01*
X214010467Y-106026139D01*
X214007093Y-106007003D01*
X214005439Y-106003456D01*
X214005100Y-105995699D01*
X214005100Y-105838501D01*
X214005374Y-105831518D01*
X214007077Y-105809878D01*
X214022013Y-105620102D01*
X214024195Y-105606324D01*
X214072884Y-105403522D01*
X214077198Y-105390248D01*
X214100107Y-105334941D01*
X214157005Y-105197574D01*
X214163340Y-105185139D01*
X214272314Y-105007310D01*
X214280514Y-104996024D01*
X214415962Y-104837434D01*
X214425836Y-104827561D01*
X214458050Y-104800048D01*
X214583599Y-104692818D01*
X214640623Y-104671498D01*
X214698011Y-104691820D01*
X214728910Y-104744276D01*
X214730400Y-104760495D01*
X214730400Y-105009752D01*
X214742033Y-105068232D01*
X214745387Y-105076329D01*
X214743285Y-105077199D01*
X214755015Y-105125143D01*
X214744730Y-105153402D01*
X214745858Y-105153869D01*
X214742503Y-105161967D01*
X214730900Y-105220297D01*
X214730900Y-105314999D01*
X214730901Y-105315000D01*
X216480899Y-105315000D01*
X216480900Y-105314999D01*
X216480900Y-105265001D01*
X217155900Y-105265001D01*
X217155900Y-105909702D01*
X217167503Y-105968035D01*
X217211706Y-106034189D01*
X217211710Y-106034193D01*
X217277866Y-106078397D01*
X217285963Y-106081751D01*
X217284981Y-106084121D01*
X217326462Y-106109293D01*
X217346031Y-106166942D01*
X217323966Y-106223682D01*
X217285085Y-106246129D01*
X217285963Y-106248249D01*
X217277866Y-106251602D01*
X217211710Y-106295806D01*
X217211706Y-106295810D01*
X217167503Y-106361964D01*
X217155900Y-106420297D01*
X217155900Y-106914999D01*
X217155901Y-106915000D01*
X218180900Y-106915000D01*
X218180900Y-106240001D01*
X218168832Y-106227933D01*
X218157510Y-106203652D01*
X218144117Y-106180455D01*
X218144823Y-106176445D01*
X218143104Y-106172757D01*
X218150037Y-106146880D01*
X218154689Y-106120500D01*
X218157806Y-106117884D01*
X218158860Y-106113952D01*
X218168832Y-106102067D01*
X218180900Y-106089999D01*
X218180900Y-105265001D01*
X218180899Y-105265000D01*
X217155901Y-105265000D01*
X217155900Y-105265001D01*
X216480900Y-105265001D01*
X216480900Y-105220305D01*
X216480899Y-105220297D01*
X216469295Y-105161962D01*
X216465942Y-105153866D01*
X216468315Y-105152882D01*
X216456784Y-105105761D01*
X216467357Y-105076717D01*
X216466413Y-105076326D01*
X216469762Y-105068237D01*
X216469767Y-105068231D01*
X216481400Y-105009748D01*
X216481400Y-104570252D01*
X216469767Y-104511769D01*
X216469763Y-104511764D01*
X216466413Y-104503674D01*
X216468690Y-104502730D01*
X216457082Y-104455324D01*
X216467476Y-104426766D01*
X216466413Y-104426326D01*
X216469762Y-104418237D01*
X216469767Y-104418231D01*
X216481400Y-104359748D01*
X216481400Y-103920252D01*
X216469767Y-103861769D01*
X216469763Y-103861764D01*
X216466413Y-103853674D01*
X216468690Y-103852730D01*
X216457082Y-103805324D01*
X216467476Y-103776766D01*
X216466413Y-103776326D01*
X216469762Y-103768237D01*
X216469767Y-103768231D01*
X216481400Y-103709748D01*
X216481400Y-103270252D01*
X216480356Y-103265001D01*
X217155900Y-103265001D01*
X217155900Y-103909702D01*
X217167503Y-103968035D01*
X217211706Y-104034189D01*
X217211710Y-104034193D01*
X217259311Y-104065999D01*
X217295309Y-104115095D01*
X217291328Y-104175844D01*
X217259311Y-104214001D01*
X217211710Y-104245806D01*
X217211706Y-104245810D01*
X217167503Y-104311964D01*
X217155900Y-104370297D01*
X217155900Y-105014999D01*
X217155901Y-105015000D01*
X218180899Y-105015000D01*
X218180900Y-105014999D01*
X218180900Y-104175863D01*
X218169117Y-104155455D01*
X218169823Y-104151445D01*
X218168104Y-104147757D01*
X218175037Y-104121880D01*
X218179689Y-104095500D01*
X218180900Y-104094483D01*
X218180900Y-103265001D01*
X218180899Y-103265000D01*
X217155901Y-103265000D01*
X217155900Y-103265001D01*
X216480356Y-103265001D01*
X216469767Y-103211769D01*
X216463871Y-103202945D01*
X216460041Y-103189666D01*
X216461230Y-103172265D01*
X216457082Y-103155324D01*
X216463615Y-103137374D01*
X216464193Y-103128928D01*
X216466616Y-103126410D01*
X216466413Y-103126326D01*
X216469762Y-103118237D01*
X216469767Y-103118231D01*
X216481400Y-103059748D01*
X216481400Y-102620252D01*
X216469767Y-102561769D01*
X216469767Y-102561768D01*
X216425454Y-102495451D01*
X216425452Y-102495448D01*
X216425448Y-102495445D01*
X216359131Y-102451132D01*
X216300652Y-102439500D01*
X216300648Y-102439500D01*
X216258927Y-102439500D01*
X216201719Y-102418678D01*
X216193409Y-102404285D01*
X215804950Y-102015825D01*
X215866856Y-101980084D01*
X215945984Y-101900956D01*
X215981726Y-101839049D01*
X216343594Y-102200917D01*
X216343595Y-102200917D01*
X216425620Y-102078160D01*
X216425625Y-102078151D01*
X216495351Y-101909818D01*
X216495352Y-101909812D01*
X216530899Y-101731109D01*
X216530900Y-101731101D01*
X216530900Y-101548898D01*
X216530899Y-101548890D01*
X216495352Y-101370187D01*
X216495351Y-101370181D01*
X216493205Y-101365001D01*
X217155900Y-101365001D01*
X217155900Y-101859702D01*
X217167503Y-101918035D01*
X217211706Y-101984189D01*
X217211710Y-101984193D01*
X217277866Y-102028397D01*
X217285963Y-102031751D01*
X217284981Y-102034121D01*
X217326462Y-102059293D01*
X217346031Y-102116942D01*
X217323966Y-102173682D01*
X217285085Y-102196129D01*
X217285963Y-102198249D01*
X217277866Y-102201602D01*
X217211710Y-102245806D01*
X217211706Y-102245810D01*
X217167503Y-102311964D01*
X217155900Y-102370297D01*
X217155900Y-103014999D01*
X217155901Y-103015000D01*
X218180899Y-103015000D01*
X218180900Y-103014999D01*
X218180900Y-102190001D01*
X218168832Y-102177933D01*
X218157510Y-102153652D01*
X218144117Y-102130455D01*
X218144823Y-102126445D01*
X218143104Y-102122757D01*
X218150037Y-102096880D01*
X218154689Y-102070500D01*
X218158402Y-102065660D01*
X218158860Y-102063952D01*
X218160703Y-102062661D01*
X218168832Y-102052067D01*
X218180900Y-102039999D01*
X218180900Y-101365000D01*
X217155901Y-101365000D01*
X217155900Y-101365001D01*
X216493205Y-101365001D01*
X216425625Y-101201848D01*
X216425620Y-101201839D01*
X216343595Y-101079081D01*
X216343593Y-101079081D01*
X215981725Y-101440949D01*
X215945984Y-101379044D01*
X215866856Y-101299916D01*
X215804949Y-101264173D01*
X216166817Y-100902305D01*
X216166817Y-100902304D01*
X216044051Y-100820275D01*
X216044048Y-100820273D01*
X215875718Y-100750548D01*
X215875712Y-100750547D01*
X215697009Y-100715000D01*
X215514790Y-100715000D01*
X215336087Y-100750547D01*
X215336081Y-100750548D01*
X215167751Y-100820273D01*
X215167748Y-100820275D01*
X215044981Y-100902304D01*
X215406850Y-101264173D01*
X215344944Y-101299916D01*
X215265816Y-101379044D01*
X215230074Y-101440949D01*
X214868205Y-101079081D01*
X214786175Y-101201848D01*
X214786173Y-101201851D01*
X214716448Y-101370181D01*
X214716447Y-101370187D01*
X214680900Y-101548890D01*
X214680900Y-101731109D01*
X214716447Y-101909812D01*
X214716448Y-101909819D01*
X214784107Y-102073160D01*
X214786763Y-102133982D01*
X214749702Y-102182281D01*
X214690265Y-102195458D01*
X214667387Y-102189262D01*
X211880533Y-101017516D01*
X210856720Y-100587049D01*
X210847167Y-100583308D01*
X210835583Y-100579103D01*
X210825906Y-100575860D01*
X210748677Y-100552096D01*
X210748678Y-100552096D01*
X210728865Y-100547062D01*
X210704731Y-100542196D01*
X210704730Y-100542195D01*
X210704716Y-100542193D01*
X210684505Y-100539154D01*
X210684495Y-100539153D01*
X210604127Y-100531130D01*
X210604114Y-100531129D01*
X210593916Y-100530367D01*
X210593905Y-100530366D01*
X210593899Y-100530366D01*
X210581618Y-100529754D01*
X210576622Y-100529630D01*
X210571384Y-100529500D01*
X210571364Y-100529500D01*
X207738606Y-100529500D01*
X207718454Y-100526308D01*
X207718444Y-100526377D01*
X207711526Y-100525281D01*
X207611888Y-100509500D01*
X207094912Y-100509500D01*
X207094911Y-100509500D01*
X206995276Y-100525279D01*
X206995275Y-100525280D01*
X206875181Y-100586471D01*
X206779871Y-100681781D01*
X206718680Y-100801875D01*
X206718679Y-100801876D01*
X206702900Y-100901511D01*
X206702900Y-101026672D01*
X206699868Y-101049704D01*
X206694809Y-101068583D01*
X206694805Y-101068602D01*
X206689566Y-101094938D01*
X206689566Y-101094942D01*
X206689564Y-101094953D01*
X206675719Y-101200117D01*
X206674401Y-101213497D01*
X206673339Y-101229687D01*
X206672900Y-101243111D01*
X206672900Y-103619780D01*
X206673339Y-103633212D01*
X206673950Y-103642529D01*
X206669319Y-103677248D01*
X206642025Y-103756753D01*
X206642025Y-103873732D01*
X206680006Y-103984364D01*
X206680007Y-103984366D01*
X206680008Y-103984367D01*
X206721165Y-104039564D01*
X206980334Y-104298733D01*
X206980337Y-104298735D01*
X206980339Y-104298737D01*
X207035528Y-104339888D01*
X207035531Y-104339890D01*
X207116002Y-104367516D01*
X207124715Y-104371033D01*
X207133832Y-104375285D01*
X207138333Y-104378913D01*
X207182680Y-104407414D01*
X207191641Y-104412855D01*
X207257220Y-104432839D01*
X207262898Y-104435488D01*
X207280255Y-104452849D01*
X207299873Y-104467604D01*
X207301926Y-104474524D01*
X207305942Y-104478541D01*
X207307120Y-104492029D01*
X207314276Y-104516145D01*
X207314276Y-104545398D01*
X207352200Y-104655871D01*
X207352205Y-104655880D01*
X207393293Y-104710982D01*
X207393302Y-104710993D01*
X207434466Y-104752155D01*
X208044347Y-104142278D01*
X208654223Y-103532398D01*
X208613058Y-103491233D01*
X208591728Y-103475327D01*
X208585919Y-103466479D01*
X208576755Y-103461189D01*
X208569675Y-103441738D01*
X208558315Y-103424436D01*
X208559551Y-103413926D01*
X208555932Y-103403982D01*
X208563011Y-103384529D01*
X208565431Y-103363973D01*
X208573668Y-103355249D01*
X208576753Y-103346773D01*
X208600428Y-103326907D01*
X208600431Y-103326905D01*
X208601604Y-103326228D01*
X208608208Y-103322415D01*
X208631288Y-103309090D01*
X208631289Y-103309088D01*
X208647628Y-103299655D01*
X208669083Y-103290766D01*
X208725946Y-103275530D01*
X208748977Y-103272499D01*
X208807824Y-103272499D01*
X208830859Y-103275532D01*
X208887702Y-103290763D01*
X208909164Y-103299652D01*
X208960132Y-103329078D01*
X208978563Y-103343220D01*
X209020178Y-103384835D01*
X209034321Y-103403268D01*
X209063744Y-103454230D01*
X209072635Y-103475694D01*
X209087868Y-103532541D01*
X209090901Y-103555577D01*
X209090901Y-103614423D01*
X209087868Y-103637459D01*
X209072636Y-103694302D01*
X209063745Y-103715766D01*
X209036495Y-103762965D01*
X208989859Y-103802097D01*
X208928980Y-103802098D01*
X208888071Y-103771668D01*
X208872169Y-103750343D01*
X208872165Y-103750338D01*
X208831001Y-103709175D01*
X208221121Y-104319054D01*
X207611243Y-104928932D01*
X207652412Y-104970101D01*
X207707524Y-105011198D01*
X207818001Y-105049123D01*
X207818005Y-105049124D01*
X207847354Y-105049124D01*
X207904562Y-105069946D01*
X207927899Y-105100262D01*
X207931011Y-105106882D01*
X207943513Y-105151124D01*
X207976998Y-105212447D01*
X207986770Y-105225501D01*
X207990629Y-105233709D01*
X207990858Y-105236239D01*
X207994258Y-105242665D01*
X208023510Y-105327869D01*
X208064667Y-105383066D01*
X208323836Y-105642235D01*
X208379033Y-105683392D01*
X208446569Y-105706577D01*
X208480600Y-105727821D01*
X209669754Y-106916974D01*
X209699891Y-106941261D01*
X209731369Y-106993371D01*
X209723333Y-107048160D01*
X209723584Y-107048246D01*
X209723125Y-107049582D01*
X209722756Y-107052100D01*
X209721339Y-107054784D01*
X209683357Y-107165418D01*
X209683357Y-107282397D01*
X209683356Y-107282397D01*
X209694153Y-107313845D01*
X209693034Y-107374714D01*
X209672908Y-107405675D01*
X203876818Y-113201766D01*
X203876748Y-113201845D01*
X203804084Y-113274510D01*
X203623635Y-113500783D01*
X203469662Y-113745827D01*
X203345478Y-114003697D01*
X203301896Y-114046205D01*
X203241187Y-114050754D01*
X203197156Y-114020935D01*
X203197027Y-114021065D01*
X203196352Y-114020390D01*
X203194683Y-114019260D01*
X203192905Y-114016943D01*
X203192904Y-114016942D01*
X203192903Y-114016940D01*
X203096460Y-113920497D01*
X203096457Y-113920495D01*
X203096455Y-113920493D01*
X202978343Y-113852302D01*
X202978339Y-113852300D01*
X202916396Y-113835703D01*
X202846596Y-113817000D01*
X202735400Y-113817000D01*
X202678192Y-113796178D01*
X202647752Y-113743455D01*
X202646400Y-113728000D01*
X202646400Y-113666806D01*
X202646400Y-113666804D01*
X202611099Y-113535059D01*
X202591308Y-113500780D01*
X202542906Y-113416944D01*
X202542904Y-113416942D01*
X202542903Y-113416940D01*
X202446460Y-113320497D01*
X202446457Y-113320495D01*
X202446455Y-113320493D01*
X202328343Y-113252302D01*
X202328339Y-113252300D01*
X202267196Y-113235917D01*
X202196596Y-113217000D01*
X202060204Y-113217000D01*
X202004523Y-113231919D01*
X201928460Y-113252300D01*
X201928456Y-113252302D01*
X201810344Y-113320493D01*
X201713893Y-113416944D01*
X201645702Y-113535056D01*
X201645700Y-113535060D01*
X201627683Y-113602302D01*
X201610400Y-113666804D01*
X201610400Y-113666806D01*
X201610400Y-113803196D01*
X201619109Y-113835703D01*
X201613801Y-113896351D01*
X201608500Y-113906084D01*
X201545293Y-114006681D01*
X201545291Y-114006685D01*
X201439060Y-114227276D01*
X201439059Y-114227278D01*
X201358192Y-114458388D01*
X201358191Y-114458390D01*
X201312485Y-114658645D01*
X201302590Y-114673964D01*
X201297489Y-114691468D01*
X201281237Y-114707025D01*
X201279455Y-114709786D01*
X201275162Y-114712842D01*
X201227396Y-114744758D01*
X201168261Y-114759228D01*
X201128505Y-114744758D01*
X201056436Y-114696604D01*
X200998102Y-114685000D01*
X200903401Y-114685000D01*
X200903400Y-114685001D01*
X200903400Y-115196000D01*
X200895491Y-115217729D01*
X200891476Y-115240500D01*
X200885324Y-115245661D01*
X200882578Y-115253208D01*
X200862553Y-115264769D01*
X200844840Y-115279633D01*
X200833278Y-115281671D01*
X200829855Y-115283648D01*
X200814400Y-115285000D01*
X200742400Y-115285000D01*
X200685192Y-115264178D01*
X200654752Y-115211455D01*
X200653400Y-115196000D01*
X200653400Y-114685001D01*
X200653399Y-114685000D01*
X200585400Y-114685000D01*
X200528192Y-114664178D01*
X200497752Y-114611455D01*
X200496400Y-114596000D01*
X200496400Y-114591806D01*
X200496400Y-114591804D01*
X200461099Y-114460059D01*
X200416648Y-114383067D01*
X200392906Y-114341944D01*
X200392904Y-114341942D01*
X200392903Y-114341940D01*
X200296460Y-114245497D01*
X200296457Y-114245495D01*
X200296455Y-114245493D01*
X200178343Y-114177302D01*
X200178339Y-114177300D01*
X200112101Y-114159552D01*
X200046596Y-114142000D01*
X199935400Y-114142000D01*
X199878192Y-114121178D01*
X199847752Y-114068455D01*
X199846400Y-114053000D01*
X199846400Y-114016806D01*
X199846400Y-114016804D01*
X199811099Y-113885059D01*
X199785904Y-113841420D01*
X199742906Y-113766944D01*
X199742904Y-113766942D01*
X199742903Y-113766940D01*
X199646460Y-113670497D01*
X199646457Y-113670495D01*
X199646455Y-113670493D01*
X199528343Y-113602302D01*
X199528339Y-113602300D01*
X199467196Y-113585917D01*
X199396596Y-113567000D01*
X199260204Y-113567000D01*
X199204523Y-113581919D01*
X199128460Y-113602300D01*
X199128456Y-113602302D01*
X199010344Y-113670493D01*
X198913893Y-113766944D01*
X198845702Y-113885056D01*
X198845700Y-113885060D01*
X198842675Y-113896351D01*
X198810400Y-114016804D01*
X198810400Y-114153196D01*
X198826104Y-114211803D01*
X198845700Y-114284939D01*
X198845701Y-114284941D01*
X198866147Y-114320355D01*
X198868761Y-114330589D01*
X198873391Y-114336376D01*
X198874951Y-114354819D01*
X198878046Y-114366933D01*
X198877906Y-114372893D01*
X198876296Y-114383067D01*
X198876300Y-114440612D01*
X198876300Y-114441669D01*
X198876300Y-114664510D01*
X198855478Y-114721718D01*
X198836750Y-114738508D01*
X198833853Y-114740443D01*
X198833845Y-114740451D01*
X198789532Y-114806768D01*
X198777900Y-114865247D01*
X198777900Y-115704752D01*
X198789532Y-115763231D01*
X198833845Y-115829548D01*
X198833848Y-115829552D01*
X198833851Y-115829554D01*
X198900168Y-115873867D01*
X198957090Y-115885189D01*
X198958652Y-115885500D01*
X198958656Y-115885500D01*
X199398144Y-115885500D01*
X199398148Y-115885500D01*
X199456631Y-115873867D01*
X199522952Y-115829552D01*
X199522952Y-115829551D01*
X199528953Y-115825542D01*
X199534843Y-115824100D01*
X199539037Y-115819720D01*
X199563845Y-115817003D01*
X199588088Y-115811071D01*
X199595010Y-115813590D01*
X199599555Y-115813093D01*
X199627847Y-115825542D01*
X199679543Y-115860085D01*
X199715541Y-115909181D01*
X199711558Y-115969930D01*
X199707173Y-115978584D01*
X199645701Y-116085058D01*
X199645700Y-116085060D01*
X199632785Y-116133261D01*
X199610400Y-116216804D01*
X199610400Y-116216806D01*
X199610400Y-116228000D01*
X199589578Y-116285208D01*
X199536855Y-116315648D01*
X199521400Y-116317000D01*
X199460204Y-116317000D01*
X199404523Y-116331919D01*
X199328460Y-116352300D01*
X199328456Y-116352302D01*
X199210344Y-116420493D01*
X199113893Y-116516944D01*
X199101508Y-116538398D01*
X199054872Y-116577532D01*
X199024431Y-116582900D01*
X198750345Y-116582900D01*
X198693137Y-116562078D01*
X198662697Y-116509355D01*
X198666790Y-116471971D01*
X198665086Y-116471633D01*
X198678399Y-116404702D01*
X198678400Y-116404694D01*
X198678400Y-116310001D01*
X198678399Y-116310000D01*
X197478401Y-116310000D01*
X197478400Y-116310001D01*
X197478400Y-116404702D01*
X197490004Y-116463036D01*
X197538158Y-116535105D01*
X197552628Y-116594240D01*
X197538158Y-116633996D01*
X197489532Y-116706768D01*
X197477900Y-116765247D01*
X197477900Y-117204752D01*
X197489532Y-117263231D01*
X197537858Y-117335554D01*
X197552328Y-117394689D01*
X197537858Y-117434446D01*
X197489532Y-117506768D01*
X197477900Y-117565247D01*
X197477900Y-118004752D01*
X197489532Y-118063231D01*
X197537858Y-118135554D01*
X197552328Y-118194689D01*
X197537858Y-118234446D01*
X197489532Y-118306768D01*
X197477900Y-118365247D01*
X197477900Y-118379251D01*
X197457078Y-118436459D01*
X197429306Y-118458549D01*
X197413939Y-118466380D01*
X197252498Y-118583670D01*
X197252497Y-118583671D01*
X197181943Y-118654224D01*
X197149014Y-118687152D01*
X197149009Y-118687157D01*
X197137221Y-118698943D01*
X197128526Y-118706573D01*
X197126189Y-118708369D01*
X197124435Y-118706087D01*
X197078786Y-118727343D01*
X197019990Y-118711552D01*
X196985099Y-118661663D01*
X196982841Y-118627060D01*
X196988399Y-118584841D01*
X196988400Y-118584833D01*
X196988400Y-118530001D01*
X196988399Y-118530000D01*
X195968401Y-118530000D01*
X195968400Y-118530001D01*
X195968400Y-118584841D01*
X195974919Y-118634357D01*
X196025589Y-118743020D01*
X196104282Y-118821713D01*
X196130010Y-118876889D01*
X196114254Y-118935694D01*
X196104287Y-118947572D01*
X196057171Y-118994689D01*
X196025173Y-119026687D01*
X195974428Y-119135511D01*
X195967900Y-119185095D01*
X195967900Y-119257095D01*
X195964868Y-119280126D01*
X195960400Y-119296803D01*
X195960400Y-120275858D01*
X195959639Y-120287473D01*
X195957900Y-120300678D01*
X195957900Y-120649319D01*
X195964332Y-120698174D01*
X196014332Y-120805400D01*
X196014334Y-120805402D01*
X196014335Y-120805404D01*
X196097996Y-120889065D01*
X196097997Y-120889065D01*
X196097998Y-120889066D01*
X196130750Y-120904339D01*
X196173798Y-120947387D01*
X196179103Y-121008035D01*
X196144184Y-121057905D01*
X196130750Y-121065661D01*
X196097998Y-121080933D01*
X196014332Y-121164599D01*
X195964332Y-121271825D01*
X195957900Y-121320680D01*
X195957900Y-121669319D01*
X195964332Y-121718174D01*
X196014332Y-121825400D01*
X196014334Y-121825402D01*
X196014335Y-121825404D01*
X196061333Y-121872402D01*
X196087061Y-121927577D01*
X196087400Y-121935334D01*
X196087400Y-122125000D01*
X196066578Y-122182208D01*
X196013855Y-122212648D01*
X195998400Y-122214000D01*
X195715805Y-122214000D01*
X195658597Y-122193178D01*
X195652883Y-122187943D01*
X195646716Y-122181776D01*
X195646714Y-122181775D01*
X195646712Y-122181773D01*
X195537888Y-122131028D01*
X195521358Y-122128852D01*
X195488301Y-122124500D01*
X195488299Y-122124500D01*
X195068507Y-122124500D01*
X195068494Y-122124501D01*
X195030126Y-122129552D01*
X195018913Y-122131028D01*
X194987880Y-122145499D01*
X194910085Y-122181775D01*
X194910084Y-122181775D01*
X194910084Y-122181776D01*
X194903926Y-122187933D01*
X194848752Y-122213661D01*
X194840995Y-122214000D01*
X194642900Y-122214000D01*
X194621170Y-122206091D01*
X194598400Y-122202076D01*
X194593238Y-122195924D01*
X194585692Y-122193178D01*
X194574130Y-122173153D01*
X194559267Y-122155440D01*
X194557228Y-122143878D01*
X194555252Y-122140455D01*
X194553900Y-122125000D01*
X194553900Y-122083578D01*
X194569994Y-122032531D01*
X194667774Y-121892888D01*
X194839703Y-121595097D01*
X194985023Y-121283454D01*
X195102629Y-120960332D01*
X195102631Y-120960325D01*
X195191623Y-120628197D01*
X195191626Y-120628181D01*
X195251333Y-120289554D01*
X195270934Y-120065509D01*
X195281300Y-119947021D01*
X195281300Y-119947014D01*
X195281301Y-119947003D01*
X195281300Y-119775074D01*
X195281300Y-119719180D01*
X195281300Y-118225158D01*
X195968400Y-118225158D01*
X195968400Y-118279999D01*
X195968401Y-118280000D01*
X196353399Y-118280000D01*
X196353400Y-118279999D01*
X196353400Y-117925001D01*
X196603400Y-117925001D01*
X196603400Y-118279999D01*
X196603401Y-118280000D01*
X196988399Y-118280000D01*
X196988400Y-118279999D01*
X196988400Y-118225166D01*
X196988399Y-118225158D01*
X196981880Y-118175642D01*
X196931210Y-118066979D01*
X196846420Y-117982189D01*
X196737757Y-117931519D01*
X196737758Y-117931519D01*
X196688241Y-117925000D01*
X196603401Y-117925000D01*
X196603400Y-117925001D01*
X196353400Y-117925001D01*
X196353399Y-117925000D01*
X196268558Y-117925000D01*
X196219042Y-117931519D01*
X196110379Y-117982189D01*
X196025589Y-118066979D01*
X195974919Y-118175642D01*
X195968400Y-118225158D01*
X195281300Y-118225158D01*
X195281300Y-116536763D01*
X195281440Y-116531772D01*
X195287690Y-116420497D01*
X195296250Y-116268097D01*
X195297365Y-116258210D01*
X195341188Y-116000306D01*
X195343402Y-115990610D01*
X195415824Y-115739233D01*
X195419107Y-115729850D01*
X195519221Y-115488159D01*
X195523546Y-115479179D01*
X195589414Y-115360001D01*
X197478400Y-115360001D01*
X197478400Y-115604702D01*
X197490003Y-115663035D01*
X197538459Y-115735554D01*
X197552929Y-115794689D01*
X197538459Y-115834446D01*
X197490003Y-115906964D01*
X197478400Y-115965297D01*
X197478400Y-116059999D01*
X197478401Y-116060000D01*
X197953399Y-116060000D01*
X197953400Y-116059999D01*
X197953400Y-115880001D01*
X197929467Y-115856068D01*
X197920503Y-115836844D01*
X197907564Y-115820040D01*
X197905028Y-115803657D01*
X197903739Y-115800892D01*
X197904285Y-115798853D01*
X197903400Y-115793135D01*
X197903400Y-115360001D01*
X198153400Y-115360001D01*
X198153400Y-115689999D01*
X198177333Y-115713932D01*
X198186296Y-115733155D01*
X198199236Y-115749960D01*
X198198814Y-115760000D01*
X198203061Y-115769108D01*
X198203400Y-115776865D01*
X198203400Y-116059999D01*
X198203401Y-116060000D01*
X198678399Y-116060000D01*
X198678400Y-116059999D01*
X198678400Y-115965305D01*
X198678399Y-115965297D01*
X198666796Y-115906964D01*
X198622593Y-115840810D01*
X198622589Y-115840806D01*
X198575898Y-115809608D01*
X198539899Y-115760511D01*
X198543881Y-115699762D01*
X198551344Y-115686160D01*
X198566796Y-115663035D01*
X198578399Y-115604702D01*
X198578400Y-115604694D01*
X198578400Y-115360001D01*
X198578399Y-115360000D01*
X198153401Y-115360000D01*
X198153400Y-115360001D01*
X197903400Y-115360001D01*
X197903399Y-115360000D01*
X197478401Y-115360000D01*
X197478400Y-115360001D01*
X195589414Y-115360001D01*
X195650079Y-115250236D01*
X195655375Y-115241807D01*
X195806761Y-115028449D01*
X195812959Y-115020677D01*
X195951816Y-114865297D01*
X197478400Y-114865297D01*
X197478400Y-115109999D01*
X197478401Y-115110000D01*
X197903399Y-115110000D01*
X197903400Y-115109999D01*
X197903400Y-114685001D01*
X198153400Y-114685001D01*
X198153400Y-115109999D01*
X198153401Y-115110000D01*
X198578399Y-115110000D01*
X198578400Y-115109999D01*
X198578400Y-114865305D01*
X198578399Y-114865297D01*
X198566796Y-114806964D01*
X198522593Y-114740810D01*
X198522589Y-114740806D01*
X198456435Y-114696603D01*
X198398102Y-114685000D01*
X198153401Y-114685000D01*
X198153400Y-114685001D01*
X197903400Y-114685001D01*
X197903399Y-114685000D01*
X197658697Y-114685000D01*
X197600364Y-114696603D01*
X197534210Y-114740806D01*
X197534206Y-114740810D01*
X197490003Y-114806964D01*
X197478400Y-114865297D01*
X195951816Y-114865297D01*
X195989129Y-114823544D01*
X195992521Y-114819955D01*
X196030111Y-114782366D01*
X196030111Y-114782365D01*
X197601861Y-113210615D01*
X197601896Y-113210598D01*
X197627947Y-113184547D01*
X197627948Y-113184548D01*
X197748136Y-113064360D01*
X197963793Y-112801581D01*
X198152655Y-112518928D01*
X198312902Y-112219124D01*
X198373263Y-112073396D01*
X198442982Y-111905077D01*
X198442983Y-111905072D01*
X198442990Y-111905057D01*
X198541668Y-111579752D01*
X198607985Y-111246340D01*
X198641302Y-110908034D01*
X198641300Y-110738062D01*
X198641300Y-110730908D01*
X198641300Y-109963434D01*
X198647945Y-109945174D01*
X198649639Y-109925821D01*
X198660783Y-109909904D01*
X198662122Y-109906226D01*
X198667356Y-109900512D01*
X198702465Y-109865404D01*
X198702465Y-109865402D01*
X198703901Y-109863967D01*
X198759077Y-109838239D01*
X198766834Y-109837900D01*
X199555624Y-109837900D01*
X199609329Y-109837900D01*
X199613695Y-109838006D01*
X199892774Y-109851718D01*
X199901454Y-109852573D01*
X200175681Y-109893252D01*
X200184245Y-109894956D01*
X200206382Y-109900501D01*
X200453173Y-109962320D01*
X200461512Y-109964850D01*
X200722531Y-110058244D01*
X200730588Y-110061581D01*
X200981209Y-110180118D01*
X200988903Y-110184230D01*
X201123309Y-110264790D01*
X201161672Y-110312059D01*
X201164306Y-110341924D01*
X201166427Y-110341924D01*
X201166427Y-110481736D01*
X201207464Y-110608036D01*
X201207466Y-110608039D01*
X201265886Y-110688447D01*
X201265888Y-110688449D01*
X201265891Y-110688453D01*
X201674947Y-111097509D01*
X201674950Y-111097511D01*
X201674952Y-111097513D01*
X201755360Y-111155933D01*
X201755363Y-111155935D01*
X201881663Y-111196972D01*
X201881667Y-111196973D01*
X202014472Y-111196973D01*
X202140778Y-111155934D01*
X202221192Y-111097509D01*
X202577215Y-110741486D01*
X202635640Y-110661072D01*
X202676679Y-110534766D01*
X202676679Y-110401961D01*
X202654903Y-110334941D01*
X202635641Y-110275657D01*
X202635639Y-110275654D01*
X202577219Y-110195246D01*
X202577217Y-110195244D01*
X202577215Y-110195241D01*
X202168159Y-109786185D01*
X202168155Y-109786182D01*
X202168153Y-109786180D01*
X202087745Y-109727760D01*
X202087742Y-109727758D01*
X201961442Y-109686721D01*
X201961439Y-109686721D01*
X201828634Y-109686721D01*
X201828630Y-109686721D01*
X201702328Y-109727759D01*
X201696088Y-109730939D01*
X201695148Y-109729094D01*
X201645452Y-109743342D01*
X201602218Y-109728560D01*
X201573417Y-109709316D01*
X201474699Y-109643354D01*
X201295142Y-109547378D01*
X201161040Y-109475698D01*
X201161031Y-109475694D01*
X200832469Y-109339598D01*
X200832461Y-109339595D01*
X200832460Y-109339594D01*
X200832456Y-109339593D01*
X200505634Y-109240451D01*
X200492109Y-109236348D01*
X200143290Y-109166963D01*
X199789358Y-109132100D01*
X199657980Y-109132100D01*
X198766834Y-109132100D01*
X198748576Y-109125454D01*
X198729220Y-109123761D01*
X198713305Y-109112617D01*
X198709626Y-109111278D01*
X198703901Y-109106032D01*
X198667367Y-109069497D01*
X198641639Y-109014321D01*
X198641300Y-109006565D01*
X198641300Y-108713434D01*
X198662122Y-108656226D01*
X198667356Y-108650512D01*
X198702465Y-108615404D01*
X198703310Y-108613593D01*
X198715490Y-108587472D01*
X198752468Y-108508173D01*
X198758900Y-108459316D01*
X198758900Y-108010684D01*
X198752468Y-107961827D01*
X198742290Y-107940000D01*
X198702467Y-107854599D01*
X198702465Y-107854597D01*
X198702465Y-107854596D01*
X198618804Y-107770935D01*
X198618802Y-107770934D01*
X198618800Y-107770932D01*
X198511574Y-107720932D01*
X198511575Y-107720932D01*
X198498665Y-107719232D01*
X198491115Y-107718238D01*
X198477413Y-107711105D01*
X198462087Y-107709177D01*
X198451252Y-107697487D01*
X198437115Y-107690128D01*
X198431203Y-107675857D01*
X198420702Y-107664527D01*
X198419916Y-107648607D01*
X198413817Y-107633883D01*
X198418461Y-107619150D01*
X198417700Y-107603721D01*
X198427330Y-107591021D01*
X198432123Y-107575821D01*
X198445229Y-107567418D01*
X198454486Y-107555212D01*
X198477388Y-107546802D01*
X198482974Y-107543221D01*
X198487013Y-107542301D01*
X198511573Y-107539068D01*
X198521455Y-107534459D01*
X198530708Y-107532353D01*
X198552056Y-107535039D01*
X198573488Y-107533162D01*
X198610204Y-107543000D01*
X198610205Y-107543000D01*
X198746594Y-107543000D01*
X198746596Y-107543000D01*
X198878341Y-107507699D01*
X198991728Y-107442235D01*
X198996455Y-107439506D01*
X198996455Y-107439505D01*
X198996460Y-107439503D01*
X199092903Y-107343060D01*
X199128725Y-107281015D01*
X201559161Y-107281015D01*
X201671204Y-107393057D01*
X201671203Y-107393057D01*
X201752720Y-107452283D01*
X201880752Y-107493883D01*
X201880757Y-107493884D01*
X202015383Y-107493884D01*
X202015384Y-107493883D01*
X202143419Y-107452282D01*
X202224939Y-107393055D01*
X202319300Y-107298692D01*
X201930392Y-106909784D01*
X201559161Y-107281015D01*
X199128725Y-107281015D01*
X199161099Y-107224941D01*
X199196400Y-107093196D01*
X199196400Y-106992000D01*
X199217222Y-106934792D01*
X199269945Y-106904352D01*
X199285400Y-106903000D01*
X199396594Y-106903000D01*
X199396596Y-106903000D01*
X199528341Y-106867699D01*
X199638595Y-106804044D01*
X199646455Y-106799506D01*
X199646455Y-106799505D01*
X199646460Y-106799503D01*
X199742903Y-106703060D01*
X199761754Y-106670410D01*
X199774684Y-106648015D01*
X201169516Y-106648015D01*
X201169516Y-106782647D01*
X201211117Y-106910681D01*
X201211117Y-106910682D01*
X201270339Y-106992193D01*
X201270341Y-106992196D01*
X201382383Y-107104237D01*
X201753612Y-106733008D01*
X202107168Y-106733008D01*
X202496076Y-107121915D01*
X202590441Y-107027550D01*
X202649664Y-106946038D01*
X202649665Y-106946036D01*
X202691267Y-106818000D01*
X202691268Y-106817999D01*
X202691268Y-106683372D01*
X202691267Y-106683368D01*
X202649666Y-106555334D01*
X202649666Y-106555333D01*
X202590444Y-106473822D01*
X202590442Y-106473819D01*
X202478399Y-106361777D01*
X202107168Y-106733008D01*
X201753612Y-106733008D01*
X201753614Y-106733006D01*
X201364706Y-106344099D01*
X201270342Y-106438465D01*
X201211119Y-106519977D01*
X201211118Y-106519979D01*
X201169516Y-106648015D01*
X199774684Y-106648015D01*
X199804418Y-106596513D01*
X199806982Y-106592072D01*
X199811099Y-106584941D01*
X199846400Y-106453196D01*
X199846400Y-106392000D01*
X199867222Y-106334792D01*
X199919945Y-106304352D01*
X199935400Y-106303000D01*
X200046594Y-106303000D01*
X200046596Y-106303000D01*
X200178341Y-106267699D01*
X200290003Y-106203231D01*
X200296455Y-106199506D01*
X200296455Y-106199505D01*
X200296460Y-106199503D01*
X200328641Y-106167322D01*
X201541483Y-106167322D01*
X201930390Y-106556230D01*
X202301621Y-106184999D01*
X202189579Y-106072958D01*
X202189580Y-106072958D01*
X202108063Y-106013732D01*
X201980031Y-105972132D01*
X201845399Y-105972132D01*
X201717364Y-106013733D01*
X201635848Y-106072957D01*
X201541483Y-106167322D01*
X200328641Y-106167322D01*
X200392903Y-106103060D01*
X200461099Y-105984941D01*
X200496400Y-105853196D01*
X200496400Y-105716804D01*
X200461099Y-105585059D01*
X200419342Y-105512734D01*
X200392906Y-105466944D01*
X200392904Y-105466942D01*
X200392903Y-105466940D01*
X200296460Y-105370497D01*
X200296457Y-105370495D01*
X200296455Y-105370493D01*
X200178343Y-105302302D01*
X200178339Y-105302300D01*
X200117196Y-105285917D01*
X200046596Y-105267000D01*
X199910204Y-105267000D01*
X199854523Y-105281919D01*
X199778460Y-105302300D01*
X199778456Y-105302302D01*
X199660344Y-105370493D01*
X199660340Y-105370496D01*
X199660340Y-105370497D01*
X199574003Y-105456833D01*
X199518829Y-105482561D01*
X199511072Y-105482900D01*
X199229827Y-105482900D01*
X199172619Y-105462078D01*
X199142179Y-105409355D01*
X199152751Y-105349400D01*
X199161099Y-105334941D01*
X199196400Y-105203196D01*
X199196400Y-105066804D01*
X199161099Y-104935059D01*
X199129774Y-104880803D01*
X199092906Y-104816944D01*
X199092904Y-104816942D01*
X199092903Y-104816940D01*
X198996460Y-104720497D01*
X198996457Y-104720495D01*
X198996455Y-104720493D01*
X198878343Y-104652302D01*
X198878342Y-104652301D01*
X198878341Y-104652301D01*
X198842001Y-104642563D01*
X198824863Y-104637971D01*
X198774994Y-104603051D01*
X198758900Y-104552004D01*
X198758900Y-104460690D01*
X198758900Y-104460684D01*
X198752468Y-104411827D01*
X198743467Y-104392525D01*
X198702467Y-104304599D01*
X198702465Y-104304597D01*
X198702465Y-104304596D01*
X198618804Y-104220935D01*
X198618802Y-104220934D01*
X198618800Y-104220932D01*
X198511574Y-104170932D01*
X198511575Y-104170932D01*
X198462719Y-104164500D01*
X198462716Y-104164500D01*
X198114084Y-104164500D01*
X198114080Y-104164500D01*
X198065225Y-104170932D01*
X197957999Y-104220932D01*
X197874333Y-104304598D01*
X197859061Y-104337350D01*
X197816013Y-104380398D01*
X197755365Y-104385703D01*
X197705495Y-104350784D01*
X197697739Y-104337350D01*
X197682466Y-104304598D01*
X197682465Y-104304597D01*
X197682465Y-104304596D01*
X197598804Y-104220935D01*
X197598802Y-104220934D01*
X197598800Y-104220932D01*
X197491574Y-104170932D01*
X197491575Y-104170932D01*
X197442719Y-104164500D01*
X197442716Y-104164500D01*
X197272000Y-104164500D01*
X197214792Y-104143678D01*
X197209067Y-104138433D01*
X196321884Y-103251250D01*
X196314207Y-103242494D01*
X196277556Y-103194726D01*
X196265941Y-103174608D01*
X196245147Y-103124404D01*
X196239138Y-103101968D01*
X196231260Y-103042115D01*
X196230500Y-103030500D01*
X196230501Y-103014999D01*
X196230503Y-102988638D01*
X196230501Y-102988634D01*
X196230502Y-102981489D01*
X196230481Y-102981233D01*
X196230483Y-102962546D01*
X196208276Y-102822300D01*
X196190235Y-102766768D01*
X196164404Y-102687255D01*
X196099947Y-102560740D01*
X196099941Y-102560729D01*
X196016490Y-102445860D01*
X196016486Y-102445855D01*
X195998268Y-102427636D01*
X195998268Y-102427635D01*
X195994405Y-102423772D01*
X195994404Y-102423770D01*
X195963865Y-102393231D01*
X195947577Y-102376941D01*
X195928282Y-102357644D01*
X195928250Y-102357616D01*
X195754967Y-102184333D01*
X195729239Y-102129157D01*
X195728900Y-102121400D01*
X195728900Y-101555255D01*
X195728899Y-101555247D01*
X195717267Y-101496768D01*
X195672954Y-101430451D01*
X195672952Y-101430448D01*
X195672948Y-101430445D01*
X195606631Y-101386132D01*
X195548152Y-101374500D01*
X195548148Y-101374500D01*
X193108652Y-101374500D01*
X193108647Y-101374500D01*
X193050168Y-101386132D01*
X192983851Y-101430445D01*
X192983845Y-101430451D01*
X192939532Y-101496768D01*
X192927900Y-101555247D01*
X192927900Y-102334752D01*
X192939532Y-102393231D01*
X192983845Y-102459548D01*
X192983848Y-102459552D01*
X192983851Y-102459554D01*
X193053360Y-102506000D01*
X193089358Y-102555096D01*
X193085375Y-102615846D01*
X193053360Y-102654000D01*
X192983851Y-102700445D01*
X192983845Y-102700451D01*
X192939532Y-102766768D01*
X192927900Y-102825247D01*
X192927900Y-103604752D01*
X192939532Y-103663231D01*
X192974636Y-103715766D01*
X192983848Y-103729552D01*
X192983851Y-103729554D01*
X193053360Y-103776000D01*
X193089358Y-103825096D01*
X193085375Y-103885846D01*
X193053360Y-103924000D01*
X192983851Y-103970445D01*
X192983845Y-103970451D01*
X192939532Y-104036768D01*
X192927900Y-104095247D01*
X192927900Y-104874752D01*
X192939532Y-104933231D01*
X192983845Y-104999548D01*
X192983848Y-104999552D01*
X192983851Y-104999554D01*
X193053360Y-105046000D01*
X193089358Y-105095096D01*
X193085375Y-105155846D01*
X193053360Y-105194000D01*
X192983851Y-105240445D01*
X192983845Y-105240451D01*
X192939532Y-105306768D01*
X192927900Y-105365247D01*
X192927900Y-105871400D01*
X192921254Y-105889657D01*
X192919561Y-105909014D01*
X192908417Y-105924928D01*
X192907078Y-105928608D01*
X192901832Y-105934333D01*
X192848344Y-105987820D01*
X192848329Y-105987833D01*
X192848330Y-105987834D01*
X192840023Y-105996141D01*
X192840002Y-105996150D01*
X192748429Y-106087729D01*
X192748428Y-106087730D01*
X192642304Y-106233800D01*
X192642300Y-106233807D01*
X192560337Y-106394673D01*
X192560336Y-106394676D01*
X192504544Y-106566392D01*
X192476300Y-106744723D01*
X192476300Y-107458472D01*
X192476301Y-107458481D01*
X192508998Y-107601737D01*
X192520505Y-107625631D01*
X192572758Y-107734133D01*
X192572759Y-107734134D01*
X192572762Y-107734139D01*
X192664371Y-107849014D01*
X192664374Y-107849017D01*
X192664378Y-107849022D01*
X192664382Y-107849025D01*
X192664385Y-107849028D01*
X192779260Y-107940637D01*
X192779262Y-107940638D01*
X192779267Y-107940642D01*
X192911662Y-108004401D01*
X193054926Y-108037100D01*
X193088628Y-108037100D01*
X194730552Y-108037100D01*
X194766682Y-108037100D01*
X194789709Y-108040131D01*
X194798083Y-108042374D01*
X194847956Y-108077288D01*
X194861024Y-108105309D01*
X194863268Y-108113684D01*
X194866300Y-108136718D01*
X194866300Y-108955766D01*
X194845478Y-109012974D01*
X194840233Y-109018699D01*
X194837997Y-109020934D01*
X194837996Y-109020935D01*
X194795158Y-109063773D01*
X194754332Y-109104599D01*
X194704332Y-109211825D01*
X194697900Y-109260680D01*
X194697900Y-109260684D01*
X194697900Y-109709316D01*
X194700433Y-109728560D01*
X194700924Y-109732283D01*
X194687747Y-109791720D01*
X194639448Y-109828781D01*
X194612685Y-109832900D01*
X194167900Y-109832900D01*
X194110692Y-109812078D01*
X194080252Y-109759355D01*
X194078900Y-109743900D01*
X194078900Y-109365255D01*
X194078899Y-109365247D01*
X194067267Y-109306768D01*
X194022954Y-109240451D01*
X194022952Y-109240448D01*
X194022948Y-109240445D01*
X193956631Y-109196132D01*
X193898152Y-109184500D01*
X193898148Y-109184500D01*
X192858652Y-109184500D01*
X192858647Y-109184500D01*
X192800168Y-109196132D01*
X192733851Y-109240445D01*
X192733845Y-109240451D01*
X192689532Y-109306768D01*
X192677900Y-109365247D01*
X192677900Y-109443900D01*
X192657078Y-109501108D01*
X192604355Y-109531548D01*
X192588900Y-109532900D01*
X190067900Y-109532900D01*
X190010692Y-109512078D01*
X189980252Y-109459355D01*
X189978900Y-109443900D01*
X189978900Y-109365255D01*
X189978899Y-109365247D01*
X189967267Y-109306768D01*
X189922954Y-109240451D01*
X189922952Y-109240448D01*
X189922948Y-109240445D01*
X189856631Y-109196132D01*
X189798152Y-109184500D01*
X189798148Y-109184500D01*
X188758652Y-109184500D01*
X188758647Y-109184500D01*
X188700168Y-109196132D01*
X188633851Y-109240445D01*
X188633845Y-109240451D01*
X188589532Y-109306768D01*
X188577900Y-109365247D01*
X188178900Y-109365247D01*
X188178900Y-101546067D01*
X188425500Y-101546067D01*
X188425500Y-106459158D01*
X188454432Y-106604611D01*
X188454433Y-106604615D01*
X188511188Y-106741631D01*
X188593580Y-106864941D01*
X188593581Y-106864942D01*
X188593584Y-106864946D01*
X188698454Y-106969816D01*
X188698457Y-106969818D01*
X188698458Y-106969819D01*
X188821768Y-107052211D01*
X188958784Y-107108966D01*
X188962974Y-107110237D01*
X188962381Y-107112190D01*
X189008283Y-107140013D01*
X189027900Y-107195754D01*
X189027900Y-107414752D01*
X189039532Y-107473231D01*
X189083845Y-107539548D01*
X189083848Y-107539552D01*
X189083851Y-107539554D01*
X189150168Y-107583867D01*
X189207090Y-107595189D01*
X189208652Y-107595500D01*
X189208656Y-107595500D01*
X191648144Y-107595500D01*
X191648148Y-107595500D01*
X191706631Y-107583867D01*
X191772952Y-107539552D01*
X191817267Y-107473231D01*
X191828900Y-107414748D01*
X191828900Y-106635252D01*
X191819817Y-106589587D01*
X191817267Y-106576768D01*
X191772954Y-106510451D01*
X191772952Y-106510448D01*
X191772945Y-106510443D01*
X191702989Y-106463699D01*
X191666991Y-106414603D01*
X191670974Y-106353854D01*
X191702990Y-106315698D01*
X191772590Y-106269192D01*
X191772593Y-106269189D01*
X191816796Y-106203035D01*
X191828399Y-106144702D01*
X191828400Y-106144694D01*
X191828400Y-105880001D01*
X191828399Y-105880000D01*
X190517400Y-105880000D01*
X190495670Y-105872091D01*
X190472900Y-105868076D01*
X190467738Y-105861924D01*
X190460192Y-105859178D01*
X190448630Y-105839153D01*
X190433767Y-105821440D01*
X190431728Y-105809878D01*
X190429752Y-105806455D01*
X190428400Y-105791000D01*
X190428400Y-105755000D01*
X190392400Y-105755000D01*
X190335192Y-105734178D01*
X190304752Y-105681455D01*
X190303400Y-105666000D01*
X190303400Y-105185001D01*
X190301332Y-105182933D01*
X190290010Y-105158652D01*
X190276617Y-105135455D01*
X190277323Y-105131445D01*
X190275604Y-105127757D01*
X190282537Y-105101880D01*
X190287189Y-105075500D01*
X190290306Y-105072884D01*
X190291360Y-105068952D01*
X190301332Y-105057067D01*
X190303400Y-105054999D01*
X190553400Y-105054999D01*
X190555468Y-105057067D01*
X190566789Y-105081347D01*
X190580183Y-105104545D01*
X190579476Y-105108554D01*
X190581196Y-105112243D01*
X190574262Y-105138119D01*
X190569611Y-105164500D01*
X190565897Y-105169339D01*
X190565440Y-105171048D01*
X190563596Y-105172338D01*
X190555468Y-105182933D01*
X190553400Y-105185001D01*
X190553400Y-105630000D01*
X191828399Y-105630000D01*
X191828400Y-105629999D01*
X191828400Y-105365305D01*
X191828399Y-105365297D01*
X191816796Y-105306964D01*
X191772593Y-105240810D01*
X191772588Y-105240805D01*
X191702540Y-105194001D01*
X191666541Y-105144905D01*
X191670522Y-105084156D01*
X191702540Y-105045999D01*
X191772588Y-104999194D01*
X191772593Y-104999189D01*
X191816796Y-104933035D01*
X191828399Y-104874702D01*
X191828400Y-104874694D01*
X191828400Y-104610001D01*
X191828399Y-104610000D01*
X190553400Y-104610000D01*
X190553400Y-105054999D01*
X190303400Y-105054999D01*
X190303400Y-104574000D01*
X190324222Y-104516792D01*
X190376945Y-104486352D01*
X190392400Y-104485000D01*
X190428400Y-104485000D01*
X190428400Y-104449000D01*
X190449222Y-104391792D01*
X190501945Y-104361352D01*
X190517400Y-104360000D01*
X191828399Y-104360000D01*
X191828400Y-104359999D01*
X191828400Y-104095305D01*
X191828399Y-104095297D01*
X191816796Y-104036964D01*
X191772593Y-103970810D01*
X191772586Y-103970803D01*
X191702990Y-103924300D01*
X191666991Y-103875204D01*
X191670974Y-103814455D01*
X191702990Y-103776299D01*
X191706629Y-103773867D01*
X191706631Y-103773867D01*
X191772952Y-103729552D01*
X191817267Y-103663231D01*
X191824944Y-103624637D01*
X191856527Y-103572590D01*
X191912234Y-103553000D01*
X191946594Y-103553000D01*
X191946596Y-103553000D01*
X192078341Y-103517699D01*
X192196460Y-103449503D01*
X192292903Y-103353060D01*
X192361099Y-103234941D01*
X192396400Y-103103196D01*
X192396400Y-102966804D01*
X192361099Y-102835059D01*
X192307631Y-102742449D01*
X192292906Y-102716944D01*
X192292904Y-102716942D01*
X192292903Y-102716940D01*
X192196460Y-102620497D01*
X192196457Y-102620495D01*
X192196455Y-102620493D01*
X192078343Y-102552302D01*
X192078339Y-102552300D01*
X192017196Y-102535917D01*
X191946596Y-102517000D01*
X191899199Y-102517000D01*
X191841991Y-102496178D01*
X191811551Y-102443455D01*
X191816096Y-102401936D01*
X191815557Y-102401829D01*
X191816784Y-102395659D01*
X191816972Y-102393944D01*
X191817267Y-102393231D01*
X191828899Y-102334752D01*
X191828900Y-102334748D01*
X191828900Y-101555252D01*
X191817267Y-101496769D01*
X191817267Y-101496768D01*
X191772954Y-101430451D01*
X191772952Y-101430448D01*
X191772948Y-101430445D01*
X191706631Y-101386132D01*
X191648152Y-101374500D01*
X191648148Y-101374500D01*
X191531943Y-101374500D01*
X191474735Y-101353678D01*
X191444295Y-101300955D01*
X191454866Y-101241001D01*
X191485151Y-101188545D01*
X191516099Y-101134941D01*
X191551400Y-101003196D01*
X191551400Y-100881098D01*
X191572222Y-100823890D01*
X191577455Y-100818178D01*
X191871001Y-100524632D01*
X191874575Y-100521254D01*
X192064806Y-100351257D01*
X192072590Y-100345050D01*
X192278598Y-100198882D01*
X192287031Y-100193583D01*
X192508108Y-100071400D01*
X192517086Y-100067076D01*
X192750449Y-99970415D01*
X192759855Y-99967123D01*
X193002591Y-99897194D01*
X193012294Y-99894980D01*
X193089645Y-99881837D01*
X193149530Y-99892781D01*
X193167479Y-99906642D01*
X193210340Y-99949503D01*
X193210342Y-99949504D01*
X193210344Y-99949506D01*
X193266886Y-99982150D01*
X193328459Y-100017699D01*
X193460204Y-100053000D01*
X193460206Y-100053000D01*
X193596594Y-100053000D01*
X193596596Y-100053000D01*
X193728341Y-100017699D01*
X193783270Y-99985985D01*
X193843223Y-99975414D01*
X193895947Y-100005853D01*
X193915673Y-100049139D01*
X193918679Y-100068123D01*
X193918680Y-100068124D01*
X193918680Y-100068125D01*
X193918681Y-100068126D01*
X193979872Y-100188220D01*
X194075180Y-100283528D01*
X194195274Y-100344719D01*
X194195275Y-100344719D01*
X194195276Y-100344720D01*
X194294911Y-100360500D01*
X194294912Y-100360500D01*
X194667958Y-100360500D01*
X194686212Y-100367143D01*
X194705563Y-100368835D01*
X194721484Y-100379982D01*
X194725166Y-100381322D01*
X194730884Y-100386561D01*
X194735257Y-100390933D01*
X194761714Y-100417390D01*
X194761726Y-100417397D01*
X194765730Y-100421400D01*
X194765730Y-100421401D01*
X194765736Y-100421406D01*
X194796632Y-100452301D01*
X194808515Y-100464184D01*
X194987244Y-100601328D01*
X195182344Y-100713970D01*
X195182350Y-100713972D01*
X195182351Y-100713973D01*
X195201049Y-100721718D01*
X195390478Y-100800183D01*
X195608084Y-100858492D01*
X195831440Y-100887899D01*
X195887260Y-100887899D01*
X195897623Y-100887899D01*
X195897625Y-100887900D01*
X195944081Y-100887900D01*
X195999975Y-100887901D01*
X195999978Y-100887900D01*
X197022506Y-100887900D01*
X197075493Y-100887900D01*
X197081314Y-100888091D01*
X197293111Y-100901972D01*
X197304647Y-100903490D01*
X197509984Y-100944334D01*
X197521206Y-100947341D01*
X197719452Y-101014635D01*
X197730202Y-101019088D01*
X197917960Y-101111678D01*
X197928035Y-101117495D01*
X198102103Y-101233801D01*
X198111331Y-101240882D01*
X198260428Y-101371634D01*
X198270787Y-101380718D01*
X198275039Y-101384699D01*
X202269930Y-105379590D01*
X202295658Y-105434766D01*
X202291641Y-105470025D01*
X202265032Y-105551919D01*
X202265032Y-105686708D01*
X202306682Y-105814895D01*
X202365974Y-105896503D01*
X202365976Y-105896505D01*
X202365979Y-105896509D01*
X202766891Y-106297421D01*
X202766894Y-106297423D01*
X202766896Y-106297425D01*
X202848504Y-106356717D01*
X202889961Y-106370187D01*
X202976693Y-106398368D01*
X203111475Y-106398368D01*
X203111479Y-106398368D01*
X203161325Y-106382171D01*
X203222166Y-106384295D01*
X203251760Y-106403882D01*
X203640791Y-106792913D01*
X203666519Y-106848089D01*
X203650763Y-106906894D01*
X203640791Y-106918778D01*
X203511548Y-107048021D01*
X203470163Y-107109960D01*
X203470160Y-107109967D01*
X203469394Y-107113819D01*
X203437807Y-107165864D01*
X203399473Y-107183739D01*
X203396449Y-107184340D01*
X203334635Y-107225642D01*
X203158382Y-107401895D01*
X203117080Y-107463710D01*
X203097677Y-107561256D01*
X203098833Y-107567070D01*
X203098835Y-107567071D01*
X203535811Y-107567071D01*
X203557540Y-107574979D01*
X203580311Y-107578995D01*
X203585472Y-107585146D01*
X203593019Y-107587893D01*
X203604580Y-107607917D01*
X203619444Y-107625631D01*
X203621482Y-107637192D01*
X203623459Y-107640616D01*
X203624811Y-107656071D01*
X203624811Y-107728071D01*
X203603989Y-107785279D01*
X203551266Y-107815719D01*
X203535811Y-107817071D01*
X203254837Y-107817071D01*
X203588111Y-108150345D01*
X203613839Y-108205521D01*
X203598083Y-108264326D01*
X203588111Y-108276210D01*
X203276850Y-108587472D01*
X203221674Y-108613201D01*
X203186414Y-108609184D01*
X203075134Y-108573027D01*
X203075133Y-108573027D01*
X202942328Y-108573027D01*
X202942324Y-108573027D01*
X202816024Y-108614064D01*
X202816021Y-108614066D01*
X202735613Y-108672486D01*
X202379580Y-109028519D01*
X202321160Y-109108927D01*
X202321158Y-109108930D01*
X202280121Y-109235230D01*
X202280121Y-109368042D01*
X202321158Y-109494342D01*
X202321160Y-109494345D01*
X202379580Y-109574753D01*
X202379582Y-109574755D01*
X202379585Y-109574759D01*
X202788641Y-109983815D01*
X202788644Y-109983817D01*
X202788646Y-109983819D01*
X202869054Y-110042239D01*
X202869057Y-110042241D01*
X202995357Y-110083278D01*
X202995361Y-110083279D01*
X203128166Y-110083279D01*
X203254472Y-110042240D01*
X203334886Y-109983815D01*
X203690909Y-109627792D01*
X203749334Y-109547378D01*
X203790373Y-109421072D01*
X203790373Y-109288267D01*
X203754215Y-109176983D01*
X203756340Y-109116141D01*
X203775927Y-109086548D01*
X204086835Y-108775641D01*
X204142010Y-108749913D01*
X204200815Y-108765670D01*
X204212693Y-108775635D01*
X204642461Y-109205403D01*
X204704403Y-109246791D01*
X204802144Y-109266233D01*
X204899884Y-109246791D01*
X204961827Y-109205403D01*
X205138143Y-109029087D01*
X205179531Y-108967144D01*
X205180190Y-108963829D01*
X205182439Y-108960121D01*
X205182886Y-108959044D01*
X205183051Y-108959112D01*
X205211766Y-108911783D01*
X205250120Y-108893897D01*
X205253437Y-108893238D01*
X205315380Y-108851850D01*
X205491696Y-108675534D01*
X205533084Y-108613591D01*
X205533744Y-108610272D01*
X205535996Y-108606559D01*
X205536439Y-108605492D01*
X205536603Y-108605560D01*
X205565324Y-108558226D01*
X205603671Y-108540344D01*
X205606991Y-108539684D01*
X205668934Y-108498296D01*
X205845250Y-108321980D01*
X205886638Y-108260037D01*
X205887402Y-108256191D01*
X205918981Y-108204144D01*
X205957334Y-108186259D01*
X205960351Y-108185659D01*
X206022164Y-108144357D01*
X206198417Y-107968104D01*
X206239719Y-107906289D01*
X206259122Y-107808743D01*
X206257966Y-107802929D01*
X205820989Y-107802929D01*
X205799259Y-107795020D01*
X205776489Y-107791005D01*
X205771327Y-107784853D01*
X205763781Y-107782107D01*
X205752219Y-107762082D01*
X205737356Y-107744369D01*
X205735317Y-107732807D01*
X205733341Y-107729384D01*
X205731989Y-107713929D01*
X205731989Y-107677929D01*
X205695989Y-107677929D01*
X205638781Y-107657107D01*
X205608341Y-107604384D01*
X205606989Y-107588929D01*
X205606989Y-107552929D01*
X205856989Y-107552929D01*
X206101963Y-107552929D01*
X205856989Y-107307955D01*
X205856989Y-107552929D01*
X205606989Y-107552929D01*
X205606989Y-107245291D01*
X205621315Y-107198078D01*
X205620890Y-107197833D01*
X205621944Y-107196006D01*
X205621998Y-107195830D01*
X205622329Y-107195331D01*
X205622347Y-107195309D01*
X205743791Y-106984957D01*
X205836739Y-106760553D01*
X205850573Y-106708920D01*
X206376859Y-106708920D01*
X206376859Y-106825902D01*
X206414840Y-106936534D01*
X206414841Y-106936536D01*
X206414842Y-106936537D01*
X206455999Y-106991734D01*
X206715168Y-107250903D01*
X206770365Y-107292060D01*
X206770366Y-107292060D01*
X206770367Y-107292061D01*
X206876368Y-107328452D01*
X206881002Y-107330043D01*
X206881003Y-107330043D01*
X206997978Y-107330043D01*
X206997979Y-107330043D01*
X207108617Y-107292060D01*
X207163813Y-107250903D01*
X207935635Y-106479081D01*
X207976792Y-106423885D01*
X208014775Y-106313247D01*
X208014775Y-106196270D01*
X208010906Y-106184999D01*
X207976793Y-106085635D01*
X207975664Y-106084121D01*
X207935635Y-106030436D01*
X207676466Y-105771267D01*
X207621269Y-105730110D01*
X207621268Y-105730109D01*
X207621266Y-105730108D01*
X207510634Y-105692127D01*
X207510632Y-105692127D01*
X207393655Y-105692127D01*
X207393652Y-105692127D01*
X207283019Y-105730109D01*
X207283018Y-105730109D01*
X207283017Y-105730110D01*
X207255901Y-105750329D01*
X207227823Y-105771265D01*
X206455997Y-106543091D01*
X206435061Y-106571169D01*
X206416164Y-106596513D01*
X206414841Y-106598287D01*
X206376859Y-106708920D01*
X205850573Y-106708920D01*
X205899601Y-106525936D01*
X205931302Y-106285121D01*
X205931300Y-106163675D01*
X205931300Y-106139890D01*
X205931300Y-105833277D01*
X205952122Y-105776069D01*
X205957356Y-105770355D01*
X206592133Y-105135579D01*
X206633290Y-105080383D01*
X206671273Y-104969745D01*
X206671273Y-104852768D01*
X206665315Y-104835413D01*
X206633291Y-104742133D01*
X206617158Y-104720497D01*
X206592133Y-104686934D01*
X206332964Y-104427765D01*
X206277767Y-104386608D01*
X206277766Y-104386607D01*
X206277764Y-104386606D01*
X206167132Y-104348625D01*
X206167130Y-104348625D01*
X206050153Y-104348625D01*
X206050150Y-104348625D01*
X205939517Y-104386607D01*
X205939516Y-104386607D01*
X205939515Y-104386608D01*
X205932563Y-104391792D01*
X205884321Y-104427763D01*
X205884311Y-104427772D01*
X205810878Y-104501205D01*
X205755702Y-104526933D01*
X205696897Y-104511176D01*
X205685013Y-104501205D01*
X205316857Y-104133049D01*
X205294765Y-104089684D01*
X205293933Y-104089955D01*
X205292225Y-104084698D01*
X205291884Y-104084029D01*
X205291768Y-104083299D01*
X205291768Y-104083293D01*
X205271950Y-104022300D01*
X205250117Y-103955104D01*
X205190825Y-103873496D01*
X205190823Y-103873494D01*
X205190821Y-103873491D01*
X204902329Y-103584999D01*
X205255177Y-103584999D01*
X205367220Y-103697041D01*
X205367219Y-103697041D01*
X205448736Y-103756267D01*
X205576768Y-103797867D01*
X205576773Y-103797868D01*
X205711399Y-103797868D01*
X205711400Y-103797867D01*
X205839435Y-103756266D01*
X205920955Y-103697039D01*
X206015316Y-103602676D01*
X205626408Y-103213768D01*
X205255177Y-103584999D01*
X204902329Y-103584999D01*
X204789909Y-103472579D01*
X204789905Y-103472576D01*
X204789903Y-103472574D01*
X204708295Y-103413282D01*
X204580108Y-103371632D01*
X204580107Y-103371632D01*
X204445321Y-103371632D01*
X204317134Y-103413283D01*
X204317133Y-103413283D01*
X204317132Y-103413284D01*
X204317128Y-103413286D01*
X204235525Y-103472574D01*
X203869958Y-103838141D01*
X203810670Y-103919744D01*
X203810668Y-103919748D01*
X203810667Y-103919750D01*
X203771738Y-104039560D01*
X203769016Y-104047938D01*
X203769016Y-104182724D01*
X203810666Y-104310911D01*
X203869958Y-104392519D01*
X203869960Y-104392521D01*
X203869963Y-104392525D01*
X204270875Y-104793437D01*
X204270878Y-104793439D01*
X204270880Y-104793441D01*
X204352488Y-104852733D01*
X204405363Y-104869913D01*
X204480677Y-104894384D01*
X204615460Y-104894384D01*
X204615463Y-104894384D01*
X204743650Y-104852733D01*
X204825264Y-104793437D01*
X204839244Y-104779456D01*
X204894415Y-104753726D01*
X204953221Y-104769479D01*
X204965110Y-104779454D01*
X205185937Y-105000281D01*
X205211665Y-105055457D01*
X205195909Y-105114262D01*
X205185937Y-105126146D01*
X205112504Y-105199579D01*
X205112495Y-105199589D01*
X205095941Y-105221790D01*
X205074808Y-105250133D01*
X205071339Y-105254785D01*
X205033357Y-105365418D01*
X205033357Y-105482400D01*
X205071338Y-105593032D01*
X205071339Y-105593034D01*
X205071340Y-105593035D01*
X205112497Y-105648232D01*
X205199433Y-105735168D01*
X205225161Y-105790343D01*
X205225500Y-105798100D01*
X205225500Y-106107787D01*
X205225499Y-106107791D01*
X205225499Y-106123680D01*
X205225499Y-106140348D01*
X205225499Y-106160186D01*
X205225225Y-106167167D01*
X205211929Y-106336150D01*
X205209744Y-106349945D01*
X205186680Y-106446015D01*
X205153078Y-106496782D01*
X205094706Y-106514073D01*
X205038876Y-106489798D01*
X205037206Y-106488172D01*
X204810471Y-106261437D01*
X204810471Y-106542411D01*
X204802562Y-106564140D01*
X204798547Y-106586911D01*
X204792395Y-106592072D01*
X204789649Y-106599619D01*
X204769624Y-106611180D01*
X204751911Y-106626044D01*
X204740349Y-106628082D01*
X204736926Y-106630059D01*
X204721471Y-106631411D01*
X204649471Y-106631411D01*
X204592263Y-106610589D01*
X204561823Y-106557866D01*
X204560471Y-106542411D01*
X204560471Y-106105433D01*
X204554654Y-106104277D01*
X204457110Y-106123680D01*
X204395295Y-106164982D01*
X204266087Y-106294191D01*
X204210911Y-106319919D01*
X204152106Y-106304163D01*
X204140221Y-106294191D01*
X203772471Y-105926441D01*
X203746743Y-105871265D01*
X203750759Y-105836012D01*
X203787784Y-105722063D01*
X203787784Y-105587277D01*
X203753870Y-105482900D01*
X203746133Y-105459088D01*
X203686841Y-105377480D01*
X203686839Y-105377478D01*
X203686837Y-105377475D01*
X203285925Y-104976563D01*
X203285921Y-104976560D01*
X203285919Y-104976558D01*
X203204311Y-104917266D01*
X203076124Y-104875616D01*
X203076123Y-104875616D01*
X202941337Y-104875616D01*
X202941335Y-104875616D01*
X202859441Y-104902225D01*
X202798598Y-104900100D01*
X202769006Y-104880514D01*
X200840491Y-102951999D01*
X204865532Y-102951999D01*
X204865532Y-103086631D01*
X204907133Y-103214665D01*
X204907133Y-103214666D01*
X204966355Y-103296177D01*
X204966357Y-103296180D01*
X205078399Y-103408221D01*
X205449628Y-103036992D01*
X205803184Y-103036992D01*
X206192092Y-103425899D01*
X206286457Y-103331534D01*
X206345680Y-103250022D01*
X206345681Y-103250020D01*
X206387283Y-103121984D01*
X206387284Y-103121983D01*
X206387284Y-102987356D01*
X206387283Y-102987352D01*
X206345682Y-102859318D01*
X206345682Y-102859317D01*
X206286460Y-102777806D01*
X206286458Y-102777803D01*
X206174415Y-102665761D01*
X205803184Y-103036992D01*
X205449628Y-103036992D01*
X205449630Y-103036990D01*
X205060722Y-102648083D01*
X204966358Y-102742449D01*
X204907135Y-102823961D01*
X204907134Y-102823963D01*
X204865532Y-102951999D01*
X200840491Y-102951999D01*
X200359798Y-102471306D01*
X205237499Y-102471306D01*
X205626406Y-102860214D01*
X205997637Y-102488983D01*
X205885595Y-102376942D01*
X205885596Y-102376942D01*
X205804079Y-102317716D01*
X205676047Y-102276116D01*
X205541415Y-102276116D01*
X205413380Y-102317717D01*
X205331864Y-102376941D01*
X205237499Y-102471306D01*
X200359798Y-102471306D01*
X199198493Y-101310001D01*
X205153401Y-101310001D01*
X205153401Y-101468444D01*
X205169162Y-101567972D01*
X205230278Y-101687918D01*
X205325478Y-101783118D01*
X205445435Y-101844239D01*
X205544948Y-101859999D01*
X205678398Y-101859999D01*
X205678400Y-101859998D01*
X205678400Y-101310001D01*
X205928400Y-101310001D01*
X205928400Y-101859998D01*
X205928401Y-101859999D01*
X206061845Y-101859999D01*
X206161372Y-101844237D01*
X206281318Y-101783121D01*
X206376518Y-101687921D01*
X206437639Y-101567964D01*
X206437639Y-101567963D01*
X206453400Y-101468451D01*
X206453400Y-101310001D01*
X206453399Y-101310000D01*
X205928401Y-101310000D01*
X205928400Y-101310001D01*
X205678400Y-101310001D01*
X205678399Y-101310000D01*
X205153402Y-101310000D01*
X205153401Y-101310001D01*
X199198493Y-101310001D01*
X198811698Y-100923206D01*
X198811697Y-100923204D01*
X198797028Y-100908535D01*
X198797015Y-100908508D01*
X198790055Y-100901548D01*
X205153400Y-100901548D01*
X205153400Y-101059999D01*
X205153401Y-101060000D01*
X205678399Y-101060000D01*
X205678400Y-101059999D01*
X205678400Y-100510001D01*
X205928400Y-100510001D01*
X205928400Y-101059999D01*
X205928401Y-101060000D01*
X206453398Y-101060000D01*
X206453399Y-101059999D01*
X206453399Y-100901555D01*
X206437637Y-100802027D01*
X206376521Y-100682081D01*
X206281321Y-100586881D01*
X206161364Y-100525760D01*
X206061852Y-100510000D01*
X205928401Y-100510000D01*
X205928400Y-100510001D01*
X205678400Y-100510001D01*
X205678399Y-100510000D01*
X205544955Y-100510000D01*
X205445427Y-100525762D01*
X205325481Y-100586878D01*
X205230281Y-100682078D01*
X205169160Y-100802035D01*
X205169160Y-100802036D01*
X205153400Y-100901548D01*
X198790055Y-100901548D01*
X198764480Y-100875974D01*
X198677060Y-100788555D01*
X198466713Y-100620813D01*
X198238908Y-100477677D01*
X198238907Y-100477676D01*
X198238903Y-100477674D01*
X198238901Y-100477673D01*
X197996515Y-100360948D01*
X197996511Y-100360946D01*
X197996510Y-100360946D01*
X197936649Y-100340000D01*
X197742572Y-100272090D01*
X197593900Y-100238157D01*
X197480270Y-100212223D01*
X197480267Y-100212222D01*
X197480260Y-100212221D01*
X197212927Y-100182100D01*
X197212921Y-100182100D01*
X197124860Y-100182100D01*
X196823053Y-100182100D01*
X196765845Y-100161278D01*
X196735405Y-100108555D01*
X196737746Y-100075078D01*
X196736543Y-100074888D01*
X196753400Y-99968451D01*
X196753400Y-99810001D01*
X196753399Y-99810000D01*
X195453402Y-99810000D01*
X195453401Y-99810001D01*
X195453401Y-99884962D01*
X195445366Y-99907036D01*
X195441086Y-99930133D01*
X195435191Y-99934991D01*
X195432579Y-99942170D01*
X195412235Y-99953915D01*
X195394110Y-99968857D01*
X195386471Y-99968790D01*
X195379856Y-99972610D01*
X195356722Y-99968530D01*
X195333232Y-99968326D01*
X195323692Y-99962706D01*
X195319901Y-99962038D01*
X195306600Y-99952638D01*
X195235099Y-99891570D01*
X195205121Y-99838583D01*
X195203900Y-99823894D01*
X195203900Y-99401548D01*
X195453400Y-99401548D01*
X195453400Y-99559999D01*
X195453401Y-99560000D01*
X195978399Y-99560000D01*
X195978400Y-99559999D01*
X195978400Y-99010001D01*
X196228400Y-99010001D01*
X196228400Y-99559999D01*
X196228401Y-99560000D01*
X196753398Y-99560000D01*
X196753399Y-99559999D01*
X196753399Y-99401555D01*
X196737637Y-99302027D01*
X196676521Y-99182081D01*
X196581321Y-99086881D01*
X196461364Y-99025760D01*
X196361852Y-99010000D01*
X196228401Y-99010000D01*
X196228400Y-99010001D01*
X195978400Y-99010001D01*
X195978399Y-99010000D01*
X195844955Y-99010000D01*
X195745427Y-99025762D01*
X195625481Y-99086878D01*
X195530281Y-99182078D01*
X195469160Y-99302035D01*
X195469160Y-99302036D01*
X195453400Y-99401548D01*
X195203900Y-99401548D01*
X195203900Y-99401511D01*
X195188120Y-99301876D01*
X195188119Y-99301875D01*
X195188119Y-99301874D01*
X195126928Y-99181780D01*
X195031620Y-99086472D01*
X194911526Y-99025281D01*
X194911525Y-99025280D01*
X194911524Y-99025280D01*
X194911523Y-99025279D01*
X194811889Y-99009500D01*
X194811888Y-99009500D01*
X194497674Y-99009500D01*
X194440466Y-98988678D01*
X194421336Y-98966255D01*
X194412214Y-98951036D01*
X194319071Y-98795635D01*
X194281963Y-98733723D01*
X194277846Y-98726020D01*
X194156008Y-98468413D01*
X194152666Y-98460344D01*
X194134653Y-98410001D01*
X210078401Y-98410001D01*
X210078401Y-99589211D01*
X210081250Y-99619602D01*
X210126055Y-99747648D01*
X210206603Y-99856786D01*
X210206613Y-99856796D01*
X210315752Y-99937345D01*
X210443797Y-99982149D01*
X210443800Y-99982150D01*
X210474189Y-99984999D01*
X210953398Y-99984999D01*
X210953400Y-99984998D01*
X210953400Y-98410001D01*
X211203400Y-98410001D01*
X211203400Y-99984998D01*
X211203401Y-99984999D01*
X211682610Y-99984999D01*
X211682611Y-99984998D01*
X211713002Y-99982149D01*
X211841048Y-99937344D01*
X211950186Y-99856796D01*
X211950196Y-99856786D01*
X212030745Y-99747647D01*
X212075549Y-99619602D01*
X212075550Y-99619599D01*
X212078400Y-99589210D01*
X212078400Y-98410001D01*
X212078399Y-98410000D01*
X211203401Y-98410000D01*
X211203400Y-98410001D01*
X210953400Y-98410001D01*
X210953399Y-98410000D01*
X210078402Y-98410000D01*
X210078401Y-98410001D01*
X194134653Y-98410001D01*
X194132190Y-98403118D01*
X194056657Y-98192016D01*
X194054126Y-98183676D01*
X194050803Y-98170410D01*
X194057101Y-98109860D01*
X194087688Y-98074788D01*
X194243055Y-97970977D01*
X194389377Y-97824655D01*
X194504341Y-97652598D01*
X194583530Y-97461420D01*
X194623900Y-97258465D01*
X194623900Y-97051580D01*
X195063400Y-97051580D01*
X195063400Y-97258419D01*
X195103749Y-97461271D01*
X195103750Y-97461273D01*
X195182900Y-97652358D01*
X195182905Y-97652366D01*
X195285583Y-97806037D01*
X195285584Y-97806037D01*
X195682669Y-97408951D01*
X195713301Y-97462007D01*
X195806393Y-97555099D01*
X195859446Y-97585729D01*
X195462361Y-97982815D01*
X195616038Y-98085497D01*
X195616041Y-98085499D01*
X195807126Y-98164649D01*
X195807128Y-98164650D01*
X196009980Y-98204999D01*
X196009989Y-98205000D01*
X196216811Y-98205000D01*
X196216819Y-98204999D01*
X196419671Y-98164650D01*
X196419673Y-98164649D01*
X196610758Y-98085499D01*
X196610761Y-98085497D01*
X196764437Y-97982815D01*
X196764437Y-97982814D01*
X196367353Y-97585729D01*
X196420407Y-97555099D01*
X196513499Y-97462007D01*
X196544129Y-97408953D01*
X196941214Y-97806037D01*
X196941215Y-97806037D01*
X197043897Y-97652361D01*
X197043899Y-97652358D01*
X197123049Y-97461273D01*
X197123050Y-97461271D01*
X197163399Y-97258419D01*
X197163400Y-97258410D01*
X197163400Y-97051587D01*
X197163399Y-97051581D01*
X197163389Y-97051530D01*
X197602900Y-97051530D01*
X197602900Y-97258469D01*
X197643269Y-97461417D01*
X197643270Y-97461420D01*
X197660404Y-97502784D01*
X197722360Y-97652361D01*
X197722459Y-97652598D01*
X197722462Y-97652602D01*
X197837419Y-97824650D01*
X197837420Y-97824651D01*
X197837423Y-97824655D01*
X197983745Y-97970977D01*
X198155802Y-98085941D01*
X198346980Y-98165130D01*
X198549935Y-98205500D01*
X198549939Y-98205500D01*
X198756861Y-98205500D01*
X198756865Y-98205500D01*
X198959820Y-98165130D01*
X199150998Y-98085941D01*
X199323055Y-97970977D01*
X199469377Y-97824655D01*
X199584341Y-97652598D01*
X199663530Y-97461420D01*
X199703900Y-97258465D01*
X199703900Y-97051535D01*
X199703899Y-97051530D01*
X200142900Y-97051530D01*
X200142900Y-97258469D01*
X200183269Y-97461417D01*
X200183270Y-97461420D01*
X200200404Y-97502784D01*
X200262360Y-97652361D01*
X200262459Y-97652598D01*
X200262462Y-97652602D01*
X200377419Y-97824650D01*
X200377420Y-97824651D01*
X200377423Y-97824655D01*
X200523745Y-97970977D01*
X200695802Y-98085941D01*
X200886980Y-98165130D01*
X201089935Y-98205500D01*
X201089939Y-98205500D01*
X201296861Y-98205500D01*
X201296865Y-98205500D01*
X201499820Y-98165130D01*
X201690998Y-98085941D01*
X201863055Y-97970977D01*
X202009377Y-97824655D01*
X202124341Y-97652598D01*
X202203530Y-97461420D01*
X202243900Y-97258465D01*
X202243900Y-97051535D01*
X202243899Y-97051530D01*
X202682900Y-97051530D01*
X202682900Y-97258469D01*
X202723269Y-97461417D01*
X202723270Y-97461420D01*
X202740404Y-97502784D01*
X202802360Y-97652361D01*
X202802459Y-97652598D01*
X202802462Y-97652602D01*
X202917419Y-97824650D01*
X202917420Y-97824651D01*
X202917423Y-97824655D01*
X203063745Y-97970977D01*
X203235802Y-98085941D01*
X203426980Y-98165130D01*
X203629935Y-98205500D01*
X203629939Y-98205500D01*
X203836861Y-98205500D01*
X203836865Y-98205500D01*
X204039820Y-98165130D01*
X204230998Y-98085941D01*
X204403055Y-97970977D01*
X204549377Y-97824655D01*
X204664341Y-97652598D01*
X204743530Y-97461420D01*
X204783900Y-97258465D01*
X204783900Y-97051535D01*
X204783899Y-97051530D01*
X205222900Y-97051530D01*
X205222900Y-97258469D01*
X205263269Y-97461417D01*
X205263270Y-97461420D01*
X205280404Y-97502784D01*
X205342360Y-97652361D01*
X205342459Y-97652598D01*
X205342462Y-97652602D01*
X205457419Y-97824650D01*
X205457420Y-97824651D01*
X205457423Y-97824655D01*
X205603745Y-97970977D01*
X205775802Y-98085941D01*
X205966980Y-98165130D01*
X206169935Y-98205500D01*
X206169939Y-98205500D01*
X206376861Y-98205500D01*
X206376865Y-98205500D01*
X206579820Y-98165130D01*
X206770998Y-98085941D01*
X206943055Y-97970977D01*
X207089377Y-97824655D01*
X207204341Y-97652598D01*
X207283530Y-97461420D01*
X207323900Y-97258465D01*
X207323900Y-97051535D01*
X207309828Y-96980789D01*
X210078400Y-96980789D01*
X210078400Y-98159999D01*
X210078401Y-98160000D01*
X210953399Y-98160000D01*
X210953400Y-98159999D01*
X210953400Y-96585001D01*
X211203400Y-96585001D01*
X211203400Y-98159999D01*
X211203401Y-98160000D01*
X212078398Y-98160000D01*
X212078399Y-98159999D01*
X212078399Y-96980790D01*
X212078398Y-96980788D01*
X212075549Y-96950397D01*
X212030744Y-96822351D01*
X211950196Y-96713213D01*
X211950186Y-96713203D01*
X211841047Y-96632654D01*
X211713002Y-96587850D01*
X211712999Y-96587849D01*
X211682610Y-96585000D01*
X211203401Y-96585000D01*
X211203400Y-96585001D01*
X210953400Y-96585001D01*
X210953399Y-96585000D01*
X210474190Y-96585000D01*
X210474188Y-96585001D01*
X210443797Y-96587850D01*
X210315751Y-96632655D01*
X210206613Y-96713203D01*
X210206603Y-96713213D01*
X210126054Y-96822352D01*
X210081250Y-96950397D01*
X210081249Y-96950400D01*
X210078400Y-96980789D01*
X207309828Y-96980789D01*
X207283530Y-96848580D01*
X207204341Y-96657402D01*
X207101816Y-96503961D01*
X207089380Y-96485349D01*
X207089379Y-96485348D01*
X207089377Y-96485345D01*
X206943055Y-96339023D01*
X206943051Y-96339020D01*
X206943050Y-96339019D01*
X206828088Y-96262205D01*
X206770998Y-96224059D01*
X206770995Y-96224058D01*
X206770994Y-96224057D01*
X206644320Y-96171587D01*
X206579820Y-96144870D01*
X206579818Y-96144869D01*
X206579817Y-96144869D01*
X206376869Y-96104500D01*
X206376865Y-96104500D01*
X206169935Y-96104500D01*
X206169930Y-96104500D01*
X205966982Y-96144869D01*
X205966980Y-96144870D01*
X205775805Y-96224057D01*
X205775797Y-96224062D01*
X205603749Y-96339019D01*
X205457419Y-96485349D01*
X205342462Y-96657397D01*
X205342457Y-96657405D01*
X205263270Y-96848580D01*
X205263269Y-96848582D01*
X205222900Y-97051530D01*
X204783899Y-97051530D01*
X204743530Y-96848580D01*
X204664341Y-96657402D01*
X204561816Y-96503961D01*
X204549380Y-96485349D01*
X204549379Y-96485348D01*
X204549377Y-96485345D01*
X204403055Y-96339023D01*
X204403051Y-96339020D01*
X204403050Y-96339019D01*
X204288088Y-96262205D01*
X204230998Y-96224059D01*
X204230995Y-96224058D01*
X204230994Y-96224057D01*
X204104320Y-96171587D01*
X204039820Y-96144870D01*
X204039818Y-96144869D01*
X204039817Y-96144869D01*
X203836869Y-96104500D01*
X203836865Y-96104500D01*
X203629935Y-96104500D01*
X203629930Y-96104500D01*
X203426982Y-96144869D01*
X203426980Y-96144870D01*
X203235805Y-96224057D01*
X203235797Y-96224062D01*
X203063749Y-96339019D01*
X202917419Y-96485349D01*
X202802462Y-96657397D01*
X202802457Y-96657405D01*
X202723270Y-96848580D01*
X202723269Y-96848582D01*
X202682900Y-97051530D01*
X202243899Y-97051530D01*
X202203530Y-96848580D01*
X202124341Y-96657402D01*
X202021816Y-96503961D01*
X202009380Y-96485349D01*
X202009379Y-96485348D01*
X202009377Y-96485345D01*
X201863055Y-96339023D01*
X201863051Y-96339020D01*
X201863050Y-96339019D01*
X201748088Y-96262205D01*
X201690998Y-96224059D01*
X201690995Y-96224058D01*
X201690994Y-96224057D01*
X201564320Y-96171587D01*
X201499820Y-96144870D01*
X201499818Y-96144869D01*
X201499817Y-96144869D01*
X201296869Y-96104500D01*
X201296865Y-96104500D01*
X201089935Y-96104500D01*
X201089930Y-96104500D01*
X200886982Y-96144869D01*
X200886980Y-96144870D01*
X200695805Y-96224057D01*
X200695797Y-96224062D01*
X200523749Y-96339019D01*
X200377419Y-96485349D01*
X200262462Y-96657397D01*
X200262457Y-96657405D01*
X200183270Y-96848580D01*
X200183269Y-96848582D01*
X200142900Y-97051530D01*
X199703899Y-97051530D01*
X199663530Y-96848580D01*
X199584341Y-96657402D01*
X199481816Y-96503961D01*
X199469380Y-96485349D01*
X199469379Y-96485348D01*
X199469377Y-96485345D01*
X199323055Y-96339023D01*
X199323051Y-96339020D01*
X199323050Y-96339019D01*
X199208088Y-96262205D01*
X199150998Y-96224059D01*
X199150995Y-96224058D01*
X199150994Y-96224057D01*
X199024320Y-96171587D01*
X198959820Y-96144870D01*
X198959818Y-96144869D01*
X198959817Y-96144869D01*
X198756869Y-96104500D01*
X198756865Y-96104500D01*
X198549935Y-96104500D01*
X198549930Y-96104500D01*
X198346982Y-96144869D01*
X198346980Y-96144870D01*
X198155805Y-96224057D01*
X198155797Y-96224062D01*
X197983749Y-96339019D01*
X197837419Y-96485349D01*
X197722462Y-96657397D01*
X197722457Y-96657405D01*
X197643270Y-96848580D01*
X197643269Y-96848582D01*
X197602900Y-97051530D01*
X197163389Y-97051530D01*
X197123050Y-96848728D01*
X197123049Y-96848726D01*
X197043899Y-96657641D01*
X197043897Y-96657638D01*
X196941215Y-96503961D01*
X196544129Y-96901046D01*
X196513499Y-96847993D01*
X196420407Y-96754901D01*
X196367351Y-96724269D01*
X196764437Y-96327184D01*
X196764437Y-96327183D01*
X196610766Y-96224505D01*
X196610758Y-96224500D01*
X196419673Y-96145350D01*
X196419671Y-96145349D01*
X196216819Y-96105000D01*
X196009980Y-96105000D01*
X195807128Y-96145349D01*
X195807126Y-96145350D01*
X195616041Y-96224500D01*
X195616032Y-96224505D01*
X195462361Y-96327183D01*
X195859447Y-96724269D01*
X195806393Y-96754901D01*
X195713301Y-96847993D01*
X195682669Y-96901047D01*
X195285583Y-96503961D01*
X195182905Y-96657632D01*
X195182900Y-96657641D01*
X195103750Y-96848726D01*
X195103749Y-96848728D01*
X195063400Y-97051580D01*
X194623900Y-97051580D01*
X194623900Y-97051535D01*
X194583530Y-96848580D01*
X194504341Y-96657402D01*
X194389377Y-96485345D01*
X194389374Y-96485342D01*
X194386865Y-96482284D01*
X194377342Y-96455204D01*
X194366705Y-96428538D01*
X194367314Y-96426688D01*
X194366669Y-96424852D01*
X194376780Y-96397988D01*
X194385773Y-96370722D01*
X194387657Y-96369091D01*
X194388115Y-96367875D01*
X194408834Y-96350141D01*
X194409971Y-96349436D01*
X194496460Y-96299503D01*
X194592903Y-96203060D01*
X194661099Y-96084941D01*
X194696400Y-95953196D01*
X194696400Y-95816804D01*
X194696400Y-95816803D01*
X194696400Y-95816160D01*
X194714791Y-95761980D01*
X194818454Y-95626890D01*
X194941110Y-95414448D01*
X195034988Y-95187813D01*
X195040745Y-95166327D01*
X195075663Y-95116459D01*
X195134468Y-95100702D01*
X195189644Y-95126430D01*
X195200712Y-95139915D01*
X195297423Y-95284655D01*
X195443745Y-95430977D01*
X195615802Y-95545941D01*
X195806980Y-95625130D01*
X196009935Y-95665500D01*
X196009939Y-95665500D01*
X196216861Y-95665500D01*
X196216865Y-95665500D01*
X196419820Y-95625130D01*
X196610998Y-95545941D01*
X196783055Y-95430977D01*
X196929377Y-95284655D01*
X197044341Y-95112598D01*
X197123530Y-94921420D01*
X197163900Y-94718465D01*
X197163900Y-94511535D01*
X197123530Y-94308580D01*
X197044341Y-94117402D01*
X196929377Y-93945345D01*
X196783055Y-93799023D01*
X196783051Y-93799020D01*
X196783048Y-93799017D01*
X196779674Y-93796248D01*
X196780820Y-93794851D01*
X196748670Y-93751006D01*
X196752651Y-93690257D01*
X196794749Y-93646279D01*
X196834114Y-93637100D01*
X197932686Y-93637100D01*
X197989894Y-93657922D01*
X198020334Y-93710645D01*
X198009762Y-93770600D01*
X197986478Y-93795459D01*
X197987126Y-93796248D01*
X197983751Y-93799017D01*
X197837419Y-93945349D01*
X197722462Y-94117397D01*
X197722457Y-94117405D01*
X197643270Y-94308580D01*
X197643269Y-94308582D01*
X197602900Y-94511530D01*
X197602900Y-94718469D01*
X197642720Y-94918656D01*
X197643270Y-94921420D01*
X197655466Y-94950864D01*
X197709339Y-95080925D01*
X197722459Y-95112598D01*
X197731701Y-95126430D01*
X197837419Y-95284650D01*
X197837420Y-95284651D01*
X197837423Y-95284655D01*
X197983745Y-95430977D01*
X198155802Y-95545941D01*
X198346980Y-95625130D01*
X198549935Y-95665500D01*
X198549939Y-95665500D01*
X198756861Y-95665500D01*
X198756865Y-95665500D01*
X198959820Y-95625130D01*
X199150998Y-95545941D01*
X199323055Y-95430977D01*
X199469377Y-95284655D01*
X199584341Y-95112598D01*
X199663530Y-94921420D01*
X199703900Y-94718465D01*
X199703900Y-94511535D01*
X199663530Y-94308580D01*
X199584341Y-94117402D01*
X199469377Y-93945345D01*
X199323055Y-93799023D01*
X199323051Y-93799020D01*
X199323048Y-93799017D01*
X199319674Y-93796248D01*
X199320820Y-93794851D01*
X199288670Y-93751006D01*
X199292651Y-93690257D01*
X199334749Y-93646279D01*
X199374114Y-93637100D01*
X200472686Y-93637100D01*
X200529894Y-93657922D01*
X200560334Y-93710645D01*
X200549762Y-93770600D01*
X200526478Y-93795459D01*
X200527126Y-93796248D01*
X200523751Y-93799017D01*
X200377419Y-93945349D01*
X200262462Y-94117397D01*
X200262457Y-94117405D01*
X200183270Y-94308580D01*
X200183269Y-94308582D01*
X200142900Y-94511530D01*
X200142900Y-94718469D01*
X200182720Y-94918656D01*
X200183270Y-94921420D01*
X200195466Y-94950864D01*
X200249339Y-95080925D01*
X200262459Y-95112598D01*
X200271701Y-95126430D01*
X200377419Y-95284650D01*
X200377420Y-95284651D01*
X200377423Y-95284655D01*
X200523745Y-95430977D01*
X200695802Y-95545941D01*
X200886980Y-95625130D01*
X201089935Y-95665500D01*
X201089939Y-95665500D01*
X201296861Y-95665500D01*
X201296865Y-95665500D01*
X201499820Y-95625130D01*
X201690998Y-95545941D01*
X201863055Y-95430977D01*
X202009377Y-95284655D01*
X202124341Y-95112598D01*
X202203530Y-94921420D01*
X202243900Y-94718465D01*
X202243900Y-94511535D01*
X202203530Y-94308580D01*
X202124341Y-94117402D01*
X202009377Y-93945345D01*
X201863055Y-93799023D01*
X201863051Y-93799020D01*
X201863048Y-93799017D01*
X201859674Y-93796248D01*
X201860820Y-93794851D01*
X201828670Y-93751006D01*
X201832651Y-93690257D01*
X201874749Y-93646279D01*
X201914114Y-93637100D01*
X203012686Y-93637100D01*
X203069894Y-93657922D01*
X203100334Y-93710645D01*
X203089762Y-93770600D01*
X203066478Y-93795459D01*
X203067126Y-93796248D01*
X203063751Y-93799017D01*
X202917419Y-93945349D01*
X202802462Y-94117397D01*
X202802457Y-94117405D01*
X202723270Y-94308580D01*
X202723269Y-94308582D01*
X202682900Y-94511530D01*
X202682900Y-94718469D01*
X202722720Y-94918656D01*
X202723270Y-94921420D01*
X202735466Y-94950864D01*
X202789339Y-95080925D01*
X202802459Y-95112598D01*
X202811701Y-95126430D01*
X202917419Y-95284650D01*
X202917420Y-95284651D01*
X202917423Y-95284655D01*
X203063745Y-95430977D01*
X203235802Y-95545941D01*
X203426980Y-95625130D01*
X203629935Y-95665500D01*
X203629939Y-95665500D01*
X203836861Y-95665500D01*
X203836865Y-95665500D01*
X204039820Y-95625130D01*
X204230998Y-95545941D01*
X204403055Y-95430977D01*
X204549377Y-95284655D01*
X204664341Y-95112598D01*
X204743530Y-94921420D01*
X204783900Y-94718465D01*
X204783900Y-94511535D01*
X204783899Y-94511530D01*
X205222900Y-94511530D01*
X205222900Y-94718469D01*
X205262720Y-94918656D01*
X205263270Y-94921420D01*
X205275466Y-94950864D01*
X205329339Y-95080925D01*
X205342459Y-95112598D01*
X205351701Y-95126430D01*
X205457419Y-95284650D01*
X205457420Y-95284651D01*
X205457423Y-95284655D01*
X205603745Y-95430977D01*
X205775802Y-95545941D01*
X205966980Y-95625130D01*
X206169935Y-95665500D01*
X206169939Y-95665500D01*
X206376861Y-95665500D01*
X206376865Y-95665500D01*
X206579820Y-95625130D01*
X206770998Y-95545941D01*
X206943055Y-95430977D01*
X207089377Y-95284655D01*
X207204341Y-95112598D01*
X207283530Y-94921420D01*
X207323900Y-94718465D01*
X207323900Y-94511535D01*
X207323899Y-94511530D01*
X207762900Y-94511530D01*
X207762900Y-94718469D01*
X207802720Y-94918656D01*
X207803270Y-94921420D01*
X207815466Y-94950864D01*
X207869339Y-95080925D01*
X207882459Y-95112598D01*
X207891701Y-95126430D01*
X207997419Y-95284650D01*
X207997420Y-95284651D01*
X207997423Y-95284655D01*
X208143745Y-95430977D01*
X208315802Y-95545941D01*
X208506980Y-95625130D01*
X208709935Y-95665500D01*
X208709939Y-95665500D01*
X208916861Y-95665500D01*
X208916865Y-95665500D01*
X209119820Y-95625130D01*
X209310998Y-95545941D01*
X209483055Y-95430977D01*
X209629377Y-95284655D01*
X209744341Y-95112598D01*
X209823530Y-94921420D01*
X209863900Y-94718465D01*
X209863900Y-94511535D01*
X209823530Y-94308580D01*
X209744341Y-94117402D01*
X209629377Y-93945345D01*
X209483055Y-93799023D01*
X209483051Y-93799020D01*
X209483050Y-93799019D01*
X209320274Y-93690257D01*
X209310998Y-93684059D01*
X209310995Y-93684058D01*
X209310994Y-93684057D01*
X209219790Y-93646279D01*
X209119820Y-93604870D01*
X209119818Y-93604869D01*
X209119817Y-93604869D01*
X208916869Y-93564500D01*
X208916865Y-93564500D01*
X208709935Y-93564500D01*
X208709930Y-93564500D01*
X208506982Y-93604869D01*
X208506980Y-93604870D01*
X208315805Y-93684057D01*
X208315797Y-93684062D01*
X208143749Y-93799019D01*
X207997419Y-93945349D01*
X207882462Y-94117397D01*
X207882457Y-94117405D01*
X207803270Y-94308580D01*
X207803269Y-94308582D01*
X207762900Y-94511530D01*
X207323899Y-94511530D01*
X207283530Y-94308580D01*
X207204341Y-94117402D01*
X207089377Y-93945345D01*
X206943055Y-93799023D01*
X206943051Y-93799020D01*
X206943050Y-93799019D01*
X206780274Y-93690257D01*
X206770998Y-93684059D01*
X206770995Y-93684058D01*
X206770994Y-93684057D01*
X206679790Y-93646279D01*
X206579820Y-93604870D01*
X206579818Y-93604869D01*
X206579817Y-93604869D01*
X206376869Y-93564500D01*
X206376865Y-93564500D01*
X206169935Y-93564500D01*
X206169930Y-93564500D01*
X205966982Y-93604869D01*
X205966980Y-93604870D01*
X205775805Y-93684057D01*
X205775797Y-93684062D01*
X205603749Y-93799019D01*
X205457419Y-93945349D01*
X205342462Y-94117397D01*
X205342457Y-94117405D01*
X205263270Y-94308580D01*
X205263269Y-94308582D01*
X205222900Y-94511530D01*
X204783899Y-94511530D01*
X204743530Y-94308580D01*
X204664341Y-94117402D01*
X204549377Y-93945345D01*
X204403055Y-93799023D01*
X204396811Y-93794851D01*
X204317105Y-93741593D01*
X204281107Y-93692497D01*
X204285088Y-93631747D01*
X204327187Y-93587770D01*
X204349183Y-93580303D01*
X204509243Y-93548466D01*
X204556574Y-93539052D01*
X204556575Y-93539051D01*
X204556588Y-93539049D01*
X204876676Y-93441952D01*
X205185705Y-93313950D01*
X205480700Y-93156274D01*
X205692968Y-93014441D01*
X205752102Y-92999972D01*
X205776468Y-93006217D01*
X205966980Y-93085130D01*
X206169935Y-93125500D01*
X206169939Y-93125500D01*
X206376861Y-93125500D01*
X206376865Y-93125500D01*
X206579820Y-93085130D01*
X206770998Y-93005941D01*
X206943055Y-92890977D01*
X207089377Y-92744655D01*
X207204341Y-92572598D01*
X207283530Y-92381420D01*
X207323900Y-92178465D01*
X207323900Y-91971535D01*
X207323899Y-91971530D01*
X207762900Y-91971530D01*
X207762900Y-92178469D01*
X207803269Y-92381417D01*
X207803270Y-92381419D01*
X207880623Y-92568167D01*
X207882459Y-92572598D01*
X207883885Y-92574732D01*
X207997419Y-92744650D01*
X207997420Y-92744651D01*
X207997423Y-92744655D01*
X208143745Y-92890977D01*
X208315802Y-93005941D01*
X208506980Y-93085130D01*
X208709935Y-93125500D01*
X208709939Y-93125500D01*
X208916861Y-93125500D01*
X208916865Y-93125500D01*
X209119820Y-93085130D01*
X209310998Y-93005941D01*
X209483055Y-92890977D01*
X209629377Y-92744655D01*
X209744341Y-92572598D01*
X209823530Y-92381420D01*
X209863900Y-92178465D01*
X209863900Y-91971535D01*
X209823530Y-91768580D01*
X209744341Y-91577402D01*
X209629377Y-91405345D01*
X209483055Y-91259023D01*
X209483051Y-91259020D01*
X209483050Y-91259019D01*
X209311002Y-91144062D01*
X209310998Y-91144059D01*
X209310995Y-91144058D01*
X209310994Y-91144057D01*
X209224377Y-91108179D01*
X209119820Y-91064870D01*
X209119818Y-91064869D01*
X209119817Y-91064869D01*
X208916869Y-91024500D01*
X208916865Y-91024500D01*
X208709935Y-91024500D01*
X208709930Y-91024500D01*
X208506982Y-91064869D01*
X208506980Y-91064870D01*
X208315805Y-91144057D01*
X208315797Y-91144062D01*
X208143749Y-91259019D01*
X207997419Y-91405349D01*
X207882462Y-91577397D01*
X207882457Y-91577405D01*
X207803270Y-91768580D01*
X207803269Y-91768582D01*
X207762900Y-91971530D01*
X207323899Y-91971530D01*
X207283530Y-91768580D01*
X207204341Y-91577402D01*
X207089377Y-91405345D01*
X206943055Y-91259023D01*
X206943051Y-91259020D01*
X206943050Y-91259019D01*
X206771002Y-91144062D01*
X206770998Y-91144059D01*
X206770995Y-91144058D01*
X206770994Y-91144057D01*
X206684377Y-91108179D01*
X206579820Y-91064870D01*
X206579818Y-91064869D01*
X206579817Y-91064869D01*
X206376869Y-91024500D01*
X206376865Y-91024500D01*
X206169935Y-91024500D01*
X206169930Y-91024500D01*
X205966982Y-91064869D01*
X205966980Y-91064870D01*
X205775805Y-91144057D01*
X205775797Y-91144062D01*
X205603749Y-91259019D01*
X205457419Y-91405349D01*
X205342462Y-91577397D01*
X205342457Y-91577405D01*
X205263270Y-91768580D01*
X205263269Y-91768582D01*
X205222900Y-91971530D01*
X205222900Y-92178469D01*
X205263269Y-92381417D01*
X205263270Y-92381419D01*
X205297615Y-92464335D01*
X205300271Y-92525157D01*
X205263210Y-92573456D01*
X205261145Y-92574732D01*
X205052135Y-92700006D01*
X205044432Y-92704123D01*
X204803933Y-92817869D01*
X204795864Y-92821211D01*
X204658364Y-92870409D01*
X204597485Y-92870077D01*
X204551063Y-92830691D01*
X204540819Y-92770679D01*
X204554378Y-92737169D01*
X204664341Y-92572598D01*
X204743530Y-92381420D01*
X204783900Y-92178465D01*
X204783900Y-91971535D01*
X204743530Y-91768580D01*
X204664341Y-91577402D01*
X204549377Y-91405345D01*
X204403055Y-91259023D01*
X204403051Y-91259020D01*
X204403050Y-91259019D01*
X204231002Y-91144062D01*
X204230998Y-91144059D01*
X204230995Y-91144058D01*
X204230994Y-91144057D01*
X204144377Y-91108179D01*
X204039820Y-91064870D01*
X204039818Y-91064869D01*
X204039817Y-91064869D01*
X203836869Y-91024500D01*
X203836865Y-91024500D01*
X203629935Y-91024500D01*
X203629930Y-91024500D01*
X203426982Y-91064869D01*
X203426980Y-91064870D01*
X203235805Y-91144057D01*
X203235797Y-91144062D01*
X203063749Y-91259019D01*
X202917419Y-91405349D01*
X202802462Y-91577397D01*
X202802457Y-91577405D01*
X202723270Y-91768580D01*
X202723269Y-91768582D01*
X202682900Y-91971530D01*
X202682900Y-92178469D01*
X202723269Y-92381417D01*
X202723270Y-92381419D01*
X202800623Y-92568167D01*
X202802459Y-92572598D01*
X202803885Y-92574732D01*
X202917419Y-92744650D01*
X202917420Y-92744651D01*
X202917423Y-92744655D01*
X203053736Y-92880968D01*
X203079464Y-92936143D01*
X203063708Y-92994948D01*
X203013838Y-93029867D01*
X202990803Y-93032900D01*
X201935997Y-93032900D01*
X201878789Y-93012078D01*
X201848349Y-92959355D01*
X201858921Y-92899400D01*
X201873060Y-92880971D01*
X202009377Y-92744655D01*
X202124341Y-92572598D01*
X202203530Y-92381420D01*
X202243900Y-92178465D01*
X202243900Y-91971535D01*
X202203530Y-91768580D01*
X202124341Y-91577402D01*
X202009377Y-91405345D01*
X201863055Y-91259023D01*
X201863051Y-91259020D01*
X201863050Y-91259019D01*
X201691002Y-91144062D01*
X201690998Y-91144059D01*
X201690995Y-91144058D01*
X201690994Y-91144057D01*
X201604377Y-91108179D01*
X201499820Y-91064870D01*
X201499818Y-91064869D01*
X201499817Y-91064869D01*
X201296869Y-91024500D01*
X201296865Y-91024500D01*
X201089935Y-91024500D01*
X201089930Y-91024500D01*
X200886982Y-91064869D01*
X200886980Y-91064870D01*
X200695805Y-91144057D01*
X200695797Y-91144062D01*
X200523749Y-91259019D01*
X200377419Y-91405349D01*
X200262462Y-91577397D01*
X200262457Y-91577405D01*
X200183270Y-91768580D01*
X200183269Y-91768582D01*
X200142900Y-91971530D01*
X200142900Y-92178469D01*
X200183269Y-92381417D01*
X200183270Y-92381419D01*
X200260623Y-92568167D01*
X200262459Y-92572598D01*
X200263885Y-92574732D01*
X200377419Y-92744650D01*
X200377420Y-92744651D01*
X200377423Y-92744655D01*
X200513736Y-92880968D01*
X200539464Y-92936143D01*
X200523708Y-92994948D01*
X200473838Y-93029867D01*
X200450803Y-93032900D01*
X199395997Y-93032900D01*
X199338789Y-93012078D01*
X199308349Y-92959355D01*
X199318921Y-92899400D01*
X199333060Y-92880971D01*
X199469377Y-92744655D01*
X199584341Y-92572598D01*
X199663530Y-92381420D01*
X199703900Y-92178465D01*
X199703900Y-91971535D01*
X199663530Y-91768580D01*
X199584341Y-91577402D01*
X199469377Y-91405345D01*
X199323055Y-91259023D01*
X199323051Y-91259020D01*
X199323050Y-91259019D01*
X199151002Y-91144062D01*
X199150998Y-91144059D01*
X199150995Y-91144058D01*
X199150994Y-91144057D01*
X199064377Y-91108179D01*
X198959820Y-91064870D01*
X198959818Y-91064869D01*
X198959817Y-91064869D01*
X198756869Y-91024500D01*
X198756865Y-91024500D01*
X198549935Y-91024500D01*
X198549930Y-91024500D01*
X198346982Y-91064869D01*
X198346980Y-91064870D01*
X198155805Y-91144057D01*
X198155797Y-91144062D01*
X197983749Y-91259019D01*
X197837419Y-91405349D01*
X197722462Y-91577397D01*
X197722457Y-91577405D01*
X197643270Y-91768580D01*
X197643269Y-91768582D01*
X197602900Y-91971530D01*
X197602900Y-92178469D01*
X197643269Y-92381417D01*
X197643270Y-92381419D01*
X197720623Y-92568167D01*
X197722459Y-92572598D01*
X197723885Y-92574732D01*
X197837419Y-92744650D01*
X197837420Y-92744651D01*
X197837423Y-92744655D01*
X197973736Y-92880968D01*
X197999464Y-92936143D01*
X197983708Y-92994948D01*
X197933838Y-93029867D01*
X197910803Y-93032900D01*
X196855997Y-93032900D01*
X196798789Y-93012078D01*
X196768349Y-92959355D01*
X196778921Y-92899400D01*
X196793060Y-92880971D01*
X196929377Y-92744655D01*
X197044341Y-92572598D01*
X197123530Y-92381420D01*
X197163900Y-92178465D01*
X197163900Y-91971535D01*
X197123530Y-91768580D01*
X197044341Y-91577402D01*
X196929377Y-91405345D01*
X196783055Y-91259023D01*
X196783051Y-91259020D01*
X196783050Y-91259019D01*
X196611002Y-91144062D01*
X196610998Y-91144059D01*
X196610995Y-91144058D01*
X196610994Y-91144057D01*
X196524377Y-91108179D01*
X196419820Y-91064870D01*
X196419818Y-91064869D01*
X196419817Y-91064869D01*
X196216869Y-91024500D01*
X196216865Y-91024500D01*
X196009935Y-91024500D01*
X196009930Y-91024500D01*
X195806982Y-91064869D01*
X195806980Y-91064870D01*
X195615805Y-91144057D01*
X195615797Y-91144062D01*
X195443749Y-91259019D01*
X195297419Y-91405349D01*
X195182462Y-91577397D01*
X195182457Y-91577405D01*
X195103270Y-91768580D01*
X195103269Y-91768582D01*
X195062900Y-91971530D01*
X195062900Y-92178469D01*
X195103269Y-92381417D01*
X195103270Y-92381419D01*
X195180623Y-92568167D01*
X195182459Y-92572598D01*
X195183885Y-92574732D01*
X195297419Y-92744650D01*
X195297420Y-92744651D01*
X195297423Y-92744655D01*
X195443745Y-92890977D01*
X195500762Y-92929074D01*
X195558643Y-92967749D01*
X195594641Y-93016845D01*
X195590660Y-93077594D01*
X195548561Y-93121572D01*
X195537556Y-93125864D01*
X195537583Y-93125937D01*
X195534604Y-93127047D01*
X195332660Y-93219272D01*
X195332651Y-93219277D01*
X195145893Y-93339300D01*
X195145884Y-93339306D01*
X194978105Y-93484687D01*
X194978087Y-93484705D01*
X194832706Y-93652484D01*
X194832700Y-93652493D01*
X194712677Y-93839251D01*
X194712672Y-93839260D01*
X194619124Y-94044103D01*
X194617466Y-94043346D01*
X194581749Y-94085083D01*
X194521694Y-94095073D01*
X194469269Y-94064123D01*
X194463998Y-94057024D01*
X194389380Y-93945349D01*
X194389379Y-93945348D01*
X194389377Y-93945345D01*
X194243055Y-93799023D01*
X194243051Y-93799020D01*
X194243050Y-93799019D01*
X194080274Y-93690257D01*
X194070998Y-93684059D01*
X194070995Y-93684058D01*
X194070994Y-93684057D01*
X193979790Y-93646279D01*
X193879820Y-93604870D01*
X193879818Y-93604869D01*
X193879817Y-93604869D01*
X193676869Y-93564500D01*
X193676865Y-93564500D01*
X193469935Y-93564500D01*
X193469930Y-93564500D01*
X193266982Y-93604869D01*
X193266980Y-93604870D01*
X193075805Y-93684057D01*
X193075797Y-93684062D01*
X192903749Y-93799019D01*
X192903745Y-93799022D01*
X192903745Y-93799023D01*
X192783239Y-93919528D01*
X192728065Y-93945256D01*
X192669260Y-93929500D01*
X192634341Y-93879630D01*
X192631308Y-93856595D01*
X192631308Y-93772472D01*
X192631308Y-93772466D01*
X192601930Y-93549323D01*
X192543677Y-93331923D01*
X192457545Y-93123988D01*
X192345009Y-92929074D01*
X192207993Y-92750516D01*
X192161276Y-92703800D01*
X192161275Y-92703799D01*
X192025643Y-92568167D01*
X191999915Y-92512991D01*
X192006350Y-92471176D01*
X192043530Y-92381420D01*
X192083900Y-92178465D01*
X192083900Y-91971535D01*
X192083899Y-91971530D01*
X192522900Y-91971530D01*
X192522900Y-92178469D01*
X192563269Y-92381417D01*
X192563270Y-92381419D01*
X192640623Y-92568167D01*
X192642459Y-92572598D01*
X192643885Y-92574732D01*
X192757419Y-92744650D01*
X192757420Y-92744651D01*
X192757423Y-92744655D01*
X192903745Y-92890977D01*
X193075802Y-93005941D01*
X193266980Y-93085130D01*
X193469935Y-93125500D01*
X193469939Y-93125500D01*
X193676861Y-93125500D01*
X193676865Y-93125500D01*
X193879820Y-93085130D01*
X194070998Y-93005941D01*
X194243055Y-92890977D01*
X194389377Y-92744655D01*
X194504341Y-92572598D01*
X194583530Y-92381420D01*
X194623900Y-92178465D01*
X194623900Y-91971535D01*
X194583530Y-91768580D01*
X194504341Y-91577402D01*
X194389377Y-91405345D01*
X194243055Y-91259023D01*
X194243051Y-91259020D01*
X194243050Y-91259019D01*
X194071002Y-91144062D01*
X194070998Y-91144059D01*
X194070995Y-91144058D01*
X194070994Y-91144057D01*
X193984377Y-91108179D01*
X193879820Y-91064870D01*
X193879818Y-91064869D01*
X193879817Y-91064869D01*
X193676869Y-91024500D01*
X193676865Y-91024500D01*
X193469935Y-91024500D01*
X193469930Y-91024500D01*
X193266982Y-91064869D01*
X193266980Y-91064870D01*
X193075805Y-91144057D01*
X193075797Y-91144062D01*
X192903749Y-91259019D01*
X192757419Y-91405349D01*
X192642462Y-91577397D01*
X192642457Y-91577405D01*
X192563270Y-91768580D01*
X192563269Y-91768582D01*
X192522900Y-91971530D01*
X192083899Y-91971530D01*
X192043530Y-91768580D01*
X191964341Y-91577402D01*
X191849377Y-91405345D01*
X191703055Y-91259023D01*
X191703051Y-91259020D01*
X191703050Y-91259019D01*
X191531002Y-91144062D01*
X191530998Y-91144059D01*
X191530995Y-91144058D01*
X191530994Y-91144057D01*
X191444377Y-91108179D01*
X191339820Y-91064870D01*
X191339818Y-91064869D01*
X191339817Y-91064869D01*
X191136869Y-91024500D01*
X191136865Y-91024500D01*
X190929935Y-91024500D01*
X190929930Y-91024500D01*
X190726982Y-91064869D01*
X190726980Y-91064870D01*
X190535805Y-91144057D01*
X190535797Y-91144062D01*
X190363749Y-91259019D01*
X190217419Y-91405349D01*
X190102462Y-91577397D01*
X190102457Y-91577405D01*
X190023270Y-91768580D01*
X190023269Y-91768582D01*
X189982900Y-91971530D01*
X189982900Y-92178469D01*
X190023269Y-92381417D01*
X190023270Y-92381419D01*
X190100623Y-92568167D01*
X190102459Y-92572598D01*
X190103885Y-92574732D01*
X190217419Y-92744650D01*
X190217420Y-92744651D01*
X190217423Y-92744655D01*
X190363745Y-92890977D01*
X190535802Y-93005941D01*
X190726980Y-93085130D01*
X190929935Y-93125500D01*
X190929939Y-93125500D01*
X191136861Y-93125500D01*
X191136865Y-93125500D01*
X191339820Y-93085130D01*
X191429575Y-93047950D01*
X191435632Y-93047686D01*
X191440599Y-93044209D01*
X191465458Y-93046383D01*
X191490396Y-93045295D01*
X191496694Y-93049116D01*
X191501247Y-93049515D01*
X191526567Y-93067243D01*
X191585961Y-93126637D01*
X191585986Y-93126665D01*
X191626864Y-93167540D01*
X191631609Y-93172673D01*
X191727848Y-93285350D01*
X191736057Y-93296649D01*
X191811638Y-93419983D01*
X191817979Y-93432426D01*
X191821920Y-93441940D01*
X191823508Y-93478321D01*
X191823777Y-93479640D01*
X191823581Y-93479999D01*
X191824576Y-93502762D01*
X191787516Y-93551061D01*
X191739695Y-93565000D01*
X191158401Y-93565000D01*
X191158400Y-93565001D01*
X191158400Y-94130855D01*
X191099226Y-94115000D01*
X190967574Y-94115000D01*
X190908400Y-94130855D01*
X190908400Y-93565001D01*
X190908399Y-93565000D01*
X190163697Y-93565000D01*
X190105364Y-93576603D01*
X190039210Y-93620806D01*
X190039206Y-93620810D01*
X189995003Y-93686964D01*
X189983400Y-93745297D01*
X189983400Y-94489999D01*
X189983401Y-94490000D01*
X190549256Y-94490000D01*
X190533400Y-94549174D01*
X190533400Y-94680826D01*
X190549256Y-94740000D01*
X189983401Y-94740000D01*
X189983400Y-94740001D01*
X189983400Y-95484702D01*
X189995003Y-95543035D01*
X190039206Y-95609189D01*
X190039210Y-95609193D01*
X190105364Y-95653396D01*
X190163697Y-95664999D01*
X190163706Y-95665000D01*
X190908399Y-95665000D01*
X190908400Y-95664999D01*
X190908400Y-95099144D01*
X190967574Y-95115000D01*
X191099226Y-95115000D01*
X191158400Y-95099144D01*
X191158400Y-95664999D01*
X191158401Y-95665000D01*
X191903094Y-95665000D01*
X191903102Y-95664999D01*
X191961434Y-95653396D01*
X191964784Y-95651158D01*
X192023919Y-95636686D01*
X192078521Y-95663610D01*
X192099400Y-95699321D01*
X192110216Y-95734974D01*
X192115246Y-95751556D01*
X192115249Y-95751563D01*
X192115251Y-95751569D01*
X192239711Y-96052040D01*
X192239719Y-96052058D01*
X192393036Y-96338892D01*
X192573738Y-96609330D01*
X192598800Y-96639868D01*
X192618996Y-96697300D01*
X192612226Y-96730387D01*
X192563271Y-96848573D01*
X192563270Y-96848580D01*
X192522900Y-97051530D01*
X192522900Y-97258469D01*
X192563269Y-97461418D01*
X192563270Y-97461422D01*
X192600448Y-97551175D01*
X192603104Y-97611997D01*
X192581156Y-97648166D01*
X192235833Y-97993490D01*
X192180657Y-98019219D01*
X192121852Y-98003463D01*
X192086933Y-97953593D01*
X192083900Y-97930558D01*
X192083900Y-96285255D01*
X192083899Y-96285247D01*
X192072267Y-96226768D01*
X192027954Y-96160451D01*
X192027952Y-96160448D01*
X192026360Y-96159384D01*
X191961631Y-96116132D01*
X191903152Y-96104500D01*
X191903148Y-96104500D01*
X190163652Y-96104500D01*
X190163647Y-96104500D01*
X190105168Y-96116132D01*
X190038851Y-96160445D01*
X190038845Y-96160451D01*
X189994532Y-96226768D01*
X189982900Y-96285247D01*
X189982900Y-98024752D01*
X189994532Y-98083231D01*
X190038845Y-98149548D01*
X190038848Y-98149552D01*
X190038851Y-98149554D01*
X190105168Y-98193867D01*
X190161133Y-98204999D01*
X190163652Y-98205500D01*
X190163656Y-98205500D01*
X191808958Y-98205500D01*
X191866166Y-98226322D01*
X191896606Y-98279045D01*
X191886034Y-98339000D01*
X191871893Y-98357429D01*
X191108831Y-99120493D01*
X189623441Y-100605883D01*
X189623432Y-100605891D01*
X189619685Y-100609637D01*
X189613220Y-100615495D01*
X189561616Y-100657843D01*
X189547110Y-100667536D01*
X189492104Y-100696936D01*
X189475987Y-100703612D01*
X189416301Y-100721718D01*
X189399193Y-100725120D01*
X189332670Y-100731672D01*
X189323956Y-100732100D01*
X189239467Y-100732100D01*
X189065034Y-100766797D01*
X189065027Y-100766799D01*
X188900716Y-100834859D01*
X188900712Y-100834862D01*
X188752835Y-100933672D01*
X188627072Y-101059435D01*
X188528262Y-101207312D01*
X188528259Y-101207316D01*
X188460199Y-101371627D01*
X188460197Y-101371634D01*
X188425500Y-101546067D01*
X188178900Y-101546067D01*
X188178900Y-89989368D01*
X188179329Y-89980645D01*
X188188383Y-89888719D01*
X188195325Y-89818234D01*
X188198725Y-89801137D01*
X188244825Y-89649162D01*
X188251502Y-89633046D01*
X188312925Y-89518132D01*
X188326364Y-89492988D01*
X188336047Y-89478496D01*
X188436796Y-89355732D01*
X188449133Y-89343396D01*
X188571896Y-89242647D01*
X188586388Y-89232964D01*
X188726446Y-89158102D01*
X188742562Y-89151425D01*
X188894537Y-89105325D01*
X188911636Y-89101925D01*
X189057608Y-89087547D01*
X189074045Y-89085929D01*
X189082768Y-89085500D01*
X189105329Y-89085500D01*
X210151471Y-89085500D01*
X210174032Y-89085500D01*
X210182755Y-89085929D01*
G37*
G04 #@! TD.AperFunction*
G04 #@! TA.AperFunction,Conductor*
G36*
X210583701Y-100735613D02*
G01*
X210617893Y-100739026D01*
X210664092Y-100743638D01*
X210688241Y-100748508D01*
X210765458Y-100772269D01*
X210777048Y-100776477D01*
X214839555Y-102484577D01*
X214855730Y-102492820D01*
X214926315Y-102535575D01*
X214954224Y-102558665D01*
X215003285Y-102613159D01*
X215023328Y-102643329D01*
X215054545Y-102709674D01*
X215065015Y-102744353D01*
X215077070Y-102825991D01*
X215078400Y-102844105D01*
X215078400Y-102859924D01*
X215077250Y-102876770D01*
X215062773Y-102982346D01*
X215034164Y-103046089D01*
X214975633Y-103084247D01*
X214939923Y-103089500D01*
X214911147Y-103089500D01*
X214852670Y-103101131D01*
X214852669Y-103101132D01*
X214786347Y-103145447D01*
X214742032Y-103211768D01*
X214739265Y-103225681D01*
X214706877Y-103287590D01*
X214649742Y-103321260D01*
X214457512Y-103372768D01*
X214341065Y-103403971D01*
X214341062Y-103403972D01*
X214341061Y-103403972D01*
X214148456Y-103474074D01*
X213996249Y-103529474D01*
X213996245Y-103529475D01*
X213996239Y-103529478D01*
X213663691Y-103684547D01*
X213663676Y-103684555D01*
X213345907Y-103868021D01*
X213345892Y-103868030D01*
X213045315Y-104078497D01*
X212764222Y-104314364D01*
X212764199Y-104314385D01*
X212691977Y-104386608D01*
X212660245Y-104418340D01*
X212660243Y-104418342D01*
X212634484Y-104444101D01*
X212599984Y-104478600D01*
X212599983Y-104478601D01*
X212599981Y-104478602D01*
X212599980Y-104478603D01*
X212564524Y-104514059D01*
X212503200Y-104547544D01*
X212436585Y-104543659D01*
X212425801Y-104539957D01*
X212425798Y-104539957D01*
X212308821Y-104539957D01*
X212232857Y-104566036D01*
X212198185Y-104577939D01*
X212198179Y-104577942D01*
X212142988Y-104619095D01*
X211371163Y-105390920D01*
X211330010Y-105446111D01*
X211330008Y-105446115D01*
X211292025Y-105556753D01*
X211292025Y-105673730D01*
X211307303Y-105718231D01*
X211330009Y-105784369D01*
X211371163Y-105839562D01*
X211630335Y-106098734D01*
X211685528Y-106139888D01*
X211685529Y-106139888D01*
X211685531Y-106139890D01*
X211794665Y-106177357D01*
X211851679Y-106217742D01*
X211877809Y-106282542D01*
X211878400Y-106294637D01*
X211878400Y-107219767D01*
X211877339Y-107235953D01*
X211863493Y-107341117D01*
X211855115Y-107372383D01*
X211817660Y-107462808D01*
X211801475Y-107490842D01*
X211736896Y-107575003D01*
X211726201Y-107587198D01*
X211534148Y-107779251D01*
X211521953Y-107789946D01*
X211438838Y-107853722D01*
X211410805Y-107869907D01*
X211321590Y-107906861D01*
X211290323Y-107915239D01*
X211194586Y-107927844D01*
X211162214Y-107927844D01*
X211066476Y-107915239D01*
X211035209Y-107906861D01*
X210945994Y-107869907D01*
X210917961Y-107853722D01*
X210834846Y-107789946D01*
X210822651Y-107779251D01*
X210698237Y-107654837D01*
X210664752Y-107593514D01*
X210669736Y-107523822D01*
X210698237Y-107479475D01*
X210960013Y-107217699D01*
X211242133Y-106935579D01*
X211283290Y-106880383D01*
X211321273Y-106769745D01*
X211321273Y-106652768D01*
X211283290Y-106542131D01*
X211242133Y-106486934D01*
X210982964Y-106227765D01*
X210982962Y-106227763D01*
X210927769Y-106186609D01*
X210927770Y-106186609D01*
X210923147Y-106185022D01*
X210817130Y-106148625D01*
X210700153Y-106148625D01*
X210624189Y-106174704D01*
X210589517Y-106186607D01*
X210589511Y-106186610D01*
X210534320Y-106227763D01*
X210534318Y-106227765D01*
X209990423Y-106771661D01*
X209929100Y-106805146D01*
X209859408Y-106800162D01*
X209815061Y-106771661D01*
X208157361Y-105113961D01*
X208123876Y-105052638D01*
X208128860Y-104982946D01*
X208157359Y-104938601D01*
X209086250Y-104009711D01*
X209086255Y-104009707D01*
X209096458Y-103999503D01*
X209096460Y-103999503D01*
X209192903Y-103903060D01*
X209239628Y-103822130D01*
X209261100Y-103784940D01*
X209296401Y-103653195D01*
X209296401Y-103516804D01*
X209261100Y-103385060D01*
X209192903Y-103266940D01*
X209096460Y-103170497D01*
X208978340Y-103102300D01*
X208846596Y-103066999D01*
X208710205Y-103066999D01*
X208578460Y-103102300D01*
X208578458Y-103102301D01*
X208578457Y-103102301D01*
X208528537Y-103131122D01*
X208528537Y-103131123D01*
X208503726Y-103145448D01*
X208460340Y-103170497D01*
X208460337Y-103170499D01*
X208363895Y-103266942D01*
X207424799Y-104206037D01*
X207363476Y-104239522D01*
X207293784Y-104234538D01*
X207249437Y-104206037D01*
X207030598Y-103987198D01*
X207019903Y-103975003D01*
X206955324Y-103890842D01*
X206939139Y-103862808D01*
X206901684Y-103772383D01*
X206893306Y-103741116D01*
X206879461Y-103635952D01*
X206878400Y-103619767D01*
X206878400Y-101243125D01*
X206879461Y-101226940D01*
X206893306Y-101121776D01*
X206901684Y-101090508D01*
X206939140Y-101000081D01*
X206955323Y-100972050D01*
X207014913Y-100894392D01*
X207037792Y-100871513D01*
X207115450Y-100811923D01*
X207143479Y-100795740D01*
X207233909Y-100758283D01*
X207265175Y-100749906D01*
X207370341Y-100736061D01*
X207386526Y-100735000D01*
X210571384Y-100735000D01*
X210583701Y-100735613D01*
G37*
G04 #@! TD.AperFunction*
M02*
