G04 #@! TF.GenerationSoftware,KiCad,Pcbnew,9.0.7*
G04 #@! TF.CreationDate,2026-03-02T03:16:57-06:00*
G04 #@! TF.ProjectId,TubeClock,54756265-436c-46f6-936b-2e6b69636164,rev?*
G04 #@! TF.SameCoordinates,Original*
G04 #@! TF.FileFunction,Paste,Bot*
G04 #@! TF.FilePolarity,Positive*
%FSLAX46Y46*%
G04 Gerber Fmt 4.6, Leading zero omitted, Abs format (unit mm)*
G04 Created by KiCad (PCBNEW 9.0.7) date 2026-03-02 03:16:57*
%MOMM*%
%LPD*%
G01*
G04 APERTURE LIST*
G04 Aperture macros list*
%AMRoundRect*
0 Rectangle with rounded corners*
0 $1 Rounding radius*
0 $2 $3 $4 $5 $6 $7 $8 $9 X,Y pos of 4 corners*
0 Add a 4 corners polygon primitive as box body*
4,1,4,$2,$3,$4,$5,$6,$7,$8,$9,$2,$3,0*
0 Add four circle primitives for the rounded corners*
1,1,$1+$1,$2,$3*
1,1,$1+$1,$4,$5*
1,1,$1+$1,$6,$7*
1,1,$1+$1,$8,$9*
0 Add four rect primitives between the rounded corners*
20,1,$1+$1,$2,$3,$4,$5,0*
20,1,$1+$1,$4,$5,$6,$7,0*
20,1,$1+$1,$6,$7,$8,$9,0*
20,1,$1+$1,$8,$9,$2,$3,0*%
%AMFreePoly0*
4,1,6,0.605000,-0.605000,-0.075294,-0.605000,-0.605000,-0.075294,-0.605000,0.605000,0.605000,0.605000,0.605000,-0.605000,0.605000,-0.605000,$1*%
G04 Aperture macros list end*
%ADD10RoundRect,0.114000X0.194808X0.356028X-0.356028X-0.194808X-0.194808X-0.356028X0.356028X0.194808X0*%
%ADD11RoundRect,0.135000X-0.135000X-0.185000X0.135000X-0.185000X0.135000X0.185000X-0.135000X0.185000X0*%
%ADD12RoundRect,0.171000X-0.190000X0.171000X-0.190000X-0.171000X0.190000X-0.171000X0.190000X0.171000X0*%
%ADD13RoundRect,0.140000X0.170000X-0.140000X0.170000X0.140000X-0.170000X0.140000X-0.170000X-0.140000X0*%
%ADD14RoundRect,0.135000X-0.185000X0.135000X-0.185000X-0.135000X0.185000X-0.135000X0.185000X0.135000X0*%
%ADD15R,0.760000X0.684000*%
%ADD16RoundRect,0.035000X-0.190565X0.091570X0.091570X-0.190565X0.190565X-0.091570X-0.091570X0.190565X0*%
%ADD17RoundRect,0.140000X-0.170000X0.140000X-0.170000X-0.140000X0.170000X-0.140000X0.170000X0.140000X0*%
%ADD18R,0.560000X0.280000*%
%ADD19R,0.280000X0.560000*%
%ADD20R,1.015000X1.015000*%
%ADD21FreePoly0,0.000000*%
%ADD22R,0.490000X0.490000*%
%ADD23RoundRect,0.171000X0.013435X-0.255266X0.255266X-0.013435X-0.013435X0.255266X-0.255266X0.013435X0*%
%ADD24R,1.026000X0.304000*%
%ADD25R,1.444000X1.140000*%
%ADD26RoundRect,0.171000X0.171000X0.190000X-0.171000X0.190000X-0.171000X-0.190000X0.171000X-0.190000X0*%
%ADD27RoundRect,0.200000X0.440000X-1.000000X0.440000X1.000000X-0.440000X1.000000X-0.440000X-1.000000X0*%
%ADD28R,1.920000X0.592000*%
%ADD29RoundRect,0.171000X-0.171000X-0.190000X0.171000X-0.190000X0.171000X0.190000X-0.171000X0.190000X0*%
%ADD30RoundRect,0.135000X0.135000X0.185000X-0.135000X0.185000X-0.135000X-0.185000X0.135000X-0.185000X0*%
%ADD31RoundRect,0.171000X-0.013435X0.255266X-0.255266X0.013435X0.013435X-0.255266X0.255266X-0.013435X0*%
%ADD32RoundRect,0.166250X-0.020153X0.255266X-0.255266X0.020153X0.020153X-0.255266X0.255266X-0.020153X0*%
G04 APERTURE END LIST*
D10*
X212110983Y-105358915D03*
X212782734Y-106030666D03*
X213454485Y-106702417D03*
X211845817Y-108311085D03*
X211174066Y-107639334D03*
X210502315Y-106967583D03*
D11*
X197268400Y-108235000D03*
X198288400Y-108235000D03*
D12*
X193878400Y-122310000D03*
X193878400Y-123860000D03*
D13*
X196478400Y-119365000D03*
X196478400Y-118405000D03*
D14*
X196478400Y-120475000D03*
X196478400Y-121495000D03*
D15*
X193378400Y-109835000D03*
X189278400Y-109835000D03*
X193378400Y-111435000D03*
X189278400Y-111435000D03*
D16*
X203624811Y-107692071D03*
X203978364Y-107338518D03*
X204331918Y-106984964D03*
X204685471Y-106631411D03*
X205731989Y-107677929D03*
X205378436Y-108031482D03*
X205024882Y-108385036D03*
X204671329Y-108738589D03*
D17*
X196478400Y-122605000D03*
X196478400Y-123565000D03*
D11*
X197268400Y-109485000D03*
X198288400Y-109485000D03*
D15*
X189278400Y-115535000D03*
X193378400Y-115535000D03*
X189278400Y-113935000D03*
X193378400Y-113935000D03*
D10*
X207460983Y-103558915D03*
X208132734Y-104230666D03*
X208804485Y-104902417D03*
X207195817Y-106511085D03*
X205852315Y-105167583D03*
D18*
X198078400Y-124185000D03*
X198078400Y-123385000D03*
X198078400Y-122585000D03*
X198078400Y-121785000D03*
X198078400Y-120985000D03*
X198078400Y-120185000D03*
X198078400Y-119385000D03*
X198078400Y-118585000D03*
X198078400Y-117785000D03*
X198078400Y-116985000D03*
X198078400Y-116185000D03*
D19*
X199178400Y-115285000D03*
X199978400Y-115285000D03*
X200778400Y-115285000D03*
X201578400Y-115285000D03*
X202378400Y-115285000D03*
X203178400Y-115285000D03*
X203978400Y-115285000D03*
X204778400Y-115285000D03*
X205578400Y-115285000D03*
X206378400Y-115285000D03*
X207178400Y-115285000D03*
X207978400Y-115285000D03*
X208778400Y-115285000D03*
D18*
X209878400Y-116185000D03*
X209878400Y-116985000D03*
X209878400Y-117785000D03*
X209878400Y-118585000D03*
X209878400Y-119385000D03*
X209878400Y-120185000D03*
X209878400Y-120985000D03*
X209878400Y-121785000D03*
X209878400Y-122585000D03*
X209878400Y-123385000D03*
X209878400Y-124185000D03*
D19*
X208778400Y-125085000D03*
X207978400Y-125085000D03*
X207178400Y-125085000D03*
X206378400Y-125085000D03*
X205578400Y-125085000D03*
X204778400Y-125085000D03*
X203978400Y-125085000D03*
X203178400Y-125085000D03*
X202378400Y-125085000D03*
X201578400Y-125085000D03*
X200778400Y-125085000D03*
X199978400Y-125085000D03*
X199178400Y-125085000D03*
D20*
X202003400Y-118210000D03*
X202003400Y-120185000D03*
D21*
X202003400Y-122160000D03*
D20*
X203978400Y-118210000D03*
X203978400Y-120185000D03*
X203978400Y-122160000D03*
X205953400Y-118210000D03*
X205953400Y-120185000D03*
X205953400Y-122160000D03*
D22*
X209928400Y-125135000D03*
X209928400Y-115235000D03*
X198028400Y-115235000D03*
X198028400Y-125135000D03*
D23*
X204530392Y-104133008D03*
X205626408Y-103036992D03*
D24*
X215605900Y-102840000D03*
X215605900Y-103490000D03*
X215605900Y-104140000D03*
X215605900Y-104790000D03*
X215605900Y-105440000D03*
D25*
X218305900Y-103140000D03*
X218305900Y-105140000D03*
D26*
X207353400Y-101185000D03*
X205803400Y-101185000D03*
D27*
X211078400Y-102685000D03*
X211078400Y-98285000D03*
D17*
X195278400Y-122605000D03*
X195278400Y-123565000D03*
D28*
X190428400Y-107025000D03*
X194328400Y-107025000D03*
X190428400Y-105755000D03*
X194328400Y-105755000D03*
X190428400Y-104485000D03*
X194328400Y-104485000D03*
X190428400Y-103215000D03*
X194328400Y-103215000D03*
X190428400Y-101945000D03*
X194328400Y-101945000D03*
D29*
X194553400Y-99685000D03*
X196103400Y-99685000D03*
D30*
X198288400Y-107025000D03*
X197268400Y-107025000D03*
X198288400Y-104685000D03*
X197268400Y-104685000D03*
X196188400Y-109485000D03*
X195168400Y-109485000D03*
D31*
X203026408Y-105636992D03*
X201930392Y-106733008D03*
D32*
X203035247Y-109328153D03*
X201921553Y-110441847D03*
M02*
