M48
; DRILL file {KiCad 9.0.7} date 2026-03-02T03:16:55-0600
; FORMAT={-:-/ absolute / inch / decimal}
; #@! TF.CreationDate,2026-03-02T03:16:55-06:00
; #@! TF.GenerationSoftware,Kicad,Pcbnew,9.0.7
; #@! TF.FileFunction,Plated,1,2,PTH
FMAT,2
INCH
; #@! TA.AperFunction,Plated,PTH,ViaDrill
T1C0.0125
; #@! TA.AperFunction,Plated,PTH,ComponentDrill
T2C0.0236
; #@! TA.AperFunction,Plated,PTH,ComponentDrill
T3C0.0335
; #@! TA.AperFunction,Plated,PTH,ComponentDrill
T4C0.0394
%
G90
G05
T1
X7.521Y-3.9738
X7.5543Y-4.0565
X7.574Y-4.1136
X7.6192Y-3.9187
X7.6251Y-4.5742
X7.6448Y-3.775
X7.6901Y-4.3695
X7.7236Y-4.336
X7.7354Y-4.7219
X7.822Y-4.1392
X7.822Y-4.2136
X7.8476Y-4.0742
X7.8476Y-4.1884
X7.8476Y-4.4915
X7.8554Y-4.5998
X7.8554Y-4.647
X7.8732Y-4.1648
X7.8732Y-4.5142
X7.8791Y-4.5781
X7.8791Y-4.6234
X7.8791Y-4.6707
X7.8791Y-4.7041
X7.9578Y-4.4778
X7.9834Y-4.5014
X8.0621Y-4.5142
X8.0779Y-4.4758
X8.0936Y-4.5142
X8.1625Y-4.1352
X8.2117Y-4.7868
X8.2196Y-4.0781
X8.2373Y-4.7632
X8.3161Y-4.7888
X8.3623Y-4.2022
X8.3938Y-4.1421
T3
X8.4884Y-4.0016
X8.4884Y-4.1984
T4
X7.4893Y-4.6675
X7.4893Y-4.7675
X7.4893Y-4.8675
X7.521Y-3.625
X7.521Y-3.725
X7.521Y-3.825
X7.621Y-3.625
X7.621Y-3.725
X7.621Y-3.825
X7.721Y-3.625
X7.721Y-3.725
X7.721Y-3.825
X7.821Y-3.625
X7.821Y-3.725
X7.821Y-3.825
X7.921Y-3.625
X7.921Y-3.725
X7.921Y-3.825
X8.021Y-3.625
X8.021Y-3.725
X8.021Y-3.825
X8.121Y-3.625
X8.121Y-3.725
X8.121Y-3.825
X8.221Y-3.625
X8.221Y-3.725
X8.4637Y-4.4699
X8.4637Y-4.5699
X8.4637Y-4.6699
X8.4637Y-4.7699
X8.4637Y-4.8699
X8.5637Y-4.4699
X8.5637Y-4.5699
X8.5637Y-4.6699
X8.5637Y-4.7699
X8.5637Y-4.8699
T2
G00X8.5809Y-3.9622
M15
G01X8.6085Y-3.9622
M16
G05
G00X8.6085Y-4.2378
M15
G01X8.5809Y-4.2378
M16
G05
M30
