G04 #@! TF.GenerationSoftware,KiCad,Pcbnew,9.0.7*
G04 #@! TF.CreationDate,2026-03-02T03:16:57-06:00*
G04 #@! TF.ProjectId,TubeClock,54756265-436c-46f6-936b-2e6b69636164,rev?*
G04 #@! TF.SameCoordinates,Original*
G04 #@! TF.FileFunction,Soldermask,Bot*
G04 #@! TF.FilePolarity,Negative*
%FSLAX46Y46*%
G04 Gerber Fmt 4.6, Leading zero omitted, Abs format (unit mm)*
G04 Created by KiCad (PCBNEW 9.0.7) date 2026-03-02 03:16:57*
%MOMM*%
%LPD*%
G01*
G04 APERTURE LIST*
G04 APERTURE END LIST*
G36*
X198397917Y-124737882D02*
G01*
X198414462Y-124748938D01*
X198425518Y-124765483D01*
X198429400Y-124785000D01*
X198429400Y-125485000D01*
X198425518Y-125504517D01*
X198414462Y-125521062D01*
X198397917Y-125532118D01*
X198378400Y-125536000D01*
X197678400Y-125536000D01*
X197658883Y-125532118D01*
X197642338Y-125521062D01*
X197631282Y-125504517D01*
X197627400Y-125485000D01*
X197627400Y-124785000D01*
X197631282Y-124765483D01*
X197642338Y-124748938D01*
X197658883Y-124737882D01*
X197678400Y-124734000D01*
X198378400Y-124734000D01*
X198397917Y-124737882D01*
G37*
G36*
X199397917Y-124637882D02*
G01*
X199414462Y-124648938D01*
X199425518Y-124665483D01*
X199429400Y-124685000D01*
X199429400Y-125485000D01*
X199425518Y-125504517D01*
X199414462Y-125521062D01*
X199397917Y-125532118D01*
X199378400Y-125536000D01*
X198978400Y-125536000D01*
X198958883Y-125532118D01*
X198942338Y-125521062D01*
X198931282Y-125504517D01*
X198927400Y-125485000D01*
X198927400Y-124685000D01*
X198931282Y-124665483D01*
X198942338Y-124648938D01*
X198958883Y-124637882D01*
X198978400Y-124634000D01*
X199378400Y-124634000D01*
X199397917Y-124637882D01*
G37*
G36*
X200197917Y-124637882D02*
G01*
X200214462Y-124648938D01*
X200225518Y-124665483D01*
X200229400Y-124685000D01*
X200229400Y-125485000D01*
X200225518Y-125504517D01*
X200214462Y-125521062D01*
X200197917Y-125532118D01*
X200178400Y-125536000D01*
X199778400Y-125536000D01*
X199758883Y-125532118D01*
X199742338Y-125521062D01*
X199731282Y-125504517D01*
X199727400Y-125485000D01*
X199727400Y-124685000D01*
X199731282Y-124665483D01*
X199742338Y-124648938D01*
X199758883Y-124637882D01*
X199778400Y-124634000D01*
X200178400Y-124634000D01*
X200197917Y-124637882D01*
G37*
G36*
X200997917Y-124637882D02*
G01*
X201014462Y-124648938D01*
X201025518Y-124665483D01*
X201029400Y-124685000D01*
X201029400Y-125485000D01*
X201025518Y-125504517D01*
X201014462Y-125521062D01*
X200997917Y-125532118D01*
X200978400Y-125536000D01*
X200578400Y-125536000D01*
X200558883Y-125532118D01*
X200542338Y-125521062D01*
X200531282Y-125504517D01*
X200527400Y-125485000D01*
X200527400Y-124685000D01*
X200531282Y-124665483D01*
X200542338Y-124648938D01*
X200558883Y-124637882D01*
X200578400Y-124634000D01*
X200978400Y-124634000D01*
X200997917Y-124637882D01*
G37*
G36*
X201797917Y-124637882D02*
G01*
X201814462Y-124648938D01*
X201825518Y-124665483D01*
X201829400Y-124685000D01*
X201829400Y-125485000D01*
X201825518Y-125504517D01*
X201814462Y-125521062D01*
X201797917Y-125532118D01*
X201778400Y-125536000D01*
X201378400Y-125536000D01*
X201358883Y-125532118D01*
X201342338Y-125521062D01*
X201331282Y-125504517D01*
X201327400Y-125485000D01*
X201327400Y-124685000D01*
X201331282Y-124665483D01*
X201342338Y-124648938D01*
X201358883Y-124637882D01*
X201378400Y-124634000D01*
X201778400Y-124634000D01*
X201797917Y-124637882D01*
G37*
G36*
X202597917Y-124637882D02*
G01*
X202614462Y-124648938D01*
X202625518Y-124665483D01*
X202629400Y-124685000D01*
X202629400Y-125485000D01*
X202625518Y-125504517D01*
X202614462Y-125521062D01*
X202597917Y-125532118D01*
X202578400Y-125536000D01*
X202178400Y-125536000D01*
X202158883Y-125532118D01*
X202142338Y-125521062D01*
X202131282Y-125504517D01*
X202127400Y-125485000D01*
X202127400Y-124685000D01*
X202131282Y-124665483D01*
X202142338Y-124648938D01*
X202158883Y-124637882D01*
X202178400Y-124634000D01*
X202578400Y-124634000D01*
X202597917Y-124637882D01*
G37*
G36*
X203397917Y-124637882D02*
G01*
X203414462Y-124648938D01*
X203425518Y-124665483D01*
X203429400Y-124685000D01*
X203429400Y-125485000D01*
X203425518Y-125504517D01*
X203414462Y-125521062D01*
X203397917Y-125532118D01*
X203378400Y-125536000D01*
X202978400Y-125536000D01*
X202958883Y-125532118D01*
X202942338Y-125521062D01*
X202931282Y-125504517D01*
X202927400Y-125485000D01*
X202927400Y-124685000D01*
X202931282Y-124665483D01*
X202942338Y-124648938D01*
X202958883Y-124637882D01*
X202978400Y-124634000D01*
X203378400Y-124634000D01*
X203397917Y-124637882D01*
G37*
G36*
X204197917Y-124637882D02*
G01*
X204214462Y-124648938D01*
X204225518Y-124665483D01*
X204229400Y-124685000D01*
X204229400Y-125485000D01*
X204225518Y-125504517D01*
X204214462Y-125521062D01*
X204197917Y-125532118D01*
X204178400Y-125536000D01*
X203778400Y-125536000D01*
X203758883Y-125532118D01*
X203742338Y-125521062D01*
X203731282Y-125504517D01*
X203727400Y-125485000D01*
X203727400Y-124685000D01*
X203731282Y-124665483D01*
X203742338Y-124648938D01*
X203758883Y-124637882D01*
X203778400Y-124634000D01*
X204178400Y-124634000D01*
X204197917Y-124637882D01*
G37*
G36*
X204997917Y-124637882D02*
G01*
X205014462Y-124648938D01*
X205025518Y-124665483D01*
X205029400Y-124685000D01*
X205029400Y-125485000D01*
X205025518Y-125504517D01*
X205014462Y-125521062D01*
X204997917Y-125532118D01*
X204978400Y-125536000D01*
X204578400Y-125536000D01*
X204558883Y-125532118D01*
X204542338Y-125521062D01*
X204531282Y-125504517D01*
X204527400Y-125485000D01*
X204527400Y-124685000D01*
X204531282Y-124665483D01*
X204542338Y-124648938D01*
X204558883Y-124637882D01*
X204578400Y-124634000D01*
X204978400Y-124634000D01*
X204997917Y-124637882D01*
G37*
G36*
X205797917Y-124637882D02*
G01*
X205814462Y-124648938D01*
X205825518Y-124665483D01*
X205829400Y-124685000D01*
X205829400Y-125485000D01*
X205825518Y-125504517D01*
X205814462Y-125521062D01*
X205797917Y-125532118D01*
X205778400Y-125536000D01*
X205378400Y-125536000D01*
X205358883Y-125532118D01*
X205342338Y-125521062D01*
X205331282Y-125504517D01*
X205327400Y-125485000D01*
X205327400Y-124685000D01*
X205331282Y-124665483D01*
X205342338Y-124648938D01*
X205358883Y-124637882D01*
X205378400Y-124634000D01*
X205778400Y-124634000D01*
X205797917Y-124637882D01*
G37*
G36*
X206597917Y-124637882D02*
G01*
X206614462Y-124648938D01*
X206625518Y-124665483D01*
X206629400Y-124685000D01*
X206629400Y-125485000D01*
X206625518Y-125504517D01*
X206614462Y-125521062D01*
X206597917Y-125532118D01*
X206578400Y-125536000D01*
X206178400Y-125536000D01*
X206158883Y-125532118D01*
X206142338Y-125521062D01*
X206131282Y-125504517D01*
X206127400Y-125485000D01*
X206127400Y-124685000D01*
X206131282Y-124665483D01*
X206142338Y-124648938D01*
X206158883Y-124637882D01*
X206178400Y-124634000D01*
X206578400Y-124634000D01*
X206597917Y-124637882D01*
G37*
G36*
X207397917Y-124637882D02*
G01*
X207414462Y-124648938D01*
X207425518Y-124665483D01*
X207429400Y-124685000D01*
X207429400Y-125485000D01*
X207425518Y-125504517D01*
X207414462Y-125521062D01*
X207397917Y-125532118D01*
X207378400Y-125536000D01*
X206978400Y-125536000D01*
X206958883Y-125532118D01*
X206942338Y-125521062D01*
X206931282Y-125504517D01*
X206927400Y-125485000D01*
X206927400Y-124685000D01*
X206931282Y-124665483D01*
X206942338Y-124648938D01*
X206958883Y-124637882D01*
X206978400Y-124634000D01*
X207378400Y-124634000D01*
X207397917Y-124637882D01*
G37*
G36*
X208197917Y-124637882D02*
G01*
X208214462Y-124648938D01*
X208225518Y-124665483D01*
X208229400Y-124685000D01*
X208229400Y-125485000D01*
X208225518Y-125504517D01*
X208214462Y-125521062D01*
X208197917Y-125532118D01*
X208178400Y-125536000D01*
X207778400Y-125536000D01*
X207758883Y-125532118D01*
X207742338Y-125521062D01*
X207731282Y-125504517D01*
X207727400Y-125485000D01*
X207727400Y-124685000D01*
X207731282Y-124665483D01*
X207742338Y-124648938D01*
X207758883Y-124637882D01*
X207778400Y-124634000D01*
X208178400Y-124634000D01*
X208197917Y-124637882D01*
G37*
G36*
X208997917Y-124637882D02*
G01*
X209014462Y-124648938D01*
X209025518Y-124665483D01*
X209029400Y-124685000D01*
X209029400Y-125485000D01*
X209025518Y-125504517D01*
X209014462Y-125521062D01*
X208997917Y-125532118D01*
X208978400Y-125536000D01*
X208578400Y-125536000D01*
X208558883Y-125532118D01*
X208542338Y-125521062D01*
X208531282Y-125504517D01*
X208527400Y-125485000D01*
X208527400Y-124685000D01*
X208531282Y-124665483D01*
X208542338Y-124648938D01*
X208558883Y-124637882D01*
X208578400Y-124634000D01*
X208978400Y-124634000D01*
X208997917Y-124637882D01*
G37*
G36*
X210297917Y-124737882D02*
G01*
X210314462Y-124748938D01*
X210325518Y-124765483D01*
X210329400Y-124785000D01*
X210329400Y-125485000D01*
X210325518Y-125504517D01*
X210314462Y-125521062D01*
X210297917Y-125532118D01*
X210278400Y-125536000D01*
X209578400Y-125536000D01*
X209558883Y-125532118D01*
X209542338Y-125521062D01*
X209531282Y-125504517D01*
X209527400Y-125485000D01*
X209527400Y-124785000D01*
X209531282Y-124765483D01*
X209542338Y-124748938D01*
X209558883Y-124737882D01*
X209578400Y-124734000D01*
X210278400Y-124734000D01*
X210297917Y-124737882D01*
G37*
G36*
X215239946Y-122832797D02*
G01*
X215403128Y-122900389D01*
X215549988Y-122998518D01*
X215674882Y-123123412D01*
X215773011Y-123270272D01*
X215840603Y-123433454D01*
X215875061Y-123606687D01*
X215875061Y-123783313D01*
X215840603Y-123956546D01*
X215773011Y-124119728D01*
X215674882Y-124266588D01*
X215549988Y-124391482D01*
X215403128Y-124489611D01*
X215239946Y-124557203D01*
X215066713Y-124591661D01*
X214890087Y-124591661D01*
X214716854Y-124557203D01*
X214553672Y-124489611D01*
X214406812Y-124391482D01*
X214281918Y-124266588D01*
X214183789Y-124119728D01*
X214116197Y-123956546D01*
X214081739Y-123783313D01*
X214081739Y-123606687D01*
X214116197Y-123433454D01*
X214183789Y-123270272D01*
X214281918Y-123123412D01*
X214406812Y-122998518D01*
X214553672Y-122900389D01*
X214716854Y-122832797D01*
X214890087Y-122798339D01*
X215066713Y-122798339D01*
X215239946Y-122832797D01*
G37*
G36*
X217779946Y-122832797D02*
G01*
X217943128Y-122900389D01*
X218089988Y-122998518D01*
X218214882Y-123123412D01*
X218313011Y-123270272D01*
X218380603Y-123433454D01*
X218415061Y-123606687D01*
X218415061Y-123783313D01*
X218380603Y-123956546D01*
X218313011Y-124119728D01*
X218214882Y-124266588D01*
X218089988Y-124391482D01*
X217943128Y-124489611D01*
X217779946Y-124557203D01*
X217606713Y-124591661D01*
X217430087Y-124591661D01*
X217256854Y-124557203D01*
X217093672Y-124489611D01*
X216946812Y-124391482D01*
X216821918Y-124266588D01*
X216723789Y-124119728D01*
X216656197Y-123956546D01*
X216621739Y-123783313D01*
X216621739Y-123606687D01*
X216656197Y-123433454D01*
X216723789Y-123270272D01*
X216821918Y-123123412D01*
X216946812Y-122998518D01*
X217093672Y-122900389D01*
X217256854Y-122832797D01*
X217430087Y-122798339D01*
X217606713Y-122798339D01*
X217779946Y-122832797D01*
G37*
G36*
X191097917Y-122737882D02*
G01*
X191114462Y-122748938D01*
X191125518Y-122765483D01*
X191129400Y-122785000D01*
X191129400Y-124485000D01*
X191125518Y-124504517D01*
X191114462Y-124521062D01*
X191097917Y-124532118D01*
X191078400Y-124536000D01*
X189378400Y-124536000D01*
X189358883Y-124532118D01*
X189342338Y-124521062D01*
X189331282Y-124504517D01*
X189327400Y-124485000D01*
X189327400Y-122785000D01*
X189331282Y-122765483D01*
X189342338Y-122748938D01*
X189358883Y-122737882D01*
X189378400Y-122734000D01*
X191078400Y-122734000D01*
X191097917Y-122737882D01*
G37*
G36*
X198497917Y-123937882D02*
G01*
X198514462Y-123948938D01*
X198525518Y-123965483D01*
X198529400Y-123985000D01*
X198529400Y-124385000D01*
X198525518Y-124404517D01*
X198514462Y-124421062D01*
X198497917Y-124432118D01*
X198478400Y-124436000D01*
X197678400Y-124436000D01*
X197658883Y-124432118D01*
X197642338Y-124421062D01*
X197631282Y-124404517D01*
X197627400Y-124385000D01*
X197627400Y-123985000D01*
X197631282Y-123965483D01*
X197642338Y-123948938D01*
X197658883Y-123937882D01*
X197678400Y-123934000D01*
X198478400Y-123934000D01*
X198497917Y-123937882D01*
G37*
G36*
X210297917Y-123937882D02*
G01*
X210314462Y-123948938D01*
X210325518Y-123965483D01*
X210329400Y-123985000D01*
X210329400Y-124385000D01*
X210325518Y-124404517D01*
X210314462Y-124421062D01*
X210297917Y-124432118D01*
X210278400Y-124436000D01*
X209478400Y-124436000D01*
X209458883Y-124432118D01*
X209442338Y-124421062D01*
X209431282Y-124404517D01*
X209427400Y-124385000D01*
X209427400Y-123985000D01*
X209431282Y-123965483D01*
X209442338Y-123948938D01*
X209458883Y-123937882D01*
X209478400Y-123934000D01*
X210278400Y-123934000D01*
X210297917Y-123937882D01*
G37*
G36*
X194166833Y-123366644D02*
G01*
X194213206Y-123373989D01*
X194219257Y-123377072D01*
X194234021Y-123380009D01*
X194262925Y-123399323D01*
X194289711Y-123412971D01*
X194302518Y-123425778D01*
X194323561Y-123439839D01*
X194337621Y-123460881D01*
X194350428Y-123473688D01*
X194364074Y-123500471D01*
X194383391Y-123529379D01*
X194386327Y-123544144D01*
X194389410Y-123550193D01*
X194396751Y-123596545D01*
X194404400Y-123635000D01*
X194404400Y-124085000D01*
X194396750Y-124123458D01*
X194389410Y-124169806D01*
X194386328Y-124175854D01*
X194383391Y-124190621D01*
X194364072Y-124219532D01*
X194350428Y-124246311D01*
X194337623Y-124259115D01*
X194323561Y-124280161D01*
X194302515Y-124294223D01*
X194289711Y-124307028D01*
X194262932Y-124320672D01*
X194234021Y-124339991D01*
X194219254Y-124342928D01*
X194213206Y-124346010D01*
X194166858Y-124353350D01*
X194128400Y-124361000D01*
X193628400Y-124361000D01*
X193589945Y-124353351D01*
X193543593Y-124346010D01*
X193537544Y-124342927D01*
X193522779Y-124339991D01*
X193493871Y-124320674D01*
X193467088Y-124307028D01*
X193454281Y-124294221D01*
X193433239Y-124280161D01*
X193419178Y-124259118D01*
X193406371Y-124246311D01*
X193392723Y-124219525D01*
X193373409Y-124190621D01*
X193370472Y-124175857D01*
X193367389Y-124169806D01*
X193360044Y-124123433D01*
X193352400Y-124085000D01*
X193352400Y-123635000D01*
X193360044Y-123596570D01*
X193367389Y-123550193D01*
X193370472Y-123544141D01*
X193373409Y-123529379D01*
X193392720Y-123500477D01*
X193406371Y-123473688D01*
X193419180Y-123460878D01*
X193433239Y-123439839D01*
X193454278Y-123425780D01*
X193467088Y-123412971D01*
X193493877Y-123399320D01*
X193522779Y-123380009D01*
X193537541Y-123377072D01*
X193543593Y-123373989D01*
X193589970Y-123366644D01*
X193628400Y-123359000D01*
X194128400Y-123359000D01*
X194166833Y-123366644D01*
G37*
G36*
X195464438Y-123237190D02*
G01*
X195494799Y-123241187D01*
X195502436Y-123244748D01*
X195521493Y-123248539D01*
X195546732Y-123265404D01*
X195556844Y-123270119D01*
X195562996Y-123276271D01*
X195583457Y-123289943D01*
X195597128Y-123310403D01*
X195603280Y-123316555D01*
X195607994Y-123326664D01*
X195624861Y-123351907D01*
X195628651Y-123370965D01*
X195632212Y-123378600D01*
X195636207Y-123408950D01*
X195639400Y-123425000D01*
X195639400Y-123705000D01*
X195636206Y-123721052D01*
X195632212Y-123751399D01*
X195628652Y-123759032D01*
X195624861Y-123778093D01*
X195607992Y-123803337D01*
X195603280Y-123813444D01*
X195597130Y-123819593D01*
X195583457Y-123840057D01*
X195562993Y-123853730D01*
X195556844Y-123859880D01*
X195546737Y-123864592D01*
X195521493Y-123881461D01*
X195502432Y-123885252D01*
X195494799Y-123888812D01*
X195464451Y-123892807D01*
X195448400Y-123896000D01*
X195108400Y-123896000D01*
X195092348Y-123892807D01*
X195062000Y-123888812D01*
X195054365Y-123885251D01*
X195035307Y-123881461D01*
X195010064Y-123864594D01*
X194999955Y-123859880D01*
X194993803Y-123853728D01*
X194973343Y-123840057D01*
X194959671Y-123819596D01*
X194953519Y-123813444D01*
X194948804Y-123803332D01*
X194931939Y-123778093D01*
X194928148Y-123759036D01*
X194924587Y-123751399D01*
X194920589Y-123721037D01*
X194917400Y-123705000D01*
X194917400Y-123425000D01*
X194920589Y-123408963D01*
X194924587Y-123378600D01*
X194928148Y-123370961D01*
X194931939Y-123351907D01*
X194948802Y-123326669D01*
X194953519Y-123316555D01*
X194959673Y-123310400D01*
X194973343Y-123289943D01*
X194993800Y-123276273D01*
X194999955Y-123270119D01*
X195010069Y-123265402D01*
X195035307Y-123248539D01*
X195054361Y-123244748D01*
X195062000Y-123241187D01*
X195092364Y-123237189D01*
X195108400Y-123234000D01*
X195448400Y-123234000D01*
X195464438Y-123237190D01*
G37*
G36*
X196664438Y-123237190D02*
G01*
X196694799Y-123241187D01*
X196702436Y-123244748D01*
X196721493Y-123248539D01*
X196746732Y-123265404D01*
X196756844Y-123270119D01*
X196762996Y-123276271D01*
X196783457Y-123289943D01*
X196797128Y-123310403D01*
X196803280Y-123316555D01*
X196807994Y-123326664D01*
X196824861Y-123351907D01*
X196828651Y-123370965D01*
X196832212Y-123378600D01*
X196836207Y-123408950D01*
X196839400Y-123425000D01*
X196839400Y-123705000D01*
X196836206Y-123721052D01*
X196832212Y-123751399D01*
X196828652Y-123759032D01*
X196824861Y-123778093D01*
X196807992Y-123803337D01*
X196803280Y-123813444D01*
X196797130Y-123819593D01*
X196783457Y-123840057D01*
X196762993Y-123853730D01*
X196756844Y-123859880D01*
X196746737Y-123864592D01*
X196721493Y-123881461D01*
X196702432Y-123885252D01*
X196694799Y-123888812D01*
X196664451Y-123892807D01*
X196648400Y-123896000D01*
X196308400Y-123896000D01*
X196292348Y-123892807D01*
X196262000Y-123888812D01*
X196254365Y-123885251D01*
X196235307Y-123881461D01*
X196210064Y-123864594D01*
X196199955Y-123859880D01*
X196193803Y-123853728D01*
X196173343Y-123840057D01*
X196159671Y-123819596D01*
X196153519Y-123813444D01*
X196148804Y-123803332D01*
X196131939Y-123778093D01*
X196128148Y-123759036D01*
X196124587Y-123751399D01*
X196120589Y-123721037D01*
X196117400Y-123705000D01*
X196117400Y-123425000D01*
X196120589Y-123408963D01*
X196124587Y-123378600D01*
X196128148Y-123370961D01*
X196131939Y-123351907D01*
X196148802Y-123326669D01*
X196153519Y-123316555D01*
X196159673Y-123310400D01*
X196173343Y-123289943D01*
X196193800Y-123276273D01*
X196199955Y-123270119D01*
X196210069Y-123265402D01*
X196235307Y-123248539D01*
X196254361Y-123244748D01*
X196262000Y-123241187D01*
X196292364Y-123237189D01*
X196308400Y-123234000D01*
X196648400Y-123234000D01*
X196664438Y-123237190D01*
G37*
G36*
X198497917Y-123137882D02*
G01*
X198514462Y-123148938D01*
X198525518Y-123165483D01*
X198529400Y-123185000D01*
X198529400Y-123585000D01*
X198525518Y-123604517D01*
X198514462Y-123621062D01*
X198497917Y-123632118D01*
X198478400Y-123636000D01*
X197678400Y-123636000D01*
X197658883Y-123632118D01*
X197642338Y-123621062D01*
X197631282Y-123604517D01*
X197627400Y-123585000D01*
X197627400Y-123185000D01*
X197631282Y-123165483D01*
X197642338Y-123148938D01*
X197658883Y-123137882D01*
X197678400Y-123134000D01*
X198478400Y-123134000D01*
X198497917Y-123137882D01*
G37*
G36*
X210297917Y-123137882D02*
G01*
X210314462Y-123148938D01*
X210325518Y-123165483D01*
X210329400Y-123185000D01*
X210329400Y-123585000D01*
X210325518Y-123604517D01*
X210314462Y-123621062D01*
X210297917Y-123632118D01*
X210278400Y-123636000D01*
X209478400Y-123636000D01*
X209458883Y-123632118D01*
X209442338Y-123621062D01*
X209431282Y-123604517D01*
X209427400Y-123585000D01*
X209427400Y-123185000D01*
X209431282Y-123165483D01*
X209442338Y-123148938D01*
X209458883Y-123137882D01*
X209478400Y-123134000D01*
X210278400Y-123134000D01*
X210297917Y-123137882D01*
G37*
G36*
X202750699Y-121388236D02*
G01*
X202752685Y-121388726D01*
X202753391Y-121389351D01*
X202767998Y-121395402D01*
X202784400Y-121435000D01*
X202784400Y-122885000D01*
X202775161Y-122907304D01*
X202774673Y-122909285D01*
X202774049Y-122909989D01*
X202767998Y-122924598D01*
X202728400Y-122941000D01*
X202723830Y-122941000D01*
X201893578Y-122941000D01*
X201878400Y-122941000D01*
X201856093Y-122931760D01*
X201848339Y-122929849D01*
X201844294Y-122926872D01*
X201838802Y-122924598D01*
X201238802Y-122324598D01*
X201229565Y-122302298D01*
X201225430Y-122295458D01*
X201224674Y-122290490D01*
X201222400Y-122285000D01*
X201222400Y-121435000D01*
X201231635Y-121412702D01*
X201232126Y-121410714D01*
X201232752Y-121410006D01*
X201238802Y-121395402D01*
X201278400Y-121379000D01*
X202728400Y-121379000D01*
X202750699Y-121388236D01*
G37*
G36*
X195464438Y-122277190D02*
G01*
X195494799Y-122281187D01*
X195502436Y-122284748D01*
X195521493Y-122288539D01*
X195546732Y-122305404D01*
X195556844Y-122310119D01*
X195562996Y-122316271D01*
X195583457Y-122329943D01*
X195597128Y-122350403D01*
X195603280Y-122356555D01*
X195607994Y-122366664D01*
X195624861Y-122391907D01*
X195628651Y-122410965D01*
X195632212Y-122418600D01*
X195636207Y-122448950D01*
X195639400Y-122465000D01*
X195639400Y-122745000D01*
X195636206Y-122761052D01*
X195632212Y-122791399D01*
X195628652Y-122799032D01*
X195624861Y-122818093D01*
X195607992Y-122843337D01*
X195603280Y-122853444D01*
X195597130Y-122859593D01*
X195583457Y-122880057D01*
X195562993Y-122893730D01*
X195556844Y-122899880D01*
X195546737Y-122904592D01*
X195521493Y-122921461D01*
X195502432Y-122925252D01*
X195494799Y-122928812D01*
X195464451Y-122932807D01*
X195448400Y-122936000D01*
X195108400Y-122936000D01*
X195092348Y-122932807D01*
X195062000Y-122928812D01*
X195054365Y-122925251D01*
X195035307Y-122921461D01*
X195010064Y-122904594D01*
X194999955Y-122899880D01*
X194993803Y-122893728D01*
X194973343Y-122880057D01*
X194959671Y-122859596D01*
X194953519Y-122853444D01*
X194948804Y-122843332D01*
X194931939Y-122818093D01*
X194928148Y-122799036D01*
X194924587Y-122791399D01*
X194920589Y-122761037D01*
X194917400Y-122745000D01*
X194917400Y-122465000D01*
X194920589Y-122448963D01*
X194924587Y-122418600D01*
X194928148Y-122410961D01*
X194931939Y-122391907D01*
X194948802Y-122366669D01*
X194953519Y-122356555D01*
X194959673Y-122350400D01*
X194973343Y-122329943D01*
X194993800Y-122316273D01*
X194999955Y-122310119D01*
X195010069Y-122305402D01*
X195035307Y-122288539D01*
X195054361Y-122284748D01*
X195062000Y-122281187D01*
X195092364Y-122277189D01*
X195108400Y-122274000D01*
X195448400Y-122274000D01*
X195464438Y-122277190D01*
G37*
G36*
X196664438Y-122277190D02*
G01*
X196694799Y-122281187D01*
X196702436Y-122284748D01*
X196721493Y-122288539D01*
X196746732Y-122305404D01*
X196756844Y-122310119D01*
X196762996Y-122316271D01*
X196783457Y-122329943D01*
X196797128Y-122350403D01*
X196803280Y-122356555D01*
X196807994Y-122366664D01*
X196824861Y-122391907D01*
X196828651Y-122410965D01*
X196832212Y-122418600D01*
X196836207Y-122448950D01*
X196839400Y-122465000D01*
X196839400Y-122745000D01*
X196836206Y-122761052D01*
X196832212Y-122791399D01*
X196828652Y-122799032D01*
X196824861Y-122818093D01*
X196807992Y-122843337D01*
X196803280Y-122853444D01*
X196797130Y-122859593D01*
X196783457Y-122880057D01*
X196762993Y-122893730D01*
X196756844Y-122899880D01*
X196746737Y-122904592D01*
X196721493Y-122921461D01*
X196702432Y-122925252D01*
X196694799Y-122928812D01*
X196664451Y-122932807D01*
X196648400Y-122936000D01*
X196308400Y-122936000D01*
X196292348Y-122932807D01*
X196262000Y-122928812D01*
X196254365Y-122925251D01*
X196235307Y-122921461D01*
X196210064Y-122904594D01*
X196199955Y-122899880D01*
X196193803Y-122893728D01*
X196173343Y-122880057D01*
X196159671Y-122859596D01*
X196153519Y-122853444D01*
X196148804Y-122843332D01*
X196131939Y-122818093D01*
X196128148Y-122799036D01*
X196124587Y-122791399D01*
X196120589Y-122761037D01*
X196117400Y-122745000D01*
X196117400Y-122465000D01*
X196120589Y-122448963D01*
X196124587Y-122418600D01*
X196128148Y-122410961D01*
X196131939Y-122391907D01*
X196148802Y-122366669D01*
X196153519Y-122356555D01*
X196159673Y-122350400D01*
X196173343Y-122329943D01*
X196193800Y-122316273D01*
X196199955Y-122310119D01*
X196210069Y-122305402D01*
X196235307Y-122288539D01*
X196254361Y-122284748D01*
X196262000Y-122281187D01*
X196292364Y-122277189D01*
X196308400Y-122274000D01*
X196648400Y-122274000D01*
X196664438Y-122277190D01*
G37*
G36*
X204722917Y-121387882D02*
G01*
X204739462Y-121398938D01*
X204750518Y-121415483D01*
X204754400Y-121435000D01*
X204754400Y-122885000D01*
X204750518Y-122904517D01*
X204739462Y-122921062D01*
X204722917Y-122932118D01*
X204703400Y-122936000D01*
X203253400Y-122936000D01*
X203233883Y-122932118D01*
X203217338Y-122921062D01*
X203206282Y-122904517D01*
X203202400Y-122885000D01*
X203202400Y-121435000D01*
X203206282Y-121415483D01*
X203217338Y-121398938D01*
X203233883Y-121387882D01*
X203253400Y-121384000D01*
X204703400Y-121384000D01*
X204722917Y-121387882D01*
G37*
G36*
X206697917Y-121387882D02*
G01*
X206714462Y-121398938D01*
X206725518Y-121415483D01*
X206729400Y-121435000D01*
X206729400Y-122885000D01*
X206725518Y-122904517D01*
X206714462Y-122921062D01*
X206697917Y-122932118D01*
X206678400Y-122936000D01*
X205228400Y-122936000D01*
X205208883Y-122932118D01*
X205192338Y-122921062D01*
X205181282Y-122904517D01*
X205177400Y-122885000D01*
X205177400Y-121435000D01*
X205181282Y-121415483D01*
X205192338Y-121398938D01*
X205208883Y-121387882D01*
X205228400Y-121384000D01*
X206678400Y-121384000D01*
X206697917Y-121387882D01*
G37*
G36*
X198497917Y-122337882D02*
G01*
X198514462Y-122348938D01*
X198525518Y-122365483D01*
X198529400Y-122385000D01*
X198529400Y-122785000D01*
X198525518Y-122804517D01*
X198514462Y-122821062D01*
X198497917Y-122832118D01*
X198478400Y-122836000D01*
X197678400Y-122836000D01*
X197658883Y-122832118D01*
X197642338Y-122821062D01*
X197631282Y-122804517D01*
X197627400Y-122785000D01*
X197627400Y-122385000D01*
X197631282Y-122365483D01*
X197642338Y-122348938D01*
X197658883Y-122337882D01*
X197678400Y-122334000D01*
X198478400Y-122334000D01*
X198497917Y-122337882D01*
G37*
G36*
X210297917Y-122337882D02*
G01*
X210314462Y-122348938D01*
X210325518Y-122365483D01*
X210329400Y-122385000D01*
X210329400Y-122785000D01*
X210325518Y-122804517D01*
X210314462Y-122821062D01*
X210297917Y-122832118D01*
X210278400Y-122836000D01*
X209478400Y-122836000D01*
X209458883Y-122832118D01*
X209442338Y-122821062D01*
X209431282Y-122804517D01*
X209427400Y-122785000D01*
X209427400Y-122385000D01*
X209431282Y-122365483D01*
X209442338Y-122348938D01*
X209458883Y-122337882D01*
X209478400Y-122334000D01*
X210278400Y-122334000D01*
X210297917Y-122337882D01*
G37*
G36*
X194166833Y-121816644D02*
G01*
X194213206Y-121823989D01*
X194219257Y-121827072D01*
X194234021Y-121830009D01*
X194262925Y-121849323D01*
X194289711Y-121862971D01*
X194302518Y-121875778D01*
X194323561Y-121889839D01*
X194337621Y-121910881D01*
X194350428Y-121923688D01*
X194364074Y-121950471D01*
X194383391Y-121979379D01*
X194386327Y-121994144D01*
X194389410Y-122000193D01*
X194396751Y-122046545D01*
X194404400Y-122085000D01*
X194404400Y-122535000D01*
X194396750Y-122573458D01*
X194389410Y-122619806D01*
X194386328Y-122625854D01*
X194383391Y-122640621D01*
X194364072Y-122669532D01*
X194350428Y-122696311D01*
X194337623Y-122709115D01*
X194323561Y-122730161D01*
X194302515Y-122744223D01*
X194289711Y-122757028D01*
X194262932Y-122770672D01*
X194234021Y-122789991D01*
X194219254Y-122792928D01*
X194213206Y-122796010D01*
X194166858Y-122803350D01*
X194128400Y-122811000D01*
X193628400Y-122811000D01*
X193589945Y-122803351D01*
X193543593Y-122796010D01*
X193537544Y-122792927D01*
X193522779Y-122789991D01*
X193493871Y-122770674D01*
X193467088Y-122757028D01*
X193454281Y-122744221D01*
X193433239Y-122730161D01*
X193419178Y-122709118D01*
X193406371Y-122696311D01*
X193392723Y-122669525D01*
X193373409Y-122640621D01*
X193370472Y-122625857D01*
X193367389Y-122619806D01*
X193360044Y-122573433D01*
X193352400Y-122535000D01*
X193352400Y-122085000D01*
X193360044Y-122046570D01*
X193367389Y-122000193D01*
X193370472Y-121994141D01*
X193373409Y-121979379D01*
X193392720Y-121950477D01*
X193406371Y-121923688D01*
X193419180Y-121910878D01*
X193433239Y-121889839D01*
X193454278Y-121875780D01*
X193467088Y-121862971D01*
X193493877Y-121849320D01*
X193522779Y-121830009D01*
X193537541Y-121827072D01*
X193543593Y-121823989D01*
X193589970Y-121816644D01*
X193628400Y-121809000D01*
X194128400Y-121809000D01*
X194166833Y-121816644D01*
G37*
G36*
X215239946Y-120292797D02*
G01*
X215403128Y-120360389D01*
X215549988Y-120458518D01*
X215674882Y-120583412D01*
X215773011Y-120730272D01*
X215840603Y-120893454D01*
X215875061Y-121066687D01*
X215875061Y-121243313D01*
X215840603Y-121416546D01*
X215773011Y-121579728D01*
X215674882Y-121726588D01*
X215549988Y-121851482D01*
X215403128Y-121949611D01*
X215239946Y-122017203D01*
X215066713Y-122051661D01*
X214890087Y-122051661D01*
X214716854Y-122017203D01*
X214553672Y-121949611D01*
X214406812Y-121851482D01*
X214281918Y-121726588D01*
X214183789Y-121579728D01*
X214116197Y-121416546D01*
X214081739Y-121243313D01*
X214081739Y-121066687D01*
X214116197Y-120893454D01*
X214183789Y-120730272D01*
X214281918Y-120583412D01*
X214406812Y-120458518D01*
X214553672Y-120360389D01*
X214716854Y-120292797D01*
X214890087Y-120258339D01*
X215066713Y-120258339D01*
X215239946Y-120292797D01*
G37*
G36*
X217779946Y-120292797D02*
G01*
X217943128Y-120360389D01*
X218089988Y-120458518D01*
X218214882Y-120583412D01*
X218313011Y-120730272D01*
X218380603Y-120893454D01*
X218415061Y-121066687D01*
X218415061Y-121243313D01*
X218380603Y-121416546D01*
X218313011Y-121579728D01*
X218214882Y-121726588D01*
X218089988Y-121851482D01*
X217943128Y-121949611D01*
X217779946Y-122017203D01*
X217606713Y-122051661D01*
X217430087Y-122051661D01*
X217256854Y-122017203D01*
X217093672Y-121949611D01*
X216946812Y-121851482D01*
X216821918Y-121726588D01*
X216723789Y-121579728D01*
X216656197Y-121416546D01*
X216621739Y-121243313D01*
X216621739Y-121066687D01*
X216656197Y-120893454D01*
X216723789Y-120730272D01*
X216821918Y-120583412D01*
X216946812Y-120458518D01*
X217093672Y-120360389D01*
X217256854Y-120292797D01*
X217430087Y-120258339D01*
X217606713Y-120258339D01*
X217779946Y-120292797D01*
G37*
G36*
X198497917Y-121537882D02*
G01*
X198514462Y-121548938D01*
X198525518Y-121565483D01*
X198529400Y-121585000D01*
X198529400Y-121985000D01*
X198525518Y-122004517D01*
X198514462Y-122021062D01*
X198497917Y-122032118D01*
X198478400Y-122036000D01*
X197678400Y-122036000D01*
X197658883Y-122032118D01*
X197642338Y-122021062D01*
X197631282Y-122004517D01*
X197627400Y-121985000D01*
X197627400Y-121585000D01*
X197631282Y-121565483D01*
X197642338Y-121548938D01*
X197658883Y-121537882D01*
X197678400Y-121534000D01*
X198478400Y-121534000D01*
X198497917Y-121537882D01*
G37*
G36*
X210297917Y-121537882D02*
G01*
X210314462Y-121548938D01*
X210325518Y-121565483D01*
X210329400Y-121585000D01*
X210329400Y-121985000D01*
X210325518Y-122004517D01*
X210314462Y-122021062D01*
X210297917Y-122032118D01*
X210278400Y-122036000D01*
X209478400Y-122036000D01*
X209458883Y-122032118D01*
X209442338Y-122021062D01*
X209431282Y-122004517D01*
X209427400Y-121985000D01*
X209427400Y-121585000D01*
X209431282Y-121565483D01*
X209442338Y-121548938D01*
X209458883Y-121537882D01*
X209478400Y-121534000D01*
X210278400Y-121534000D01*
X210297917Y-121537882D01*
G37*
G36*
X190489946Y-120232797D02*
G01*
X190653128Y-120300389D01*
X190799988Y-120398518D01*
X190924882Y-120523412D01*
X191023011Y-120670272D01*
X191090603Y-120833454D01*
X191125061Y-121006687D01*
X191125061Y-121183313D01*
X191090603Y-121356546D01*
X191023011Y-121519728D01*
X190924882Y-121666588D01*
X190799988Y-121791482D01*
X190653128Y-121889611D01*
X190489946Y-121957203D01*
X190316713Y-121991661D01*
X190140087Y-121991661D01*
X189966854Y-121957203D01*
X189803672Y-121889611D01*
X189656812Y-121791482D01*
X189531918Y-121666588D01*
X189433789Y-121519728D01*
X189366197Y-121356546D01*
X189331739Y-121183313D01*
X189331739Y-121006687D01*
X189366197Y-120833454D01*
X189433789Y-120670272D01*
X189531918Y-120523412D01*
X189656812Y-120398518D01*
X189803672Y-120300389D01*
X189966854Y-120232797D01*
X190140087Y-120198339D01*
X190316713Y-120198339D01*
X190489946Y-120232797D01*
G37*
G36*
X196673512Y-121176011D02*
G01*
X196701412Y-121179248D01*
X196710944Y-121183456D01*
X196734579Y-121188158D01*
X196759882Y-121205065D01*
X196767290Y-121208336D01*
X196772349Y-121213395D01*
X196794922Y-121228478D01*
X196810004Y-121251050D01*
X196815063Y-121256109D01*
X196818333Y-121263515D01*
X196835242Y-121288821D01*
X196839943Y-121312456D01*
X196844151Y-121321986D01*
X196847386Y-121349878D01*
X196849400Y-121360000D01*
X196849400Y-121630000D01*
X196847386Y-121640124D01*
X196844151Y-121668012D01*
X196839943Y-121677540D01*
X196835242Y-121701179D01*
X196818331Y-121726486D01*
X196815063Y-121733890D01*
X196810006Y-121738946D01*
X196794922Y-121761522D01*
X196772346Y-121776606D01*
X196767290Y-121781663D01*
X196759886Y-121784931D01*
X196734579Y-121801842D01*
X196710941Y-121806543D01*
X196701413Y-121810751D01*
X196673522Y-121813986D01*
X196663400Y-121816000D01*
X196293400Y-121816000D01*
X196283276Y-121813986D01*
X196255387Y-121810751D01*
X196245858Y-121806543D01*
X196222221Y-121801842D01*
X196196915Y-121784933D01*
X196189509Y-121781663D01*
X196184450Y-121776604D01*
X196161878Y-121761522D01*
X196146795Y-121738949D01*
X196141736Y-121733890D01*
X196138465Y-121726482D01*
X196121558Y-121701179D01*
X196116857Y-121677545D01*
X196112648Y-121668013D01*
X196109411Y-121640110D01*
X196107400Y-121630000D01*
X196107400Y-121360000D01*
X196109411Y-121349889D01*
X196112648Y-121321987D01*
X196116857Y-121312454D01*
X196121558Y-121288821D01*
X196138463Y-121263519D01*
X196141736Y-121256109D01*
X196146797Y-121251047D01*
X196161878Y-121228478D01*
X196184447Y-121213397D01*
X196189509Y-121208336D01*
X196196919Y-121205063D01*
X196222221Y-121188158D01*
X196245852Y-121183457D01*
X196255386Y-121179248D01*
X196283290Y-121176010D01*
X196293400Y-121174000D01*
X196663400Y-121174000D01*
X196673512Y-121176011D01*
G37*
G36*
X198497917Y-120737882D02*
G01*
X198514462Y-120748938D01*
X198525518Y-120765483D01*
X198529400Y-120785000D01*
X198529400Y-121185000D01*
X198525518Y-121204517D01*
X198514462Y-121221062D01*
X198497917Y-121232118D01*
X198478400Y-121236000D01*
X197678400Y-121236000D01*
X197658883Y-121232118D01*
X197642338Y-121221062D01*
X197631282Y-121204517D01*
X197627400Y-121185000D01*
X197627400Y-120785000D01*
X197631282Y-120765483D01*
X197642338Y-120748938D01*
X197658883Y-120737882D01*
X197678400Y-120734000D01*
X198478400Y-120734000D01*
X198497917Y-120737882D01*
G37*
G36*
X210297917Y-120737882D02*
G01*
X210314462Y-120748938D01*
X210325518Y-120765483D01*
X210329400Y-120785000D01*
X210329400Y-121185000D01*
X210325518Y-121204517D01*
X210314462Y-121221062D01*
X210297917Y-121232118D01*
X210278400Y-121236000D01*
X209478400Y-121236000D01*
X209458883Y-121232118D01*
X209442338Y-121221062D01*
X209431282Y-121204517D01*
X209427400Y-121185000D01*
X209427400Y-120785000D01*
X209431282Y-120765483D01*
X209442338Y-120748938D01*
X209458883Y-120737882D01*
X209478400Y-120734000D01*
X210278400Y-120734000D01*
X210297917Y-120737882D01*
G37*
G36*
X202747917Y-119412882D02*
G01*
X202764462Y-119423938D01*
X202775518Y-119440483D01*
X202779400Y-119460000D01*
X202779400Y-120910000D01*
X202775518Y-120929517D01*
X202764462Y-120946062D01*
X202747917Y-120957118D01*
X202728400Y-120961000D01*
X201278400Y-120961000D01*
X201258883Y-120957118D01*
X201242338Y-120946062D01*
X201231282Y-120929517D01*
X201227400Y-120910000D01*
X201227400Y-119460000D01*
X201231282Y-119440483D01*
X201242338Y-119423938D01*
X201258883Y-119412882D01*
X201278400Y-119409000D01*
X202728400Y-119409000D01*
X202747917Y-119412882D01*
G37*
G36*
X204722917Y-119412882D02*
G01*
X204739462Y-119423938D01*
X204750518Y-119440483D01*
X204754400Y-119460000D01*
X204754400Y-120910000D01*
X204750518Y-120929517D01*
X204739462Y-120946062D01*
X204722917Y-120957118D01*
X204703400Y-120961000D01*
X203253400Y-120961000D01*
X203233883Y-120957118D01*
X203217338Y-120946062D01*
X203206282Y-120929517D01*
X203202400Y-120910000D01*
X203202400Y-119460000D01*
X203206282Y-119440483D01*
X203217338Y-119423938D01*
X203233883Y-119412882D01*
X203253400Y-119409000D01*
X204703400Y-119409000D01*
X204722917Y-119412882D01*
G37*
G36*
X206697917Y-119412882D02*
G01*
X206714462Y-119423938D01*
X206725518Y-119440483D01*
X206729400Y-119460000D01*
X206729400Y-120910000D01*
X206725518Y-120929517D01*
X206714462Y-120946062D01*
X206697917Y-120957118D01*
X206678400Y-120961000D01*
X205228400Y-120961000D01*
X205208883Y-120957118D01*
X205192338Y-120946062D01*
X205181282Y-120929517D01*
X205177400Y-120910000D01*
X205177400Y-119460000D01*
X205181282Y-119440483D01*
X205192338Y-119423938D01*
X205208883Y-119412882D01*
X205228400Y-119409000D01*
X206678400Y-119409000D01*
X206697917Y-119412882D01*
G37*
G36*
X196673512Y-120156011D02*
G01*
X196701412Y-120159248D01*
X196710944Y-120163456D01*
X196734579Y-120168158D01*
X196759882Y-120185065D01*
X196767290Y-120188336D01*
X196772349Y-120193395D01*
X196794922Y-120208478D01*
X196810004Y-120231050D01*
X196815063Y-120236109D01*
X196818333Y-120243515D01*
X196835242Y-120268821D01*
X196839943Y-120292456D01*
X196844151Y-120301986D01*
X196847386Y-120329878D01*
X196849400Y-120340000D01*
X196849400Y-120610000D01*
X196847386Y-120620124D01*
X196844151Y-120648012D01*
X196839943Y-120657540D01*
X196835242Y-120681179D01*
X196818331Y-120706486D01*
X196815063Y-120713890D01*
X196810006Y-120718946D01*
X196794922Y-120741522D01*
X196772346Y-120756606D01*
X196767290Y-120761663D01*
X196759886Y-120764931D01*
X196734579Y-120781842D01*
X196710941Y-120786543D01*
X196701413Y-120790751D01*
X196673522Y-120793986D01*
X196663400Y-120796000D01*
X196293400Y-120796000D01*
X196283276Y-120793986D01*
X196255387Y-120790751D01*
X196245858Y-120786543D01*
X196222221Y-120781842D01*
X196196915Y-120764933D01*
X196189509Y-120761663D01*
X196184450Y-120756604D01*
X196161878Y-120741522D01*
X196146795Y-120718949D01*
X196141736Y-120713890D01*
X196138465Y-120706482D01*
X196121558Y-120681179D01*
X196116857Y-120657545D01*
X196112648Y-120648013D01*
X196109411Y-120620110D01*
X196107400Y-120610000D01*
X196107400Y-120340000D01*
X196109411Y-120329889D01*
X196112648Y-120301987D01*
X196116857Y-120292454D01*
X196121558Y-120268821D01*
X196138463Y-120243519D01*
X196141736Y-120236109D01*
X196146797Y-120231047D01*
X196161878Y-120208478D01*
X196184447Y-120193397D01*
X196189509Y-120188336D01*
X196196919Y-120185063D01*
X196222221Y-120168158D01*
X196245852Y-120163457D01*
X196255386Y-120159248D01*
X196283290Y-120156010D01*
X196293400Y-120154000D01*
X196663400Y-120154000D01*
X196673512Y-120156011D01*
G37*
G36*
X198497917Y-119937882D02*
G01*
X198514462Y-119948938D01*
X198525518Y-119965483D01*
X198529400Y-119985000D01*
X198529400Y-120385000D01*
X198525518Y-120404517D01*
X198514462Y-120421062D01*
X198497917Y-120432118D01*
X198478400Y-120436000D01*
X197678400Y-120436000D01*
X197658883Y-120432118D01*
X197642338Y-120421062D01*
X197631282Y-120404517D01*
X197627400Y-120385000D01*
X197627400Y-119985000D01*
X197631282Y-119965483D01*
X197642338Y-119948938D01*
X197658883Y-119937882D01*
X197678400Y-119934000D01*
X198478400Y-119934000D01*
X198497917Y-119937882D01*
G37*
G36*
X210297917Y-119937882D02*
G01*
X210314462Y-119948938D01*
X210325518Y-119965483D01*
X210329400Y-119985000D01*
X210329400Y-120385000D01*
X210325518Y-120404517D01*
X210314462Y-120421062D01*
X210297917Y-120432118D01*
X210278400Y-120436000D01*
X209478400Y-120436000D01*
X209458883Y-120432118D01*
X209442338Y-120421062D01*
X209431282Y-120404517D01*
X209427400Y-120385000D01*
X209427400Y-119985000D01*
X209431282Y-119965483D01*
X209442338Y-119948938D01*
X209458883Y-119937882D01*
X209478400Y-119934000D01*
X210278400Y-119934000D01*
X210297917Y-119937882D01*
G37*
G36*
X196664438Y-119037190D02*
G01*
X196694799Y-119041187D01*
X196702436Y-119044748D01*
X196721493Y-119048539D01*
X196746732Y-119065404D01*
X196756844Y-119070119D01*
X196762996Y-119076271D01*
X196783457Y-119089943D01*
X196797128Y-119110403D01*
X196803280Y-119116555D01*
X196807994Y-119126664D01*
X196824861Y-119151907D01*
X196828651Y-119170965D01*
X196832212Y-119178600D01*
X196836207Y-119208950D01*
X196839400Y-119225000D01*
X196839400Y-119505000D01*
X196836206Y-119521052D01*
X196832212Y-119551399D01*
X196828652Y-119559032D01*
X196824861Y-119578093D01*
X196807992Y-119603337D01*
X196803280Y-119613444D01*
X196797130Y-119619593D01*
X196783457Y-119640057D01*
X196762993Y-119653730D01*
X196756844Y-119659880D01*
X196746737Y-119664592D01*
X196721493Y-119681461D01*
X196702432Y-119685252D01*
X196694799Y-119688812D01*
X196664451Y-119692807D01*
X196648400Y-119696000D01*
X196308400Y-119696000D01*
X196292348Y-119692807D01*
X196262000Y-119688812D01*
X196254365Y-119685251D01*
X196235307Y-119681461D01*
X196210064Y-119664594D01*
X196199955Y-119659880D01*
X196193803Y-119653728D01*
X196173343Y-119640057D01*
X196159671Y-119619596D01*
X196153519Y-119613444D01*
X196148804Y-119603332D01*
X196131939Y-119578093D01*
X196128148Y-119559036D01*
X196124587Y-119551399D01*
X196120589Y-119521037D01*
X196117400Y-119505000D01*
X196117400Y-119225000D01*
X196120589Y-119208963D01*
X196124587Y-119178600D01*
X196128148Y-119170961D01*
X196131939Y-119151907D01*
X196148802Y-119126669D01*
X196153519Y-119116555D01*
X196159673Y-119110400D01*
X196173343Y-119089943D01*
X196193800Y-119076273D01*
X196199955Y-119070119D01*
X196210069Y-119065402D01*
X196235307Y-119048539D01*
X196254361Y-119044748D01*
X196262000Y-119041187D01*
X196292364Y-119037189D01*
X196308400Y-119034000D01*
X196648400Y-119034000D01*
X196664438Y-119037190D01*
G37*
G36*
X198497917Y-119137882D02*
G01*
X198514462Y-119148938D01*
X198525518Y-119165483D01*
X198529400Y-119185000D01*
X198529400Y-119585000D01*
X198525518Y-119604517D01*
X198514462Y-119621062D01*
X198497917Y-119632118D01*
X198478400Y-119636000D01*
X197678400Y-119636000D01*
X197658883Y-119632118D01*
X197642338Y-119621062D01*
X197631282Y-119604517D01*
X197627400Y-119585000D01*
X197627400Y-119185000D01*
X197631282Y-119165483D01*
X197642338Y-119148938D01*
X197658883Y-119137882D01*
X197678400Y-119134000D01*
X198478400Y-119134000D01*
X198497917Y-119137882D01*
G37*
G36*
X210297917Y-119137882D02*
G01*
X210314462Y-119148938D01*
X210325518Y-119165483D01*
X210329400Y-119185000D01*
X210329400Y-119585000D01*
X210325518Y-119604517D01*
X210314462Y-119621062D01*
X210297917Y-119632118D01*
X210278400Y-119636000D01*
X209478400Y-119636000D01*
X209458883Y-119632118D01*
X209442338Y-119621062D01*
X209431282Y-119604517D01*
X209427400Y-119585000D01*
X209427400Y-119185000D01*
X209431282Y-119165483D01*
X209442338Y-119148938D01*
X209458883Y-119137882D01*
X209478400Y-119134000D01*
X210278400Y-119134000D01*
X210297917Y-119137882D01*
G37*
G36*
X215239946Y-117752797D02*
G01*
X215403128Y-117820389D01*
X215549988Y-117918518D01*
X215674882Y-118043412D01*
X215773011Y-118190272D01*
X215840603Y-118353454D01*
X215875061Y-118526687D01*
X215875061Y-118703313D01*
X215840603Y-118876546D01*
X215773011Y-119039728D01*
X215674882Y-119186588D01*
X215549988Y-119311482D01*
X215403128Y-119409611D01*
X215239946Y-119477203D01*
X215066713Y-119511661D01*
X214890087Y-119511661D01*
X214716854Y-119477203D01*
X214553672Y-119409611D01*
X214406812Y-119311482D01*
X214281918Y-119186588D01*
X214183789Y-119039728D01*
X214116197Y-118876546D01*
X214081739Y-118703313D01*
X214081739Y-118526687D01*
X214116197Y-118353454D01*
X214183789Y-118190272D01*
X214281918Y-118043412D01*
X214406812Y-117918518D01*
X214553672Y-117820389D01*
X214716854Y-117752797D01*
X214890087Y-117718339D01*
X215066713Y-117718339D01*
X215239946Y-117752797D01*
G37*
G36*
X217779946Y-117752797D02*
G01*
X217943128Y-117820389D01*
X218089988Y-117918518D01*
X218214882Y-118043412D01*
X218313011Y-118190272D01*
X218380603Y-118353454D01*
X218415061Y-118526687D01*
X218415061Y-118703313D01*
X218380603Y-118876546D01*
X218313011Y-119039728D01*
X218214882Y-119186588D01*
X218089988Y-119311482D01*
X217943128Y-119409611D01*
X217779946Y-119477203D01*
X217606713Y-119511661D01*
X217430087Y-119511661D01*
X217256854Y-119477203D01*
X217093672Y-119409611D01*
X216946812Y-119311482D01*
X216821918Y-119186588D01*
X216723789Y-119039728D01*
X216656197Y-118876546D01*
X216621739Y-118703313D01*
X216621739Y-118526687D01*
X216656197Y-118353454D01*
X216723789Y-118190272D01*
X216821918Y-118043412D01*
X216946812Y-117918518D01*
X217093672Y-117820389D01*
X217256854Y-117752797D01*
X217430087Y-117718339D01*
X217606713Y-117718339D01*
X217779946Y-117752797D01*
G37*
G36*
X190489946Y-117692797D02*
G01*
X190653128Y-117760389D01*
X190799988Y-117858518D01*
X190924882Y-117983412D01*
X191023011Y-118130272D01*
X191090603Y-118293454D01*
X191125061Y-118466687D01*
X191125061Y-118643313D01*
X191090603Y-118816546D01*
X191023011Y-118979728D01*
X190924882Y-119126588D01*
X190799988Y-119251482D01*
X190653128Y-119349611D01*
X190489946Y-119417203D01*
X190316713Y-119451661D01*
X190140087Y-119451661D01*
X189966854Y-119417203D01*
X189803672Y-119349611D01*
X189656812Y-119251482D01*
X189531918Y-119126588D01*
X189433789Y-118979728D01*
X189366197Y-118816546D01*
X189331739Y-118643313D01*
X189331739Y-118466687D01*
X189366197Y-118293454D01*
X189433789Y-118130272D01*
X189531918Y-117983412D01*
X189656812Y-117858518D01*
X189803672Y-117760389D01*
X189966854Y-117692797D01*
X190140087Y-117658339D01*
X190316713Y-117658339D01*
X190489946Y-117692797D01*
G37*
G36*
X202747917Y-117437882D02*
G01*
X202764462Y-117448938D01*
X202775518Y-117465483D01*
X202779400Y-117485000D01*
X202779400Y-118935000D01*
X202775518Y-118954517D01*
X202764462Y-118971062D01*
X202747917Y-118982118D01*
X202728400Y-118986000D01*
X201278400Y-118986000D01*
X201258883Y-118982118D01*
X201242338Y-118971062D01*
X201231282Y-118954517D01*
X201227400Y-118935000D01*
X201227400Y-117485000D01*
X201231282Y-117465483D01*
X201242338Y-117448938D01*
X201258883Y-117437882D01*
X201278400Y-117434000D01*
X202728400Y-117434000D01*
X202747917Y-117437882D01*
G37*
G36*
X204722917Y-117437882D02*
G01*
X204739462Y-117448938D01*
X204750518Y-117465483D01*
X204754400Y-117485000D01*
X204754400Y-118935000D01*
X204750518Y-118954517D01*
X204739462Y-118971062D01*
X204722917Y-118982118D01*
X204703400Y-118986000D01*
X203253400Y-118986000D01*
X203233883Y-118982118D01*
X203217338Y-118971062D01*
X203206282Y-118954517D01*
X203202400Y-118935000D01*
X203202400Y-117485000D01*
X203206282Y-117465483D01*
X203217338Y-117448938D01*
X203233883Y-117437882D01*
X203253400Y-117434000D01*
X204703400Y-117434000D01*
X204722917Y-117437882D01*
G37*
G36*
X206697917Y-117437882D02*
G01*
X206714462Y-117448938D01*
X206725518Y-117465483D01*
X206729400Y-117485000D01*
X206729400Y-118935000D01*
X206725518Y-118954517D01*
X206714462Y-118971062D01*
X206697917Y-118982118D01*
X206678400Y-118986000D01*
X205228400Y-118986000D01*
X205208883Y-118982118D01*
X205192338Y-118971062D01*
X205181282Y-118954517D01*
X205177400Y-118935000D01*
X205177400Y-117485000D01*
X205181282Y-117465483D01*
X205192338Y-117448938D01*
X205208883Y-117437882D01*
X205228400Y-117434000D01*
X206678400Y-117434000D01*
X206697917Y-117437882D01*
G37*
G36*
X198497917Y-118337882D02*
G01*
X198514462Y-118348938D01*
X198525518Y-118365483D01*
X198529400Y-118385000D01*
X198529400Y-118785000D01*
X198525518Y-118804517D01*
X198514462Y-118821062D01*
X198497917Y-118832118D01*
X198478400Y-118836000D01*
X197678400Y-118836000D01*
X197658883Y-118832118D01*
X197642338Y-118821062D01*
X197631282Y-118804517D01*
X197627400Y-118785000D01*
X197627400Y-118385000D01*
X197631282Y-118365483D01*
X197642338Y-118348938D01*
X197658883Y-118337882D01*
X197678400Y-118334000D01*
X198478400Y-118334000D01*
X198497917Y-118337882D01*
G37*
G36*
X210297917Y-118337882D02*
G01*
X210314462Y-118348938D01*
X210325518Y-118365483D01*
X210329400Y-118385000D01*
X210329400Y-118785000D01*
X210325518Y-118804517D01*
X210314462Y-118821062D01*
X210297917Y-118832118D01*
X210278400Y-118836000D01*
X209478400Y-118836000D01*
X209458883Y-118832118D01*
X209442338Y-118821062D01*
X209431282Y-118804517D01*
X209427400Y-118785000D01*
X209427400Y-118385000D01*
X209431282Y-118365483D01*
X209442338Y-118348938D01*
X209458883Y-118337882D01*
X209478400Y-118334000D01*
X210278400Y-118334000D01*
X210297917Y-118337882D01*
G37*
G36*
X196664438Y-118077190D02*
G01*
X196694799Y-118081187D01*
X196702436Y-118084748D01*
X196721493Y-118088539D01*
X196746732Y-118105404D01*
X196756844Y-118110119D01*
X196762996Y-118116271D01*
X196783457Y-118129943D01*
X196797128Y-118150403D01*
X196803280Y-118156555D01*
X196807994Y-118166664D01*
X196824861Y-118191907D01*
X196828651Y-118210965D01*
X196832212Y-118218600D01*
X196836207Y-118248950D01*
X196839400Y-118265000D01*
X196839400Y-118545000D01*
X196836206Y-118561052D01*
X196832212Y-118591399D01*
X196828652Y-118599032D01*
X196824861Y-118618093D01*
X196807992Y-118643337D01*
X196803280Y-118653444D01*
X196797130Y-118659593D01*
X196783457Y-118680057D01*
X196762993Y-118693730D01*
X196756844Y-118699880D01*
X196746737Y-118704592D01*
X196721493Y-118721461D01*
X196702432Y-118725252D01*
X196694799Y-118728812D01*
X196664451Y-118732807D01*
X196648400Y-118736000D01*
X196308400Y-118736000D01*
X196292348Y-118732807D01*
X196262000Y-118728812D01*
X196254365Y-118725251D01*
X196235307Y-118721461D01*
X196210064Y-118704594D01*
X196199955Y-118699880D01*
X196193803Y-118693728D01*
X196173343Y-118680057D01*
X196159671Y-118659596D01*
X196153519Y-118653444D01*
X196148804Y-118643332D01*
X196131939Y-118618093D01*
X196128148Y-118599036D01*
X196124587Y-118591399D01*
X196120589Y-118561037D01*
X196117400Y-118545000D01*
X196117400Y-118265000D01*
X196120589Y-118248963D01*
X196124587Y-118218600D01*
X196128148Y-118210961D01*
X196131939Y-118191907D01*
X196148802Y-118166669D01*
X196153519Y-118156555D01*
X196159673Y-118150400D01*
X196173343Y-118129943D01*
X196193800Y-118116273D01*
X196199955Y-118110119D01*
X196210069Y-118105402D01*
X196235307Y-118088539D01*
X196254361Y-118084748D01*
X196262000Y-118081187D01*
X196292364Y-118077189D01*
X196308400Y-118074000D01*
X196648400Y-118074000D01*
X196664438Y-118077190D01*
G37*
G36*
X198497917Y-117537882D02*
G01*
X198514462Y-117548938D01*
X198525518Y-117565483D01*
X198529400Y-117585000D01*
X198529400Y-117985000D01*
X198525518Y-118004517D01*
X198514462Y-118021062D01*
X198497917Y-118032118D01*
X198478400Y-118036000D01*
X197678400Y-118036000D01*
X197658883Y-118032118D01*
X197642338Y-118021062D01*
X197631282Y-118004517D01*
X197627400Y-117985000D01*
X197627400Y-117585000D01*
X197631282Y-117565483D01*
X197642338Y-117548938D01*
X197658883Y-117537882D01*
X197678400Y-117534000D01*
X198478400Y-117534000D01*
X198497917Y-117537882D01*
G37*
G36*
X210297917Y-117537882D02*
G01*
X210314462Y-117548938D01*
X210325518Y-117565483D01*
X210329400Y-117585000D01*
X210329400Y-117985000D01*
X210325518Y-118004517D01*
X210314462Y-118021062D01*
X210297917Y-118032118D01*
X210278400Y-118036000D01*
X209478400Y-118036000D01*
X209458883Y-118032118D01*
X209442338Y-118021062D01*
X209431282Y-118004517D01*
X209427400Y-117985000D01*
X209427400Y-117585000D01*
X209431282Y-117565483D01*
X209442338Y-117548938D01*
X209458883Y-117537882D01*
X209478400Y-117534000D01*
X210278400Y-117534000D01*
X210297917Y-117537882D01*
G37*
G36*
X198497917Y-116737882D02*
G01*
X198514462Y-116748938D01*
X198525518Y-116765483D01*
X198529400Y-116785000D01*
X198529400Y-117185000D01*
X198525518Y-117204517D01*
X198514462Y-117221062D01*
X198497917Y-117232118D01*
X198478400Y-117236000D01*
X197678400Y-117236000D01*
X197658883Y-117232118D01*
X197642338Y-117221062D01*
X197631282Y-117204517D01*
X197627400Y-117185000D01*
X197627400Y-116785000D01*
X197631282Y-116765483D01*
X197642338Y-116748938D01*
X197658883Y-116737882D01*
X197678400Y-116734000D01*
X198478400Y-116734000D01*
X198497917Y-116737882D01*
G37*
G36*
X210297917Y-116737882D02*
G01*
X210314462Y-116748938D01*
X210325518Y-116765483D01*
X210329400Y-116785000D01*
X210329400Y-117185000D01*
X210325518Y-117204517D01*
X210314462Y-117221062D01*
X210297917Y-117232118D01*
X210278400Y-117236000D01*
X209478400Y-117236000D01*
X209458883Y-117232118D01*
X209442338Y-117221062D01*
X209431282Y-117204517D01*
X209427400Y-117185000D01*
X209427400Y-116785000D01*
X209431282Y-116765483D01*
X209442338Y-116748938D01*
X209458883Y-116737882D01*
X209478400Y-116734000D01*
X210278400Y-116734000D01*
X210297917Y-116737882D01*
G37*
G36*
X215239946Y-115212797D02*
G01*
X215403128Y-115280389D01*
X215549988Y-115378518D01*
X215674882Y-115503412D01*
X215773011Y-115650272D01*
X215840603Y-115813454D01*
X215875061Y-115986687D01*
X215875061Y-116163313D01*
X215840603Y-116336546D01*
X215773011Y-116499728D01*
X215674882Y-116646588D01*
X215549988Y-116771482D01*
X215403128Y-116869611D01*
X215239946Y-116937203D01*
X215066713Y-116971661D01*
X214890087Y-116971661D01*
X214716854Y-116937203D01*
X214553672Y-116869611D01*
X214406812Y-116771482D01*
X214281918Y-116646588D01*
X214183789Y-116499728D01*
X214116197Y-116336546D01*
X214081739Y-116163313D01*
X214081739Y-115986687D01*
X214116197Y-115813454D01*
X214183789Y-115650272D01*
X214281918Y-115503412D01*
X214406812Y-115378518D01*
X214553672Y-115280389D01*
X214716854Y-115212797D01*
X214890087Y-115178339D01*
X215066713Y-115178339D01*
X215239946Y-115212797D01*
G37*
G36*
X217779946Y-115212797D02*
G01*
X217943128Y-115280389D01*
X218089988Y-115378518D01*
X218214882Y-115503412D01*
X218313011Y-115650272D01*
X218380603Y-115813454D01*
X218415061Y-115986687D01*
X218415061Y-116163313D01*
X218380603Y-116336546D01*
X218313011Y-116499728D01*
X218214882Y-116646588D01*
X218089988Y-116771482D01*
X217943128Y-116869611D01*
X217779946Y-116937203D01*
X217606713Y-116971661D01*
X217430087Y-116971661D01*
X217256854Y-116937203D01*
X217093672Y-116869611D01*
X216946812Y-116771482D01*
X216821918Y-116646588D01*
X216723789Y-116499728D01*
X216656197Y-116336546D01*
X216621739Y-116163313D01*
X216621739Y-115986687D01*
X216656197Y-115813454D01*
X216723789Y-115650272D01*
X216821918Y-115503412D01*
X216946812Y-115378518D01*
X217093672Y-115280389D01*
X217256854Y-115212797D01*
X217430087Y-115178339D01*
X217606713Y-115178339D01*
X217779946Y-115212797D01*
G37*
G36*
X198497917Y-115937882D02*
G01*
X198514462Y-115948938D01*
X198525518Y-115965483D01*
X198529400Y-115985000D01*
X198529400Y-116385000D01*
X198525518Y-116404517D01*
X198514462Y-116421062D01*
X198497917Y-116432118D01*
X198478400Y-116436000D01*
X197678400Y-116436000D01*
X197658883Y-116432118D01*
X197642338Y-116421062D01*
X197631282Y-116404517D01*
X197627400Y-116385000D01*
X197627400Y-115985000D01*
X197631282Y-115965483D01*
X197642338Y-115948938D01*
X197658883Y-115937882D01*
X197678400Y-115934000D01*
X198478400Y-115934000D01*
X198497917Y-115937882D01*
G37*
G36*
X210297917Y-115937882D02*
G01*
X210314462Y-115948938D01*
X210325518Y-115965483D01*
X210329400Y-115985000D01*
X210329400Y-116385000D01*
X210325518Y-116404517D01*
X210314462Y-116421062D01*
X210297917Y-116432118D01*
X210278400Y-116436000D01*
X209478400Y-116436000D01*
X209458883Y-116432118D01*
X209442338Y-116421062D01*
X209431282Y-116404517D01*
X209427400Y-116385000D01*
X209427400Y-115985000D01*
X209431282Y-115965483D01*
X209442338Y-115948938D01*
X209458883Y-115937882D01*
X209478400Y-115934000D01*
X210278400Y-115934000D01*
X210297917Y-115937882D01*
G37*
G36*
X189797917Y-115037882D02*
G01*
X189814462Y-115048938D01*
X189825518Y-115065483D01*
X189829400Y-115085000D01*
X189829400Y-115985000D01*
X189825518Y-116004517D01*
X189814462Y-116021062D01*
X189797917Y-116032118D01*
X189778400Y-116036000D01*
X188778400Y-116036000D01*
X188758883Y-116032118D01*
X188742338Y-116021062D01*
X188731282Y-116004517D01*
X188727400Y-115985000D01*
X188727400Y-115085000D01*
X188731282Y-115065483D01*
X188742338Y-115048938D01*
X188758883Y-115037882D01*
X188778400Y-115034000D01*
X189778400Y-115034000D01*
X189797917Y-115037882D01*
G37*
G36*
X193897917Y-115037882D02*
G01*
X193914462Y-115048938D01*
X193925518Y-115065483D01*
X193929400Y-115085000D01*
X193929400Y-115985000D01*
X193925518Y-116004517D01*
X193914462Y-116021062D01*
X193897917Y-116032118D01*
X193878400Y-116036000D01*
X192878400Y-116036000D01*
X192858883Y-116032118D01*
X192842338Y-116021062D01*
X192831282Y-116004517D01*
X192827400Y-115985000D01*
X192827400Y-115085000D01*
X192831282Y-115065483D01*
X192842338Y-115048938D01*
X192858883Y-115037882D01*
X192878400Y-115034000D01*
X193878400Y-115034000D01*
X193897917Y-115037882D01*
G37*
G36*
X199397917Y-114837882D02*
G01*
X199414462Y-114848938D01*
X199425518Y-114865483D01*
X199429400Y-114885000D01*
X199429400Y-115685000D01*
X199425518Y-115704517D01*
X199414462Y-115721062D01*
X199397917Y-115732118D01*
X199378400Y-115736000D01*
X198978400Y-115736000D01*
X198958883Y-115732118D01*
X198942338Y-115721062D01*
X198931282Y-115704517D01*
X198927400Y-115685000D01*
X198927400Y-114885000D01*
X198931282Y-114865483D01*
X198942338Y-114848938D01*
X198958883Y-114837882D01*
X198978400Y-114834000D01*
X199378400Y-114834000D01*
X199397917Y-114837882D01*
G37*
G36*
X200197917Y-114837882D02*
G01*
X200214462Y-114848938D01*
X200225518Y-114865483D01*
X200229400Y-114885000D01*
X200229400Y-115685000D01*
X200225518Y-115704517D01*
X200214462Y-115721062D01*
X200197917Y-115732118D01*
X200178400Y-115736000D01*
X199778400Y-115736000D01*
X199758883Y-115732118D01*
X199742338Y-115721062D01*
X199731282Y-115704517D01*
X199727400Y-115685000D01*
X199727400Y-114885000D01*
X199731282Y-114865483D01*
X199742338Y-114848938D01*
X199758883Y-114837882D01*
X199778400Y-114834000D01*
X200178400Y-114834000D01*
X200197917Y-114837882D01*
G37*
G36*
X200997917Y-114837882D02*
G01*
X201014462Y-114848938D01*
X201025518Y-114865483D01*
X201029400Y-114885000D01*
X201029400Y-115685000D01*
X201025518Y-115704517D01*
X201014462Y-115721062D01*
X200997917Y-115732118D01*
X200978400Y-115736000D01*
X200578400Y-115736000D01*
X200558883Y-115732118D01*
X200542338Y-115721062D01*
X200531282Y-115704517D01*
X200527400Y-115685000D01*
X200527400Y-114885000D01*
X200531282Y-114865483D01*
X200542338Y-114848938D01*
X200558883Y-114837882D01*
X200578400Y-114834000D01*
X200978400Y-114834000D01*
X200997917Y-114837882D01*
G37*
G36*
X201797917Y-114837882D02*
G01*
X201814462Y-114848938D01*
X201825518Y-114865483D01*
X201829400Y-114885000D01*
X201829400Y-115685000D01*
X201825518Y-115704517D01*
X201814462Y-115721062D01*
X201797917Y-115732118D01*
X201778400Y-115736000D01*
X201378400Y-115736000D01*
X201358883Y-115732118D01*
X201342338Y-115721062D01*
X201331282Y-115704517D01*
X201327400Y-115685000D01*
X201327400Y-114885000D01*
X201331282Y-114865483D01*
X201342338Y-114848938D01*
X201358883Y-114837882D01*
X201378400Y-114834000D01*
X201778400Y-114834000D01*
X201797917Y-114837882D01*
G37*
G36*
X202597917Y-114837882D02*
G01*
X202614462Y-114848938D01*
X202625518Y-114865483D01*
X202629400Y-114885000D01*
X202629400Y-115685000D01*
X202625518Y-115704517D01*
X202614462Y-115721062D01*
X202597917Y-115732118D01*
X202578400Y-115736000D01*
X202178400Y-115736000D01*
X202158883Y-115732118D01*
X202142338Y-115721062D01*
X202131282Y-115704517D01*
X202127400Y-115685000D01*
X202127400Y-114885000D01*
X202131282Y-114865483D01*
X202142338Y-114848938D01*
X202158883Y-114837882D01*
X202178400Y-114834000D01*
X202578400Y-114834000D01*
X202597917Y-114837882D01*
G37*
G36*
X203397917Y-114837882D02*
G01*
X203414462Y-114848938D01*
X203425518Y-114865483D01*
X203429400Y-114885000D01*
X203429400Y-115685000D01*
X203425518Y-115704517D01*
X203414462Y-115721062D01*
X203397917Y-115732118D01*
X203378400Y-115736000D01*
X202978400Y-115736000D01*
X202958883Y-115732118D01*
X202942338Y-115721062D01*
X202931282Y-115704517D01*
X202927400Y-115685000D01*
X202927400Y-114885000D01*
X202931282Y-114865483D01*
X202942338Y-114848938D01*
X202958883Y-114837882D01*
X202978400Y-114834000D01*
X203378400Y-114834000D01*
X203397917Y-114837882D01*
G37*
G36*
X204197917Y-114837882D02*
G01*
X204214462Y-114848938D01*
X204225518Y-114865483D01*
X204229400Y-114885000D01*
X204229400Y-115685000D01*
X204225518Y-115704517D01*
X204214462Y-115721062D01*
X204197917Y-115732118D01*
X204178400Y-115736000D01*
X203778400Y-115736000D01*
X203758883Y-115732118D01*
X203742338Y-115721062D01*
X203731282Y-115704517D01*
X203727400Y-115685000D01*
X203727400Y-114885000D01*
X203731282Y-114865483D01*
X203742338Y-114848938D01*
X203758883Y-114837882D01*
X203778400Y-114834000D01*
X204178400Y-114834000D01*
X204197917Y-114837882D01*
G37*
G36*
X204997917Y-114837882D02*
G01*
X205014462Y-114848938D01*
X205025518Y-114865483D01*
X205029400Y-114885000D01*
X205029400Y-115685000D01*
X205025518Y-115704517D01*
X205014462Y-115721062D01*
X204997917Y-115732118D01*
X204978400Y-115736000D01*
X204578400Y-115736000D01*
X204558883Y-115732118D01*
X204542338Y-115721062D01*
X204531282Y-115704517D01*
X204527400Y-115685000D01*
X204527400Y-114885000D01*
X204531282Y-114865483D01*
X204542338Y-114848938D01*
X204558883Y-114837882D01*
X204578400Y-114834000D01*
X204978400Y-114834000D01*
X204997917Y-114837882D01*
G37*
G36*
X205797917Y-114837882D02*
G01*
X205814462Y-114848938D01*
X205825518Y-114865483D01*
X205829400Y-114885000D01*
X205829400Y-115685000D01*
X205825518Y-115704517D01*
X205814462Y-115721062D01*
X205797917Y-115732118D01*
X205778400Y-115736000D01*
X205378400Y-115736000D01*
X205358883Y-115732118D01*
X205342338Y-115721062D01*
X205331282Y-115704517D01*
X205327400Y-115685000D01*
X205327400Y-114885000D01*
X205331282Y-114865483D01*
X205342338Y-114848938D01*
X205358883Y-114837882D01*
X205378400Y-114834000D01*
X205778400Y-114834000D01*
X205797917Y-114837882D01*
G37*
G36*
X206597917Y-114837882D02*
G01*
X206614462Y-114848938D01*
X206625518Y-114865483D01*
X206629400Y-114885000D01*
X206629400Y-115685000D01*
X206625518Y-115704517D01*
X206614462Y-115721062D01*
X206597917Y-115732118D01*
X206578400Y-115736000D01*
X206178400Y-115736000D01*
X206158883Y-115732118D01*
X206142338Y-115721062D01*
X206131282Y-115704517D01*
X206127400Y-115685000D01*
X206127400Y-114885000D01*
X206131282Y-114865483D01*
X206142338Y-114848938D01*
X206158883Y-114837882D01*
X206178400Y-114834000D01*
X206578400Y-114834000D01*
X206597917Y-114837882D01*
G37*
G36*
X207397917Y-114837882D02*
G01*
X207414462Y-114848938D01*
X207425518Y-114865483D01*
X207429400Y-114885000D01*
X207429400Y-115685000D01*
X207425518Y-115704517D01*
X207414462Y-115721062D01*
X207397917Y-115732118D01*
X207378400Y-115736000D01*
X206978400Y-115736000D01*
X206958883Y-115732118D01*
X206942338Y-115721062D01*
X206931282Y-115704517D01*
X206927400Y-115685000D01*
X206927400Y-114885000D01*
X206931282Y-114865483D01*
X206942338Y-114848938D01*
X206958883Y-114837882D01*
X206978400Y-114834000D01*
X207378400Y-114834000D01*
X207397917Y-114837882D01*
G37*
G36*
X208197917Y-114837882D02*
G01*
X208214462Y-114848938D01*
X208225518Y-114865483D01*
X208229400Y-114885000D01*
X208229400Y-115685000D01*
X208225518Y-115704517D01*
X208214462Y-115721062D01*
X208197917Y-115732118D01*
X208178400Y-115736000D01*
X207778400Y-115736000D01*
X207758883Y-115732118D01*
X207742338Y-115721062D01*
X207731282Y-115704517D01*
X207727400Y-115685000D01*
X207727400Y-114885000D01*
X207731282Y-114865483D01*
X207742338Y-114848938D01*
X207758883Y-114837882D01*
X207778400Y-114834000D01*
X208178400Y-114834000D01*
X208197917Y-114837882D01*
G37*
G36*
X208997917Y-114837882D02*
G01*
X209014462Y-114848938D01*
X209025518Y-114865483D01*
X209029400Y-114885000D01*
X209029400Y-115685000D01*
X209025518Y-115704517D01*
X209014462Y-115721062D01*
X208997917Y-115732118D01*
X208978400Y-115736000D01*
X208578400Y-115736000D01*
X208558883Y-115732118D01*
X208542338Y-115721062D01*
X208531282Y-115704517D01*
X208527400Y-115685000D01*
X208527400Y-114885000D01*
X208531282Y-114865483D01*
X208542338Y-114848938D01*
X208558883Y-114837882D01*
X208578400Y-114834000D01*
X208978400Y-114834000D01*
X208997917Y-114837882D01*
G37*
G36*
X198397917Y-114837882D02*
G01*
X198414462Y-114848938D01*
X198425518Y-114865483D01*
X198429400Y-114885000D01*
X198429400Y-115585000D01*
X198425518Y-115604517D01*
X198414462Y-115621062D01*
X198397917Y-115632118D01*
X198378400Y-115636000D01*
X197678400Y-115636000D01*
X197658883Y-115632118D01*
X197642338Y-115621062D01*
X197631282Y-115604517D01*
X197627400Y-115585000D01*
X197627400Y-114885000D01*
X197631282Y-114865483D01*
X197642338Y-114848938D01*
X197658883Y-114837882D01*
X197678400Y-114834000D01*
X198378400Y-114834000D01*
X198397917Y-114837882D01*
G37*
G36*
X210297917Y-114837882D02*
G01*
X210314462Y-114848938D01*
X210325518Y-114865483D01*
X210329400Y-114885000D01*
X210329400Y-115585000D01*
X210325518Y-115604517D01*
X210314462Y-115621062D01*
X210297917Y-115632118D01*
X210278400Y-115636000D01*
X209578400Y-115636000D01*
X209558883Y-115632118D01*
X209542338Y-115621062D01*
X209531282Y-115604517D01*
X209527400Y-115585000D01*
X209527400Y-114885000D01*
X209531282Y-114865483D01*
X209542338Y-114848938D01*
X209558883Y-114837882D01*
X209578400Y-114834000D01*
X210278400Y-114834000D01*
X210297917Y-114837882D01*
G37*
G36*
X189797917Y-113437882D02*
G01*
X189814462Y-113448938D01*
X189825518Y-113465483D01*
X189829400Y-113485000D01*
X189829400Y-114385000D01*
X189825518Y-114404517D01*
X189814462Y-114421062D01*
X189797917Y-114432118D01*
X189778400Y-114436000D01*
X188778400Y-114436000D01*
X188758883Y-114432118D01*
X188742338Y-114421062D01*
X188731282Y-114404517D01*
X188727400Y-114385000D01*
X188727400Y-113485000D01*
X188731282Y-113465483D01*
X188742338Y-113448938D01*
X188758883Y-113437882D01*
X188778400Y-113434000D01*
X189778400Y-113434000D01*
X189797917Y-113437882D01*
G37*
G36*
X193897917Y-113437882D02*
G01*
X193914462Y-113448938D01*
X193925518Y-113465483D01*
X193929400Y-113485000D01*
X193929400Y-114385000D01*
X193925518Y-114404517D01*
X193914462Y-114421062D01*
X193897917Y-114432118D01*
X193878400Y-114436000D01*
X192878400Y-114436000D01*
X192858883Y-114432118D01*
X192842338Y-114421062D01*
X192831282Y-114404517D01*
X192827400Y-114385000D01*
X192827400Y-113485000D01*
X192831282Y-113465483D01*
X192842338Y-113448938D01*
X192858883Y-113437882D01*
X192878400Y-113434000D01*
X193878400Y-113434000D01*
X193897917Y-113437882D01*
G37*
G36*
X215847917Y-112637882D02*
G01*
X215864462Y-112648938D01*
X215875518Y-112665483D01*
X215879400Y-112685000D01*
X215879400Y-114385000D01*
X215875518Y-114404517D01*
X215864462Y-114421062D01*
X215847917Y-114432118D01*
X215828400Y-114436000D01*
X214128400Y-114436000D01*
X214108883Y-114432118D01*
X214092338Y-114421062D01*
X214081282Y-114404517D01*
X214077400Y-114385000D01*
X214077400Y-112685000D01*
X214081282Y-112665483D01*
X214092338Y-112648938D01*
X214108883Y-112637882D01*
X214128400Y-112634000D01*
X215828400Y-112634000D01*
X215847917Y-112637882D01*
G37*
G36*
X217779946Y-112672797D02*
G01*
X217943128Y-112740389D01*
X218089988Y-112838518D01*
X218214882Y-112963412D01*
X218313011Y-113110272D01*
X218380603Y-113273454D01*
X218415061Y-113446687D01*
X218415061Y-113623313D01*
X218380603Y-113796546D01*
X218313011Y-113959728D01*
X218214882Y-114106588D01*
X218089988Y-114231482D01*
X217943128Y-114329611D01*
X217779946Y-114397203D01*
X217606713Y-114431661D01*
X217430087Y-114431661D01*
X217256854Y-114397203D01*
X217093672Y-114329611D01*
X216946812Y-114231482D01*
X216821918Y-114106588D01*
X216723789Y-113959728D01*
X216656197Y-113796546D01*
X216621739Y-113623313D01*
X216621739Y-113446687D01*
X216656197Y-113273454D01*
X216723789Y-113110272D01*
X216821918Y-112963412D01*
X216946812Y-112838518D01*
X217093672Y-112740389D01*
X217256854Y-112672797D01*
X217430087Y-112638339D01*
X217606713Y-112638339D01*
X217779946Y-112672797D01*
G37*
G36*
X189797917Y-110937882D02*
G01*
X189814462Y-110948938D01*
X189825518Y-110965483D01*
X189829400Y-110985000D01*
X189829400Y-111885000D01*
X189825518Y-111904517D01*
X189814462Y-111921062D01*
X189797917Y-111932118D01*
X189778400Y-111936000D01*
X188778400Y-111936000D01*
X188758883Y-111932118D01*
X188742338Y-111921062D01*
X188731282Y-111904517D01*
X188727400Y-111885000D01*
X188727400Y-110985000D01*
X188731282Y-110965483D01*
X188742338Y-110948938D01*
X188758883Y-110937882D01*
X188778400Y-110934000D01*
X189778400Y-110934000D01*
X189797917Y-110937882D01*
G37*
G36*
X193897917Y-110937882D02*
G01*
X193914462Y-110948938D01*
X193925518Y-110965483D01*
X193929400Y-110985000D01*
X193929400Y-111885000D01*
X193925518Y-111904517D01*
X193914462Y-111921062D01*
X193897917Y-111932118D01*
X193878400Y-111936000D01*
X192878400Y-111936000D01*
X192858883Y-111932118D01*
X192842338Y-111921062D01*
X192831282Y-111904517D01*
X192827400Y-111885000D01*
X192827400Y-110985000D01*
X192831282Y-110965483D01*
X192842338Y-110948938D01*
X192858883Y-110937882D01*
X192878400Y-110934000D01*
X193878400Y-110934000D01*
X193897917Y-110937882D01*
G37*
G36*
X201919470Y-109841081D02*
G01*
X201936991Y-109841081D01*
X201964647Y-109850067D01*
X201998266Y-109856754D01*
X202010606Y-109865000D01*
X202016793Y-109867010D01*
X202053168Y-109893439D01*
X202085779Y-109915229D01*
X202448171Y-110277621D01*
X202469964Y-110310236D01*
X202496389Y-110346607D01*
X202498398Y-110352790D01*
X202506646Y-110365134D01*
X202513333Y-110398753D01*
X202522319Y-110426408D01*
X202522319Y-110443930D01*
X202527179Y-110468364D01*
X202522319Y-110492797D01*
X202522319Y-110510318D01*
X202513333Y-110537971D01*
X202506646Y-110571593D01*
X202498398Y-110583936D01*
X202496389Y-110590120D01*
X202469972Y-110626477D01*
X202448171Y-110659106D01*
X202138812Y-110968465D01*
X202106183Y-110990266D01*
X202069825Y-111016683D01*
X202063643Y-111018691D01*
X202051299Y-111026940D01*
X202017676Y-111033627D01*
X201990024Y-111042613D01*
X201972503Y-111042613D01*
X201948070Y-111047473D01*
X201923636Y-111042613D01*
X201906115Y-111042613D01*
X201878460Y-111033627D01*
X201844840Y-111026940D01*
X201832497Y-111018692D01*
X201826312Y-111016683D01*
X201789941Y-110990257D01*
X201757327Y-110968465D01*
X201394935Y-110606073D01*
X201373144Y-110573462D01*
X201346716Y-110537086D01*
X201344706Y-110530901D01*
X201336460Y-110518560D01*
X201329772Y-110484940D01*
X201320787Y-110457285D01*
X201320787Y-110439763D01*
X201315927Y-110415330D01*
X201320787Y-110390896D01*
X201320787Y-110373375D01*
X201329773Y-110345717D01*
X201336460Y-110312101D01*
X201344705Y-110299761D01*
X201346716Y-110293573D01*
X201373153Y-110257186D01*
X201394935Y-110224588D01*
X201704294Y-109915229D01*
X201736892Y-109893446D01*
X201773280Y-109867010D01*
X201779466Y-109865000D01*
X201791807Y-109856754D01*
X201825425Y-109850067D01*
X201853082Y-109841081D01*
X201870603Y-109841081D01*
X201895036Y-109836221D01*
X201919470Y-109841081D01*
G37*
G36*
X189797917Y-109337882D02*
G01*
X189814462Y-109348938D01*
X189825518Y-109365483D01*
X189829400Y-109385000D01*
X189829400Y-110285000D01*
X189825518Y-110304517D01*
X189814462Y-110321062D01*
X189797917Y-110332118D01*
X189778400Y-110336000D01*
X188778400Y-110336000D01*
X188758883Y-110332118D01*
X188742338Y-110321062D01*
X188731282Y-110304517D01*
X188727400Y-110285000D01*
X188727400Y-109385000D01*
X188731282Y-109365483D01*
X188742338Y-109348938D01*
X188758883Y-109337882D01*
X188778400Y-109334000D01*
X189778400Y-109334000D01*
X189797917Y-109337882D01*
G37*
G36*
X193897917Y-109337882D02*
G01*
X193914462Y-109348938D01*
X193925518Y-109365483D01*
X193929400Y-109385000D01*
X193929400Y-110285000D01*
X193925518Y-110304517D01*
X193914462Y-110321062D01*
X193897917Y-110332118D01*
X193878400Y-110336000D01*
X192878400Y-110336000D01*
X192858883Y-110332118D01*
X192842338Y-110321062D01*
X192831282Y-110304517D01*
X192827400Y-110285000D01*
X192827400Y-109385000D01*
X192831282Y-109365483D01*
X192842338Y-109348938D01*
X192858883Y-109337882D01*
X192878400Y-109334000D01*
X193878400Y-109334000D01*
X193897917Y-109337882D01*
G37*
G36*
X203033164Y-108727387D02*
G01*
X203050685Y-108727387D01*
X203078341Y-108736373D01*
X203111960Y-108743060D01*
X203124300Y-108751306D01*
X203130487Y-108753316D01*
X203166862Y-108779745D01*
X203199473Y-108801535D01*
X203561865Y-109163927D01*
X203583658Y-109196542D01*
X203610083Y-109232913D01*
X203612092Y-109239096D01*
X203620340Y-109251440D01*
X203627027Y-109285059D01*
X203636013Y-109312714D01*
X203636013Y-109330236D01*
X203640873Y-109354670D01*
X203636013Y-109379103D01*
X203636013Y-109396624D01*
X203627027Y-109424277D01*
X203620340Y-109457899D01*
X203612092Y-109470242D01*
X203610083Y-109476426D01*
X203583666Y-109512783D01*
X203561865Y-109545412D01*
X203252506Y-109854771D01*
X203219877Y-109876572D01*
X203183519Y-109902989D01*
X203177337Y-109904997D01*
X203164993Y-109913246D01*
X203131370Y-109919933D01*
X203103718Y-109928919D01*
X203086197Y-109928919D01*
X203061764Y-109933779D01*
X203037330Y-109928919D01*
X203019809Y-109928919D01*
X202992154Y-109919933D01*
X202958534Y-109913246D01*
X202946191Y-109904998D01*
X202940006Y-109902989D01*
X202903635Y-109876563D01*
X202871021Y-109854771D01*
X202508629Y-109492379D01*
X202486838Y-109459768D01*
X202460410Y-109423392D01*
X202458400Y-109417207D01*
X202450154Y-109404866D01*
X202443466Y-109371246D01*
X202434481Y-109343591D01*
X202434481Y-109326069D01*
X202429621Y-109301636D01*
X202434481Y-109277202D01*
X202434481Y-109259681D01*
X202443467Y-109232023D01*
X202450154Y-109198407D01*
X202458399Y-109186067D01*
X202460410Y-109179879D01*
X202486847Y-109143492D01*
X202508629Y-109110894D01*
X202817988Y-108801535D01*
X202850586Y-108779752D01*
X202886974Y-108753316D01*
X202893160Y-108751306D01*
X202905501Y-108743060D01*
X202939119Y-108736373D01*
X202966776Y-108727387D01*
X202984297Y-108727387D01*
X203008730Y-108722527D01*
X203033164Y-108727387D01*
G37*
G36*
X195313512Y-109116011D02*
G01*
X195341412Y-109119248D01*
X195350944Y-109123456D01*
X195374579Y-109128158D01*
X195399882Y-109145065D01*
X195407290Y-109148336D01*
X195412349Y-109153395D01*
X195434922Y-109168478D01*
X195450004Y-109191050D01*
X195455063Y-109196109D01*
X195458333Y-109203515D01*
X195475242Y-109228821D01*
X195479943Y-109252456D01*
X195484151Y-109261986D01*
X195487386Y-109289878D01*
X195489400Y-109300000D01*
X195489400Y-109670000D01*
X195487386Y-109680125D01*
X195484151Y-109708012D01*
X195479943Y-109717540D01*
X195475242Y-109741179D01*
X195458331Y-109766486D01*
X195455063Y-109773890D01*
X195450006Y-109778946D01*
X195434922Y-109801522D01*
X195412346Y-109816606D01*
X195407290Y-109821663D01*
X195399886Y-109824931D01*
X195374579Y-109841842D01*
X195350941Y-109846543D01*
X195341413Y-109850751D01*
X195313522Y-109853986D01*
X195303400Y-109856000D01*
X195033400Y-109856000D01*
X195023277Y-109853986D01*
X194995387Y-109850751D01*
X194985858Y-109846543D01*
X194962221Y-109841842D01*
X194936915Y-109824933D01*
X194929509Y-109821663D01*
X194924450Y-109816604D01*
X194901878Y-109801522D01*
X194886795Y-109778949D01*
X194881736Y-109773890D01*
X194878465Y-109766482D01*
X194861558Y-109741179D01*
X194856857Y-109717545D01*
X194852648Y-109708013D01*
X194849411Y-109680110D01*
X194847400Y-109670000D01*
X194847400Y-109300000D01*
X194849411Y-109289888D01*
X194852648Y-109261987D01*
X194856857Y-109252454D01*
X194861558Y-109228821D01*
X194878463Y-109203519D01*
X194881736Y-109196109D01*
X194886797Y-109191047D01*
X194901878Y-109168478D01*
X194924447Y-109153397D01*
X194929509Y-109148336D01*
X194936919Y-109145063D01*
X194962221Y-109128158D01*
X194985852Y-109123457D01*
X194995386Y-109119248D01*
X195023290Y-109116010D01*
X195033400Y-109114000D01*
X195303400Y-109114000D01*
X195313512Y-109116011D01*
G37*
G36*
X196333512Y-109116011D02*
G01*
X196361412Y-109119248D01*
X196370944Y-109123456D01*
X196394579Y-109128158D01*
X196419882Y-109145065D01*
X196427290Y-109148336D01*
X196432349Y-109153395D01*
X196454922Y-109168478D01*
X196470004Y-109191050D01*
X196475063Y-109196109D01*
X196478333Y-109203515D01*
X196495242Y-109228821D01*
X196499943Y-109252456D01*
X196504151Y-109261986D01*
X196507386Y-109289878D01*
X196509400Y-109300000D01*
X196509400Y-109670000D01*
X196507386Y-109680125D01*
X196504151Y-109708012D01*
X196499943Y-109717540D01*
X196495242Y-109741179D01*
X196478331Y-109766486D01*
X196475063Y-109773890D01*
X196470006Y-109778946D01*
X196454922Y-109801522D01*
X196432346Y-109816606D01*
X196427290Y-109821663D01*
X196419886Y-109824931D01*
X196394579Y-109841842D01*
X196370941Y-109846543D01*
X196361413Y-109850751D01*
X196333522Y-109853986D01*
X196323400Y-109856000D01*
X196053400Y-109856000D01*
X196043277Y-109853986D01*
X196015387Y-109850751D01*
X196005858Y-109846543D01*
X195982221Y-109841842D01*
X195956915Y-109824933D01*
X195949509Y-109821663D01*
X195944450Y-109816604D01*
X195921878Y-109801522D01*
X195906795Y-109778949D01*
X195901736Y-109773890D01*
X195898465Y-109766482D01*
X195881558Y-109741179D01*
X195876857Y-109717545D01*
X195872648Y-109708013D01*
X195869411Y-109680110D01*
X195867400Y-109670000D01*
X195867400Y-109300000D01*
X195869411Y-109289888D01*
X195872648Y-109261987D01*
X195876857Y-109252454D01*
X195881558Y-109228821D01*
X195898463Y-109203519D01*
X195901736Y-109196109D01*
X195906797Y-109191047D01*
X195921878Y-109168478D01*
X195944447Y-109153397D01*
X195949509Y-109148336D01*
X195956919Y-109145063D01*
X195982221Y-109128158D01*
X196005852Y-109123457D01*
X196015386Y-109119248D01*
X196043290Y-109116010D01*
X196053400Y-109114000D01*
X196323400Y-109114000D01*
X196333512Y-109116011D01*
G37*
G36*
X197413512Y-109116011D02*
G01*
X197441412Y-109119248D01*
X197450944Y-109123456D01*
X197474579Y-109128158D01*
X197499882Y-109145065D01*
X197507290Y-109148336D01*
X197512349Y-109153395D01*
X197534922Y-109168478D01*
X197550004Y-109191050D01*
X197555063Y-109196109D01*
X197558333Y-109203515D01*
X197575242Y-109228821D01*
X197579943Y-109252456D01*
X197584151Y-109261986D01*
X197587386Y-109289878D01*
X197589400Y-109300000D01*
X197589400Y-109670000D01*
X197587386Y-109680125D01*
X197584151Y-109708012D01*
X197579943Y-109717540D01*
X197575242Y-109741179D01*
X197558331Y-109766486D01*
X197555063Y-109773890D01*
X197550006Y-109778946D01*
X197534922Y-109801522D01*
X197512346Y-109816606D01*
X197507290Y-109821663D01*
X197499886Y-109824931D01*
X197474579Y-109841842D01*
X197450941Y-109846543D01*
X197441413Y-109850751D01*
X197413522Y-109853986D01*
X197403400Y-109856000D01*
X197133400Y-109856000D01*
X197123277Y-109853986D01*
X197095387Y-109850751D01*
X197085858Y-109846543D01*
X197062221Y-109841842D01*
X197036915Y-109824933D01*
X197029509Y-109821663D01*
X197024450Y-109816604D01*
X197001878Y-109801522D01*
X196986795Y-109778949D01*
X196981736Y-109773890D01*
X196978465Y-109766482D01*
X196961558Y-109741179D01*
X196956857Y-109717545D01*
X196952648Y-109708013D01*
X196949411Y-109680110D01*
X196947400Y-109670000D01*
X196947400Y-109300000D01*
X196949411Y-109289888D01*
X196952648Y-109261987D01*
X196956857Y-109252454D01*
X196961558Y-109228821D01*
X196978463Y-109203519D01*
X196981736Y-109196109D01*
X196986797Y-109191047D01*
X197001878Y-109168478D01*
X197024447Y-109153397D01*
X197029509Y-109148336D01*
X197036919Y-109145063D01*
X197062221Y-109128158D01*
X197085852Y-109123457D01*
X197095386Y-109119248D01*
X197123290Y-109116010D01*
X197133400Y-109114000D01*
X197403400Y-109114000D01*
X197413512Y-109116011D01*
G37*
G36*
X198433512Y-109116011D02*
G01*
X198461412Y-109119248D01*
X198470944Y-109123456D01*
X198494579Y-109128158D01*
X198519882Y-109145065D01*
X198527290Y-109148336D01*
X198532349Y-109153395D01*
X198554922Y-109168478D01*
X198570004Y-109191050D01*
X198575063Y-109196109D01*
X198578333Y-109203515D01*
X198595242Y-109228821D01*
X198599943Y-109252456D01*
X198604151Y-109261986D01*
X198607386Y-109289878D01*
X198609400Y-109300000D01*
X198609400Y-109670000D01*
X198607386Y-109680125D01*
X198604151Y-109708012D01*
X198599943Y-109717540D01*
X198595242Y-109741179D01*
X198578331Y-109766486D01*
X198575063Y-109773890D01*
X198570006Y-109778946D01*
X198554922Y-109801522D01*
X198532346Y-109816606D01*
X198527290Y-109821663D01*
X198519886Y-109824931D01*
X198494579Y-109841842D01*
X198470941Y-109846543D01*
X198461413Y-109850751D01*
X198433522Y-109853986D01*
X198423400Y-109856000D01*
X198153400Y-109856000D01*
X198143277Y-109853986D01*
X198115387Y-109850751D01*
X198105858Y-109846543D01*
X198082221Y-109841842D01*
X198056915Y-109824933D01*
X198049509Y-109821663D01*
X198044450Y-109816604D01*
X198021878Y-109801522D01*
X198006795Y-109778949D01*
X198001736Y-109773890D01*
X197998465Y-109766482D01*
X197981558Y-109741179D01*
X197976857Y-109717545D01*
X197972648Y-109708013D01*
X197969411Y-109680110D01*
X197967400Y-109670000D01*
X197967400Y-109300000D01*
X197969411Y-109289888D01*
X197972648Y-109261987D01*
X197976857Y-109252454D01*
X197981558Y-109228821D01*
X197998463Y-109203519D01*
X198001736Y-109196109D01*
X198006797Y-109191047D01*
X198021878Y-109168478D01*
X198044447Y-109153397D01*
X198049509Y-109148336D01*
X198056919Y-109145063D01*
X198082221Y-109128158D01*
X198105852Y-109123457D01*
X198115386Y-109119248D01*
X198143290Y-109116010D01*
X198153400Y-109114000D01*
X198423400Y-109114000D01*
X198433512Y-109116011D01*
G37*
G36*
X205639825Y-107312381D02*
G01*
X205672592Y-107334275D01*
X205778171Y-107439854D01*
X206066938Y-107728620D01*
X206066940Y-107728623D01*
X206075643Y-107737326D01*
X206097537Y-107770093D01*
X206105225Y-107808744D01*
X206097537Y-107847395D01*
X206075643Y-107880162D01*
X205934222Y-108021583D01*
X205901455Y-108043477D01*
X205862804Y-108051165D01*
X205856646Y-108049940D01*
X205812795Y-108058663D01*
X205759170Y-108112288D01*
X205750447Y-108156139D01*
X205751672Y-108162297D01*
X205743984Y-108200948D01*
X205722090Y-108233715D01*
X205580669Y-108375136D01*
X205547902Y-108397030D01*
X205509251Y-108404718D01*
X205503093Y-108403493D01*
X205459241Y-108412216D01*
X205405616Y-108465841D01*
X205396893Y-108509693D01*
X205398118Y-108515851D01*
X205390430Y-108554502D01*
X205368536Y-108587269D01*
X205227115Y-108728690D01*
X205194348Y-108750584D01*
X205155697Y-108758272D01*
X205149539Y-108757047D01*
X205105688Y-108765770D01*
X205052063Y-108819395D01*
X205043340Y-108863246D01*
X205044565Y-108869404D01*
X205036877Y-108908055D01*
X205014983Y-108940822D01*
X204873562Y-109082243D01*
X204840795Y-109104137D01*
X204802144Y-109111825D01*
X204763493Y-109104137D01*
X204730726Y-109082243D01*
X204446469Y-108797986D01*
X204336379Y-108687897D01*
X204336376Y-108687893D01*
X204327675Y-108679192D01*
X204305781Y-108646425D01*
X204298093Y-108607774D01*
X204305781Y-108569123D01*
X204327675Y-108536356D01*
X204419598Y-108444433D01*
X204460389Y-108403641D01*
X204460392Y-108403638D01*
X204469096Y-108394935D01*
X204501863Y-108373041D01*
X204540514Y-108365353D01*
X204546666Y-108366576D01*
X204590523Y-108357853D01*
X204644146Y-108304230D01*
X204652869Y-108260373D01*
X204651646Y-108254221D01*
X204659334Y-108215570D01*
X204681228Y-108182803D01*
X204774705Y-108089326D01*
X204813942Y-108050088D01*
X204813945Y-108050085D01*
X204822649Y-108041382D01*
X204855416Y-108019488D01*
X204894067Y-108011800D01*
X204900220Y-108013023D01*
X204944077Y-108004300D01*
X204997700Y-107950677D01*
X205006423Y-107906819D01*
X205005200Y-107900667D01*
X205012888Y-107862016D01*
X205034782Y-107829249D01*
X205135411Y-107728620D01*
X205167496Y-107696534D01*
X205167499Y-107696531D01*
X205176203Y-107687828D01*
X205208970Y-107665934D01*
X205247621Y-107658246D01*
X205253773Y-107659469D01*
X205297630Y-107650746D01*
X205351253Y-107597123D01*
X205359976Y-107553266D01*
X205358753Y-107547114D01*
X205366441Y-107508463D01*
X205388335Y-107475696D01*
X205482189Y-107381842D01*
X205521049Y-107342981D01*
X205521052Y-107342978D01*
X205529756Y-107334275D01*
X205562523Y-107312381D01*
X205601174Y-107304693D01*
X205639825Y-107312381D01*
G37*
G36*
X210783537Y-106303077D02*
G01*
X210793209Y-106303077D01*
X210804864Y-106307319D01*
X210835561Y-106313425D01*
X210852217Y-106324554D01*
X210860808Y-106327681D01*
X210887157Y-106347900D01*
X210900770Y-106356996D01*
X211112902Y-106569128D01*
X211121996Y-106582738D01*
X211142216Y-106609089D01*
X211145342Y-106617679D01*
X211156473Y-106634337D01*
X211162578Y-106665032D01*
X211166821Y-106676688D01*
X211166821Y-106686361D01*
X211171773Y-106711257D01*
X211166821Y-106736152D01*
X211166821Y-106745824D01*
X211162579Y-106757477D01*
X211156473Y-106788177D01*
X211145342Y-106804834D01*
X211142216Y-106813425D01*
X211121996Y-106839773D01*
X211112902Y-106853385D01*
X211107098Y-106859188D01*
X211040044Y-106946571D01*
X211195070Y-107101603D01*
X211282477Y-107034533D01*
X211288264Y-107028747D01*
X211301844Y-107019672D01*
X211328223Y-106999432D01*
X211336818Y-106996303D01*
X211353472Y-106985176D01*
X211384169Y-106979069D01*
X211395825Y-106974828D01*
X211405496Y-106974828D01*
X211430392Y-106969876D01*
X211455288Y-106974828D01*
X211464960Y-106974828D01*
X211476615Y-106979070D01*
X211507312Y-106985176D01*
X211523968Y-106996305D01*
X211532559Y-106999432D01*
X211558908Y-107019651D01*
X211572521Y-107028747D01*
X211784653Y-107240879D01*
X211793747Y-107254489D01*
X211813967Y-107280840D01*
X211817093Y-107289430D01*
X211828224Y-107306088D01*
X211834329Y-107336783D01*
X211838572Y-107348439D01*
X211838572Y-107358112D01*
X211843524Y-107383008D01*
X211838572Y-107407903D01*
X211838572Y-107417575D01*
X211834330Y-107429228D01*
X211828224Y-107459928D01*
X211817093Y-107476585D01*
X211813967Y-107485176D01*
X211793747Y-107511524D01*
X211784653Y-107525136D01*
X211778849Y-107530939D01*
X211711795Y-107618322D01*
X211866821Y-107773354D01*
X211954228Y-107706284D01*
X211960015Y-107700498D01*
X211973595Y-107691423D01*
X211999974Y-107671183D01*
X212008569Y-107668054D01*
X212025223Y-107656927D01*
X212055920Y-107650820D01*
X212067576Y-107646579D01*
X212077247Y-107646579D01*
X212102143Y-107641627D01*
X212127039Y-107646579D01*
X212136711Y-107646579D01*
X212148366Y-107650821D01*
X212179063Y-107656927D01*
X212195719Y-107668056D01*
X212204310Y-107671183D01*
X212230659Y-107691402D01*
X212244272Y-107700498D01*
X212456404Y-107912630D01*
X212465498Y-107926240D01*
X212485718Y-107952591D01*
X212488844Y-107961181D01*
X212499975Y-107977839D01*
X212506080Y-108008534D01*
X212510323Y-108020190D01*
X212510323Y-108029863D01*
X212515275Y-108054759D01*
X212510323Y-108079654D01*
X212510323Y-108089326D01*
X212506081Y-108100979D01*
X212499975Y-108131679D01*
X212488844Y-108148336D01*
X212485718Y-108156927D01*
X212465496Y-108183278D01*
X212456404Y-108196887D01*
X211731619Y-108921672D01*
X211718013Y-108930762D01*
X211691659Y-108950986D01*
X211683068Y-108954112D01*
X211666411Y-108965243D01*
X211635711Y-108971349D01*
X211624058Y-108975591D01*
X211614387Y-108975591D01*
X211589491Y-108980543D01*
X211564595Y-108975591D01*
X211554923Y-108975591D01*
X211543268Y-108971348D01*
X211512571Y-108965243D01*
X211495913Y-108954112D01*
X211487323Y-108950986D01*
X211460977Y-108930769D01*
X211447362Y-108921672D01*
X211235230Y-108709540D01*
X211226137Y-108695931D01*
X211205915Y-108669578D01*
X211202788Y-108660987D01*
X211191659Y-108644331D01*
X211185553Y-108613634D01*
X211181311Y-108601979D01*
X211181311Y-108592306D01*
X211176359Y-108567411D01*
X211181311Y-108542515D01*
X211181311Y-108532843D01*
X211185553Y-108521186D01*
X211191659Y-108490491D01*
X211202786Y-108473837D01*
X211205915Y-108465242D01*
X211226149Y-108438872D01*
X211235230Y-108425283D01*
X211241022Y-108419490D01*
X211308087Y-108332093D01*
X211153058Y-108177064D01*
X211065665Y-108244123D01*
X211059868Y-108249921D01*
X211046264Y-108259010D01*
X211019908Y-108279235D01*
X211011317Y-108282361D01*
X210994660Y-108293492D01*
X210963960Y-108299598D01*
X210952307Y-108303840D01*
X210942636Y-108303840D01*
X210917740Y-108308792D01*
X210892844Y-108303840D01*
X210883172Y-108303840D01*
X210871517Y-108299597D01*
X210840820Y-108293492D01*
X210824162Y-108282361D01*
X210815572Y-108279235D01*
X210789226Y-108259018D01*
X210775611Y-108249921D01*
X210563479Y-108037789D01*
X210554386Y-108024180D01*
X210534164Y-107997827D01*
X210531037Y-107989236D01*
X210519908Y-107972580D01*
X210513802Y-107941883D01*
X210509560Y-107930228D01*
X210509560Y-107920555D01*
X210504608Y-107895660D01*
X210509560Y-107870764D01*
X210509560Y-107861092D01*
X210513802Y-107849435D01*
X210519908Y-107818740D01*
X210531035Y-107802086D01*
X210534164Y-107793491D01*
X210554398Y-107767121D01*
X210563479Y-107753532D01*
X210569271Y-107747739D01*
X210636336Y-107660342D01*
X210481307Y-107505313D01*
X210393914Y-107572372D01*
X210388117Y-107578170D01*
X210374513Y-107587259D01*
X210348157Y-107607484D01*
X210339566Y-107610610D01*
X210322909Y-107621741D01*
X210292209Y-107627847D01*
X210280556Y-107632089D01*
X210270885Y-107632089D01*
X210245989Y-107637041D01*
X210221093Y-107632089D01*
X210211421Y-107632089D01*
X210199766Y-107627846D01*
X210169069Y-107621741D01*
X210152411Y-107610610D01*
X210143821Y-107607484D01*
X210117475Y-107587267D01*
X210103860Y-107578170D01*
X209891728Y-107366038D01*
X209882635Y-107352429D01*
X209862413Y-107326076D01*
X209859286Y-107317485D01*
X209848157Y-107300829D01*
X209842051Y-107270132D01*
X209837809Y-107258477D01*
X209837809Y-107248804D01*
X209832857Y-107223909D01*
X209837809Y-107199013D01*
X209837809Y-107189341D01*
X209842051Y-107177684D01*
X209848157Y-107146989D01*
X209859284Y-107130335D01*
X209862413Y-107121740D01*
X209882647Y-107095371D01*
X209891728Y-107081781D01*
X210616513Y-106356996D01*
X210630100Y-106347917D01*
X210656472Y-106327681D01*
X210665067Y-106324552D01*
X210681721Y-106313425D01*
X210712418Y-106307318D01*
X210724074Y-106303077D01*
X210733745Y-106303077D01*
X210758641Y-106298125D01*
X210783537Y-106303077D01*
G37*
G36*
X197413512Y-107866011D02*
G01*
X197441412Y-107869248D01*
X197450944Y-107873456D01*
X197474579Y-107878158D01*
X197499882Y-107895065D01*
X197507290Y-107898336D01*
X197512349Y-107903395D01*
X197534922Y-107918478D01*
X197550004Y-107941050D01*
X197555063Y-107946109D01*
X197558333Y-107953515D01*
X197575242Y-107978821D01*
X197579943Y-108002456D01*
X197584151Y-108011986D01*
X197587386Y-108039878D01*
X197589400Y-108050000D01*
X197589400Y-108420000D01*
X197587386Y-108430125D01*
X197584151Y-108458012D01*
X197579943Y-108467540D01*
X197575242Y-108491179D01*
X197558331Y-108516486D01*
X197555063Y-108523890D01*
X197550006Y-108528946D01*
X197534922Y-108551522D01*
X197512346Y-108566606D01*
X197507290Y-108571663D01*
X197499886Y-108574931D01*
X197474579Y-108591842D01*
X197450941Y-108596543D01*
X197441413Y-108600751D01*
X197413522Y-108603986D01*
X197403400Y-108606000D01*
X197133400Y-108606000D01*
X197123277Y-108603986D01*
X197095387Y-108600751D01*
X197085858Y-108596543D01*
X197062221Y-108591842D01*
X197036915Y-108574933D01*
X197029509Y-108571663D01*
X197024450Y-108566604D01*
X197001878Y-108551522D01*
X196986795Y-108528949D01*
X196981736Y-108523890D01*
X196978465Y-108516482D01*
X196961558Y-108491179D01*
X196956857Y-108467545D01*
X196952648Y-108458013D01*
X196949411Y-108430110D01*
X196947400Y-108420000D01*
X196947400Y-108050000D01*
X196949411Y-108039888D01*
X196952648Y-108011987D01*
X196956857Y-108002454D01*
X196961558Y-107978821D01*
X196978463Y-107953519D01*
X196981736Y-107946109D01*
X196986797Y-107941047D01*
X197001878Y-107918478D01*
X197024447Y-107903397D01*
X197029509Y-107898336D01*
X197036919Y-107895063D01*
X197062221Y-107878158D01*
X197085852Y-107873457D01*
X197095386Y-107869248D01*
X197123290Y-107866010D01*
X197133400Y-107864000D01*
X197403400Y-107864000D01*
X197413512Y-107866011D01*
G37*
G36*
X198433512Y-107866011D02*
G01*
X198461412Y-107869248D01*
X198470944Y-107873456D01*
X198494579Y-107878158D01*
X198519882Y-107895065D01*
X198527290Y-107898336D01*
X198532349Y-107903395D01*
X198554922Y-107918478D01*
X198570004Y-107941050D01*
X198575063Y-107946109D01*
X198578333Y-107953515D01*
X198595242Y-107978821D01*
X198599943Y-108002456D01*
X198604151Y-108011986D01*
X198607386Y-108039878D01*
X198609400Y-108050000D01*
X198609400Y-108420000D01*
X198607386Y-108430125D01*
X198604151Y-108458012D01*
X198599943Y-108467540D01*
X198595242Y-108491179D01*
X198578331Y-108516486D01*
X198575063Y-108523890D01*
X198570006Y-108528946D01*
X198554922Y-108551522D01*
X198532346Y-108566606D01*
X198527290Y-108571663D01*
X198519886Y-108574931D01*
X198494579Y-108591842D01*
X198470941Y-108596543D01*
X198461413Y-108600751D01*
X198433522Y-108603986D01*
X198423400Y-108606000D01*
X198153400Y-108606000D01*
X198143277Y-108603986D01*
X198115387Y-108600751D01*
X198105858Y-108596543D01*
X198082221Y-108591842D01*
X198056915Y-108574933D01*
X198049509Y-108571663D01*
X198044450Y-108566604D01*
X198021878Y-108551522D01*
X198006795Y-108528949D01*
X198001736Y-108523890D01*
X197998465Y-108516482D01*
X197981558Y-108491179D01*
X197976857Y-108467545D01*
X197972648Y-108458013D01*
X197969411Y-108430110D01*
X197967400Y-108420000D01*
X197967400Y-108050000D01*
X197969411Y-108039888D01*
X197972648Y-108011987D01*
X197976857Y-108002454D01*
X197981558Y-107978821D01*
X197998463Y-107953519D01*
X198001736Y-107946109D01*
X198006797Y-107941047D01*
X198021878Y-107918478D01*
X198044447Y-107903397D01*
X198049509Y-107898336D01*
X198056919Y-107895063D01*
X198082221Y-107878158D01*
X198105852Y-107873457D01*
X198115386Y-107869248D01*
X198143290Y-107866010D01*
X198153400Y-107864000D01*
X198423400Y-107864000D01*
X198433512Y-107866011D01*
G37*
G36*
X219275417Y-106392882D02*
G01*
X219291962Y-106403938D01*
X219303018Y-106420483D01*
X219306900Y-106440000D01*
X219306900Y-107640000D01*
X219303765Y-107655761D01*
X219303765Y-107703809D01*
X219278868Y-107828975D01*
X219230031Y-107946879D01*
X219159130Y-108052990D01*
X219068890Y-108143230D01*
X218962779Y-108214131D01*
X218844875Y-108262968D01*
X218719709Y-108287865D01*
X218655900Y-108291000D01*
X218652839Y-108291000D01*
X217958961Y-108291000D01*
X217955900Y-108291000D01*
X217892091Y-108287865D01*
X217766925Y-108262968D01*
X217649021Y-108214131D01*
X217542910Y-108143230D01*
X217452670Y-108052990D01*
X217381769Y-107946879D01*
X217332932Y-107828975D01*
X217308035Y-107703809D01*
X217308035Y-107655761D01*
X217304900Y-107640000D01*
X217304900Y-106440000D01*
X217308782Y-106420483D01*
X217319838Y-106403938D01*
X217336383Y-106392882D01*
X217355900Y-106389000D01*
X219255900Y-106389000D01*
X219275417Y-106392882D01*
G37*
G36*
X204593307Y-106265863D02*
G01*
X204626074Y-106287757D01*
X204731199Y-106392882D01*
X205020420Y-106682102D01*
X205020422Y-106682105D01*
X205029125Y-106690808D01*
X205051019Y-106723575D01*
X205058707Y-106762226D01*
X205051019Y-106800877D01*
X205029125Y-106833644D01*
X204887704Y-106975065D01*
X204854937Y-106996959D01*
X204816286Y-107004647D01*
X204810128Y-107003422D01*
X204766277Y-107012145D01*
X204712652Y-107065770D01*
X204703929Y-107109621D01*
X204705154Y-107115779D01*
X204697466Y-107154430D01*
X204675572Y-107187197D01*
X204534151Y-107328618D01*
X204501384Y-107350512D01*
X204462733Y-107358200D01*
X204456575Y-107356975D01*
X204412723Y-107365698D01*
X204359098Y-107419323D01*
X204350375Y-107463175D01*
X204351600Y-107469333D01*
X204343912Y-107507984D01*
X204322018Y-107540751D01*
X204180597Y-107682172D01*
X204147830Y-107704066D01*
X204109179Y-107711754D01*
X204103021Y-107710529D01*
X204059170Y-107719252D01*
X204005545Y-107772877D01*
X203996822Y-107816728D01*
X203998047Y-107822886D01*
X203990359Y-107861537D01*
X203968465Y-107894304D01*
X203827044Y-108035725D01*
X203794277Y-108057619D01*
X203755626Y-108065307D01*
X203716975Y-108057619D01*
X203684208Y-108035725D01*
X203399951Y-107751468D01*
X203289861Y-107641379D01*
X203289858Y-107641375D01*
X203281157Y-107632674D01*
X203259263Y-107599907D01*
X203251575Y-107561256D01*
X203259263Y-107522605D01*
X203281157Y-107489838D01*
X203380244Y-107390751D01*
X203413871Y-107357123D01*
X203413874Y-107357120D01*
X203422578Y-107348417D01*
X203455345Y-107326523D01*
X203493996Y-107318835D01*
X203500148Y-107320058D01*
X203544005Y-107311335D01*
X203597628Y-107257712D01*
X203606351Y-107213855D01*
X203605128Y-107207703D01*
X203612816Y-107169052D01*
X203634710Y-107136285D01*
X203735332Y-107035663D01*
X203767424Y-107003570D01*
X203767427Y-107003567D01*
X203776131Y-106994864D01*
X203808898Y-106972970D01*
X203847549Y-106965282D01*
X203853702Y-106966505D01*
X203897559Y-106957782D01*
X203951182Y-106904159D01*
X203959905Y-106860301D01*
X203958682Y-106854149D01*
X203966370Y-106815498D01*
X203988264Y-106782731D01*
X204088893Y-106682102D01*
X204120978Y-106650016D01*
X204120981Y-106650013D01*
X204129685Y-106641310D01*
X204162452Y-106619416D01*
X204201103Y-106611728D01*
X204207255Y-106612951D01*
X204251112Y-106604228D01*
X204304735Y-106550605D01*
X204313458Y-106506748D01*
X204312235Y-106500596D01*
X204319923Y-106461945D01*
X204341817Y-106429178D01*
X204443314Y-106327681D01*
X204474531Y-106296463D01*
X204474534Y-106296460D01*
X204483238Y-106287757D01*
X204516005Y-106265863D01*
X204554656Y-106258175D01*
X204593307Y-106265863D01*
G37*
G36*
X191647917Y-106607882D02*
G01*
X191664462Y-106618938D01*
X191675518Y-106635483D01*
X191679400Y-106655000D01*
X191679400Y-107395000D01*
X191675518Y-107414517D01*
X191664462Y-107431062D01*
X191647917Y-107442118D01*
X191628400Y-107446000D01*
X189228400Y-107446000D01*
X189208883Y-107442118D01*
X189192338Y-107431062D01*
X189181282Y-107414517D01*
X189177400Y-107395000D01*
X189177400Y-106655000D01*
X189181282Y-106635483D01*
X189192338Y-106618938D01*
X189208883Y-106607882D01*
X189228400Y-106604000D01*
X191628400Y-106604000D01*
X191647917Y-106607882D01*
G37*
G36*
X195547917Y-106607882D02*
G01*
X195564462Y-106618938D01*
X195575518Y-106635483D01*
X195579400Y-106655000D01*
X195579400Y-107395000D01*
X195575518Y-107414517D01*
X195564462Y-107431062D01*
X195547917Y-107442118D01*
X195528400Y-107446000D01*
X193128400Y-107446000D01*
X193108883Y-107442118D01*
X193092338Y-107431062D01*
X193081282Y-107414517D01*
X193077400Y-107395000D01*
X193077400Y-106655000D01*
X193081282Y-106635483D01*
X193092338Y-106618938D01*
X193108883Y-106607882D01*
X193128400Y-106604000D01*
X195528400Y-106604000D01*
X195547917Y-106607882D01*
G37*
G36*
X215831161Y-100897414D02*
G01*
X215971704Y-100955629D01*
X216098189Y-101040144D01*
X216205756Y-101147711D01*
X216290271Y-101274196D01*
X216348486Y-101414739D01*
X216378163Y-101563939D01*
X216378163Y-101716061D01*
X216348486Y-101865261D01*
X216290271Y-102005804D01*
X216205756Y-102132289D01*
X216098189Y-102239856D01*
X215971704Y-102324371D01*
X215831161Y-102382586D01*
X215828130Y-102383188D01*
X215817061Y-102387774D01*
X215857087Y-102589000D01*
X216280900Y-102589000D01*
X216300417Y-102592882D01*
X216316962Y-102603938D01*
X216328018Y-102620483D01*
X216331900Y-102640000D01*
X216331900Y-103040000D01*
X216328018Y-103059517D01*
X216316962Y-103076062D01*
X216300417Y-103087118D01*
X216294197Y-103088355D01*
X216279527Y-103098148D01*
X216279527Y-103231852D01*
X216294198Y-103241645D01*
X216300417Y-103242882D01*
X216316962Y-103253938D01*
X216328018Y-103270483D01*
X216331900Y-103290000D01*
X216331900Y-103690000D01*
X216328018Y-103709517D01*
X216316962Y-103726062D01*
X216300417Y-103737118D01*
X216294197Y-103738355D01*
X216279527Y-103748148D01*
X216279527Y-103881852D01*
X216294198Y-103891645D01*
X216300417Y-103892882D01*
X216316962Y-103903938D01*
X216328018Y-103920483D01*
X216331900Y-103940000D01*
X216331900Y-104340000D01*
X216328018Y-104359517D01*
X216316962Y-104376062D01*
X216300417Y-104387118D01*
X216294197Y-104388355D01*
X216279527Y-104398148D01*
X216279527Y-104531852D01*
X216294198Y-104541645D01*
X216300417Y-104542882D01*
X216316962Y-104553938D01*
X216328018Y-104570483D01*
X216331900Y-104590000D01*
X216331900Y-104990000D01*
X216328018Y-105009517D01*
X216316962Y-105026062D01*
X216300417Y-105037118D01*
X216294197Y-105038355D01*
X216279527Y-105048148D01*
X216279527Y-105181852D01*
X216294198Y-105191645D01*
X216300417Y-105192882D01*
X216316962Y-105203938D01*
X216328018Y-105220483D01*
X216331900Y-105240000D01*
X216331900Y-105640000D01*
X216328018Y-105659517D01*
X216316962Y-105676062D01*
X216300417Y-105687118D01*
X216280900Y-105691000D01*
X215857085Y-105691000D01*
X215817059Y-105892225D01*
X215828131Y-105896811D01*
X215831161Y-105897414D01*
X215971704Y-105955629D01*
X216098189Y-106040144D01*
X216205756Y-106147711D01*
X216290271Y-106274196D01*
X216348486Y-106414739D01*
X216378163Y-106563939D01*
X216378163Y-106716061D01*
X216348486Y-106865261D01*
X216290271Y-107005804D01*
X216205756Y-107132289D01*
X216098189Y-107239856D01*
X215971704Y-107324371D01*
X215831161Y-107382586D01*
X215681961Y-107412263D01*
X215529839Y-107412263D01*
X215380639Y-107382586D01*
X215240096Y-107324371D01*
X215113611Y-107239856D01*
X215006044Y-107132289D01*
X214921529Y-107005804D01*
X214863314Y-106865261D01*
X214833637Y-106716061D01*
X214833637Y-106563939D01*
X214863314Y-106414739D01*
X214921529Y-106274196D01*
X215006044Y-106147711D01*
X215113611Y-106040144D01*
X215240096Y-105955629D01*
X215380639Y-105897414D01*
X215383655Y-105896813D01*
X215394739Y-105892223D01*
X215354711Y-105691000D01*
X214930900Y-105691000D01*
X214911383Y-105687118D01*
X214894838Y-105676062D01*
X214883782Y-105659517D01*
X214879900Y-105640000D01*
X214879900Y-105240000D01*
X214883782Y-105220483D01*
X214894838Y-105203938D01*
X214911383Y-105192882D01*
X214917528Y-105191659D01*
X214932272Y-105181807D01*
X214932272Y-105048193D01*
X214917529Y-105038340D01*
X214911383Y-105037118D01*
X214894838Y-105026062D01*
X214883782Y-105009517D01*
X214879900Y-104990000D01*
X214879900Y-104590000D01*
X214883782Y-104570483D01*
X214894838Y-104553938D01*
X214911383Y-104542882D01*
X214917528Y-104541659D01*
X214932272Y-104531807D01*
X214932272Y-104398193D01*
X214917529Y-104388340D01*
X214911383Y-104387118D01*
X214894838Y-104376062D01*
X214883782Y-104359517D01*
X214879900Y-104340000D01*
X214879900Y-103940000D01*
X214883782Y-103920483D01*
X214894838Y-103903938D01*
X214911383Y-103892882D01*
X214917528Y-103891659D01*
X214932272Y-103881807D01*
X214932272Y-103748193D01*
X214917529Y-103738340D01*
X214911383Y-103737118D01*
X214894838Y-103726062D01*
X214883782Y-103709517D01*
X214879900Y-103690000D01*
X214879900Y-103290000D01*
X214883782Y-103270483D01*
X214894838Y-103253938D01*
X214911383Y-103242882D01*
X214917528Y-103241659D01*
X214932272Y-103231807D01*
X214932272Y-103098193D01*
X214917529Y-103088340D01*
X214911383Y-103087118D01*
X214894838Y-103076062D01*
X214883782Y-103059517D01*
X214879900Y-103040000D01*
X214879900Y-102640000D01*
X214883782Y-102620483D01*
X214894838Y-102603938D01*
X214911383Y-102592882D01*
X214930900Y-102589000D01*
X215354715Y-102589000D01*
X215394740Y-102387773D01*
X215383675Y-102383189D01*
X215380639Y-102382586D01*
X215240096Y-102324371D01*
X215113611Y-102239856D01*
X215006044Y-102132289D01*
X214921529Y-102005804D01*
X214863314Y-101865261D01*
X214833637Y-101716061D01*
X214833637Y-101563939D01*
X214863314Y-101414739D01*
X214921529Y-101274196D01*
X215006044Y-101147711D01*
X215113611Y-101040144D01*
X215240096Y-100955629D01*
X215380639Y-100897414D01*
X215529839Y-100867737D01*
X215681961Y-100867737D01*
X215831161Y-100897414D01*
G37*
G36*
X197413512Y-106656011D02*
G01*
X197441412Y-106659248D01*
X197450944Y-106663456D01*
X197474579Y-106668158D01*
X197499882Y-106685065D01*
X197507290Y-106688336D01*
X197512349Y-106693395D01*
X197534922Y-106708478D01*
X197550004Y-106731050D01*
X197555063Y-106736109D01*
X197558333Y-106743515D01*
X197575242Y-106768821D01*
X197579943Y-106792456D01*
X197584151Y-106801986D01*
X197587386Y-106829878D01*
X197589400Y-106840000D01*
X197589400Y-107210000D01*
X197587386Y-107220125D01*
X197584151Y-107248012D01*
X197579943Y-107257540D01*
X197575242Y-107281179D01*
X197558331Y-107306486D01*
X197555063Y-107313890D01*
X197550006Y-107318946D01*
X197534922Y-107341522D01*
X197512346Y-107356606D01*
X197507290Y-107361663D01*
X197499886Y-107364931D01*
X197474579Y-107381842D01*
X197450941Y-107386543D01*
X197441413Y-107390751D01*
X197413522Y-107393986D01*
X197403400Y-107396000D01*
X197133400Y-107396000D01*
X197123277Y-107393986D01*
X197095387Y-107390751D01*
X197085858Y-107386543D01*
X197062221Y-107381842D01*
X197036915Y-107364933D01*
X197029509Y-107361663D01*
X197024450Y-107356604D01*
X197001878Y-107341522D01*
X196986795Y-107318949D01*
X196981736Y-107313890D01*
X196978465Y-107306482D01*
X196961558Y-107281179D01*
X196956857Y-107257545D01*
X196952648Y-107248013D01*
X196949411Y-107220110D01*
X196947400Y-107210000D01*
X196947400Y-106840000D01*
X196949411Y-106829888D01*
X196952648Y-106801987D01*
X196956857Y-106792454D01*
X196961558Y-106768821D01*
X196978463Y-106743519D01*
X196981736Y-106736109D01*
X196986797Y-106731047D01*
X197001878Y-106708478D01*
X197024447Y-106693397D01*
X197029509Y-106688336D01*
X197036919Y-106685063D01*
X197062221Y-106668158D01*
X197085852Y-106663457D01*
X197095386Y-106659248D01*
X197123290Y-106656010D01*
X197133400Y-106654000D01*
X197403400Y-106654000D01*
X197413512Y-106656011D01*
G37*
G36*
X198433512Y-106656011D02*
G01*
X198461412Y-106659248D01*
X198470944Y-106663456D01*
X198494579Y-106668158D01*
X198519882Y-106685065D01*
X198527290Y-106688336D01*
X198532349Y-106693395D01*
X198554922Y-106708478D01*
X198570004Y-106731050D01*
X198575063Y-106736109D01*
X198578333Y-106743515D01*
X198595242Y-106768821D01*
X198599943Y-106792456D01*
X198604151Y-106801986D01*
X198607386Y-106829878D01*
X198609400Y-106840000D01*
X198609400Y-107210000D01*
X198607386Y-107220125D01*
X198604151Y-107248012D01*
X198599943Y-107257540D01*
X198595242Y-107281179D01*
X198578331Y-107306486D01*
X198575063Y-107313890D01*
X198570006Y-107318946D01*
X198554922Y-107341522D01*
X198532346Y-107356606D01*
X198527290Y-107361663D01*
X198519886Y-107364931D01*
X198494579Y-107381842D01*
X198470941Y-107386543D01*
X198461413Y-107390751D01*
X198433522Y-107393986D01*
X198423400Y-107396000D01*
X198153400Y-107396000D01*
X198143277Y-107393986D01*
X198115387Y-107390751D01*
X198105858Y-107386543D01*
X198082221Y-107381842D01*
X198056915Y-107364933D01*
X198049509Y-107361663D01*
X198044450Y-107356604D01*
X198021878Y-107341522D01*
X198006795Y-107318949D01*
X198001736Y-107313890D01*
X197998465Y-107306482D01*
X197981558Y-107281179D01*
X197976857Y-107257545D01*
X197972648Y-107248013D01*
X197969411Y-107220110D01*
X197967400Y-107210000D01*
X197967400Y-106840000D01*
X197969411Y-106829888D01*
X197972648Y-106801987D01*
X197976857Y-106792454D01*
X197981558Y-106768821D01*
X197998463Y-106743519D01*
X198001736Y-106736109D01*
X198006797Y-106731047D01*
X198021878Y-106708478D01*
X198044447Y-106693397D01*
X198049509Y-106688336D01*
X198056919Y-106685063D01*
X198082221Y-106668158D01*
X198105852Y-106663457D01*
X198115386Y-106659248D01*
X198143290Y-106656010D01*
X198153400Y-106654000D01*
X198423400Y-106654000D01*
X198433512Y-106656011D01*
G37*
G36*
X212392205Y-104694409D02*
G01*
X212401877Y-104694409D01*
X212413532Y-104698651D01*
X212444229Y-104704757D01*
X212460885Y-104715886D01*
X212469476Y-104719013D01*
X212495825Y-104739232D01*
X212509438Y-104748328D01*
X212721570Y-104960460D01*
X212730664Y-104974070D01*
X212750884Y-105000421D01*
X212754010Y-105009011D01*
X212765141Y-105025669D01*
X212771246Y-105056364D01*
X212775489Y-105068020D01*
X212775489Y-105077693D01*
X212780441Y-105102589D01*
X212775489Y-105127484D01*
X212775489Y-105137156D01*
X212771247Y-105148809D01*
X212765141Y-105179509D01*
X212754010Y-105196166D01*
X212750884Y-105204757D01*
X212730664Y-105231105D01*
X212721570Y-105244717D01*
X212715766Y-105250520D01*
X212648712Y-105337903D01*
X212803738Y-105492935D01*
X212891145Y-105425865D01*
X212896932Y-105420079D01*
X212910512Y-105411004D01*
X212936891Y-105390764D01*
X212945486Y-105387635D01*
X212962140Y-105376508D01*
X212992837Y-105370401D01*
X213004493Y-105366160D01*
X213014164Y-105366160D01*
X213039060Y-105361208D01*
X213063956Y-105366160D01*
X213073628Y-105366160D01*
X213085283Y-105370402D01*
X213115980Y-105376508D01*
X213132636Y-105387637D01*
X213141227Y-105390764D01*
X213167576Y-105410983D01*
X213181189Y-105420079D01*
X213393321Y-105632211D01*
X213402415Y-105645821D01*
X213422635Y-105672172D01*
X213425761Y-105680762D01*
X213436892Y-105697420D01*
X213442997Y-105728115D01*
X213447240Y-105739771D01*
X213447240Y-105749444D01*
X213452192Y-105774340D01*
X213447240Y-105799235D01*
X213447240Y-105808907D01*
X213442998Y-105820560D01*
X213436892Y-105851260D01*
X213425761Y-105867917D01*
X213422635Y-105876508D01*
X213402415Y-105902856D01*
X213393321Y-105916468D01*
X213387517Y-105922271D01*
X213320463Y-106009654D01*
X213475489Y-106164686D01*
X213562896Y-106097616D01*
X213568683Y-106091830D01*
X213582263Y-106082755D01*
X213608642Y-106062515D01*
X213617237Y-106059386D01*
X213633891Y-106048259D01*
X213664588Y-106042152D01*
X213676244Y-106037911D01*
X213685915Y-106037911D01*
X213710811Y-106032959D01*
X213735707Y-106037911D01*
X213745379Y-106037911D01*
X213757034Y-106042153D01*
X213787731Y-106048259D01*
X213804387Y-106059388D01*
X213812978Y-106062515D01*
X213839327Y-106082734D01*
X213852940Y-106091830D01*
X214065072Y-106303962D01*
X214074166Y-106317572D01*
X214094386Y-106343923D01*
X214097512Y-106352513D01*
X214108643Y-106369171D01*
X214114748Y-106399866D01*
X214118991Y-106411522D01*
X214118991Y-106421195D01*
X214123943Y-106446091D01*
X214118991Y-106470986D01*
X214118991Y-106480658D01*
X214114749Y-106492311D01*
X214108643Y-106523011D01*
X214097512Y-106539668D01*
X214094386Y-106548259D01*
X214074164Y-106574610D01*
X214065072Y-106588219D01*
X213340287Y-107313004D01*
X213326681Y-107322094D01*
X213300327Y-107342318D01*
X213291736Y-107345444D01*
X213275079Y-107356575D01*
X213244379Y-107362681D01*
X213232726Y-107366923D01*
X213223055Y-107366923D01*
X213198159Y-107371875D01*
X213173263Y-107366923D01*
X213163591Y-107366923D01*
X213151936Y-107362680D01*
X213121239Y-107356575D01*
X213104581Y-107345444D01*
X213095991Y-107342318D01*
X213069645Y-107322101D01*
X213056030Y-107313004D01*
X212843898Y-107100872D01*
X212834805Y-107087263D01*
X212814583Y-107060910D01*
X212811456Y-107052319D01*
X212800327Y-107035663D01*
X212794221Y-107004966D01*
X212789979Y-106993311D01*
X212789979Y-106983638D01*
X212785027Y-106958743D01*
X212789979Y-106933847D01*
X212789979Y-106924175D01*
X212794221Y-106912518D01*
X212800327Y-106881823D01*
X212811454Y-106865169D01*
X212814583Y-106856574D01*
X212834817Y-106830204D01*
X212843898Y-106816615D01*
X212849690Y-106810822D01*
X212916755Y-106723425D01*
X212761726Y-106568396D01*
X212674333Y-106635455D01*
X212668536Y-106641253D01*
X212654932Y-106650342D01*
X212628576Y-106670567D01*
X212619985Y-106673693D01*
X212603328Y-106684824D01*
X212572628Y-106690930D01*
X212560975Y-106695172D01*
X212551304Y-106695172D01*
X212526408Y-106700124D01*
X212501512Y-106695172D01*
X212491840Y-106695172D01*
X212480185Y-106690929D01*
X212449488Y-106684824D01*
X212432830Y-106673693D01*
X212424240Y-106670567D01*
X212397894Y-106650350D01*
X212384279Y-106641253D01*
X212172147Y-106429121D01*
X212163054Y-106415512D01*
X212142832Y-106389159D01*
X212139705Y-106380568D01*
X212128576Y-106363912D01*
X212122470Y-106333215D01*
X212118228Y-106321560D01*
X212118228Y-106311887D01*
X212113276Y-106286992D01*
X212118228Y-106262096D01*
X212118228Y-106252424D01*
X212122470Y-106240767D01*
X212128576Y-106210072D01*
X212139703Y-106193418D01*
X212142832Y-106184823D01*
X212163066Y-106158453D01*
X212172147Y-106144864D01*
X212177939Y-106139071D01*
X212245004Y-106051674D01*
X212089975Y-105896645D01*
X212002582Y-105963704D01*
X211996785Y-105969502D01*
X211983181Y-105978591D01*
X211956825Y-105998816D01*
X211948234Y-106001942D01*
X211931577Y-106013073D01*
X211900877Y-106019179D01*
X211889224Y-106023421D01*
X211879553Y-106023421D01*
X211854657Y-106028373D01*
X211829761Y-106023421D01*
X211820089Y-106023421D01*
X211808434Y-106019178D01*
X211777737Y-106013073D01*
X211761079Y-106001942D01*
X211752489Y-105998816D01*
X211726143Y-105978599D01*
X211712528Y-105969502D01*
X211500396Y-105757370D01*
X211491303Y-105743761D01*
X211471081Y-105717408D01*
X211467954Y-105708817D01*
X211456825Y-105692161D01*
X211450719Y-105661464D01*
X211446477Y-105649809D01*
X211446477Y-105640136D01*
X211441525Y-105615241D01*
X211446477Y-105590345D01*
X211446477Y-105580673D01*
X211450719Y-105569016D01*
X211456825Y-105538321D01*
X211467952Y-105521667D01*
X211471081Y-105513072D01*
X211491315Y-105486703D01*
X211500396Y-105473113D01*
X212225181Y-104748328D01*
X212238768Y-104739249D01*
X212265140Y-104719013D01*
X212273735Y-104715884D01*
X212290389Y-104704757D01*
X212321086Y-104698650D01*
X212332742Y-104694409D01*
X212342413Y-104694409D01*
X212367309Y-104689457D01*
X212392205Y-104694409D01*
G37*
G36*
X201937531Y-106126069D02*
G01*
X201955647Y-106126069D01*
X201984240Y-106135359D01*
X202018335Y-106142141D01*
X202030851Y-106150504D01*
X202037307Y-106152602D01*
X202075272Y-106180185D01*
X202107876Y-106201971D01*
X202461429Y-106555524D01*
X202483213Y-106588125D01*
X202510797Y-106626092D01*
X202512894Y-106632546D01*
X202521259Y-106645065D01*
X202528040Y-106679159D01*
X202537331Y-106707752D01*
X202537331Y-106725869D01*
X202542267Y-106750686D01*
X202537331Y-106775502D01*
X202537331Y-106793618D01*
X202528040Y-106822209D01*
X202521259Y-106856306D01*
X202512894Y-106868824D01*
X202510797Y-106875279D01*
X202483222Y-106913230D01*
X202461429Y-106945847D01*
X202143231Y-107264045D01*
X202110629Y-107285829D01*
X202072663Y-107313413D01*
X202066208Y-107315510D01*
X202053690Y-107323875D01*
X202019593Y-107330656D01*
X201991002Y-107339947D01*
X201972886Y-107339947D01*
X201948070Y-107344883D01*
X201923253Y-107339947D01*
X201905137Y-107339947D01*
X201876545Y-107330656D01*
X201842449Y-107323875D01*
X201829930Y-107315510D01*
X201823476Y-107313413D01*
X201785516Y-107285833D01*
X201752908Y-107264045D01*
X201399355Y-106910492D01*
X201377573Y-106877894D01*
X201349986Y-106839923D01*
X201347888Y-106833467D01*
X201339525Y-106820951D01*
X201332743Y-106786856D01*
X201323453Y-106758263D01*
X201323453Y-106740146D01*
X201318517Y-106715330D01*
X201323453Y-106690513D01*
X201323453Y-106672397D01*
X201332744Y-106643801D01*
X201339525Y-106609710D01*
X201347887Y-106597194D01*
X201349986Y-106590736D01*
X201377580Y-106552755D01*
X201399355Y-106520169D01*
X201479524Y-106440000D01*
X201710595Y-106208927D01*
X201710602Y-106208921D01*
X201717553Y-106201971D01*
X201750125Y-106180206D01*
X201788120Y-106152602D01*
X201794578Y-106150503D01*
X201807094Y-106142141D01*
X201841187Y-106135359D01*
X201869782Y-106126069D01*
X201887898Y-106126069D01*
X201912714Y-106121133D01*
X201937531Y-106126069D01*
G37*
G36*
X207477039Y-105846579D02*
G01*
X207486711Y-105846579D01*
X207498366Y-105850821D01*
X207529063Y-105856927D01*
X207545719Y-105868056D01*
X207554310Y-105871183D01*
X207580659Y-105891402D01*
X207594272Y-105900498D01*
X207806404Y-106112630D01*
X207815498Y-106126240D01*
X207835718Y-106152591D01*
X207838844Y-106161181D01*
X207849975Y-106177839D01*
X207856080Y-106208534D01*
X207860323Y-106220190D01*
X207860323Y-106229863D01*
X207865275Y-106254759D01*
X207860323Y-106279654D01*
X207860323Y-106289326D01*
X207856081Y-106300979D01*
X207849975Y-106331679D01*
X207838844Y-106348336D01*
X207835718Y-106356927D01*
X207815496Y-106383278D01*
X207806404Y-106396887D01*
X207081619Y-107121672D01*
X207068013Y-107130762D01*
X207041659Y-107150986D01*
X207033068Y-107154112D01*
X207016411Y-107165243D01*
X206985711Y-107171349D01*
X206974058Y-107175591D01*
X206964387Y-107175591D01*
X206939491Y-107180543D01*
X206914595Y-107175591D01*
X206904923Y-107175591D01*
X206893268Y-107171348D01*
X206862571Y-107165243D01*
X206845913Y-107154112D01*
X206837323Y-107150986D01*
X206810977Y-107130769D01*
X206797362Y-107121672D01*
X206585230Y-106909540D01*
X206576137Y-106895931D01*
X206555915Y-106869578D01*
X206552788Y-106860987D01*
X206541659Y-106844331D01*
X206535553Y-106813634D01*
X206531311Y-106801979D01*
X206531311Y-106792306D01*
X206526359Y-106767411D01*
X206531311Y-106742515D01*
X206531311Y-106732843D01*
X206535553Y-106721186D01*
X206541659Y-106690491D01*
X206552786Y-106673837D01*
X206555915Y-106665242D01*
X206576149Y-106638873D01*
X206585230Y-106625283D01*
X207310015Y-105900498D01*
X207323602Y-105891419D01*
X207349974Y-105871183D01*
X207358569Y-105868054D01*
X207375223Y-105856927D01*
X207405920Y-105850820D01*
X207417576Y-105846579D01*
X207427247Y-105846579D01*
X207452143Y-105841627D01*
X207477039Y-105846579D01*
G37*
G36*
X203033547Y-105030053D02*
G01*
X203051663Y-105030053D01*
X203080256Y-105039343D01*
X203114351Y-105046125D01*
X203126867Y-105054488D01*
X203133323Y-105056586D01*
X203171288Y-105084169D01*
X203203892Y-105105955D01*
X203557445Y-105459508D01*
X203579229Y-105492109D01*
X203606813Y-105530076D01*
X203608910Y-105536530D01*
X203617275Y-105549049D01*
X203624056Y-105583143D01*
X203633347Y-105611736D01*
X203633347Y-105629853D01*
X203638283Y-105654670D01*
X203633347Y-105679486D01*
X203633347Y-105697602D01*
X203624056Y-105726193D01*
X203617275Y-105760290D01*
X203608910Y-105772808D01*
X203606813Y-105779263D01*
X203579238Y-105817214D01*
X203557445Y-105849831D01*
X203239247Y-106168029D01*
X203206645Y-106189813D01*
X203168679Y-106217397D01*
X203162224Y-106219494D01*
X203149706Y-106227859D01*
X203115609Y-106234640D01*
X203087018Y-106243931D01*
X203068902Y-106243931D01*
X203044086Y-106248867D01*
X203019269Y-106243931D01*
X203001153Y-106243931D01*
X202972561Y-106234640D01*
X202938465Y-106227859D01*
X202925946Y-106219494D01*
X202919492Y-106217397D01*
X202881532Y-106189817D01*
X202848924Y-106168029D01*
X202495371Y-105814476D01*
X202473589Y-105781878D01*
X202446002Y-105743907D01*
X202443904Y-105737451D01*
X202435541Y-105724935D01*
X202428759Y-105690840D01*
X202419469Y-105662247D01*
X202419469Y-105644130D01*
X202414533Y-105619314D01*
X202419469Y-105594497D01*
X202419469Y-105576381D01*
X202428760Y-105547785D01*
X202435541Y-105513694D01*
X202443903Y-105501178D01*
X202446002Y-105494720D01*
X202473596Y-105456739D01*
X202495371Y-105424153D01*
X202572535Y-105346989D01*
X202806611Y-105112911D01*
X202806618Y-105112905D01*
X202813569Y-105105955D01*
X202846141Y-105084190D01*
X202884136Y-105056586D01*
X202890594Y-105054487D01*
X202903110Y-105046125D01*
X202937203Y-105039343D01*
X202965798Y-105030053D01*
X202983914Y-105030053D01*
X203008730Y-105025117D01*
X203033547Y-105030053D01*
G37*
G36*
X191647917Y-105337882D02*
G01*
X191664462Y-105348938D01*
X191675518Y-105365483D01*
X191679400Y-105385000D01*
X191679400Y-106125000D01*
X191675518Y-106144517D01*
X191664462Y-106161062D01*
X191647917Y-106172118D01*
X191628400Y-106176000D01*
X189228400Y-106176000D01*
X189208883Y-106172118D01*
X189192338Y-106161062D01*
X189181282Y-106144517D01*
X189177400Y-106125000D01*
X189177400Y-105385000D01*
X189181282Y-105365483D01*
X189192338Y-105348938D01*
X189208883Y-105337882D01*
X189228400Y-105334000D01*
X191628400Y-105334000D01*
X191647917Y-105337882D01*
G37*
G36*
X195547917Y-105337882D02*
G01*
X195564462Y-105348938D01*
X195575518Y-105365483D01*
X195579400Y-105385000D01*
X195579400Y-106125000D01*
X195575518Y-106144517D01*
X195564462Y-106161062D01*
X195547917Y-106172118D01*
X195528400Y-106176000D01*
X193128400Y-106176000D01*
X193108883Y-106172118D01*
X193092338Y-106161062D01*
X193081282Y-106144517D01*
X193077400Y-106125000D01*
X193077400Y-105385000D01*
X193081282Y-105365483D01*
X193092338Y-105348938D01*
X193108883Y-105337882D01*
X193128400Y-105334000D01*
X195528400Y-105334000D01*
X195547917Y-105337882D01*
G37*
G36*
X219275417Y-104342882D02*
G01*
X219291962Y-104353938D01*
X219303018Y-104370483D01*
X219306900Y-104390000D01*
X219306900Y-105890000D01*
X219303018Y-105909517D01*
X219291962Y-105926062D01*
X219275417Y-105937118D01*
X219255900Y-105941000D01*
X217355900Y-105941000D01*
X217336383Y-105937118D01*
X217319838Y-105926062D01*
X217308782Y-105909517D01*
X217304900Y-105890000D01*
X217304900Y-104390000D01*
X217308782Y-104370483D01*
X217319838Y-104353938D01*
X217336383Y-104342882D01*
X217355900Y-104339000D01*
X219255900Y-104339000D01*
X219275417Y-104342882D01*
G37*
G36*
X206133537Y-104503077D02*
G01*
X206143209Y-104503077D01*
X206154864Y-104507319D01*
X206185561Y-104513425D01*
X206202217Y-104524554D01*
X206210808Y-104527681D01*
X206237157Y-104547900D01*
X206250770Y-104556996D01*
X206462902Y-104769128D01*
X206471996Y-104782738D01*
X206492216Y-104809089D01*
X206495342Y-104817679D01*
X206506473Y-104834337D01*
X206512578Y-104865032D01*
X206516821Y-104876688D01*
X206516821Y-104886361D01*
X206521773Y-104911257D01*
X206516821Y-104936152D01*
X206516821Y-104945824D01*
X206512579Y-104957477D01*
X206506473Y-104988177D01*
X206495342Y-105004834D01*
X206492216Y-105013425D01*
X206471994Y-105039776D01*
X206462902Y-105053385D01*
X205738117Y-105778170D01*
X205724511Y-105787260D01*
X205698157Y-105807484D01*
X205689566Y-105810610D01*
X205672909Y-105821741D01*
X205642209Y-105827847D01*
X205630556Y-105832089D01*
X205620885Y-105832089D01*
X205595989Y-105837041D01*
X205571093Y-105832089D01*
X205561421Y-105832089D01*
X205549766Y-105827846D01*
X205519069Y-105821741D01*
X205502411Y-105810610D01*
X205493821Y-105807484D01*
X205467475Y-105787267D01*
X205453860Y-105778170D01*
X205241728Y-105566038D01*
X205232635Y-105552429D01*
X205212413Y-105526076D01*
X205209286Y-105517485D01*
X205198157Y-105500829D01*
X205192051Y-105470132D01*
X205187809Y-105458477D01*
X205187809Y-105448804D01*
X205182857Y-105423909D01*
X205187809Y-105399013D01*
X205187809Y-105389341D01*
X205192051Y-105377684D01*
X205198157Y-105346989D01*
X205209284Y-105330335D01*
X205212413Y-105321740D01*
X205232647Y-105295371D01*
X205241728Y-105281781D01*
X205966513Y-104556996D01*
X205980100Y-104547917D01*
X206006472Y-104527681D01*
X206015067Y-104524552D01*
X206031721Y-104513425D01*
X206062418Y-104507318D01*
X206074074Y-104503077D01*
X206083745Y-104503077D01*
X206108641Y-104498125D01*
X206133537Y-104503077D01*
G37*
G36*
X207742205Y-102894409D02*
G01*
X207751877Y-102894409D01*
X207763532Y-102898651D01*
X207794229Y-102904757D01*
X207810885Y-102915886D01*
X207819476Y-102919013D01*
X207845825Y-102939232D01*
X207859438Y-102948328D01*
X208071570Y-103160460D01*
X208080664Y-103174070D01*
X208100884Y-103200421D01*
X208104010Y-103209011D01*
X208115141Y-103225669D01*
X208121246Y-103256364D01*
X208125489Y-103268020D01*
X208125489Y-103277693D01*
X208130441Y-103302589D01*
X208125489Y-103327484D01*
X208125489Y-103337156D01*
X208121247Y-103348809D01*
X208115141Y-103379509D01*
X208104010Y-103396166D01*
X208100884Y-103404757D01*
X208080664Y-103431105D01*
X208071570Y-103444717D01*
X208065766Y-103450520D01*
X207998712Y-103537903D01*
X208153738Y-103692935D01*
X208241145Y-103625865D01*
X208246932Y-103620079D01*
X208260512Y-103611004D01*
X208286891Y-103590764D01*
X208295486Y-103587635D01*
X208312140Y-103576508D01*
X208342837Y-103570401D01*
X208354493Y-103566160D01*
X208364164Y-103566160D01*
X208389060Y-103561208D01*
X208413956Y-103566160D01*
X208423628Y-103566160D01*
X208435283Y-103570402D01*
X208465980Y-103576508D01*
X208482636Y-103587637D01*
X208491227Y-103590764D01*
X208517576Y-103610983D01*
X208531189Y-103620079D01*
X208743321Y-103832211D01*
X208752415Y-103845821D01*
X208772635Y-103872172D01*
X208775761Y-103880762D01*
X208786892Y-103897420D01*
X208792997Y-103928115D01*
X208797240Y-103939771D01*
X208797240Y-103949444D01*
X208802192Y-103974340D01*
X208797240Y-103999235D01*
X208797240Y-104008907D01*
X208792998Y-104020560D01*
X208786892Y-104051260D01*
X208775761Y-104067917D01*
X208772635Y-104076508D01*
X208752415Y-104102856D01*
X208743321Y-104116468D01*
X208737517Y-104122271D01*
X208670463Y-104209654D01*
X208825489Y-104364686D01*
X208912896Y-104297616D01*
X208918683Y-104291830D01*
X208932263Y-104282755D01*
X208958642Y-104262515D01*
X208967237Y-104259386D01*
X208983891Y-104248259D01*
X209014588Y-104242152D01*
X209026244Y-104237911D01*
X209035915Y-104237911D01*
X209060811Y-104232959D01*
X209085707Y-104237911D01*
X209095379Y-104237911D01*
X209107034Y-104242153D01*
X209137731Y-104248259D01*
X209154387Y-104259388D01*
X209162978Y-104262515D01*
X209189327Y-104282734D01*
X209202940Y-104291830D01*
X209415072Y-104503962D01*
X209424166Y-104517572D01*
X209444386Y-104543923D01*
X209447512Y-104552513D01*
X209458643Y-104569171D01*
X209464748Y-104599866D01*
X209468991Y-104611522D01*
X209468991Y-104621195D01*
X209473943Y-104646091D01*
X209468991Y-104670986D01*
X209468991Y-104680658D01*
X209464749Y-104692311D01*
X209458643Y-104723011D01*
X209447512Y-104739668D01*
X209444386Y-104748259D01*
X209424164Y-104774610D01*
X209415072Y-104788219D01*
X208690287Y-105513004D01*
X208676681Y-105522094D01*
X208650327Y-105542318D01*
X208641736Y-105545444D01*
X208625079Y-105556575D01*
X208594379Y-105562681D01*
X208582726Y-105566923D01*
X208573055Y-105566923D01*
X208548159Y-105571875D01*
X208523263Y-105566923D01*
X208513591Y-105566923D01*
X208501936Y-105562680D01*
X208471239Y-105556575D01*
X208454581Y-105545444D01*
X208445991Y-105542318D01*
X208419645Y-105522101D01*
X208406030Y-105513004D01*
X208193898Y-105300872D01*
X208184805Y-105287263D01*
X208164583Y-105260910D01*
X208161456Y-105252319D01*
X208150327Y-105235663D01*
X208144221Y-105204966D01*
X208139979Y-105193311D01*
X208139979Y-105183638D01*
X208135027Y-105158743D01*
X208139979Y-105133847D01*
X208139979Y-105124175D01*
X208144221Y-105112518D01*
X208150327Y-105081823D01*
X208161454Y-105065169D01*
X208164583Y-105056574D01*
X208184817Y-105030204D01*
X208193898Y-105016615D01*
X208199690Y-105010822D01*
X208266755Y-104923425D01*
X208111726Y-104768396D01*
X208024333Y-104835455D01*
X208018536Y-104841253D01*
X208004932Y-104850342D01*
X207978576Y-104870567D01*
X207969985Y-104873693D01*
X207953328Y-104884824D01*
X207922628Y-104890930D01*
X207910975Y-104895172D01*
X207901304Y-104895172D01*
X207876408Y-104900124D01*
X207851512Y-104895172D01*
X207841840Y-104895172D01*
X207830185Y-104890929D01*
X207799488Y-104884824D01*
X207782830Y-104873693D01*
X207774240Y-104870567D01*
X207747894Y-104850350D01*
X207734279Y-104841253D01*
X207522147Y-104629121D01*
X207513054Y-104615512D01*
X207492832Y-104589159D01*
X207489705Y-104580568D01*
X207478576Y-104563912D01*
X207472470Y-104533215D01*
X207468228Y-104521560D01*
X207468228Y-104511887D01*
X207463276Y-104486992D01*
X207468228Y-104462096D01*
X207468228Y-104452424D01*
X207472470Y-104440767D01*
X207478576Y-104410072D01*
X207489703Y-104393418D01*
X207492832Y-104384823D01*
X207513066Y-104358453D01*
X207522147Y-104344864D01*
X207527939Y-104339071D01*
X207595004Y-104251674D01*
X207439975Y-104096645D01*
X207352582Y-104163704D01*
X207346785Y-104169502D01*
X207333181Y-104178591D01*
X207306825Y-104198816D01*
X207298234Y-104201942D01*
X207281577Y-104213073D01*
X207250877Y-104219179D01*
X207239224Y-104223421D01*
X207229553Y-104223421D01*
X207204657Y-104228373D01*
X207179761Y-104223421D01*
X207170089Y-104223421D01*
X207158434Y-104219178D01*
X207127737Y-104213073D01*
X207111079Y-104201942D01*
X207102489Y-104198816D01*
X207076143Y-104178599D01*
X207062528Y-104169502D01*
X206850396Y-103957370D01*
X206841303Y-103943761D01*
X206821081Y-103917408D01*
X206817954Y-103908817D01*
X206806825Y-103892161D01*
X206800719Y-103861464D01*
X206796477Y-103849809D01*
X206796477Y-103840136D01*
X206791525Y-103815241D01*
X206796477Y-103790345D01*
X206796477Y-103780673D01*
X206800719Y-103769016D01*
X206806825Y-103738321D01*
X206817952Y-103721667D01*
X206821081Y-103713072D01*
X206841315Y-103686703D01*
X206850396Y-103673113D01*
X207575181Y-102948328D01*
X207588768Y-102939249D01*
X207615140Y-102919013D01*
X207623735Y-102915884D01*
X207640389Y-102904757D01*
X207671086Y-102898650D01*
X207682742Y-102894409D01*
X207692413Y-102894409D01*
X207717309Y-102889457D01*
X207742205Y-102894409D01*
G37*
G36*
X197413512Y-104316011D02*
G01*
X197441412Y-104319248D01*
X197450944Y-104323456D01*
X197474579Y-104328158D01*
X197499882Y-104345065D01*
X197507290Y-104348336D01*
X197512349Y-104353395D01*
X197534922Y-104368478D01*
X197550004Y-104391050D01*
X197555063Y-104396109D01*
X197558333Y-104403515D01*
X197575242Y-104428821D01*
X197579943Y-104452456D01*
X197584151Y-104461986D01*
X197587386Y-104489878D01*
X197589400Y-104500000D01*
X197589400Y-104870000D01*
X197587386Y-104880125D01*
X197584151Y-104908012D01*
X197579943Y-104917540D01*
X197575242Y-104941179D01*
X197558331Y-104966486D01*
X197555063Y-104973890D01*
X197550006Y-104978946D01*
X197534922Y-105001522D01*
X197512346Y-105016606D01*
X197507290Y-105021663D01*
X197499886Y-105024931D01*
X197474579Y-105041842D01*
X197450941Y-105046543D01*
X197441413Y-105050751D01*
X197413522Y-105053986D01*
X197403400Y-105056000D01*
X197133400Y-105056000D01*
X197123277Y-105053986D01*
X197095387Y-105050751D01*
X197085858Y-105046543D01*
X197062221Y-105041842D01*
X197036915Y-105024933D01*
X197029509Y-105021663D01*
X197024450Y-105016604D01*
X197001878Y-105001522D01*
X196986795Y-104978949D01*
X196981736Y-104973890D01*
X196978465Y-104966482D01*
X196961558Y-104941179D01*
X196956857Y-104917545D01*
X196952648Y-104908013D01*
X196949411Y-104880110D01*
X196947400Y-104870000D01*
X196947400Y-104500000D01*
X196949411Y-104489888D01*
X196952648Y-104461987D01*
X196956857Y-104452454D01*
X196961558Y-104428821D01*
X196978463Y-104403519D01*
X196981736Y-104396109D01*
X196986797Y-104391047D01*
X197001878Y-104368478D01*
X197024447Y-104353397D01*
X197029509Y-104348336D01*
X197036919Y-104345063D01*
X197062221Y-104328158D01*
X197085852Y-104323457D01*
X197095386Y-104319248D01*
X197123290Y-104316010D01*
X197133400Y-104314000D01*
X197403400Y-104314000D01*
X197413512Y-104316011D01*
G37*
G36*
X198433512Y-104316011D02*
G01*
X198461412Y-104319248D01*
X198470944Y-104323456D01*
X198494579Y-104328158D01*
X198519882Y-104345065D01*
X198527290Y-104348336D01*
X198532349Y-104353395D01*
X198554922Y-104368478D01*
X198570004Y-104391050D01*
X198575063Y-104396109D01*
X198578333Y-104403515D01*
X198595242Y-104428821D01*
X198599943Y-104452456D01*
X198604151Y-104461986D01*
X198607386Y-104489878D01*
X198609400Y-104500000D01*
X198609400Y-104870000D01*
X198607386Y-104880125D01*
X198604151Y-104908012D01*
X198599943Y-104917540D01*
X198595242Y-104941179D01*
X198578331Y-104966486D01*
X198575063Y-104973890D01*
X198570006Y-104978946D01*
X198554922Y-105001522D01*
X198532346Y-105016606D01*
X198527290Y-105021663D01*
X198519886Y-105024931D01*
X198494579Y-105041842D01*
X198470941Y-105046543D01*
X198461413Y-105050751D01*
X198433522Y-105053986D01*
X198423400Y-105056000D01*
X198153400Y-105056000D01*
X198143277Y-105053986D01*
X198115387Y-105050751D01*
X198105858Y-105046543D01*
X198082221Y-105041842D01*
X198056915Y-105024933D01*
X198049509Y-105021663D01*
X198044450Y-105016604D01*
X198021878Y-105001522D01*
X198006795Y-104978949D01*
X198001736Y-104973890D01*
X197998465Y-104966482D01*
X197981558Y-104941179D01*
X197976857Y-104917545D01*
X197972648Y-104908013D01*
X197969411Y-104880110D01*
X197967400Y-104870000D01*
X197967400Y-104500000D01*
X197969411Y-104489888D01*
X197972648Y-104461987D01*
X197976857Y-104452454D01*
X197981558Y-104428821D01*
X197998463Y-104403519D01*
X198001736Y-104396109D01*
X198006797Y-104391047D01*
X198021878Y-104368478D01*
X198044447Y-104353397D01*
X198049509Y-104348336D01*
X198056919Y-104345063D01*
X198082221Y-104328158D01*
X198105852Y-104323457D01*
X198115386Y-104319248D01*
X198143290Y-104316010D01*
X198153400Y-104314000D01*
X198423400Y-104314000D01*
X198433512Y-104316011D01*
G37*
G36*
X191647917Y-104067882D02*
G01*
X191664462Y-104078938D01*
X191675518Y-104095483D01*
X191679400Y-104115000D01*
X191679400Y-104855000D01*
X191675518Y-104874517D01*
X191664462Y-104891062D01*
X191647917Y-104902118D01*
X191628400Y-104906000D01*
X189228400Y-104906000D01*
X189208883Y-104902118D01*
X189192338Y-104891062D01*
X189181282Y-104874517D01*
X189177400Y-104855000D01*
X189177400Y-104115000D01*
X189181282Y-104095483D01*
X189192338Y-104078938D01*
X189208883Y-104067882D01*
X189228400Y-104064000D01*
X191628400Y-104064000D01*
X191647917Y-104067882D01*
G37*
G36*
X195547917Y-104067882D02*
G01*
X195564462Y-104078938D01*
X195575518Y-104095483D01*
X195579400Y-104115000D01*
X195579400Y-104855000D01*
X195575518Y-104874517D01*
X195564462Y-104891062D01*
X195547917Y-104902118D01*
X195528400Y-104906000D01*
X193128400Y-104906000D01*
X193108883Y-104902118D01*
X193092338Y-104891062D01*
X193081282Y-104874517D01*
X193077400Y-104855000D01*
X193077400Y-104115000D01*
X193081282Y-104095483D01*
X193092338Y-104078938D01*
X193108883Y-104067882D01*
X193128400Y-104064000D01*
X195528400Y-104064000D01*
X195547917Y-104067882D01*
G37*
G36*
X204537531Y-103526069D02*
G01*
X204555647Y-103526069D01*
X204584240Y-103535359D01*
X204618335Y-103542141D01*
X204630851Y-103550504D01*
X204637307Y-103552602D01*
X204675272Y-103580185D01*
X204707876Y-103601971D01*
X205061429Y-103955524D01*
X205083213Y-103988125D01*
X205110797Y-104026092D01*
X205112894Y-104032546D01*
X205121259Y-104045065D01*
X205128040Y-104079159D01*
X205137331Y-104107752D01*
X205137331Y-104125869D01*
X205142267Y-104150686D01*
X205137331Y-104175502D01*
X205137331Y-104193618D01*
X205128040Y-104222209D01*
X205121259Y-104256306D01*
X205112894Y-104268824D01*
X205110797Y-104275279D01*
X205083222Y-104313230D01*
X205061429Y-104345847D01*
X204743231Y-104664045D01*
X204710629Y-104685829D01*
X204672663Y-104713413D01*
X204666208Y-104715510D01*
X204653690Y-104723875D01*
X204619593Y-104730656D01*
X204591002Y-104739947D01*
X204572886Y-104739947D01*
X204548070Y-104744883D01*
X204523253Y-104739947D01*
X204505137Y-104739947D01*
X204476545Y-104730656D01*
X204442449Y-104723875D01*
X204429930Y-104715510D01*
X204423476Y-104713413D01*
X204385516Y-104685833D01*
X204352908Y-104664045D01*
X203999355Y-104310492D01*
X203977573Y-104277894D01*
X203949986Y-104239923D01*
X203947888Y-104233467D01*
X203939525Y-104220951D01*
X203932743Y-104186856D01*
X203923453Y-104158263D01*
X203923453Y-104140146D01*
X203918517Y-104115330D01*
X203923453Y-104090513D01*
X203923453Y-104072397D01*
X203932744Y-104043801D01*
X203939525Y-104009710D01*
X203947887Y-103997194D01*
X203949986Y-103990736D01*
X203977580Y-103952755D01*
X203999355Y-103920169D01*
X204069715Y-103849809D01*
X204310595Y-103608927D01*
X204310602Y-103608921D01*
X204317553Y-103601971D01*
X204350125Y-103580206D01*
X204388120Y-103552602D01*
X204394578Y-103550503D01*
X204407094Y-103542141D01*
X204441187Y-103535359D01*
X204469782Y-103526069D01*
X204487898Y-103526069D01*
X204512714Y-103521133D01*
X204537531Y-103526069D01*
G37*
G36*
X211697314Y-101141995D02*
G01*
X211713126Y-101148976D01*
X211720931Y-101150213D01*
X211753439Y-101166776D01*
X211798506Y-101186676D01*
X211876724Y-101264894D01*
X211896626Y-101309967D01*
X211913186Y-101342468D01*
X211914421Y-101350270D01*
X211921405Y-101366086D01*
X211929400Y-101435000D01*
X211929400Y-103935000D01*
X211921405Y-104003914D01*
X211914421Y-104019729D01*
X211913186Y-104027531D01*
X211896629Y-104060024D01*
X211876724Y-104105106D01*
X211798506Y-104183324D01*
X211753424Y-104203229D01*
X211720931Y-104219786D01*
X211713129Y-104221021D01*
X211697314Y-104228005D01*
X211628400Y-104236000D01*
X210528400Y-104236000D01*
X210459486Y-104228005D01*
X210443670Y-104221021D01*
X210435868Y-104219786D01*
X210403367Y-104203226D01*
X210358294Y-104183324D01*
X210280076Y-104105106D01*
X210260176Y-104060039D01*
X210243613Y-104027531D01*
X210242376Y-104019726D01*
X210235395Y-104003914D01*
X210227400Y-103935000D01*
X210227400Y-101435000D01*
X210235395Y-101366086D01*
X210242376Y-101350274D01*
X210243613Y-101342468D01*
X210260180Y-101309953D01*
X210280076Y-101264894D01*
X210358294Y-101186676D01*
X210403353Y-101166780D01*
X210435868Y-101150213D01*
X210443674Y-101148976D01*
X210459486Y-101141995D01*
X210528400Y-101134000D01*
X211628400Y-101134000D01*
X211697314Y-101141995D01*
G37*
G36*
X219275417Y-102342882D02*
G01*
X219291962Y-102353938D01*
X219303018Y-102370483D01*
X219306900Y-102390000D01*
X219306900Y-103890000D01*
X219303018Y-103909517D01*
X219291962Y-103926062D01*
X219275417Y-103937118D01*
X219255900Y-103941000D01*
X217355900Y-103941000D01*
X217336383Y-103937118D01*
X217319838Y-103926062D01*
X217308782Y-103909517D01*
X217304900Y-103890000D01*
X217304900Y-102390000D01*
X217308782Y-102370483D01*
X217319838Y-102353938D01*
X217336383Y-102342882D01*
X217355900Y-102339000D01*
X219255900Y-102339000D01*
X219275417Y-102342882D01*
G37*
G36*
X205633547Y-102430053D02*
G01*
X205651663Y-102430053D01*
X205680256Y-102439343D01*
X205714351Y-102446125D01*
X205726867Y-102454488D01*
X205733323Y-102456586D01*
X205771288Y-102484169D01*
X205803892Y-102505955D01*
X206157445Y-102859508D01*
X206179229Y-102892109D01*
X206206813Y-102930076D01*
X206208910Y-102936530D01*
X206217275Y-102949049D01*
X206224056Y-102983143D01*
X206233347Y-103011736D01*
X206233347Y-103029853D01*
X206238283Y-103054670D01*
X206233347Y-103079486D01*
X206233347Y-103097602D01*
X206224056Y-103126193D01*
X206217275Y-103160290D01*
X206208910Y-103172808D01*
X206206813Y-103179263D01*
X206179238Y-103217214D01*
X206157445Y-103249831D01*
X205839247Y-103568029D01*
X205806645Y-103589813D01*
X205768679Y-103617397D01*
X205762224Y-103619494D01*
X205749706Y-103627859D01*
X205715609Y-103634640D01*
X205687018Y-103643931D01*
X205668902Y-103643931D01*
X205644086Y-103648867D01*
X205619269Y-103643931D01*
X205601153Y-103643931D01*
X205572561Y-103634640D01*
X205538465Y-103627859D01*
X205525946Y-103619494D01*
X205519492Y-103617397D01*
X205481532Y-103589817D01*
X205448924Y-103568029D01*
X205095371Y-103214476D01*
X205073589Y-103181878D01*
X205046002Y-103143907D01*
X205043904Y-103137451D01*
X205035541Y-103124935D01*
X205028759Y-103090840D01*
X205019469Y-103062247D01*
X205019469Y-103044130D01*
X205014533Y-103019314D01*
X205019469Y-102994497D01*
X205019469Y-102976381D01*
X205028760Y-102947785D01*
X205035541Y-102913694D01*
X205043903Y-102901178D01*
X205046002Y-102894720D01*
X205073596Y-102856739D01*
X205095371Y-102824153D01*
X205125524Y-102794000D01*
X205406611Y-102512911D01*
X205406618Y-102512905D01*
X205413569Y-102505955D01*
X205446141Y-102484190D01*
X205484136Y-102456586D01*
X205490594Y-102454487D01*
X205503110Y-102446125D01*
X205537203Y-102439343D01*
X205565798Y-102430053D01*
X205583914Y-102430053D01*
X205608730Y-102425117D01*
X205633547Y-102430053D01*
G37*
G36*
X191647917Y-102797882D02*
G01*
X191664462Y-102808938D01*
X191675518Y-102825483D01*
X191679400Y-102845000D01*
X191679400Y-103585000D01*
X191675518Y-103604517D01*
X191664462Y-103621062D01*
X191647917Y-103632118D01*
X191628400Y-103636000D01*
X189228400Y-103636000D01*
X189208883Y-103632118D01*
X189192338Y-103621062D01*
X189181282Y-103604517D01*
X189177400Y-103585000D01*
X189177400Y-102845000D01*
X189181282Y-102825483D01*
X189192338Y-102808938D01*
X189208883Y-102797882D01*
X189228400Y-102794000D01*
X191628400Y-102794000D01*
X191647917Y-102797882D01*
G37*
G36*
X195547917Y-102797882D02*
G01*
X195564462Y-102808938D01*
X195575518Y-102825483D01*
X195579400Y-102845000D01*
X195579400Y-103585000D01*
X195575518Y-103604517D01*
X195564462Y-103621062D01*
X195547917Y-103632118D01*
X195528400Y-103636000D01*
X193128400Y-103636000D01*
X193108883Y-103632118D01*
X193092338Y-103621062D01*
X193081282Y-103604517D01*
X193077400Y-103585000D01*
X193077400Y-102845000D01*
X193081282Y-102825483D01*
X193092338Y-102808938D01*
X193108883Y-102797882D01*
X193128400Y-102794000D01*
X195528400Y-102794000D01*
X195547917Y-102797882D01*
G37*
G36*
X191647917Y-101527882D02*
G01*
X191664462Y-101538938D01*
X191675518Y-101555483D01*
X191679400Y-101575000D01*
X191679400Y-102315000D01*
X191675518Y-102334517D01*
X191664462Y-102351062D01*
X191647917Y-102362118D01*
X191628400Y-102366000D01*
X189228400Y-102366000D01*
X189208883Y-102362118D01*
X189192338Y-102351062D01*
X189181282Y-102334517D01*
X189177400Y-102315000D01*
X189177400Y-101575000D01*
X189181282Y-101555483D01*
X189192338Y-101538938D01*
X189208883Y-101527882D01*
X189228400Y-101524000D01*
X191628400Y-101524000D01*
X191647917Y-101527882D01*
G37*
G36*
X195547917Y-101527882D02*
G01*
X195564462Y-101538938D01*
X195575518Y-101555483D01*
X195579400Y-101575000D01*
X195579400Y-102315000D01*
X195575518Y-102334517D01*
X195564462Y-102351062D01*
X195547917Y-102362118D01*
X195528400Y-102366000D01*
X193128400Y-102366000D01*
X193108883Y-102362118D01*
X193092338Y-102351062D01*
X193081282Y-102334517D01*
X193077400Y-102315000D01*
X193077400Y-101575000D01*
X193081282Y-101555483D01*
X193092338Y-101538938D01*
X193108883Y-101527882D01*
X193128400Y-101524000D01*
X195528400Y-101524000D01*
X195547917Y-101527882D01*
G37*
G36*
X218719709Y-99992135D02*
G01*
X218844875Y-100017032D01*
X218962779Y-100065869D01*
X219068890Y-100136770D01*
X219159130Y-100227010D01*
X219230031Y-100333121D01*
X219278868Y-100451025D01*
X219303765Y-100576191D01*
X219303765Y-100624238D01*
X219306900Y-100640000D01*
X219306900Y-101840000D01*
X219303018Y-101859517D01*
X219291962Y-101876062D01*
X219275417Y-101887118D01*
X219255900Y-101891000D01*
X217355900Y-101891000D01*
X217336383Y-101887118D01*
X217319838Y-101876062D01*
X217308782Y-101859517D01*
X217304900Y-101840000D01*
X217304900Y-100640000D01*
X217308035Y-100624238D01*
X217308035Y-100576191D01*
X217332932Y-100451025D01*
X217381769Y-100333121D01*
X217452670Y-100227010D01*
X217542910Y-100136770D01*
X217649021Y-100065869D01*
X217766925Y-100017032D01*
X217892091Y-99992135D01*
X217955900Y-99989000D01*
X218655900Y-99989000D01*
X218719709Y-99992135D01*
G37*
G36*
X206066833Y-100666644D02*
G01*
X206113206Y-100673989D01*
X206119257Y-100677072D01*
X206134021Y-100680009D01*
X206162925Y-100699323D01*
X206189711Y-100712971D01*
X206202518Y-100725778D01*
X206223561Y-100739839D01*
X206237621Y-100760881D01*
X206250428Y-100773688D01*
X206264074Y-100800471D01*
X206283391Y-100829379D01*
X206286327Y-100844144D01*
X206289410Y-100850193D01*
X206296751Y-100896545D01*
X206304400Y-100935000D01*
X206304400Y-101435000D01*
X206296750Y-101473458D01*
X206289410Y-101519806D01*
X206286328Y-101525854D01*
X206283391Y-101540621D01*
X206264072Y-101569532D01*
X206250428Y-101596311D01*
X206237623Y-101609115D01*
X206223561Y-101630161D01*
X206202515Y-101644223D01*
X206189711Y-101657028D01*
X206162932Y-101670672D01*
X206134021Y-101689991D01*
X206119254Y-101692928D01*
X206113206Y-101696010D01*
X206066858Y-101703350D01*
X206028400Y-101711000D01*
X205578400Y-101711000D01*
X205539945Y-101703351D01*
X205493593Y-101696010D01*
X205487544Y-101692927D01*
X205472779Y-101689991D01*
X205443871Y-101670674D01*
X205417088Y-101657028D01*
X205404281Y-101644221D01*
X205383239Y-101630161D01*
X205369178Y-101609118D01*
X205356371Y-101596311D01*
X205342723Y-101569525D01*
X205323409Y-101540621D01*
X205320472Y-101525857D01*
X205317389Y-101519806D01*
X205310044Y-101473433D01*
X205302400Y-101435000D01*
X205302400Y-100935000D01*
X205310044Y-100896570D01*
X205317389Y-100850193D01*
X205320472Y-100844141D01*
X205323409Y-100829379D01*
X205342720Y-100800477D01*
X205356371Y-100773688D01*
X205369180Y-100760878D01*
X205383239Y-100739839D01*
X205404278Y-100725780D01*
X205417088Y-100712971D01*
X205443877Y-100699320D01*
X205472779Y-100680009D01*
X205487541Y-100677072D01*
X205493593Y-100673989D01*
X205539970Y-100666644D01*
X205578400Y-100659000D01*
X206028400Y-100659000D01*
X206066833Y-100666644D01*
G37*
G36*
X207616833Y-100666644D02*
G01*
X207663206Y-100673989D01*
X207669257Y-100677072D01*
X207684021Y-100680009D01*
X207712925Y-100699323D01*
X207739711Y-100712971D01*
X207752518Y-100725778D01*
X207773561Y-100739839D01*
X207787621Y-100760881D01*
X207800428Y-100773688D01*
X207814074Y-100800471D01*
X207833391Y-100829379D01*
X207836327Y-100844144D01*
X207839410Y-100850193D01*
X207846751Y-100896545D01*
X207854400Y-100935000D01*
X207854400Y-101435000D01*
X207846750Y-101473458D01*
X207839410Y-101519806D01*
X207836328Y-101525854D01*
X207833391Y-101540621D01*
X207814072Y-101569532D01*
X207800428Y-101596311D01*
X207787623Y-101609115D01*
X207773561Y-101630161D01*
X207752515Y-101644223D01*
X207739711Y-101657028D01*
X207712932Y-101670672D01*
X207684021Y-101689991D01*
X207669254Y-101692928D01*
X207663206Y-101696010D01*
X207616858Y-101703350D01*
X207578400Y-101711000D01*
X207128400Y-101711000D01*
X207089945Y-101703351D01*
X207043593Y-101696010D01*
X207037544Y-101692927D01*
X207022779Y-101689991D01*
X206993871Y-101670674D01*
X206967088Y-101657028D01*
X206954281Y-101644221D01*
X206933239Y-101630161D01*
X206919178Y-101609118D01*
X206906371Y-101596311D01*
X206892723Y-101569525D01*
X206873409Y-101540621D01*
X206870472Y-101525857D01*
X206867389Y-101519806D01*
X206860044Y-101473433D01*
X206852400Y-101435000D01*
X206852400Y-100935000D01*
X206860044Y-100896570D01*
X206867389Y-100850193D01*
X206870472Y-100844141D01*
X206873409Y-100829379D01*
X206892720Y-100800477D01*
X206906371Y-100773688D01*
X206919180Y-100760878D01*
X206933239Y-100739839D01*
X206954278Y-100725780D01*
X206967088Y-100712971D01*
X206993877Y-100699320D01*
X207022779Y-100680009D01*
X207037541Y-100677072D01*
X207043593Y-100673989D01*
X207089970Y-100666644D01*
X207128400Y-100659000D01*
X207578400Y-100659000D01*
X207616833Y-100666644D01*
G37*
G36*
X194816833Y-99166644D02*
G01*
X194863206Y-99173989D01*
X194869257Y-99177072D01*
X194884021Y-99180009D01*
X194912925Y-99199323D01*
X194939711Y-99212971D01*
X194952518Y-99225778D01*
X194973561Y-99239839D01*
X194987621Y-99260881D01*
X195000428Y-99273688D01*
X195014074Y-99300471D01*
X195033391Y-99329379D01*
X195036327Y-99344144D01*
X195039410Y-99350193D01*
X195046751Y-99396545D01*
X195054400Y-99435000D01*
X195054400Y-99935000D01*
X195046750Y-99973458D01*
X195039410Y-100019806D01*
X195036328Y-100025854D01*
X195033391Y-100040621D01*
X195014072Y-100069532D01*
X195000428Y-100096311D01*
X194987623Y-100109115D01*
X194973561Y-100130161D01*
X194952515Y-100144223D01*
X194939711Y-100157028D01*
X194912932Y-100170672D01*
X194884021Y-100189991D01*
X194869254Y-100192928D01*
X194863206Y-100196010D01*
X194816858Y-100203350D01*
X194778400Y-100211000D01*
X194328400Y-100211000D01*
X194289945Y-100203351D01*
X194243593Y-100196010D01*
X194237544Y-100192927D01*
X194222779Y-100189991D01*
X194193871Y-100170674D01*
X194167088Y-100157028D01*
X194154281Y-100144221D01*
X194133239Y-100130161D01*
X194119178Y-100109118D01*
X194106371Y-100096311D01*
X194092723Y-100069525D01*
X194073409Y-100040621D01*
X194070472Y-100025857D01*
X194067389Y-100019806D01*
X194060044Y-99973433D01*
X194052400Y-99935000D01*
X194052400Y-99435000D01*
X194060044Y-99396570D01*
X194067389Y-99350193D01*
X194070472Y-99344141D01*
X194073409Y-99329379D01*
X194092720Y-99300477D01*
X194106371Y-99273688D01*
X194119180Y-99260878D01*
X194133239Y-99239839D01*
X194154278Y-99225780D01*
X194167088Y-99212971D01*
X194193877Y-99199320D01*
X194222779Y-99180009D01*
X194237541Y-99177072D01*
X194243593Y-99173989D01*
X194289970Y-99166644D01*
X194328400Y-99159000D01*
X194778400Y-99159000D01*
X194816833Y-99166644D01*
G37*
G36*
X196366833Y-99166644D02*
G01*
X196413206Y-99173989D01*
X196419257Y-99177072D01*
X196434021Y-99180009D01*
X196462925Y-99199323D01*
X196489711Y-99212971D01*
X196502518Y-99225778D01*
X196523561Y-99239839D01*
X196537621Y-99260881D01*
X196550428Y-99273688D01*
X196564074Y-99300471D01*
X196583391Y-99329379D01*
X196586327Y-99344144D01*
X196589410Y-99350193D01*
X196596751Y-99396545D01*
X196604400Y-99435000D01*
X196604400Y-99935000D01*
X196596750Y-99973458D01*
X196589410Y-100019806D01*
X196586328Y-100025854D01*
X196583391Y-100040621D01*
X196564072Y-100069532D01*
X196550428Y-100096311D01*
X196537623Y-100109115D01*
X196523561Y-100130161D01*
X196502515Y-100144223D01*
X196489711Y-100157028D01*
X196462932Y-100170672D01*
X196434021Y-100189991D01*
X196419254Y-100192928D01*
X196413206Y-100196010D01*
X196366858Y-100203350D01*
X196328400Y-100211000D01*
X195878400Y-100211000D01*
X195839945Y-100203351D01*
X195793593Y-100196010D01*
X195787544Y-100192927D01*
X195772779Y-100189991D01*
X195743871Y-100170674D01*
X195717088Y-100157028D01*
X195704281Y-100144221D01*
X195683239Y-100130161D01*
X195669178Y-100109118D01*
X195656371Y-100096311D01*
X195642723Y-100069525D01*
X195623409Y-100040621D01*
X195620472Y-100025857D01*
X195617389Y-100019806D01*
X195610044Y-99973433D01*
X195602400Y-99935000D01*
X195602400Y-99435000D01*
X195610044Y-99396570D01*
X195617389Y-99350193D01*
X195620472Y-99344141D01*
X195623409Y-99329379D01*
X195642720Y-99300477D01*
X195656371Y-99273688D01*
X195669180Y-99260878D01*
X195683239Y-99239839D01*
X195704278Y-99225780D01*
X195717088Y-99212971D01*
X195743877Y-99199320D01*
X195772779Y-99180009D01*
X195787541Y-99177072D01*
X195793593Y-99173989D01*
X195839970Y-99166644D01*
X195878400Y-99159000D01*
X196328400Y-99159000D01*
X196366833Y-99166644D01*
G37*
G36*
X211697314Y-96741995D02*
G01*
X211713126Y-96748976D01*
X211720931Y-96750213D01*
X211753439Y-96766776D01*
X211798506Y-96786676D01*
X211876724Y-96864894D01*
X211896626Y-96909967D01*
X211913186Y-96942468D01*
X211914421Y-96950270D01*
X211921405Y-96966086D01*
X211929400Y-97035000D01*
X211929400Y-99535000D01*
X211921405Y-99603914D01*
X211914421Y-99619729D01*
X211913186Y-99627531D01*
X211896629Y-99660024D01*
X211876724Y-99705106D01*
X211798506Y-99783324D01*
X211753424Y-99803229D01*
X211720931Y-99819786D01*
X211713129Y-99821021D01*
X211697314Y-99828005D01*
X211628400Y-99836000D01*
X210528400Y-99836000D01*
X210459486Y-99828005D01*
X210443670Y-99821021D01*
X210435868Y-99819786D01*
X210403367Y-99803226D01*
X210358294Y-99783324D01*
X210280076Y-99705106D01*
X210260176Y-99660039D01*
X210243613Y-99627531D01*
X210242376Y-99619726D01*
X210235395Y-99603914D01*
X210227400Y-99535000D01*
X210227400Y-97035000D01*
X210235395Y-96966086D01*
X210242376Y-96950274D01*
X210243613Y-96942468D01*
X210260180Y-96909953D01*
X210280076Y-96864894D01*
X210358294Y-96786676D01*
X210403353Y-96766780D01*
X210435868Y-96750213D01*
X210443674Y-96748976D01*
X210459486Y-96741995D01*
X210528400Y-96734000D01*
X211628400Y-96734000D01*
X211697314Y-96741995D01*
G37*
G36*
X191902917Y-96257882D02*
G01*
X191919462Y-96268938D01*
X191930518Y-96285483D01*
X191934400Y-96305000D01*
X191934400Y-98005000D01*
X191930518Y-98024517D01*
X191919462Y-98041062D01*
X191902917Y-98052118D01*
X191883400Y-98056000D01*
X190183400Y-98056000D01*
X190163883Y-98052118D01*
X190147338Y-98041062D01*
X190136282Y-98024517D01*
X190132400Y-98005000D01*
X190132400Y-96305000D01*
X190136282Y-96285483D01*
X190147338Y-96268938D01*
X190163883Y-96257882D01*
X190183400Y-96254000D01*
X191883400Y-96254000D01*
X191902917Y-96257882D01*
G37*
G36*
X193834946Y-96292797D02*
G01*
X193998128Y-96360389D01*
X194144988Y-96458518D01*
X194269882Y-96583412D01*
X194368011Y-96730272D01*
X194435603Y-96893454D01*
X194470061Y-97066687D01*
X194470061Y-97243313D01*
X194435603Y-97416546D01*
X194368011Y-97579728D01*
X194269882Y-97726588D01*
X194144988Y-97851482D01*
X193998128Y-97949611D01*
X193834946Y-98017203D01*
X193661713Y-98051661D01*
X193485087Y-98051661D01*
X193311854Y-98017203D01*
X193148672Y-97949611D01*
X193001812Y-97851482D01*
X192876918Y-97726588D01*
X192778789Y-97579728D01*
X192711197Y-97416546D01*
X192676739Y-97243313D01*
X192676739Y-97066687D01*
X192711197Y-96893454D01*
X192778789Y-96730272D01*
X192876918Y-96583412D01*
X193001812Y-96458518D01*
X193148672Y-96360389D01*
X193311854Y-96292797D01*
X193485087Y-96258339D01*
X193661713Y-96258339D01*
X193834946Y-96292797D01*
G37*
G36*
X196374946Y-96292797D02*
G01*
X196538128Y-96360389D01*
X196684988Y-96458518D01*
X196809882Y-96583412D01*
X196908011Y-96730272D01*
X196975603Y-96893454D01*
X197010061Y-97066687D01*
X197010061Y-97243313D01*
X196975603Y-97416546D01*
X196908011Y-97579728D01*
X196809882Y-97726588D01*
X196684988Y-97851482D01*
X196538128Y-97949611D01*
X196374946Y-98017203D01*
X196201713Y-98051661D01*
X196025087Y-98051661D01*
X195851854Y-98017203D01*
X195688672Y-97949611D01*
X195541812Y-97851482D01*
X195416918Y-97726588D01*
X195318789Y-97579728D01*
X195251197Y-97416546D01*
X195216739Y-97243313D01*
X195216739Y-97066687D01*
X195251197Y-96893454D01*
X195318789Y-96730272D01*
X195416918Y-96583412D01*
X195541812Y-96458518D01*
X195688672Y-96360389D01*
X195851854Y-96292797D01*
X196025087Y-96258339D01*
X196201713Y-96258339D01*
X196374946Y-96292797D01*
G37*
G36*
X198914946Y-96292797D02*
G01*
X199078128Y-96360389D01*
X199224988Y-96458518D01*
X199349882Y-96583412D01*
X199448011Y-96730272D01*
X199515603Y-96893454D01*
X199550061Y-97066687D01*
X199550061Y-97243313D01*
X199515603Y-97416546D01*
X199448011Y-97579728D01*
X199349882Y-97726588D01*
X199224988Y-97851482D01*
X199078128Y-97949611D01*
X198914946Y-98017203D01*
X198741713Y-98051661D01*
X198565087Y-98051661D01*
X198391854Y-98017203D01*
X198228672Y-97949611D01*
X198081812Y-97851482D01*
X197956918Y-97726588D01*
X197858789Y-97579728D01*
X197791197Y-97416546D01*
X197756739Y-97243313D01*
X197756739Y-97066687D01*
X197791197Y-96893454D01*
X197858789Y-96730272D01*
X197956918Y-96583412D01*
X198081812Y-96458518D01*
X198228672Y-96360389D01*
X198391854Y-96292797D01*
X198565087Y-96258339D01*
X198741713Y-96258339D01*
X198914946Y-96292797D01*
G37*
G36*
X201454946Y-96292797D02*
G01*
X201618128Y-96360389D01*
X201764988Y-96458518D01*
X201889882Y-96583412D01*
X201988011Y-96730272D01*
X202055603Y-96893454D01*
X202090061Y-97066687D01*
X202090061Y-97243313D01*
X202055603Y-97416546D01*
X201988011Y-97579728D01*
X201889882Y-97726588D01*
X201764988Y-97851482D01*
X201618128Y-97949611D01*
X201454946Y-98017203D01*
X201281713Y-98051661D01*
X201105087Y-98051661D01*
X200931854Y-98017203D01*
X200768672Y-97949611D01*
X200621812Y-97851482D01*
X200496918Y-97726588D01*
X200398789Y-97579728D01*
X200331197Y-97416546D01*
X200296739Y-97243313D01*
X200296739Y-97066687D01*
X200331197Y-96893454D01*
X200398789Y-96730272D01*
X200496918Y-96583412D01*
X200621812Y-96458518D01*
X200768672Y-96360389D01*
X200931854Y-96292797D01*
X201105087Y-96258339D01*
X201281713Y-96258339D01*
X201454946Y-96292797D01*
G37*
G36*
X203994946Y-96292797D02*
G01*
X204158128Y-96360389D01*
X204304988Y-96458518D01*
X204429882Y-96583412D01*
X204528011Y-96730272D01*
X204595603Y-96893454D01*
X204630061Y-97066687D01*
X204630061Y-97243313D01*
X204595603Y-97416546D01*
X204528011Y-97579728D01*
X204429882Y-97726588D01*
X204304988Y-97851482D01*
X204158128Y-97949611D01*
X203994946Y-98017203D01*
X203821713Y-98051661D01*
X203645087Y-98051661D01*
X203471854Y-98017203D01*
X203308672Y-97949611D01*
X203161812Y-97851482D01*
X203036918Y-97726588D01*
X202938789Y-97579728D01*
X202871197Y-97416546D01*
X202836739Y-97243313D01*
X202836739Y-97066687D01*
X202871197Y-96893454D01*
X202938789Y-96730272D01*
X203036918Y-96583412D01*
X203161812Y-96458518D01*
X203308672Y-96360389D01*
X203471854Y-96292797D01*
X203645087Y-96258339D01*
X203821713Y-96258339D01*
X203994946Y-96292797D01*
G37*
G36*
X206534946Y-96292797D02*
G01*
X206698128Y-96360389D01*
X206844988Y-96458518D01*
X206969882Y-96583412D01*
X207068011Y-96730272D01*
X207135603Y-96893454D01*
X207170061Y-97066687D01*
X207170061Y-97243313D01*
X207135603Y-97416546D01*
X207068011Y-97579728D01*
X206969882Y-97726588D01*
X206844988Y-97851482D01*
X206698128Y-97949611D01*
X206534946Y-98017203D01*
X206361713Y-98051661D01*
X206185087Y-98051661D01*
X206011854Y-98017203D01*
X205848672Y-97949611D01*
X205701812Y-97851482D01*
X205576918Y-97726588D01*
X205478789Y-97579728D01*
X205411197Y-97416546D01*
X205376739Y-97243313D01*
X205376739Y-97066687D01*
X205411197Y-96893454D01*
X205478789Y-96730272D01*
X205576918Y-96583412D01*
X205701812Y-96458518D01*
X205848672Y-96360389D01*
X206011854Y-96292797D01*
X206185087Y-96258339D01*
X206361713Y-96258339D01*
X206534946Y-96292797D01*
G37*
G36*
X191902917Y-93717882D02*
G01*
X191919462Y-93728938D01*
X191930518Y-93745483D01*
X191934400Y-93765000D01*
X191934400Y-95465000D01*
X191930518Y-95484517D01*
X191919462Y-95501062D01*
X191902917Y-95512118D01*
X191883400Y-95516000D01*
X190183400Y-95516000D01*
X190163883Y-95512118D01*
X190147338Y-95501062D01*
X190136282Y-95484517D01*
X190132400Y-95465000D01*
X190132400Y-93765000D01*
X190136282Y-93745483D01*
X190147338Y-93728938D01*
X190163883Y-93717882D01*
X190183400Y-93714000D01*
X191883400Y-93714000D01*
X191902917Y-93717882D01*
G37*
G36*
X193834946Y-93752797D02*
G01*
X193998128Y-93820389D01*
X194144988Y-93918518D01*
X194269882Y-94043412D01*
X194368011Y-94190272D01*
X194435603Y-94353454D01*
X194470061Y-94526687D01*
X194470061Y-94703313D01*
X194435603Y-94876546D01*
X194368011Y-95039728D01*
X194269882Y-95186588D01*
X194144988Y-95311482D01*
X193998128Y-95409611D01*
X193834946Y-95477203D01*
X193661713Y-95511661D01*
X193485087Y-95511661D01*
X193311854Y-95477203D01*
X193148672Y-95409611D01*
X193001812Y-95311482D01*
X192876918Y-95186588D01*
X192778789Y-95039728D01*
X192711197Y-94876546D01*
X192676739Y-94703313D01*
X192676739Y-94526687D01*
X192711197Y-94353454D01*
X192778789Y-94190272D01*
X192876918Y-94043412D01*
X193001812Y-93918518D01*
X193148672Y-93820389D01*
X193311854Y-93752797D01*
X193485087Y-93718339D01*
X193661713Y-93718339D01*
X193834946Y-93752797D01*
G37*
G36*
X196374946Y-93752797D02*
G01*
X196538128Y-93820389D01*
X196684988Y-93918518D01*
X196809882Y-94043412D01*
X196908011Y-94190272D01*
X196975603Y-94353454D01*
X197010061Y-94526687D01*
X197010061Y-94703313D01*
X196975603Y-94876546D01*
X196908011Y-95039728D01*
X196809882Y-95186588D01*
X196684988Y-95311482D01*
X196538128Y-95409611D01*
X196374946Y-95477203D01*
X196201713Y-95511661D01*
X196025087Y-95511661D01*
X195851854Y-95477203D01*
X195688672Y-95409611D01*
X195541812Y-95311482D01*
X195416918Y-95186588D01*
X195318789Y-95039728D01*
X195251197Y-94876546D01*
X195216739Y-94703313D01*
X195216739Y-94526687D01*
X195251197Y-94353454D01*
X195318789Y-94190272D01*
X195416918Y-94043412D01*
X195541812Y-93918518D01*
X195688672Y-93820389D01*
X195851854Y-93752797D01*
X196025087Y-93718339D01*
X196201713Y-93718339D01*
X196374946Y-93752797D01*
G37*
G36*
X198914946Y-93752797D02*
G01*
X199078128Y-93820389D01*
X199224988Y-93918518D01*
X199349882Y-94043412D01*
X199448011Y-94190272D01*
X199515603Y-94353454D01*
X199550061Y-94526687D01*
X199550061Y-94703313D01*
X199515603Y-94876546D01*
X199448011Y-95039728D01*
X199349882Y-95186588D01*
X199224988Y-95311482D01*
X199078128Y-95409611D01*
X198914946Y-95477203D01*
X198741713Y-95511661D01*
X198565087Y-95511661D01*
X198391854Y-95477203D01*
X198228672Y-95409611D01*
X198081812Y-95311482D01*
X197956918Y-95186588D01*
X197858789Y-95039728D01*
X197791197Y-94876546D01*
X197756739Y-94703313D01*
X197756739Y-94526687D01*
X197791197Y-94353454D01*
X197858789Y-94190272D01*
X197956918Y-94043412D01*
X198081812Y-93918518D01*
X198228672Y-93820389D01*
X198391854Y-93752797D01*
X198565087Y-93718339D01*
X198741713Y-93718339D01*
X198914946Y-93752797D01*
G37*
G36*
X201454946Y-93752797D02*
G01*
X201618128Y-93820389D01*
X201764988Y-93918518D01*
X201889882Y-94043412D01*
X201988011Y-94190272D01*
X202055603Y-94353454D01*
X202090061Y-94526687D01*
X202090061Y-94703313D01*
X202055603Y-94876546D01*
X201988011Y-95039728D01*
X201889882Y-95186588D01*
X201764988Y-95311482D01*
X201618128Y-95409611D01*
X201454946Y-95477203D01*
X201281713Y-95511661D01*
X201105087Y-95511661D01*
X200931854Y-95477203D01*
X200768672Y-95409611D01*
X200621812Y-95311482D01*
X200496918Y-95186588D01*
X200398789Y-95039728D01*
X200331197Y-94876546D01*
X200296739Y-94703313D01*
X200296739Y-94526687D01*
X200331197Y-94353454D01*
X200398789Y-94190272D01*
X200496918Y-94043412D01*
X200621812Y-93918518D01*
X200768672Y-93820389D01*
X200931854Y-93752797D01*
X201105087Y-93718339D01*
X201281713Y-93718339D01*
X201454946Y-93752797D01*
G37*
G36*
X203994946Y-93752797D02*
G01*
X204158128Y-93820389D01*
X204304988Y-93918518D01*
X204429882Y-94043412D01*
X204528011Y-94190272D01*
X204595603Y-94353454D01*
X204630061Y-94526687D01*
X204630061Y-94703313D01*
X204595603Y-94876546D01*
X204528011Y-95039728D01*
X204429882Y-95186588D01*
X204304988Y-95311482D01*
X204158128Y-95409611D01*
X203994946Y-95477203D01*
X203821713Y-95511661D01*
X203645087Y-95511661D01*
X203471854Y-95477203D01*
X203308672Y-95409611D01*
X203161812Y-95311482D01*
X203036918Y-95186588D01*
X202938789Y-95039728D01*
X202871197Y-94876546D01*
X202836739Y-94703313D01*
X202836739Y-94526687D01*
X202871197Y-94353454D01*
X202938789Y-94190272D01*
X203036918Y-94043412D01*
X203161812Y-93918518D01*
X203308672Y-93820389D01*
X203471854Y-93752797D01*
X203645087Y-93718339D01*
X203821713Y-93718339D01*
X203994946Y-93752797D01*
G37*
G36*
X206534946Y-93752797D02*
G01*
X206698128Y-93820389D01*
X206844988Y-93918518D01*
X206969882Y-94043412D01*
X207068011Y-94190272D01*
X207135603Y-94353454D01*
X207170061Y-94526687D01*
X207170061Y-94703313D01*
X207135603Y-94876546D01*
X207068011Y-95039728D01*
X206969882Y-95186588D01*
X206844988Y-95311482D01*
X206698128Y-95409611D01*
X206534946Y-95477203D01*
X206361713Y-95511661D01*
X206185087Y-95511661D01*
X206011854Y-95477203D01*
X205848672Y-95409611D01*
X205701812Y-95311482D01*
X205576918Y-95186588D01*
X205478789Y-95039728D01*
X205411197Y-94876546D01*
X205376739Y-94703313D01*
X205376739Y-94526687D01*
X205411197Y-94353454D01*
X205478789Y-94190272D01*
X205576918Y-94043412D01*
X205701812Y-93918518D01*
X205848672Y-93820389D01*
X206011854Y-93752797D01*
X206185087Y-93718339D01*
X206361713Y-93718339D01*
X206534946Y-93752797D01*
G37*
G36*
X209074946Y-93752797D02*
G01*
X209238128Y-93820389D01*
X209384988Y-93918518D01*
X209509882Y-94043412D01*
X209608011Y-94190272D01*
X209675603Y-94353454D01*
X209710061Y-94526687D01*
X209710061Y-94703313D01*
X209675603Y-94876546D01*
X209608011Y-95039728D01*
X209509882Y-95186588D01*
X209384988Y-95311482D01*
X209238128Y-95409611D01*
X209074946Y-95477203D01*
X208901713Y-95511661D01*
X208725087Y-95511661D01*
X208551854Y-95477203D01*
X208388672Y-95409611D01*
X208241812Y-95311482D01*
X208116918Y-95186588D01*
X208018789Y-95039728D01*
X207951197Y-94876546D01*
X207916739Y-94703313D01*
X207916739Y-94526687D01*
X207951197Y-94353454D01*
X208018789Y-94190272D01*
X208116918Y-94043412D01*
X208241812Y-93918518D01*
X208388672Y-93820389D01*
X208551854Y-93752797D01*
X208725087Y-93718339D01*
X208901713Y-93718339D01*
X209074946Y-93752797D01*
G37*
G36*
X191294946Y-91212797D02*
G01*
X191458128Y-91280389D01*
X191604988Y-91378518D01*
X191729882Y-91503412D01*
X191828011Y-91650272D01*
X191895603Y-91813454D01*
X191930061Y-91986687D01*
X191930061Y-92163313D01*
X191895603Y-92336546D01*
X191828011Y-92499728D01*
X191729882Y-92646588D01*
X191604988Y-92771482D01*
X191458128Y-92869611D01*
X191294946Y-92937203D01*
X191121713Y-92971661D01*
X190945087Y-92971661D01*
X190771854Y-92937203D01*
X190608672Y-92869611D01*
X190461812Y-92771482D01*
X190336918Y-92646588D01*
X190238789Y-92499728D01*
X190171197Y-92336546D01*
X190136739Y-92163313D01*
X190136739Y-91986687D01*
X190171197Y-91813454D01*
X190238789Y-91650272D01*
X190336918Y-91503412D01*
X190461812Y-91378518D01*
X190608672Y-91280389D01*
X190771854Y-91212797D01*
X190945087Y-91178339D01*
X191121713Y-91178339D01*
X191294946Y-91212797D01*
G37*
G36*
X193834946Y-91212797D02*
G01*
X193998128Y-91280389D01*
X194144988Y-91378518D01*
X194269882Y-91503412D01*
X194368011Y-91650272D01*
X194435603Y-91813454D01*
X194470061Y-91986687D01*
X194470061Y-92163313D01*
X194435603Y-92336546D01*
X194368011Y-92499728D01*
X194269882Y-92646588D01*
X194144988Y-92771482D01*
X193998128Y-92869611D01*
X193834946Y-92937203D01*
X193661713Y-92971661D01*
X193485087Y-92971661D01*
X193311854Y-92937203D01*
X193148672Y-92869611D01*
X193001812Y-92771482D01*
X192876918Y-92646588D01*
X192778789Y-92499728D01*
X192711197Y-92336546D01*
X192676739Y-92163313D01*
X192676739Y-91986687D01*
X192711197Y-91813454D01*
X192778789Y-91650272D01*
X192876918Y-91503412D01*
X193001812Y-91378518D01*
X193148672Y-91280389D01*
X193311854Y-91212797D01*
X193485087Y-91178339D01*
X193661713Y-91178339D01*
X193834946Y-91212797D01*
G37*
G36*
X196374946Y-91212797D02*
G01*
X196538128Y-91280389D01*
X196684988Y-91378518D01*
X196809882Y-91503412D01*
X196908011Y-91650272D01*
X196975603Y-91813454D01*
X197010061Y-91986687D01*
X197010061Y-92163313D01*
X196975603Y-92336546D01*
X196908011Y-92499728D01*
X196809882Y-92646588D01*
X196684988Y-92771482D01*
X196538128Y-92869611D01*
X196374946Y-92937203D01*
X196201713Y-92971661D01*
X196025087Y-92971661D01*
X195851854Y-92937203D01*
X195688672Y-92869611D01*
X195541812Y-92771482D01*
X195416918Y-92646588D01*
X195318789Y-92499728D01*
X195251197Y-92336546D01*
X195216739Y-92163313D01*
X195216739Y-91986687D01*
X195251197Y-91813454D01*
X195318789Y-91650272D01*
X195416918Y-91503412D01*
X195541812Y-91378518D01*
X195688672Y-91280389D01*
X195851854Y-91212797D01*
X196025087Y-91178339D01*
X196201713Y-91178339D01*
X196374946Y-91212797D01*
G37*
G36*
X198914946Y-91212797D02*
G01*
X199078128Y-91280389D01*
X199224988Y-91378518D01*
X199349882Y-91503412D01*
X199448011Y-91650272D01*
X199515603Y-91813454D01*
X199550061Y-91986687D01*
X199550061Y-92163313D01*
X199515603Y-92336546D01*
X199448011Y-92499728D01*
X199349882Y-92646588D01*
X199224988Y-92771482D01*
X199078128Y-92869611D01*
X198914946Y-92937203D01*
X198741713Y-92971661D01*
X198565087Y-92971661D01*
X198391854Y-92937203D01*
X198228672Y-92869611D01*
X198081812Y-92771482D01*
X197956918Y-92646588D01*
X197858789Y-92499728D01*
X197791197Y-92336546D01*
X197756739Y-92163313D01*
X197756739Y-91986687D01*
X197791197Y-91813454D01*
X197858789Y-91650272D01*
X197956918Y-91503412D01*
X198081812Y-91378518D01*
X198228672Y-91280389D01*
X198391854Y-91212797D01*
X198565087Y-91178339D01*
X198741713Y-91178339D01*
X198914946Y-91212797D01*
G37*
G36*
X201454946Y-91212797D02*
G01*
X201618128Y-91280389D01*
X201764988Y-91378518D01*
X201889882Y-91503412D01*
X201988011Y-91650272D01*
X202055603Y-91813454D01*
X202090061Y-91986687D01*
X202090061Y-92163313D01*
X202055603Y-92336546D01*
X201988011Y-92499728D01*
X201889882Y-92646588D01*
X201764988Y-92771482D01*
X201618128Y-92869611D01*
X201454946Y-92937203D01*
X201281713Y-92971661D01*
X201105087Y-92971661D01*
X200931854Y-92937203D01*
X200768672Y-92869611D01*
X200621812Y-92771482D01*
X200496918Y-92646588D01*
X200398789Y-92499728D01*
X200331197Y-92336546D01*
X200296739Y-92163313D01*
X200296739Y-91986687D01*
X200331197Y-91813454D01*
X200398789Y-91650272D01*
X200496918Y-91503412D01*
X200621812Y-91378518D01*
X200768672Y-91280389D01*
X200931854Y-91212797D01*
X201105087Y-91178339D01*
X201281713Y-91178339D01*
X201454946Y-91212797D01*
G37*
G36*
X203994946Y-91212797D02*
G01*
X204158128Y-91280389D01*
X204304988Y-91378518D01*
X204429882Y-91503412D01*
X204528011Y-91650272D01*
X204595603Y-91813454D01*
X204630061Y-91986687D01*
X204630061Y-92163313D01*
X204595603Y-92336546D01*
X204528011Y-92499728D01*
X204429882Y-92646588D01*
X204304988Y-92771482D01*
X204158128Y-92869611D01*
X203994946Y-92937203D01*
X203821713Y-92971661D01*
X203645087Y-92971661D01*
X203471854Y-92937203D01*
X203308672Y-92869611D01*
X203161812Y-92771482D01*
X203036918Y-92646588D01*
X202938789Y-92499728D01*
X202871197Y-92336546D01*
X202836739Y-92163313D01*
X202836739Y-91986687D01*
X202871197Y-91813454D01*
X202938789Y-91650272D01*
X203036918Y-91503412D01*
X203161812Y-91378518D01*
X203308672Y-91280389D01*
X203471854Y-91212797D01*
X203645087Y-91178339D01*
X203821713Y-91178339D01*
X203994946Y-91212797D01*
G37*
G36*
X206534946Y-91212797D02*
G01*
X206698128Y-91280389D01*
X206844988Y-91378518D01*
X206969882Y-91503412D01*
X207068011Y-91650272D01*
X207135603Y-91813454D01*
X207170061Y-91986687D01*
X207170061Y-92163313D01*
X207135603Y-92336546D01*
X207068011Y-92499728D01*
X206969882Y-92646588D01*
X206844988Y-92771482D01*
X206698128Y-92869611D01*
X206534946Y-92937203D01*
X206361713Y-92971661D01*
X206185087Y-92971661D01*
X206011854Y-92937203D01*
X205848672Y-92869611D01*
X205701812Y-92771482D01*
X205576918Y-92646588D01*
X205478789Y-92499728D01*
X205411197Y-92336546D01*
X205376739Y-92163313D01*
X205376739Y-91986687D01*
X205411197Y-91813454D01*
X205478789Y-91650272D01*
X205576918Y-91503412D01*
X205701812Y-91378518D01*
X205848672Y-91280389D01*
X206011854Y-91212797D01*
X206185087Y-91178339D01*
X206361713Y-91178339D01*
X206534946Y-91212797D01*
G37*
G36*
X209074946Y-91212797D02*
G01*
X209238128Y-91280389D01*
X209384988Y-91378518D01*
X209509882Y-91503412D01*
X209608011Y-91650272D01*
X209675603Y-91813454D01*
X209710061Y-91986687D01*
X209710061Y-92163313D01*
X209675603Y-92336546D01*
X209608011Y-92499728D01*
X209509882Y-92646588D01*
X209384988Y-92771482D01*
X209238128Y-92869611D01*
X209074946Y-92937203D01*
X208901713Y-92971661D01*
X208725087Y-92971661D01*
X208551854Y-92937203D01*
X208388672Y-92869611D01*
X208241812Y-92771482D01*
X208116918Y-92646588D01*
X208018789Y-92499728D01*
X207951197Y-92336546D01*
X207916739Y-92163313D01*
X207916739Y-91986687D01*
X207951197Y-91813454D01*
X208018789Y-91650272D01*
X208116918Y-91503412D01*
X208241812Y-91378518D01*
X208388672Y-91280389D01*
X208551854Y-91212797D01*
X208725087Y-91178339D01*
X208901713Y-91178339D01*
X209074946Y-91212797D01*
G37*
M02*
