M48
; DRILL file {KiCad (5.1.0-0)} date Friday, May 10, 2019 at 01:21:31 AM
; FORMAT={-:-/ absolute / inch / decimal}
; #@! TF.CreationDate,2019-05-10T01:21:31-05:00
; #@! TF.GenerationSoftware,Kicad,Pcbnew,(5.1.0-0)
; #@! TF.FileFunction,Plated,1,2,PTH
FMAT,2
INCH
T1C0.0100
T2C0.0150
T3C0.0197
T4C0.0248
T5C0.0394
T6C0.1260
%
G90
G05
T1
X3.866Y-3.864
X4.101Y-3.829
X4.276Y-3.834
X4.296Y-3.784
X4.306Y-4.049
X4.401Y-3.634
X4.426Y-3.559
X4.431Y-3.449
X4.446Y-3.509
X4.631Y-3.199
X4.701Y-3.534
X4.726Y-3.399
X4.731Y-3.534
X4.756Y-3.399
X4.781Y-3.474
X4.786Y-3.419
X4.836Y-3.444
X4.851Y-3.819
X4.861Y-3.579
X4.886Y-3.554
X4.911Y-3.624
X4.936Y-3.524
X4.941Y-3.624
X4.961Y-3.509
X4.966Y-3.599
X4.986Y-3.494
X5.006Y-3.574
X5.036Y-3.524
X5.056Y-4.149
X5.056Y-4.349
X5.081Y-3.659
X5.116Y-3.769
X5.196Y-3.619
X5.206Y-3.534
X5.206Y-3.589
X5.226Y-3.449
X5.226Y-3.499
X5.251Y-3.474
X5.281Y-3.449
X5.286Y-3.649
X5.331Y-3.074
X5.436Y-3.2871
X5.436Y-3.3609
X5.436Y-3.534
X5.536Y-3.809
X5.541Y-3.249
X5.656Y-3.224
X5.656Y-3.834
X5.681Y-3.859
X5.706Y-3.619
X5.706Y-3.654
X5.731Y-4.174
X5.756Y-3.749
X5.771Y-3.939
X5.781Y-3.819
X5.806Y-3.714
X5.856Y-3.174
X5.856Y-3.664
X5.856Y-3.799
X5.881Y-4.049
X6.031Y-3.664
X6.041Y-3.594
X6.056Y-3.714
X6.076Y-3.624
X6.106Y-3.714
X6.211Y-4.474
X6.221Y-3.624
X6.236Y-4.509
X6.256Y-4.334
X6.256Y-4.764
X6.311Y-3.194
X6.311Y-3.224
X6.311Y-3.254
X6.311Y-3.284
X6.311Y-3.314
X6.311Y-3.344
X6.311Y-3.374
X6.311Y-3.404
X6.311Y-3.434
X6.311Y-3.464
X6.311Y-3.499
X6.331Y-3.519
X6.356Y-3.074
X6.376Y-4.2165
X6.441Y-3.599
X6.466Y-3.574
X6.486Y-4.339
X6.506Y-4.594
X6.531Y-4.234
X6.531Y-4.269
X6.531Y-4.579
X6.631Y-4.134
X6.641Y-3.584
X6.666Y-3.559
X6.691Y-3.624
X6.706Y-4.409
X6.716Y-3.524
X6.721Y-3.624
X6.741Y-3.509
X6.746Y-3.599
X6.766Y-3.494
X6.781Y-3.549
X6.781Y-4.024
X6.8179Y-3.819
X6.826Y-3.574
X6.871Y-3.994
X6.891Y-3.514
X6.916Y-3.574
X6.941Y-3.529
X6.966Y-3.649
X6.991Y-3.624
X7.016Y-3.599
X7.021Y-3.649
X7.041Y-3.504
X7.091Y-3.614
X7.091Y-3.649
X7.216Y-3.699
X7.241Y-3.674
X7.361Y-3.994
X7.406Y-4.024
X7.466Y-3.574
X7.491Y-3.549
X7.516Y-3.524
X7.541Y-3.499
X7.586Y-3.599
X7.591Y-3.524
X7.616Y-3.544
X7.736Y-3.809
T2
X5.056Y-4.6041
T3
X2.9805Y-3.175
X3.0082Y-3.1082
X3.0082Y-3.2418
X3.075Y-3.0805
X3.075Y-3.2695
X3.1418Y-3.1082
X3.1418Y-3.2418
X3.1695Y-3.175
X8.5405Y-3.175
X8.5682Y-3.1082
X2.9805Y-4.6
X3.0082Y-4.5332
X8.5682Y-3.2418
X8.635Y-3.0805
X8.635Y-3.2695
X8.7018Y-3.1082
X8.7018Y-3.2418
X8.7295Y-3.175
X8.5405Y-4.6
X8.5682Y-4.5332
X8.5682Y-4.6668
X8.635Y-4.5055
X8.7018Y-4.5332
X8.7018Y-4.6668
X8.7295Y-4.6
X3.0082Y-4.6668
X8.635Y-4.6945
X3.075Y-4.5055
X3.075Y-4.6945
X3.1418Y-4.5332
X3.1418Y-4.6668
X3.1695Y-4.6
T4
X5.3943Y-4.03
X5.4028Y-4.1002
X5.4194Y-3.9639
X5.443Y-4.1584
X5.4724Y-3.917
X5.5057Y-4.1913
X5.541Y-3.9
X5.5763Y-4.1913
X5.6096Y-3.917
X5.639Y-4.1584
X5.6626Y-3.9639
X5.6792Y-4.1002
X5.6877Y-4.03
X7.5597Y-4.03
X7.5682Y-4.1002
X7.5848Y-3.9639
X7.6084Y-4.1584
X7.6378Y-3.917
X7.6711Y-4.1913
X7.7064Y-3.9
X7.7417Y-4.1913
X7.775Y-3.917
X7.8044Y-4.1584
X7.828Y-3.9639
X7.8446Y-4.1002
X7.8531Y-4.03
X3.8589Y-4.03
X3.8674Y-4.1002
X3.884Y-3.9639
X3.9076Y-4.1584
X3.937Y-3.917
X3.9703Y-4.1913
X4.0056Y-3.9
X4.0409Y-4.1913
X4.0742Y-3.917
X4.1036Y-4.1584
X4.1272Y-3.9639
X4.1438Y-4.1002
X4.1523Y-4.03
X4.4495Y-4.03
X4.458Y-4.1002
X4.4746Y-3.9639
X4.4982Y-4.1584
X4.5276Y-3.917
X4.5609Y-4.1913
X4.5962Y-3.9
X4.6315Y-4.1913
X4.6648Y-3.917
X4.6942Y-4.1584
X4.7178Y-3.9639
X4.7344Y-4.1002
X4.7429Y-4.03
X6.0243Y-4.03
X6.0328Y-4.1002
X6.0494Y-3.9639
X6.073Y-4.1584
X6.1024Y-3.917
X6.1357Y-4.1913
X6.171Y-3.9
X6.2063Y-4.1913
X6.2396Y-3.917
X6.269Y-4.1584
X6.2926Y-3.9639
X6.3092Y-4.1002
X6.3177Y-4.03
X6.9691Y-4.03
X6.9776Y-4.1002
X6.9942Y-3.9639
X7.0178Y-4.1584
X7.0472Y-3.917
X7.0805Y-4.1913
X7.1158Y-3.9
X7.1511Y-4.1913
X7.1844Y-3.917
X7.2138Y-4.1584
X7.2374Y-3.9639
X7.254Y-4.1002
X7.2625Y-4.03
T5
X5.008Y-3.9691
X5.605Y-4.5
X5.705Y-4.5
X5.705Y-4.6
X5.805Y-4.5
X5.805Y-4.6
X5.905Y-4.5
X5.905Y-4.6
X6.005Y-4.5
X6.005Y-4.6
X6.105Y-4.5
X6.105Y-4.6
X5.108Y-3.9691
X8.606Y-3.399
X8.606Y-3.499
X8.606Y-3.599
X8.606Y-3.699
X8.606Y-3.799
X8.606Y-3.899
X8.706Y-3.399
X8.706Y-3.499
X8.706Y-3.599
X8.706Y-3.699
X8.706Y-3.799
X8.706Y-3.899
X6.5828Y-3.9691
X6.6828Y-3.9691
X5.008Y-4.0772
X5.108Y-4.0772
X6.5828Y-4.0772
X6.6828Y-4.0772
X5.605Y-4.6
T6
X8.635Y-3.175
X8.635Y-4.6
X3.075Y-3.175
X3.075Y-4.6
T0
M30
