G04 #@! TF.GenerationSoftware,KiCad,Pcbnew,(5.1.0-0)*
G04 #@! TF.CreationDate,2019-05-10T01:21:28-05:00*
G04 #@! TF.ProjectId,IN-16,494e2d31-362e-46b6-9963-61645f706362,rev?*
G04 #@! TF.SameCoordinates,Original*
G04 #@! TF.FileFunction,Copper,L1,Top*
G04 #@! TF.FilePolarity,Positive*
%FSLAX46Y46*%
G04 Gerber Fmt 4.6, Leading zero omitted, Abs format (unit mm)*
G04 Created by KiCad (PCBNEW (5.1.0-0)) date 2019-05-10 01:21:28*
%MOMM*%
%LPD*%
G04 APERTURE LIST*
%ADD10C,1.137920*%
%ADD11O,1.700000X1.700000*%
%ADD12R,1.700000X1.700000*%
%ADD13C,0.800000*%
%ADD14C,6.400000*%
%ADD15C,0.508000*%
%ADD16C,0.635000*%
%ADD17C,0.254000*%
%ADD18C,0.635000*%
%ADD19C,0.304800*%
%ADD20C,0.203200*%
G04 APERTURE END LIST*
D10*
X98232120Y-104145560D03*
X105252680Y-104145560D03*
X101742400Y-99060480D03*
X104831040Y-100683540D03*
X105468580Y-102362480D03*
X98653760Y-100683540D03*
X102639020Y-106459500D03*
X100845780Y-106459500D03*
X99253200Y-105623840D03*
X98016220Y-102362480D03*
X104231600Y-105623840D03*
X99999960Y-99492280D03*
X103484840Y-99492280D03*
X113232120Y-104145560D03*
X120252680Y-104145560D03*
X116742400Y-99060480D03*
X119831040Y-100683540D03*
X120468580Y-102362480D03*
X113653760Y-100683540D03*
X117639020Y-106459500D03*
X115845780Y-106459500D03*
X114253200Y-105623840D03*
X113016220Y-102362480D03*
X119231600Y-105623840D03*
X114999960Y-99492280D03*
X118484840Y-99492280D03*
X137232120Y-104145560D03*
X144252680Y-104145560D03*
X140742400Y-99060480D03*
X143831040Y-100683540D03*
X144468580Y-102362480D03*
X137653760Y-100683540D03*
X141639020Y-106459500D03*
X139845780Y-106459500D03*
X138253200Y-105623840D03*
X137016220Y-102362480D03*
X143231600Y-105623840D03*
X138999960Y-99492280D03*
X142484840Y-99492280D03*
X153232120Y-104145560D03*
X160252680Y-104145560D03*
X156742400Y-99060480D03*
X159831040Y-100683540D03*
X160468580Y-102362480D03*
X153653760Y-100683540D03*
X157639020Y-106459500D03*
X155845780Y-106459500D03*
X154253200Y-105623840D03*
X153016220Y-102362480D03*
X159231600Y-105623840D03*
X154999960Y-99492280D03*
X158484840Y-99492280D03*
X177232120Y-104145560D03*
X184252680Y-104145560D03*
X180742400Y-99060480D03*
X183831040Y-100683540D03*
X184468580Y-102362480D03*
X177653760Y-100683540D03*
X181639020Y-106459500D03*
X179845780Y-106459500D03*
X178253200Y-105623840D03*
X177016220Y-102362480D03*
X183231600Y-105623840D03*
X178999960Y-99492280D03*
X182484840Y-99492280D03*
X192232120Y-104145560D03*
X199252680Y-104145560D03*
X195742400Y-99060480D03*
X198831040Y-100683540D03*
X199468580Y-102362480D03*
X192653760Y-100683540D03*
X196639020Y-106459500D03*
X194845780Y-106459500D03*
X193253200Y-105623840D03*
X192016220Y-102362480D03*
X198231600Y-105623840D03*
X193999960Y-99492280D03*
X197484840Y-99492280D03*
D11*
X221132400Y-86334600D03*
X218592400Y-86334600D03*
X221132400Y-88874600D03*
X218592400Y-88874600D03*
X221132400Y-91414600D03*
X218592400Y-91414600D03*
X221132400Y-93954600D03*
X218592400Y-93954600D03*
X221132400Y-96494600D03*
X218592400Y-96494600D03*
X221132400Y-99034600D03*
D12*
X218592400Y-99034600D03*
D11*
X155067000Y-114300000D03*
X155067000Y-116840000D03*
X152527000Y-114300000D03*
X152527000Y-116840000D03*
X149987000Y-114300000D03*
X149987000Y-116840000D03*
X147447000Y-114300000D03*
X147447000Y-116840000D03*
X144907000Y-114300000D03*
X144907000Y-116840000D03*
X142367000Y-114300000D03*
D12*
X142367000Y-116840000D03*
D13*
X79802056Y-115142944D03*
X78105000Y-114440000D03*
X76407944Y-115142944D03*
X75705000Y-116840000D03*
X76407944Y-118537056D03*
X78105000Y-119240000D03*
X79802056Y-118537056D03*
X80505000Y-116840000D03*
D14*
X78105000Y-116840000D03*
D13*
X221026056Y-115142944D03*
X219329000Y-114440000D03*
X217631944Y-115142944D03*
X216929000Y-116840000D03*
X217631944Y-118537056D03*
X219329000Y-119240000D03*
X221026056Y-118537056D03*
X221729000Y-116840000D03*
D14*
X219329000Y-116840000D03*
D13*
X79802056Y-78947944D03*
X78105000Y-78245000D03*
X76407944Y-78947944D03*
X75705000Y-80645000D03*
X76407944Y-82342056D03*
X78105000Y-83045000D03*
X79802056Y-82342056D03*
X80505000Y-80645000D03*
D14*
X78105000Y-80645000D03*
D13*
X221026056Y-78947944D03*
X219329000Y-78245000D03*
X217631944Y-78947944D03*
X216929000Y-80645000D03*
X217631944Y-82342056D03*
X219329000Y-83045000D03*
X221026056Y-82342056D03*
X221729000Y-80645000D03*
D14*
X219329000Y-80645000D03*
D11*
X167202400Y-103560000D03*
D12*
X169742400Y-103560000D03*
D11*
X127202400Y-103560000D03*
D12*
X129742400Y-103560000D03*
D11*
X167202400Y-100814600D03*
D12*
X169742400Y-100814600D03*
D11*
X127202400Y-100814600D03*
D12*
X129742400Y-100814600D03*
D15*
X98196400Y-98145600D03*
X121564400Y-86842600D03*
X121437400Y-88239600D03*
X122834400Y-87477600D03*
X127152400Y-90779600D03*
X126136400Y-91414600D03*
X127914400Y-89509600D03*
X125501400Y-92049600D03*
X126644400Y-88747600D03*
X126009400Y-89128600D03*
X125374400Y-89509600D03*
X124739400Y-92049600D03*
X124104400Y-90271600D03*
X123469400Y-90906600D03*
X134137400Y-87604600D03*
X133375400Y-88239600D03*
X132740400Y-87604600D03*
X132740400Y-88874600D03*
X132232400Y-89763600D03*
X132232400Y-91160600D03*
X131978400Y-91922600D03*
X134264400Y-92684600D03*
X163601400Y-91414600D03*
X164236400Y-90779600D03*
X173380400Y-90779600D03*
X171348400Y-91414600D03*
X172237400Y-90144600D03*
X170713400Y-92049600D03*
X171856400Y-88747600D03*
X171221400Y-89128600D03*
X170586400Y-89509600D03*
X169951400Y-92049600D03*
X169316400Y-90398600D03*
X168681400Y-91033600D03*
X175031400Y-89255600D03*
X175666400Y-90779600D03*
X176301400Y-89636600D03*
X176936400Y-92684600D03*
X177571400Y-92049600D03*
X178206400Y-91414600D03*
X178841400Y-89001600D03*
X178333400Y-92684600D03*
X180111400Y-91795600D03*
X180111400Y-92684600D03*
X192684400Y-91414600D03*
X189636400Y-90779600D03*
X190271400Y-90144600D03*
X190906400Y-89509600D03*
X191541400Y-88874600D03*
X192811400Y-89509600D03*
X193446400Y-90017600D03*
X111785400Y-92303600D03*
X138074400Y-83492100D03*
X158902400Y-110083600D03*
X170332400Y-111988600D03*
X138074400Y-85367100D03*
X158902400Y-121005600D03*
X173174900Y-97002600D03*
X109372400Y-102844600D03*
X112547400Y-87604600D03*
X128422400Y-105384600D03*
X128422400Y-110464600D03*
X172237400Y-102209600D03*
X188112400Y-102209600D03*
X161442400Y-78079600D03*
X135407400Y-78079600D03*
X117627400Y-81254600D03*
X148742400Y-80619600D03*
X123215400Y-97002600D03*
X138074400Y-89763600D03*
X145567400Y-106019600D03*
X149377400Y-102844600D03*
X146837400Y-97002600D03*
X148742400Y-96494600D03*
X158013400Y-92049600D03*
D16*
X128422400Y-116944600D03*
D15*
X168427400Y-105003600D03*
X161950400Y-107098855D03*
X140742400Y-82524600D03*
X112420400Y-90398600D03*
X160807400Y-89382600D03*
X143662400Y-81889600D03*
X112928400Y-89128600D03*
X160299400Y-88874600D03*
X164744400Y-110210600D03*
X165252400Y-116687600D03*
X165887400Y-108432600D03*
X165887400Y-116306600D03*
X129946400Y-95732600D03*
X120802400Y-86334600D03*
X120040400Y-86334600D03*
X120167400Y-89763600D03*
X119405400Y-89763600D03*
X157759400Y-113639600D03*
X158394400Y-114528600D03*
X196494400Y-96748600D03*
X129057400Y-92938600D03*
X165887400Y-107543600D03*
X104165400Y-97256600D03*
X183286400Y-93954600D03*
X144932400Y-91922600D03*
X174523400Y-101447600D03*
X144932400Y-92811600D03*
X144297400Y-98018600D03*
X146202400Y-95224600D03*
X140614400Y-96748600D03*
X147472400Y-94334600D03*
X109118400Y-96113600D03*
X148742400Y-93065600D03*
X183921400Y-93319600D03*
X153441400Y-91287600D03*
X186969400Y-101447600D03*
X154330400Y-92049600D03*
X146583400Y-100050600D03*
X153822400Y-94334600D03*
X143662400Y-97383600D03*
X155092400Y-94334600D03*
X108610400Y-97383600D03*
X153187400Y-93065600D03*
X160299400Y-81127600D03*
X160299400Y-81889600D03*
X160299400Y-82651600D03*
X160299400Y-83413600D03*
X160299400Y-84175600D03*
X160299400Y-84937600D03*
X160299400Y-85699600D03*
X160299400Y-86461600D03*
X160299400Y-87223600D03*
X160299400Y-87985600D03*
D17*
X104231600Y-106428470D02*
X104231600Y-105623840D01*
X99720400Y-107543600D02*
X103116470Y-107543600D01*
X103116470Y-107543600D02*
X104231600Y-106428470D01*
X96545400Y-104368600D02*
X99720400Y-107543600D01*
X96545400Y-99796600D02*
X96545400Y-104368600D01*
X98196400Y-98145600D02*
X96545400Y-99796600D01*
X118770400Y-88112600D02*
X119913400Y-88112600D01*
X119913400Y-88112600D02*
X121183400Y-86842600D01*
X108864400Y-98018600D02*
X118770400Y-88112600D01*
X100101400Y-98018600D02*
X108864400Y-98018600D01*
X98653760Y-99466240D02*
X100101400Y-98018600D01*
X98653760Y-100683540D02*
X98653760Y-99466240D01*
X121183400Y-86842600D02*
X121564400Y-86842600D01*
X106037539Y-101793521D02*
X106613479Y-101793521D01*
X105468580Y-102362480D02*
X106037539Y-101793521D01*
X106613479Y-101793521D02*
X119278400Y-89128600D01*
X119278400Y-89128600D02*
X120548400Y-89128600D01*
X121437400Y-88239600D02*
X120548400Y-89128600D01*
X104831040Y-100683540D02*
X106961460Y-100683540D01*
X106961460Y-100683540D02*
X119024400Y-88620600D01*
X119024400Y-88620600D02*
X120167400Y-88620600D01*
X120167400Y-88620600D02*
X121310400Y-87477600D01*
X121310400Y-87477600D02*
X122834400Y-87477600D01*
X119831040Y-100683540D02*
X120548400Y-99966180D01*
X120548400Y-99966180D02*
X120548400Y-94716600D01*
X120548400Y-94716600D02*
X124485400Y-90779600D01*
X127152400Y-90779600D02*
X124485400Y-90779600D01*
X120468580Y-102362480D02*
X121037539Y-101793521D01*
X121037539Y-101793521D02*
X121037539Y-94989461D01*
X121037539Y-94989461D02*
X124612400Y-91414600D01*
X124612400Y-91414600D02*
X126136400Y-91414600D01*
X113653760Y-100683540D02*
X113653760Y-99325240D01*
X113653760Y-99325240D02*
X122326400Y-90652600D01*
X122326400Y-90652600D02*
X122326400Y-90398600D01*
X122326400Y-90398600D02*
X123088400Y-89636600D01*
X123088400Y-89636600D02*
X124358400Y-89636600D01*
X124358400Y-89636600D02*
X124866400Y-90144600D01*
X124866400Y-90144600D02*
X125882400Y-90144600D01*
X125882400Y-90144600D02*
X126517400Y-89509600D01*
X126517400Y-89509600D02*
X127914400Y-89509600D01*
X122072400Y-95478600D02*
X125501400Y-92049600D01*
X122072400Y-104495600D02*
X122072400Y-95478600D01*
X118207979Y-107028459D02*
X119539541Y-107028459D01*
X119539541Y-107028459D02*
X122072400Y-104495600D01*
X117639020Y-106459500D02*
X118207979Y-107028459D01*
X125501400Y-92049600D02*
X125501400Y-92049600D01*
X115041150Y-106459500D02*
X114846050Y-106654600D01*
X115845780Y-106459500D02*
X115041150Y-106459500D01*
X114846050Y-106654600D02*
X113563400Y-106654600D01*
X113563400Y-106654600D02*
X111531400Y-104622600D01*
X111531400Y-104622600D02*
X111531400Y-99161600D01*
X111531400Y-99161600D02*
X120802400Y-89890600D01*
X120802400Y-89890600D02*
X120802400Y-89636600D01*
X120802400Y-89636600D02*
X122326400Y-88112600D01*
X126009400Y-88112600D02*
X126644400Y-88747600D01*
X122326400Y-88112600D02*
X126009400Y-88112600D01*
X114253200Y-105623840D02*
X113294640Y-105623840D01*
X113294640Y-105623840D02*
X112039400Y-104368600D01*
X112039400Y-104368600D02*
X112039400Y-99415600D01*
X112039400Y-99415600D02*
X121310400Y-90144600D01*
X121310400Y-90144600D02*
X121310400Y-89890600D01*
X121310400Y-89890600D02*
X122580400Y-88620600D01*
X125501400Y-88620600D02*
X126009400Y-89128600D01*
X122580400Y-88620600D02*
X125501400Y-88620600D01*
X113016220Y-101557850D02*
X112547400Y-101089030D01*
X113016220Y-102362480D02*
X113016220Y-101557850D01*
X112547400Y-101089030D02*
X112547400Y-99669600D01*
X112547400Y-99669600D02*
X121818400Y-90398600D01*
X121818400Y-90398600D02*
X121818400Y-90144600D01*
X121818400Y-90144600D02*
X122834400Y-89128600D01*
X122834400Y-89128600D02*
X124993400Y-89128600D01*
X124993400Y-89128600D02*
X125374400Y-89509600D01*
X121564400Y-95224600D02*
X124739400Y-92049600D01*
X121564400Y-104241600D02*
X121564400Y-95224600D01*
X120182160Y-105623840D02*
X121564400Y-104241600D01*
X119231600Y-105623840D02*
X120182160Y-105623840D01*
X123215400Y-90271600D02*
X124104400Y-90271600D01*
X115568919Y-98923321D02*
X115568919Y-98172081D01*
X122834400Y-90652600D02*
X123215400Y-90271600D01*
X122834400Y-90906600D02*
X122834400Y-90652600D01*
X115568919Y-98172081D02*
X122834400Y-90906600D01*
X114999960Y-99492280D02*
X115568919Y-98923321D01*
X118484840Y-99492280D02*
X120040400Y-97936720D01*
X120040400Y-97936720D02*
X120040400Y-94462600D01*
X123469400Y-91033600D02*
X123469400Y-90906600D01*
X120040400Y-94462600D02*
X123469400Y-91033600D01*
X134645400Y-91541600D02*
X134645400Y-88900000D01*
X141815790Y-98018600D02*
X141122400Y-98018600D01*
X141122400Y-98018600D02*
X134645400Y-91541600D01*
X142484840Y-98687650D02*
X141815790Y-98018600D01*
X142484840Y-99492280D02*
X142484840Y-98687650D01*
X134645400Y-88112600D02*
X134137400Y-87604600D01*
X134645400Y-88900000D02*
X134645400Y-88112600D01*
X134137400Y-91795600D02*
X134137400Y-90170000D01*
X138201400Y-95859600D02*
X134137400Y-91795600D01*
X138201400Y-98693720D02*
X138201400Y-95859600D01*
X138999960Y-99492280D02*
X138201400Y-98693720D01*
X134137400Y-89001600D02*
X133375400Y-88239600D01*
X134137400Y-90170000D02*
X134137400Y-89001600D01*
X143231600Y-106428470D02*
X141608470Y-108051600D01*
X143231600Y-105623840D02*
X143231600Y-106428470D01*
X141608470Y-108051600D02*
X137439400Y-108051600D01*
X137439400Y-108051600D02*
X134518400Y-105130600D01*
X134518400Y-105130600D02*
X134518400Y-96748600D01*
X134518400Y-96748600D02*
X131343400Y-93573600D01*
X131343400Y-93573600D02*
X131343400Y-89001600D01*
X132740400Y-87604600D02*
X131343400Y-89001600D01*
X133603995Y-89738195D02*
X132740400Y-88874600D01*
X133603995Y-92786195D02*
X133603995Y-89738195D01*
X136550400Y-101092030D02*
X136550400Y-95732600D01*
X137016220Y-102362480D02*
X137016220Y-101557850D01*
X137016220Y-101557850D02*
X136550400Y-101092030D01*
X133603995Y-92786195D02*
X136550400Y-95732600D01*
X138253200Y-105623840D02*
X137297640Y-105623840D01*
X137297640Y-105623840D02*
X136042400Y-104368600D01*
X136042400Y-104368600D02*
X136042400Y-95986600D01*
X136042400Y-95986600D02*
X133121400Y-93065600D01*
X133121400Y-90652600D02*
X132232400Y-89763600D01*
X133121400Y-93065600D02*
X133121400Y-90652600D01*
X139276821Y-107028459D02*
X137940259Y-107028459D01*
X139845780Y-106459500D02*
X139276821Y-107028459D01*
X137940259Y-107028459D02*
X135534400Y-104622600D01*
X135534400Y-104622600D02*
X135534400Y-96240600D01*
X135534400Y-96240600D02*
X132613400Y-93319600D01*
X132613400Y-91541600D02*
X132232400Y-91160600D01*
X132613400Y-93319600D02*
X132613400Y-91541600D01*
X140554920Y-107543600D02*
X141639020Y-106459500D01*
X135026400Y-96494600D02*
X135026400Y-104876600D01*
X131978400Y-93446600D02*
X135026400Y-96494600D01*
X137693400Y-107543600D02*
X140554920Y-107543600D01*
X135026400Y-104876600D02*
X137693400Y-107543600D01*
X131978400Y-91922600D02*
X131978400Y-93446600D01*
X137653760Y-96073960D02*
X134264400Y-92684600D01*
X137653760Y-100683540D02*
X137653760Y-96073960D01*
X154457400Y-95478600D02*
X159664400Y-95478600D01*
X163601400Y-91541600D02*
X163601400Y-91414600D01*
X159664400Y-95478600D02*
X163601400Y-91541600D01*
X144468580Y-102362480D02*
X145637460Y-101193600D01*
X145637460Y-101193600D02*
X148742400Y-101193600D01*
X148742400Y-101193600D02*
X154457400Y-95478600D01*
X143831040Y-100683540D02*
X148490460Y-100683540D01*
X148490460Y-100683540D02*
X154203400Y-94970600D01*
X154203400Y-94970600D02*
X159283400Y-94970600D01*
X163474400Y-90779600D02*
X164236400Y-90779600D01*
X159283400Y-94970600D02*
X163474400Y-90779600D01*
X159831040Y-100683540D02*
X169734980Y-90779600D01*
X169734980Y-90779600D02*
X173380400Y-90779600D01*
X169824400Y-91414600D02*
X162204400Y-99034600D01*
X162204400Y-100626660D02*
X160468580Y-102362480D01*
X162204400Y-99034600D02*
X162204400Y-100626660D01*
X171348400Y-91414600D02*
X169824400Y-91414600D01*
X153653760Y-100683540D02*
X153653760Y-99330240D01*
X153653760Y-99330240D02*
X155473400Y-97510600D01*
X155473400Y-97510600D02*
X160680400Y-97510600D01*
X160680400Y-97510600D02*
X168427400Y-89763600D01*
X168427400Y-89763600D02*
X169570400Y-89763600D01*
X169570400Y-89763600D02*
X169951400Y-90144600D01*
X169951400Y-90144600D02*
X172237400Y-90144600D01*
X158207979Y-107028459D02*
X159544541Y-107028459D01*
X157639020Y-106459500D02*
X158207979Y-107028459D01*
X159544541Y-107028459D02*
X163220400Y-103352600D01*
X163220400Y-103352600D02*
X163220400Y-99542600D01*
X163220400Y-99542600D02*
X170713400Y-92049600D01*
X170713400Y-92049600D02*
X170713400Y-92049600D01*
X155276821Y-107028459D02*
X153942259Y-107028459D01*
X155845780Y-106459500D02*
X155276821Y-107028459D01*
X153942259Y-107028459D02*
X151409400Y-104495600D01*
X151409400Y-104495600D02*
X151409400Y-99288600D01*
X151409400Y-99288600D02*
X154711400Y-95986600D01*
X154711400Y-95986600D02*
X159918400Y-95986600D01*
X159918400Y-95986600D02*
X167665400Y-88239600D01*
X171348400Y-88239600D02*
X171856400Y-88747600D01*
X167665400Y-88239600D02*
X171348400Y-88239600D01*
X154253200Y-105623840D02*
X153299640Y-105623840D01*
X153299640Y-105623840D02*
X151917400Y-104241600D01*
X151917400Y-104241600D02*
X151917400Y-99542600D01*
X151917400Y-99542600D02*
X154965400Y-96494600D01*
X154965400Y-96494600D02*
X160172400Y-96494600D01*
X160172400Y-96494600D02*
X167919400Y-88747600D01*
X170840400Y-88747600D02*
X171221400Y-89128600D01*
X167919400Y-88747600D02*
X170840400Y-88747600D01*
X152447261Y-101793521D02*
X152447261Y-99774739D01*
X153016220Y-102362480D02*
X152447261Y-101793521D01*
X152447261Y-99774739D02*
X155219400Y-97002600D01*
X155219400Y-97002600D02*
X160426400Y-97002600D01*
X160426400Y-97002600D02*
X168173400Y-89255600D01*
X168173400Y-89255600D02*
X169824400Y-89255600D01*
X170078400Y-89509600D02*
X170586400Y-89509600D01*
X169824400Y-89255600D02*
X170078400Y-89509600D01*
X159231600Y-105623840D02*
X160187160Y-105623840D01*
X160187160Y-105623840D02*
X162712400Y-103098600D01*
X162712400Y-99288600D02*
X169951400Y-92049600D01*
X162712400Y-103098600D02*
X162712400Y-99288600D01*
X154999960Y-98687650D02*
X155669010Y-98018600D01*
X154999960Y-99492280D02*
X154999960Y-98687650D01*
X155669010Y-98018600D02*
X160934400Y-98018600D01*
X168554400Y-90398600D02*
X169316400Y-90398600D01*
X160934400Y-98018600D02*
X168554400Y-90398600D01*
X158484840Y-99492280D02*
X160222720Y-99492280D01*
X160222720Y-99492280D02*
X168681400Y-91033600D01*
X182484840Y-98687650D02*
X179476400Y-95679210D01*
X182484840Y-99492280D02*
X182484840Y-98687650D01*
X179476400Y-95679210D02*
X179476400Y-91160600D01*
X179476400Y-91160600D02*
X178587400Y-90271600D01*
X176047400Y-90271600D02*
X175031400Y-89255600D01*
X178587400Y-90271600D02*
X176047400Y-90271600D01*
X178999960Y-91319160D02*
X178999960Y-99492280D01*
X178460400Y-90779600D02*
X178999960Y-91319160D01*
X175666400Y-90779600D02*
X178460400Y-90779600D01*
X184190160Y-105623840D02*
X185699400Y-104114600D01*
X183231600Y-105623840D02*
X184190160Y-105623840D01*
X181381400Y-94970600D02*
X185699400Y-99288600D01*
X185699400Y-104114600D02*
X185699400Y-99288600D01*
X181381400Y-92303600D02*
X181381400Y-94970600D01*
X176301400Y-89636600D02*
X178714400Y-89636600D01*
X178714400Y-89636600D02*
X181381400Y-92303600D01*
X176447261Y-93173739D02*
X176936400Y-92684600D01*
X176447261Y-101793521D02*
X176447261Y-93173739D01*
X177016220Y-102362480D02*
X176447261Y-101793521D01*
X178253200Y-105623840D02*
X177302640Y-105623840D01*
X177302640Y-105623840D02*
X175793400Y-104114600D01*
X175793400Y-104114600D02*
X175793400Y-93980000D01*
X175793400Y-93980000D02*
X175793400Y-92938600D01*
X176682400Y-92049600D02*
X177571400Y-92049600D01*
X175793400Y-92938600D02*
X176682400Y-92049600D01*
X179276821Y-107028459D02*
X177945259Y-107028459D01*
X179845780Y-106459500D02*
X179276821Y-107028459D01*
X177945259Y-107028459D02*
X175158400Y-104241600D01*
X175158400Y-104241600D02*
X175158400Y-93980000D01*
X175158400Y-93980000D02*
X175158400Y-92684600D01*
X175158400Y-92684600D02*
X176428400Y-91414600D01*
X176428400Y-91414600D02*
X178206400Y-91414600D01*
X183547541Y-107028459D02*
X186334400Y-104241600D01*
X182207979Y-107028459D02*
X183547541Y-107028459D01*
X181639020Y-106459500D02*
X182207979Y-107028459D01*
X182016400Y-94716600D02*
X186334400Y-99034600D01*
X178841400Y-89001600D02*
X182016400Y-92176600D01*
X182016400Y-92176600D02*
X182016400Y-94716600D01*
X186334400Y-104241600D02*
X186334400Y-99034600D01*
X177653760Y-100683540D02*
X177653760Y-93745240D01*
X177653760Y-93364240D02*
X178333400Y-92684600D01*
X177653760Y-93745240D02*
X177653760Y-93364240D01*
X185037539Y-101793521D02*
X184468580Y-102362480D01*
X180111400Y-91795600D02*
X180746400Y-92430600D01*
X180746400Y-92430600D02*
X180746400Y-95224600D01*
X180746400Y-95224600D02*
X185037539Y-99515739D01*
X185037539Y-99515739D02*
X185037539Y-101793521D01*
X183831040Y-99198240D02*
X183831040Y-100683540D01*
X180111400Y-92684600D02*
X180111400Y-95478600D01*
X183831040Y-99198240D02*
X180111400Y-95478600D01*
X192653760Y-91445240D02*
X192684400Y-91414600D01*
X192653760Y-100683540D02*
X192653760Y-91445240D01*
X196639020Y-106459500D02*
X195554920Y-107543600D01*
X195554920Y-107543600D02*
X192684400Y-107543600D01*
X189636400Y-104495600D02*
X189636400Y-90779600D01*
X192684400Y-107543600D02*
X189636400Y-104495600D01*
X194276821Y-107028459D02*
X192931259Y-107028459D01*
X194845780Y-106459500D02*
X194276821Y-107028459D01*
X190271400Y-104368600D02*
X190271400Y-90144600D01*
X192931259Y-107028459D02*
X190271400Y-104368600D01*
X193253200Y-105623840D02*
X192288640Y-105623840D01*
X190906400Y-104241600D02*
X190906400Y-89509600D01*
X192288640Y-105623840D02*
X190906400Y-104241600D01*
X192016220Y-101557850D02*
X191541400Y-101083030D01*
X192016220Y-102362480D02*
X192016220Y-101557850D01*
X191541400Y-101083030D02*
X191541400Y-88874600D01*
X193999960Y-98687650D02*
X193319400Y-98007090D01*
X193999960Y-99492280D02*
X193999960Y-98687650D01*
X192811400Y-89509600D02*
X192811400Y-90652600D01*
X192811400Y-90652600D02*
X193319400Y-91160600D01*
X193319400Y-98007090D02*
X193319400Y-91160600D01*
X194081400Y-91011810D02*
X193446400Y-90376810D01*
X194081400Y-95284210D02*
X194081400Y-91011810D01*
X197484840Y-98687650D02*
X194081400Y-95284210D01*
X193446400Y-90376810D02*
X193446400Y-90017600D01*
X197484840Y-99492280D02*
X197484840Y-98687650D01*
X111785400Y-92303600D02*
X111785400Y-91922600D01*
X120215900Y-83492100D02*
X138074400Y-83492100D01*
X111785400Y-91922600D02*
X120215900Y-83492100D01*
D18*
X144907000Y-114300000D02*
X147447000Y-116840000D01*
X142367000Y-116840000D02*
X144907000Y-114300000D01*
X149987000Y-114300000D02*
X147447000Y-116840000D01*
D19*
X142367000Y-114300000D02*
X131067000Y-114300000D01*
X131067000Y-114300000D02*
X128422400Y-116944600D01*
D17*
X161950400Y-107098855D02*
X164045655Y-105003600D01*
X164045655Y-105003600D02*
X168427400Y-105003600D01*
D20*
X139792400Y-82524600D02*
X139411400Y-82905600D01*
X140742400Y-82524600D02*
X139792400Y-82524600D01*
X139411400Y-82905600D02*
X119913400Y-82905600D01*
X119913400Y-82905600D02*
X112420400Y-90398600D01*
X148107400Y-82524600D02*
X140742400Y-82524600D01*
X154965400Y-89382600D02*
X148107400Y-82524600D01*
X160807400Y-89382600D02*
X154965400Y-89382600D01*
X143662400Y-81889600D02*
X139725400Y-81889600D01*
X139725400Y-81889600D02*
X139217400Y-82397600D01*
X139217400Y-82397600D02*
X119659400Y-82397600D01*
X119659400Y-82397600D02*
X112928400Y-89128600D01*
X148361400Y-81889600D02*
X143662400Y-81889600D01*
X155346400Y-88874600D02*
X148361400Y-81889600D01*
X160299400Y-88874600D02*
X155346400Y-88874600D01*
X165252400Y-110718600D02*
X164744400Y-110210600D01*
X165252400Y-116687600D02*
X165252400Y-110718600D01*
X165887400Y-109321600D02*
X165887400Y-108432600D01*
X165887400Y-116306600D02*
X165887400Y-109321600D01*
X130200400Y-95732600D02*
X129946400Y-95732600D01*
X132232400Y-97764600D02*
X130200400Y-95732600D01*
X132232400Y-106273600D02*
X132232400Y-97764600D01*
X136296400Y-110337600D02*
X132232400Y-106273600D01*
X142646400Y-110337600D02*
X136296400Y-110337600D01*
X143662400Y-109321600D02*
X142646400Y-110337600D01*
X165887400Y-109321600D02*
X143662400Y-109321600D01*
D17*
X160045400Y-108051600D02*
X164537000Y-103560000D01*
X164537000Y-103560000D02*
X167202400Y-103560000D01*
X143154400Y-108051600D02*
X160045400Y-108051600D01*
X133502400Y-105638600D02*
X136931400Y-109067600D01*
X121288610Y-86207600D02*
X122453400Y-86207600D01*
X133502400Y-97256600D02*
X133502400Y-105638600D01*
X130327400Y-91033600D02*
X130327400Y-94081600D01*
X126898400Y-87604600D02*
X130327400Y-91033600D01*
X123850400Y-87604600D02*
X126898400Y-87604600D01*
X142138400Y-109067600D02*
X143154400Y-108051600D01*
X136931400Y-109067600D02*
X142138400Y-109067600D01*
X122453400Y-86207600D02*
X123850400Y-87604600D01*
X130327400Y-94081600D02*
X133502400Y-97256600D01*
X121161610Y-86334600D02*
X121288610Y-86207600D01*
X120802400Y-86334600D02*
X121161610Y-86334600D01*
X166352401Y-101664599D02*
X165670401Y-101664599D01*
X167202400Y-100814600D02*
X166352401Y-101664599D01*
X165670401Y-101664599D02*
X159791400Y-107543600D01*
X159791400Y-107543600D02*
X142900400Y-107543600D01*
X142900400Y-107543600D02*
X141884400Y-108559600D01*
X141884400Y-108559600D02*
X137185400Y-108559600D01*
X137185400Y-108559600D02*
X134010400Y-105384600D01*
X134010400Y-105384600D02*
X134010400Y-97002600D01*
X134010400Y-97002600D02*
X130835400Y-93827600D01*
X130835400Y-93827600D02*
X130835400Y-90779600D01*
X130835400Y-90779600D02*
X127152400Y-87096600D01*
X127152400Y-87096600D02*
X124739400Y-87096600D01*
X120040400Y-86334600D02*
X120675400Y-85699600D01*
X120675400Y-85699600D02*
X123342400Y-85699600D01*
X124739400Y-87096600D02*
X123342400Y-85699600D01*
X126352401Y-101664599D02*
X125665401Y-101664599D01*
X127202400Y-100814600D02*
X126352401Y-101664599D01*
X125665401Y-101664599D02*
X119786400Y-107543600D01*
X119786400Y-107543600D02*
X113690400Y-107543600D01*
X113690400Y-107543600D02*
X111023400Y-104876600D01*
X111023400Y-104876600D02*
X111023400Y-98907600D01*
X111023400Y-98907600D02*
X120167400Y-89763600D01*
X127202400Y-103560000D02*
X124532000Y-103560000D01*
X124532000Y-103560000D02*
X120040400Y-108051600D01*
X120040400Y-108051600D02*
X113436400Y-108051600D01*
X113436400Y-108051600D02*
X112801400Y-107416600D01*
X112801400Y-107416600D02*
X110515400Y-105130600D01*
X110515400Y-105130600D02*
X110515400Y-98653600D01*
X110515400Y-98653600D02*
X111404400Y-97764600D01*
X111404400Y-97764600D02*
X119405400Y-89763600D01*
D20*
X153752001Y-115614999D02*
X155784001Y-115614999D01*
X152527000Y-116840000D02*
X153752001Y-115614999D01*
X155784001Y-115614999D02*
X157759400Y-113639600D01*
X149987000Y-116840000D02*
X151358600Y-118211600D01*
X151358600Y-118211600D02*
X155727400Y-118211600D01*
X155727400Y-118211600D02*
X156489400Y-117449600D01*
X156489400Y-116433600D02*
X158394400Y-114528600D01*
X156489400Y-117449600D02*
X156489400Y-116433600D01*
D17*
X199252680Y-104145560D02*
X200558400Y-102839840D01*
X200558400Y-100812600D02*
X196494400Y-96748600D01*
X200558400Y-102839840D02*
X200558400Y-100812600D01*
D20*
X132740400Y-97510600D02*
X129057400Y-93827600D01*
X136550400Y-109829600D02*
X132740400Y-106019600D01*
X142392400Y-109829600D02*
X136550400Y-109829600D01*
X129057400Y-93827600D02*
X129057400Y-92938600D01*
X132740400Y-106019600D02*
X132740400Y-97510600D01*
X143408400Y-108813600D02*
X142392400Y-109829600D01*
X164617400Y-108813600D02*
X143408400Y-108813600D01*
X165887400Y-107543600D02*
X164617400Y-108813600D01*
D17*
X98232120Y-104145560D02*
X97053400Y-102966840D01*
X97053400Y-100177600D02*
X99974400Y-97256600D01*
X99974400Y-97256600D02*
X104165400Y-97256600D01*
X97053400Y-102966840D02*
X97053400Y-100177600D01*
X183286400Y-93954600D02*
X183286400Y-91668600D01*
X164490400Y-89128600D02*
X162839400Y-89128600D01*
X183286400Y-91668600D02*
X179476400Y-87858600D01*
X166903400Y-86715600D02*
X164490400Y-89128600D01*
X173126400Y-87858600D02*
X171983400Y-86715600D01*
X179476400Y-87858600D02*
X173126400Y-87858600D01*
X171983400Y-86715600D02*
X166903400Y-86715600D01*
X162839400Y-89128600D02*
X160299400Y-91668600D01*
X160299400Y-91668600D02*
X158521400Y-93446600D01*
X158521400Y-93446600D02*
X156489400Y-93446600D01*
X156489400Y-93446600D02*
X154457400Y-91414600D01*
X154457400Y-91414600D02*
X154076400Y-91414600D01*
X154076400Y-91414600D02*
X153568400Y-91922600D01*
X153568400Y-91922600D02*
X144932400Y-91922600D01*
X174523400Y-101447600D02*
X174523400Y-90652600D01*
X164998400Y-90144600D02*
X163347400Y-90144600D01*
X171602400Y-87731600D02*
X167411400Y-87731600D01*
X174523400Y-90652600D02*
X171602400Y-87731600D01*
X167411400Y-87731600D02*
X164998400Y-90144600D01*
X163347400Y-90144600D02*
X159791400Y-93700600D01*
X159791400Y-93700600D02*
X159029400Y-94462600D01*
X159029400Y-94462600D02*
X155981400Y-94462600D01*
X155981400Y-94462600D02*
X153949400Y-92430600D01*
X145313400Y-92430600D02*
X144932400Y-92811600D01*
X153949400Y-92430600D02*
X145313400Y-92430600D01*
X144297400Y-97129600D02*
X146202400Y-95224600D01*
X144297400Y-98018600D02*
X144297400Y-97129600D01*
X146203400Y-94334600D02*
X147472400Y-94334600D01*
X146203400Y-94334600D02*
X143789400Y-96748600D01*
X143789400Y-96748600D02*
X140614400Y-96748600D01*
X135661400Y-91033600D02*
X140233400Y-95605600D01*
X135661400Y-87477600D02*
X135661400Y-91033600D01*
X143154400Y-95605600D02*
X145694400Y-93065600D01*
X134645400Y-86461600D02*
X135661400Y-87477600D01*
X128041400Y-86461600D02*
X134645400Y-86461600D01*
X109372400Y-95986600D02*
X118897400Y-86461600D01*
X127660400Y-86080600D02*
X128041400Y-86461600D01*
X123786900Y-84620100D02*
X125247400Y-86080600D01*
X145694400Y-93065600D02*
X148742400Y-93065600D01*
X125247400Y-86080600D02*
X127660400Y-86080600D01*
X120230900Y-84620100D02*
X123786900Y-84620100D01*
X118897400Y-85953600D02*
X120230900Y-84620100D01*
X118897400Y-86461600D02*
X118897400Y-85953600D01*
X140233400Y-95605600D02*
X143154400Y-95605600D01*
X109245400Y-95986600D02*
X109372400Y-95986600D01*
X109118400Y-96113600D02*
X109245400Y-95986600D01*
X173380400Y-87350600D02*
X172237400Y-86207600D01*
X172237400Y-86207600D02*
X166649400Y-86207600D01*
X166649400Y-86207600D02*
X164236400Y-88620600D01*
X164236400Y-88620600D02*
X162585400Y-88620600D01*
X183921400Y-93319600D02*
X183921400Y-91414600D01*
X179857400Y-87350600D02*
X173380400Y-87350600D01*
X183921400Y-91414600D02*
X179857400Y-87350600D01*
X162585400Y-88620600D02*
X158648400Y-92557600D01*
X158648400Y-92557600D02*
X158267400Y-92938600D01*
X158267400Y-92938600D02*
X156743400Y-92938600D01*
X156743400Y-92938600D02*
X154711400Y-90906600D01*
X154711400Y-90906600D02*
X153822400Y-90906600D01*
X153822400Y-90906600D02*
X153441400Y-91287600D01*
X186969400Y-98780600D02*
X182651400Y-94462600D01*
X171729400Y-87223600D02*
X167157400Y-87223600D01*
X179095400Y-88366600D02*
X172872400Y-88366600D01*
X172872400Y-88366600D02*
X171729400Y-87223600D01*
X182651400Y-91922600D02*
X179095400Y-88366600D01*
X186969400Y-101447600D02*
X186969400Y-98780600D01*
X167157400Y-87223600D02*
X164744400Y-89636600D01*
X164744400Y-89636600D02*
X163093400Y-89636600D01*
X182651400Y-94462600D02*
X182651400Y-91922600D01*
X163093400Y-89636600D02*
X161315400Y-91414600D01*
X161315400Y-91414600D02*
X158775400Y-93954600D01*
X158775400Y-93954600D02*
X156235400Y-93954600D01*
X156235400Y-93954600D02*
X154330400Y-92049600D01*
X146583400Y-100050600D02*
X148361400Y-100050600D01*
X153822400Y-94589600D02*
X153822400Y-94334600D01*
X148361400Y-100050600D02*
X153822400Y-94589600D01*
X143662400Y-97383600D02*
X143662400Y-98145600D01*
X143662400Y-98145600D02*
X144932400Y-99415600D01*
X144932400Y-99415600D02*
X148234400Y-99415600D01*
X148234400Y-99415600D02*
X153187400Y-94462600D01*
X153187400Y-94462600D02*
X153187400Y-94208600D01*
X153187400Y-94208600D02*
X153695400Y-93700600D01*
X154458400Y-93700600D02*
X155092400Y-94334600D01*
X153695400Y-93700600D02*
X154458400Y-93700600D01*
X108737400Y-97256600D02*
X108610400Y-97383600D01*
X108864400Y-97256600D02*
X108737400Y-97256600D01*
X119405400Y-86715600D02*
X108864400Y-97256600D01*
X119405400Y-86207600D02*
X119405400Y-86715600D01*
X120421400Y-85191600D02*
X119405400Y-86207600D01*
X135153400Y-91287600D02*
X135153400Y-87731600D01*
X127787400Y-86969600D02*
X127406400Y-86588600D01*
X127406400Y-86588600D02*
X124993400Y-86588600D01*
X139979400Y-96113600D02*
X135153400Y-91287600D01*
X135153400Y-87731600D02*
X134391400Y-86969600D01*
X124993400Y-86588600D02*
X123596400Y-85191600D01*
X134391400Y-86969600D02*
X127787400Y-86969600D01*
X123596400Y-85191600D02*
X120421400Y-85191600D01*
X143535400Y-96113600D02*
X145948400Y-93700600D01*
X139979400Y-96113600D02*
X143535400Y-96113600D01*
X149631400Y-93065600D02*
X148996400Y-93700600D01*
X153187400Y-93065600D02*
X149631400Y-93065600D01*
X148996400Y-93700600D02*
X145948400Y-93700600D01*
X175920400Y-82270600D02*
X174777400Y-81127600D01*
X174777400Y-81127600D02*
X165100000Y-81127600D01*
X165100000Y-81127600D02*
X163982400Y-81127600D01*
X163982400Y-81127600D02*
X160299400Y-81127600D01*
X185064400Y-83667600D02*
X183667400Y-82270600D01*
X194843400Y-83667600D02*
X185064400Y-83667600D01*
X183667400Y-82270600D02*
X175920400Y-82270600D01*
X196240400Y-85064600D02*
X194843400Y-83667600D01*
X221132400Y-86334600D02*
X219862400Y-85064600D01*
X219862400Y-85064600D02*
X196240400Y-85064600D01*
X164236400Y-81635600D02*
X163982400Y-81889600D01*
X174523400Y-81635600D02*
X164236400Y-81635600D01*
X163982400Y-81889600D02*
X160299400Y-81889600D01*
X175666400Y-82778600D02*
X174523400Y-81635600D01*
X195986400Y-85572600D02*
X194589400Y-84175600D01*
X184683400Y-84175600D02*
X183286400Y-82778600D01*
X216628319Y-85572600D02*
X195986400Y-85572600D01*
X194589400Y-84175600D02*
X184683400Y-84175600D01*
X217390319Y-86334600D02*
X216628319Y-85572600D01*
X218592400Y-86334600D02*
X217390319Y-86334600D01*
X183286400Y-82778600D02*
X175666400Y-82778600D01*
X174269400Y-82143600D02*
X175412400Y-83286600D01*
X163982400Y-82651600D02*
X164490400Y-82143600D01*
X164490400Y-82143600D02*
X174269400Y-82143600D01*
X160299400Y-82651600D02*
X163982400Y-82651600D01*
X194335400Y-84683600D02*
X184302400Y-84683600D01*
X195732400Y-86080600D02*
X194335400Y-84683600D01*
X216433400Y-86080600D02*
X195732400Y-86080600D01*
X219862400Y-87604600D02*
X217957400Y-87604600D01*
X217957400Y-87604600D02*
X216433400Y-86080600D01*
X221132400Y-88874600D02*
X219862400Y-87604600D01*
X184302400Y-84683600D02*
X182905400Y-83286600D01*
X175412400Y-83286600D02*
X182905400Y-83286600D01*
X164744400Y-82651600D02*
X174015400Y-82651600D01*
X174015400Y-82651600D02*
X175158400Y-83794600D01*
X163982400Y-83413600D02*
X164744400Y-82651600D01*
X160299400Y-83413600D02*
X163982400Y-83413600D01*
X183921400Y-85191600D02*
X182524400Y-83794600D01*
X175158400Y-83794600D02*
X182524400Y-83794600D01*
X195478400Y-86588600D02*
X194081400Y-85191600D01*
X194081400Y-85191600D02*
X183921400Y-85191600D01*
X216306400Y-86588600D02*
X195478400Y-86588600D01*
X218592400Y-88874600D02*
X216306400Y-86588600D01*
X163982400Y-84175600D02*
X164998400Y-83159600D01*
X164998400Y-83159600D02*
X173761400Y-83159600D01*
X173761400Y-83159600D02*
X174904400Y-84302600D01*
X160299400Y-84175600D02*
X163982400Y-84175600D01*
X183540400Y-85699600D02*
X182143400Y-84302600D01*
X193827400Y-85699600D02*
X183540400Y-85699600D01*
X195224400Y-87096600D02*
X193827400Y-85699600D01*
X221132400Y-91414600D02*
X219862400Y-90144600D01*
X214909400Y-87096600D02*
X195224400Y-87096600D01*
X217957400Y-90144600D02*
X214909400Y-87096600D01*
X219862400Y-90144600D02*
X217957400Y-90144600D01*
X174904400Y-84302600D02*
X182143400Y-84302600D01*
X173507400Y-83667600D02*
X174650400Y-84810600D01*
X165252400Y-83667600D02*
X173507400Y-83667600D01*
X163982400Y-84937600D02*
X165252400Y-83667600D01*
X160299400Y-84937600D02*
X163982400Y-84937600D01*
X183159400Y-86207600D02*
X181762400Y-84810600D01*
X193573400Y-86207600D02*
X183159400Y-86207600D01*
X174650400Y-84810600D02*
X181762400Y-84810600D01*
X194970400Y-87604600D02*
X193573400Y-86207600D01*
X214782400Y-87604600D02*
X194970400Y-87604600D01*
X218592400Y-91414600D02*
X214782400Y-87604600D01*
X173253400Y-84175600D02*
X174396400Y-85318600D01*
X165506400Y-84175600D02*
X173253400Y-84175600D01*
X163982400Y-85699600D02*
X165506400Y-84175600D01*
X160299400Y-85699600D02*
X163982400Y-85699600D01*
X182778400Y-86715600D02*
X181381400Y-85318600D01*
X193319400Y-86715600D02*
X182778400Y-86715600D01*
X194716400Y-88112600D02*
X193319400Y-86715600D01*
X213385400Y-88112600D02*
X194716400Y-88112600D01*
X217957400Y-92684600D02*
X213385400Y-88112600D01*
X174396400Y-85318600D02*
X181381400Y-85318600D01*
X221132400Y-93954600D02*
X219862400Y-92684600D01*
X219862400Y-92684600D02*
X217957400Y-92684600D01*
X172999400Y-84683600D02*
X174142400Y-85826600D01*
X163982400Y-86461600D02*
X165760400Y-84683600D01*
X165760400Y-84683600D02*
X172999400Y-84683600D01*
X160299400Y-86461600D02*
X163982400Y-86461600D01*
X182397400Y-87223600D02*
X181000400Y-85826600D01*
X193065400Y-87223600D02*
X182397400Y-87223600D01*
X194462400Y-88620600D02*
X193065400Y-87223600D01*
X218592400Y-93954600D02*
X213258400Y-88620600D01*
X213258400Y-88620600D02*
X194462400Y-88620600D01*
X174142400Y-85826600D02*
X181000400Y-85826600D01*
X163982400Y-87223600D02*
X166014400Y-85191600D01*
X166014400Y-85191600D02*
X172745400Y-85191600D01*
X172745400Y-85191600D02*
X173888400Y-86334600D01*
X160299400Y-87223600D02*
X163982400Y-87223600D01*
X192811400Y-87731600D02*
X182016400Y-87731600D01*
X182016400Y-87731600D02*
X180619400Y-86334600D01*
X194208400Y-89128600D02*
X192811400Y-87731600D01*
X217957400Y-95224600D02*
X211861400Y-89128600D01*
X219862400Y-95224600D02*
X217957400Y-95224600D01*
X221132400Y-96494600D02*
X219862400Y-95224600D01*
X211861400Y-89128600D02*
X194208400Y-89128600D01*
X173888400Y-86334600D02*
X180619400Y-86334600D01*
X166268400Y-85699600D02*
X172491400Y-85699600D01*
X163982400Y-87985600D02*
X166268400Y-85699600D01*
X172491400Y-85699600D02*
X173634400Y-86842600D01*
X160299400Y-87985600D02*
X163982400Y-87985600D01*
X181635400Y-88239600D02*
X180238400Y-86842600D01*
X192557400Y-88239600D02*
X181635400Y-88239600D01*
X211734400Y-89636600D02*
X193954400Y-89636600D01*
X193954400Y-89636600D02*
X192557400Y-88239600D01*
X218592400Y-96494600D02*
X211734400Y-89636600D01*
X173634400Y-86842600D02*
X180238400Y-86842600D01*
G36*
X223010801Y-113181036D02*
G01*
X222934264Y-114666232D01*
X222708390Y-116116930D01*
X222334585Y-117536738D01*
X221816817Y-118910595D01*
X221160576Y-120223940D01*
X220372804Y-121462878D01*
X219461848Y-122614281D01*
X218437367Y-123665940D01*
X217310207Y-124606723D01*
X216092315Y-125426656D01*
X214796591Y-126117056D01*
X213436763Y-126670607D01*
X212027236Y-127081447D01*
X210582937Y-127345222D01*
X209105099Y-127460234D01*
X208740992Y-127465000D01*
X88764706Y-127465000D01*
X87279568Y-127388466D01*
X85828870Y-127162592D01*
X84409062Y-126788787D01*
X83035206Y-126271019D01*
X81721860Y-125614777D01*
X80482922Y-124827005D01*
X79331518Y-123916049D01*
X78279859Y-122891569D01*
X77339078Y-121764409D01*
X76519144Y-120546516D01*
X75828744Y-119250791D01*
X75275193Y-117890964D01*
X74972010Y-116850787D01*
X127469900Y-116850787D01*
X127469900Y-117038413D01*
X127506504Y-117222434D01*
X127578305Y-117395778D01*
X127682545Y-117551784D01*
X127815216Y-117684455D01*
X127971222Y-117788695D01*
X128144566Y-117860496D01*
X128328587Y-117897100D01*
X128516213Y-117897100D01*
X128700234Y-117860496D01*
X128873578Y-117788695D01*
X129021285Y-117690000D01*
X140878928Y-117690000D01*
X140891188Y-117814482D01*
X140927498Y-117934180D01*
X140986463Y-118044494D01*
X141065815Y-118141185D01*
X141162506Y-118220537D01*
X141272820Y-118279502D01*
X141392518Y-118315812D01*
X141517000Y-118328072D01*
X142081250Y-118325000D01*
X142240000Y-118166250D01*
X142240000Y-116967000D01*
X141040750Y-116967000D01*
X140882000Y-117125750D01*
X140878928Y-117690000D01*
X129021285Y-117690000D01*
X129029584Y-117684455D01*
X129162255Y-117551784D01*
X129266495Y-117395778D01*
X129338296Y-117222434D01*
X129358205Y-117122345D01*
X131393152Y-115087400D01*
X141104051Y-115087400D01*
X141126294Y-115129014D01*
X141311866Y-115355134D01*
X141341687Y-115379607D01*
X141272820Y-115400498D01*
X141162506Y-115459463D01*
X141065815Y-115538815D01*
X140986463Y-115635506D01*
X140927498Y-115745820D01*
X140891188Y-115865518D01*
X140878928Y-115990000D01*
X140882000Y-116554250D01*
X141040750Y-116713000D01*
X142240000Y-116713000D01*
X142240000Y-116693000D01*
X142494000Y-116693000D01*
X142494000Y-116713000D01*
X142514000Y-116713000D01*
X142514000Y-116967000D01*
X142494000Y-116967000D01*
X142494000Y-118166250D01*
X142652750Y-118325000D01*
X143217000Y-118328072D01*
X143341482Y-118315812D01*
X143461180Y-118279502D01*
X143571494Y-118220537D01*
X143668185Y-118141185D01*
X143747537Y-118044494D01*
X143806502Y-117934180D01*
X143827393Y-117865313D01*
X143851866Y-117895134D01*
X144077986Y-118080706D01*
X144335966Y-118218599D01*
X144615889Y-118303513D01*
X144834050Y-118325000D01*
X144979950Y-118325000D01*
X145198111Y-118303513D01*
X145478034Y-118218599D01*
X145736014Y-118080706D01*
X145962134Y-117895134D01*
X146147706Y-117669014D01*
X146182201Y-117604477D01*
X146251822Y-117721355D01*
X146446731Y-117937588D01*
X146680080Y-118111641D01*
X146942901Y-118236825D01*
X147090110Y-118281476D01*
X147320000Y-118160155D01*
X147320000Y-116967000D01*
X147300000Y-116967000D01*
X147300000Y-116713000D01*
X147320000Y-116713000D01*
X147320000Y-116693000D01*
X147574000Y-116693000D01*
X147574000Y-116713000D01*
X147594000Y-116713000D01*
X147594000Y-116967000D01*
X147574000Y-116967000D01*
X147574000Y-118160155D01*
X147803890Y-118281476D01*
X147951099Y-118236825D01*
X148213920Y-118111641D01*
X148447269Y-117937588D01*
X148642178Y-117721355D01*
X148711799Y-117604477D01*
X148746294Y-117669014D01*
X148931866Y-117895134D01*
X149157986Y-118080706D01*
X149415966Y-118218599D01*
X149695889Y-118303513D01*
X149914050Y-118325000D01*
X150059950Y-118325000D01*
X150278111Y-118303513D01*
X150378386Y-118273095D01*
X150812154Y-118706863D01*
X150835225Y-118734975D01*
X150947387Y-118827024D01*
X151075351Y-118895422D01*
X151214201Y-118937542D01*
X151322414Y-118948200D01*
X151322423Y-118948200D01*
X151358599Y-118951763D01*
X151394775Y-118948200D01*
X155691217Y-118948200D01*
X155727400Y-118951764D01*
X155763583Y-118948200D01*
X155763586Y-118948200D01*
X155871799Y-118937542D01*
X156010649Y-118895422D01*
X156138613Y-118827024D01*
X156250775Y-118734975D01*
X156273845Y-118706864D01*
X156984673Y-117996037D01*
X157012774Y-117972975D01*
X157035837Y-117944873D01*
X157035842Y-117944868D01*
X157104824Y-117860813D01*
X157129588Y-117814482D01*
X157173222Y-117732849D01*
X157215342Y-117593999D01*
X157226000Y-117485786D01*
X157226000Y-117485785D01*
X157229564Y-117449600D01*
X157226000Y-117413414D01*
X157226000Y-116738709D01*
X158563287Y-115401423D01*
X158653712Y-115383436D01*
X158815499Y-115316421D01*
X158961104Y-115219131D01*
X159084931Y-115095304D01*
X159182221Y-114949699D01*
X159249236Y-114787912D01*
X159283400Y-114616159D01*
X159283400Y-114441041D01*
X159249236Y-114269288D01*
X159182221Y-114107501D01*
X159084931Y-113961896D01*
X158961104Y-113838069D01*
X158815499Y-113740779D01*
X158653712Y-113673764D01*
X158648400Y-113672707D01*
X158648400Y-113552041D01*
X158614236Y-113380288D01*
X158547221Y-113218501D01*
X158449931Y-113072896D01*
X158326104Y-112949069D01*
X158180499Y-112851779D01*
X158018712Y-112784764D01*
X157846959Y-112750600D01*
X157671841Y-112750600D01*
X157500088Y-112784764D01*
X157338301Y-112851779D01*
X157192696Y-112949069D01*
X157068869Y-113072896D01*
X156971579Y-113218501D01*
X156904564Y-113380288D01*
X156886577Y-113470713D01*
X156488127Y-113869163D01*
X156445599Y-113728966D01*
X156307706Y-113470986D01*
X156122134Y-113244866D01*
X155896014Y-113059294D01*
X155638034Y-112921401D01*
X155358111Y-112836487D01*
X155139950Y-112815000D01*
X154994050Y-112815000D01*
X154775889Y-112836487D01*
X154495966Y-112921401D01*
X154237986Y-113059294D01*
X154011866Y-113244866D01*
X153826294Y-113470986D01*
X153797000Y-113525791D01*
X153767706Y-113470986D01*
X153582134Y-113244866D01*
X153356014Y-113059294D01*
X153098034Y-112921401D01*
X152818111Y-112836487D01*
X152599950Y-112815000D01*
X152454050Y-112815000D01*
X152235889Y-112836487D01*
X151955966Y-112921401D01*
X151697986Y-113059294D01*
X151471866Y-113244866D01*
X151286294Y-113470986D01*
X151251799Y-113535523D01*
X151182178Y-113418645D01*
X150987269Y-113202412D01*
X150753920Y-113028359D01*
X150491099Y-112903175D01*
X150343890Y-112858524D01*
X150114000Y-112979845D01*
X150114000Y-114173000D01*
X150134000Y-114173000D01*
X150134000Y-114427000D01*
X150114000Y-114427000D01*
X150114000Y-114447000D01*
X149860000Y-114447000D01*
X149860000Y-114427000D01*
X149840000Y-114427000D01*
X149840000Y-114173000D01*
X149860000Y-114173000D01*
X149860000Y-112979845D01*
X149630110Y-112858524D01*
X149482901Y-112903175D01*
X149220080Y-113028359D01*
X148986731Y-113202412D01*
X148791822Y-113418645D01*
X148722201Y-113535523D01*
X148687706Y-113470986D01*
X148502134Y-113244866D01*
X148276014Y-113059294D01*
X148018034Y-112921401D01*
X147738111Y-112836487D01*
X147519950Y-112815000D01*
X147374050Y-112815000D01*
X147155889Y-112836487D01*
X146875966Y-112921401D01*
X146617986Y-113059294D01*
X146391866Y-113244866D01*
X146206294Y-113470986D01*
X146171799Y-113535523D01*
X146102178Y-113418645D01*
X145907269Y-113202412D01*
X145673920Y-113028359D01*
X145411099Y-112903175D01*
X145263890Y-112858524D01*
X145034000Y-112979845D01*
X145034000Y-114173000D01*
X145054000Y-114173000D01*
X145054000Y-114427000D01*
X145034000Y-114427000D01*
X145034000Y-114447000D01*
X144780000Y-114447000D01*
X144780000Y-114427000D01*
X144760000Y-114427000D01*
X144760000Y-114173000D01*
X144780000Y-114173000D01*
X144780000Y-112979845D01*
X144550110Y-112858524D01*
X144402901Y-112903175D01*
X144140080Y-113028359D01*
X143906731Y-113202412D01*
X143711822Y-113418645D01*
X143642201Y-113535523D01*
X143607706Y-113470986D01*
X143422134Y-113244866D01*
X143196014Y-113059294D01*
X142938034Y-112921401D01*
X142658111Y-112836487D01*
X142439950Y-112815000D01*
X142294050Y-112815000D01*
X142075889Y-112836487D01*
X141795966Y-112921401D01*
X141537986Y-113059294D01*
X141311866Y-113244866D01*
X141126294Y-113470986D01*
X141104051Y-113512600D01*
X131105662Y-113512600D01*
X131066999Y-113508792D01*
X131028336Y-113512600D01*
X131028327Y-113512600D01*
X130912643Y-113523994D01*
X130764217Y-113569018D01*
X130627428Y-113642134D01*
X130627426Y-113642135D01*
X130627427Y-113642135D01*
X130537569Y-113715879D01*
X130537567Y-113715881D01*
X130507531Y-113740531D01*
X130482881Y-113770567D01*
X128244655Y-116008795D01*
X128144566Y-116028704D01*
X127971222Y-116100505D01*
X127815216Y-116204745D01*
X127682545Y-116337416D01*
X127578305Y-116493422D01*
X127506504Y-116666766D01*
X127469900Y-116850787D01*
X74972010Y-116850787D01*
X74864351Y-116481428D01*
X74600577Y-115037145D01*
X74485566Y-113559299D01*
X74480800Y-113195192D01*
X74480800Y-99796600D01*
X95779714Y-99796600D01*
X95783400Y-99834023D01*
X95783401Y-104331167D01*
X95779714Y-104368600D01*
X95794427Y-104517978D01*
X95837999Y-104661615D01*
X95908755Y-104793992D01*
X95973486Y-104872866D01*
X96003979Y-104910022D01*
X96033049Y-104933879D01*
X99155121Y-108055952D01*
X99178978Y-108085022D01*
X99295008Y-108180245D01*
X99427385Y-108251002D01*
X99571022Y-108294574D01*
X99682974Y-108305600D01*
X99682976Y-108305600D01*
X99720399Y-108309286D01*
X99757822Y-108305600D01*
X103079047Y-108305600D01*
X103116470Y-108309286D01*
X103153893Y-108305600D01*
X103153896Y-108305600D01*
X103265848Y-108294574D01*
X103409485Y-108251002D01*
X103541862Y-108180245D01*
X103657892Y-108085022D01*
X103681754Y-108055946D01*
X104743953Y-106993748D01*
X104773022Y-106969892D01*
X104800372Y-106936566D01*
X104868245Y-106853863D01*
X104920671Y-106755779D01*
X104939002Y-106721485D01*
X104982574Y-106577848D01*
X104983397Y-106569495D01*
X104999079Y-106559016D01*
X105166776Y-106391319D01*
X105298535Y-106194129D01*
X105389292Y-105975022D01*
X105435560Y-105742420D01*
X105435560Y-105505260D01*
X105403313Y-105343144D01*
X105603862Y-105303252D01*
X105822969Y-105212495D01*
X106020159Y-105080736D01*
X106187856Y-104913039D01*
X106319615Y-104715849D01*
X106410372Y-104496742D01*
X106456640Y-104264140D01*
X106456640Y-104026980D01*
X106410372Y-103794378D01*
X106319615Y-103575271D01*
X106187856Y-103378081D01*
X106158952Y-103349177D01*
X106236059Y-103297656D01*
X106403756Y-103129959D01*
X106535515Y-102932769D01*
X106626272Y-102713662D01*
X106657865Y-102554836D01*
X106762857Y-102544495D01*
X106906494Y-102500923D01*
X107038871Y-102430166D01*
X107154901Y-102334943D01*
X107178763Y-102305867D01*
X109753401Y-99731229D01*
X109753400Y-105093177D01*
X109749714Y-105130600D01*
X109753400Y-105168023D01*
X109753400Y-105168025D01*
X109764426Y-105279977D01*
X109807998Y-105423614D01*
X109821888Y-105449600D01*
X109878755Y-105555992D01*
X109903722Y-105586414D01*
X109973978Y-105672022D01*
X110003054Y-105695884D01*
X112289048Y-107981879D01*
X112289054Y-107981884D01*
X112871116Y-108563946D01*
X112894978Y-108593022D01*
X112954912Y-108642208D01*
X113011007Y-108688245D01*
X113081764Y-108726065D01*
X113143385Y-108759002D01*
X113287022Y-108802574D01*
X113398974Y-108813600D01*
X113398977Y-108813600D01*
X113436400Y-108817286D01*
X113473823Y-108813600D01*
X120002977Y-108813600D01*
X120040400Y-108817286D01*
X120077823Y-108813600D01*
X120077826Y-108813600D01*
X120189778Y-108802574D01*
X120333415Y-108759002D01*
X120465792Y-108688245D01*
X120581822Y-108593022D01*
X120605684Y-108563946D01*
X124847630Y-104322000D01*
X125925874Y-104322000D01*
X125961694Y-104389014D01*
X126147266Y-104615134D01*
X126373386Y-104800706D01*
X126631366Y-104938599D01*
X126911289Y-105023513D01*
X127129450Y-105045000D01*
X127275350Y-105045000D01*
X127493511Y-105023513D01*
X127773434Y-104938599D01*
X128031414Y-104800706D01*
X128257534Y-104615134D01*
X128282007Y-104585313D01*
X128302898Y-104654180D01*
X128361863Y-104764494D01*
X128441215Y-104861185D01*
X128537906Y-104940537D01*
X128648220Y-104999502D01*
X128767918Y-105035812D01*
X128892400Y-105048072D01*
X130592400Y-105048072D01*
X130716882Y-105035812D01*
X130836580Y-104999502D01*
X130946894Y-104940537D01*
X131043585Y-104861185D01*
X131122937Y-104764494D01*
X131181902Y-104654180D01*
X131218212Y-104534482D01*
X131230472Y-104410000D01*
X131230472Y-102710000D01*
X131218212Y-102585518D01*
X131181902Y-102465820D01*
X131122937Y-102355506D01*
X131043585Y-102258815D01*
X130956443Y-102187300D01*
X131043585Y-102115785D01*
X131122937Y-102019094D01*
X131181902Y-101908780D01*
X131218212Y-101789082D01*
X131230472Y-101664600D01*
X131230472Y-99964600D01*
X131218212Y-99840118D01*
X131181902Y-99720420D01*
X131122937Y-99610106D01*
X131043585Y-99513415D01*
X130946894Y-99434063D01*
X130836580Y-99375098D01*
X130716882Y-99338788D01*
X130592400Y-99326528D01*
X128892400Y-99326528D01*
X128767918Y-99338788D01*
X128648220Y-99375098D01*
X128537906Y-99434063D01*
X128441215Y-99513415D01*
X128361863Y-99610106D01*
X128302898Y-99720420D01*
X128282007Y-99789287D01*
X128257534Y-99759466D01*
X128031414Y-99573894D01*
X127773434Y-99436001D01*
X127493511Y-99351087D01*
X127275350Y-99329600D01*
X127129450Y-99329600D01*
X126911289Y-99351087D01*
X126631366Y-99436001D01*
X126373386Y-99573894D01*
X126147266Y-99759466D01*
X125961694Y-99985586D01*
X125823801Y-100243566D01*
X125738887Y-100523489D01*
X125710215Y-100814600D01*
X125718882Y-100902599D01*
X125702824Y-100902599D01*
X125665401Y-100898913D01*
X125627978Y-100902599D01*
X125627975Y-100902599D01*
X125516023Y-100913625D01*
X125372386Y-100957197D01*
X125359698Y-100963979D01*
X125240008Y-101027954D01*
X125210645Y-101052052D01*
X125123979Y-101123177D01*
X125100122Y-101152247D01*
X122834400Y-103417969D01*
X122834400Y-95794230D01*
X125715128Y-92913503D01*
X125760712Y-92904436D01*
X125922499Y-92837421D01*
X126068104Y-92740131D01*
X126191931Y-92616304D01*
X126289221Y-92470699D01*
X126356236Y-92308912D01*
X126362786Y-92275986D01*
X126395712Y-92269436D01*
X126557499Y-92202421D01*
X126703104Y-92105131D01*
X126826931Y-91981304D01*
X126924221Y-91835699D01*
X126991236Y-91673912D01*
X126995054Y-91654718D01*
X127064841Y-91668600D01*
X127239959Y-91668600D01*
X127411712Y-91634436D01*
X127573499Y-91567421D01*
X127719104Y-91470131D01*
X127842931Y-91346304D01*
X127940221Y-91200699D01*
X128007236Y-91038912D01*
X128041400Y-90867159D01*
X128041400Y-90692041D01*
X128007236Y-90520288D01*
X127956831Y-90398600D01*
X128001959Y-90398600D01*
X128173712Y-90364436D01*
X128335499Y-90297421D01*
X128442257Y-90226088D01*
X129565400Y-91349231D01*
X129565400Y-92208845D01*
X129478499Y-92150779D01*
X129316712Y-92083764D01*
X129144959Y-92049600D01*
X128969841Y-92049600D01*
X128798088Y-92083764D01*
X128636301Y-92150779D01*
X128490696Y-92248069D01*
X128366869Y-92371896D01*
X128269579Y-92517501D01*
X128202564Y-92679288D01*
X128168400Y-92851041D01*
X128168400Y-93026159D01*
X128202564Y-93197912D01*
X128269579Y-93359699D01*
X128320800Y-93436357D01*
X128320800Y-93791417D01*
X128317236Y-93827600D01*
X128320800Y-93863783D01*
X128320800Y-93863785D01*
X128331458Y-93971998D01*
X128373578Y-94110848D01*
X128441976Y-94238812D01*
X128534025Y-94350974D01*
X128562132Y-94374041D01*
X129304928Y-95116837D01*
X129255869Y-95165896D01*
X129158579Y-95311501D01*
X129091564Y-95473288D01*
X129057400Y-95645041D01*
X129057400Y-95820159D01*
X129091564Y-95991912D01*
X129158579Y-96153699D01*
X129255869Y-96299304D01*
X129379696Y-96423131D01*
X129525301Y-96520421D01*
X129687088Y-96587436D01*
X129858841Y-96621600D01*
X130033959Y-96621600D01*
X130045413Y-96619322D01*
X131495801Y-98069711D01*
X131495800Y-106237417D01*
X131492236Y-106273600D01*
X131495800Y-106309783D01*
X131495800Y-106309785D01*
X131506458Y-106417998D01*
X131548578Y-106556848D01*
X131616976Y-106684812D01*
X131678488Y-106759764D01*
X131709025Y-106796974D01*
X131737132Y-106820041D01*
X135749959Y-110832869D01*
X135773025Y-110860975D01*
X135885187Y-110953024D01*
X136013151Y-111021422D01*
X136151998Y-111063541D01*
X136152001Y-111063542D01*
X136296400Y-111077764D01*
X136332586Y-111074200D01*
X142610217Y-111074200D01*
X142646400Y-111077764D01*
X142682583Y-111074200D01*
X142682586Y-111074200D01*
X142790799Y-111063542D01*
X142929649Y-111021422D01*
X143057613Y-110953024D01*
X143169775Y-110860975D01*
X143192845Y-110832864D01*
X143967510Y-110058200D01*
X163868298Y-110058200D01*
X163855400Y-110123041D01*
X163855400Y-110298159D01*
X163889564Y-110469912D01*
X163956579Y-110631699D01*
X164053869Y-110777304D01*
X164177696Y-110901131D01*
X164323301Y-110998421D01*
X164485088Y-111065436D01*
X164515801Y-111071545D01*
X164515800Y-116189843D01*
X164464579Y-116266501D01*
X164397564Y-116428288D01*
X164363400Y-116600041D01*
X164363400Y-116775159D01*
X164397564Y-116946912D01*
X164464579Y-117108699D01*
X164561869Y-117254304D01*
X164685696Y-117378131D01*
X164831301Y-117475421D01*
X164993088Y-117542436D01*
X165164841Y-117576600D01*
X165339959Y-117576600D01*
X165511712Y-117542436D01*
X165673499Y-117475421D01*
X165819104Y-117378131D01*
X165942931Y-117254304D01*
X165983259Y-117193949D01*
X166146712Y-117161436D01*
X166308499Y-117094421D01*
X166454104Y-116997131D01*
X166577931Y-116873304D01*
X166675221Y-116727699D01*
X166742236Y-116565912D01*
X166776400Y-116394159D01*
X166776400Y-116219041D01*
X166742236Y-116047288D01*
X166675221Y-115885501D01*
X166624000Y-115808843D01*
X166624000Y-109357785D01*
X166627564Y-109321600D01*
X166624000Y-109285414D01*
X166624000Y-108930357D01*
X166675221Y-108853699D01*
X166742236Y-108691912D01*
X166776400Y-108520159D01*
X166776400Y-108345041D01*
X166742236Y-108173288D01*
X166675221Y-108011501D01*
X166659585Y-107988100D01*
X166675221Y-107964699D01*
X166742236Y-107802912D01*
X166776400Y-107631159D01*
X166776400Y-107456041D01*
X166742236Y-107284288D01*
X166675221Y-107122501D01*
X166577931Y-106976896D01*
X166454104Y-106853069D01*
X166308499Y-106755779D01*
X166146712Y-106688764D01*
X165974959Y-106654600D01*
X165799841Y-106654600D01*
X165628088Y-106688764D01*
X165466301Y-106755779D01*
X165320696Y-106853069D01*
X165196869Y-106976896D01*
X165099579Y-107122501D01*
X165032564Y-107284288D01*
X165014577Y-107374713D01*
X164312291Y-108077000D01*
X161097630Y-108077000D01*
X161384624Y-107790006D01*
X161529301Y-107886676D01*
X161691088Y-107953691D01*
X161862841Y-107987855D01*
X162037959Y-107987855D01*
X162209712Y-107953691D01*
X162371499Y-107886676D01*
X162517104Y-107789386D01*
X162640931Y-107665559D01*
X162738221Y-107519954D01*
X162805236Y-107358167D01*
X162814304Y-107312582D01*
X164361286Y-105765600D01*
X167967657Y-105765600D01*
X168006301Y-105791421D01*
X168168088Y-105858436D01*
X168339841Y-105892600D01*
X168514959Y-105892600D01*
X168686712Y-105858436D01*
X168848499Y-105791421D01*
X168994104Y-105694131D01*
X169117931Y-105570304D01*
X169215221Y-105424699D01*
X169282236Y-105262912D01*
X169316400Y-105091159D01*
X169316400Y-105048072D01*
X170592400Y-105048072D01*
X170716882Y-105035812D01*
X170836580Y-104999502D01*
X170946894Y-104940537D01*
X171043585Y-104861185D01*
X171122937Y-104764494D01*
X171181902Y-104654180D01*
X171218212Y-104534482D01*
X171230472Y-104410000D01*
X171230472Y-102710000D01*
X171218212Y-102585518D01*
X171181902Y-102465820D01*
X171122937Y-102355506D01*
X171043585Y-102258815D01*
X170956443Y-102187300D01*
X171043585Y-102115785D01*
X171122937Y-102019094D01*
X171181902Y-101908780D01*
X171218212Y-101789082D01*
X171230472Y-101664600D01*
X171230472Y-99964600D01*
X171218212Y-99840118D01*
X171181902Y-99720420D01*
X171122937Y-99610106D01*
X171043585Y-99513415D01*
X170946894Y-99434063D01*
X170836580Y-99375098D01*
X170716882Y-99338788D01*
X170592400Y-99326528D01*
X168892400Y-99326528D01*
X168767918Y-99338788D01*
X168648220Y-99375098D01*
X168537906Y-99434063D01*
X168441215Y-99513415D01*
X168361863Y-99610106D01*
X168302898Y-99720420D01*
X168282007Y-99789287D01*
X168257534Y-99759466D01*
X168031414Y-99573894D01*
X167773434Y-99436001D01*
X167493511Y-99351087D01*
X167275350Y-99329600D01*
X167129450Y-99329600D01*
X166911289Y-99351087D01*
X166631366Y-99436001D01*
X166373386Y-99573894D01*
X166147266Y-99759466D01*
X165961694Y-99985586D01*
X165823801Y-100243566D01*
X165738887Y-100523489D01*
X165710215Y-100814600D01*
X165718882Y-100902599D01*
X165707824Y-100902599D01*
X165670401Y-100898913D01*
X165632978Y-100902599D01*
X165632975Y-100902599D01*
X165521023Y-100913625D01*
X165377386Y-100957197D01*
X165364698Y-100963979D01*
X165245008Y-101027954D01*
X165215645Y-101052052D01*
X165128979Y-101123177D01*
X165105122Y-101152247D01*
X163982400Y-102274969D01*
X163982400Y-99858230D01*
X170927128Y-92913503D01*
X170972712Y-92904436D01*
X171134499Y-92837421D01*
X171280104Y-92740131D01*
X171403931Y-92616304D01*
X171501221Y-92470699D01*
X171568236Y-92308912D01*
X171574786Y-92275986D01*
X171607712Y-92269436D01*
X171769499Y-92202421D01*
X171915104Y-92105131D01*
X172038931Y-91981304D01*
X172136221Y-91835699D01*
X172203236Y-91673912D01*
X172229555Y-91541600D01*
X172920657Y-91541600D01*
X172959301Y-91567421D01*
X173121088Y-91634436D01*
X173292841Y-91668600D01*
X173467959Y-91668600D01*
X173639712Y-91634436D01*
X173761401Y-91584030D01*
X173761400Y-100987857D01*
X173735579Y-101026501D01*
X173668564Y-101188288D01*
X173634400Y-101360041D01*
X173634400Y-101535159D01*
X173668564Y-101706912D01*
X173735579Y-101868699D01*
X173832869Y-102014304D01*
X173956696Y-102138131D01*
X174102301Y-102235421D01*
X174264088Y-102302436D01*
X174396400Y-102328755D01*
X174396400Y-104204177D01*
X174392714Y-104241600D01*
X174396400Y-104279023D01*
X174396400Y-104279025D01*
X174407426Y-104390977D01*
X174450998Y-104534614D01*
X174476594Y-104582501D01*
X174521755Y-104666992D01*
X174530132Y-104677199D01*
X174616978Y-104783022D01*
X174646054Y-104806884D01*
X177379980Y-107540811D01*
X177403837Y-107569881D01*
X177432907Y-107593738D01*
X177519866Y-107665104D01*
X177572017Y-107692979D01*
X177652244Y-107735861D01*
X177795881Y-107779433D01*
X177907833Y-107790459D01*
X177907836Y-107790459D01*
X177945259Y-107794145D01*
X177982682Y-107790459D01*
X179239398Y-107790459D01*
X179276821Y-107794145D01*
X179314244Y-107790459D01*
X179314247Y-107790459D01*
X179426199Y-107779433D01*
X179569836Y-107735861D01*
X179702213Y-107665104D01*
X179708700Y-107659780D01*
X179727200Y-107663460D01*
X179964360Y-107663460D01*
X180196962Y-107617192D01*
X180416069Y-107526435D01*
X180613259Y-107394676D01*
X180742400Y-107265535D01*
X180871541Y-107394676D01*
X181068731Y-107526435D01*
X181287838Y-107617192D01*
X181520440Y-107663460D01*
X181757600Y-107663460D01*
X181776099Y-107659780D01*
X181782586Y-107665104D01*
X181834737Y-107692979D01*
X181914964Y-107735861D01*
X182058601Y-107779433D01*
X182170553Y-107790459D01*
X182170556Y-107790459D01*
X182207979Y-107794145D01*
X182245402Y-107790459D01*
X183510118Y-107790459D01*
X183547541Y-107794145D01*
X183584964Y-107790459D01*
X183584967Y-107790459D01*
X183696919Y-107779433D01*
X183840556Y-107735861D01*
X183972933Y-107665104D01*
X184088963Y-107569881D01*
X184112825Y-107540805D01*
X186846753Y-104806878D01*
X186875822Y-104783022D01*
X186921616Y-104727222D01*
X186971045Y-104666993D01*
X187025389Y-104565321D01*
X187041802Y-104534615D01*
X187085374Y-104390978D01*
X187096400Y-104279026D01*
X187096400Y-104279023D01*
X187100086Y-104241600D01*
X187096400Y-104204177D01*
X187096400Y-102328755D01*
X187228712Y-102302436D01*
X187390499Y-102235421D01*
X187536104Y-102138131D01*
X187659931Y-102014304D01*
X187757221Y-101868699D01*
X187824236Y-101706912D01*
X187858400Y-101535159D01*
X187858400Y-101360041D01*
X187824236Y-101188288D01*
X187757221Y-101026501D01*
X187731400Y-100987857D01*
X187731400Y-98818022D01*
X187735086Y-98780599D01*
X187731400Y-98743174D01*
X187720374Y-98631222D01*
X187676802Y-98487585D01*
X187606045Y-98355208D01*
X187510822Y-98239178D01*
X187481752Y-98215321D01*
X183882333Y-94615902D01*
X183976931Y-94521304D01*
X184074221Y-94375699D01*
X184141236Y-94213912D01*
X184147786Y-94180986D01*
X184180712Y-94174436D01*
X184342499Y-94107421D01*
X184488104Y-94010131D01*
X184611931Y-93886304D01*
X184709221Y-93740699D01*
X184776236Y-93578912D01*
X184810400Y-93407159D01*
X184810400Y-93232041D01*
X184776236Y-93060288D01*
X184709221Y-92898501D01*
X184683400Y-92859857D01*
X184683400Y-91452023D01*
X184687086Y-91414600D01*
X184683400Y-91377174D01*
X184672374Y-91265222D01*
X184628802Y-91121585D01*
X184587667Y-91044627D01*
X184558045Y-90989207D01*
X184488901Y-90904955D01*
X184462822Y-90873178D01*
X184433752Y-90849321D01*
X182586031Y-89001600D01*
X190176644Y-89001600D01*
X190118579Y-89088501D01*
X190051564Y-89250288D01*
X190045014Y-89283214D01*
X190012088Y-89289764D01*
X189850301Y-89356779D01*
X189704696Y-89454069D01*
X189580869Y-89577896D01*
X189483579Y-89723501D01*
X189416564Y-89885288D01*
X189410014Y-89918214D01*
X189377088Y-89924764D01*
X189215301Y-89991779D01*
X189069696Y-90089069D01*
X188945869Y-90212896D01*
X188848579Y-90358501D01*
X188781564Y-90520288D01*
X188747400Y-90692041D01*
X188747400Y-90867159D01*
X188781564Y-91038912D01*
X188848579Y-91200699D01*
X188874401Y-91239344D01*
X188874400Y-104458177D01*
X188870714Y-104495600D01*
X188874400Y-104533023D01*
X188874400Y-104533025D01*
X188885426Y-104644977D01*
X188928998Y-104788614D01*
X188945411Y-104819321D01*
X188999755Y-104920992D01*
X189031118Y-104959208D01*
X189094978Y-105037022D01*
X189124054Y-105060884D01*
X192119121Y-108055952D01*
X192142978Y-108085022D01*
X192172048Y-108108879D01*
X192259007Y-108180245D01*
X192329764Y-108218065D01*
X192391385Y-108251002D01*
X192535022Y-108294574D01*
X192646974Y-108305600D01*
X192646977Y-108305600D01*
X192684400Y-108309286D01*
X192721823Y-108305600D01*
X195517497Y-108305600D01*
X195554920Y-108309286D01*
X195592343Y-108305600D01*
X195592346Y-108305600D01*
X195704298Y-108294574D01*
X195847935Y-108251002D01*
X195980312Y-108180245D01*
X196096342Y-108085022D01*
X196120204Y-108055946D01*
X196513976Y-107662174D01*
X196520440Y-107663460D01*
X196757600Y-107663460D01*
X196990202Y-107617192D01*
X197209309Y-107526435D01*
X197406499Y-107394676D01*
X197574196Y-107226979D01*
X197705955Y-107029789D01*
X197796712Y-106810682D01*
X197808441Y-106751718D01*
X197880418Y-106781532D01*
X198113020Y-106827800D01*
X198350180Y-106827800D01*
X198582782Y-106781532D01*
X198801889Y-106690775D01*
X198999079Y-106559016D01*
X199166776Y-106391319D01*
X199298535Y-106194129D01*
X199389292Y-105975022D01*
X199435560Y-105742420D01*
X199435560Y-105505260D01*
X199403313Y-105343144D01*
X199603862Y-105303252D01*
X199822969Y-105212495D01*
X200020159Y-105080736D01*
X200187856Y-104913039D01*
X200319615Y-104715849D01*
X200410372Y-104496742D01*
X200456640Y-104264140D01*
X200456640Y-104026980D01*
X200455354Y-104020516D01*
X201070753Y-103405118D01*
X201099822Y-103381262D01*
X201127172Y-103347936D01*
X201195045Y-103265233D01*
X201264107Y-103136026D01*
X201265802Y-103132855D01*
X201309374Y-102989218D01*
X201320400Y-102877266D01*
X201320400Y-102877263D01*
X201324086Y-102839840D01*
X201320400Y-102802417D01*
X201320400Y-100850023D01*
X201324086Y-100812600D01*
X201319680Y-100767862D01*
X201309374Y-100663222D01*
X201265802Y-100519585D01*
X201212879Y-100420573D01*
X201195045Y-100387207D01*
X201123679Y-100300248D01*
X201099822Y-100271178D01*
X201070752Y-100247321D01*
X200708031Y-99884600D01*
X217104328Y-99884600D01*
X217116588Y-100009082D01*
X217152898Y-100128780D01*
X217211863Y-100239094D01*
X217291215Y-100335785D01*
X217387906Y-100415137D01*
X217498220Y-100474102D01*
X217617918Y-100510412D01*
X217742400Y-100522672D01*
X218306650Y-100519600D01*
X218465400Y-100360850D01*
X218465400Y-99161600D01*
X217266150Y-99161600D01*
X217107400Y-99320350D01*
X217104328Y-99884600D01*
X200708031Y-99884600D01*
X197358304Y-96534873D01*
X197349236Y-96489288D01*
X197282221Y-96327501D01*
X197184931Y-96181896D01*
X197061104Y-96058069D01*
X196915499Y-95960779D01*
X196753712Y-95893764D01*
X196581959Y-95859600D01*
X196406841Y-95859600D01*
X196235088Y-95893764D01*
X196073301Y-95960779D01*
X195930809Y-96055989D01*
X194843400Y-94968580D01*
X194843400Y-91049233D01*
X194847086Y-91011810D01*
X194843400Y-90974384D01*
X194832374Y-90862432D01*
X194788802Y-90718795D01*
X194741458Y-90630221D01*
X194718045Y-90586417D01*
X194677183Y-90536627D01*
X194622822Y-90470388D01*
X194593746Y-90446526D01*
X194545820Y-90398600D01*
X211418770Y-90398600D01*
X217150945Y-96130775D01*
X217128887Y-96203489D01*
X217100215Y-96494600D01*
X217128887Y-96785711D01*
X217213801Y-97065634D01*
X217351694Y-97323614D01*
X217537266Y-97549734D01*
X217567087Y-97574207D01*
X217498220Y-97595098D01*
X217387906Y-97654063D01*
X217291215Y-97733415D01*
X217211863Y-97830106D01*
X217152898Y-97940420D01*
X217116588Y-98060118D01*
X217104328Y-98184600D01*
X217107400Y-98748850D01*
X217266150Y-98907600D01*
X218465400Y-98907600D01*
X218465400Y-98887600D01*
X218719400Y-98887600D01*
X218719400Y-98907600D01*
X218739400Y-98907600D01*
X218739400Y-99161600D01*
X218719400Y-99161600D01*
X218719400Y-100360850D01*
X218878150Y-100519600D01*
X219442400Y-100522672D01*
X219566882Y-100510412D01*
X219686580Y-100474102D01*
X219796894Y-100415137D01*
X219893585Y-100335785D01*
X219972937Y-100239094D01*
X220031902Y-100128780D01*
X220052793Y-100059913D01*
X220077266Y-100089734D01*
X220303386Y-100275306D01*
X220561366Y-100413199D01*
X220841289Y-100498113D01*
X221059450Y-100519600D01*
X221205350Y-100519600D01*
X221423511Y-100498113D01*
X221703434Y-100413199D01*
X221961414Y-100275306D01*
X222187534Y-100089734D01*
X222373106Y-99863614D01*
X222510999Y-99605634D01*
X222595913Y-99325711D01*
X222624585Y-99034600D01*
X222595913Y-98743489D01*
X222510999Y-98463566D01*
X222373106Y-98205586D01*
X222187534Y-97979466D01*
X221961414Y-97793894D01*
X221906609Y-97764600D01*
X221961414Y-97735306D01*
X222187534Y-97549734D01*
X222373106Y-97323614D01*
X222510999Y-97065634D01*
X222595913Y-96785711D01*
X222624585Y-96494600D01*
X222595913Y-96203489D01*
X222510999Y-95923566D01*
X222373106Y-95665586D01*
X222187534Y-95439466D01*
X221961414Y-95253894D01*
X221906609Y-95224600D01*
X221961414Y-95195306D01*
X222187534Y-95009734D01*
X222373106Y-94783614D01*
X222510999Y-94525634D01*
X222595913Y-94245711D01*
X222624585Y-93954600D01*
X222595913Y-93663489D01*
X222510999Y-93383566D01*
X222373106Y-93125586D01*
X222187534Y-92899466D01*
X221961414Y-92713894D01*
X221906609Y-92684600D01*
X221961414Y-92655306D01*
X222187534Y-92469734D01*
X222373106Y-92243614D01*
X222510999Y-91985634D01*
X222595913Y-91705711D01*
X222624585Y-91414600D01*
X222595913Y-91123489D01*
X222510999Y-90843566D01*
X222373106Y-90585586D01*
X222187534Y-90359466D01*
X221961414Y-90173894D01*
X221906609Y-90144600D01*
X221961414Y-90115306D01*
X222187534Y-89929734D01*
X222373106Y-89703614D01*
X222510999Y-89445634D01*
X222595913Y-89165711D01*
X222624585Y-88874600D01*
X222595913Y-88583489D01*
X222510999Y-88303566D01*
X222373106Y-88045586D01*
X222187534Y-87819466D01*
X221961414Y-87633894D01*
X221906609Y-87604600D01*
X221961414Y-87575306D01*
X222187534Y-87389734D01*
X222373106Y-87163614D01*
X222510999Y-86905634D01*
X222595913Y-86625711D01*
X222624585Y-86334600D01*
X222595913Y-86043489D01*
X222510999Y-85763566D01*
X222373106Y-85505586D01*
X222187534Y-85279466D01*
X221961414Y-85093894D01*
X221703434Y-84956001D01*
X221423511Y-84871087D01*
X221205350Y-84849600D01*
X221059450Y-84849600D01*
X220841289Y-84871087D01*
X220768575Y-84893145D01*
X220427684Y-84552254D01*
X220403822Y-84523178D01*
X220287792Y-84427955D01*
X220155415Y-84357198D01*
X220011778Y-84313626D01*
X219899826Y-84302600D01*
X219899823Y-84302600D01*
X219862400Y-84298914D01*
X219824977Y-84302600D01*
X196556031Y-84302600D01*
X195408684Y-83155254D01*
X195384822Y-83126178D01*
X195268792Y-83030955D01*
X195136415Y-82960198D01*
X194992778Y-82916626D01*
X194880826Y-82905600D01*
X194880823Y-82905600D01*
X194843400Y-82901914D01*
X194805977Y-82905600D01*
X185380031Y-82905600D01*
X184232684Y-81758254D01*
X184208822Y-81729178D01*
X184092792Y-81633955D01*
X183960415Y-81563198D01*
X183816778Y-81519626D01*
X183704826Y-81508600D01*
X183704823Y-81508600D01*
X183667400Y-81504914D01*
X183629977Y-81508600D01*
X176236031Y-81508600D01*
X175342684Y-80615254D01*
X175318822Y-80586178D01*
X175202792Y-80490955D01*
X175070415Y-80420198D01*
X174926778Y-80376626D01*
X174814826Y-80365600D01*
X174814823Y-80365600D01*
X174777400Y-80361914D01*
X174739977Y-80365600D01*
X160759143Y-80365600D01*
X160720499Y-80339779D01*
X160558712Y-80272764D01*
X160386959Y-80238600D01*
X160211841Y-80238600D01*
X160040088Y-80272764D01*
X159878301Y-80339779D01*
X159732696Y-80437069D01*
X159608869Y-80560896D01*
X159511579Y-80706501D01*
X159444564Y-80868288D01*
X159410400Y-81040041D01*
X159410400Y-81215159D01*
X159444564Y-81386912D01*
X159494969Y-81508600D01*
X159444564Y-81630288D01*
X159410400Y-81802041D01*
X159410400Y-81977159D01*
X159444564Y-82148912D01*
X159494969Y-82270600D01*
X159444564Y-82392288D01*
X159410400Y-82564041D01*
X159410400Y-82739159D01*
X159444564Y-82910912D01*
X159494969Y-83032600D01*
X159444564Y-83154288D01*
X159410400Y-83326041D01*
X159410400Y-83501159D01*
X159444564Y-83672912D01*
X159494969Y-83794600D01*
X159444564Y-83916288D01*
X159410400Y-84088041D01*
X159410400Y-84263159D01*
X159444564Y-84434912D01*
X159494969Y-84556600D01*
X159444564Y-84678288D01*
X159410400Y-84850041D01*
X159410400Y-85025159D01*
X159444564Y-85196912D01*
X159494969Y-85318600D01*
X159444564Y-85440288D01*
X159410400Y-85612041D01*
X159410400Y-85787159D01*
X159444564Y-85958912D01*
X159494969Y-86080600D01*
X159444564Y-86202288D01*
X159410400Y-86374041D01*
X159410400Y-86549159D01*
X159444564Y-86720912D01*
X159494969Y-86842600D01*
X159444564Y-86964288D01*
X159410400Y-87136041D01*
X159410400Y-87311159D01*
X159444564Y-87482912D01*
X159494969Y-87604600D01*
X159444564Y-87726288D01*
X159410400Y-87898041D01*
X159410400Y-88073159D01*
X159423298Y-88138000D01*
X155651510Y-88138000D01*
X148907846Y-81394337D01*
X148884775Y-81366225D01*
X148772613Y-81274176D01*
X148644649Y-81205778D01*
X148505799Y-81163658D01*
X148397586Y-81153000D01*
X148397583Y-81153000D01*
X148361400Y-81149436D01*
X148325217Y-81153000D01*
X144160157Y-81153000D01*
X144083499Y-81101779D01*
X143921712Y-81034764D01*
X143749959Y-81000600D01*
X143574841Y-81000600D01*
X143403088Y-81034764D01*
X143241301Y-81101779D01*
X143164643Y-81153000D01*
X139761575Y-81153000D01*
X139725399Y-81149437D01*
X139689223Y-81153000D01*
X139689214Y-81153000D01*
X139581001Y-81163658D01*
X139442151Y-81205778D01*
X139314187Y-81274176D01*
X139202025Y-81366225D01*
X139178954Y-81394337D01*
X138912291Y-81661000D01*
X119695575Y-81661000D01*
X119659399Y-81657437D01*
X119623223Y-81661000D01*
X119623214Y-81661000D01*
X119515001Y-81671658D01*
X119376151Y-81713778D01*
X119248187Y-81782176D01*
X119136025Y-81874225D01*
X119112954Y-81902337D01*
X112759514Y-88255777D01*
X112669088Y-88273764D01*
X112507301Y-88340779D01*
X112361696Y-88438069D01*
X112237869Y-88561896D01*
X112140579Y-88707501D01*
X112073564Y-88869288D01*
X112039400Y-89041041D01*
X112039400Y-89216159D01*
X112073564Y-89387912D01*
X112140579Y-89549699D01*
X112141919Y-89551704D01*
X111999301Y-89610779D01*
X111853696Y-89708069D01*
X111729869Y-89831896D01*
X111632579Y-89977501D01*
X111565564Y-90139288D01*
X111531400Y-90311041D01*
X111531400Y-90486159D01*
X111565564Y-90657912D01*
X111632579Y-90819699D01*
X111703913Y-90926457D01*
X111273053Y-91357317D01*
X111243978Y-91381178D01*
X111148755Y-91497208D01*
X111077998Y-91629585D01*
X111034426Y-91773222D01*
X111028173Y-91836714D01*
X110997579Y-91882501D01*
X110930564Y-92044288D01*
X110896400Y-92216041D01*
X110896400Y-92391159D01*
X110930564Y-92562912D01*
X110997579Y-92724699D01*
X111094869Y-92870304D01*
X111218696Y-92994131D01*
X111259784Y-93021585D01*
X109056770Y-95224600D01*
X109030841Y-95224600D01*
X108859088Y-95258764D01*
X108697301Y-95325779D01*
X108551696Y-95423069D01*
X108427869Y-95546896D01*
X108330579Y-95692501D01*
X108263564Y-95854288D01*
X108229400Y-96026041D01*
X108229400Y-96201159D01*
X108263564Y-96372912D01*
X108330579Y-96534699D01*
X108331919Y-96536704D01*
X108189301Y-96595779D01*
X108043696Y-96693069D01*
X107919869Y-96816896D01*
X107822579Y-96962501D01*
X107755564Y-97124288D01*
X107729245Y-97256600D01*
X105054400Y-97256600D01*
X105054400Y-97169041D01*
X105020236Y-96997288D01*
X104953221Y-96835501D01*
X104855931Y-96689896D01*
X104732104Y-96566069D01*
X104586499Y-96468779D01*
X104424712Y-96401764D01*
X104252959Y-96367600D01*
X104077841Y-96367600D01*
X103906088Y-96401764D01*
X103744301Y-96468779D01*
X103705657Y-96494600D01*
X100011823Y-96494600D01*
X99974400Y-96490914D01*
X99936977Y-96494600D01*
X99936974Y-96494600D01*
X99825022Y-96505626D01*
X99681385Y-96549198D01*
X99649822Y-96566069D01*
X99549007Y-96619955D01*
X99475472Y-96680304D01*
X99432978Y-96715178D01*
X99409121Y-96744248D01*
X98724257Y-97429112D01*
X98617499Y-97357779D01*
X98455712Y-97290764D01*
X98283959Y-97256600D01*
X98108841Y-97256600D01*
X97937088Y-97290764D01*
X97775301Y-97357779D01*
X97629696Y-97455069D01*
X97505869Y-97578896D01*
X97408579Y-97724501D01*
X97341564Y-97886288D01*
X97332496Y-97931874D01*
X96033054Y-99231316D01*
X96003978Y-99255178D01*
X95967501Y-99299626D01*
X95908755Y-99371208D01*
X95884149Y-99417244D01*
X95837998Y-99503586D01*
X95794426Y-99647223D01*
X95784086Y-99752208D01*
X95779714Y-99796600D01*
X74480800Y-99796600D01*
X74480800Y-76935000D01*
X223010800Y-76935000D01*
X223010801Y-113181036D01*
X223010801Y-113181036D01*
G37*
X223010801Y-113181036D02*
X222934264Y-114666232D01*
X222708390Y-116116930D01*
X222334585Y-117536738D01*
X221816817Y-118910595D01*
X221160576Y-120223940D01*
X220372804Y-121462878D01*
X219461848Y-122614281D01*
X218437367Y-123665940D01*
X217310207Y-124606723D01*
X216092315Y-125426656D01*
X214796591Y-126117056D01*
X213436763Y-126670607D01*
X212027236Y-127081447D01*
X210582937Y-127345222D01*
X209105099Y-127460234D01*
X208740992Y-127465000D01*
X88764706Y-127465000D01*
X87279568Y-127388466D01*
X85828870Y-127162592D01*
X84409062Y-126788787D01*
X83035206Y-126271019D01*
X81721860Y-125614777D01*
X80482922Y-124827005D01*
X79331518Y-123916049D01*
X78279859Y-122891569D01*
X77339078Y-121764409D01*
X76519144Y-120546516D01*
X75828744Y-119250791D01*
X75275193Y-117890964D01*
X74972010Y-116850787D01*
X127469900Y-116850787D01*
X127469900Y-117038413D01*
X127506504Y-117222434D01*
X127578305Y-117395778D01*
X127682545Y-117551784D01*
X127815216Y-117684455D01*
X127971222Y-117788695D01*
X128144566Y-117860496D01*
X128328587Y-117897100D01*
X128516213Y-117897100D01*
X128700234Y-117860496D01*
X128873578Y-117788695D01*
X129021285Y-117690000D01*
X140878928Y-117690000D01*
X140891188Y-117814482D01*
X140927498Y-117934180D01*
X140986463Y-118044494D01*
X141065815Y-118141185D01*
X141162506Y-118220537D01*
X141272820Y-118279502D01*
X141392518Y-118315812D01*
X141517000Y-118328072D01*
X142081250Y-118325000D01*
X142240000Y-118166250D01*
X142240000Y-116967000D01*
X141040750Y-116967000D01*
X140882000Y-117125750D01*
X140878928Y-117690000D01*
X129021285Y-117690000D01*
X129029584Y-117684455D01*
X129162255Y-117551784D01*
X129266495Y-117395778D01*
X129338296Y-117222434D01*
X129358205Y-117122345D01*
X131393152Y-115087400D01*
X141104051Y-115087400D01*
X141126294Y-115129014D01*
X141311866Y-115355134D01*
X141341687Y-115379607D01*
X141272820Y-115400498D01*
X141162506Y-115459463D01*
X141065815Y-115538815D01*
X140986463Y-115635506D01*
X140927498Y-115745820D01*
X140891188Y-115865518D01*
X140878928Y-115990000D01*
X140882000Y-116554250D01*
X141040750Y-116713000D01*
X142240000Y-116713000D01*
X142240000Y-116693000D01*
X142494000Y-116693000D01*
X142494000Y-116713000D01*
X142514000Y-116713000D01*
X142514000Y-116967000D01*
X142494000Y-116967000D01*
X142494000Y-118166250D01*
X142652750Y-118325000D01*
X143217000Y-118328072D01*
X143341482Y-118315812D01*
X143461180Y-118279502D01*
X143571494Y-118220537D01*
X143668185Y-118141185D01*
X143747537Y-118044494D01*
X143806502Y-117934180D01*
X143827393Y-117865313D01*
X143851866Y-117895134D01*
X144077986Y-118080706D01*
X144335966Y-118218599D01*
X144615889Y-118303513D01*
X144834050Y-118325000D01*
X144979950Y-118325000D01*
X145198111Y-118303513D01*
X145478034Y-118218599D01*
X145736014Y-118080706D01*
X145962134Y-117895134D01*
X146147706Y-117669014D01*
X146182201Y-117604477D01*
X146251822Y-117721355D01*
X146446731Y-117937588D01*
X146680080Y-118111641D01*
X146942901Y-118236825D01*
X147090110Y-118281476D01*
X147320000Y-118160155D01*
X147320000Y-116967000D01*
X147300000Y-116967000D01*
X147300000Y-116713000D01*
X147320000Y-116713000D01*
X147320000Y-116693000D01*
X147574000Y-116693000D01*
X147574000Y-116713000D01*
X147594000Y-116713000D01*
X147594000Y-116967000D01*
X147574000Y-116967000D01*
X147574000Y-118160155D01*
X147803890Y-118281476D01*
X147951099Y-118236825D01*
X148213920Y-118111641D01*
X148447269Y-117937588D01*
X148642178Y-117721355D01*
X148711799Y-117604477D01*
X148746294Y-117669014D01*
X148931866Y-117895134D01*
X149157986Y-118080706D01*
X149415966Y-118218599D01*
X149695889Y-118303513D01*
X149914050Y-118325000D01*
X150059950Y-118325000D01*
X150278111Y-118303513D01*
X150378386Y-118273095D01*
X150812154Y-118706863D01*
X150835225Y-118734975D01*
X150947387Y-118827024D01*
X151075351Y-118895422D01*
X151214201Y-118937542D01*
X151322414Y-118948200D01*
X151322423Y-118948200D01*
X151358599Y-118951763D01*
X151394775Y-118948200D01*
X155691217Y-118948200D01*
X155727400Y-118951764D01*
X155763583Y-118948200D01*
X155763586Y-118948200D01*
X155871799Y-118937542D01*
X156010649Y-118895422D01*
X156138613Y-118827024D01*
X156250775Y-118734975D01*
X156273845Y-118706864D01*
X156984673Y-117996037D01*
X157012774Y-117972975D01*
X157035837Y-117944873D01*
X157035842Y-117944868D01*
X157104824Y-117860813D01*
X157129588Y-117814482D01*
X157173222Y-117732849D01*
X157215342Y-117593999D01*
X157226000Y-117485786D01*
X157226000Y-117485785D01*
X157229564Y-117449600D01*
X157226000Y-117413414D01*
X157226000Y-116738709D01*
X158563287Y-115401423D01*
X158653712Y-115383436D01*
X158815499Y-115316421D01*
X158961104Y-115219131D01*
X159084931Y-115095304D01*
X159182221Y-114949699D01*
X159249236Y-114787912D01*
X159283400Y-114616159D01*
X159283400Y-114441041D01*
X159249236Y-114269288D01*
X159182221Y-114107501D01*
X159084931Y-113961896D01*
X158961104Y-113838069D01*
X158815499Y-113740779D01*
X158653712Y-113673764D01*
X158648400Y-113672707D01*
X158648400Y-113552041D01*
X158614236Y-113380288D01*
X158547221Y-113218501D01*
X158449931Y-113072896D01*
X158326104Y-112949069D01*
X158180499Y-112851779D01*
X158018712Y-112784764D01*
X157846959Y-112750600D01*
X157671841Y-112750600D01*
X157500088Y-112784764D01*
X157338301Y-112851779D01*
X157192696Y-112949069D01*
X157068869Y-113072896D01*
X156971579Y-113218501D01*
X156904564Y-113380288D01*
X156886577Y-113470713D01*
X156488127Y-113869163D01*
X156445599Y-113728966D01*
X156307706Y-113470986D01*
X156122134Y-113244866D01*
X155896014Y-113059294D01*
X155638034Y-112921401D01*
X155358111Y-112836487D01*
X155139950Y-112815000D01*
X154994050Y-112815000D01*
X154775889Y-112836487D01*
X154495966Y-112921401D01*
X154237986Y-113059294D01*
X154011866Y-113244866D01*
X153826294Y-113470986D01*
X153797000Y-113525791D01*
X153767706Y-113470986D01*
X153582134Y-113244866D01*
X153356014Y-113059294D01*
X153098034Y-112921401D01*
X152818111Y-112836487D01*
X152599950Y-112815000D01*
X152454050Y-112815000D01*
X152235889Y-112836487D01*
X151955966Y-112921401D01*
X151697986Y-113059294D01*
X151471866Y-113244866D01*
X151286294Y-113470986D01*
X151251799Y-113535523D01*
X151182178Y-113418645D01*
X150987269Y-113202412D01*
X150753920Y-113028359D01*
X150491099Y-112903175D01*
X150343890Y-112858524D01*
X150114000Y-112979845D01*
X150114000Y-114173000D01*
X150134000Y-114173000D01*
X150134000Y-114427000D01*
X150114000Y-114427000D01*
X150114000Y-114447000D01*
X149860000Y-114447000D01*
X149860000Y-114427000D01*
X149840000Y-114427000D01*
X149840000Y-114173000D01*
X149860000Y-114173000D01*
X149860000Y-112979845D01*
X149630110Y-112858524D01*
X149482901Y-112903175D01*
X149220080Y-113028359D01*
X148986731Y-113202412D01*
X148791822Y-113418645D01*
X148722201Y-113535523D01*
X148687706Y-113470986D01*
X148502134Y-113244866D01*
X148276014Y-113059294D01*
X148018034Y-112921401D01*
X147738111Y-112836487D01*
X147519950Y-112815000D01*
X147374050Y-112815000D01*
X147155889Y-112836487D01*
X146875966Y-112921401D01*
X146617986Y-113059294D01*
X146391866Y-113244866D01*
X146206294Y-113470986D01*
X146171799Y-113535523D01*
X146102178Y-113418645D01*
X145907269Y-113202412D01*
X145673920Y-113028359D01*
X145411099Y-112903175D01*
X145263890Y-112858524D01*
X145034000Y-112979845D01*
X145034000Y-114173000D01*
X145054000Y-114173000D01*
X145054000Y-114427000D01*
X145034000Y-114427000D01*
X145034000Y-114447000D01*
X144780000Y-114447000D01*
X144780000Y-114427000D01*
X144760000Y-114427000D01*
X144760000Y-114173000D01*
X144780000Y-114173000D01*
X144780000Y-112979845D01*
X144550110Y-112858524D01*
X144402901Y-112903175D01*
X144140080Y-113028359D01*
X143906731Y-113202412D01*
X143711822Y-113418645D01*
X143642201Y-113535523D01*
X143607706Y-113470986D01*
X143422134Y-113244866D01*
X143196014Y-113059294D01*
X142938034Y-112921401D01*
X142658111Y-112836487D01*
X142439950Y-112815000D01*
X142294050Y-112815000D01*
X142075889Y-112836487D01*
X141795966Y-112921401D01*
X141537986Y-113059294D01*
X141311866Y-113244866D01*
X141126294Y-113470986D01*
X141104051Y-113512600D01*
X131105662Y-113512600D01*
X131066999Y-113508792D01*
X131028336Y-113512600D01*
X131028327Y-113512600D01*
X130912643Y-113523994D01*
X130764217Y-113569018D01*
X130627428Y-113642134D01*
X130627426Y-113642135D01*
X130627427Y-113642135D01*
X130537569Y-113715879D01*
X130537567Y-113715881D01*
X130507531Y-113740531D01*
X130482881Y-113770567D01*
X128244655Y-116008795D01*
X128144566Y-116028704D01*
X127971222Y-116100505D01*
X127815216Y-116204745D01*
X127682545Y-116337416D01*
X127578305Y-116493422D01*
X127506504Y-116666766D01*
X127469900Y-116850787D01*
X74972010Y-116850787D01*
X74864351Y-116481428D01*
X74600577Y-115037145D01*
X74485566Y-113559299D01*
X74480800Y-113195192D01*
X74480800Y-99796600D01*
X95779714Y-99796600D01*
X95783400Y-99834023D01*
X95783401Y-104331167D01*
X95779714Y-104368600D01*
X95794427Y-104517978D01*
X95837999Y-104661615D01*
X95908755Y-104793992D01*
X95973486Y-104872866D01*
X96003979Y-104910022D01*
X96033049Y-104933879D01*
X99155121Y-108055952D01*
X99178978Y-108085022D01*
X99295008Y-108180245D01*
X99427385Y-108251002D01*
X99571022Y-108294574D01*
X99682974Y-108305600D01*
X99682976Y-108305600D01*
X99720399Y-108309286D01*
X99757822Y-108305600D01*
X103079047Y-108305600D01*
X103116470Y-108309286D01*
X103153893Y-108305600D01*
X103153896Y-108305600D01*
X103265848Y-108294574D01*
X103409485Y-108251002D01*
X103541862Y-108180245D01*
X103657892Y-108085022D01*
X103681754Y-108055946D01*
X104743953Y-106993748D01*
X104773022Y-106969892D01*
X104800372Y-106936566D01*
X104868245Y-106853863D01*
X104920671Y-106755779D01*
X104939002Y-106721485D01*
X104982574Y-106577848D01*
X104983397Y-106569495D01*
X104999079Y-106559016D01*
X105166776Y-106391319D01*
X105298535Y-106194129D01*
X105389292Y-105975022D01*
X105435560Y-105742420D01*
X105435560Y-105505260D01*
X105403313Y-105343144D01*
X105603862Y-105303252D01*
X105822969Y-105212495D01*
X106020159Y-105080736D01*
X106187856Y-104913039D01*
X106319615Y-104715849D01*
X106410372Y-104496742D01*
X106456640Y-104264140D01*
X106456640Y-104026980D01*
X106410372Y-103794378D01*
X106319615Y-103575271D01*
X106187856Y-103378081D01*
X106158952Y-103349177D01*
X106236059Y-103297656D01*
X106403756Y-103129959D01*
X106535515Y-102932769D01*
X106626272Y-102713662D01*
X106657865Y-102554836D01*
X106762857Y-102544495D01*
X106906494Y-102500923D01*
X107038871Y-102430166D01*
X107154901Y-102334943D01*
X107178763Y-102305867D01*
X109753401Y-99731229D01*
X109753400Y-105093177D01*
X109749714Y-105130600D01*
X109753400Y-105168023D01*
X109753400Y-105168025D01*
X109764426Y-105279977D01*
X109807998Y-105423614D01*
X109821888Y-105449600D01*
X109878755Y-105555992D01*
X109903722Y-105586414D01*
X109973978Y-105672022D01*
X110003054Y-105695884D01*
X112289048Y-107981879D01*
X112289054Y-107981884D01*
X112871116Y-108563946D01*
X112894978Y-108593022D01*
X112954912Y-108642208D01*
X113011007Y-108688245D01*
X113081764Y-108726065D01*
X113143385Y-108759002D01*
X113287022Y-108802574D01*
X113398974Y-108813600D01*
X113398977Y-108813600D01*
X113436400Y-108817286D01*
X113473823Y-108813600D01*
X120002977Y-108813600D01*
X120040400Y-108817286D01*
X120077823Y-108813600D01*
X120077826Y-108813600D01*
X120189778Y-108802574D01*
X120333415Y-108759002D01*
X120465792Y-108688245D01*
X120581822Y-108593022D01*
X120605684Y-108563946D01*
X124847630Y-104322000D01*
X125925874Y-104322000D01*
X125961694Y-104389014D01*
X126147266Y-104615134D01*
X126373386Y-104800706D01*
X126631366Y-104938599D01*
X126911289Y-105023513D01*
X127129450Y-105045000D01*
X127275350Y-105045000D01*
X127493511Y-105023513D01*
X127773434Y-104938599D01*
X128031414Y-104800706D01*
X128257534Y-104615134D01*
X128282007Y-104585313D01*
X128302898Y-104654180D01*
X128361863Y-104764494D01*
X128441215Y-104861185D01*
X128537906Y-104940537D01*
X128648220Y-104999502D01*
X128767918Y-105035812D01*
X128892400Y-105048072D01*
X130592400Y-105048072D01*
X130716882Y-105035812D01*
X130836580Y-104999502D01*
X130946894Y-104940537D01*
X131043585Y-104861185D01*
X131122937Y-104764494D01*
X131181902Y-104654180D01*
X131218212Y-104534482D01*
X131230472Y-104410000D01*
X131230472Y-102710000D01*
X131218212Y-102585518D01*
X131181902Y-102465820D01*
X131122937Y-102355506D01*
X131043585Y-102258815D01*
X130956443Y-102187300D01*
X131043585Y-102115785D01*
X131122937Y-102019094D01*
X131181902Y-101908780D01*
X131218212Y-101789082D01*
X131230472Y-101664600D01*
X131230472Y-99964600D01*
X131218212Y-99840118D01*
X131181902Y-99720420D01*
X131122937Y-99610106D01*
X131043585Y-99513415D01*
X130946894Y-99434063D01*
X130836580Y-99375098D01*
X130716882Y-99338788D01*
X130592400Y-99326528D01*
X128892400Y-99326528D01*
X128767918Y-99338788D01*
X128648220Y-99375098D01*
X128537906Y-99434063D01*
X128441215Y-99513415D01*
X128361863Y-99610106D01*
X128302898Y-99720420D01*
X128282007Y-99789287D01*
X128257534Y-99759466D01*
X128031414Y-99573894D01*
X127773434Y-99436001D01*
X127493511Y-99351087D01*
X127275350Y-99329600D01*
X127129450Y-99329600D01*
X126911289Y-99351087D01*
X126631366Y-99436001D01*
X126373386Y-99573894D01*
X126147266Y-99759466D01*
X125961694Y-99985586D01*
X125823801Y-100243566D01*
X125738887Y-100523489D01*
X125710215Y-100814600D01*
X125718882Y-100902599D01*
X125702824Y-100902599D01*
X125665401Y-100898913D01*
X125627978Y-100902599D01*
X125627975Y-100902599D01*
X125516023Y-100913625D01*
X125372386Y-100957197D01*
X125359698Y-100963979D01*
X125240008Y-101027954D01*
X125210645Y-101052052D01*
X125123979Y-101123177D01*
X125100122Y-101152247D01*
X122834400Y-103417969D01*
X122834400Y-95794230D01*
X125715128Y-92913503D01*
X125760712Y-92904436D01*
X125922499Y-92837421D01*
X126068104Y-92740131D01*
X126191931Y-92616304D01*
X126289221Y-92470699D01*
X126356236Y-92308912D01*
X126362786Y-92275986D01*
X126395712Y-92269436D01*
X126557499Y-92202421D01*
X126703104Y-92105131D01*
X126826931Y-91981304D01*
X126924221Y-91835699D01*
X126991236Y-91673912D01*
X126995054Y-91654718D01*
X127064841Y-91668600D01*
X127239959Y-91668600D01*
X127411712Y-91634436D01*
X127573499Y-91567421D01*
X127719104Y-91470131D01*
X127842931Y-91346304D01*
X127940221Y-91200699D01*
X128007236Y-91038912D01*
X128041400Y-90867159D01*
X128041400Y-90692041D01*
X128007236Y-90520288D01*
X127956831Y-90398600D01*
X128001959Y-90398600D01*
X128173712Y-90364436D01*
X128335499Y-90297421D01*
X128442257Y-90226088D01*
X129565400Y-91349231D01*
X129565400Y-92208845D01*
X129478499Y-92150779D01*
X129316712Y-92083764D01*
X129144959Y-92049600D01*
X128969841Y-92049600D01*
X128798088Y-92083764D01*
X128636301Y-92150779D01*
X128490696Y-92248069D01*
X128366869Y-92371896D01*
X128269579Y-92517501D01*
X128202564Y-92679288D01*
X128168400Y-92851041D01*
X128168400Y-93026159D01*
X128202564Y-93197912D01*
X128269579Y-93359699D01*
X128320800Y-93436357D01*
X128320800Y-93791417D01*
X128317236Y-93827600D01*
X128320800Y-93863783D01*
X128320800Y-93863785D01*
X128331458Y-93971998D01*
X128373578Y-94110848D01*
X128441976Y-94238812D01*
X128534025Y-94350974D01*
X128562132Y-94374041D01*
X129304928Y-95116837D01*
X129255869Y-95165896D01*
X129158579Y-95311501D01*
X129091564Y-95473288D01*
X129057400Y-95645041D01*
X129057400Y-95820159D01*
X129091564Y-95991912D01*
X129158579Y-96153699D01*
X129255869Y-96299304D01*
X129379696Y-96423131D01*
X129525301Y-96520421D01*
X129687088Y-96587436D01*
X129858841Y-96621600D01*
X130033959Y-96621600D01*
X130045413Y-96619322D01*
X131495801Y-98069711D01*
X131495800Y-106237417D01*
X131492236Y-106273600D01*
X131495800Y-106309783D01*
X131495800Y-106309785D01*
X131506458Y-106417998D01*
X131548578Y-106556848D01*
X131616976Y-106684812D01*
X131678488Y-106759764D01*
X131709025Y-106796974D01*
X131737132Y-106820041D01*
X135749959Y-110832869D01*
X135773025Y-110860975D01*
X135885187Y-110953024D01*
X136013151Y-111021422D01*
X136151998Y-111063541D01*
X136152001Y-111063542D01*
X136296400Y-111077764D01*
X136332586Y-111074200D01*
X142610217Y-111074200D01*
X142646400Y-111077764D01*
X142682583Y-111074200D01*
X142682586Y-111074200D01*
X142790799Y-111063542D01*
X142929649Y-111021422D01*
X143057613Y-110953024D01*
X143169775Y-110860975D01*
X143192845Y-110832864D01*
X143967510Y-110058200D01*
X163868298Y-110058200D01*
X163855400Y-110123041D01*
X163855400Y-110298159D01*
X163889564Y-110469912D01*
X163956579Y-110631699D01*
X164053869Y-110777304D01*
X164177696Y-110901131D01*
X164323301Y-110998421D01*
X164485088Y-111065436D01*
X164515801Y-111071545D01*
X164515800Y-116189843D01*
X164464579Y-116266501D01*
X164397564Y-116428288D01*
X164363400Y-116600041D01*
X164363400Y-116775159D01*
X164397564Y-116946912D01*
X164464579Y-117108699D01*
X164561869Y-117254304D01*
X164685696Y-117378131D01*
X164831301Y-117475421D01*
X164993088Y-117542436D01*
X165164841Y-117576600D01*
X165339959Y-117576600D01*
X165511712Y-117542436D01*
X165673499Y-117475421D01*
X165819104Y-117378131D01*
X165942931Y-117254304D01*
X165983259Y-117193949D01*
X166146712Y-117161436D01*
X166308499Y-117094421D01*
X166454104Y-116997131D01*
X166577931Y-116873304D01*
X166675221Y-116727699D01*
X166742236Y-116565912D01*
X166776400Y-116394159D01*
X166776400Y-116219041D01*
X166742236Y-116047288D01*
X166675221Y-115885501D01*
X166624000Y-115808843D01*
X166624000Y-109357785D01*
X166627564Y-109321600D01*
X166624000Y-109285414D01*
X166624000Y-108930357D01*
X166675221Y-108853699D01*
X166742236Y-108691912D01*
X166776400Y-108520159D01*
X166776400Y-108345041D01*
X166742236Y-108173288D01*
X166675221Y-108011501D01*
X166659585Y-107988100D01*
X166675221Y-107964699D01*
X166742236Y-107802912D01*
X166776400Y-107631159D01*
X166776400Y-107456041D01*
X166742236Y-107284288D01*
X166675221Y-107122501D01*
X166577931Y-106976896D01*
X166454104Y-106853069D01*
X166308499Y-106755779D01*
X166146712Y-106688764D01*
X165974959Y-106654600D01*
X165799841Y-106654600D01*
X165628088Y-106688764D01*
X165466301Y-106755779D01*
X165320696Y-106853069D01*
X165196869Y-106976896D01*
X165099579Y-107122501D01*
X165032564Y-107284288D01*
X165014577Y-107374713D01*
X164312291Y-108077000D01*
X161097630Y-108077000D01*
X161384624Y-107790006D01*
X161529301Y-107886676D01*
X161691088Y-107953691D01*
X161862841Y-107987855D01*
X162037959Y-107987855D01*
X162209712Y-107953691D01*
X162371499Y-107886676D01*
X162517104Y-107789386D01*
X162640931Y-107665559D01*
X162738221Y-107519954D01*
X162805236Y-107358167D01*
X162814304Y-107312582D01*
X164361286Y-105765600D01*
X167967657Y-105765600D01*
X168006301Y-105791421D01*
X168168088Y-105858436D01*
X168339841Y-105892600D01*
X168514959Y-105892600D01*
X168686712Y-105858436D01*
X168848499Y-105791421D01*
X168994104Y-105694131D01*
X169117931Y-105570304D01*
X169215221Y-105424699D01*
X169282236Y-105262912D01*
X169316400Y-105091159D01*
X169316400Y-105048072D01*
X170592400Y-105048072D01*
X170716882Y-105035812D01*
X170836580Y-104999502D01*
X170946894Y-104940537D01*
X171043585Y-104861185D01*
X171122937Y-104764494D01*
X171181902Y-104654180D01*
X171218212Y-104534482D01*
X171230472Y-104410000D01*
X171230472Y-102710000D01*
X171218212Y-102585518D01*
X171181902Y-102465820D01*
X171122937Y-102355506D01*
X171043585Y-102258815D01*
X170956443Y-102187300D01*
X171043585Y-102115785D01*
X171122937Y-102019094D01*
X171181902Y-101908780D01*
X171218212Y-101789082D01*
X171230472Y-101664600D01*
X171230472Y-99964600D01*
X171218212Y-99840118D01*
X171181902Y-99720420D01*
X171122937Y-99610106D01*
X171043585Y-99513415D01*
X170946894Y-99434063D01*
X170836580Y-99375098D01*
X170716882Y-99338788D01*
X170592400Y-99326528D01*
X168892400Y-99326528D01*
X168767918Y-99338788D01*
X168648220Y-99375098D01*
X168537906Y-99434063D01*
X168441215Y-99513415D01*
X168361863Y-99610106D01*
X168302898Y-99720420D01*
X168282007Y-99789287D01*
X168257534Y-99759466D01*
X168031414Y-99573894D01*
X167773434Y-99436001D01*
X167493511Y-99351087D01*
X167275350Y-99329600D01*
X167129450Y-99329600D01*
X166911289Y-99351087D01*
X166631366Y-99436001D01*
X166373386Y-99573894D01*
X166147266Y-99759466D01*
X165961694Y-99985586D01*
X165823801Y-100243566D01*
X165738887Y-100523489D01*
X165710215Y-100814600D01*
X165718882Y-100902599D01*
X165707824Y-100902599D01*
X165670401Y-100898913D01*
X165632978Y-100902599D01*
X165632975Y-100902599D01*
X165521023Y-100913625D01*
X165377386Y-100957197D01*
X165364698Y-100963979D01*
X165245008Y-101027954D01*
X165215645Y-101052052D01*
X165128979Y-101123177D01*
X165105122Y-101152247D01*
X163982400Y-102274969D01*
X163982400Y-99858230D01*
X170927128Y-92913503D01*
X170972712Y-92904436D01*
X171134499Y-92837421D01*
X171280104Y-92740131D01*
X171403931Y-92616304D01*
X171501221Y-92470699D01*
X171568236Y-92308912D01*
X171574786Y-92275986D01*
X171607712Y-92269436D01*
X171769499Y-92202421D01*
X171915104Y-92105131D01*
X172038931Y-91981304D01*
X172136221Y-91835699D01*
X172203236Y-91673912D01*
X172229555Y-91541600D01*
X172920657Y-91541600D01*
X172959301Y-91567421D01*
X173121088Y-91634436D01*
X173292841Y-91668600D01*
X173467959Y-91668600D01*
X173639712Y-91634436D01*
X173761401Y-91584030D01*
X173761400Y-100987857D01*
X173735579Y-101026501D01*
X173668564Y-101188288D01*
X173634400Y-101360041D01*
X173634400Y-101535159D01*
X173668564Y-101706912D01*
X173735579Y-101868699D01*
X173832869Y-102014304D01*
X173956696Y-102138131D01*
X174102301Y-102235421D01*
X174264088Y-102302436D01*
X174396400Y-102328755D01*
X174396400Y-104204177D01*
X174392714Y-104241600D01*
X174396400Y-104279023D01*
X174396400Y-104279025D01*
X174407426Y-104390977D01*
X174450998Y-104534614D01*
X174476594Y-104582501D01*
X174521755Y-104666992D01*
X174530132Y-104677199D01*
X174616978Y-104783022D01*
X174646054Y-104806884D01*
X177379980Y-107540811D01*
X177403837Y-107569881D01*
X177432907Y-107593738D01*
X177519866Y-107665104D01*
X177572017Y-107692979D01*
X177652244Y-107735861D01*
X177795881Y-107779433D01*
X177907833Y-107790459D01*
X177907836Y-107790459D01*
X177945259Y-107794145D01*
X177982682Y-107790459D01*
X179239398Y-107790459D01*
X179276821Y-107794145D01*
X179314244Y-107790459D01*
X179314247Y-107790459D01*
X179426199Y-107779433D01*
X179569836Y-107735861D01*
X179702213Y-107665104D01*
X179708700Y-107659780D01*
X179727200Y-107663460D01*
X179964360Y-107663460D01*
X180196962Y-107617192D01*
X180416069Y-107526435D01*
X180613259Y-107394676D01*
X180742400Y-107265535D01*
X180871541Y-107394676D01*
X181068731Y-107526435D01*
X181287838Y-107617192D01*
X181520440Y-107663460D01*
X181757600Y-107663460D01*
X181776099Y-107659780D01*
X181782586Y-107665104D01*
X181834737Y-107692979D01*
X181914964Y-107735861D01*
X182058601Y-107779433D01*
X182170553Y-107790459D01*
X182170556Y-107790459D01*
X182207979Y-107794145D01*
X182245402Y-107790459D01*
X183510118Y-107790459D01*
X183547541Y-107794145D01*
X183584964Y-107790459D01*
X183584967Y-107790459D01*
X183696919Y-107779433D01*
X183840556Y-107735861D01*
X183972933Y-107665104D01*
X184088963Y-107569881D01*
X184112825Y-107540805D01*
X186846753Y-104806878D01*
X186875822Y-104783022D01*
X186921616Y-104727222D01*
X186971045Y-104666993D01*
X187025389Y-104565321D01*
X187041802Y-104534615D01*
X187085374Y-104390978D01*
X187096400Y-104279026D01*
X187096400Y-104279023D01*
X187100086Y-104241600D01*
X187096400Y-104204177D01*
X187096400Y-102328755D01*
X187228712Y-102302436D01*
X187390499Y-102235421D01*
X187536104Y-102138131D01*
X187659931Y-102014304D01*
X187757221Y-101868699D01*
X187824236Y-101706912D01*
X187858400Y-101535159D01*
X187858400Y-101360041D01*
X187824236Y-101188288D01*
X187757221Y-101026501D01*
X187731400Y-100987857D01*
X187731400Y-98818022D01*
X187735086Y-98780599D01*
X187731400Y-98743174D01*
X187720374Y-98631222D01*
X187676802Y-98487585D01*
X187606045Y-98355208D01*
X187510822Y-98239178D01*
X187481752Y-98215321D01*
X183882333Y-94615902D01*
X183976931Y-94521304D01*
X184074221Y-94375699D01*
X184141236Y-94213912D01*
X184147786Y-94180986D01*
X184180712Y-94174436D01*
X184342499Y-94107421D01*
X184488104Y-94010131D01*
X184611931Y-93886304D01*
X184709221Y-93740699D01*
X184776236Y-93578912D01*
X184810400Y-93407159D01*
X184810400Y-93232041D01*
X184776236Y-93060288D01*
X184709221Y-92898501D01*
X184683400Y-92859857D01*
X184683400Y-91452023D01*
X184687086Y-91414600D01*
X184683400Y-91377174D01*
X184672374Y-91265222D01*
X184628802Y-91121585D01*
X184587667Y-91044627D01*
X184558045Y-90989207D01*
X184488901Y-90904955D01*
X184462822Y-90873178D01*
X184433752Y-90849321D01*
X182586031Y-89001600D01*
X190176644Y-89001600D01*
X190118579Y-89088501D01*
X190051564Y-89250288D01*
X190045014Y-89283214D01*
X190012088Y-89289764D01*
X189850301Y-89356779D01*
X189704696Y-89454069D01*
X189580869Y-89577896D01*
X189483579Y-89723501D01*
X189416564Y-89885288D01*
X189410014Y-89918214D01*
X189377088Y-89924764D01*
X189215301Y-89991779D01*
X189069696Y-90089069D01*
X188945869Y-90212896D01*
X188848579Y-90358501D01*
X188781564Y-90520288D01*
X188747400Y-90692041D01*
X188747400Y-90867159D01*
X188781564Y-91038912D01*
X188848579Y-91200699D01*
X188874401Y-91239344D01*
X188874400Y-104458177D01*
X188870714Y-104495600D01*
X188874400Y-104533023D01*
X188874400Y-104533025D01*
X188885426Y-104644977D01*
X188928998Y-104788614D01*
X188945411Y-104819321D01*
X188999755Y-104920992D01*
X189031118Y-104959208D01*
X189094978Y-105037022D01*
X189124054Y-105060884D01*
X192119121Y-108055952D01*
X192142978Y-108085022D01*
X192172048Y-108108879D01*
X192259007Y-108180245D01*
X192329764Y-108218065D01*
X192391385Y-108251002D01*
X192535022Y-108294574D01*
X192646974Y-108305600D01*
X192646977Y-108305600D01*
X192684400Y-108309286D01*
X192721823Y-108305600D01*
X195517497Y-108305600D01*
X195554920Y-108309286D01*
X195592343Y-108305600D01*
X195592346Y-108305600D01*
X195704298Y-108294574D01*
X195847935Y-108251002D01*
X195980312Y-108180245D01*
X196096342Y-108085022D01*
X196120204Y-108055946D01*
X196513976Y-107662174D01*
X196520440Y-107663460D01*
X196757600Y-107663460D01*
X196990202Y-107617192D01*
X197209309Y-107526435D01*
X197406499Y-107394676D01*
X197574196Y-107226979D01*
X197705955Y-107029789D01*
X197796712Y-106810682D01*
X197808441Y-106751718D01*
X197880418Y-106781532D01*
X198113020Y-106827800D01*
X198350180Y-106827800D01*
X198582782Y-106781532D01*
X198801889Y-106690775D01*
X198999079Y-106559016D01*
X199166776Y-106391319D01*
X199298535Y-106194129D01*
X199389292Y-105975022D01*
X199435560Y-105742420D01*
X199435560Y-105505260D01*
X199403313Y-105343144D01*
X199603862Y-105303252D01*
X199822969Y-105212495D01*
X200020159Y-105080736D01*
X200187856Y-104913039D01*
X200319615Y-104715849D01*
X200410372Y-104496742D01*
X200456640Y-104264140D01*
X200456640Y-104026980D01*
X200455354Y-104020516D01*
X201070753Y-103405118D01*
X201099822Y-103381262D01*
X201127172Y-103347936D01*
X201195045Y-103265233D01*
X201264107Y-103136026D01*
X201265802Y-103132855D01*
X201309374Y-102989218D01*
X201320400Y-102877266D01*
X201320400Y-102877263D01*
X201324086Y-102839840D01*
X201320400Y-102802417D01*
X201320400Y-100850023D01*
X201324086Y-100812600D01*
X201319680Y-100767862D01*
X201309374Y-100663222D01*
X201265802Y-100519585D01*
X201212879Y-100420573D01*
X201195045Y-100387207D01*
X201123679Y-100300248D01*
X201099822Y-100271178D01*
X201070752Y-100247321D01*
X200708031Y-99884600D01*
X217104328Y-99884600D01*
X217116588Y-100009082D01*
X217152898Y-100128780D01*
X217211863Y-100239094D01*
X217291215Y-100335785D01*
X217387906Y-100415137D01*
X217498220Y-100474102D01*
X217617918Y-100510412D01*
X217742400Y-100522672D01*
X218306650Y-100519600D01*
X218465400Y-100360850D01*
X218465400Y-99161600D01*
X217266150Y-99161600D01*
X217107400Y-99320350D01*
X217104328Y-99884600D01*
X200708031Y-99884600D01*
X197358304Y-96534873D01*
X197349236Y-96489288D01*
X197282221Y-96327501D01*
X197184931Y-96181896D01*
X197061104Y-96058069D01*
X196915499Y-95960779D01*
X196753712Y-95893764D01*
X196581959Y-95859600D01*
X196406841Y-95859600D01*
X196235088Y-95893764D01*
X196073301Y-95960779D01*
X195930809Y-96055989D01*
X194843400Y-94968580D01*
X194843400Y-91049233D01*
X194847086Y-91011810D01*
X194843400Y-90974384D01*
X194832374Y-90862432D01*
X194788802Y-90718795D01*
X194741458Y-90630221D01*
X194718045Y-90586417D01*
X194677183Y-90536627D01*
X194622822Y-90470388D01*
X194593746Y-90446526D01*
X194545820Y-90398600D01*
X211418770Y-90398600D01*
X217150945Y-96130775D01*
X217128887Y-96203489D01*
X217100215Y-96494600D01*
X217128887Y-96785711D01*
X217213801Y-97065634D01*
X217351694Y-97323614D01*
X217537266Y-97549734D01*
X217567087Y-97574207D01*
X217498220Y-97595098D01*
X217387906Y-97654063D01*
X217291215Y-97733415D01*
X217211863Y-97830106D01*
X217152898Y-97940420D01*
X217116588Y-98060118D01*
X217104328Y-98184600D01*
X217107400Y-98748850D01*
X217266150Y-98907600D01*
X218465400Y-98907600D01*
X218465400Y-98887600D01*
X218719400Y-98887600D01*
X218719400Y-98907600D01*
X218739400Y-98907600D01*
X218739400Y-99161600D01*
X218719400Y-99161600D01*
X218719400Y-100360850D01*
X218878150Y-100519600D01*
X219442400Y-100522672D01*
X219566882Y-100510412D01*
X219686580Y-100474102D01*
X219796894Y-100415137D01*
X219893585Y-100335785D01*
X219972937Y-100239094D01*
X220031902Y-100128780D01*
X220052793Y-100059913D01*
X220077266Y-100089734D01*
X220303386Y-100275306D01*
X220561366Y-100413199D01*
X220841289Y-100498113D01*
X221059450Y-100519600D01*
X221205350Y-100519600D01*
X221423511Y-100498113D01*
X221703434Y-100413199D01*
X221961414Y-100275306D01*
X222187534Y-100089734D01*
X222373106Y-99863614D01*
X222510999Y-99605634D01*
X222595913Y-99325711D01*
X222624585Y-99034600D01*
X222595913Y-98743489D01*
X222510999Y-98463566D01*
X222373106Y-98205586D01*
X222187534Y-97979466D01*
X221961414Y-97793894D01*
X221906609Y-97764600D01*
X221961414Y-97735306D01*
X222187534Y-97549734D01*
X222373106Y-97323614D01*
X222510999Y-97065634D01*
X222595913Y-96785711D01*
X222624585Y-96494600D01*
X222595913Y-96203489D01*
X222510999Y-95923566D01*
X222373106Y-95665586D01*
X222187534Y-95439466D01*
X221961414Y-95253894D01*
X221906609Y-95224600D01*
X221961414Y-95195306D01*
X222187534Y-95009734D01*
X222373106Y-94783614D01*
X222510999Y-94525634D01*
X222595913Y-94245711D01*
X222624585Y-93954600D01*
X222595913Y-93663489D01*
X222510999Y-93383566D01*
X222373106Y-93125586D01*
X222187534Y-92899466D01*
X221961414Y-92713894D01*
X221906609Y-92684600D01*
X221961414Y-92655306D01*
X222187534Y-92469734D01*
X222373106Y-92243614D01*
X222510999Y-91985634D01*
X222595913Y-91705711D01*
X222624585Y-91414600D01*
X222595913Y-91123489D01*
X222510999Y-90843566D01*
X222373106Y-90585586D01*
X222187534Y-90359466D01*
X221961414Y-90173894D01*
X221906609Y-90144600D01*
X221961414Y-90115306D01*
X222187534Y-89929734D01*
X222373106Y-89703614D01*
X222510999Y-89445634D01*
X222595913Y-89165711D01*
X222624585Y-88874600D01*
X222595913Y-88583489D01*
X222510999Y-88303566D01*
X222373106Y-88045586D01*
X222187534Y-87819466D01*
X221961414Y-87633894D01*
X221906609Y-87604600D01*
X221961414Y-87575306D01*
X222187534Y-87389734D01*
X222373106Y-87163614D01*
X222510999Y-86905634D01*
X222595913Y-86625711D01*
X222624585Y-86334600D01*
X222595913Y-86043489D01*
X222510999Y-85763566D01*
X222373106Y-85505586D01*
X222187534Y-85279466D01*
X221961414Y-85093894D01*
X221703434Y-84956001D01*
X221423511Y-84871087D01*
X221205350Y-84849600D01*
X221059450Y-84849600D01*
X220841289Y-84871087D01*
X220768575Y-84893145D01*
X220427684Y-84552254D01*
X220403822Y-84523178D01*
X220287792Y-84427955D01*
X220155415Y-84357198D01*
X220011778Y-84313626D01*
X219899826Y-84302600D01*
X219899823Y-84302600D01*
X219862400Y-84298914D01*
X219824977Y-84302600D01*
X196556031Y-84302600D01*
X195408684Y-83155254D01*
X195384822Y-83126178D01*
X195268792Y-83030955D01*
X195136415Y-82960198D01*
X194992778Y-82916626D01*
X194880826Y-82905600D01*
X194880823Y-82905600D01*
X194843400Y-82901914D01*
X194805977Y-82905600D01*
X185380031Y-82905600D01*
X184232684Y-81758254D01*
X184208822Y-81729178D01*
X184092792Y-81633955D01*
X183960415Y-81563198D01*
X183816778Y-81519626D01*
X183704826Y-81508600D01*
X183704823Y-81508600D01*
X183667400Y-81504914D01*
X183629977Y-81508600D01*
X176236031Y-81508600D01*
X175342684Y-80615254D01*
X175318822Y-80586178D01*
X175202792Y-80490955D01*
X175070415Y-80420198D01*
X174926778Y-80376626D01*
X174814826Y-80365600D01*
X174814823Y-80365600D01*
X174777400Y-80361914D01*
X174739977Y-80365600D01*
X160759143Y-80365600D01*
X160720499Y-80339779D01*
X160558712Y-80272764D01*
X160386959Y-80238600D01*
X160211841Y-80238600D01*
X160040088Y-80272764D01*
X159878301Y-80339779D01*
X159732696Y-80437069D01*
X159608869Y-80560896D01*
X159511579Y-80706501D01*
X159444564Y-80868288D01*
X159410400Y-81040041D01*
X159410400Y-81215159D01*
X159444564Y-81386912D01*
X159494969Y-81508600D01*
X159444564Y-81630288D01*
X159410400Y-81802041D01*
X159410400Y-81977159D01*
X159444564Y-82148912D01*
X159494969Y-82270600D01*
X159444564Y-82392288D01*
X159410400Y-82564041D01*
X159410400Y-82739159D01*
X159444564Y-82910912D01*
X159494969Y-83032600D01*
X159444564Y-83154288D01*
X159410400Y-83326041D01*
X159410400Y-83501159D01*
X159444564Y-83672912D01*
X159494969Y-83794600D01*
X159444564Y-83916288D01*
X159410400Y-84088041D01*
X159410400Y-84263159D01*
X159444564Y-84434912D01*
X159494969Y-84556600D01*
X159444564Y-84678288D01*
X159410400Y-84850041D01*
X159410400Y-85025159D01*
X159444564Y-85196912D01*
X159494969Y-85318600D01*
X159444564Y-85440288D01*
X159410400Y-85612041D01*
X159410400Y-85787159D01*
X159444564Y-85958912D01*
X159494969Y-86080600D01*
X159444564Y-86202288D01*
X159410400Y-86374041D01*
X159410400Y-86549159D01*
X159444564Y-86720912D01*
X159494969Y-86842600D01*
X159444564Y-86964288D01*
X159410400Y-87136041D01*
X159410400Y-87311159D01*
X159444564Y-87482912D01*
X159494969Y-87604600D01*
X159444564Y-87726288D01*
X159410400Y-87898041D01*
X159410400Y-88073159D01*
X159423298Y-88138000D01*
X155651510Y-88138000D01*
X148907846Y-81394337D01*
X148884775Y-81366225D01*
X148772613Y-81274176D01*
X148644649Y-81205778D01*
X148505799Y-81163658D01*
X148397586Y-81153000D01*
X148397583Y-81153000D01*
X148361400Y-81149436D01*
X148325217Y-81153000D01*
X144160157Y-81153000D01*
X144083499Y-81101779D01*
X143921712Y-81034764D01*
X143749959Y-81000600D01*
X143574841Y-81000600D01*
X143403088Y-81034764D01*
X143241301Y-81101779D01*
X143164643Y-81153000D01*
X139761575Y-81153000D01*
X139725399Y-81149437D01*
X139689223Y-81153000D01*
X139689214Y-81153000D01*
X139581001Y-81163658D01*
X139442151Y-81205778D01*
X139314187Y-81274176D01*
X139202025Y-81366225D01*
X139178954Y-81394337D01*
X138912291Y-81661000D01*
X119695575Y-81661000D01*
X119659399Y-81657437D01*
X119623223Y-81661000D01*
X119623214Y-81661000D01*
X119515001Y-81671658D01*
X119376151Y-81713778D01*
X119248187Y-81782176D01*
X119136025Y-81874225D01*
X119112954Y-81902337D01*
X112759514Y-88255777D01*
X112669088Y-88273764D01*
X112507301Y-88340779D01*
X112361696Y-88438069D01*
X112237869Y-88561896D01*
X112140579Y-88707501D01*
X112073564Y-88869288D01*
X112039400Y-89041041D01*
X112039400Y-89216159D01*
X112073564Y-89387912D01*
X112140579Y-89549699D01*
X112141919Y-89551704D01*
X111999301Y-89610779D01*
X111853696Y-89708069D01*
X111729869Y-89831896D01*
X111632579Y-89977501D01*
X111565564Y-90139288D01*
X111531400Y-90311041D01*
X111531400Y-90486159D01*
X111565564Y-90657912D01*
X111632579Y-90819699D01*
X111703913Y-90926457D01*
X111273053Y-91357317D01*
X111243978Y-91381178D01*
X111148755Y-91497208D01*
X111077998Y-91629585D01*
X111034426Y-91773222D01*
X111028173Y-91836714D01*
X110997579Y-91882501D01*
X110930564Y-92044288D01*
X110896400Y-92216041D01*
X110896400Y-92391159D01*
X110930564Y-92562912D01*
X110997579Y-92724699D01*
X111094869Y-92870304D01*
X111218696Y-92994131D01*
X111259784Y-93021585D01*
X109056770Y-95224600D01*
X109030841Y-95224600D01*
X108859088Y-95258764D01*
X108697301Y-95325779D01*
X108551696Y-95423069D01*
X108427869Y-95546896D01*
X108330579Y-95692501D01*
X108263564Y-95854288D01*
X108229400Y-96026041D01*
X108229400Y-96201159D01*
X108263564Y-96372912D01*
X108330579Y-96534699D01*
X108331919Y-96536704D01*
X108189301Y-96595779D01*
X108043696Y-96693069D01*
X107919869Y-96816896D01*
X107822579Y-96962501D01*
X107755564Y-97124288D01*
X107729245Y-97256600D01*
X105054400Y-97256600D01*
X105054400Y-97169041D01*
X105020236Y-96997288D01*
X104953221Y-96835501D01*
X104855931Y-96689896D01*
X104732104Y-96566069D01*
X104586499Y-96468779D01*
X104424712Y-96401764D01*
X104252959Y-96367600D01*
X104077841Y-96367600D01*
X103906088Y-96401764D01*
X103744301Y-96468779D01*
X103705657Y-96494600D01*
X100011823Y-96494600D01*
X99974400Y-96490914D01*
X99936977Y-96494600D01*
X99936974Y-96494600D01*
X99825022Y-96505626D01*
X99681385Y-96549198D01*
X99649822Y-96566069D01*
X99549007Y-96619955D01*
X99475472Y-96680304D01*
X99432978Y-96715178D01*
X99409121Y-96744248D01*
X98724257Y-97429112D01*
X98617499Y-97357779D01*
X98455712Y-97290764D01*
X98283959Y-97256600D01*
X98108841Y-97256600D01*
X97937088Y-97290764D01*
X97775301Y-97357779D01*
X97629696Y-97455069D01*
X97505869Y-97578896D01*
X97408579Y-97724501D01*
X97341564Y-97886288D01*
X97332496Y-97931874D01*
X96033054Y-99231316D01*
X96003978Y-99255178D01*
X95967501Y-99299626D01*
X95908755Y-99371208D01*
X95884149Y-99417244D01*
X95837998Y-99503586D01*
X95794426Y-99647223D01*
X95784086Y-99752208D01*
X95779714Y-99796600D01*
X74480800Y-99796600D01*
X74480800Y-76935000D01*
X223010800Y-76935000D01*
X223010801Y-113181036D01*
G36*
X150647400Y-104458177D02*
G01*
X150643714Y-104495600D01*
X150647400Y-104533023D01*
X150647400Y-104533025D01*
X150658426Y-104644977D01*
X150701998Y-104788614D01*
X150718411Y-104819321D01*
X150772755Y-104920992D01*
X150804118Y-104959208D01*
X150867978Y-105037022D01*
X150897054Y-105060884D01*
X152617770Y-106781600D01*
X143906870Y-106781600D01*
X143939002Y-106721485D01*
X143982574Y-106577848D01*
X143983397Y-106569495D01*
X143999079Y-106559016D01*
X144166776Y-106391319D01*
X144298535Y-106194129D01*
X144389292Y-105975022D01*
X144435560Y-105742420D01*
X144435560Y-105505260D01*
X144403313Y-105343144D01*
X144603862Y-105303252D01*
X144822969Y-105212495D01*
X145020159Y-105080736D01*
X145187856Y-104913039D01*
X145319615Y-104715849D01*
X145410372Y-104496742D01*
X145456640Y-104264140D01*
X145456640Y-104026980D01*
X145410372Y-103794378D01*
X145319615Y-103575271D01*
X145187856Y-103378081D01*
X145158952Y-103349177D01*
X145236059Y-103297656D01*
X145403756Y-103129959D01*
X145535515Y-102932769D01*
X145626272Y-102713662D01*
X145672540Y-102481060D01*
X145672540Y-102243900D01*
X145671254Y-102237436D01*
X145953091Y-101955600D01*
X148704977Y-101955600D01*
X148742400Y-101959286D01*
X148779823Y-101955600D01*
X148779826Y-101955600D01*
X148891778Y-101944574D01*
X149035415Y-101901002D01*
X149167792Y-101830245D01*
X149283822Y-101735022D01*
X149307684Y-101705946D01*
X150647401Y-100366229D01*
X150647400Y-104458177D01*
X150647400Y-104458177D01*
G37*
X150647400Y-104458177D02*
X150643714Y-104495600D01*
X150647400Y-104533023D01*
X150647400Y-104533025D01*
X150658426Y-104644977D01*
X150701998Y-104788614D01*
X150718411Y-104819321D01*
X150772755Y-104920992D01*
X150804118Y-104959208D01*
X150867978Y-105037022D01*
X150897054Y-105060884D01*
X152617770Y-106781600D01*
X143906870Y-106781600D01*
X143939002Y-106721485D01*
X143982574Y-106577848D01*
X143983397Y-106569495D01*
X143999079Y-106559016D01*
X144166776Y-106391319D01*
X144298535Y-106194129D01*
X144389292Y-105975022D01*
X144435560Y-105742420D01*
X144435560Y-105505260D01*
X144403313Y-105343144D01*
X144603862Y-105303252D01*
X144822969Y-105212495D01*
X145020159Y-105080736D01*
X145187856Y-104913039D01*
X145319615Y-104715849D01*
X145410372Y-104496742D01*
X145456640Y-104264140D01*
X145456640Y-104026980D01*
X145410372Y-103794378D01*
X145319615Y-103575271D01*
X145187856Y-103378081D01*
X145158952Y-103349177D01*
X145236059Y-103297656D01*
X145403756Y-103129959D01*
X145535515Y-102932769D01*
X145626272Y-102713662D01*
X145672540Y-102481060D01*
X145672540Y-102243900D01*
X145671254Y-102237436D01*
X145953091Y-101955600D01*
X148704977Y-101955600D01*
X148742400Y-101959286D01*
X148779823Y-101955600D01*
X148779826Y-101955600D01*
X148891778Y-101944574D01*
X149035415Y-101901002D01*
X149167792Y-101830245D01*
X149283822Y-101735022D01*
X149307684Y-101705946D01*
X150647401Y-100366229D01*
X150647400Y-104458177D01*
G36*
X152479998Y-93915585D02*
G01*
X152436426Y-94059222D01*
X152428044Y-94144325D01*
X147918770Y-98653600D01*
X145248031Y-98653600D01*
X145064757Y-98470326D01*
X145085221Y-98439699D01*
X145152236Y-98277912D01*
X145186400Y-98106159D01*
X145186400Y-97931041D01*
X145152236Y-97759288D01*
X145085221Y-97597501D01*
X145059400Y-97558857D01*
X145059400Y-97445230D01*
X146416127Y-96088503D01*
X146461712Y-96079436D01*
X146623499Y-96012421D01*
X146769104Y-95915131D01*
X146892931Y-95791304D01*
X146990221Y-95645699D01*
X147057236Y-95483912D01*
X147091400Y-95312159D01*
X147091400Y-95139031D01*
X147213088Y-95189436D01*
X147384841Y-95223600D01*
X147559959Y-95223600D01*
X147731712Y-95189436D01*
X147893499Y-95122421D01*
X148039104Y-95025131D01*
X148162931Y-94901304D01*
X148260221Y-94755699D01*
X148327236Y-94593912D01*
X148353356Y-94462600D01*
X148958977Y-94462600D01*
X148996400Y-94466286D01*
X149033823Y-94462600D01*
X149033826Y-94462600D01*
X149145778Y-94451574D01*
X149289415Y-94408002D01*
X149421792Y-94337245D01*
X149537822Y-94242022D01*
X149561684Y-94212946D01*
X149947030Y-93827600D01*
X152527027Y-93827600D01*
X152479998Y-93915585D01*
X152479998Y-93915585D01*
G37*
X152479998Y-93915585D02*
X152436426Y-94059222D01*
X152428044Y-94144325D01*
X147918770Y-98653600D01*
X145248031Y-98653600D01*
X145064757Y-98470326D01*
X145085221Y-98439699D01*
X145152236Y-98277912D01*
X145186400Y-98106159D01*
X145186400Y-97931041D01*
X145152236Y-97759288D01*
X145085221Y-97597501D01*
X145059400Y-97558857D01*
X145059400Y-97445230D01*
X146416127Y-96088503D01*
X146461712Y-96079436D01*
X146623499Y-96012421D01*
X146769104Y-95915131D01*
X146892931Y-95791304D01*
X146990221Y-95645699D01*
X147057236Y-95483912D01*
X147091400Y-95312159D01*
X147091400Y-95139031D01*
X147213088Y-95189436D01*
X147384841Y-95223600D01*
X147559959Y-95223600D01*
X147731712Y-95189436D01*
X147893499Y-95122421D01*
X148039104Y-95025131D01*
X148162931Y-94901304D01*
X148260221Y-94755699D01*
X148327236Y-94593912D01*
X148353356Y-94462600D01*
X148958977Y-94462600D01*
X148996400Y-94466286D01*
X149033823Y-94462600D01*
X149033826Y-94462600D01*
X149145778Y-94451574D01*
X149289415Y-94408002D01*
X149421792Y-94337245D01*
X149537822Y-94242022D01*
X149561684Y-94212946D01*
X149947030Y-93827600D01*
X152527027Y-93827600D01*
X152479998Y-93915585D01*
G36*
X140321301Y-83312421D02*
G01*
X140483088Y-83379436D01*
X140654841Y-83413600D01*
X140829959Y-83413600D01*
X141001712Y-83379436D01*
X141163499Y-83312421D01*
X141240157Y-83261200D01*
X147802291Y-83261200D01*
X154418959Y-89877869D01*
X154442025Y-89905975D01*
X154470131Y-89929041D01*
X154470132Y-89929042D01*
X154532437Y-89980174D01*
X154554187Y-89998024D01*
X154682151Y-90066422D01*
X154756808Y-90089069D01*
X154821001Y-90108542D01*
X154965400Y-90122764D01*
X155001586Y-90119200D01*
X160009170Y-90119200D01*
X157951770Y-92176600D01*
X157059031Y-92176600D01*
X155276684Y-90394254D01*
X155252822Y-90365178D01*
X155136792Y-90269955D01*
X155004415Y-90199198D01*
X154860778Y-90155626D01*
X154748826Y-90144600D01*
X154748823Y-90144600D01*
X154711400Y-90140914D01*
X154673977Y-90144600D01*
X153859822Y-90144600D01*
X153822399Y-90140914D01*
X153784976Y-90144600D01*
X153784974Y-90144600D01*
X153673022Y-90155626D01*
X153529385Y-90199198D01*
X153397008Y-90269955D01*
X153280978Y-90365178D01*
X153257116Y-90394254D01*
X153227674Y-90423696D01*
X153182088Y-90432764D01*
X153020301Y-90499779D01*
X152874696Y-90597069D01*
X152750869Y-90720896D01*
X152653579Y-90866501D01*
X152586564Y-91028288D01*
X152560245Y-91160600D01*
X145392143Y-91160600D01*
X145353499Y-91134779D01*
X145191712Y-91067764D01*
X145019959Y-91033600D01*
X144844841Y-91033600D01*
X144673088Y-91067764D01*
X144511301Y-91134779D01*
X144365696Y-91232069D01*
X144241869Y-91355896D01*
X144144579Y-91501501D01*
X144077564Y-91663288D01*
X144043400Y-91835041D01*
X144043400Y-92010159D01*
X144077564Y-92181912D01*
X144144579Y-92343699D01*
X144160215Y-92367100D01*
X144144579Y-92390501D01*
X144077564Y-92552288D01*
X144043400Y-92724041D01*
X144043400Y-92899159D01*
X144077564Y-93070912D01*
X144144579Y-93232699D01*
X144241869Y-93378304D01*
X144272967Y-93409402D01*
X142838770Y-94843600D01*
X140549031Y-94843600D01*
X136423400Y-90717970D01*
X136423400Y-87515023D01*
X136427086Y-87477600D01*
X136423400Y-87440174D01*
X136412374Y-87328222D01*
X136368802Y-87184585D01*
X136327667Y-87107626D01*
X136298045Y-87052207D01*
X136226679Y-86965248D01*
X136202822Y-86936178D01*
X136173752Y-86912321D01*
X135210684Y-85949254D01*
X135186822Y-85920178D01*
X135070792Y-85824955D01*
X134938415Y-85754198D01*
X134794778Y-85710626D01*
X134682826Y-85699600D01*
X134682823Y-85699600D01*
X134645400Y-85695914D01*
X134607977Y-85699600D01*
X128357030Y-85699600D01*
X128225684Y-85568254D01*
X128201822Y-85539178D01*
X128085792Y-85443955D01*
X127953415Y-85373198D01*
X127809778Y-85329626D01*
X127697826Y-85318600D01*
X127697823Y-85318600D01*
X127660400Y-85314914D01*
X127622977Y-85318600D01*
X125563031Y-85318600D01*
X124498530Y-84254100D01*
X137614657Y-84254100D01*
X137653301Y-84279921D01*
X137815088Y-84346936D01*
X137986841Y-84381100D01*
X138161959Y-84381100D01*
X138333712Y-84346936D01*
X138495499Y-84279921D01*
X138641104Y-84182631D01*
X138764931Y-84058804D01*
X138862221Y-83913199D01*
X138929236Y-83751412D01*
X138950960Y-83642200D01*
X139375217Y-83642200D01*
X139411400Y-83645764D01*
X139447583Y-83642200D01*
X139447586Y-83642200D01*
X139555799Y-83631542D01*
X139694649Y-83589422D01*
X139822613Y-83521024D01*
X139934775Y-83428975D01*
X139957846Y-83400863D01*
X140097509Y-83261200D01*
X140244643Y-83261200D01*
X140321301Y-83312421D01*
X140321301Y-83312421D01*
G37*
X140321301Y-83312421D02*
X140483088Y-83379436D01*
X140654841Y-83413600D01*
X140829959Y-83413600D01*
X141001712Y-83379436D01*
X141163499Y-83312421D01*
X141240157Y-83261200D01*
X147802291Y-83261200D01*
X154418959Y-89877869D01*
X154442025Y-89905975D01*
X154470131Y-89929041D01*
X154470132Y-89929042D01*
X154532437Y-89980174D01*
X154554187Y-89998024D01*
X154682151Y-90066422D01*
X154756808Y-90089069D01*
X154821001Y-90108542D01*
X154965400Y-90122764D01*
X155001586Y-90119200D01*
X160009170Y-90119200D01*
X157951770Y-92176600D01*
X157059031Y-92176600D01*
X155276684Y-90394254D01*
X155252822Y-90365178D01*
X155136792Y-90269955D01*
X155004415Y-90199198D01*
X154860778Y-90155626D01*
X154748826Y-90144600D01*
X154748823Y-90144600D01*
X154711400Y-90140914D01*
X154673977Y-90144600D01*
X153859822Y-90144600D01*
X153822399Y-90140914D01*
X153784976Y-90144600D01*
X153784974Y-90144600D01*
X153673022Y-90155626D01*
X153529385Y-90199198D01*
X153397008Y-90269955D01*
X153280978Y-90365178D01*
X153257116Y-90394254D01*
X153227674Y-90423696D01*
X153182088Y-90432764D01*
X153020301Y-90499779D01*
X152874696Y-90597069D01*
X152750869Y-90720896D01*
X152653579Y-90866501D01*
X152586564Y-91028288D01*
X152560245Y-91160600D01*
X145392143Y-91160600D01*
X145353499Y-91134779D01*
X145191712Y-91067764D01*
X145019959Y-91033600D01*
X144844841Y-91033600D01*
X144673088Y-91067764D01*
X144511301Y-91134779D01*
X144365696Y-91232069D01*
X144241869Y-91355896D01*
X144144579Y-91501501D01*
X144077564Y-91663288D01*
X144043400Y-91835041D01*
X144043400Y-92010159D01*
X144077564Y-92181912D01*
X144144579Y-92343699D01*
X144160215Y-92367100D01*
X144144579Y-92390501D01*
X144077564Y-92552288D01*
X144043400Y-92724041D01*
X144043400Y-92899159D01*
X144077564Y-93070912D01*
X144144579Y-93232699D01*
X144241869Y-93378304D01*
X144272967Y-93409402D01*
X142838770Y-94843600D01*
X140549031Y-94843600D01*
X136423400Y-90717970D01*
X136423400Y-87515023D01*
X136427086Y-87477600D01*
X136423400Y-87440174D01*
X136412374Y-87328222D01*
X136368802Y-87184585D01*
X136327667Y-87107626D01*
X136298045Y-87052207D01*
X136226679Y-86965248D01*
X136202822Y-86936178D01*
X136173752Y-86912321D01*
X135210684Y-85949254D01*
X135186822Y-85920178D01*
X135070792Y-85824955D01*
X134938415Y-85754198D01*
X134794778Y-85710626D01*
X134682826Y-85699600D01*
X134682823Y-85699600D01*
X134645400Y-85695914D01*
X134607977Y-85699600D01*
X128357030Y-85699600D01*
X128225684Y-85568254D01*
X128201822Y-85539178D01*
X128085792Y-85443955D01*
X127953415Y-85373198D01*
X127809778Y-85329626D01*
X127697826Y-85318600D01*
X127697823Y-85318600D01*
X127660400Y-85314914D01*
X127622977Y-85318600D01*
X125563031Y-85318600D01*
X124498530Y-84254100D01*
X137614657Y-84254100D01*
X137653301Y-84279921D01*
X137815088Y-84346936D01*
X137986841Y-84381100D01*
X138161959Y-84381100D01*
X138333712Y-84346936D01*
X138495499Y-84279921D01*
X138641104Y-84182631D01*
X138764931Y-84058804D01*
X138862221Y-83913199D01*
X138929236Y-83751412D01*
X138950960Y-83642200D01*
X139375217Y-83642200D01*
X139411400Y-83645764D01*
X139447583Y-83642200D01*
X139447586Y-83642200D01*
X139555799Y-83631542D01*
X139694649Y-83589422D01*
X139822613Y-83521024D01*
X139934775Y-83428975D01*
X139957846Y-83400863D01*
X140097509Y-83261200D01*
X140244643Y-83261200D01*
X140321301Y-83312421D01*
M02*
