G04 #@! TF.GenerationSoftware,KiCad,Pcbnew,(5.1.0-0)*
G04 #@! TF.CreationDate,2019-05-10T01:21:28-05:00*
G04 #@! TF.ProjectId,IN-16,494e2d31-362e-46b6-9963-61645f706362,rev?*
G04 #@! TF.SameCoordinates,Original*
G04 #@! TF.FileFunction,Paste,Top*
G04 #@! TF.FilePolarity,Positive*
%FSLAX46Y46*%
G04 Gerber Fmt 4.6, Leading zero omitted, Abs format (unit mm)*
G04 Created by KiCad (PCBNEW (5.1.0-0)) date 2019-05-10 01:21:28*
%MOMM*%
%LPD*%
G04 APERTURE LIST*
%ADD10C,1.137920*%
G04 APERTURE END LIST*
D10*
X98232120Y-104145560D03*
X105252680Y-104145560D03*
X101742400Y-99060480D03*
X104831040Y-100683540D03*
X105468580Y-102362480D03*
X98653760Y-100683540D03*
X102639020Y-106459500D03*
X100845780Y-106459500D03*
X99253200Y-105623840D03*
X98016220Y-102362480D03*
X104231600Y-105623840D03*
X99999960Y-99492280D03*
X103484840Y-99492280D03*
X113232120Y-104145560D03*
X120252680Y-104145560D03*
X116742400Y-99060480D03*
X119831040Y-100683540D03*
X120468580Y-102362480D03*
X113653760Y-100683540D03*
X117639020Y-106459500D03*
X115845780Y-106459500D03*
X114253200Y-105623840D03*
X113016220Y-102362480D03*
X119231600Y-105623840D03*
X114999960Y-99492280D03*
X118484840Y-99492280D03*
X137232120Y-104145560D03*
X144252680Y-104145560D03*
X140742400Y-99060480D03*
X143831040Y-100683540D03*
X144468580Y-102362480D03*
X137653760Y-100683540D03*
X141639020Y-106459500D03*
X139845780Y-106459500D03*
X138253200Y-105623840D03*
X137016220Y-102362480D03*
X143231600Y-105623840D03*
X138999960Y-99492280D03*
X142484840Y-99492280D03*
X153232120Y-104145560D03*
X160252680Y-104145560D03*
X156742400Y-99060480D03*
X159831040Y-100683540D03*
X160468580Y-102362480D03*
X153653760Y-100683540D03*
X157639020Y-106459500D03*
X155845780Y-106459500D03*
X154253200Y-105623840D03*
X153016220Y-102362480D03*
X159231600Y-105623840D03*
X154999960Y-99492280D03*
X158484840Y-99492280D03*
X177232120Y-104145560D03*
X184252680Y-104145560D03*
X180742400Y-99060480D03*
X183831040Y-100683540D03*
X184468580Y-102362480D03*
X177653760Y-100683540D03*
X181639020Y-106459500D03*
X179845780Y-106459500D03*
X178253200Y-105623840D03*
X177016220Y-102362480D03*
X183231600Y-105623840D03*
X178999960Y-99492280D03*
X182484840Y-99492280D03*
X192232120Y-104145560D03*
X199252680Y-104145560D03*
X195742400Y-99060480D03*
X198831040Y-100683540D03*
X199468580Y-102362480D03*
X192653760Y-100683540D03*
X196639020Y-106459500D03*
X194845780Y-106459500D03*
X193253200Y-105623840D03*
X192016220Y-102362480D03*
X198231600Y-105623840D03*
X193999960Y-99492280D03*
X197484840Y-99492280D03*
M02*
