M48
; DRILL file {KiCad (5.1.0-0)} date Wednesday, May 22, 2019 at 12:58:48 AM
; FORMAT={-:-/ absolute / inch / decimal}
; #@! TF.CreationDate,2019-05-22T00:58:48-05:00
; #@! TF.GenerationSoftware,Kicad,Pcbnew,(5.1.0-0)
; #@! TF.FileFunction,Plated,1,4,PTH
FMAT,2
INCH
T1C0.0100
T2C0.0125
T3C0.0197
T4C0.0200
T5C0.0236
T6C0.0300
T7C0.0335
T8C0.0354
T9C0.0394
T10C0.0433
T11C0.0591
T12C0.1260
%
G90
G05
T1
X5.94Y-4.393
X5.9489Y-4.506
X5.9489Y-4.543
X5.9769Y-4.193
X5.9769Y-4.2877
X6.0021Y-4.6549
X6.092Y-4.084
X7.276Y-4.62
X7.276Y-4.655
X8.2155Y-4.14
X8.2465Y-4.14
T2
X2.901Y-3.93
X2.901Y-4.16
X3.026Y-4.315
X3.046Y-4.385
X3.071Y-4.77
X3.071Y-4.8
X3.071Y-4.83
X3.071Y-5.185
X3.101Y-4.675
X3.101Y-4.74
X3.121Y-4.705
X3.141Y-4.675
X3.141Y-4.74
X3.146Y-5.1
X3.221Y-5.1
X3.221Y-5.275
X3.296Y-5.1
X3.371Y-5.185
X3.891Y-5.075
X3.941Y-5.075
X3.991Y-5.075
X4.041Y-5.075
X4.091Y-5.075
X5.021Y-3.9119
X5.021Y-4.9119
X5.046Y-4.6119
X5.146Y-4.6119
X5.171Y-4.9119
X5.246Y-4.5381
X5.246Y-4.6119
X5.321Y-4.9119
X5.3584Y-4.6856
X5.396Y-4.13
X5.6399Y-4.5683
X5.6399Y-4.6116
X5.6399Y-4.6549
X5.6399Y-4.6982
X5.957Y-3.928
X6.0021Y-4.6982
X6.015Y-3.87
X6.057Y-4.451
X6.057Y-4.494
X6.061Y-4.335
X6.061Y-5.01
X6.074Y-3.928
X6.1091Y-4.4
X6.166Y-4.35
X6.186Y-4.4
X6.186Y-4.5
X6.186Y-4.6
X6.236Y-4.3
X6.266Y-4.4
X6.266Y-4.5
X6.266Y-4.6
X6.266Y-4.7
X6.2691Y-4.2
X6.271Y-3.575
X6.346Y-4.79
X6.376Y-4.3
X6.444Y-5.275
X6.446Y-4.11
X6.471Y-4.085
X6.491Y-5.121
X6.4991Y-3.945
X6.501Y-3.745
X6.501Y-4.775
X6.541Y-4.98
X6.5729Y-3.945
X6.5761Y-3.85
X6.581Y-4.14
X6.596Y-4.8331
X6.597Y-4.906
X6.601Y-4.115
X6.601Y-4.165
X6.611Y-4.195
X6.641Y-3.775
X6.671Y-3.9268
X6.676Y-4.845
X6.6829Y-4.9831
X6.686Y-4.07
X6.691Y-4.7
X6.7033Y-4.825
X6.706Y-4.53
X6.721Y-4.07
X6.746Y-3.925
X6.756Y-4.07
X6.766Y-4.9
X6.771Y-3.82
X6.7841Y-5.05
X6.7925Y-4.3835
X6.796Y-4.475
X6.821Y-3.9268
X6.846Y-4.59
X6.856Y-4.275
X6.856Y-4.56
X6.8579Y-5.05
X6.876Y-4.535
X6.9059Y-4.5251
X6.911Y-4.76
X6.911Y-4.81
X6.936Y-4.74
X6.941Y-4.525
X6.941Y-4.82
X6.951Y-4.02
X6.951Y-4.85
X7.001Y-4.29
X7.011Y-4.155
X7.021Y-4.53
X7.021Y-4.565
X7.031Y-5.05
X7.036Y-4.65
X7.036Y-4.685
X7.041Y-4.14
X7.046Y-4.715
X7.051Y-4.995
X7.056Y-4.745
X7.061Y-4.625
X7.071Y-4.125
X7.086Y-4.6
X7.091Y-4.745
X7.106Y-4.08
X7.106Y-4.12
X7.116Y-4.61
X7.131Y-4.45
X7.1341Y-5.05
X7.136Y-4.58
X7.141Y-4.635
X7.146Y-4.9
X7.206Y-4.115
X7.2079Y-5.05
X7.231Y-4.195
X7.2435Y-4.67
X7.376Y-4.155
X7.421Y-4.5131
X7.421Y-4.59
X7.436Y-4.0019
X7.436Y-4.055
X7.481Y-4.685
X7.521Y-4.715
X7.551Y-3.98
X7.561Y-4.71
X7.561Y-4.745
X7.576Y-3.96
X7.591Y-3.93
X7.591Y-3.99
X7.606Y-3.9
X7.606Y-4.79
X7.626Y-4.725
X7.646Y-3.905
X7.646Y-4.455
X7.661Y-4.255
X7.6725Y-5.03
X7.871Y-4.8
X7.946Y-4.1119
X7.946Y-4.238
X7.9673Y-4.8437
X7.976Y-4.775
X7.996Y-4.645
X8.021Y-3.95
X8.021Y-4.9369
X8.046Y-4.1119
X8.066Y-4.525
X8.096Y-4.285
X8.096Y-4.845
X8.096Y-4.96
X8.121Y-5.055
X8.146Y-4.665
X8.146Y-4.71
X8.271Y-4.845
X8.271Y-5.055
X8.296Y-4.35
X8.341Y-4.705
X8.341Y-4.86
X8.346Y-4.105
T3
X2.8265Y-5.1
X2.8542Y-5.0332
X2.8542Y-5.1668
X2.921Y-5.0055
X8.4042Y-3.7418
X2.8542Y-3.6082
X2.921Y-3.5805
X2.9878Y-3.6082
X2.921Y-5.1945
X2.9878Y-5.1668
X3.0155Y-5.1
X2.8265Y-3.675
X2.8542Y-3.7418
X2.921Y-3.7695
X2.9878Y-3.7418
X2.9878Y-5.0332
X8.3765Y-3.675
X8.4042Y-3.6082
X8.471Y-3.5805
X8.471Y-3.7695
X8.5378Y-3.6082
X8.5378Y-3.7418
X8.5655Y-3.675
X3.0155Y-3.675
X8.3765Y-5.1
X8.4042Y-5.0332
X8.4042Y-5.1668
X8.471Y-5.0055
X8.471Y-5.1945
X8.5378Y-5.0332
X8.5378Y-5.1668
X8.5655Y-5.1
T4
X5.171Y-3.8
X5.171Y-3.9
X5.221Y-3.85
X5.271Y-3.8
X5.271Y-3.9
X6.1685Y-4.82
T6
X4.796Y-3.65
T7
X8.4884Y-4.0016
X8.4884Y-4.1984
T8
X6.096Y-5.2
X6.196Y-5.2
X5.596Y-5.275
X5.696Y-5.275
X5.171Y-5.2
X5.221Y-5.2
X5.271Y-5.2
X5.321Y-5.2
X5.796Y-5.275
T9
X7.121Y-3.625
X7.121Y-3.725
X7.221Y-3.625
X7.221Y-3.725
X7.321Y-3.625
X7.321Y-3.725
X6.421Y-3.625
X6.521Y-3.625
X6.621Y-3.625
X8.446Y-4.475
X8.446Y-4.575
X8.446Y-4.675
X8.446Y-4.775
X8.446Y-4.875
X8.546Y-4.475
X8.546Y-4.575
X8.546Y-4.675
X8.546Y-4.775
X8.546Y-4.875
X4.271Y-4.75
X4.5702Y-4.75
X7.521Y-3.625
X7.521Y-3.725
X7.621Y-3.625
X7.621Y-3.725
X7.721Y-3.625
X7.721Y-3.725
X7.821Y-3.625
X7.821Y-3.725
X7.921Y-3.625
X7.921Y-3.725
X8.021Y-3.625
X8.021Y-3.725
X8.121Y-3.625
X8.121Y-3.725
X8.221Y-3.625
X5.446Y-5.0
X5.446Y-5.1
X5.546Y-5.0
X5.546Y-5.1
X5.646Y-5.0
X5.646Y-5.1
X5.746Y-5.0
X5.746Y-5.1
X5.846Y-5.0
X5.846Y-5.1
X5.946Y-5.0
X5.946Y-5.1
X6.721Y-3.625
X7.521Y-3.825
X7.621Y-3.825
X7.721Y-3.825
X7.821Y-3.825
X7.921Y-3.825
X8.021Y-3.825
X8.121Y-3.825
X8.221Y-3.725
X6.821Y-3.625
X6.921Y-3.625
T10
X3.296Y-4.425
X3.296Y-4.525
X3.296Y-4.625
T11
X4.7241Y-4.275
X4.921Y-4.275
T12
X2.921Y-5.1
X8.471Y-3.675
X8.471Y-5.1
X2.921Y-3.675
T5
G00X8.5809Y-3.9622
M15
G01X8.6085Y-3.9622
M16
G05
G00X8.6085Y-4.2378
M15
G01X8.5809Y-4.2378
M16
G05
T9
G00X3.936Y-3.8925
M15
G01X3.936Y-3.9713
M16
G05
G00X4.1604Y-3.8138
M15
G01X4.0816Y-3.8138
M16
G05
G00X4.1604Y-4.05
M15
G01X4.0816Y-4.05
M16
G05
T0
M30
