G04 #@! TF.GenerationSoftware,KiCad,Pcbnew,(5.1.0-0)*
G04 #@! TF.CreationDate,2019-05-10T01:12:34-05:00*
G04 #@! TF.ProjectId,IN-12,494e2d31-322e-46b6-9963-61645f706362,rev?*
G04 #@! TF.SameCoordinates,Original*
G04 #@! TF.FileFunction,Soldermask,Top*
G04 #@! TF.FilePolarity,Negative*
%FSLAX46Y46*%
G04 Gerber Fmt 4.6, Leading zero omitted, Abs format (unit mm)*
G04 Created by KiCad (PCBNEW (5.1.0-0)) date 2019-05-10 01:12:34*
%MOMM*%
%LPD*%
G04 APERTURE LIST*
%ADD10C,0.100000*%
G04 APERTURE END LIST*
D10*
G36*
X155180762Y-118458145D02*
G01*
X155268988Y-118466834D01*
X155438789Y-118518343D01*
X155438792Y-118518344D01*
X155595278Y-118601988D01*
X155732444Y-118714556D01*
X155845012Y-118851722D01*
X155928656Y-119008208D01*
X155928657Y-119008211D01*
X155980166Y-119178012D01*
X155997558Y-119354600D01*
X155980166Y-119531188D01*
X155962277Y-119590159D01*
X155928656Y-119700992D01*
X155845012Y-119857478D01*
X155732444Y-119994644D01*
X155595278Y-120107212D01*
X155438792Y-120190856D01*
X155438789Y-120190857D01*
X155268988Y-120242366D01*
X155180762Y-120251055D01*
X155136650Y-120255400D01*
X155048150Y-120255400D01*
X155004038Y-120251055D01*
X154915812Y-120242366D01*
X154746011Y-120190857D01*
X154746008Y-120190856D01*
X154589522Y-120107212D01*
X154452356Y-119994644D01*
X154339788Y-119857478D01*
X154256144Y-119700992D01*
X154222523Y-119590159D01*
X154204634Y-119531188D01*
X154187242Y-119354600D01*
X154204634Y-119178012D01*
X154256143Y-119008211D01*
X154256144Y-119008208D01*
X154339788Y-118851722D01*
X154452356Y-118714556D01*
X154589522Y-118601988D01*
X154746008Y-118518344D01*
X154746011Y-118518343D01*
X154915812Y-118466834D01*
X155004038Y-118458145D01*
X155048150Y-118453800D01*
X155136650Y-118453800D01*
X155180762Y-118458145D01*
X155180762Y-118458145D01*
G37*
G36*
X152640762Y-118458145D02*
G01*
X152728988Y-118466834D01*
X152898789Y-118518343D01*
X152898792Y-118518344D01*
X153055278Y-118601988D01*
X153192444Y-118714556D01*
X153305012Y-118851722D01*
X153388656Y-119008208D01*
X153388657Y-119008211D01*
X153440166Y-119178012D01*
X153457558Y-119354600D01*
X153440166Y-119531188D01*
X153422277Y-119590159D01*
X153388656Y-119700992D01*
X153305012Y-119857478D01*
X153192444Y-119994644D01*
X153055278Y-120107212D01*
X152898792Y-120190856D01*
X152898789Y-120190857D01*
X152728988Y-120242366D01*
X152640762Y-120251055D01*
X152596650Y-120255400D01*
X152508150Y-120255400D01*
X152464038Y-120251055D01*
X152375812Y-120242366D01*
X152206011Y-120190857D01*
X152206008Y-120190856D01*
X152049522Y-120107212D01*
X151912356Y-119994644D01*
X151799788Y-119857478D01*
X151716144Y-119700992D01*
X151682523Y-119590159D01*
X151664634Y-119531188D01*
X151647242Y-119354600D01*
X151664634Y-119178012D01*
X151716143Y-119008211D01*
X151716144Y-119008208D01*
X151799788Y-118851722D01*
X151912356Y-118714556D01*
X152049522Y-118601988D01*
X152206008Y-118518344D01*
X152206011Y-118518343D01*
X152375812Y-118466834D01*
X152464038Y-118458145D01*
X152508150Y-118453800D01*
X152596650Y-118453800D01*
X152640762Y-118458145D01*
X152640762Y-118458145D01*
G37*
G36*
X150100762Y-118458145D02*
G01*
X150188988Y-118466834D01*
X150358789Y-118518343D01*
X150358792Y-118518344D01*
X150515278Y-118601988D01*
X150652444Y-118714556D01*
X150765012Y-118851722D01*
X150848656Y-119008208D01*
X150848657Y-119008211D01*
X150900166Y-119178012D01*
X150917558Y-119354600D01*
X150900166Y-119531188D01*
X150882277Y-119590159D01*
X150848656Y-119700992D01*
X150765012Y-119857478D01*
X150652444Y-119994644D01*
X150515278Y-120107212D01*
X150358792Y-120190856D01*
X150358789Y-120190857D01*
X150188988Y-120242366D01*
X150100762Y-120251055D01*
X150056650Y-120255400D01*
X149968150Y-120255400D01*
X149924038Y-120251055D01*
X149835812Y-120242366D01*
X149666011Y-120190857D01*
X149666008Y-120190856D01*
X149509522Y-120107212D01*
X149372356Y-119994644D01*
X149259788Y-119857478D01*
X149176144Y-119700992D01*
X149142523Y-119590159D01*
X149124634Y-119531188D01*
X149107242Y-119354600D01*
X149124634Y-119178012D01*
X149176143Y-119008211D01*
X149176144Y-119008208D01*
X149259788Y-118851722D01*
X149372356Y-118714556D01*
X149509522Y-118601988D01*
X149666008Y-118518344D01*
X149666011Y-118518343D01*
X149835812Y-118466834D01*
X149924038Y-118458145D01*
X149968150Y-118453800D01*
X150056650Y-118453800D01*
X150100762Y-118458145D01*
X150100762Y-118458145D01*
G37*
G36*
X147560762Y-118458145D02*
G01*
X147648988Y-118466834D01*
X147818789Y-118518343D01*
X147818792Y-118518344D01*
X147975278Y-118601988D01*
X148112444Y-118714556D01*
X148225012Y-118851722D01*
X148308656Y-119008208D01*
X148308657Y-119008211D01*
X148360166Y-119178012D01*
X148377558Y-119354600D01*
X148360166Y-119531188D01*
X148342277Y-119590159D01*
X148308656Y-119700992D01*
X148225012Y-119857478D01*
X148112444Y-119994644D01*
X147975278Y-120107212D01*
X147818792Y-120190856D01*
X147818789Y-120190857D01*
X147648988Y-120242366D01*
X147560762Y-120251055D01*
X147516650Y-120255400D01*
X147428150Y-120255400D01*
X147384038Y-120251055D01*
X147295812Y-120242366D01*
X147126011Y-120190857D01*
X147126008Y-120190856D01*
X146969522Y-120107212D01*
X146832356Y-119994644D01*
X146719788Y-119857478D01*
X146636144Y-119700992D01*
X146602523Y-119590159D01*
X146584634Y-119531188D01*
X146567242Y-119354600D01*
X146584634Y-119178012D01*
X146636143Y-119008211D01*
X146636144Y-119008208D01*
X146719788Y-118851722D01*
X146832356Y-118714556D01*
X146969522Y-118601988D01*
X147126008Y-118518344D01*
X147126011Y-118518343D01*
X147295812Y-118466834D01*
X147384038Y-118458145D01*
X147428150Y-118453800D01*
X147516650Y-118453800D01*
X147560762Y-118458145D01*
X147560762Y-118458145D01*
G37*
G36*
X145020762Y-118458145D02*
G01*
X145108988Y-118466834D01*
X145278789Y-118518343D01*
X145278792Y-118518344D01*
X145435278Y-118601988D01*
X145572444Y-118714556D01*
X145685012Y-118851722D01*
X145768656Y-119008208D01*
X145768657Y-119008211D01*
X145820166Y-119178012D01*
X145837558Y-119354600D01*
X145820166Y-119531188D01*
X145802277Y-119590159D01*
X145768656Y-119700992D01*
X145685012Y-119857478D01*
X145572444Y-119994644D01*
X145435278Y-120107212D01*
X145278792Y-120190856D01*
X145278789Y-120190857D01*
X145108988Y-120242366D01*
X145020762Y-120251055D01*
X144976650Y-120255400D01*
X144888150Y-120255400D01*
X144844038Y-120251055D01*
X144755812Y-120242366D01*
X144586011Y-120190857D01*
X144586008Y-120190856D01*
X144429522Y-120107212D01*
X144292356Y-119994644D01*
X144179788Y-119857478D01*
X144096144Y-119700992D01*
X144062523Y-119590159D01*
X144044634Y-119531188D01*
X144027242Y-119354600D01*
X144044634Y-119178012D01*
X144096143Y-119008211D01*
X144096144Y-119008208D01*
X144179788Y-118851722D01*
X144292356Y-118714556D01*
X144429522Y-118601988D01*
X144586008Y-118518344D01*
X144586011Y-118518343D01*
X144755812Y-118466834D01*
X144844038Y-118458145D01*
X144888150Y-118453800D01*
X144976650Y-118453800D01*
X145020762Y-118458145D01*
X145020762Y-118458145D01*
G37*
G36*
X143293200Y-120255400D02*
G01*
X141491600Y-120255400D01*
X141491600Y-118453800D01*
X143293200Y-118453800D01*
X143293200Y-120255400D01*
X143293200Y-120255400D01*
G37*
G36*
X220277222Y-113714126D02*
G01*
X220855389Y-113953611D01*
X220868831Y-113959179D01*
X221401264Y-114314939D01*
X221854061Y-114767736D01*
X222192627Y-115274437D01*
X222209822Y-115300171D01*
X222454874Y-115891778D01*
X222579800Y-116519823D01*
X222579800Y-117160177D01*
X222454874Y-117788222D01*
X222331424Y-118086256D01*
X222209821Y-118379831D01*
X221854061Y-118912264D01*
X221401264Y-119365061D01*
X220868831Y-119720821D01*
X220868830Y-119720822D01*
X220868829Y-119720822D01*
X220277222Y-119965874D01*
X219649177Y-120090800D01*
X219008823Y-120090800D01*
X218380778Y-119965874D01*
X217789171Y-119720822D01*
X217789170Y-119720822D01*
X217789169Y-119720821D01*
X217256736Y-119365061D01*
X216803939Y-118912264D01*
X216448179Y-118379831D01*
X216326576Y-118086256D01*
X216203126Y-117788222D01*
X216078200Y-117160177D01*
X216078200Y-116519823D01*
X216203126Y-115891778D01*
X216448178Y-115300171D01*
X216465373Y-115274437D01*
X216803939Y-114767736D01*
X217256736Y-114314939D01*
X217789169Y-113959179D01*
X217802611Y-113953611D01*
X218380778Y-113714126D01*
X219008823Y-113589200D01*
X219649177Y-113589200D01*
X220277222Y-113714126D01*
X220277222Y-113714126D01*
G37*
G36*
X79053222Y-113714126D02*
G01*
X79631389Y-113953611D01*
X79644831Y-113959179D01*
X80177264Y-114314939D01*
X80630061Y-114767736D01*
X80968627Y-115274437D01*
X80985822Y-115300171D01*
X81230874Y-115891778D01*
X81355800Y-116519823D01*
X81355800Y-117160177D01*
X81230874Y-117788222D01*
X81107424Y-118086256D01*
X80985821Y-118379831D01*
X80630061Y-118912264D01*
X80177264Y-119365061D01*
X79644831Y-119720821D01*
X79644830Y-119720822D01*
X79644829Y-119720822D01*
X79053222Y-119965874D01*
X78425177Y-120090800D01*
X77784823Y-120090800D01*
X77156778Y-119965874D01*
X76565171Y-119720822D01*
X76565170Y-119720822D01*
X76565169Y-119720821D01*
X76032736Y-119365061D01*
X75579939Y-118912264D01*
X75224179Y-118379831D01*
X75102576Y-118086256D01*
X74979126Y-117788222D01*
X74854200Y-117160177D01*
X74854200Y-116519823D01*
X74979126Y-115891778D01*
X75224178Y-115300171D01*
X75241373Y-115274437D01*
X75579939Y-114767736D01*
X76032736Y-114314939D01*
X76565169Y-113959179D01*
X76578611Y-113953611D01*
X77156778Y-113714126D01*
X77784823Y-113589200D01*
X78425177Y-113589200D01*
X79053222Y-113714126D01*
X79053222Y-113714126D01*
G37*
G36*
X144995362Y-115943545D02*
G01*
X145083588Y-115952234D01*
X145253389Y-116003743D01*
X145253392Y-116003744D01*
X145409878Y-116087388D01*
X145547044Y-116199956D01*
X145659612Y-116337122D01*
X145743256Y-116493608D01*
X145743257Y-116493611D01*
X145794766Y-116663412D01*
X145812158Y-116840000D01*
X145794766Y-117016588D01*
X145783558Y-117053534D01*
X145743256Y-117186392D01*
X145659612Y-117342878D01*
X145547044Y-117480044D01*
X145409878Y-117592612D01*
X145253392Y-117676256D01*
X145253389Y-117676257D01*
X145083588Y-117727766D01*
X144995362Y-117736455D01*
X144951250Y-117740800D01*
X144862750Y-117740800D01*
X144818638Y-117736455D01*
X144730412Y-117727766D01*
X144560611Y-117676257D01*
X144560608Y-117676256D01*
X144404122Y-117592612D01*
X144266956Y-117480044D01*
X144154388Y-117342878D01*
X144070744Y-117186392D01*
X144030442Y-117053534D01*
X144019234Y-117016588D01*
X144001842Y-116840000D01*
X144019234Y-116663412D01*
X144070743Y-116493611D01*
X144070744Y-116493608D01*
X144154388Y-116337122D01*
X144266956Y-116199956D01*
X144404122Y-116087388D01*
X144560608Y-116003744D01*
X144560611Y-116003743D01*
X144730412Y-115952234D01*
X144818638Y-115943545D01*
X144862750Y-115939200D01*
X144951250Y-115939200D01*
X144995362Y-115943545D01*
X144995362Y-115943545D01*
G37*
G36*
X143267800Y-117740800D02*
G01*
X141466200Y-117740800D01*
X141466200Y-115939200D01*
X143267800Y-115939200D01*
X143267800Y-117740800D01*
X143267800Y-117740800D01*
G37*
G36*
X155155362Y-115943545D02*
G01*
X155243588Y-115952234D01*
X155413389Y-116003743D01*
X155413392Y-116003744D01*
X155569878Y-116087388D01*
X155707044Y-116199956D01*
X155819612Y-116337122D01*
X155903256Y-116493608D01*
X155903257Y-116493611D01*
X155954766Y-116663412D01*
X155972158Y-116840000D01*
X155954766Y-117016588D01*
X155943558Y-117053534D01*
X155903256Y-117186392D01*
X155819612Y-117342878D01*
X155707044Y-117480044D01*
X155569878Y-117592612D01*
X155413392Y-117676256D01*
X155413389Y-117676257D01*
X155243588Y-117727766D01*
X155155362Y-117736455D01*
X155111250Y-117740800D01*
X155022750Y-117740800D01*
X154978638Y-117736455D01*
X154890412Y-117727766D01*
X154720611Y-117676257D01*
X154720608Y-117676256D01*
X154564122Y-117592612D01*
X154426956Y-117480044D01*
X154314388Y-117342878D01*
X154230744Y-117186392D01*
X154190442Y-117053534D01*
X154179234Y-117016588D01*
X154161842Y-116840000D01*
X154179234Y-116663412D01*
X154230743Y-116493611D01*
X154230744Y-116493608D01*
X154314388Y-116337122D01*
X154426956Y-116199956D01*
X154564122Y-116087388D01*
X154720608Y-116003744D01*
X154720611Y-116003743D01*
X154890412Y-115952234D01*
X154978638Y-115943545D01*
X155022750Y-115939200D01*
X155111250Y-115939200D01*
X155155362Y-115943545D01*
X155155362Y-115943545D01*
G37*
G36*
X152615362Y-115943545D02*
G01*
X152703588Y-115952234D01*
X152873389Y-116003743D01*
X152873392Y-116003744D01*
X153029878Y-116087388D01*
X153167044Y-116199956D01*
X153279612Y-116337122D01*
X153363256Y-116493608D01*
X153363257Y-116493611D01*
X153414766Y-116663412D01*
X153432158Y-116840000D01*
X153414766Y-117016588D01*
X153403558Y-117053534D01*
X153363256Y-117186392D01*
X153279612Y-117342878D01*
X153167044Y-117480044D01*
X153029878Y-117592612D01*
X152873392Y-117676256D01*
X152873389Y-117676257D01*
X152703588Y-117727766D01*
X152615362Y-117736455D01*
X152571250Y-117740800D01*
X152482750Y-117740800D01*
X152438638Y-117736455D01*
X152350412Y-117727766D01*
X152180611Y-117676257D01*
X152180608Y-117676256D01*
X152024122Y-117592612D01*
X151886956Y-117480044D01*
X151774388Y-117342878D01*
X151690744Y-117186392D01*
X151650442Y-117053534D01*
X151639234Y-117016588D01*
X151621842Y-116840000D01*
X151639234Y-116663412D01*
X151690743Y-116493611D01*
X151690744Y-116493608D01*
X151774388Y-116337122D01*
X151886956Y-116199956D01*
X152024122Y-116087388D01*
X152180608Y-116003744D01*
X152180611Y-116003743D01*
X152350412Y-115952234D01*
X152438638Y-115943545D01*
X152482750Y-115939200D01*
X152571250Y-115939200D01*
X152615362Y-115943545D01*
X152615362Y-115943545D01*
G37*
G36*
X150075362Y-115943545D02*
G01*
X150163588Y-115952234D01*
X150333389Y-116003743D01*
X150333392Y-116003744D01*
X150489878Y-116087388D01*
X150627044Y-116199956D01*
X150739612Y-116337122D01*
X150823256Y-116493608D01*
X150823257Y-116493611D01*
X150874766Y-116663412D01*
X150892158Y-116840000D01*
X150874766Y-117016588D01*
X150863558Y-117053534D01*
X150823256Y-117186392D01*
X150739612Y-117342878D01*
X150627044Y-117480044D01*
X150489878Y-117592612D01*
X150333392Y-117676256D01*
X150333389Y-117676257D01*
X150163588Y-117727766D01*
X150075362Y-117736455D01*
X150031250Y-117740800D01*
X149942750Y-117740800D01*
X149898638Y-117736455D01*
X149810412Y-117727766D01*
X149640611Y-117676257D01*
X149640608Y-117676256D01*
X149484122Y-117592612D01*
X149346956Y-117480044D01*
X149234388Y-117342878D01*
X149150744Y-117186392D01*
X149110442Y-117053534D01*
X149099234Y-117016588D01*
X149081842Y-116840000D01*
X149099234Y-116663412D01*
X149150743Y-116493611D01*
X149150744Y-116493608D01*
X149234388Y-116337122D01*
X149346956Y-116199956D01*
X149484122Y-116087388D01*
X149640608Y-116003744D01*
X149640611Y-116003743D01*
X149810412Y-115952234D01*
X149898638Y-115943545D01*
X149942750Y-115939200D01*
X150031250Y-115939200D01*
X150075362Y-115943545D01*
X150075362Y-115943545D01*
G37*
G36*
X147535362Y-115943545D02*
G01*
X147623588Y-115952234D01*
X147793389Y-116003743D01*
X147793392Y-116003744D01*
X147949878Y-116087388D01*
X148087044Y-116199956D01*
X148199612Y-116337122D01*
X148283256Y-116493608D01*
X148283257Y-116493611D01*
X148334766Y-116663412D01*
X148352158Y-116840000D01*
X148334766Y-117016588D01*
X148323558Y-117053534D01*
X148283256Y-117186392D01*
X148199612Y-117342878D01*
X148087044Y-117480044D01*
X147949878Y-117592612D01*
X147793392Y-117676256D01*
X147793389Y-117676257D01*
X147623588Y-117727766D01*
X147535362Y-117736455D01*
X147491250Y-117740800D01*
X147402750Y-117740800D01*
X147358638Y-117736455D01*
X147270412Y-117727766D01*
X147100611Y-117676257D01*
X147100608Y-117676256D01*
X146944122Y-117592612D01*
X146806956Y-117480044D01*
X146694388Y-117342878D01*
X146610744Y-117186392D01*
X146570442Y-117053534D01*
X146559234Y-117016588D01*
X146541842Y-116840000D01*
X146559234Y-116663412D01*
X146610743Y-116493611D01*
X146610744Y-116493608D01*
X146694388Y-116337122D01*
X146806956Y-116199956D01*
X146944122Y-116087388D01*
X147100608Y-116003744D01*
X147100611Y-116003743D01*
X147270412Y-115952234D01*
X147358638Y-115943545D01*
X147402750Y-115939200D01*
X147491250Y-115939200D01*
X147535362Y-115943545D01*
X147535362Y-115943545D01*
G37*
G36*
X150075362Y-113403545D02*
G01*
X150163588Y-113412234D01*
X150333389Y-113463743D01*
X150333392Y-113463744D01*
X150489878Y-113547388D01*
X150627044Y-113659956D01*
X150739612Y-113797122D01*
X150823256Y-113953608D01*
X150823257Y-113953611D01*
X150874766Y-114123412D01*
X150892158Y-114300000D01*
X150874766Y-114476588D01*
X150823257Y-114646389D01*
X150823256Y-114646392D01*
X150739612Y-114802878D01*
X150627044Y-114940044D01*
X150489878Y-115052612D01*
X150333392Y-115136256D01*
X150333389Y-115136257D01*
X150163588Y-115187766D01*
X150075362Y-115196455D01*
X150031250Y-115200800D01*
X149942750Y-115200800D01*
X149898638Y-115196455D01*
X149810412Y-115187766D01*
X149640611Y-115136257D01*
X149640608Y-115136256D01*
X149484122Y-115052612D01*
X149346956Y-114940044D01*
X149234388Y-114802878D01*
X149150744Y-114646392D01*
X149150743Y-114646389D01*
X149099234Y-114476588D01*
X149081842Y-114300000D01*
X149099234Y-114123412D01*
X149150743Y-113953611D01*
X149150744Y-113953608D01*
X149234388Y-113797122D01*
X149346956Y-113659956D01*
X149484122Y-113547388D01*
X149640608Y-113463744D01*
X149640611Y-113463743D01*
X149810412Y-113412234D01*
X149898638Y-113403545D01*
X149942750Y-113399200D01*
X150031250Y-113399200D01*
X150075362Y-113403545D01*
X150075362Y-113403545D01*
G37*
G36*
X155155362Y-113403545D02*
G01*
X155243588Y-113412234D01*
X155413389Y-113463743D01*
X155413392Y-113463744D01*
X155569878Y-113547388D01*
X155707044Y-113659956D01*
X155819612Y-113797122D01*
X155903256Y-113953608D01*
X155903257Y-113953611D01*
X155954766Y-114123412D01*
X155972158Y-114300000D01*
X155954766Y-114476588D01*
X155903257Y-114646389D01*
X155903256Y-114646392D01*
X155819612Y-114802878D01*
X155707044Y-114940044D01*
X155569878Y-115052612D01*
X155413392Y-115136256D01*
X155413389Y-115136257D01*
X155243588Y-115187766D01*
X155155362Y-115196455D01*
X155111250Y-115200800D01*
X155022750Y-115200800D01*
X154978638Y-115196455D01*
X154890412Y-115187766D01*
X154720611Y-115136257D01*
X154720608Y-115136256D01*
X154564122Y-115052612D01*
X154426956Y-114940044D01*
X154314388Y-114802878D01*
X154230744Y-114646392D01*
X154230743Y-114646389D01*
X154179234Y-114476588D01*
X154161842Y-114300000D01*
X154179234Y-114123412D01*
X154230743Y-113953611D01*
X154230744Y-113953608D01*
X154314388Y-113797122D01*
X154426956Y-113659956D01*
X154564122Y-113547388D01*
X154720608Y-113463744D01*
X154720611Y-113463743D01*
X154890412Y-113412234D01*
X154978638Y-113403545D01*
X155022750Y-113399200D01*
X155111250Y-113399200D01*
X155155362Y-113403545D01*
X155155362Y-113403545D01*
G37*
G36*
X152615362Y-113403545D02*
G01*
X152703588Y-113412234D01*
X152873389Y-113463743D01*
X152873392Y-113463744D01*
X153029878Y-113547388D01*
X153167044Y-113659956D01*
X153279612Y-113797122D01*
X153363256Y-113953608D01*
X153363257Y-113953611D01*
X153414766Y-114123412D01*
X153432158Y-114300000D01*
X153414766Y-114476588D01*
X153363257Y-114646389D01*
X153363256Y-114646392D01*
X153279612Y-114802878D01*
X153167044Y-114940044D01*
X153029878Y-115052612D01*
X152873392Y-115136256D01*
X152873389Y-115136257D01*
X152703588Y-115187766D01*
X152615362Y-115196455D01*
X152571250Y-115200800D01*
X152482750Y-115200800D01*
X152438638Y-115196455D01*
X152350412Y-115187766D01*
X152180611Y-115136257D01*
X152180608Y-115136256D01*
X152024122Y-115052612D01*
X151886956Y-114940044D01*
X151774388Y-114802878D01*
X151690744Y-114646392D01*
X151690743Y-114646389D01*
X151639234Y-114476588D01*
X151621842Y-114300000D01*
X151639234Y-114123412D01*
X151690743Y-113953611D01*
X151690744Y-113953608D01*
X151774388Y-113797122D01*
X151886956Y-113659956D01*
X152024122Y-113547388D01*
X152180608Y-113463744D01*
X152180611Y-113463743D01*
X152350412Y-113412234D01*
X152438638Y-113403545D01*
X152482750Y-113399200D01*
X152571250Y-113399200D01*
X152615362Y-113403545D01*
X152615362Y-113403545D01*
G37*
G36*
X147535362Y-113403545D02*
G01*
X147623588Y-113412234D01*
X147793389Y-113463743D01*
X147793392Y-113463744D01*
X147949878Y-113547388D01*
X148087044Y-113659956D01*
X148199612Y-113797122D01*
X148283256Y-113953608D01*
X148283257Y-113953611D01*
X148334766Y-114123412D01*
X148352158Y-114300000D01*
X148334766Y-114476588D01*
X148283257Y-114646389D01*
X148283256Y-114646392D01*
X148199612Y-114802878D01*
X148087044Y-114940044D01*
X147949878Y-115052612D01*
X147793392Y-115136256D01*
X147793389Y-115136257D01*
X147623588Y-115187766D01*
X147535362Y-115196455D01*
X147491250Y-115200800D01*
X147402750Y-115200800D01*
X147358638Y-115196455D01*
X147270412Y-115187766D01*
X147100611Y-115136257D01*
X147100608Y-115136256D01*
X146944122Y-115052612D01*
X146806956Y-114940044D01*
X146694388Y-114802878D01*
X146610744Y-114646392D01*
X146610743Y-114646389D01*
X146559234Y-114476588D01*
X146541842Y-114300000D01*
X146559234Y-114123412D01*
X146610743Y-113953611D01*
X146610744Y-113953608D01*
X146694388Y-113797122D01*
X146806956Y-113659956D01*
X146944122Y-113547388D01*
X147100608Y-113463744D01*
X147100611Y-113463743D01*
X147270412Y-113412234D01*
X147358638Y-113403545D01*
X147402750Y-113399200D01*
X147491250Y-113399200D01*
X147535362Y-113403545D01*
X147535362Y-113403545D01*
G37*
G36*
X144995362Y-113403545D02*
G01*
X145083588Y-113412234D01*
X145253389Y-113463743D01*
X145253392Y-113463744D01*
X145409878Y-113547388D01*
X145547044Y-113659956D01*
X145659612Y-113797122D01*
X145743256Y-113953608D01*
X145743257Y-113953611D01*
X145794766Y-114123412D01*
X145812158Y-114300000D01*
X145794766Y-114476588D01*
X145743257Y-114646389D01*
X145743256Y-114646392D01*
X145659612Y-114802878D01*
X145547044Y-114940044D01*
X145409878Y-115052612D01*
X145253392Y-115136256D01*
X145253389Y-115136257D01*
X145083588Y-115187766D01*
X144995362Y-115196455D01*
X144951250Y-115200800D01*
X144862750Y-115200800D01*
X144818638Y-115196455D01*
X144730412Y-115187766D01*
X144560611Y-115136257D01*
X144560608Y-115136256D01*
X144404122Y-115052612D01*
X144266956Y-114940044D01*
X144154388Y-114802878D01*
X144070744Y-114646392D01*
X144070743Y-114646389D01*
X144019234Y-114476588D01*
X144001842Y-114300000D01*
X144019234Y-114123412D01*
X144070743Y-113953611D01*
X144070744Y-113953608D01*
X144154388Y-113797122D01*
X144266956Y-113659956D01*
X144404122Y-113547388D01*
X144560608Y-113463744D01*
X144560611Y-113463743D01*
X144730412Y-113412234D01*
X144818638Y-113403545D01*
X144862750Y-113399200D01*
X144951250Y-113399200D01*
X144995362Y-113403545D01*
X144995362Y-113403545D01*
G37*
G36*
X142455362Y-113403545D02*
G01*
X142543588Y-113412234D01*
X142713389Y-113463743D01*
X142713392Y-113463744D01*
X142869878Y-113547388D01*
X143007044Y-113659956D01*
X143119612Y-113797122D01*
X143203256Y-113953608D01*
X143203257Y-113953611D01*
X143254766Y-114123412D01*
X143272158Y-114300000D01*
X143254766Y-114476588D01*
X143203257Y-114646389D01*
X143203256Y-114646392D01*
X143119612Y-114802878D01*
X143007044Y-114940044D01*
X142869878Y-115052612D01*
X142713392Y-115136256D01*
X142713389Y-115136257D01*
X142543588Y-115187766D01*
X142455362Y-115196455D01*
X142411250Y-115200800D01*
X142322750Y-115200800D01*
X142278638Y-115196455D01*
X142190412Y-115187766D01*
X142020611Y-115136257D01*
X142020608Y-115136256D01*
X141864122Y-115052612D01*
X141726956Y-114940044D01*
X141614388Y-114802878D01*
X141530744Y-114646392D01*
X141530743Y-114646389D01*
X141479234Y-114476588D01*
X141461842Y-114300000D01*
X141479234Y-114123412D01*
X141530743Y-113953611D01*
X141530744Y-113953608D01*
X141614388Y-113797122D01*
X141726956Y-113659956D01*
X141864122Y-113547388D01*
X142020608Y-113463744D01*
X142020611Y-113463743D01*
X142190412Y-113412234D01*
X142278638Y-113403545D01*
X142322750Y-113399200D01*
X142411250Y-113399200D01*
X142455362Y-113403545D01*
X142455362Y-113403545D01*
G37*
G36*
X86621828Y-104063008D02*
G01*
X86858558Y-104161065D01*
X86858560Y-104161066D01*
X86894291Y-104184941D01*
X87071611Y-104303422D01*
X87252798Y-104484609D01*
X87395155Y-104697662D01*
X87493212Y-104934392D01*
X87543200Y-105185701D01*
X87543200Y-105441939D01*
X87493212Y-105693248D01*
X87395155Y-105929978D01*
X87395154Y-105929980D01*
X87252797Y-106143032D01*
X87071612Y-106324217D01*
X86858560Y-106466574D01*
X86858559Y-106466575D01*
X86858558Y-106466575D01*
X86621828Y-106564632D01*
X86370519Y-106614620D01*
X86114281Y-106614620D01*
X85862972Y-106564632D01*
X85626242Y-106466575D01*
X85626241Y-106466575D01*
X85626240Y-106466574D01*
X85413188Y-106324217D01*
X85232003Y-106143032D01*
X85089646Y-105929980D01*
X85089645Y-105929978D01*
X84991588Y-105693248D01*
X84941600Y-105441939D01*
X84941600Y-105185701D01*
X84991588Y-104934392D01*
X85089645Y-104697662D01*
X85232002Y-104484609D01*
X85413189Y-104303422D01*
X85590509Y-104184941D01*
X85626240Y-104161066D01*
X85626242Y-104161065D01*
X85862972Y-104063008D01*
X86114281Y-104013020D01*
X86370519Y-104013020D01*
X86621828Y-104063008D01*
X86621828Y-104063008D01*
G37*
G36*
X108621828Y-104063008D02*
G01*
X108858558Y-104161065D01*
X108858560Y-104161066D01*
X108894291Y-104184941D01*
X109071611Y-104303422D01*
X109252798Y-104484609D01*
X109395155Y-104697662D01*
X109493212Y-104934392D01*
X109543200Y-105185701D01*
X109543200Y-105441939D01*
X109493212Y-105693248D01*
X109395155Y-105929978D01*
X109395154Y-105929980D01*
X109252797Y-106143032D01*
X109071612Y-106324217D01*
X108858560Y-106466574D01*
X108858559Y-106466575D01*
X108858558Y-106466575D01*
X108621828Y-106564632D01*
X108370519Y-106614620D01*
X108114281Y-106614620D01*
X107862972Y-106564632D01*
X107626242Y-106466575D01*
X107626241Y-106466575D01*
X107626240Y-106466574D01*
X107413188Y-106324217D01*
X107232003Y-106143032D01*
X107089646Y-105929980D01*
X107089645Y-105929978D01*
X106991588Y-105693248D01*
X106941600Y-105441939D01*
X106941600Y-105185701D01*
X106991588Y-104934392D01*
X107089645Y-104697662D01*
X107232002Y-104484609D01*
X107413189Y-104303422D01*
X107590509Y-104184941D01*
X107626240Y-104161066D01*
X107626242Y-104161065D01*
X107862972Y-104063008D01*
X108114281Y-104013020D01*
X108370519Y-104013020D01*
X108621828Y-104063008D01*
X108621828Y-104063008D01*
G37*
G36*
X138121828Y-104063008D02*
G01*
X138358558Y-104161065D01*
X138358560Y-104161066D01*
X138394291Y-104184941D01*
X138571611Y-104303422D01*
X138752798Y-104484609D01*
X138895155Y-104697662D01*
X138993212Y-104934392D01*
X139043200Y-105185701D01*
X139043200Y-105441939D01*
X138993212Y-105693248D01*
X138895155Y-105929978D01*
X138895154Y-105929980D01*
X138752797Y-106143032D01*
X138571612Y-106324217D01*
X138358560Y-106466574D01*
X138358559Y-106466575D01*
X138358558Y-106466575D01*
X138121828Y-106564632D01*
X137870519Y-106614620D01*
X137614281Y-106614620D01*
X137362972Y-106564632D01*
X137126242Y-106466575D01*
X137126241Y-106466575D01*
X137126240Y-106466574D01*
X136913188Y-106324217D01*
X136732003Y-106143032D01*
X136589646Y-105929980D01*
X136589645Y-105929978D01*
X136491588Y-105693248D01*
X136441600Y-105441939D01*
X136441600Y-105185701D01*
X136491588Y-104934392D01*
X136589645Y-104697662D01*
X136732002Y-104484609D01*
X136913189Y-104303422D01*
X137090509Y-104184941D01*
X137126240Y-104161066D01*
X137126242Y-104161065D01*
X137362972Y-104063008D01*
X137614281Y-104013020D01*
X137870519Y-104013020D01*
X138121828Y-104063008D01*
X138121828Y-104063008D01*
G37*
G36*
X160121828Y-104063008D02*
G01*
X160358558Y-104161065D01*
X160358560Y-104161066D01*
X160394291Y-104184941D01*
X160571611Y-104303422D01*
X160752798Y-104484609D01*
X160895155Y-104697662D01*
X160993212Y-104934392D01*
X161043200Y-105185701D01*
X161043200Y-105441939D01*
X160993212Y-105693248D01*
X160895155Y-105929978D01*
X160895154Y-105929980D01*
X160752797Y-106143032D01*
X160571612Y-106324217D01*
X160358560Y-106466574D01*
X160358559Y-106466575D01*
X160358558Y-106466575D01*
X160121828Y-106564632D01*
X159870519Y-106614620D01*
X159614281Y-106614620D01*
X159362972Y-106564632D01*
X159126242Y-106466575D01*
X159126241Y-106466575D01*
X159126240Y-106466574D01*
X158913188Y-106324217D01*
X158732003Y-106143032D01*
X158589646Y-105929980D01*
X158589645Y-105929978D01*
X158491588Y-105693248D01*
X158441600Y-105441939D01*
X158441600Y-105185701D01*
X158491588Y-104934392D01*
X158589645Y-104697662D01*
X158732002Y-104484609D01*
X158913189Y-104303422D01*
X159090509Y-104184941D01*
X159126240Y-104161066D01*
X159126242Y-104161065D01*
X159362972Y-104063008D01*
X159614281Y-104013020D01*
X159870519Y-104013020D01*
X160121828Y-104063008D01*
X160121828Y-104063008D01*
G37*
G36*
X189621828Y-104063008D02*
G01*
X189858558Y-104161065D01*
X189858560Y-104161066D01*
X189894291Y-104184941D01*
X190071611Y-104303422D01*
X190252798Y-104484609D01*
X190395155Y-104697662D01*
X190493212Y-104934392D01*
X190543200Y-105185701D01*
X190543200Y-105441939D01*
X190493212Y-105693248D01*
X190395155Y-105929978D01*
X190395154Y-105929980D01*
X190252797Y-106143032D01*
X190071612Y-106324217D01*
X189858560Y-106466574D01*
X189858559Y-106466575D01*
X189858558Y-106466575D01*
X189621828Y-106564632D01*
X189370519Y-106614620D01*
X189114281Y-106614620D01*
X188862972Y-106564632D01*
X188626242Y-106466575D01*
X188626241Y-106466575D01*
X188626240Y-106466574D01*
X188413188Y-106324217D01*
X188232003Y-106143032D01*
X188089646Y-105929980D01*
X188089645Y-105929978D01*
X187991588Y-105693248D01*
X187941600Y-105441939D01*
X187941600Y-105185701D01*
X187991588Y-104934392D01*
X188089645Y-104697662D01*
X188232002Y-104484609D01*
X188413189Y-104303422D01*
X188590509Y-104184941D01*
X188626240Y-104161066D01*
X188626242Y-104161065D01*
X188862972Y-104063008D01*
X189114281Y-104013020D01*
X189370519Y-104013020D01*
X189621828Y-104063008D01*
X189621828Y-104063008D01*
G37*
G36*
X211621828Y-104063008D02*
G01*
X211858558Y-104161065D01*
X211858560Y-104161066D01*
X211894291Y-104184941D01*
X212071611Y-104303422D01*
X212252798Y-104484609D01*
X212395155Y-104697662D01*
X212493212Y-104934392D01*
X212543200Y-105185701D01*
X212543200Y-105441939D01*
X212493212Y-105693248D01*
X212395155Y-105929978D01*
X212395154Y-105929980D01*
X212252797Y-106143032D01*
X212071612Y-106324217D01*
X211858560Y-106466574D01*
X211858559Y-106466575D01*
X211858558Y-106466575D01*
X211621828Y-106564632D01*
X211370519Y-106614620D01*
X211114281Y-106614620D01*
X210862972Y-106564632D01*
X210626242Y-106466575D01*
X210626241Y-106466575D01*
X210626240Y-106466574D01*
X210413188Y-106324217D01*
X210232003Y-106143032D01*
X210089646Y-105929980D01*
X210089645Y-105929978D01*
X209991588Y-105693248D01*
X209941600Y-105441939D01*
X209941600Y-105185701D01*
X209991588Y-104934392D01*
X210089645Y-104697662D01*
X210232002Y-104484609D01*
X210413189Y-104303422D01*
X210590509Y-104184941D01*
X210626240Y-104161066D01*
X210626242Y-104161065D01*
X210862972Y-104063008D01*
X211114281Y-104013020D01*
X211370519Y-104013020D01*
X211621828Y-104063008D01*
X211621828Y-104063008D01*
G37*
G36*
X134123868Y-103062248D02*
G01*
X134360598Y-103160305D01*
X134360600Y-103160306D01*
X134423547Y-103202366D01*
X134573651Y-103302662D01*
X134754838Y-103483849D01*
X134897195Y-103696902D01*
X134995252Y-103933632D01*
X135045240Y-104184941D01*
X135045240Y-104441179D01*
X134995252Y-104692488D01*
X134897195Y-104929218D01*
X134897194Y-104929220D01*
X134754837Y-105142272D01*
X134573652Y-105323457D01*
X134360600Y-105465814D01*
X134360599Y-105465815D01*
X134360598Y-105465815D01*
X134123868Y-105563872D01*
X133872559Y-105613860D01*
X133616321Y-105613860D01*
X133365012Y-105563872D01*
X133128282Y-105465815D01*
X133128281Y-105465815D01*
X133128280Y-105465814D01*
X132915228Y-105323457D01*
X132734043Y-105142272D01*
X132591686Y-104929220D01*
X132591685Y-104929218D01*
X132493628Y-104692488D01*
X132443640Y-104441179D01*
X132443640Y-104184941D01*
X132493628Y-103933632D01*
X132591685Y-103696902D01*
X132734042Y-103483849D01*
X132915229Y-103302662D01*
X133065333Y-103202366D01*
X133128280Y-103160306D01*
X133128282Y-103160305D01*
X133365012Y-103062248D01*
X133616321Y-103012260D01*
X133872559Y-103012260D01*
X134123868Y-103062248D01*
X134123868Y-103062248D01*
G37*
G36*
X90619788Y-103062248D02*
G01*
X90856518Y-103160305D01*
X90856520Y-103160306D01*
X90919467Y-103202366D01*
X91069571Y-103302662D01*
X91250758Y-103483849D01*
X91393115Y-103696902D01*
X91491172Y-103933632D01*
X91541160Y-104184941D01*
X91541160Y-104441179D01*
X91491172Y-104692488D01*
X91393115Y-104929218D01*
X91393114Y-104929220D01*
X91250757Y-105142272D01*
X91069572Y-105323457D01*
X90856520Y-105465814D01*
X90856519Y-105465815D01*
X90856518Y-105465815D01*
X90619788Y-105563872D01*
X90368479Y-105613860D01*
X90112241Y-105613860D01*
X89860932Y-105563872D01*
X89624202Y-105465815D01*
X89624201Y-105465815D01*
X89624200Y-105465814D01*
X89411148Y-105323457D01*
X89229963Y-105142272D01*
X89087606Y-104929220D01*
X89087605Y-104929218D01*
X88989548Y-104692488D01*
X88939560Y-104441179D01*
X88939560Y-104184941D01*
X88989548Y-103933632D01*
X89087605Y-103696902D01*
X89229962Y-103483849D01*
X89411149Y-103302662D01*
X89561253Y-103202366D01*
X89624200Y-103160306D01*
X89624202Y-103160305D01*
X89860932Y-103062248D01*
X90112241Y-103012260D01*
X90368479Y-103012260D01*
X90619788Y-103062248D01*
X90619788Y-103062248D01*
G37*
G36*
X82623868Y-103062248D02*
G01*
X82860598Y-103160305D01*
X82860600Y-103160306D01*
X82923547Y-103202366D01*
X83073651Y-103302662D01*
X83254838Y-103483849D01*
X83397195Y-103696902D01*
X83495252Y-103933632D01*
X83545240Y-104184941D01*
X83545240Y-104441179D01*
X83495252Y-104692488D01*
X83397195Y-104929218D01*
X83397194Y-104929220D01*
X83254837Y-105142272D01*
X83073652Y-105323457D01*
X82860600Y-105465814D01*
X82860599Y-105465815D01*
X82860598Y-105465815D01*
X82623868Y-105563872D01*
X82372559Y-105613860D01*
X82116321Y-105613860D01*
X81865012Y-105563872D01*
X81628282Y-105465815D01*
X81628281Y-105465815D01*
X81628280Y-105465814D01*
X81415228Y-105323457D01*
X81234043Y-105142272D01*
X81091686Y-104929220D01*
X81091685Y-104929218D01*
X80993628Y-104692488D01*
X80943640Y-104441179D01*
X80943640Y-104184941D01*
X80993628Y-103933632D01*
X81091685Y-103696902D01*
X81234042Y-103483849D01*
X81415229Y-103302662D01*
X81565333Y-103202366D01*
X81628280Y-103160306D01*
X81628282Y-103160305D01*
X81865012Y-103062248D01*
X82116321Y-103012260D01*
X82372559Y-103012260D01*
X82623868Y-103062248D01*
X82623868Y-103062248D01*
G37*
G36*
X104623868Y-103062248D02*
G01*
X104860598Y-103160305D01*
X104860600Y-103160306D01*
X104923547Y-103202366D01*
X105073651Y-103302662D01*
X105254838Y-103483849D01*
X105397195Y-103696902D01*
X105495252Y-103933632D01*
X105545240Y-104184941D01*
X105545240Y-104441179D01*
X105495252Y-104692488D01*
X105397195Y-104929218D01*
X105397194Y-104929220D01*
X105254837Y-105142272D01*
X105073652Y-105323457D01*
X104860600Y-105465814D01*
X104860599Y-105465815D01*
X104860598Y-105465815D01*
X104623868Y-105563872D01*
X104372559Y-105613860D01*
X104116321Y-105613860D01*
X103865012Y-105563872D01*
X103628282Y-105465815D01*
X103628281Y-105465815D01*
X103628280Y-105465814D01*
X103415228Y-105323457D01*
X103234043Y-105142272D01*
X103091686Y-104929220D01*
X103091685Y-104929218D01*
X102993628Y-104692488D01*
X102943640Y-104441179D01*
X102943640Y-104184941D01*
X102993628Y-103933632D01*
X103091685Y-103696902D01*
X103234042Y-103483849D01*
X103415229Y-103302662D01*
X103565333Y-103202366D01*
X103628280Y-103160306D01*
X103628282Y-103160305D01*
X103865012Y-103062248D01*
X104116321Y-103012260D01*
X104372559Y-103012260D01*
X104623868Y-103062248D01*
X104623868Y-103062248D01*
G37*
G36*
X142119788Y-103062248D02*
G01*
X142356518Y-103160305D01*
X142356520Y-103160306D01*
X142419467Y-103202366D01*
X142569571Y-103302662D01*
X142750758Y-103483849D01*
X142893115Y-103696902D01*
X142991172Y-103933632D01*
X143041160Y-104184941D01*
X143041160Y-104441179D01*
X142991172Y-104692488D01*
X142893115Y-104929218D01*
X142893114Y-104929220D01*
X142750757Y-105142272D01*
X142569572Y-105323457D01*
X142356520Y-105465814D01*
X142356519Y-105465815D01*
X142356518Y-105465815D01*
X142119788Y-105563872D01*
X141868479Y-105613860D01*
X141612241Y-105613860D01*
X141360932Y-105563872D01*
X141124202Y-105465815D01*
X141124201Y-105465815D01*
X141124200Y-105465814D01*
X140911148Y-105323457D01*
X140729963Y-105142272D01*
X140587606Y-104929220D01*
X140587605Y-104929218D01*
X140489548Y-104692488D01*
X140439560Y-104441179D01*
X140439560Y-104184941D01*
X140489548Y-103933632D01*
X140587605Y-103696902D01*
X140729962Y-103483849D01*
X140911149Y-103302662D01*
X141061253Y-103202366D01*
X141124200Y-103160306D01*
X141124202Y-103160305D01*
X141360932Y-103062248D01*
X141612241Y-103012260D01*
X141868479Y-103012260D01*
X142119788Y-103062248D01*
X142119788Y-103062248D01*
G37*
G36*
X156123868Y-103062248D02*
G01*
X156360598Y-103160305D01*
X156360600Y-103160306D01*
X156423547Y-103202366D01*
X156573651Y-103302662D01*
X156754838Y-103483849D01*
X156897195Y-103696902D01*
X156995252Y-103933632D01*
X157045240Y-104184941D01*
X157045240Y-104441179D01*
X156995252Y-104692488D01*
X156897195Y-104929218D01*
X156897194Y-104929220D01*
X156754837Y-105142272D01*
X156573652Y-105323457D01*
X156360600Y-105465814D01*
X156360599Y-105465815D01*
X156360598Y-105465815D01*
X156123868Y-105563872D01*
X155872559Y-105613860D01*
X155616321Y-105613860D01*
X155365012Y-105563872D01*
X155128282Y-105465815D01*
X155128281Y-105465815D01*
X155128280Y-105465814D01*
X154915228Y-105323457D01*
X154734043Y-105142272D01*
X154591686Y-104929220D01*
X154591685Y-104929218D01*
X154493628Y-104692488D01*
X154443640Y-104441179D01*
X154443640Y-104184941D01*
X154493628Y-103933632D01*
X154591685Y-103696902D01*
X154734042Y-103483849D01*
X154915229Y-103302662D01*
X155065333Y-103202366D01*
X155128280Y-103160306D01*
X155128282Y-103160305D01*
X155365012Y-103062248D01*
X155616321Y-103012260D01*
X155872559Y-103012260D01*
X156123868Y-103062248D01*
X156123868Y-103062248D01*
G37*
G36*
X164119788Y-103062248D02*
G01*
X164356518Y-103160305D01*
X164356520Y-103160306D01*
X164419467Y-103202366D01*
X164569571Y-103302662D01*
X164750758Y-103483849D01*
X164893115Y-103696902D01*
X164991172Y-103933632D01*
X165041160Y-104184941D01*
X165041160Y-104441179D01*
X164991172Y-104692488D01*
X164893115Y-104929218D01*
X164893114Y-104929220D01*
X164750757Y-105142272D01*
X164569572Y-105323457D01*
X164356520Y-105465814D01*
X164356519Y-105465815D01*
X164356518Y-105465815D01*
X164119788Y-105563872D01*
X163868479Y-105613860D01*
X163612241Y-105613860D01*
X163360932Y-105563872D01*
X163124202Y-105465815D01*
X163124201Y-105465815D01*
X163124200Y-105465814D01*
X162911148Y-105323457D01*
X162729963Y-105142272D01*
X162587606Y-104929220D01*
X162587605Y-104929218D01*
X162489548Y-104692488D01*
X162439560Y-104441179D01*
X162439560Y-104184941D01*
X162489548Y-103933632D01*
X162587605Y-103696902D01*
X162729962Y-103483849D01*
X162911149Y-103302662D01*
X163061253Y-103202366D01*
X163124200Y-103160306D01*
X163124202Y-103160305D01*
X163360932Y-103062248D01*
X163612241Y-103012260D01*
X163868479Y-103012260D01*
X164119788Y-103062248D01*
X164119788Y-103062248D01*
G37*
G36*
X185623868Y-103062248D02*
G01*
X185860598Y-103160305D01*
X185860600Y-103160306D01*
X185923547Y-103202366D01*
X186073651Y-103302662D01*
X186254838Y-103483849D01*
X186397195Y-103696902D01*
X186495252Y-103933632D01*
X186545240Y-104184941D01*
X186545240Y-104441179D01*
X186495252Y-104692488D01*
X186397195Y-104929218D01*
X186397194Y-104929220D01*
X186254837Y-105142272D01*
X186073652Y-105323457D01*
X185860600Y-105465814D01*
X185860599Y-105465815D01*
X185860598Y-105465815D01*
X185623868Y-105563872D01*
X185372559Y-105613860D01*
X185116321Y-105613860D01*
X184865012Y-105563872D01*
X184628282Y-105465815D01*
X184628281Y-105465815D01*
X184628280Y-105465814D01*
X184415228Y-105323457D01*
X184234043Y-105142272D01*
X184091686Y-104929220D01*
X184091685Y-104929218D01*
X183993628Y-104692488D01*
X183943640Y-104441179D01*
X183943640Y-104184941D01*
X183993628Y-103933632D01*
X184091685Y-103696902D01*
X184234042Y-103483849D01*
X184415229Y-103302662D01*
X184565333Y-103202366D01*
X184628280Y-103160306D01*
X184628282Y-103160305D01*
X184865012Y-103062248D01*
X185116321Y-103012260D01*
X185372559Y-103012260D01*
X185623868Y-103062248D01*
X185623868Y-103062248D01*
G37*
G36*
X207623868Y-103062248D02*
G01*
X207860598Y-103160305D01*
X207860600Y-103160306D01*
X207923547Y-103202366D01*
X208073651Y-103302662D01*
X208254838Y-103483849D01*
X208397195Y-103696902D01*
X208495252Y-103933632D01*
X208545240Y-104184941D01*
X208545240Y-104441179D01*
X208495252Y-104692488D01*
X208397195Y-104929218D01*
X208397194Y-104929220D01*
X208254837Y-105142272D01*
X208073652Y-105323457D01*
X207860600Y-105465814D01*
X207860599Y-105465815D01*
X207860598Y-105465815D01*
X207623868Y-105563872D01*
X207372559Y-105613860D01*
X207116321Y-105613860D01*
X206865012Y-105563872D01*
X206628282Y-105465815D01*
X206628281Y-105465815D01*
X206628280Y-105465814D01*
X206415228Y-105323457D01*
X206234043Y-105142272D01*
X206091686Y-104929220D01*
X206091685Y-104929218D01*
X205993628Y-104692488D01*
X205943640Y-104441179D01*
X205943640Y-104184941D01*
X205993628Y-103933632D01*
X206091685Y-103696902D01*
X206234042Y-103483849D01*
X206415229Y-103302662D01*
X206565333Y-103202366D01*
X206628280Y-103160306D01*
X206628282Y-103160305D01*
X206865012Y-103062248D01*
X207116321Y-103012260D01*
X207372559Y-103012260D01*
X207623868Y-103062248D01*
X207623868Y-103062248D01*
G37*
G36*
X215619788Y-103062248D02*
G01*
X215856518Y-103160305D01*
X215856520Y-103160306D01*
X215919467Y-103202366D01*
X216069571Y-103302662D01*
X216250758Y-103483849D01*
X216393115Y-103696902D01*
X216491172Y-103933632D01*
X216541160Y-104184941D01*
X216541160Y-104441179D01*
X216491172Y-104692488D01*
X216393115Y-104929218D01*
X216393114Y-104929220D01*
X216250757Y-105142272D01*
X216069572Y-105323457D01*
X215856520Y-105465814D01*
X215856519Y-105465815D01*
X215856518Y-105465815D01*
X215619788Y-105563872D01*
X215368479Y-105613860D01*
X215112241Y-105613860D01*
X214860932Y-105563872D01*
X214624202Y-105465815D01*
X214624201Y-105465815D01*
X214624200Y-105465814D01*
X214411148Y-105323457D01*
X214229963Y-105142272D01*
X214087606Y-104929220D01*
X214087605Y-104929218D01*
X213989548Y-104692488D01*
X213939560Y-104441179D01*
X213939560Y-104184941D01*
X213989548Y-103933632D01*
X214087605Y-103696902D01*
X214229962Y-103483849D01*
X214411149Y-103302662D01*
X214561253Y-103202366D01*
X214624200Y-103160306D01*
X214624202Y-103160305D01*
X214860932Y-103062248D01*
X215112241Y-103012260D01*
X215368479Y-103012260D01*
X215619788Y-103062248D01*
X215619788Y-103062248D01*
G37*
G36*
X112619788Y-103062248D02*
G01*
X112856518Y-103160305D01*
X112856520Y-103160306D01*
X112919467Y-103202366D01*
X113069571Y-103302662D01*
X113250758Y-103483849D01*
X113393115Y-103696902D01*
X113491172Y-103933632D01*
X113541160Y-104184941D01*
X113541160Y-104441179D01*
X113491172Y-104692488D01*
X113393115Y-104929218D01*
X113393114Y-104929220D01*
X113250757Y-105142272D01*
X113069572Y-105323457D01*
X112856520Y-105465814D01*
X112856519Y-105465815D01*
X112856518Y-105465815D01*
X112619788Y-105563872D01*
X112368479Y-105613860D01*
X112112241Y-105613860D01*
X111860932Y-105563872D01*
X111624202Y-105465815D01*
X111624201Y-105465815D01*
X111624200Y-105465814D01*
X111411148Y-105323457D01*
X111229963Y-105142272D01*
X111087606Y-104929220D01*
X111087605Y-104929218D01*
X110989548Y-104692488D01*
X110939560Y-104441179D01*
X110939560Y-104184941D01*
X110989548Y-103933632D01*
X111087605Y-103696902D01*
X111229962Y-103483849D01*
X111411149Y-103302662D01*
X111561253Y-103202366D01*
X111624200Y-103160306D01*
X111624202Y-103160305D01*
X111860932Y-103062248D01*
X112112241Y-103012260D01*
X112368479Y-103012260D01*
X112619788Y-103062248D01*
X112619788Y-103062248D01*
G37*
G36*
X193619788Y-103062248D02*
G01*
X193856518Y-103160305D01*
X193856520Y-103160306D01*
X193919467Y-103202366D01*
X194069571Y-103302662D01*
X194250758Y-103483849D01*
X194393115Y-103696902D01*
X194491172Y-103933632D01*
X194541160Y-104184941D01*
X194541160Y-104441179D01*
X194491172Y-104692488D01*
X194393115Y-104929218D01*
X194393114Y-104929220D01*
X194250757Y-105142272D01*
X194069572Y-105323457D01*
X193856520Y-105465814D01*
X193856519Y-105465815D01*
X193856518Y-105465815D01*
X193619788Y-105563872D01*
X193368479Y-105613860D01*
X193112241Y-105613860D01*
X192860932Y-105563872D01*
X192624202Y-105465815D01*
X192624201Y-105465815D01*
X192624200Y-105465814D01*
X192411148Y-105323457D01*
X192229963Y-105142272D01*
X192087606Y-104929220D01*
X192087605Y-104929218D01*
X191989548Y-104692488D01*
X191939560Y-104441179D01*
X191939560Y-104184941D01*
X191989548Y-103933632D01*
X192087605Y-103696902D01*
X192229962Y-103483849D01*
X192411149Y-103302662D01*
X192561253Y-103202366D01*
X192624200Y-103160306D01*
X192624202Y-103160305D01*
X192860932Y-103062248D01*
X193112241Y-103012260D01*
X193368479Y-103012260D01*
X193619788Y-103062248D01*
X193619788Y-103062248D01*
G37*
G36*
X176852800Y-103215400D02*
G01*
X175051200Y-103215400D01*
X175051200Y-101413800D01*
X176852800Y-101413800D01*
X176852800Y-103215400D01*
X176852800Y-103215400D01*
G37*
G36*
X121790762Y-101418145D02*
G01*
X121878988Y-101426834D01*
X122048789Y-101478343D01*
X122048792Y-101478344D01*
X122205278Y-101561988D01*
X122342444Y-101674556D01*
X122455012Y-101811722D01*
X122538656Y-101968208D01*
X122538657Y-101968211D01*
X122590166Y-102138012D01*
X122607558Y-102314600D01*
X122590166Y-102491188D01*
X122538657Y-102660989D01*
X122538656Y-102660992D01*
X122455012Y-102817478D01*
X122342444Y-102954644D01*
X122205278Y-103067212D01*
X122048792Y-103150856D01*
X122048789Y-103150857D01*
X121878988Y-103202366D01*
X121790762Y-103211055D01*
X121746650Y-103215400D01*
X121658150Y-103215400D01*
X121614038Y-103211055D01*
X121525812Y-103202366D01*
X121356011Y-103150857D01*
X121356008Y-103150856D01*
X121199522Y-103067212D01*
X121062356Y-102954644D01*
X120949788Y-102817478D01*
X120866144Y-102660992D01*
X120866143Y-102660989D01*
X120814634Y-102491188D01*
X120797242Y-102314600D01*
X120814634Y-102138012D01*
X120866143Y-101968211D01*
X120866144Y-101968208D01*
X120949788Y-101811722D01*
X121062356Y-101674556D01*
X121199522Y-101561988D01*
X121356008Y-101478344D01*
X121356011Y-101478343D01*
X121525812Y-101426834D01*
X121614038Y-101418145D01*
X121658150Y-101413800D01*
X121746650Y-101413800D01*
X121790762Y-101418145D01*
X121790762Y-101418145D01*
G37*
G36*
X173500362Y-101418145D02*
G01*
X173588588Y-101426834D01*
X173758389Y-101478343D01*
X173758392Y-101478344D01*
X173914878Y-101561988D01*
X174052044Y-101674556D01*
X174164612Y-101811722D01*
X174248256Y-101968208D01*
X174248257Y-101968211D01*
X174299766Y-102138012D01*
X174317158Y-102314600D01*
X174299766Y-102491188D01*
X174248257Y-102660989D01*
X174248256Y-102660992D01*
X174164612Y-102817478D01*
X174052044Y-102954644D01*
X173914878Y-103067212D01*
X173758392Y-103150856D01*
X173758389Y-103150857D01*
X173588588Y-103202366D01*
X173500362Y-103211055D01*
X173456250Y-103215400D01*
X173367750Y-103215400D01*
X173323638Y-103211055D01*
X173235412Y-103202366D01*
X173065611Y-103150857D01*
X173065608Y-103150856D01*
X172909122Y-103067212D01*
X172771956Y-102954644D01*
X172659388Y-102817478D01*
X172575744Y-102660992D01*
X172575743Y-102660989D01*
X172524234Y-102491188D01*
X172506842Y-102314600D01*
X172524234Y-102138012D01*
X172575743Y-101968211D01*
X172575744Y-101968208D01*
X172659388Y-101811722D01*
X172771956Y-101674556D01*
X172909122Y-101561988D01*
X173065608Y-101478344D01*
X173065611Y-101478343D01*
X173235412Y-101426834D01*
X173323638Y-101418145D01*
X173367750Y-101413800D01*
X173456250Y-101413800D01*
X173500362Y-101418145D01*
X173500362Y-101418145D01*
G37*
G36*
X125143200Y-103215400D02*
G01*
X123341600Y-103215400D01*
X123341600Y-101413800D01*
X125143200Y-101413800D01*
X125143200Y-103215400D01*
X125143200Y-103215400D01*
G37*
G36*
X80873808Y-99562128D02*
G01*
X81110538Y-99660185D01*
X81110540Y-99660186D01*
X81217788Y-99731847D01*
X81323591Y-99802542D01*
X81504778Y-99983729D01*
X81647135Y-100196782D01*
X81745192Y-100433512D01*
X81795180Y-100684821D01*
X81795180Y-100941059D01*
X81745192Y-101192368D01*
X81648073Y-101426834D01*
X81647134Y-101429100D01*
X81504777Y-101642152D01*
X81323592Y-101823337D01*
X81110540Y-101965694D01*
X81110539Y-101965695D01*
X81110538Y-101965695D01*
X80873808Y-102063752D01*
X80622499Y-102113740D01*
X80366261Y-102113740D01*
X80114952Y-102063752D01*
X79878222Y-101965695D01*
X79878221Y-101965695D01*
X79878220Y-101965694D01*
X79665168Y-101823337D01*
X79483983Y-101642152D01*
X79341626Y-101429100D01*
X79340687Y-101426834D01*
X79243568Y-101192368D01*
X79193580Y-100941059D01*
X79193580Y-100684821D01*
X79243568Y-100433512D01*
X79341625Y-100196782D01*
X79483982Y-99983729D01*
X79665169Y-99802542D01*
X79770972Y-99731847D01*
X79878220Y-99660186D01*
X79878222Y-99660185D01*
X80114952Y-99562128D01*
X80366261Y-99512140D01*
X80622499Y-99512140D01*
X80873808Y-99562128D01*
X80873808Y-99562128D01*
G37*
G36*
X217369848Y-99562128D02*
G01*
X217606578Y-99660185D01*
X217606580Y-99660186D01*
X217713828Y-99731847D01*
X217819631Y-99802542D01*
X218000818Y-99983729D01*
X218143175Y-100196782D01*
X218241232Y-100433512D01*
X218291220Y-100684821D01*
X218291220Y-100941059D01*
X218241232Y-101192368D01*
X218144113Y-101426834D01*
X218143174Y-101429100D01*
X218000817Y-101642152D01*
X217819632Y-101823337D01*
X217606580Y-101965694D01*
X217606579Y-101965695D01*
X217606578Y-101965695D01*
X217369848Y-102063752D01*
X217118539Y-102113740D01*
X216862301Y-102113740D01*
X216610992Y-102063752D01*
X216374262Y-101965695D01*
X216374261Y-101965695D01*
X216374260Y-101965694D01*
X216161208Y-101823337D01*
X215980023Y-101642152D01*
X215837666Y-101429100D01*
X215836727Y-101426834D01*
X215739608Y-101192368D01*
X215689620Y-100941059D01*
X215689620Y-100684821D01*
X215739608Y-100433512D01*
X215837665Y-100196782D01*
X215980022Y-99983729D01*
X216161209Y-99802542D01*
X216267012Y-99731847D01*
X216374260Y-99660186D01*
X216374262Y-99660185D01*
X216610992Y-99562128D01*
X216862301Y-99512140D01*
X217118539Y-99512140D01*
X217369848Y-99562128D01*
X217369848Y-99562128D01*
G37*
G36*
X205873808Y-99562128D02*
G01*
X206110538Y-99660185D01*
X206110540Y-99660186D01*
X206217788Y-99731847D01*
X206323591Y-99802542D01*
X206504778Y-99983729D01*
X206647135Y-100196782D01*
X206745192Y-100433512D01*
X206795180Y-100684821D01*
X206795180Y-100941059D01*
X206745192Y-101192368D01*
X206648073Y-101426834D01*
X206647134Y-101429100D01*
X206504777Y-101642152D01*
X206323592Y-101823337D01*
X206110540Y-101965694D01*
X206110539Y-101965695D01*
X206110538Y-101965695D01*
X205873808Y-102063752D01*
X205622499Y-102113740D01*
X205366261Y-102113740D01*
X205114952Y-102063752D01*
X204878222Y-101965695D01*
X204878221Y-101965695D01*
X204878220Y-101965694D01*
X204665168Y-101823337D01*
X204483983Y-101642152D01*
X204341626Y-101429100D01*
X204340687Y-101426834D01*
X204243568Y-101192368D01*
X204193580Y-100941059D01*
X204193580Y-100684821D01*
X204243568Y-100433512D01*
X204341625Y-100196782D01*
X204483982Y-99983729D01*
X204665169Y-99802542D01*
X204770972Y-99731847D01*
X204878220Y-99660186D01*
X204878222Y-99660185D01*
X205114952Y-99562128D01*
X205366261Y-99512140D01*
X205622499Y-99512140D01*
X205873808Y-99562128D01*
X205873808Y-99562128D01*
G37*
G36*
X195369848Y-99562128D02*
G01*
X195606578Y-99660185D01*
X195606580Y-99660186D01*
X195713828Y-99731847D01*
X195819631Y-99802542D01*
X196000818Y-99983729D01*
X196143175Y-100196782D01*
X196241232Y-100433512D01*
X196291220Y-100684821D01*
X196291220Y-100941059D01*
X196241232Y-101192368D01*
X196144113Y-101426834D01*
X196143174Y-101429100D01*
X196000817Y-101642152D01*
X195819632Y-101823337D01*
X195606580Y-101965694D01*
X195606579Y-101965695D01*
X195606578Y-101965695D01*
X195369848Y-102063752D01*
X195118539Y-102113740D01*
X194862301Y-102113740D01*
X194610992Y-102063752D01*
X194374262Y-101965695D01*
X194374261Y-101965695D01*
X194374260Y-101965694D01*
X194161208Y-101823337D01*
X193980023Y-101642152D01*
X193837666Y-101429100D01*
X193836727Y-101426834D01*
X193739608Y-101192368D01*
X193689620Y-100941059D01*
X193689620Y-100684821D01*
X193739608Y-100433512D01*
X193837665Y-100196782D01*
X193980022Y-99983729D01*
X194161209Y-99802542D01*
X194267012Y-99731847D01*
X194374260Y-99660186D01*
X194374262Y-99660185D01*
X194610992Y-99562128D01*
X194862301Y-99512140D01*
X195118539Y-99512140D01*
X195369848Y-99562128D01*
X195369848Y-99562128D01*
G37*
G36*
X183873808Y-99562128D02*
G01*
X184110538Y-99660185D01*
X184110540Y-99660186D01*
X184217788Y-99731847D01*
X184323591Y-99802542D01*
X184504778Y-99983729D01*
X184647135Y-100196782D01*
X184745192Y-100433512D01*
X184795180Y-100684821D01*
X184795180Y-100941059D01*
X184745192Y-101192368D01*
X184648073Y-101426834D01*
X184647134Y-101429100D01*
X184504777Y-101642152D01*
X184323592Y-101823337D01*
X184110540Y-101965694D01*
X184110539Y-101965695D01*
X184110538Y-101965695D01*
X183873808Y-102063752D01*
X183622499Y-102113740D01*
X183366261Y-102113740D01*
X183114952Y-102063752D01*
X182878222Y-101965695D01*
X182878221Y-101965695D01*
X182878220Y-101965694D01*
X182665168Y-101823337D01*
X182483983Y-101642152D01*
X182341626Y-101429100D01*
X182340687Y-101426834D01*
X182243568Y-101192368D01*
X182193580Y-100941059D01*
X182193580Y-100684821D01*
X182243568Y-100433512D01*
X182341625Y-100196782D01*
X182483982Y-99983729D01*
X182665169Y-99802542D01*
X182770972Y-99731847D01*
X182878220Y-99660186D01*
X182878222Y-99660185D01*
X183114952Y-99562128D01*
X183366261Y-99512140D01*
X183622499Y-99512140D01*
X183873808Y-99562128D01*
X183873808Y-99562128D01*
G37*
G36*
X165869848Y-99562128D02*
G01*
X166106578Y-99660185D01*
X166106580Y-99660186D01*
X166213828Y-99731847D01*
X166319631Y-99802542D01*
X166500818Y-99983729D01*
X166643175Y-100196782D01*
X166741232Y-100433512D01*
X166791220Y-100684821D01*
X166791220Y-100941059D01*
X166741232Y-101192368D01*
X166644113Y-101426834D01*
X166643174Y-101429100D01*
X166500817Y-101642152D01*
X166319632Y-101823337D01*
X166106580Y-101965694D01*
X166106579Y-101965695D01*
X166106578Y-101965695D01*
X165869848Y-102063752D01*
X165618539Y-102113740D01*
X165362301Y-102113740D01*
X165110992Y-102063752D01*
X164874262Y-101965695D01*
X164874261Y-101965695D01*
X164874260Y-101965694D01*
X164661208Y-101823337D01*
X164480023Y-101642152D01*
X164337666Y-101429100D01*
X164336727Y-101426834D01*
X164239608Y-101192368D01*
X164189620Y-100941059D01*
X164189620Y-100684821D01*
X164239608Y-100433512D01*
X164337665Y-100196782D01*
X164480022Y-99983729D01*
X164661209Y-99802542D01*
X164767012Y-99731847D01*
X164874260Y-99660186D01*
X164874262Y-99660185D01*
X165110992Y-99562128D01*
X165362301Y-99512140D01*
X165618539Y-99512140D01*
X165869848Y-99562128D01*
X165869848Y-99562128D01*
G37*
G36*
X154373808Y-99562128D02*
G01*
X154610538Y-99660185D01*
X154610540Y-99660186D01*
X154717788Y-99731847D01*
X154823591Y-99802542D01*
X155004778Y-99983729D01*
X155147135Y-100196782D01*
X155245192Y-100433512D01*
X155295180Y-100684821D01*
X155295180Y-100941059D01*
X155245192Y-101192368D01*
X155148073Y-101426834D01*
X155147134Y-101429100D01*
X155004777Y-101642152D01*
X154823592Y-101823337D01*
X154610540Y-101965694D01*
X154610539Y-101965695D01*
X154610538Y-101965695D01*
X154373808Y-102063752D01*
X154122499Y-102113740D01*
X153866261Y-102113740D01*
X153614952Y-102063752D01*
X153378222Y-101965695D01*
X153378221Y-101965695D01*
X153378220Y-101965694D01*
X153165168Y-101823337D01*
X152983983Y-101642152D01*
X152841626Y-101429100D01*
X152840687Y-101426834D01*
X152743568Y-101192368D01*
X152693580Y-100941059D01*
X152693580Y-100684821D01*
X152743568Y-100433512D01*
X152841625Y-100196782D01*
X152983982Y-99983729D01*
X153165169Y-99802542D01*
X153270972Y-99731847D01*
X153378220Y-99660186D01*
X153378222Y-99660185D01*
X153614952Y-99562128D01*
X153866261Y-99512140D01*
X154122499Y-99512140D01*
X154373808Y-99562128D01*
X154373808Y-99562128D01*
G37*
G36*
X143869848Y-99562128D02*
G01*
X144106578Y-99660185D01*
X144106580Y-99660186D01*
X144213828Y-99731847D01*
X144319631Y-99802542D01*
X144500818Y-99983729D01*
X144643175Y-100196782D01*
X144741232Y-100433512D01*
X144791220Y-100684821D01*
X144791220Y-100941059D01*
X144741232Y-101192368D01*
X144644113Y-101426834D01*
X144643174Y-101429100D01*
X144500817Y-101642152D01*
X144319632Y-101823337D01*
X144106580Y-101965694D01*
X144106579Y-101965695D01*
X144106578Y-101965695D01*
X143869848Y-102063752D01*
X143618539Y-102113740D01*
X143362301Y-102113740D01*
X143110992Y-102063752D01*
X142874262Y-101965695D01*
X142874261Y-101965695D01*
X142874260Y-101965694D01*
X142661208Y-101823337D01*
X142480023Y-101642152D01*
X142337666Y-101429100D01*
X142336727Y-101426834D01*
X142239608Y-101192368D01*
X142189620Y-100941059D01*
X142189620Y-100684821D01*
X142239608Y-100433512D01*
X142337665Y-100196782D01*
X142480022Y-99983729D01*
X142661209Y-99802542D01*
X142767012Y-99731847D01*
X142874260Y-99660186D01*
X142874262Y-99660185D01*
X143110992Y-99562128D01*
X143362301Y-99512140D01*
X143618539Y-99512140D01*
X143869848Y-99562128D01*
X143869848Y-99562128D01*
G37*
G36*
X132373808Y-99562128D02*
G01*
X132610538Y-99660185D01*
X132610540Y-99660186D01*
X132717788Y-99731847D01*
X132823591Y-99802542D01*
X133004778Y-99983729D01*
X133147135Y-100196782D01*
X133245192Y-100433512D01*
X133295180Y-100684821D01*
X133295180Y-100941059D01*
X133245192Y-101192368D01*
X133148073Y-101426834D01*
X133147134Y-101429100D01*
X133004777Y-101642152D01*
X132823592Y-101823337D01*
X132610540Y-101965694D01*
X132610539Y-101965695D01*
X132610538Y-101965695D01*
X132373808Y-102063752D01*
X132122499Y-102113740D01*
X131866261Y-102113740D01*
X131614952Y-102063752D01*
X131378222Y-101965695D01*
X131378221Y-101965695D01*
X131378220Y-101965694D01*
X131165168Y-101823337D01*
X130983983Y-101642152D01*
X130841626Y-101429100D01*
X130840687Y-101426834D01*
X130743568Y-101192368D01*
X130693580Y-100941059D01*
X130693580Y-100684821D01*
X130743568Y-100433512D01*
X130841625Y-100196782D01*
X130983982Y-99983729D01*
X131165169Y-99802542D01*
X131270972Y-99731847D01*
X131378220Y-99660186D01*
X131378222Y-99660185D01*
X131614952Y-99562128D01*
X131866261Y-99512140D01*
X132122499Y-99512140D01*
X132373808Y-99562128D01*
X132373808Y-99562128D01*
G37*
G36*
X114369848Y-99562128D02*
G01*
X114606578Y-99660185D01*
X114606580Y-99660186D01*
X114713828Y-99731847D01*
X114819631Y-99802542D01*
X115000818Y-99983729D01*
X115143175Y-100196782D01*
X115241232Y-100433512D01*
X115291220Y-100684821D01*
X115291220Y-100941059D01*
X115241232Y-101192368D01*
X115144113Y-101426834D01*
X115143174Y-101429100D01*
X115000817Y-101642152D01*
X114819632Y-101823337D01*
X114606580Y-101965694D01*
X114606579Y-101965695D01*
X114606578Y-101965695D01*
X114369848Y-102063752D01*
X114118539Y-102113740D01*
X113862301Y-102113740D01*
X113610992Y-102063752D01*
X113374262Y-101965695D01*
X113374261Y-101965695D01*
X113374260Y-101965694D01*
X113161208Y-101823337D01*
X112980023Y-101642152D01*
X112837666Y-101429100D01*
X112836727Y-101426834D01*
X112739608Y-101192368D01*
X112689620Y-100941059D01*
X112689620Y-100684821D01*
X112739608Y-100433512D01*
X112837665Y-100196782D01*
X112980022Y-99983729D01*
X113161209Y-99802542D01*
X113267012Y-99731847D01*
X113374260Y-99660186D01*
X113374262Y-99660185D01*
X113610992Y-99562128D01*
X113862301Y-99512140D01*
X114118539Y-99512140D01*
X114369848Y-99562128D01*
X114369848Y-99562128D01*
G37*
G36*
X102873808Y-99562128D02*
G01*
X103110538Y-99660185D01*
X103110540Y-99660186D01*
X103217788Y-99731847D01*
X103323591Y-99802542D01*
X103504778Y-99983729D01*
X103647135Y-100196782D01*
X103745192Y-100433512D01*
X103795180Y-100684821D01*
X103795180Y-100941059D01*
X103745192Y-101192368D01*
X103648073Y-101426834D01*
X103647134Y-101429100D01*
X103504777Y-101642152D01*
X103323592Y-101823337D01*
X103110540Y-101965694D01*
X103110539Y-101965695D01*
X103110538Y-101965695D01*
X102873808Y-102063752D01*
X102622499Y-102113740D01*
X102366261Y-102113740D01*
X102114952Y-102063752D01*
X101878222Y-101965695D01*
X101878221Y-101965695D01*
X101878220Y-101965694D01*
X101665168Y-101823337D01*
X101483983Y-101642152D01*
X101341626Y-101429100D01*
X101340687Y-101426834D01*
X101243568Y-101192368D01*
X101193580Y-100941059D01*
X101193580Y-100684821D01*
X101243568Y-100433512D01*
X101341625Y-100196782D01*
X101483982Y-99983729D01*
X101665169Y-99802542D01*
X101770972Y-99731847D01*
X101878220Y-99660186D01*
X101878222Y-99660185D01*
X102114952Y-99562128D01*
X102366261Y-99512140D01*
X102622499Y-99512140D01*
X102873808Y-99562128D01*
X102873808Y-99562128D01*
G37*
G36*
X92369848Y-99562128D02*
G01*
X92606578Y-99660185D01*
X92606580Y-99660186D01*
X92713828Y-99731847D01*
X92819631Y-99802542D01*
X93000818Y-99983729D01*
X93143175Y-100196782D01*
X93241232Y-100433512D01*
X93291220Y-100684821D01*
X93291220Y-100941059D01*
X93241232Y-101192368D01*
X93144113Y-101426834D01*
X93143174Y-101429100D01*
X93000817Y-101642152D01*
X92819632Y-101823337D01*
X92606580Y-101965694D01*
X92606579Y-101965695D01*
X92606578Y-101965695D01*
X92369848Y-102063752D01*
X92118539Y-102113740D01*
X91862301Y-102113740D01*
X91610992Y-102063752D01*
X91374262Y-101965695D01*
X91374261Y-101965695D01*
X91374260Y-101965694D01*
X91161208Y-101823337D01*
X90980023Y-101642152D01*
X90837666Y-101429100D01*
X90836727Y-101426834D01*
X90739608Y-101192368D01*
X90689620Y-100941059D01*
X90689620Y-100684821D01*
X90739608Y-100433512D01*
X90837665Y-100196782D01*
X90980022Y-99983729D01*
X91161209Y-99802542D01*
X91267012Y-99731847D01*
X91374260Y-99660186D01*
X91374262Y-99660185D01*
X91610992Y-99562128D01*
X91862301Y-99512140D01*
X92118539Y-99512140D01*
X92369848Y-99562128D01*
X92369848Y-99562128D01*
G37*
G36*
X189740036Y-93812813D02*
G01*
X189986441Y-93861826D01*
X190450657Y-94054111D01*
X190868440Y-94333264D01*
X191223736Y-94688560D01*
X191502889Y-95106343D01*
X191695174Y-95570559D01*
X191793200Y-96063368D01*
X191793200Y-96565832D01*
X191695174Y-97058641D01*
X191502889Y-97522857D01*
X191223736Y-97940640D01*
X190868440Y-98295936D01*
X190450657Y-98575089D01*
X189986441Y-98767374D01*
X189493633Y-98865400D01*
X188991167Y-98865400D01*
X188744764Y-98816387D01*
X188498359Y-98767374D01*
X188034143Y-98575089D01*
X187616360Y-98295936D01*
X187261064Y-97940640D01*
X186981911Y-97522857D01*
X186789626Y-97058641D01*
X186691600Y-96565832D01*
X186691600Y-96063368D01*
X186789626Y-95570559D01*
X186981911Y-95106343D01*
X187261064Y-94688560D01*
X187616360Y-94333264D01*
X188034143Y-94054111D01*
X188498359Y-93861826D01*
X188744764Y-93812813D01*
X188991167Y-93763800D01*
X189493633Y-93763800D01*
X189740036Y-93812813D01*
X189740036Y-93812813D01*
G37*
G36*
X211740036Y-93812813D02*
G01*
X211986441Y-93861826D01*
X212450657Y-94054111D01*
X212868440Y-94333264D01*
X213223736Y-94688560D01*
X213502889Y-95106343D01*
X213695174Y-95570559D01*
X213793200Y-96063368D01*
X213793200Y-96565832D01*
X213695174Y-97058641D01*
X213502889Y-97522857D01*
X213223736Y-97940640D01*
X212868440Y-98295936D01*
X212450657Y-98575089D01*
X211986441Y-98767374D01*
X211493633Y-98865400D01*
X210991167Y-98865400D01*
X210744764Y-98816387D01*
X210498359Y-98767374D01*
X210034143Y-98575089D01*
X209616360Y-98295936D01*
X209261064Y-97940640D01*
X208981911Y-97522857D01*
X208789626Y-97058641D01*
X208691600Y-96565832D01*
X208691600Y-96063368D01*
X208789626Y-95570559D01*
X208981911Y-95106343D01*
X209261064Y-94688560D01*
X209616360Y-94333264D01*
X210034143Y-94054111D01*
X210498359Y-93861826D01*
X210744764Y-93812813D01*
X210991167Y-93763800D01*
X211493633Y-93763800D01*
X211740036Y-93812813D01*
X211740036Y-93812813D01*
G37*
G36*
X86740036Y-93812813D02*
G01*
X86986441Y-93861826D01*
X87450657Y-94054111D01*
X87868440Y-94333264D01*
X88223736Y-94688560D01*
X88502889Y-95106343D01*
X88695174Y-95570559D01*
X88793200Y-96063368D01*
X88793200Y-96565832D01*
X88695174Y-97058641D01*
X88502889Y-97522857D01*
X88223736Y-97940640D01*
X87868440Y-98295936D01*
X87450657Y-98575089D01*
X86986441Y-98767374D01*
X86493633Y-98865400D01*
X85991167Y-98865400D01*
X85744764Y-98816387D01*
X85498359Y-98767374D01*
X85034143Y-98575089D01*
X84616360Y-98295936D01*
X84261064Y-97940640D01*
X83981911Y-97522857D01*
X83789626Y-97058641D01*
X83691600Y-96565832D01*
X83691600Y-96063368D01*
X83789626Y-95570559D01*
X83981911Y-95106343D01*
X84261064Y-94688560D01*
X84616360Y-94333264D01*
X85034143Y-94054111D01*
X85498359Y-93861826D01*
X85744764Y-93812813D01*
X85991167Y-93763800D01*
X86493633Y-93763800D01*
X86740036Y-93812813D01*
X86740036Y-93812813D01*
G37*
G36*
X160240036Y-93812813D02*
G01*
X160486441Y-93861826D01*
X160950657Y-94054111D01*
X161368440Y-94333264D01*
X161723736Y-94688560D01*
X162002889Y-95106343D01*
X162195174Y-95570559D01*
X162293200Y-96063368D01*
X162293200Y-96565832D01*
X162195174Y-97058641D01*
X162002889Y-97522857D01*
X161723736Y-97940640D01*
X161368440Y-98295936D01*
X160950657Y-98575089D01*
X160486441Y-98767374D01*
X159993633Y-98865400D01*
X159491167Y-98865400D01*
X159244764Y-98816387D01*
X158998359Y-98767374D01*
X158534143Y-98575089D01*
X158116360Y-98295936D01*
X157761064Y-97940640D01*
X157481911Y-97522857D01*
X157289626Y-97058641D01*
X157191600Y-96565832D01*
X157191600Y-96063368D01*
X157289626Y-95570559D01*
X157481911Y-95106343D01*
X157761064Y-94688560D01*
X158116360Y-94333264D01*
X158534143Y-94054111D01*
X158998359Y-93861826D01*
X159244764Y-93812813D01*
X159491167Y-93763800D01*
X159993633Y-93763800D01*
X160240036Y-93812813D01*
X160240036Y-93812813D01*
G37*
G36*
X138240036Y-93812813D02*
G01*
X138486441Y-93861826D01*
X138950657Y-94054111D01*
X139368440Y-94333264D01*
X139723736Y-94688560D01*
X140002889Y-95106343D01*
X140195174Y-95570559D01*
X140293200Y-96063368D01*
X140293200Y-96565832D01*
X140195174Y-97058641D01*
X140002889Y-97522857D01*
X139723736Y-97940640D01*
X139368440Y-98295936D01*
X138950657Y-98575089D01*
X138486441Y-98767374D01*
X137993633Y-98865400D01*
X137491167Y-98865400D01*
X137244764Y-98816387D01*
X136998359Y-98767374D01*
X136534143Y-98575089D01*
X136116360Y-98295936D01*
X135761064Y-97940640D01*
X135481911Y-97522857D01*
X135289626Y-97058641D01*
X135191600Y-96565832D01*
X135191600Y-96063368D01*
X135289626Y-95570559D01*
X135481911Y-95106343D01*
X135761064Y-94688560D01*
X136116360Y-94333264D01*
X136534143Y-94054111D01*
X136998359Y-93861826D01*
X137244764Y-93812813D01*
X137491167Y-93763800D01*
X137993633Y-93763800D01*
X138240036Y-93812813D01*
X138240036Y-93812813D01*
G37*
G36*
X108740036Y-93812813D02*
G01*
X108986441Y-93861826D01*
X109450657Y-94054111D01*
X109868440Y-94333264D01*
X110223736Y-94688560D01*
X110502889Y-95106343D01*
X110695174Y-95570559D01*
X110793200Y-96063368D01*
X110793200Y-96565832D01*
X110695174Y-97058641D01*
X110502889Y-97522857D01*
X110223736Y-97940640D01*
X109868440Y-98295936D01*
X109450657Y-98575089D01*
X108986441Y-98767374D01*
X108493633Y-98865400D01*
X107991167Y-98865400D01*
X107744764Y-98816387D01*
X107498359Y-98767374D01*
X107034143Y-98575089D01*
X106616360Y-98295936D01*
X106261064Y-97940640D01*
X105981911Y-97522857D01*
X105789626Y-97058641D01*
X105691600Y-96565832D01*
X105691600Y-96063368D01*
X105789626Y-95570559D01*
X105981911Y-95106343D01*
X106261064Y-94688560D01*
X106616360Y-94333264D01*
X107034143Y-94054111D01*
X107498359Y-93861826D01*
X107744764Y-93812813D01*
X107991167Y-93763800D01*
X108493633Y-93763800D01*
X108740036Y-93812813D01*
X108740036Y-93812813D01*
G37*
G36*
X205873808Y-95063788D02*
G01*
X206110538Y-95161845D01*
X206110540Y-95161846D01*
X206217788Y-95233507D01*
X206323591Y-95304202D01*
X206504778Y-95485389D01*
X206647135Y-95698442D01*
X206745192Y-95935172D01*
X206795180Y-96186481D01*
X206795180Y-96442719D01*
X206745192Y-96694028D01*
X206647135Y-96930758D01*
X206647134Y-96930760D01*
X206504777Y-97143812D01*
X206323592Y-97324997D01*
X206110540Y-97467354D01*
X206110539Y-97467355D01*
X206110538Y-97467355D01*
X205873808Y-97565412D01*
X205622499Y-97615400D01*
X205366261Y-97615400D01*
X205114952Y-97565412D01*
X204878222Y-97467355D01*
X204878221Y-97467355D01*
X204878220Y-97467354D01*
X204665168Y-97324997D01*
X204483983Y-97143812D01*
X204341626Y-96930760D01*
X204341625Y-96930758D01*
X204243568Y-96694028D01*
X204193580Y-96442719D01*
X204193580Y-96186481D01*
X204243568Y-95935172D01*
X204341625Y-95698442D01*
X204483982Y-95485389D01*
X204665169Y-95304202D01*
X204770972Y-95233507D01*
X204878220Y-95161846D01*
X204878222Y-95161845D01*
X205114952Y-95063788D01*
X205366261Y-95013800D01*
X205622499Y-95013800D01*
X205873808Y-95063788D01*
X205873808Y-95063788D01*
G37*
G36*
X92369848Y-95063788D02*
G01*
X92606578Y-95161845D01*
X92606580Y-95161846D01*
X92713828Y-95233507D01*
X92819631Y-95304202D01*
X93000818Y-95485389D01*
X93143175Y-95698442D01*
X93241232Y-95935172D01*
X93291220Y-96186481D01*
X93291220Y-96442719D01*
X93241232Y-96694028D01*
X93143175Y-96930758D01*
X93143174Y-96930760D01*
X93000817Y-97143812D01*
X92819632Y-97324997D01*
X92606580Y-97467354D01*
X92606579Y-97467355D01*
X92606578Y-97467355D01*
X92369848Y-97565412D01*
X92118539Y-97615400D01*
X91862301Y-97615400D01*
X91610992Y-97565412D01*
X91374262Y-97467355D01*
X91374261Y-97467355D01*
X91374260Y-97467354D01*
X91161208Y-97324997D01*
X90980023Y-97143812D01*
X90837666Y-96930760D01*
X90837665Y-96930758D01*
X90739608Y-96694028D01*
X90689620Y-96442719D01*
X90689620Y-96186481D01*
X90739608Y-95935172D01*
X90837665Y-95698442D01*
X90980022Y-95485389D01*
X91161209Y-95304202D01*
X91267012Y-95233507D01*
X91374260Y-95161846D01*
X91374262Y-95161845D01*
X91610992Y-95063788D01*
X91862301Y-95013800D01*
X92118539Y-95013800D01*
X92369848Y-95063788D01*
X92369848Y-95063788D01*
G37*
G36*
X80873808Y-95063788D02*
G01*
X81110538Y-95161845D01*
X81110540Y-95161846D01*
X81217788Y-95233507D01*
X81323591Y-95304202D01*
X81504778Y-95485389D01*
X81647135Y-95698442D01*
X81745192Y-95935172D01*
X81795180Y-96186481D01*
X81795180Y-96442719D01*
X81745192Y-96694028D01*
X81647135Y-96930758D01*
X81647134Y-96930760D01*
X81504777Y-97143812D01*
X81323592Y-97324997D01*
X81110540Y-97467354D01*
X81110539Y-97467355D01*
X81110538Y-97467355D01*
X80873808Y-97565412D01*
X80622499Y-97615400D01*
X80366261Y-97615400D01*
X80114952Y-97565412D01*
X79878222Y-97467355D01*
X79878221Y-97467355D01*
X79878220Y-97467354D01*
X79665168Y-97324997D01*
X79483983Y-97143812D01*
X79341626Y-96930760D01*
X79341625Y-96930758D01*
X79243568Y-96694028D01*
X79193580Y-96442719D01*
X79193580Y-96186481D01*
X79243568Y-95935172D01*
X79341625Y-95698442D01*
X79483982Y-95485389D01*
X79665169Y-95304202D01*
X79770972Y-95233507D01*
X79878220Y-95161846D01*
X79878222Y-95161845D01*
X80114952Y-95063788D01*
X80366261Y-95013800D01*
X80622499Y-95013800D01*
X80873808Y-95063788D01*
X80873808Y-95063788D01*
G37*
G36*
X102873808Y-95063788D02*
G01*
X103110538Y-95161845D01*
X103110540Y-95161846D01*
X103217788Y-95233507D01*
X103323591Y-95304202D01*
X103504778Y-95485389D01*
X103647135Y-95698442D01*
X103745192Y-95935172D01*
X103795180Y-96186481D01*
X103795180Y-96442719D01*
X103745192Y-96694028D01*
X103647135Y-96930758D01*
X103647134Y-96930760D01*
X103504777Y-97143812D01*
X103323592Y-97324997D01*
X103110540Y-97467354D01*
X103110539Y-97467355D01*
X103110538Y-97467355D01*
X102873808Y-97565412D01*
X102622499Y-97615400D01*
X102366261Y-97615400D01*
X102114952Y-97565412D01*
X101878222Y-97467355D01*
X101878221Y-97467355D01*
X101878220Y-97467354D01*
X101665168Y-97324997D01*
X101483983Y-97143812D01*
X101341626Y-96930760D01*
X101341625Y-96930758D01*
X101243568Y-96694028D01*
X101193580Y-96442719D01*
X101193580Y-96186481D01*
X101243568Y-95935172D01*
X101341625Y-95698442D01*
X101483982Y-95485389D01*
X101665169Y-95304202D01*
X101770972Y-95233507D01*
X101878220Y-95161846D01*
X101878222Y-95161845D01*
X102114952Y-95063788D01*
X102366261Y-95013800D01*
X102622499Y-95013800D01*
X102873808Y-95063788D01*
X102873808Y-95063788D01*
G37*
G36*
X114369848Y-95063788D02*
G01*
X114606578Y-95161845D01*
X114606580Y-95161846D01*
X114713828Y-95233507D01*
X114819631Y-95304202D01*
X115000818Y-95485389D01*
X115143175Y-95698442D01*
X115241232Y-95935172D01*
X115291220Y-96186481D01*
X115291220Y-96442719D01*
X115241232Y-96694028D01*
X115143175Y-96930758D01*
X115143174Y-96930760D01*
X115000817Y-97143812D01*
X114819632Y-97324997D01*
X114606580Y-97467354D01*
X114606579Y-97467355D01*
X114606578Y-97467355D01*
X114369848Y-97565412D01*
X114118539Y-97615400D01*
X113862301Y-97615400D01*
X113610992Y-97565412D01*
X113374262Y-97467355D01*
X113374261Y-97467355D01*
X113374260Y-97467354D01*
X113161208Y-97324997D01*
X112980023Y-97143812D01*
X112837666Y-96930760D01*
X112837665Y-96930758D01*
X112739608Y-96694028D01*
X112689620Y-96442719D01*
X112689620Y-96186481D01*
X112739608Y-95935172D01*
X112837665Y-95698442D01*
X112980022Y-95485389D01*
X113161209Y-95304202D01*
X113267012Y-95233507D01*
X113374260Y-95161846D01*
X113374262Y-95161845D01*
X113610992Y-95063788D01*
X113862301Y-95013800D01*
X114118539Y-95013800D01*
X114369848Y-95063788D01*
X114369848Y-95063788D01*
G37*
G36*
X183873808Y-95063788D02*
G01*
X184110538Y-95161845D01*
X184110540Y-95161846D01*
X184217788Y-95233507D01*
X184323591Y-95304202D01*
X184504778Y-95485389D01*
X184647135Y-95698442D01*
X184745192Y-95935172D01*
X184795180Y-96186481D01*
X184795180Y-96442719D01*
X184745192Y-96694028D01*
X184647135Y-96930758D01*
X184647134Y-96930760D01*
X184504777Y-97143812D01*
X184323592Y-97324997D01*
X184110540Y-97467354D01*
X184110539Y-97467355D01*
X184110538Y-97467355D01*
X183873808Y-97565412D01*
X183622499Y-97615400D01*
X183366261Y-97615400D01*
X183114952Y-97565412D01*
X182878222Y-97467355D01*
X182878221Y-97467355D01*
X182878220Y-97467354D01*
X182665168Y-97324997D01*
X182483983Y-97143812D01*
X182341626Y-96930760D01*
X182341625Y-96930758D01*
X182243568Y-96694028D01*
X182193580Y-96442719D01*
X182193580Y-96186481D01*
X182243568Y-95935172D01*
X182341625Y-95698442D01*
X182483982Y-95485389D01*
X182665169Y-95304202D01*
X182770972Y-95233507D01*
X182878220Y-95161846D01*
X182878222Y-95161845D01*
X183114952Y-95063788D01*
X183366261Y-95013800D01*
X183622499Y-95013800D01*
X183873808Y-95063788D01*
X183873808Y-95063788D01*
G37*
G36*
X132373808Y-95063788D02*
G01*
X132610538Y-95161845D01*
X132610540Y-95161846D01*
X132717788Y-95233507D01*
X132823591Y-95304202D01*
X133004778Y-95485389D01*
X133147135Y-95698442D01*
X133245192Y-95935172D01*
X133295180Y-96186481D01*
X133295180Y-96442719D01*
X133245192Y-96694028D01*
X133147135Y-96930758D01*
X133147134Y-96930760D01*
X133004777Y-97143812D01*
X132823592Y-97324997D01*
X132610540Y-97467354D01*
X132610539Y-97467355D01*
X132610538Y-97467355D01*
X132373808Y-97565412D01*
X132122499Y-97615400D01*
X131866261Y-97615400D01*
X131614952Y-97565412D01*
X131378222Y-97467355D01*
X131378221Y-97467355D01*
X131378220Y-97467354D01*
X131165168Y-97324997D01*
X130983983Y-97143812D01*
X130841626Y-96930760D01*
X130841625Y-96930758D01*
X130743568Y-96694028D01*
X130693580Y-96442719D01*
X130693580Y-96186481D01*
X130743568Y-95935172D01*
X130841625Y-95698442D01*
X130983982Y-95485389D01*
X131165169Y-95304202D01*
X131270972Y-95233507D01*
X131378220Y-95161846D01*
X131378222Y-95161845D01*
X131614952Y-95063788D01*
X131866261Y-95013800D01*
X132122499Y-95013800D01*
X132373808Y-95063788D01*
X132373808Y-95063788D01*
G37*
G36*
X195369848Y-95063788D02*
G01*
X195606578Y-95161845D01*
X195606580Y-95161846D01*
X195713828Y-95233507D01*
X195819631Y-95304202D01*
X196000818Y-95485389D01*
X196143175Y-95698442D01*
X196241232Y-95935172D01*
X196291220Y-96186481D01*
X196291220Y-96442719D01*
X196241232Y-96694028D01*
X196143175Y-96930758D01*
X196143174Y-96930760D01*
X196000817Y-97143812D01*
X195819632Y-97324997D01*
X195606580Y-97467354D01*
X195606579Y-97467355D01*
X195606578Y-97467355D01*
X195369848Y-97565412D01*
X195118539Y-97615400D01*
X194862301Y-97615400D01*
X194610992Y-97565412D01*
X194374262Y-97467355D01*
X194374261Y-97467355D01*
X194374260Y-97467354D01*
X194161208Y-97324997D01*
X193980023Y-97143812D01*
X193837666Y-96930760D01*
X193837665Y-96930758D01*
X193739608Y-96694028D01*
X193689620Y-96442719D01*
X193689620Y-96186481D01*
X193739608Y-95935172D01*
X193837665Y-95698442D01*
X193980022Y-95485389D01*
X194161209Y-95304202D01*
X194267012Y-95233507D01*
X194374260Y-95161846D01*
X194374262Y-95161845D01*
X194610992Y-95063788D01*
X194862301Y-95013800D01*
X195118539Y-95013800D01*
X195369848Y-95063788D01*
X195369848Y-95063788D01*
G37*
G36*
X217369848Y-95063788D02*
G01*
X217606578Y-95161845D01*
X217606580Y-95161846D01*
X217713828Y-95233507D01*
X217819631Y-95304202D01*
X218000818Y-95485389D01*
X218143175Y-95698442D01*
X218241232Y-95935172D01*
X218291220Y-96186481D01*
X218291220Y-96442719D01*
X218241232Y-96694028D01*
X218143175Y-96930758D01*
X218143174Y-96930760D01*
X218000817Y-97143812D01*
X217819632Y-97324997D01*
X217606580Y-97467354D01*
X217606579Y-97467355D01*
X217606578Y-97467355D01*
X217369848Y-97565412D01*
X217118539Y-97615400D01*
X216862301Y-97615400D01*
X216610992Y-97565412D01*
X216374262Y-97467355D01*
X216374261Y-97467355D01*
X216374260Y-97467354D01*
X216161208Y-97324997D01*
X215980023Y-97143812D01*
X215837666Y-96930760D01*
X215837665Y-96930758D01*
X215739608Y-96694028D01*
X215689620Y-96442719D01*
X215689620Y-96186481D01*
X215739608Y-95935172D01*
X215837665Y-95698442D01*
X215980022Y-95485389D01*
X216161209Y-95304202D01*
X216267012Y-95233507D01*
X216374260Y-95161846D01*
X216374262Y-95161845D01*
X216610992Y-95063788D01*
X216862301Y-95013800D01*
X217118539Y-95013800D01*
X217369848Y-95063788D01*
X217369848Y-95063788D01*
G37*
G36*
X143869848Y-95063788D02*
G01*
X144106578Y-95161845D01*
X144106580Y-95161846D01*
X144213828Y-95233507D01*
X144319631Y-95304202D01*
X144500818Y-95485389D01*
X144643175Y-95698442D01*
X144741232Y-95935172D01*
X144791220Y-96186481D01*
X144791220Y-96442719D01*
X144741232Y-96694028D01*
X144643175Y-96930758D01*
X144643174Y-96930760D01*
X144500817Y-97143812D01*
X144319632Y-97324997D01*
X144106580Y-97467354D01*
X144106579Y-97467355D01*
X144106578Y-97467355D01*
X143869848Y-97565412D01*
X143618539Y-97615400D01*
X143362301Y-97615400D01*
X143110992Y-97565412D01*
X142874262Y-97467355D01*
X142874261Y-97467355D01*
X142874260Y-97467354D01*
X142661208Y-97324997D01*
X142480023Y-97143812D01*
X142337666Y-96930760D01*
X142337665Y-96930758D01*
X142239608Y-96694028D01*
X142189620Y-96442719D01*
X142189620Y-96186481D01*
X142239608Y-95935172D01*
X142337665Y-95698442D01*
X142480022Y-95485389D01*
X142661209Y-95304202D01*
X142767012Y-95233507D01*
X142874260Y-95161846D01*
X142874262Y-95161845D01*
X143110992Y-95063788D01*
X143362301Y-95013800D01*
X143618539Y-95013800D01*
X143869848Y-95063788D01*
X143869848Y-95063788D01*
G37*
G36*
X154373808Y-95063788D02*
G01*
X154610538Y-95161845D01*
X154610540Y-95161846D01*
X154717788Y-95233507D01*
X154823591Y-95304202D01*
X155004778Y-95485389D01*
X155147135Y-95698442D01*
X155245192Y-95935172D01*
X155295180Y-96186481D01*
X155295180Y-96442719D01*
X155245192Y-96694028D01*
X155147135Y-96930758D01*
X155147134Y-96930760D01*
X155004777Y-97143812D01*
X154823592Y-97324997D01*
X154610540Y-97467354D01*
X154610539Y-97467355D01*
X154610538Y-97467355D01*
X154373808Y-97565412D01*
X154122499Y-97615400D01*
X153866261Y-97615400D01*
X153614952Y-97565412D01*
X153378222Y-97467355D01*
X153378221Y-97467355D01*
X153378220Y-97467354D01*
X153165168Y-97324997D01*
X152983983Y-97143812D01*
X152841626Y-96930760D01*
X152841625Y-96930758D01*
X152743568Y-96694028D01*
X152693580Y-96442719D01*
X152693580Y-96186481D01*
X152743568Y-95935172D01*
X152841625Y-95698442D01*
X152983982Y-95485389D01*
X153165169Y-95304202D01*
X153270972Y-95233507D01*
X153378220Y-95161846D01*
X153378222Y-95161845D01*
X153614952Y-95063788D01*
X153866261Y-95013800D01*
X154122499Y-95013800D01*
X154373808Y-95063788D01*
X154373808Y-95063788D01*
G37*
G36*
X165869848Y-95063788D02*
G01*
X166106578Y-95161845D01*
X166106580Y-95161846D01*
X166213828Y-95233507D01*
X166319631Y-95304202D01*
X166500818Y-95485389D01*
X166643175Y-95698442D01*
X166741232Y-95935172D01*
X166791220Y-96186481D01*
X166791220Y-96442719D01*
X166741232Y-96694028D01*
X166643175Y-96930758D01*
X166643174Y-96930760D01*
X166500817Y-97143812D01*
X166319632Y-97324997D01*
X166106580Y-97467354D01*
X166106579Y-97467355D01*
X166106578Y-97467355D01*
X165869848Y-97565412D01*
X165618539Y-97615400D01*
X165362301Y-97615400D01*
X165110992Y-97565412D01*
X164874262Y-97467355D01*
X164874261Y-97467355D01*
X164874260Y-97467354D01*
X164661208Y-97324997D01*
X164480023Y-97143812D01*
X164337666Y-96930760D01*
X164337665Y-96930758D01*
X164239608Y-96694028D01*
X164189620Y-96442719D01*
X164189620Y-96186481D01*
X164239608Y-95935172D01*
X164337665Y-95698442D01*
X164480022Y-95485389D01*
X164661209Y-95304202D01*
X164767012Y-95233507D01*
X164874260Y-95161846D01*
X164874262Y-95161845D01*
X165110992Y-95063788D01*
X165362301Y-95013800D01*
X165618539Y-95013800D01*
X165869848Y-95063788D01*
X165869848Y-95063788D01*
G37*
G36*
X132373808Y-90565448D02*
G01*
X132604471Y-90660992D01*
X132610540Y-90663506D01*
X132717788Y-90735167D01*
X132823591Y-90805862D01*
X133004778Y-90987049D01*
X133147135Y-91200102D01*
X133245192Y-91436832D01*
X133295180Y-91688141D01*
X133295180Y-91944379D01*
X133245192Y-92195688D01*
X133147135Y-92432418D01*
X133147134Y-92432420D01*
X133004777Y-92645472D01*
X132823592Y-92826657D01*
X132610540Y-92969014D01*
X132610539Y-92969015D01*
X132610538Y-92969015D01*
X132373808Y-93067072D01*
X132122499Y-93117060D01*
X131866261Y-93117060D01*
X131614952Y-93067072D01*
X131378222Y-92969015D01*
X131378221Y-92969015D01*
X131378220Y-92969014D01*
X131165168Y-92826657D01*
X130983983Y-92645472D01*
X130841626Y-92432420D01*
X130841625Y-92432418D01*
X130743568Y-92195688D01*
X130693580Y-91944379D01*
X130693580Y-91688141D01*
X130743568Y-91436832D01*
X130841625Y-91200102D01*
X130983982Y-90987049D01*
X131165169Y-90805862D01*
X131270972Y-90735167D01*
X131378220Y-90663506D01*
X131384289Y-90660992D01*
X131614952Y-90565448D01*
X131866261Y-90515460D01*
X132122499Y-90515460D01*
X132373808Y-90565448D01*
X132373808Y-90565448D01*
G37*
G36*
X92369848Y-90565448D02*
G01*
X92600511Y-90660992D01*
X92606580Y-90663506D01*
X92713828Y-90735167D01*
X92819631Y-90805862D01*
X93000818Y-90987049D01*
X93143175Y-91200102D01*
X93241232Y-91436832D01*
X93291220Y-91688141D01*
X93291220Y-91944379D01*
X93241232Y-92195688D01*
X93143175Y-92432418D01*
X93143174Y-92432420D01*
X93000817Y-92645472D01*
X92819632Y-92826657D01*
X92606580Y-92969014D01*
X92606579Y-92969015D01*
X92606578Y-92969015D01*
X92369848Y-93067072D01*
X92118539Y-93117060D01*
X91862301Y-93117060D01*
X91610992Y-93067072D01*
X91374262Y-92969015D01*
X91374261Y-92969015D01*
X91374260Y-92969014D01*
X91161208Y-92826657D01*
X90980023Y-92645472D01*
X90837666Y-92432420D01*
X90837665Y-92432418D01*
X90739608Y-92195688D01*
X90689620Y-91944379D01*
X90689620Y-91688141D01*
X90739608Y-91436832D01*
X90837665Y-91200102D01*
X90980022Y-90987049D01*
X91161209Y-90805862D01*
X91267012Y-90735167D01*
X91374260Y-90663506D01*
X91380329Y-90660992D01*
X91610992Y-90565448D01*
X91862301Y-90515460D01*
X92118539Y-90515460D01*
X92369848Y-90565448D01*
X92369848Y-90565448D01*
G37*
G36*
X143869848Y-90565448D02*
G01*
X144100511Y-90660992D01*
X144106580Y-90663506D01*
X144213828Y-90735167D01*
X144319631Y-90805862D01*
X144500818Y-90987049D01*
X144643175Y-91200102D01*
X144741232Y-91436832D01*
X144791220Y-91688141D01*
X144791220Y-91944379D01*
X144741232Y-92195688D01*
X144643175Y-92432418D01*
X144643174Y-92432420D01*
X144500817Y-92645472D01*
X144319632Y-92826657D01*
X144106580Y-92969014D01*
X144106579Y-92969015D01*
X144106578Y-92969015D01*
X143869848Y-93067072D01*
X143618539Y-93117060D01*
X143362301Y-93117060D01*
X143110992Y-93067072D01*
X142874262Y-92969015D01*
X142874261Y-92969015D01*
X142874260Y-92969014D01*
X142661208Y-92826657D01*
X142480023Y-92645472D01*
X142337666Y-92432420D01*
X142337665Y-92432418D01*
X142239608Y-92195688D01*
X142189620Y-91944379D01*
X142189620Y-91688141D01*
X142239608Y-91436832D01*
X142337665Y-91200102D01*
X142480022Y-90987049D01*
X142661209Y-90805862D01*
X142767012Y-90735167D01*
X142874260Y-90663506D01*
X142880329Y-90660992D01*
X143110992Y-90565448D01*
X143362301Y-90515460D01*
X143618539Y-90515460D01*
X143869848Y-90565448D01*
X143869848Y-90565448D01*
G37*
G36*
X80873808Y-90565448D02*
G01*
X81104471Y-90660992D01*
X81110540Y-90663506D01*
X81217788Y-90735167D01*
X81323591Y-90805862D01*
X81504778Y-90987049D01*
X81647135Y-91200102D01*
X81745192Y-91436832D01*
X81795180Y-91688141D01*
X81795180Y-91944379D01*
X81745192Y-92195688D01*
X81647135Y-92432418D01*
X81647134Y-92432420D01*
X81504777Y-92645472D01*
X81323592Y-92826657D01*
X81110540Y-92969014D01*
X81110539Y-92969015D01*
X81110538Y-92969015D01*
X80873808Y-93067072D01*
X80622499Y-93117060D01*
X80366261Y-93117060D01*
X80114952Y-93067072D01*
X79878222Y-92969015D01*
X79878221Y-92969015D01*
X79878220Y-92969014D01*
X79665168Y-92826657D01*
X79483983Y-92645472D01*
X79341626Y-92432420D01*
X79341625Y-92432418D01*
X79243568Y-92195688D01*
X79193580Y-91944379D01*
X79193580Y-91688141D01*
X79243568Y-91436832D01*
X79341625Y-91200102D01*
X79483982Y-90987049D01*
X79665169Y-90805862D01*
X79770972Y-90735167D01*
X79878220Y-90663506D01*
X79884289Y-90660992D01*
X80114952Y-90565448D01*
X80366261Y-90515460D01*
X80622499Y-90515460D01*
X80873808Y-90565448D01*
X80873808Y-90565448D01*
G37*
G36*
X217369848Y-90565448D02*
G01*
X217600511Y-90660992D01*
X217606580Y-90663506D01*
X217713828Y-90735167D01*
X217819631Y-90805862D01*
X218000818Y-90987049D01*
X218143175Y-91200102D01*
X218241232Y-91436832D01*
X218291220Y-91688141D01*
X218291220Y-91944379D01*
X218241232Y-92195688D01*
X218143175Y-92432418D01*
X218143174Y-92432420D01*
X218000817Y-92645472D01*
X217819632Y-92826657D01*
X217606580Y-92969014D01*
X217606579Y-92969015D01*
X217606578Y-92969015D01*
X217369848Y-93067072D01*
X217118539Y-93117060D01*
X216862301Y-93117060D01*
X216610992Y-93067072D01*
X216374262Y-92969015D01*
X216374261Y-92969015D01*
X216374260Y-92969014D01*
X216161208Y-92826657D01*
X215980023Y-92645472D01*
X215837666Y-92432420D01*
X215837665Y-92432418D01*
X215739608Y-92195688D01*
X215689620Y-91944379D01*
X215689620Y-91688141D01*
X215739608Y-91436832D01*
X215837665Y-91200102D01*
X215980022Y-90987049D01*
X216161209Y-90805862D01*
X216267012Y-90735167D01*
X216374260Y-90663506D01*
X216380329Y-90660992D01*
X216610992Y-90565448D01*
X216862301Y-90515460D01*
X217118539Y-90515460D01*
X217369848Y-90565448D01*
X217369848Y-90565448D01*
G37*
G36*
X154373808Y-90565448D02*
G01*
X154604471Y-90660992D01*
X154610540Y-90663506D01*
X154717788Y-90735167D01*
X154823591Y-90805862D01*
X155004778Y-90987049D01*
X155147135Y-91200102D01*
X155245192Y-91436832D01*
X155295180Y-91688141D01*
X155295180Y-91944379D01*
X155245192Y-92195688D01*
X155147135Y-92432418D01*
X155147134Y-92432420D01*
X155004777Y-92645472D01*
X154823592Y-92826657D01*
X154610540Y-92969014D01*
X154610539Y-92969015D01*
X154610538Y-92969015D01*
X154373808Y-93067072D01*
X154122499Y-93117060D01*
X153866261Y-93117060D01*
X153614952Y-93067072D01*
X153378222Y-92969015D01*
X153378221Y-92969015D01*
X153378220Y-92969014D01*
X153165168Y-92826657D01*
X152983983Y-92645472D01*
X152841626Y-92432420D01*
X152841625Y-92432418D01*
X152743568Y-92195688D01*
X152693580Y-91944379D01*
X152693580Y-91688141D01*
X152743568Y-91436832D01*
X152841625Y-91200102D01*
X152983982Y-90987049D01*
X153165169Y-90805862D01*
X153270972Y-90735167D01*
X153378220Y-90663506D01*
X153384289Y-90660992D01*
X153614952Y-90565448D01*
X153866261Y-90515460D01*
X154122499Y-90515460D01*
X154373808Y-90565448D01*
X154373808Y-90565448D01*
G37*
G36*
X165869848Y-90565448D02*
G01*
X166100511Y-90660992D01*
X166106580Y-90663506D01*
X166213828Y-90735167D01*
X166319631Y-90805862D01*
X166500818Y-90987049D01*
X166643175Y-91200102D01*
X166741232Y-91436832D01*
X166791220Y-91688141D01*
X166791220Y-91944379D01*
X166741232Y-92195688D01*
X166643175Y-92432418D01*
X166643174Y-92432420D01*
X166500817Y-92645472D01*
X166319632Y-92826657D01*
X166106580Y-92969014D01*
X166106579Y-92969015D01*
X166106578Y-92969015D01*
X165869848Y-93067072D01*
X165618539Y-93117060D01*
X165362301Y-93117060D01*
X165110992Y-93067072D01*
X164874262Y-92969015D01*
X164874261Y-92969015D01*
X164874260Y-92969014D01*
X164661208Y-92826657D01*
X164480023Y-92645472D01*
X164337666Y-92432420D01*
X164337665Y-92432418D01*
X164239608Y-92195688D01*
X164189620Y-91944379D01*
X164189620Y-91688141D01*
X164239608Y-91436832D01*
X164337665Y-91200102D01*
X164480022Y-90987049D01*
X164661209Y-90805862D01*
X164767012Y-90735167D01*
X164874260Y-90663506D01*
X164880329Y-90660992D01*
X165110992Y-90565448D01*
X165362301Y-90515460D01*
X165618539Y-90515460D01*
X165869848Y-90565448D01*
X165869848Y-90565448D01*
G37*
G36*
X205873808Y-90565448D02*
G01*
X206104471Y-90660992D01*
X206110540Y-90663506D01*
X206217788Y-90735167D01*
X206323591Y-90805862D01*
X206504778Y-90987049D01*
X206647135Y-91200102D01*
X206745192Y-91436832D01*
X206795180Y-91688141D01*
X206795180Y-91944379D01*
X206745192Y-92195688D01*
X206647135Y-92432418D01*
X206647134Y-92432420D01*
X206504777Y-92645472D01*
X206323592Y-92826657D01*
X206110540Y-92969014D01*
X206110539Y-92969015D01*
X206110538Y-92969015D01*
X205873808Y-93067072D01*
X205622499Y-93117060D01*
X205366261Y-93117060D01*
X205114952Y-93067072D01*
X204878222Y-92969015D01*
X204878221Y-92969015D01*
X204878220Y-92969014D01*
X204665168Y-92826657D01*
X204483983Y-92645472D01*
X204341626Y-92432420D01*
X204341625Y-92432418D01*
X204243568Y-92195688D01*
X204193580Y-91944379D01*
X204193580Y-91688141D01*
X204243568Y-91436832D01*
X204341625Y-91200102D01*
X204483982Y-90987049D01*
X204665169Y-90805862D01*
X204770972Y-90735167D01*
X204878220Y-90663506D01*
X204884289Y-90660992D01*
X205114952Y-90565448D01*
X205366261Y-90515460D01*
X205622499Y-90515460D01*
X205873808Y-90565448D01*
X205873808Y-90565448D01*
G37*
G36*
X102873808Y-90565448D02*
G01*
X103104471Y-90660992D01*
X103110540Y-90663506D01*
X103217788Y-90735167D01*
X103323591Y-90805862D01*
X103504778Y-90987049D01*
X103647135Y-91200102D01*
X103745192Y-91436832D01*
X103795180Y-91688141D01*
X103795180Y-91944379D01*
X103745192Y-92195688D01*
X103647135Y-92432418D01*
X103647134Y-92432420D01*
X103504777Y-92645472D01*
X103323592Y-92826657D01*
X103110540Y-92969014D01*
X103110539Y-92969015D01*
X103110538Y-92969015D01*
X102873808Y-93067072D01*
X102622499Y-93117060D01*
X102366261Y-93117060D01*
X102114952Y-93067072D01*
X101878222Y-92969015D01*
X101878221Y-92969015D01*
X101878220Y-92969014D01*
X101665168Y-92826657D01*
X101483983Y-92645472D01*
X101341626Y-92432420D01*
X101341625Y-92432418D01*
X101243568Y-92195688D01*
X101193580Y-91944379D01*
X101193580Y-91688141D01*
X101243568Y-91436832D01*
X101341625Y-91200102D01*
X101483982Y-90987049D01*
X101665169Y-90805862D01*
X101770972Y-90735167D01*
X101878220Y-90663506D01*
X101884289Y-90660992D01*
X102114952Y-90565448D01*
X102366261Y-90515460D01*
X102622499Y-90515460D01*
X102873808Y-90565448D01*
X102873808Y-90565448D01*
G37*
G36*
X183873808Y-90565448D02*
G01*
X184104471Y-90660992D01*
X184110540Y-90663506D01*
X184217788Y-90735167D01*
X184323591Y-90805862D01*
X184504778Y-90987049D01*
X184647135Y-91200102D01*
X184745192Y-91436832D01*
X184795180Y-91688141D01*
X184795180Y-91944379D01*
X184745192Y-92195688D01*
X184647135Y-92432418D01*
X184647134Y-92432420D01*
X184504777Y-92645472D01*
X184323592Y-92826657D01*
X184110540Y-92969014D01*
X184110539Y-92969015D01*
X184110538Y-92969015D01*
X183873808Y-93067072D01*
X183622499Y-93117060D01*
X183366261Y-93117060D01*
X183114952Y-93067072D01*
X182878222Y-92969015D01*
X182878221Y-92969015D01*
X182878220Y-92969014D01*
X182665168Y-92826657D01*
X182483983Y-92645472D01*
X182341626Y-92432420D01*
X182341625Y-92432418D01*
X182243568Y-92195688D01*
X182193580Y-91944379D01*
X182193580Y-91688141D01*
X182243568Y-91436832D01*
X182341625Y-91200102D01*
X182483982Y-90987049D01*
X182665169Y-90805862D01*
X182770972Y-90735167D01*
X182878220Y-90663506D01*
X182884289Y-90660992D01*
X183114952Y-90565448D01*
X183366261Y-90515460D01*
X183622499Y-90515460D01*
X183873808Y-90565448D01*
X183873808Y-90565448D01*
G37*
G36*
X195369848Y-90565448D02*
G01*
X195600511Y-90660992D01*
X195606580Y-90663506D01*
X195713828Y-90735167D01*
X195819631Y-90805862D01*
X196000818Y-90987049D01*
X196143175Y-91200102D01*
X196241232Y-91436832D01*
X196291220Y-91688141D01*
X196291220Y-91944379D01*
X196241232Y-92195688D01*
X196143175Y-92432418D01*
X196143174Y-92432420D01*
X196000817Y-92645472D01*
X195819632Y-92826657D01*
X195606580Y-92969014D01*
X195606579Y-92969015D01*
X195606578Y-92969015D01*
X195369848Y-93067072D01*
X195118539Y-93117060D01*
X194862301Y-93117060D01*
X194610992Y-93067072D01*
X194374262Y-92969015D01*
X194374261Y-92969015D01*
X194374260Y-92969014D01*
X194161208Y-92826657D01*
X193980023Y-92645472D01*
X193837666Y-92432420D01*
X193837665Y-92432418D01*
X193739608Y-92195688D01*
X193689620Y-91944379D01*
X193689620Y-91688141D01*
X193739608Y-91436832D01*
X193837665Y-91200102D01*
X193980022Y-90987049D01*
X194161209Y-90805862D01*
X194267012Y-90735167D01*
X194374260Y-90663506D01*
X194380329Y-90660992D01*
X194610992Y-90565448D01*
X194862301Y-90515460D01*
X195118539Y-90515460D01*
X195369848Y-90565448D01*
X195369848Y-90565448D01*
G37*
G36*
X114369848Y-90565448D02*
G01*
X114600511Y-90660992D01*
X114606580Y-90663506D01*
X114713828Y-90735167D01*
X114819631Y-90805862D01*
X115000818Y-90987049D01*
X115143175Y-91200102D01*
X115241232Y-91436832D01*
X115291220Y-91688141D01*
X115291220Y-91944379D01*
X115241232Y-92195688D01*
X115143175Y-92432418D01*
X115143174Y-92432420D01*
X115000817Y-92645472D01*
X114819632Y-92826657D01*
X114606580Y-92969014D01*
X114606579Y-92969015D01*
X114606578Y-92969015D01*
X114369848Y-93067072D01*
X114118539Y-93117060D01*
X113862301Y-93117060D01*
X113610992Y-93067072D01*
X113374262Y-92969015D01*
X113374261Y-92969015D01*
X113374260Y-92969014D01*
X113161208Y-92826657D01*
X112980023Y-92645472D01*
X112837666Y-92432420D01*
X112837665Y-92432418D01*
X112739608Y-92195688D01*
X112689620Y-91944379D01*
X112689620Y-91688141D01*
X112739608Y-91436832D01*
X112837665Y-91200102D01*
X112980022Y-90987049D01*
X113161209Y-90805862D01*
X113267012Y-90735167D01*
X113374260Y-90663506D01*
X113380329Y-90660992D01*
X113610992Y-90565448D01*
X113862301Y-90515460D01*
X114118539Y-90515460D01*
X114369848Y-90565448D01*
X114369848Y-90565448D01*
G37*
G36*
X121790762Y-89418145D02*
G01*
X121878988Y-89426834D01*
X122017643Y-89468895D01*
X122048792Y-89478344D01*
X122205278Y-89561988D01*
X122342444Y-89674556D01*
X122455012Y-89811722D01*
X122538656Y-89968208D01*
X122538657Y-89968211D01*
X122590166Y-90138012D01*
X122607558Y-90314600D01*
X122590166Y-90491188D01*
X122582803Y-90515460D01*
X122538656Y-90660992D01*
X122455012Y-90817478D01*
X122342444Y-90954644D01*
X122205278Y-91067212D01*
X122048792Y-91150856D01*
X122048789Y-91150857D01*
X121878988Y-91202366D01*
X121790762Y-91211055D01*
X121746650Y-91215400D01*
X121658150Y-91215400D01*
X121614038Y-91211055D01*
X121525812Y-91202366D01*
X121356011Y-91150857D01*
X121356008Y-91150856D01*
X121199522Y-91067212D01*
X121062356Y-90954644D01*
X120949788Y-90817478D01*
X120866144Y-90660992D01*
X120821997Y-90515460D01*
X120814634Y-90491188D01*
X120797242Y-90314600D01*
X120814634Y-90138012D01*
X120866143Y-89968211D01*
X120866144Y-89968208D01*
X120949788Y-89811722D01*
X121062356Y-89674556D01*
X121199522Y-89561988D01*
X121356008Y-89478344D01*
X121387157Y-89468895D01*
X121525812Y-89426834D01*
X121614038Y-89418145D01*
X121658150Y-89413800D01*
X121746650Y-89413800D01*
X121790762Y-89418145D01*
X121790762Y-89418145D01*
G37*
G36*
X125143200Y-91215400D02*
G01*
X123341600Y-91215400D01*
X123341600Y-89413800D01*
X125143200Y-89413800D01*
X125143200Y-91215400D01*
X125143200Y-91215400D01*
G37*
G36*
X173290762Y-89418145D02*
G01*
X173378988Y-89426834D01*
X173517643Y-89468895D01*
X173548792Y-89478344D01*
X173705278Y-89561988D01*
X173842444Y-89674556D01*
X173955012Y-89811722D01*
X174038656Y-89968208D01*
X174038657Y-89968211D01*
X174090166Y-90138012D01*
X174107558Y-90314600D01*
X174090166Y-90491188D01*
X174082803Y-90515460D01*
X174038656Y-90660992D01*
X173955012Y-90817478D01*
X173842444Y-90954644D01*
X173705278Y-91067212D01*
X173548792Y-91150856D01*
X173548789Y-91150857D01*
X173378988Y-91202366D01*
X173290762Y-91211055D01*
X173246650Y-91215400D01*
X173158150Y-91215400D01*
X173114038Y-91211055D01*
X173025812Y-91202366D01*
X172856011Y-91150857D01*
X172856008Y-91150856D01*
X172699522Y-91067212D01*
X172562356Y-90954644D01*
X172449788Y-90817478D01*
X172366144Y-90660992D01*
X172321997Y-90515460D01*
X172314634Y-90491188D01*
X172297242Y-90314600D01*
X172314634Y-90138012D01*
X172366143Y-89968211D01*
X172366144Y-89968208D01*
X172449788Y-89811722D01*
X172562356Y-89674556D01*
X172699522Y-89561988D01*
X172856008Y-89478344D01*
X172887157Y-89468895D01*
X173025812Y-89426834D01*
X173114038Y-89418145D01*
X173158150Y-89413800D01*
X173246650Y-89413800D01*
X173290762Y-89418145D01*
X173290762Y-89418145D01*
G37*
G36*
X176643200Y-91215400D02*
G01*
X174841600Y-91215400D01*
X174841600Y-89413800D01*
X176643200Y-89413800D01*
X176643200Y-91215400D01*
X176643200Y-91215400D01*
G37*
G36*
X90619788Y-87065328D02*
G01*
X90856518Y-87163385D01*
X90856520Y-87163386D01*
X90892251Y-87187261D01*
X91069571Y-87305742D01*
X91250758Y-87486929D01*
X91393115Y-87699982D01*
X91491172Y-87936712D01*
X91541160Y-88188021D01*
X91541160Y-88444259D01*
X91491172Y-88695568D01*
X91393115Y-88932298D01*
X91393114Y-88932300D01*
X91250757Y-89145352D01*
X91069572Y-89326537D01*
X90856520Y-89468894D01*
X90856519Y-89468895D01*
X90856518Y-89468895D01*
X90619788Y-89566952D01*
X90368479Y-89616940D01*
X90112241Y-89616940D01*
X89860932Y-89566952D01*
X89624202Y-89468895D01*
X89624201Y-89468895D01*
X89624200Y-89468894D01*
X89411148Y-89326537D01*
X89229963Y-89145352D01*
X89087606Y-88932300D01*
X89087605Y-88932298D01*
X88989548Y-88695568D01*
X88939560Y-88444259D01*
X88939560Y-88188021D01*
X88989548Y-87936712D01*
X89087605Y-87699982D01*
X89229962Y-87486929D01*
X89411149Y-87305742D01*
X89588469Y-87187261D01*
X89624200Y-87163386D01*
X89624202Y-87163385D01*
X89860932Y-87065328D01*
X90112241Y-87015340D01*
X90368479Y-87015340D01*
X90619788Y-87065328D01*
X90619788Y-87065328D01*
G37*
G36*
X104623868Y-87065328D02*
G01*
X104860598Y-87163385D01*
X104860600Y-87163386D01*
X104896331Y-87187261D01*
X105073651Y-87305742D01*
X105254838Y-87486929D01*
X105397195Y-87699982D01*
X105495252Y-87936712D01*
X105545240Y-88188021D01*
X105545240Y-88444259D01*
X105495252Y-88695568D01*
X105397195Y-88932298D01*
X105397194Y-88932300D01*
X105254837Y-89145352D01*
X105073652Y-89326537D01*
X104860600Y-89468894D01*
X104860599Y-89468895D01*
X104860598Y-89468895D01*
X104623868Y-89566952D01*
X104372559Y-89616940D01*
X104116321Y-89616940D01*
X103865012Y-89566952D01*
X103628282Y-89468895D01*
X103628281Y-89468895D01*
X103628280Y-89468894D01*
X103415228Y-89326537D01*
X103234043Y-89145352D01*
X103091686Y-88932300D01*
X103091685Y-88932298D01*
X102993628Y-88695568D01*
X102943640Y-88444259D01*
X102943640Y-88188021D01*
X102993628Y-87936712D01*
X103091685Y-87699982D01*
X103234042Y-87486929D01*
X103415229Y-87305742D01*
X103592549Y-87187261D01*
X103628280Y-87163386D01*
X103628282Y-87163385D01*
X103865012Y-87065328D01*
X104116321Y-87015340D01*
X104372559Y-87015340D01*
X104623868Y-87065328D01*
X104623868Y-87065328D01*
G37*
G36*
X112619788Y-87065328D02*
G01*
X112856518Y-87163385D01*
X112856520Y-87163386D01*
X112892251Y-87187261D01*
X113069571Y-87305742D01*
X113250758Y-87486929D01*
X113393115Y-87699982D01*
X113491172Y-87936712D01*
X113541160Y-88188021D01*
X113541160Y-88444259D01*
X113491172Y-88695568D01*
X113393115Y-88932298D01*
X113393114Y-88932300D01*
X113250757Y-89145352D01*
X113069572Y-89326537D01*
X112856520Y-89468894D01*
X112856519Y-89468895D01*
X112856518Y-89468895D01*
X112619788Y-89566952D01*
X112368479Y-89616940D01*
X112112241Y-89616940D01*
X111860932Y-89566952D01*
X111624202Y-89468895D01*
X111624201Y-89468895D01*
X111624200Y-89468894D01*
X111411148Y-89326537D01*
X111229963Y-89145352D01*
X111087606Y-88932300D01*
X111087605Y-88932298D01*
X110989548Y-88695568D01*
X110939560Y-88444259D01*
X110939560Y-88188021D01*
X110989548Y-87936712D01*
X111087605Y-87699982D01*
X111229962Y-87486929D01*
X111411149Y-87305742D01*
X111588469Y-87187261D01*
X111624200Y-87163386D01*
X111624202Y-87163385D01*
X111860932Y-87065328D01*
X112112241Y-87015340D01*
X112368479Y-87015340D01*
X112619788Y-87065328D01*
X112619788Y-87065328D01*
G37*
G36*
X215619788Y-87065328D02*
G01*
X215856518Y-87163385D01*
X215856520Y-87163386D01*
X215892251Y-87187261D01*
X216069571Y-87305742D01*
X216250758Y-87486929D01*
X216393115Y-87699982D01*
X216491172Y-87936712D01*
X216541160Y-88188021D01*
X216541160Y-88444259D01*
X216491172Y-88695568D01*
X216393115Y-88932298D01*
X216393114Y-88932300D01*
X216250757Y-89145352D01*
X216069572Y-89326537D01*
X215856520Y-89468894D01*
X215856519Y-89468895D01*
X215856518Y-89468895D01*
X215619788Y-89566952D01*
X215368479Y-89616940D01*
X215112241Y-89616940D01*
X214860932Y-89566952D01*
X214624202Y-89468895D01*
X214624201Y-89468895D01*
X214624200Y-89468894D01*
X214411148Y-89326537D01*
X214229963Y-89145352D01*
X214087606Y-88932300D01*
X214087605Y-88932298D01*
X213989548Y-88695568D01*
X213939560Y-88444259D01*
X213939560Y-88188021D01*
X213989548Y-87936712D01*
X214087605Y-87699982D01*
X214229962Y-87486929D01*
X214411149Y-87305742D01*
X214588469Y-87187261D01*
X214624200Y-87163386D01*
X214624202Y-87163385D01*
X214860932Y-87065328D01*
X215112241Y-87015340D01*
X215368479Y-87015340D01*
X215619788Y-87065328D01*
X215619788Y-87065328D01*
G37*
G36*
X207623868Y-87065328D02*
G01*
X207860598Y-87163385D01*
X207860600Y-87163386D01*
X207896331Y-87187261D01*
X208073651Y-87305742D01*
X208254838Y-87486929D01*
X208397195Y-87699982D01*
X208495252Y-87936712D01*
X208545240Y-88188021D01*
X208545240Y-88444259D01*
X208495252Y-88695568D01*
X208397195Y-88932298D01*
X208397194Y-88932300D01*
X208254837Y-89145352D01*
X208073652Y-89326537D01*
X207860600Y-89468894D01*
X207860599Y-89468895D01*
X207860598Y-89468895D01*
X207623868Y-89566952D01*
X207372559Y-89616940D01*
X207116321Y-89616940D01*
X206865012Y-89566952D01*
X206628282Y-89468895D01*
X206628281Y-89468895D01*
X206628280Y-89468894D01*
X206415228Y-89326537D01*
X206234043Y-89145352D01*
X206091686Y-88932300D01*
X206091685Y-88932298D01*
X205993628Y-88695568D01*
X205943640Y-88444259D01*
X205943640Y-88188021D01*
X205993628Y-87936712D01*
X206091685Y-87699982D01*
X206234042Y-87486929D01*
X206415229Y-87305742D01*
X206592549Y-87187261D01*
X206628280Y-87163386D01*
X206628282Y-87163385D01*
X206865012Y-87065328D01*
X207116321Y-87015340D01*
X207372559Y-87015340D01*
X207623868Y-87065328D01*
X207623868Y-87065328D01*
G37*
G36*
X82623868Y-87065328D02*
G01*
X82860598Y-87163385D01*
X82860600Y-87163386D01*
X82896331Y-87187261D01*
X83073651Y-87305742D01*
X83254838Y-87486929D01*
X83397195Y-87699982D01*
X83495252Y-87936712D01*
X83545240Y-88188021D01*
X83545240Y-88444259D01*
X83495252Y-88695568D01*
X83397195Y-88932298D01*
X83397194Y-88932300D01*
X83254837Y-89145352D01*
X83073652Y-89326537D01*
X82860600Y-89468894D01*
X82860599Y-89468895D01*
X82860598Y-89468895D01*
X82623868Y-89566952D01*
X82372559Y-89616940D01*
X82116321Y-89616940D01*
X81865012Y-89566952D01*
X81628282Y-89468895D01*
X81628281Y-89468895D01*
X81628280Y-89468894D01*
X81415228Y-89326537D01*
X81234043Y-89145352D01*
X81091686Y-88932300D01*
X81091685Y-88932298D01*
X80993628Y-88695568D01*
X80943640Y-88444259D01*
X80943640Y-88188021D01*
X80993628Y-87936712D01*
X81091685Y-87699982D01*
X81234042Y-87486929D01*
X81415229Y-87305742D01*
X81592549Y-87187261D01*
X81628280Y-87163386D01*
X81628282Y-87163385D01*
X81865012Y-87065328D01*
X82116321Y-87015340D01*
X82372559Y-87015340D01*
X82623868Y-87065328D01*
X82623868Y-87065328D01*
G37*
G36*
X185623868Y-87065328D02*
G01*
X185860598Y-87163385D01*
X185860600Y-87163386D01*
X185896331Y-87187261D01*
X186073651Y-87305742D01*
X186254838Y-87486929D01*
X186397195Y-87699982D01*
X186495252Y-87936712D01*
X186545240Y-88188021D01*
X186545240Y-88444259D01*
X186495252Y-88695568D01*
X186397195Y-88932298D01*
X186397194Y-88932300D01*
X186254837Y-89145352D01*
X186073652Y-89326537D01*
X185860600Y-89468894D01*
X185860599Y-89468895D01*
X185860598Y-89468895D01*
X185623868Y-89566952D01*
X185372559Y-89616940D01*
X185116321Y-89616940D01*
X184865012Y-89566952D01*
X184628282Y-89468895D01*
X184628281Y-89468895D01*
X184628280Y-89468894D01*
X184415228Y-89326537D01*
X184234043Y-89145352D01*
X184091686Y-88932300D01*
X184091685Y-88932298D01*
X183993628Y-88695568D01*
X183943640Y-88444259D01*
X183943640Y-88188021D01*
X183993628Y-87936712D01*
X184091685Y-87699982D01*
X184234042Y-87486929D01*
X184415229Y-87305742D01*
X184592549Y-87187261D01*
X184628280Y-87163386D01*
X184628282Y-87163385D01*
X184865012Y-87065328D01*
X185116321Y-87015340D01*
X185372559Y-87015340D01*
X185623868Y-87065328D01*
X185623868Y-87065328D01*
G37*
G36*
X193619788Y-87065328D02*
G01*
X193856518Y-87163385D01*
X193856520Y-87163386D01*
X193892251Y-87187261D01*
X194069571Y-87305742D01*
X194250758Y-87486929D01*
X194393115Y-87699982D01*
X194491172Y-87936712D01*
X194541160Y-88188021D01*
X194541160Y-88444259D01*
X194491172Y-88695568D01*
X194393115Y-88932298D01*
X194393114Y-88932300D01*
X194250757Y-89145352D01*
X194069572Y-89326537D01*
X193856520Y-89468894D01*
X193856519Y-89468895D01*
X193856518Y-89468895D01*
X193619788Y-89566952D01*
X193368479Y-89616940D01*
X193112241Y-89616940D01*
X192860932Y-89566952D01*
X192624202Y-89468895D01*
X192624201Y-89468895D01*
X192624200Y-89468894D01*
X192411148Y-89326537D01*
X192229963Y-89145352D01*
X192087606Y-88932300D01*
X192087605Y-88932298D01*
X191989548Y-88695568D01*
X191939560Y-88444259D01*
X191939560Y-88188021D01*
X191989548Y-87936712D01*
X192087605Y-87699982D01*
X192229962Y-87486929D01*
X192411149Y-87305742D01*
X192588469Y-87187261D01*
X192624200Y-87163386D01*
X192624202Y-87163385D01*
X192860932Y-87065328D01*
X193112241Y-87015340D01*
X193368479Y-87015340D01*
X193619788Y-87065328D01*
X193619788Y-87065328D01*
G37*
G36*
X134123868Y-87065328D02*
G01*
X134360598Y-87163385D01*
X134360600Y-87163386D01*
X134396331Y-87187261D01*
X134573651Y-87305742D01*
X134754838Y-87486929D01*
X134897195Y-87699982D01*
X134995252Y-87936712D01*
X135045240Y-88188021D01*
X135045240Y-88444259D01*
X134995252Y-88695568D01*
X134897195Y-88932298D01*
X134897194Y-88932300D01*
X134754837Y-89145352D01*
X134573652Y-89326537D01*
X134360600Y-89468894D01*
X134360599Y-89468895D01*
X134360598Y-89468895D01*
X134123868Y-89566952D01*
X133872559Y-89616940D01*
X133616321Y-89616940D01*
X133365012Y-89566952D01*
X133128282Y-89468895D01*
X133128281Y-89468895D01*
X133128280Y-89468894D01*
X132915228Y-89326537D01*
X132734043Y-89145352D01*
X132591686Y-88932300D01*
X132591685Y-88932298D01*
X132493628Y-88695568D01*
X132443640Y-88444259D01*
X132443640Y-88188021D01*
X132493628Y-87936712D01*
X132591685Y-87699982D01*
X132734042Y-87486929D01*
X132915229Y-87305742D01*
X133092549Y-87187261D01*
X133128280Y-87163386D01*
X133128282Y-87163385D01*
X133365012Y-87065328D01*
X133616321Y-87015340D01*
X133872559Y-87015340D01*
X134123868Y-87065328D01*
X134123868Y-87065328D01*
G37*
G36*
X142119788Y-87065328D02*
G01*
X142356518Y-87163385D01*
X142356520Y-87163386D01*
X142392251Y-87187261D01*
X142569571Y-87305742D01*
X142750758Y-87486929D01*
X142893115Y-87699982D01*
X142991172Y-87936712D01*
X143041160Y-88188021D01*
X143041160Y-88444259D01*
X142991172Y-88695568D01*
X142893115Y-88932298D01*
X142893114Y-88932300D01*
X142750757Y-89145352D01*
X142569572Y-89326537D01*
X142356520Y-89468894D01*
X142356519Y-89468895D01*
X142356518Y-89468895D01*
X142119788Y-89566952D01*
X141868479Y-89616940D01*
X141612241Y-89616940D01*
X141360932Y-89566952D01*
X141124202Y-89468895D01*
X141124201Y-89468895D01*
X141124200Y-89468894D01*
X140911148Y-89326537D01*
X140729963Y-89145352D01*
X140587606Y-88932300D01*
X140587605Y-88932298D01*
X140489548Y-88695568D01*
X140439560Y-88444259D01*
X140439560Y-88188021D01*
X140489548Y-87936712D01*
X140587605Y-87699982D01*
X140729962Y-87486929D01*
X140911149Y-87305742D01*
X141088469Y-87187261D01*
X141124200Y-87163386D01*
X141124202Y-87163385D01*
X141360932Y-87065328D01*
X141612241Y-87015340D01*
X141868479Y-87015340D01*
X142119788Y-87065328D01*
X142119788Y-87065328D01*
G37*
G36*
X156123868Y-87065328D02*
G01*
X156360598Y-87163385D01*
X156360600Y-87163386D01*
X156396331Y-87187261D01*
X156573651Y-87305742D01*
X156754838Y-87486929D01*
X156897195Y-87699982D01*
X156995252Y-87936712D01*
X157045240Y-88188021D01*
X157045240Y-88444259D01*
X156995252Y-88695568D01*
X156897195Y-88932298D01*
X156897194Y-88932300D01*
X156754837Y-89145352D01*
X156573652Y-89326537D01*
X156360600Y-89468894D01*
X156360599Y-89468895D01*
X156360598Y-89468895D01*
X156123868Y-89566952D01*
X155872559Y-89616940D01*
X155616321Y-89616940D01*
X155365012Y-89566952D01*
X155128282Y-89468895D01*
X155128281Y-89468895D01*
X155128280Y-89468894D01*
X154915228Y-89326537D01*
X154734043Y-89145352D01*
X154591686Y-88932300D01*
X154591685Y-88932298D01*
X154493628Y-88695568D01*
X154443640Y-88444259D01*
X154443640Y-88188021D01*
X154493628Y-87936712D01*
X154591685Y-87699982D01*
X154734042Y-87486929D01*
X154915229Y-87305742D01*
X155092549Y-87187261D01*
X155128280Y-87163386D01*
X155128282Y-87163385D01*
X155365012Y-87065328D01*
X155616321Y-87015340D01*
X155872559Y-87015340D01*
X156123868Y-87065328D01*
X156123868Y-87065328D01*
G37*
G36*
X164119788Y-87065328D02*
G01*
X164356518Y-87163385D01*
X164356520Y-87163386D01*
X164392251Y-87187261D01*
X164569571Y-87305742D01*
X164750758Y-87486929D01*
X164893115Y-87699982D01*
X164991172Y-87936712D01*
X165041160Y-88188021D01*
X165041160Y-88444259D01*
X164991172Y-88695568D01*
X164893115Y-88932298D01*
X164893114Y-88932300D01*
X164750757Y-89145352D01*
X164569572Y-89326537D01*
X164356520Y-89468894D01*
X164356519Y-89468895D01*
X164356518Y-89468895D01*
X164119788Y-89566952D01*
X163868479Y-89616940D01*
X163612241Y-89616940D01*
X163360932Y-89566952D01*
X163124202Y-89468895D01*
X163124201Y-89468895D01*
X163124200Y-89468894D01*
X162911148Y-89326537D01*
X162729963Y-89145352D01*
X162587606Y-88932300D01*
X162587605Y-88932298D01*
X162489548Y-88695568D01*
X162439560Y-88444259D01*
X162439560Y-88188021D01*
X162489548Y-87936712D01*
X162587605Y-87699982D01*
X162729962Y-87486929D01*
X162911149Y-87305742D01*
X163088469Y-87187261D01*
X163124200Y-87163386D01*
X163124202Y-87163385D01*
X163360932Y-87065328D01*
X163612241Y-87015340D01*
X163868479Y-87015340D01*
X164119788Y-87065328D01*
X164119788Y-87065328D01*
G37*
G36*
X189621828Y-86064568D02*
G01*
X189858558Y-86162625D01*
X189858560Y-86162626D01*
X189965808Y-86234287D01*
X190071611Y-86304982D01*
X190252798Y-86486169D01*
X190395155Y-86699222D01*
X190493212Y-86935952D01*
X190543200Y-87187261D01*
X190543200Y-87443499D01*
X190493212Y-87694808D01*
X190395155Y-87931538D01*
X190395154Y-87931540D01*
X190252797Y-88144592D01*
X190071612Y-88325777D01*
X189858560Y-88468134D01*
X189858559Y-88468135D01*
X189858558Y-88468135D01*
X189621828Y-88566192D01*
X189370519Y-88616180D01*
X189114281Y-88616180D01*
X188862972Y-88566192D01*
X188626242Y-88468135D01*
X188626241Y-88468135D01*
X188626240Y-88468134D01*
X188413188Y-88325777D01*
X188232003Y-88144592D01*
X188089646Y-87931540D01*
X188089645Y-87931538D01*
X187991588Y-87694808D01*
X187941600Y-87443499D01*
X187941600Y-87187261D01*
X187991588Y-86935952D01*
X188089645Y-86699222D01*
X188232002Y-86486169D01*
X188413189Y-86304982D01*
X188518992Y-86234287D01*
X188626240Y-86162626D01*
X188626242Y-86162625D01*
X188862972Y-86064568D01*
X189114281Y-86014580D01*
X189370519Y-86014580D01*
X189621828Y-86064568D01*
X189621828Y-86064568D01*
G37*
G36*
X160121828Y-86064568D02*
G01*
X160358558Y-86162625D01*
X160358560Y-86162626D01*
X160465808Y-86234287D01*
X160571611Y-86304982D01*
X160752798Y-86486169D01*
X160895155Y-86699222D01*
X160993212Y-86935952D01*
X161043200Y-87187261D01*
X161043200Y-87443499D01*
X160993212Y-87694808D01*
X160895155Y-87931538D01*
X160895154Y-87931540D01*
X160752797Y-88144592D01*
X160571612Y-88325777D01*
X160358560Y-88468134D01*
X160358559Y-88468135D01*
X160358558Y-88468135D01*
X160121828Y-88566192D01*
X159870519Y-88616180D01*
X159614281Y-88616180D01*
X159362972Y-88566192D01*
X159126242Y-88468135D01*
X159126241Y-88468135D01*
X159126240Y-88468134D01*
X158913188Y-88325777D01*
X158732003Y-88144592D01*
X158589646Y-87931540D01*
X158589645Y-87931538D01*
X158491588Y-87694808D01*
X158441600Y-87443499D01*
X158441600Y-87187261D01*
X158491588Y-86935952D01*
X158589645Y-86699222D01*
X158732002Y-86486169D01*
X158913189Y-86304982D01*
X159018992Y-86234287D01*
X159126240Y-86162626D01*
X159126242Y-86162625D01*
X159362972Y-86064568D01*
X159614281Y-86014580D01*
X159870519Y-86014580D01*
X160121828Y-86064568D01*
X160121828Y-86064568D01*
G37*
G36*
X138121828Y-86064568D02*
G01*
X138358558Y-86162625D01*
X138358560Y-86162626D01*
X138465808Y-86234287D01*
X138571611Y-86304982D01*
X138752798Y-86486169D01*
X138895155Y-86699222D01*
X138993212Y-86935952D01*
X139043200Y-87187261D01*
X139043200Y-87443499D01*
X138993212Y-87694808D01*
X138895155Y-87931538D01*
X138895154Y-87931540D01*
X138752797Y-88144592D01*
X138571612Y-88325777D01*
X138358560Y-88468134D01*
X138358559Y-88468135D01*
X138358558Y-88468135D01*
X138121828Y-88566192D01*
X137870519Y-88616180D01*
X137614281Y-88616180D01*
X137362972Y-88566192D01*
X137126242Y-88468135D01*
X137126241Y-88468135D01*
X137126240Y-88468134D01*
X136913188Y-88325777D01*
X136732003Y-88144592D01*
X136589646Y-87931540D01*
X136589645Y-87931538D01*
X136491588Y-87694808D01*
X136441600Y-87443499D01*
X136441600Y-87187261D01*
X136491588Y-86935952D01*
X136589645Y-86699222D01*
X136732002Y-86486169D01*
X136913189Y-86304982D01*
X137018992Y-86234287D01*
X137126240Y-86162626D01*
X137126242Y-86162625D01*
X137362972Y-86064568D01*
X137614281Y-86014580D01*
X137870519Y-86014580D01*
X138121828Y-86064568D01*
X138121828Y-86064568D01*
G37*
G36*
X108621828Y-86064568D02*
G01*
X108858558Y-86162625D01*
X108858560Y-86162626D01*
X108965808Y-86234287D01*
X109071611Y-86304982D01*
X109252798Y-86486169D01*
X109395155Y-86699222D01*
X109493212Y-86935952D01*
X109543200Y-87187261D01*
X109543200Y-87443499D01*
X109493212Y-87694808D01*
X109395155Y-87931538D01*
X109395154Y-87931540D01*
X109252797Y-88144592D01*
X109071612Y-88325777D01*
X108858560Y-88468134D01*
X108858559Y-88468135D01*
X108858558Y-88468135D01*
X108621828Y-88566192D01*
X108370519Y-88616180D01*
X108114281Y-88616180D01*
X107862972Y-88566192D01*
X107626242Y-88468135D01*
X107626241Y-88468135D01*
X107626240Y-88468134D01*
X107413188Y-88325777D01*
X107232003Y-88144592D01*
X107089646Y-87931540D01*
X107089645Y-87931538D01*
X106991588Y-87694808D01*
X106941600Y-87443499D01*
X106941600Y-87187261D01*
X106991588Y-86935952D01*
X107089645Y-86699222D01*
X107232002Y-86486169D01*
X107413189Y-86304982D01*
X107518992Y-86234287D01*
X107626240Y-86162626D01*
X107626242Y-86162625D01*
X107862972Y-86064568D01*
X108114281Y-86014580D01*
X108370519Y-86014580D01*
X108621828Y-86064568D01*
X108621828Y-86064568D01*
G37*
G36*
X211621828Y-86064568D02*
G01*
X211858558Y-86162625D01*
X211858560Y-86162626D01*
X211965808Y-86234287D01*
X212071611Y-86304982D01*
X212252798Y-86486169D01*
X212395155Y-86699222D01*
X212493212Y-86935952D01*
X212543200Y-87187261D01*
X212543200Y-87443499D01*
X212493212Y-87694808D01*
X212395155Y-87931538D01*
X212395154Y-87931540D01*
X212252797Y-88144592D01*
X212071612Y-88325777D01*
X211858560Y-88468134D01*
X211858559Y-88468135D01*
X211858558Y-88468135D01*
X211621828Y-88566192D01*
X211370519Y-88616180D01*
X211114281Y-88616180D01*
X210862972Y-88566192D01*
X210626242Y-88468135D01*
X210626241Y-88468135D01*
X210626240Y-88468134D01*
X210413188Y-88325777D01*
X210232003Y-88144592D01*
X210089646Y-87931540D01*
X210089645Y-87931538D01*
X209991588Y-87694808D01*
X209941600Y-87443499D01*
X209941600Y-87187261D01*
X209991588Y-86935952D01*
X210089645Y-86699222D01*
X210232002Y-86486169D01*
X210413189Y-86304982D01*
X210518992Y-86234287D01*
X210626240Y-86162626D01*
X210626242Y-86162625D01*
X210862972Y-86064568D01*
X211114281Y-86014580D01*
X211370519Y-86014580D01*
X211621828Y-86064568D01*
X211621828Y-86064568D01*
G37*
G36*
X86621828Y-86064568D02*
G01*
X86858558Y-86162625D01*
X86858560Y-86162626D01*
X86965808Y-86234287D01*
X87071611Y-86304982D01*
X87252798Y-86486169D01*
X87395155Y-86699222D01*
X87493212Y-86935952D01*
X87543200Y-87187261D01*
X87543200Y-87443499D01*
X87493212Y-87694808D01*
X87395155Y-87931538D01*
X87395154Y-87931540D01*
X87252797Y-88144592D01*
X87071612Y-88325777D01*
X86858560Y-88468134D01*
X86858559Y-88468135D01*
X86858558Y-88468135D01*
X86621828Y-88566192D01*
X86370519Y-88616180D01*
X86114281Y-88616180D01*
X85862972Y-88566192D01*
X85626242Y-88468135D01*
X85626241Y-88468135D01*
X85626240Y-88468134D01*
X85413188Y-88325777D01*
X85232003Y-88144592D01*
X85089646Y-87931540D01*
X85089645Y-87931538D01*
X84991588Y-87694808D01*
X84941600Y-87443499D01*
X84941600Y-87187261D01*
X84991588Y-86935952D01*
X85089645Y-86699222D01*
X85232002Y-86486169D01*
X85413189Y-86304982D01*
X85518992Y-86234287D01*
X85626240Y-86162626D01*
X85626242Y-86162625D01*
X85862972Y-86064568D01*
X86114281Y-86014580D01*
X86370519Y-86014580D01*
X86621828Y-86064568D01*
X86621828Y-86064568D01*
G37*
G36*
X220277222Y-77519126D02*
G01*
X220868829Y-77764178D01*
X220868831Y-77764179D01*
X221401264Y-78119939D01*
X221854061Y-78572736D01*
X222141693Y-79003208D01*
X222209822Y-79105171D01*
X222454874Y-79696778D01*
X222579800Y-80324823D01*
X222579800Y-80965177D01*
X222454874Y-81593222D01*
X222258965Y-82066188D01*
X222209821Y-82184831D01*
X221854061Y-82717264D01*
X221401264Y-83170061D01*
X220868831Y-83525821D01*
X220868830Y-83525822D01*
X220868829Y-83525822D01*
X220277222Y-83770874D01*
X219649177Y-83895800D01*
X219008823Y-83895800D01*
X218380778Y-83770874D01*
X217789171Y-83525822D01*
X217789170Y-83525822D01*
X217789169Y-83525821D01*
X217256736Y-83170061D01*
X216803939Y-82717264D01*
X216448179Y-82184831D01*
X216399035Y-82066188D01*
X216203126Y-81593222D01*
X216078200Y-80965177D01*
X216078200Y-80324823D01*
X216203126Y-79696778D01*
X216448178Y-79105171D01*
X216516307Y-79003208D01*
X216803939Y-78572736D01*
X217256736Y-78119939D01*
X217789169Y-77764179D01*
X217789171Y-77764178D01*
X218380778Y-77519126D01*
X219008823Y-77394200D01*
X219649177Y-77394200D01*
X220277222Y-77519126D01*
X220277222Y-77519126D01*
G37*
G36*
X79053222Y-77519126D02*
G01*
X79644829Y-77764178D01*
X79644831Y-77764179D01*
X80177264Y-78119939D01*
X80630061Y-78572736D01*
X80917693Y-79003208D01*
X80985822Y-79105171D01*
X81230874Y-79696778D01*
X81355800Y-80324823D01*
X81355800Y-80965177D01*
X81230874Y-81593222D01*
X81034965Y-82066188D01*
X80985821Y-82184831D01*
X80630061Y-82717264D01*
X80177264Y-83170061D01*
X79644831Y-83525821D01*
X79644830Y-83525822D01*
X79644829Y-83525822D01*
X79053222Y-83770874D01*
X78425177Y-83895800D01*
X77784823Y-83895800D01*
X77156778Y-83770874D01*
X76565171Y-83525822D01*
X76565170Y-83525822D01*
X76565169Y-83525821D01*
X76032736Y-83170061D01*
X75579939Y-82717264D01*
X75224179Y-82184831D01*
X75175035Y-82066188D01*
X74979126Y-81593222D01*
X74854200Y-80965177D01*
X74854200Y-80324823D01*
X74979126Y-79696778D01*
X75224178Y-79105171D01*
X75292307Y-79003208D01*
X75579939Y-78572736D01*
X76032736Y-78119939D01*
X76565169Y-77764179D01*
X76565171Y-77764178D01*
X77156778Y-77519126D01*
X77784823Y-77394200D01*
X78425177Y-77394200D01*
X79053222Y-77519126D01*
X79053222Y-77519126D01*
G37*
G36*
X147560762Y-80993145D02*
G01*
X147648988Y-81001834D01*
X147818789Y-81053343D01*
X147818792Y-81053344D01*
X147975278Y-81136988D01*
X148112444Y-81249556D01*
X148225012Y-81386722D01*
X148308656Y-81543208D01*
X148308657Y-81543211D01*
X148360166Y-81713012D01*
X148377558Y-81889600D01*
X148360166Y-82066188D01*
X148316370Y-82210563D01*
X148308656Y-82235992D01*
X148225012Y-82392478D01*
X148112444Y-82529644D01*
X147975278Y-82642212D01*
X147818792Y-82725856D01*
X147818789Y-82725857D01*
X147648988Y-82777366D01*
X147560762Y-82786055D01*
X147516650Y-82790400D01*
X147428150Y-82790400D01*
X147384038Y-82786055D01*
X147295812Y-82777366D01*
X147126011Y-82725857D01*
X147126008Y-82725856D01*
X146969522Y-82642212D01*
X146832356Y-82529644D01*
X146719788Y-82392478D01*
X146636144Y-82235992D01*
X146628430Y-82210563D01*
X146584634Y-82066188D01*
X146567242Y-81889600D01*
X146584634Y-81713012D01*
X146636143Y-81543211D01*
X146636144Y-81543208D01*
X146719788Y-81386722D01*
X146832356Y-81249556D01*
X146969522Y-81136988D01*
X147126008Y-81053344D01*
X147126011Y-81053343D01*
X147295812Y-81001834D01*
X147384038Y-80993145D01*
X147428150Y-80988800D01*
X147516650Y-80988800D01*
X147560762Y-80993145D01*
X147560762Y-80993145D01*
G37*
G36*
X150100762Y-80993145D02*
G01*
X150188988Y-81001834D01*
X150358789Y-81053343D01*
X150358792Y-81053344D01*
X150515278Y-81136988D01*
X150652444Y-81249556D01*
X150765012Y-81386722D01*
X150848656Y-81543208D01*
X150848657Y-81543211D01*
X150900166Y-81713012D01*
X150917558Y-81889600D01*
X150900166Y-82066188D01*
X150856370Y-82210563D01*
X150848656Y-82235992D01*
X150765012Y-82392478D01*
X150652444Y-82529644D01*
X150515278Y-82642212D01*
X150358792Y-82725856D01*
X150358789Y-82725857D01*
X150188988Y-82777366D01*
X150100762Y-82786055D01*
X150056650Y-82790400D01*
X149968150Y-82790400D01*
X149924038Y-82786055D01*
X149835812Y-82777366D01*
X149666011Y-82725857D01*
X149666008Y-82725856D01*
X149509522Y-82642212D01*
X149372356Y-82529644D01*
X149259788Y-82392478D01*
X149176144Y-82235992D01*
X149168430Y-82210563D01*
X149124634Y-82066188D01*
X149107242Y-81889600D01*
X149124634Y-81713012D01*
X149176143Y-81543211D01*
X149176144Y-81543208D01*
X149259788Y-81386722D01*
X149372356Y-81249556D01*
X149509522Y-81136988D01*
X149666008Y-81053344D01*
X149666011Y-81053343D01*
X149835812Y-81001834D01*
X149924038Y-80993145D01*
X149968150Y-80988800D01*
X150056650Y-80988800D01*
X150100762Y-80993145D01*
X150100762Y-80993145D01*
G37*
G36*
X142480762Y-80993145D02*
G01*
X142568988Y-81001834D01*
X142738789Y-81053343D01*
X142738792Y-81053344D01*
X142895278Y-81136988D01*
X143032444Y-81249556D01*
X143145012Y-81386722D01*
X143228656Y-81543208D01*
X143228657Y-81543211D01*
X143280166Y-81713012D01*
X143297558Y-81889600D01*
X143280166Y-82066188D01*
X143236370Y-82210563D01*
X143228656Y-82235992D01*
X143145012Y-82392478D01*
X143032444Y-82529644D01*
X142895278Y-82642212D01*
X142738792Y-82725856D01*
X142738789Y-82725857D01*
X142568988Y-82777366D01*
X142480762Y-82786055D01*
X142436650Y-82790400D01*
X142348150Y-82790400D01*
X142304038Y-82786055D01*
X142215812Y-82777366D01*
X142046011Y-82725857D01*
X142046008Y-82725856D01*
X141889522Y-82642212D01*
X141752356Y-82529644D01*
X141639788Y-82392478D01*
X141556144Y-82235992D01*
X141548430Y-82210563D01*
X141504634Y-82066188D01*
X141487242Y-81889600D01*
X141504634Y-81713012D01*
X141556143Y-81543211D01*
X141556144Y-81543208D01*
X141639788Y-81386722D01*
X141752356Y-81249556D01*
X141889522Y-81136988D01*
X142046008Y-81053344D01*
X142046011Y-81053343D01*
X142215812Y-81001834D01*
X142304038Y-80993145D01*
X142348150Y-80988800D01*
X142436650Y-80988800D01*
X142480762Y-80993145D01*
X142480762Y-80993145D01*
G37*
G36*
X145020762Y-80993145D02*
G01*
X145108988Y-81001834D01*
X145278789Y-81053343D01*
X145278792Y-81053344D01*
X145435278Y-81136988D01*
X145572444Y-81249556D01*
X145685012Y-81386722D01*
X145768656Y-81543208D01*
X145768657Y-81543211D01*
X145820166Y-81713012D01*
X145837558Y-81889600D01*
X145820166Y-82066188D01*
X145776370Y-82210563D01*
X145768656Y-82235992D01*
X145685012Y-82392478D01*
X145572444Y-82529644D01*
X145435278Y-82642212D01*
X145278792Y-82725856D01*
X145278789Y-82725857D01*
X145108988Y-82777366D01*
X145020762Y-82786055D01*
X144976650Y-82790400D01*
X144888150Y-82790400D01*
X144844038Y-82786055D01*
X144755812Y-82777366D01*
X144586011Y-82725857D01*
X144586008Y-82725856D01*
X144429522Y-82642212D01*
X144292356Y-82529644D01*
X144179788Y-82392478D01*
X144096144Y-82235992D01*
X144088430Y-82210563D01*
X144044634Y-82066188D01*
X144027242Y-81889600D01*
X144044634Y-81713012D01*
X144096143Y-81543211D01*
X144096144Y-81543208D01*
X144179788Y-81386722D01*
X144292356Y-81249556D01*
X144429522Y-81136988D01*
X144586008Y-81053344D01*
X144586011Y-81053343D01*
X144755812Y-81001834D01*
X144844038Y-80993145D01*
X144888150Y-80988800D01*
X144976650Y-80988800D01*
X145020762Y-80993145D01*
X145020762Y-80993145D01*
G37*
G36*
X152640762Y-80993145D02*
G01*
X152728988Y-81001834D01*
X152898789Y-81053343D01*
X152898792Y-81053344D01*
X153055278Y-81136988D01*
X153192444Y-81249556D01*
X153305012Y-81386722D01*
X153388656Y-81543208D01*
X153388657Y-81543211D01*
X153440166Y-81713012D01*
X153457558Y-81889600D01*
X153440166Y-82066188D01*
X153396370Y-82210563D01*
X153388656Y-82235992D01*
X153305012Y-82392478D01*
X153192444Y-82529644D01*
X153055278Y-82642212D01*
X152898792Y-82725856D01*
X152898789Y-82725857D01*
X152728988Y-82777366D01*
X152640762Y-82786055D01*
X152596650Y-82790400D01*
X152508150Y-82790400D01*
X152464038Y-82786055D01*
X152375812Y-82777366D01*
X152206011Y-82725857D01*
X152206008Y-82725856D01*
X152049522Y-82642212D01*
X151912356Y-82529644D01*
X151799788Y-82392478D01*
X151716144Y-82235992D01*
X151708430Y-82210563D01*
X151664634Y-82066188D01*
X151647242Y-81889600D01*
X151664634Y-81713012D01*
X151716143Y-81543211D01*
X151716144Y-81543208D01*
X151799788Y-81386722D01*
X151912356Y-81249556D01*
X152049522Y-81136988D01*
X152206008Y-81053344D01*
X152206011Y-81053343D01*
X152375812Y-81001834D01*
X152464038Y-80993145D01*
X152508150Y-80988800D01*
X152596650Y-80988800D01*
X152640762Y-80993145D01*
X152640762Y-80993145D01*
G37*
G36*
X155993200Y-82790400D02*
G01*
X154191600Y-82790400D01*
X154191600Y-80988800D01*
X155993200Y-80988800D01*
X155993200Y-82790400D01*
X155993200Y-82790400D01*
G37*
G36*
X150100762Y-78453145D02*
G01*
X150188988Y-78461834D01*
X150305388Y-78497144D01*
X150358792Y-78513344D01*
X150515278Y-78596988D01*
X150652444Y-78709556D01*
X150765012Y-78846722D01*
X150848656Y-79003208D01*
X150848657Y-79003211D01*
X150900166Y-79173012D01*
X150917558Y-79349600D01*
X150900166Y-79526188D01*
X150848657Y-79695989D01*
X150848656Y-79695992D01*
X150765012Y-79852478D01*
X150652444Y-79989644D01*
X150515278Y-80102212D01*
X150358792Y-80185856D01*
X150358789Y-80185857D01*
X150188988Y-80237366D01*
X150100762Y-80246055D01*
X150056650Y-80250400D01*
X149968150Y-80250400D01*
X149924038Y-80246055D01*
X149835812Y-80237366D01*
X149666011Y-80185857D01*
X149666008Y-80185856D01*
X149509522Y-80102212D01*
X149372356Y-79989644D01*
X149259788Y-79852478D01*
X149176144Y-79695992D01*
X149176143Y-79695989D01*
X149124634Y-79526188D01*
X149107242Y-79349600D01*
X149124634Y-79173012D01*
X149176143Y-79003211D01*
X149176144Y-79003208D01*
X149259788Y-78846722D01*
X149372356Y-78709556D01*
X149509522Y-78596988D01*
X149666008Y-78513344D01*
X149719412Y-78497144D01*
X149835812Y-78461834D01*
X149924038Y-78453145D01*
X149968150Y-78448800D01*
X150056650Y-78448800D01*
X150100762Y-78453145D01*
X150100762Y-78453145D01*
G37*
G36*
X145020762Y-78453145D02*
G01*
X145108988Y-78461834D01*
X145225388Y-78497144D01*
X145278792Y-78513344D01*
X145435278Y-78596988D01*
X145572444Y-78709556D01*
X145685012Y-78846722D01*
X145768656Y-79003208D01*
X145768657Y-79003211D01*
X145820166Y-79173012D01*
X145837558Y-79349600D01*
X145820166Y-79526188D01*
X145768657Y-79695989D01*
X145768656Y-79695992D01*
X145685012Y-79852478D01*
X145572444Y-79989644D01*
X145435278Y-80102212D01*
X145278792Y-80185856D01*
X145278789Y-80185857D01*
X145108988Y-80237366D01*
X145020762Y-80246055D01*
X144976650Y-80250400D01*
X144888150Y-80250400D01*
X144844038Y-80246055D01*
X144755812Y-80237366D01*
X144586011Y-80185857D01*
X144586008Y-80185856D01*
X144429522Y-80102212D01*
X144292356Y-79989644D01*
X144179788Y-79852478D01*
X144096144Y-79695992D01*
X144096143Y-79695989D01*
X144044634Y-79526188D01*
X144027242Y-79349600D01*
X144044634Y-79173012D01*
X144096143Y-79003211D01*
X144096144Y-79003208D01*
X144179788Y-78846722D01*
X144292356Y-78709556D01*
X144429522Y-78596988D01*
X144586008Y-78513344D01*
X144639412Y-78497144D01*
X144755812Y-78461834D01*
X144844038Y-78453145D01*
X144888150Y-78448800D01*
X144976650Y-78448800D01*
X145020762Y-78453145D01*
X145020762Y-78453145D01*
G37*
G36*
X142480762Y-78453145D02*
G01*
X142568988Y-78461834D01*
X142685388Y-78497144D01*
X142738792Y-78513344D01*
X142895278Y-78596988D01*
X143032444Y-78709556D01*
X143145012Y-78846722D01*
X143228656Y-79003208D01*
X143228657Y-79003211D01*
X143280166Y-79173012D01*
X143297558Y-79349600D01*
X143280166Y-79526188D01*
X143228657Y-79695989D01*
X143228656Y-79695992D01*
X143145012Y-79852478D01*
X143032444Y-79989644D01*
X142895278Y-80102212D01*
X142738792Y-80185856D01*
X142738789Y-80185857D01*
X142568988Y-80237366D01*
X142480762Y-80246055D01*
X142436650Y-80250400D01*
X142348150Y-80250400D01*
X142304038Y-80246055D01*
X142215812Y-80237366D01*
X142046011Y-80185857D01*
X142046008Y-80185856D01*
X141889522Y-80102212D01*
X141752356Y-79989644D01*
X141639788Y-79852478D01*
X141556144Y-79695992D01*
X141556143Y-79695989D01*
X141504634Y-79526188D01*
X141487242Y-79349600D01*
X141504634Y-79173012D01*
X141556143Y-79003211D01*
X141556144Y-79003208D01*
X141639788Y-78846722D01*
X141752356Y-78709556D01*
X141889522Y-78596988D01*
X142046008Y-78513344D01*
X142099412Y-78497144D01*
X142215812Y-78461834D01*
X142304038Y-78453145D01*
X142348150Y-78448800D01*
X142436650Y-78448800D01*
X142480762Y-78453145D01*
X142480762Y-78453145D01*
G37*
G36*
X147560762Y-78453145D02*
G01*
X147648988Y-78461834D01*
X147765388Y-78497144D01*
X147818792Y-78513344D01*
X147975278Y-78596988D01*
X148112444Y-78709556D01*
X148225012Y-78846722D01*
X148308656Y-79003208D01*
X148308657Y-79003211D01*
X148360166Y-79173012D01*
X148377558Y-79349600D01*
X148360166Y-79526188D01*
X148308657Y-79695989D01*
X148308656Y-79695992D01*
X148225012Y-79852478D01*
X148112444Y-79989644D01*
X147975278Y-80102212D01*
X147818792Y-80185856D01*
X147818789Y-80185857D01*
X147648988Y-80237366D01*
X147560762Y-80246055D01*
X147516650Y-80250400D01*
X147428150Y-80250400D01*
X147384038Y-80246055D01*
X147295812Y-80237366D01*
X147126011Y-80185857D01*
X147126008Y-80185856D01*
X146969522Y-80102212D01*
X146832356Y-79989644D01*
X146719788Y-79852478D01*
X146636144Y-79695992D01*
X146636143Y-79695989D01*
X146584634Y-79526188D01*
X146567242Y-79349600D01*
X146584634Y-79173012D01*
X146636143Y-79003211D01*
X146636144Y-79003208D01*
X146719788Y-78846722D01*
X146832356Y-78709556D01*
X146969522Y-78596988D01*
X147126008Y-78513344D01*
X147179412Y-78497144D01*
X147295812Y-78461834D01*
X147384038Y-78453145D01*
X147428150Y-78448800D01*
X147516650Y-78448800D01*
X147560762Y-78453145D01*
X147560762Y-78453145D01*
G37*
G36*
X155180762Y-78453145D02*
G01*
X155268988Y-78461834D01*
X155385388Y-78497144D01*
X155438792Y-78513344D01*
X155595278Y-78596988D01*
X155732444Y-78709556D01*
X155845012Y-78846722D01*
X155928656Y-79003208D01*
X155928657Y-79003211D01*
X155980166Y-79173012D01*
X155997558Y-79349600D01*
X155980166Y-79526188D01*
X155928657Y-79695989D01*
X155928656Y-79695992D01*
X155845012Y-79852478D01*
X155732444Y-79989644D01*
X155595278Y-80102212D01*
X155438792Y-80185856D01*
X155438789Y-80185857D01*
X155268988Y-80237366D01*
X155180762Y-80246055D01*
X155136650Y-80250400D01*
X155048150Y-80250400D01*
X155004038Y-80246055D01*
X154915812Y-80237366D01*
X154746011Y-80185857D01*
X154746008Y-80185856D01*
X154589522Y-80102212D01*
X154452356Y-79989644D01*
X154339788Y-79852478D01*
X154256144Y-79695992D01*
X154256143Y-79695989D01*
X154204634Y-79526188D01*
X154187242Y-79349600D01*
X154204634Y-79173012D01*
X154256143Y-79003211D01*
X154256144Y-79003208D01*
X154339788Y-78846722D01*
X154452356Y-78709556D01*
X154589522Y-78596988D01*
X154746008Y-78513344D01*
X154799412Y-78497144D01*
X154915812Y-78461834D01*
X155004038Y-78453145D01*
X155048150Y-78448800D01*
X155136650Y-78448800D01*
X155180762Y-78453145D01*
X155180762Y-78453145D01*
G37*
G36*
X152640762Y-78453145D02*
G01*
X152728988Y-78461834D01*
X152845388Y-78497144D01*
X152898792Y-78513344D01*
X153055278Y-78596988D01*
X153192444Y-78709556D01*
X153305012Y-78846722D01*
X153388656Y-79003208D01*
X153388657Y-79003211D01*
X153440166Y-79173012D01*
X153457558Y-79349600D01*
X153440166Y-79526188D01*
X153388657Y-79695989D01*
X153388656Y-79695992D01*
X153305012Y-79852478D01*
X153192444Y-79989644D01*
X153055278Y-80102212D01*
X152898792Y-80185856D01*
X152898789Y-80185857D01*
X152728988Y-80237366D01*
X152640762Y-80246055D01*
X152596650Y-80250400D01*
X152508150Y-80250400D01*
X152464038Y-80246055D01*
X152375812Y-80237366D01*
X152206011Y-80185857D01*
X152206008Y-80185856D01*
X152049522Y-80102212D01*
X151912356Y-79989644D01*
X151799788Y-79852478D01*
X151716144Y-79695992D01*
X151716143Y-79695989D01*
X151664634Y-79526188D01*
X151647242Y-79349600D01*
X151664634Y-79173012D01*
X151716143Y-79003211D01*
X151716144Y-79003208D01*
X151799788Y-78846722D01*
X151912356Y-78709556D01*
X152049522Y-78596988D01*
X152206008Y-78513344D01*
X152259412Y-78497144D01*
X152375812Y-78461834D01*
X152464038Y-78453145D01*
X152508150Y-78448800D01*
X152596650Y-78448800D01*
X152640762Y-78453145D01*
X152640762Y-78453145D01*
G37*
M02*
