M48
; DRILL file {KiCad (5.1.0-0)} date Friday, May 10, 2019 at 01:12:40 AM
; FORMAT={-:-/ absolute / inch / decimal}
; #@! TF.CreationDate,2019-05-10T01:12:40-05:00
; #@! TF.GenerationSoftware,Kicad,Pcbnew,(5.1.0-0)
; #@! TF.FileFunction,Plated,1,2,PTH
FMAT,2
INCH
T1C0.0100
T2C0.0197
T3C0.0394
T4C0.0787
T5C0.1260
%
G90
G05
T1
X3.296Y-4.724
X3.321Y-4.749
X3.346Y-4.774
X3.371Y-4.534
X3.371Y-4.824
X3.396Y-4.469
X3.431Y-4.429
X3.466Y-4.394
X3.501Y-4.359
X3.506Y-4.549
X3.5729Y-4.3616
X3.6083Y-4.3263
X3.6436Y-4.2909
X3.656Y-4.229
X3.696Y-4.169
X3.701Y-4.129
X3.706Y-4.639
X3.721Y-4.074
X3.731Y-4.649
X3.756Y-4.639
X3.781Y-4.649
X3.8769Y-4.9485
X3.891Y-4.079
X3.9123Y-4.9131
X3.916Y-4.844
X3.951Y-4.289
X3.981Y-4.189
X4.0184Y-4.2909
X4.081Y-3.699
X4.086Y-4.294
X4.0891Y-4.7364
X4.111Y-4.024
X4.156Y-4.549
X4.181Y-4.024
X4.181Y-4.269
X4.256Y-4.549
X4.276Y-4.244
X4.406Y-3.699
X4.416Y-4.319
X4.426Y-4.369
X4.456Y-4.369
X4.4565Y-4.5949
X4.506Y-4.194
X4.5272Y-4.6656
X4.5321Y-4.8251
X4.556Y-4.074
X4.556Y-4.524
X4.5626Y-4.701
X4.566Y-4.169
X4.6333Y-4.7717
X4.736Y-4.784
X4.771Y-4.654
X4.831Y-3.624
X4.831Y-4.494
X4.836Y-4.774
X4.856Y-4.469
X4.881Y-4.444
X4.906Y-4.419
X4.931Y-4.394
X4.956Y-4.369
X5.006Y-3.2541
X5.206Y-4.549
X5.251Y-4.224
X5.281Y-3.574
X5.556Y-3.874
X5.681Y-3.874
X5.856Y-4.174
X5.906Y-4.344
X6.001Y-4.134
X6.431Y-4.549
X6.456Y-4.4092
X6.506Y-4.604
X6.506Y-4.6888
X6.556Y-4.584
X6.606Y-3.824
X6.606Y-4.4092
X6.606Y-4.6888
X6.606Y-4.784
X6.666Y-4.299
X6.691Y-4.309
X6.706Y-4.409
X6.716Y-4.259
X6.736Y-4.284
X6.856Y-3.624
X7.156Y-3.449
X7.156Y-4.024
X7.281Y-4.714
X7.296Y-4.624
X7.3085Y-4.7415
X7.326Y-4.624
X7.326Y-4.654
X7.326Y-4.689
X7.336Y-4.599
X7.346Y-4.574
X7.356Y-4.549
X7.456Y-4.264
X7.466Y-4.314
X7.491Y-4.339
X7.516Y-4.364
X7.521Y-4.399
X7.551Y-4.289
X7.556Y-4.549
X7.596Y-4.264
X7.641Y-4.239
X7.686Y-4.214
X7.731Y-4.134
X7.731Y-4.184
X7.756Y-3.449
X7.801Y-4.114
X7.9005Y-4.7945
X7.9269Y-4.1495
X7.936Y-4.839
X7.971Y-4.814
X7.981Y-3.999
X8.066Y-4.224
X8.0684Y-4.2909
X8.086Y-4.129
X8.1037Y-4.7717
X8.166Y-4.799
X8.206Y-4.549
X8.226Y-4.069
X8.251Y-4.059
T2
X8.5405Y-4.6
X8.5682Y-4.5332
X8.5682Y-4.6668
X8.635Y-4.5055
X8.635Y-4.6945
X8.7018Y-4.5332
X8.7018Y-4.6668
X8.7295Y-4.6
X2.9805Y-4.6
X3.0082Y-4.5332
X3.0082Y-4.6668
X3.075Y-4.5055
X3.075Y-4.6945
X3.1418Y-4.5332
X3.1418Y-4.6668
X3.1695Y-4.6
X2.9805Y-3.175
X3.0082Y-3.1082
X3.0082Y-3.2418
X3.075Y-3.0805
X3.075Y-3.2695
X3.1418Y-3.1082
X3.1418Y-3.2418
X3.1695Y-3.175
X8.5405Y-3.175
X8.5682Y-3.1082
X8.5682Y-3.2418
X8.635Y-3.0805
X8.635Y-3.2695
X8.7018Y-3.1082
X8.7018Y-3.2418
X8.7295Y-3.175
T3
X4.7914Y-3.5557
X4.8914Y-3.5557
X6.8272Y-4.0281
X6.9272Y-4.0281
X5.605Y-4.5
X5.605Y-4.6
X5.705Y-4.5
X5.705Y-4.6
X5.805Y-4.5
X5.805Y-4.6
X5.606Y-4.699
X5.706Y-4.699
X5.806Y-4.699
X5.906Y-4.699
X6.006Y-4.699
X6.106Y-4.699
X5.905Y-4.5
X5.905Y-4.6
X6.005Y-4.5
X6.005Y-4.6
X6.105Y-4.5
X6.105Y-4.6
X5.606Y-3.124
X5.606Y-3.224
X5.706Y-3.124
X5.706Y-3.224
X5.806Y-3.124
X5.806Y-3.224
X5.906Y-3.124
X5.906Y-3.224
X6.006Y-3.124
X6.006Y-3.224
X6.819Y-3.5557
X6.919Y-3.5557
X4.7914Y-4.0281
X4.8914Y-4.0281
X6.106Y-3.124
X6.106Y-3.224
T4
X6.0628Y-3.7919
X6.0628Y-3.969
X6.1317Y-3.477
X6.1317Y-4.1068
X6.2891Y-3.4376
X6.2891Y-4.1462
X6.4465Y-3.477
X6.4465Y-4.1068
X6.5154Y-3.6148
X6.5154Y-3.7919
X6.5154Y-3.969
X8.0903Y-3.6148
X6.0628Y-3.6148
X8.0903Y-3.7919
X8.0903Y-3.969
X8.1592Y-3.477
X8.1592Y-4.1068
X8.3166Y-3.4376
X8.3166Y-4.1462
X8.474Y-3.477
X8.474Y-4.1068
X8.5429Y-3.6148
X8.5429Y-3.7919
X8.5429Y-3.969
X3.1691Y-3.6148
X3.1691Y-3.7919
X3.1691Y-3.969
X3.238Y-3.477
X3.238Y-4.1068
X3.3954Y-3.4376
X3.3954Y-4.1462
X3.5528Y-3.477
X3.5528Y-4.1068
X3.6217Y-3.6148
X3.6217Y-3.7919
X3.6217Y-3.969
X7.2242Y-3.6148
X7.2242Y-3.7919
X7.2242Y-3.969
X7.2931Y-3.477
X7.2931Y-4.1068
X7.4505Y-3.4376
X7.4505Y-4.1462
X7.6079Y-3.477
X7.6079Y-4.1068
X7.6768Y-3.6148
X7.6768Y-3.7919
X7.6768Y-3.969
X4.0352Y-3.6148
X4.0352Y-3.7919
X4.0352Y-3.969
X4.1041Y-3.477
X4.1041Y-4.1068
X4.2615Y-3.4376
X4.2615Y-4.1462
X4.4189Y-3.477
X4.4189Y-4.1068
X4.4878Y-3.6148
X4.4878Y-3.7919
X5.1966Y-3.6148
X5.1966Y-3.7919
X5.1966Y-3.969
X5.2655Y-3.477
X5.2655Y-4.1068
X5.4229Y-3.4376
X5.4229Y-4.1462
X5.5803Y-3.477
X5.5803Y-4.1068
X5.6492Y-3.6148
X5.6492Y-3.7919
X5.6492Y-3.969
X4.4878Y-3.969
T5
X3.075Y-4.6
X8.635Y-4.6
X3.075Y-3.175
X8.635Y-3.175
T0
M30
