G04 #@! TF.GenerationSoftware,KiCad,Pcbnew,(5.1.0-0)*
G04 #@! TF.CreationDate,2019-05-10T01:12:34-05:00*
G04 #@! TF.ProjectId,IN-12,494e2d31-322e-46b6-9963-61645f706362,rev?*
G04 #@! TF.SameCoordinates,Original*
G04 #@! TF.FileFunction,Paste,Top*
G04 #@! TF.FilePolarity,Positive*
%FSLAX46Y46*%
G04 Gerber Fmt 4.6, Leading zero omitted, Abs format (unit mm)*
G04 Created by KiCad (PCBNEW (5.1.0-0)) date 2019-05-10 01:12:34*
%MOMM*%
%LPD*%
G04 APERTURE LIST*
%ADD10C,2.500000*%
G04 APERTURE END LIST*
D10*
X86242400Y-105313820D03*
X90240360Y-104313060D03*
X91990420Y-96314600D03*
X91990420Y-91816260D03*
X90240360Y-88316140D03*
X86242400Y-87315380D03*
X82244440Y-88316140D03*
X80494380Y-91816260D03*
X80494380Y-96314600D03*
X80494380Y-100812940D03*
X82244440Y-104313060D03*
X91990420Y-100812940D03*
X108242400Y-105313820D03*
X112240360Y-104313060D03*
X113990420Y-96314600D03*
X113990420Y-91816260D03*
X112240360Y-88316140D03*
X108242400Y-87315380D03*
X104244440Y-88316140D03*
X102494380Y-91816260D03*
X102494380Y-96314600D03*
X102494380Y-100812940D03*
X104244440Y-104313060D03*
X113990420Y-100812940D03*
X137742400Y-105313820D03*
X141740360Y-104313060D03*
X143490420Y-96314600D03*
X143490420Y-91816260D03*
X141740360Y-88316140D03*
X137742400Y-87315380D03*
X133744440Y-88316140D03*
X131994380Y-91816260D03*
X131994380Y-96314600D03*
X131994380Y-100812940D03*
X133744440Y-104313060D03*
X143490420Y-100812940D03*
X159742400Y-105313820D03*
X163740360Y-104313060D03*
X165490420Y-96314600D03*
X165490420Y-91816260D03*
X163740360Y-88316140D03*
X159742400Y-87315380D03*
X155744440Y-88316140D03*
X153994380Y-91816260D03*
X153994380Y-96314600D03*
X153994380Y-100812940D03*
X155744440Y-104313060D03*
X165490420Y-100812940D03*
X189242400Y-105313820D03*
X193240360Y-104313060D03*
X194990420Y-96314600D03*
X194990420Y-91816260D03*
X193240360Y-88316140D03*
X189242400Y-87315380D03*
X185244440Y-88316140D03*
X183494380Y-91816260D03*
X183494380Y-96314600D03*
X183494380Y-100812940D03*
X185244440Y-104313060D03*
X194990420Y-100812940D03*
X211242400Y-105313820D03*
X215240360Y-104313060D03*
X216990420Y-96314600D03*
X216990420Y-91816260D03*
X215240360Y-88316140D03*
X211242400Y-87315380D03*
X207244440Y-88316140D03*
X205494380Y-91816260D03*
X205494380Y-96314600D03*
X205494380Y-100812940D03*
X207244440Y-104313060D03*
X216990420Y-100812940D03*
M02*
