G04 #@! TF.GenerationSoftware,KiCad,Pcbnew,(5.1.0-0)*
G04 #@! TF.CreationDate,2019-05-10T01:12:34-05:00*
G04 #@! TF.ProjectId,IN-12,494e2d31-322e-46b6-9963-61645f706362,rev?*
G04 #@! TF.SameCoordinates,Original*
G04 #@! TF.FileFunction,Legend,Bot*
G04 #@! TF.FilePolarity,Positive*
%FSLAX46Y46*%
G04 Gerber Fmt 4.6, Leading zero omitted, Abs format (unit mm)*
G04 Created by KiCad (PCBNEW (5.1.0-0)) date 2019-05-10 01:12:34*
%MOMM*%
%LPD*%
G04 APERTURE LIST*
%ADD10C,0.152400*%
%ADD11C,0.150000*%
%ADD12C,0.381000*%
%ADD13C,0.120000*%
G04 APERTURE END LIST*
D10*
X126961048Y-118840749D02*
X126841311Y-118780880D01*
X126691640Y-118631209D01*
X126661706Y-118541407D01*
X126661706Y-118481538D01*
X126691640Y-118391736D01*
X126751508Y-118331868D01*
X126841311Y-118301933D01*
X126901179Y-118301933D01*
X126990982Y-118331868D01*
X127140653Y-118421670D01*
X127230455Y-118451604D01*
X127290324Y-118451604D01*
X127380126Y-118421670D01*
X127439995Y-118361802D01*
X127469929Y-118271999D01*
X127469929Y-118212131D01*
X127439995Y-118122328D01*
X127290324Y-117972657D01*
X127170587Y-117912789D01*
X126631771Y-117912789D02*
X126422232Y-117703250D01*
X126003154Y-117942723D02*
X126302495Y-118242065D01*
X126931113Y-117613447D01*
X126631771Y-117314105D01*
X125374536Y-117314105D02*
X125883417Y-117224303D01*
X125733746Y-117673315D02*
X126362364Y-117044697D01*
X126122890Y-116805224D01*
X126033088Y-116775290D01*
X125973219Y-116775290D01*
X125883417Y-116805224D01*
X125793614Y-116895027D01*
X125763680Y-116984829D01*
X125763680Y-117044697D01*
X125793614Y-117134500D01*
X126033088Y-117373974D01*
X125105128Y-117044697D02*
X125733746Y-116416080D01*
X125015325Y-116595685D02*
X124715983Y-116296343D01*
X124895589Y-116835158D02*
X125314667Y-115997001D01*
X124476510Y-116416080D01*
X123967629Y-115907198D02*
X124266971Y-116206540D01*
X124895589Y-115577922D01*
X123398879Y-114679897D02*
X123279143Y-114620028D01*
X123219274Y-114620028D01*
X123129472Y-114649963D01*
X123039669Y-114739765D01*
X123009735Y-114829568D01*
X123009735Y-114889436D01*
X123039669Y-114979239D01*
X123279143Y-115218712D01*
X123907760Y-114590094D01*
X123698221Y-114380555D01*
X123608419Y-114350621D01*
X123548550Y-114350621D01*
X123458748Y-114380555D01*
X123398879Y-114440423D01*
X123368945Y-114530226D01*
X123368945Y-114590094D01*
X123398879Y-114679897D01*
X123608419Y-114889436D01*
X122830130Y-114171016D02*
X122530788Y-114470357D01*
X123368945Y-114051279D02*
X122830130Y-114171016D01*
X122949866Y-113632200D01*
X122111709Y-114051279D02*
X122740327Y-113422661D01*
X122500854Y-113183187D01*
X122411051Y-113153253D01*
X122351183Y-113153253D01*
X122261380Y-113183187D01*
X122171578Y-113272990D01*
X122141643Y-113362792D01*
X122141643Y-113422661D01*
X122171578Y-113512463D01*
X122411051Y-113751937D01*
X121692631Y-113272990D02*
X121393289Y-112973648D01*
X121572894Y-113512463D02*
X121991972Y-112674306D01*
X121153815Y-113093385D01*
X121004144Y-112883845D02*
X120884408Y-112823977D01*
X120734737Y-112674306D01*
X120704802Y-112584504D01*
X120704802Y-112524635D01*
X120734737Y-112434833D01*
X120794605Y-112374964D01*
X120884408Y-112345030D01*
X120944276Y-112345030D01*
X121034078Y-112374964D01*
X121183749Y-112464767D01*
X121273552Y-112494701D01*
X121333420Y-112494701D01*
X121423223Y-112464767D01*
X121483091Y-112404898D01*
X121513025Y-112315096D01*
X121513025Y-112255228D01*
X121483091Y-112165425D01*
X121333420Y-112015754D01*
X121213684Y-111955886D01*
X120405461Y-112285162D02*
X120285724Y-112225293D01*
X120136053Y-112075622D01*
X120106119Y-111985820D01*
X120106119Y-111925951D01*
X120136053Y-111836149D01*
X120195921Y-111776281D01*
X120285724Y-111746346D01*
X120345592Y-111746346D01*
X120435395Y-111776281D01*
X120585066Y-111866083D01*
X120674868Y-111896017D01*
X120734737Y-111896017D01*
X120824539Y-111866083D01*
X120884408Y-111806215D01*
X120914342Y-111716412D01*
X120914342Y-111656544D01*
X120884408Y-111566741D01*
X120734737Y-111417070D01*
X120615000Y-111357202D01*
X126104930Y-120086011D02*
X125985193Y-120026143D01*
X125835522Y-119876472D01*
X125805588Y-119786669D01*
X125805588Y-119726801D01*
X125835522Y-119636998D01*
X125895390Y-119577130D01*
X125985193Y-119547196D01*
X126045061Y-119547196D01*
X126134864Y-119577130D01*
X126284535Y-119666932D01*
X126374337Y-119696866D01*
X126434206Y-119696866D01*
X126524008Y-119666932D01*
X126583877Y-119607064D01*
X126613811Y-119517261D01*
X126613811Y-119457393D01*
X126583877Y-119367590D01*
X126434206Y-119217919D01*
X126314469Y-119158051D01*
X125446378Y-119487327D02*
X126074996Y-118858709D01*
X125176970Y-119217919D02*
X125506246Y-118888643D01*
X125596049Y-118858709D01*
X125685851Y-118888643D01*
X125775654Y-118978446D01*
X125805588Y-119068249D01*
X125805588Y-119128117D01*
X124787826Y-118828775D02*
X124877628Y-118858709D01*
X124937496Y-118858709D01*
X125027299Y-118828775D01*
X125206904Y-118649170D01*
X125236838Y-118559367D01*
X125236838Y-118499499D01*
X125206904Y-118409696D01*
X125117102Y-118319894D01*
X125027299Y-118289960D01*
X124967431Y-118289960D01*
X124877628Y-118319894D01*
X124698023Y-118499499D01*
X124668089Y-118589302D01*
X124668089Y-118649170D01*
X124698023Y-118738972D01*
X124787826Y-118828775D01*
X124308879Y-118349828D02*
X124727957Y-117930749D01*
X124608220Y-118050486D02*
X124638155Y-117960684D01*
X124638155Y-117900815D01*
X124608220Y-117811013D01*
X124548352Y-117751144D01*
X124428615Y-117631408D02*
X124189142Y-117391934D01*
X124548352Y-117332066D02*
X124009537Y-117870881D01*
X123919734Y-117900815D01*
X123829932Y-117870881D01*
X123770063Y-117811013D01*
X123530590Y-116314303D02*
X123081577Y-116763316D01*
X123021708Y-116883053D01*
X123021708Y-117002790D01*
X123081577Y-117122526D01*
X123141445Y-117182395D01*
X122602630Y-116643579D02*
X123231248Y-116014961D01*
X122991774Y-115775488D01*
X122901972Y-115745554D01*
X122842103Y-115745554D01*
X122752301Y-115775488D01*
X122662498Y-115865291D01*
X122632564Y-115955093D01*
X122632564Y-116014961D01*
X122662498Y-116104764D01*
X122901972Y-116344238D01*
X121644736Y-115685685D02*
X122003946Y-116044896D01*
X121824341Y-115865291D02*
X122452959Y-115236673D01*
X122423025Y-115386344D01*
X122423025Y-115506080D01*
X122452959Y-115595883D01*
X120896381Y-114937331D02*
X121315460Y-114518252D01*
X121524999Y-114308713D02*
X121524999Y-114368581D01*
X121465131Y-114368581D01*
X121465131Y-114308713D01*
X121524999Y-114308713D01*
X121465131Y-114368581D01*
X121105920Y-114308713D02*
X120866447Y-114069239D01*
X120597039Y-114637989D02*
X121135855Y-114099173D01*
X121165789Y-114009371D01*
X121135855Y-113919568D01*
X121075986Y-113859700D01*
X120387500Y-113171214D02*
X119878619Y-113680095D01*
X119788816Y-113710029D01*
X119728948Y-113710029D01*
X119639145Y-113680095D01*
X119519409Y-113560358D01*
X119489474Y-113470556D01*
X119489474Y-113410687D01*
X119519409Y-113320885D01*
X120028290Y-112812003D01*
X119250001Y-112452793D02*
X118830922Y-112871872D01*
X119639145Y-112362991D02*
X119339803Y-112961674D01*
X118950659Y-112572530D01*
X124889602Y-121031931D02*
X125308680Y-120612853D01*
X125518220Y-120403313D02*
X125518220Y-120463182D01*
X125458351Y-120463182D01*
X125458351Y-120403313D01*
X125518220Y-120403313D01*
X125458351Y-120463182D01*
X124650128Y-120732589D02*
X124560326Y-120702655D01*
X124440589Y-120582918D01*
X124410655Y-120493116D01*
X124440589Y-120403313D01*
X124470523Y-120373379D01*
X124560326Y-120343445D01*
X124650128Y-120373379D01*
X124739931Y-120463182D01*
X124829733Y-120493116D01*
X124919536Y-120463182D01*
X124949470Y-120433248D01*
X124979404Y-120343445D01*
X124949470Y-120253642D01*
X124859668Y-120163840D01*
X124769865Y-120133906D01*
X124021510Y-119325683D02*
X123602432Y-119744761D01*
X123961642Y-119385551D02*
X123961642Y-119325683D01*
X123931708Y-119235880D01*
X123841905Y-119146077D01*
X123752103Y-119116143D01*
X123662300Y-119146077D01*
X123333024Y-119475354D01*
X122943880Y-119086209D02*
X123033682Y-119116143D01*
X123093550Y-119116143D01*
X123183353Y-119086209D01*
X123362958Y-118906604D01*
X123392892Y-118816801D01*
X123392892Y-118756933D01*
X123362958Y-118667130D01*
X123273156Y-118577328D01*
X123183353Y-118547394D01*
X123123485Y-118547394D01*
X123033682Y-118577328D01*
X122854077Y-118756933D01*
X122824143Y-118846736D01*
X122824143Y-118906604D01*
X122854077Y-118996407D01*
X122943880Y-119086209D01*
X122973814Y-118277986D02*
X122734340Y-118038513D01*
X123093550Y-117978644D02*
X122554735Y-118517460D01*
X122464933Y-118547394D01*
X122375130Y-118517460D01*
X122315262Y-118457591D01*
X121626775Y-117769105D02*
X122045854Y-117350026D01*
X122255393Y-117140487D02*
X122255393Y-117200355D01*
X122195525Y-117200355D01*
X122195525Y-117140487D01*
X122255393Y-117140487D01*
X122195525Y-117200355D01*
X121746512Y-117050684D02*
X121327433Y-117469763D01*
X121686644Y-117110553D02*
X121686644Y-117050684D01*
X121656710Y-116960882D01*
X121566907Y-116871079D01*
X121477104Y-116841145D01*
X121387302Y-116871079D01*
X121058026Y-117200355D01*
X120818552Y-116901013D02*
X120728750Y-116871079D01*
X120609013Y-116751343D01*
X120579079Y-116661540D01*
X120609013Y-116571737D01*
X120638947Y-116541803D01*
X120728750Y-116511869D01*
X120818552Y-116541803D01*
X120908355Y-116631606D01*
X120998157Y-116661540D01*
X121087960Y-116631606D01*
X121117894Y-116601672D01*
X121147828Y-116511869D01*
X121117894Y-116422066D01*
X121028092Y-116332264D01*
X120938289Y-116302330D01*
X120758684Y-116062856D02*
X120519210Y-115823383D01*
X120878421Y-115763514D02*
X120339605Y-116302330D01*
X120249803Y-116332264D01*
X120160000Y-116302330D01*
X120100132Y-116242461D01*
X119621185Y-115763514D02*
X119950461Y-115434238D01*
X120040263Y-115404304D01*
X120130066Y-115434238D01*
X120249803Y-115553975D01*
X120279737Y-115643778D01*
X119651119Y-115733580D02*
X119681053Y-115823383D01*
X119830724Y-115973054D01*
X119920527Y-116002988D01*
X120010329Y-115973054D01*
X120070198Y-115913185D01*
X120100132Y-115823383D01*
X120070198Y-115733580D01*
X119920527Y-115583909D01*
X119890592Y-115494107D01*
X119232040Y-115374370D02*
X119321843Y-115404304D01*
X119411645Y-115374370D01*
X119950461Y-114835555D01*
X118902764Y-115045094D02*
X118992567Y-115075028D01*
X119082369Y-115045094D01*
X119621185Y-114506278D01*
X118453751Y-114536213D02*
X118483686Y-114626015D01*
X118603422Y-114745752D01*
X118693225Y-114775686D01*
X118783028Y-114745752D01*
X119022501Y-114506278D01*
X119052435Y-114416476D01*
X119022501Y-114326673D01*
X118902764Y-114206937D01*
X118812962Y-114177002D01*
X118723159Y-114206937D01*
X118663291Y-114266805D01*
X118902764Y-114626015D01*
X117855068Y-113997397D02*
X118483686Y-113368779D01*
X117885002Y-113967463D02*
X117914936Y-114057266D01*
X118034673Y-114177002D01*
X118124475Y-114206937D01*
X118184344Y-114206937D01*
X118274146Y-114177002D01*
X118453751Y-113997397D01*
X118483686Y-113907595D01*
X118483686Y-113847726D01*
X118453751Y-113757924D01*
X118334015Y-113638187D01*
X118244212Y-113608253D01*
X89793233Y-79140050D02*
X89750900Y-79097716D01*
X89623900Y-79055383D01*
X89539233Y-79055383D01*
X89412233Y-79097716D01*
X89327566Y-79182383D01*
X89285233Y-79267050D01*
X89242900Y-79436383D01*
X89242900Y-79563383D01*
X89285233Y-79732716D01*
X89327566Y-79817383D01*
X89412233Y-79902050D01*
X89539233Y-79944383D01*
X89623900Y-79944383D01*
X89750900Y-79902050D01*
X89793233Y-79859716D01*
X90131900Y-79309383D02*
X90555233Y-79309383D01*
X90047233Y-79055383D02*
X90343566Y-79944383D01*
X90639900Y-79055383D01*
X90936233Y-79944383D02*
X90936233Y-79224716D01*
X90978566Y-79140050D01*
X91020900Y-79097716D01*
X91105566Y-79055383D01*
X91274900Y-79055383D01*
X91359566Y-79097716D01*
X91401900Y-79140050D01*
X91444233Y-79224716D01*
X91444233Y-79944383D01*
X91740566Y-79944383D02*
X92248566Y-79944383D01*
X91994566Y-79055383D02*
X91994566Y-79944383D01*
X92544900Y-79055383D02*
X92544900Y-79944383D01*
X93137566Y-79944383D02*
X93306900Y-79944383D01*
X93391566Y-79902050D01*
X93476233Y-79817383D01*
X93518566Y-79648050D01*
X93518566Y-79351716D01*
X93476233Y-79182383D01*
X93391566Y-79097716D01*
X93306900Y-79055383D01*
X93137566Y-79055383D01*
X93052900Y-79097716D01*
X92968233Y-79182383D01*
X92925900Y-79351716D01*
X92925900Y-79648050D01*
X92968233Y-79817383D01*
X93052900Y-79902050D01*
X93137566Y-79944383D01*
X93899566Y-79055383D02*
X93899566Y-79944383D01*
X94407566Y-79055383D01*
X94407566Y-79944383D01*
X94830900Y-79140050D02*
X94873233Y-79097716D01*
X94830900Y-79055383D01*
X94788566Y-79097716D01*
X94830900Y-79140050D01*
X94830900Y-79055383D01*
X94830900Y-79605716D02*
X94873233Y-79563383D01*
X94830900Y-79521050D01*
X94788566Y-79563383D01*
X94830900Y-79605716D01*
X94830900Y-79521050D01*
X95931566Y-79055383D02*
X95931566Y-79944383D01*
X95931566Y-79521050D02*
X96439566Y-79521050D01*
X96439566Y-79055383D02*
X96439566Y-79944383D01*
X96862900Y-79055383D02*
X96862900Y-79944383D01*
X97751900Y-79902050D02*
X97667233Y-79944383D01*
X97540233Y-79944383D01*
X97413233Y-79902050D01*
X97328566Y-79817383D01*
X97286233Y-79732716D01*
X97243900Y-79563383D01*
X97243900Y-79436383D01*
X97286233Y-79267050D01*
X97328566Y-79182383D01*
X97413233Y-79097716D01*
X97540233Y-79055383D01*
X97624900Y-79055383D01*
X97751900Y-79097716D01*
X97794233Y-79140050D01*
X97794233Y-79436383D01*
X97624900Y-79436383D01*
X98175233Y-79055383D02*
X98175233Y-79944383D01*
X98175233Y-79521050D02*
X98683233Y-79521050D01*
X98683233Y-79055383D02*
X98683233Y-79944383D01*
X99656900Y-79944383D02*
X99953233Y-79055383D01*
X100249566Y-79944383D01*
X100715233Y-79944383D02*
X100884566Y-79944383D01*
X100969233Y-79902050D01*
X101053900Y-79817383D01*
X101096233Y-79648050D01*
X101096233Y-79351716D01*
X101053900Y-79182383D01*
X100969233Y-79097716D01*
X100884566Y-79055383D01*
X100715233Y-79055383D01*
X100630566Y-79097716D01*
X100545900Y-79182383D01*
X100503566Y-79351716D01*
X100503566Y-79648050D01*
X100545900Y-79817383D01*
X100630566Y-79902050D01*
X100715233Y-79944383D01*
X101900566Y-79055383D02*
X101477233Y-79055383D01*
X101477233Y-79944383D01*
X102069900Y-79944383D02*
X102577900Y-79944383D01*
X102323900Y-79055383D02*
X102323900Y-79944383D01*
X102831900Y-79309383D02*
X103255233Y-79309383D01*
X102747233Y-79055383D02*
X103043566Y-79944383D01*
X103339900Y-79055383D01*
X104101900Y-79902050D02*
X104017233Y-79944383D01*
X103890233Y-79944383D01*
X103763233Y-79902050D01*
X103678566Y-79817383D01*
X103636233Y-79732716D01*
X103593900Y-79563383D01*
X103593900Y-79436383D01*
X103636233Y-79267050D01*
X103678566Y-79182383D01*
X103763233Y-79097716D01*
X103890233Y-79055383D01*
X103974900Y-79055383D01*
X104101900Y-79097716D01*
X104144233Y-79140050D01*
X104144233Y-79436383D01*
X103974900Y-79436383D01*
X104525233Y-79521050D02*
X104821566Y-79521050D01*
X104948566Y-79055383D02*
X104525233Y-79055383D01*
X104525233Y-79944383D01*
X104948566Y-79944383D01*
X105329566Y-79140050D02*
X105371900Y-79097716D01*
X105329566Y-79055383D01*
X105287233Y-79097716D01*
X105329566Y-79140050D01*
X105329566Y-79055383D01*
X105329566Y-79394050D02*
X105287233Y-79902050D01*
X105329566Y-79944383D01*
X105371900Y-79902050D01*
X105329566Y-79394050D01*
X105329566Y-79944383D01*
X92269733Y-77569483D02*
X92269733Y-78458483D01*
X92481400Y-78458483D01*
X92608400Y-78416150D01*
X92693066Y-78331483D01*
X92735400Y-78246816D01*
X92777733Y-78077483D01*
X92777733Y-77950483D01*
X92735400Y-77781150D01*
X92693066Y-77696483D01*
X92608400Y-77611816D01*
X92481400Y-77569483D01*
X92269733Y-77569483D01*
X93328066Y-78458483D02*
X93497400Y-78458483D01*
X93582066Y-78416150D01*
X93666733Y-78331483D01*
X93709066Y-78162150D01*
X93709066Y-77865816D01*
X93666733Y-77696483D01*
X93582066Y-77611816D01*
X93497400Y-77569483D01*
X93328066Y-77569483D01*
X93243400Y-77611816D01*
X93158733Y-77696483D01*
X93116400Y-77865816D01*
X93116400Y-78162150D01*
X93158733Y-78331483D01*
X93243400Y-78416150D01*
X93328066Y-78458483D01*
X94767400Y-77569483D02*
X94767400Y-78458483D01*
X95275400Y-77569483D01*
X95275400Y-78458483D01*
X95868066Y-78458483D02*
X96037400Y-78458483D01*
X96122066Y-78416150D01*
X96206733Y-78331483D01*
X96249066Y-78162150D01*
X96249066Y-77865816D01*
X96206733Y-77696483D01*
X96122066Y-77611816D01*
X96037400Y-77569483D01*
X95868066Y-77569483D01*
X95783400Y-77611816D01*
X95698733Y-77696483D01*
X95656400Y-77865816D01*
X95656400Y-78162150D01*
X95698733Y-78331483D01*
X95783400Y-78416150D01*
X95868066Y-78458483D01*
X96503066Y-78458483D02*
X97011066Y-78458483D01*
X96757066Y-77569483D02*
X96757066Y-78458483D01*
X97857733Y-78458483D02*
X98365733Y-78458483D01*
X98111733Y-77569483D02*
X98111733Y-78458483D01*
X98831400Y-78458483D02*
X99000733Y-78458483D01*
X99085400Y-78416150D01*
X99170066Y-78331483D01*
X99212400Y-78162150D01*
X99212400Y-77865816D01*
X99170066Y-77696483D01*
X99085400Y-77611816D01*
X99000733Y-77569483D01*
X98831400Y-77569483D01*
X98746733Y-77611816D01*
X98662066Y-77696483D01*
X98619733Y-77865816D01*
X98619733Y-78162150D01*
X98662066Y-78331483D01*
X98746733Y-78416150D01*
X98831400Y-78458483D01*
X99593400Y-78458483D02*
X99593400Y-77738816D01*
X99635733Y-77654150D01*
X99678066Y-77611816D01*
X99762733Y-77569483D01*
X99932066Y-77569483D01*
X100016733Y-77611816D01*
X100059066Y-77654150D01*
X100101400Y-77738816D01*
X100101400Y-78458483D01*
X101032733Y-77654150D02*
X100990400Y-77611816D01*
X100863400Y-77569483D01*
X100778733Y-77569483D01*
X100651733Y-77611816D01*
X100567066Y-77696483D01*
X100524733Y-77781150D01*
X100482400Y-77950483D01*
X100482400Y-78077483D01*
X100524733Y-78246816D01*
X100567066Y-78331483D01*
X100651733Y-78416150D01*
X100778733Y-78458483D01*
X100863400Y-78458483D01*
X100990400Y-78416150D01*
X101032733Y-78373816D01*
X101413733Y-77569483D02*
X101413733Y-78458483D01*
X101413733Y-78035150D02*
X101921733Y-78035150D01*
X101921733Y-77569483D02*
X101921733Y-78458483D01*
X102345066Y-77654150D02*
X102387400Y-77611816D01*
X102345066Y-77569483D01*
X102302733Y-77611816D01*
X102345066Y-77654150D01*
X102345066Y-77569483D01*
X102345066Y-77908150D02*
X102302733Y-78416150D01*
X102345066Y-78458483D01*
X102387400Y-78416150D01*
X102345066Y-77908150D01*
X102345066Y-78458483D01*
D11*
X128309312Y-110981748D02*
X127905251Y-110577687D01*
X128107281Y-110779718D02*
X127400174Y-111486825D01*
X127433846Y-111318466D01*
X127433846Y-111183779D01*
X127400174Y-111082764D01*
D10*
X192663233Y-79140050D02*
X192620900Y-79097716D01*
X192493900Y-79055383D01*
X192409233Y-79055383D01*
X192282233Y-79097716D01*
X192197566Y-79182383D01*
X192155233Y-79267050D01*
X192112900Y-79436383D01*
X192112900Y-79563383D01*
X192155233Y-79732716D01*
X192197566Y-79817383D01*
X192282233Y-79902050D01*
X192409233Y-79944383D01*
X192493900Y-79944383D01*
X192620900Y-79902050D01*
X192663233Y-79859716D01*
X193001900Y-79309383D02*
X193425233Y-79309383D01*
X192917233Y-79055383D02*
X193213566Y-79944383D01*
X193509900Y-79055383D01*
X193806233Y-79944383D02*
X193806233Y-79224716D01*
X193848566Y-79140050D01*
X193890900Y-79097716D01*
X193975566Y-79055383D01*
X194144900Y-79055383D01*
X194229566Y-79097716D01*
X194271900Y-79140050D01*
X194314233Y-79224716D01*
X194314233Y-79944383D01*
X194610566Y-79944383D02*
X195118566Y-79944383D01*
X194864566Y-79055383D02*
X194864566Y-79944383D01*
X195414900Y-79055383D02*
X195414900Y-79944383D01*
X196007566Y-79944383D02*
X196176900Y-79944383D01*
X196261566Y-79902050D01*
X196346233Y-79817383D01*
X196388566Y-79648050D01*
X196388566Y-79351716D01*
X196346233Y-79182383D01*
X196261566Y-79097716D01*
X196176900Y-79055383D01*
X196007566Y-79055383D01*
X195922900Y-79097716D01*
X195838233Y-79182383D01*
X195795900Y-79351716D01*
X195795900Y-79648050D01*
X195838233Y-79817383D01*
X195922900Y-79902050D01*
X196007566Y-79944383D01*
X196769566Y-79055383D02*
X196769566Y-79944383D01*
X197277566Y-79055383D01*
X197277566Y-79944383D01*
X197700900Y-79140050D02*
X197743233Y-79097716D01*
X197700900Y-79055383D01*
X197658566Y-79097716D01*
X197700900Y-79140050D01*
X197700900Y-79055383D01*
X197700900Y-79605716D02*
X197743233Y-79563383D01*
X197700900Y-79521050D01*
X197658566Y-79563383D01*
X197700900Y-79605716D01*
X197700900Y-79521050D01*
X198801566Y-79055383D02*
X198801566Y-79944383D01*
X198801566Y-79521050D02*
X199309566Y-79521050D01*
X199309566Y-79055383D02*
X199309566Y-79944383D01*
X199732900Y-79055383D02*
X199732900Y-79944383D01*
X200621900Y-79902050D02*
X200537233Y-79944383D01*
X200410233Y-79944383D01*
X200283233Y-79902050D01*
X200198566Y-79817383D01*
X200156233Y-79732716D01*
X200113900Y-79563383D01*
X200113900Y-79436383D01*
X200156233Y-79267050D01*
X200198566Y-79182383D01*
X200283233Y-79097716D01*
X200410233Y-79055383D01*
X200494900Y-79055383D01*
X200621900Y-79097716D01*
X200664233Y-79140050D01*
X200664233Y-79436383D01*
X200494900Y-79436383D01*
X201045233Y-79055383D02*
X201045233Y-79944383D01*
X201045233Y-79521050D02*
X201553233Y-79521050D01*
X201553233Y-79055383D02*
X201553233Y-79944383D01*
X202526900Y-79944383D02*
X202823233Y-79055383D01*
X203119566Y-79944383D01*
X203585233Y-79944383D02*
X203754566Y-79944383D01*
X203839233Y-79902050D01*
X203923900Y-79817383D01*
X203966233Y-79648050D01*
X203966233Y-79351716D01*
X203923900Y-79182383D01*
X203839233Y-79097716D01*
X203754566Y-79055383D01*
X203585233Y-79055383D01*
X203500566Y-79097716D01*
X203415900Y-79182383D01*
X203373566Y-79351716D01*
X203373566Y-79648050D01*
X203415900Y-79817383D01*
X203500566Y-79902050D01*
X203585233Y-79944383D01*
X204770566Y-79055383D02*
X204347233Y-79055383D01*
X204347233Y-79944383D01*
X204939900Y-79944383D02*
X205447900Y-79944383D01*
X205193900Y-79055383D02*
X205193900Y-79944383D01*
X205701900Y-79309383D02*
X206125233Y-79309383D01*
X205617233Y-79055383D02*
X205913566Y-79944383D01*
X206209900Y-79055383D01*
X206971900Y-79902050D02*
X206887233Y-79944383D01*
X206760233Y-79944383D01*
X206633233Y-79902050D01*
X206548566Y-79817383D01*
X206506233Y-79732716D01*
X206463900Y-79563383D01*
X206463900Y-79436383D01*
X206506233Y-79267050D01*
X206548566Y-79182383D01*
X206633233Y-79097716D01*
X206760233Y-79055383D01*
X206844900Y-79055383D01*
X206971900Y-79097716D01*
X207014233Y-79140050D01*
X207014233Y-79436383D01*
X206844900Y-79436383D01*
X207395233Y-79521050D02*
X207691566Y-79521050D01*
X207818566Y-79055383D02*
X207395233Y-79055383D01*
X207395233Y-79944383D01*
X207818566Y-79944383D01*
X208199566Y-79140050D02*
X208241900Y-79097716D01*
X208199566Y-79055383D01*
X208157233Y-79097716D01*
X208199566Y-79140050D01*
X208199566Y-79055383D01*
X208199566Y-79394050D02*
X208157233Y-79902050D01*
X208199566Y-79944383D01*
X208241900Y-79902050D01*
X208199566Y-79394050D01*
X208199566Y-79944383D01*
X195139733Y-77569483D02*
X195139733Y-78458483D01*
X195351400Y-78458483D01*
X195478400Y-78416150D01*
X195563066Y-78331483D01*
X195605400Y-78246816D01*
X195647733Y-78077483D01*
X195647733Y-77950483D01*
X195605400Y-77781150D01*
X195563066Y-77696483D01*
X195478400Y-77611816D01*
X195351400Y-77569483D01*
X195139733Y-77569483D01*
X196198066Y-78458483D02*
X196367400Y-78458483D01*
X196452066Y-78416150D01*
X196536733Y-78331483D01*
X196579066Y-78162150D01*
X196579066Y-77865816D01*
X196536733Y-77696483D01*
X196452066Y-77611816D01*
X196367400Y-77569483D01*
X196198066Y-77569483D01*
X196113400Y-77611816D01*
X196028733Y-77696483D01*
X195986400Y-77865816D01*
X195986400Y-78162150D01*
X196028733Y-78331483D01*
X196113400Y-78416150D01*
X196198066Y-78458483D01*
X197637400Y-77569483D02*
X197637400Y-78458483D01*
X198145400Y-77569483D01*
X198145400Y-78458483D01*
X198738066Y-78458483D02*
X198907400Y-78458483D01*
X198992066Y-78416150D01*
X199076733Y-78331483D01*
X199119066Y-78162150D01*
X199119066Y-77865816D01*
X199076733Y-77696483D01*
X198992066Y-77611816D01*
X198907400Y-77569483D01*
X198738066Y-77569483D01*
X198653400Y-77611816D01*
X198568733Y-77696483D01*
X198526400Y-77865816D01*
X198526400Y-78162150D01*
X198568733Y-78331483D01*
X198653400Y-78416150D01*
X198738066Y-78458483D01*
X199373066Y-78458483D02*
X199881066Y-78458483D01*
X199627066Y-77569483D02*
X199627066Y-78458483D01*
X200727733Y-78458483D02*
X201235733Y-78458483D01*
X200981733Y-77569483D02*
X200981733Y-78458483D01*
X201701400Y-78458483D02*
X201870733Y-78458483D01*
X201955400Y-78416150D01*
X202040066Y-78331483D01*
X202082400Y-78162150D01*
X202082400Y-77865816D01*
X202040066Y-77696483D01*
X201955400Y-77611816D01*
X201870733Y-77569483D01*
X201701400Y-77569483D01*
X201616733Y-77611816D01*
X201532066Y-77696483D01*
X201489733Y-77865816D01*
X201489733Y-78162150D01*
X201532066Y-78331483D01*
X201616733Y-78416150D01*
X201701400Y-78458483D01*
X202463400Y-78458483D02*
X202463400Y-77738816D01*
X202505733Y-77654150D01*
X202548066Y-77611816D01*
X202632733Y-77569483D01*
X202802066Y-77569483D01*
X202886733Y-77611816D01*
X202929066Y-77654150D01*
X202971400Y-77738816D01*
X202971400Y-78458483D01*
X203902733Y-77654150D02*
X203860400Y-77611816D01*
X203733400Y-77569483D01*
X203648733Y-77569483D01*
X203521733Y-77611816D01*
X203437066Y-77696483D01*
X203394733Y-77781150D01*
X203352400Y-77950483D01*
X203352400Y-78077483D01*
X203394733Y-78246816D01*
X203437066Y-78331483D01*
X203521733Y-78416150D01*
X203648733Y-78458483D01*
X203733400Y-78458483D01*
X203860400Y-78416150D01*
X203902733Y-78373816D01*
X204283733Y-77569483D02*
X204283733Y-78458483D01*
X204283733Y-78035150D02*
X204791733Y-78035150D01*
X204791733Y-77569483D02*
X204791733Y-78458483D01*
X205215066Y-77654150D02*
X205257400Y-77611816D01*
X205215066Y-77569483D01*
X205172733Y-77611816D01*
X205215066Y-77654150D01*
X205215066Y-77569483D01*
X205215066Y-77908150D02*
X205172733Y-78416150D01*
X205215066Y-78458483D01*
X205257400Y-78416150D01*
X205215066Y-77908150D01*
X205215066Y-78458483D01*
X156256566Y-122104150D02*
X156298900Y-122146483D01*
X156425900Y-122188816D01*
X156510566Y-122188816D01*
X156637566Y-122146483D01*
X156722233Y-122061816D01*
X156764566Y-121977150D01*
X156806900Y-121807816D01*
X156806900Y-121680816D01*
X156764566Y-121511483D01*
X156722233Y-121426816D01*
X156637566Y-121342150D01*
X156510566Y-121299816D01*
X156425900Y-121299816D01*
X156298900Y-121342150D01*
X156256566Y-121384483D01*
X155917900Y-121934816D02*
X155494566Y-121934816D01*
X156002566Y-122188816D02*
X155706233Y-121299816D01*
X155409900Y-122188816D01*
X155113566Y-121299816D02*
X155113566Y-122019483D01*
X155071233Y-122104150D01*
X155028900Y-122146483D01*
X154944233Y-122188816D01*
X154774900Y-122188816D01*
X154690233Y-122146483D01*
X154647900Y-122104150D01*
X154605566Y-122019483D01*
X154605566Y-121299816D01*
X154309233Y-121299816D02*
X153801233Y-121299816D01*
X154055233Y-122188816D02*
X154055233Y-121299816D01*
X153504900Y-122188816D02*
X153504900Y-121299816D01*
X152912233Y-121299816D02*
X152742900Y-121299816D01*
X152658233Y-121342150D01*
X152573566Y-121426816D01*
X152531233Y-121596150D01*
X152531233Y-121892483D01*
X152573566Y-122061816D01*
X152658233Y-122146483D01*
X152742900Y-122188816D01*
X152912233Y-122188816D01*
X152996900Y-122146483D01*
X153081566Y-122061816D01*
X153123900Y-121892483D01*
X153123900Y-121596150D01*
X153081566Y-121426816D01*
X152996900Y-121342150D01*
X152912233Y-121299816D01*
X152150233Y-122188816D02*
X152150233Y-121299816D01*
X151642233Y-122188816D01*
X151642233Y-121299816D01*
X151218900Y-122104150D02*
X151176566Y-122146483D01*
X151218900Y-122188816D01*
X151261233Y-122146483D01*
X151218900Y-122104150D01*
X151218900Y-122188816D01*
X151218900Y-121638483D02*
X151176566Y-121680816D01*
X151218900Y-121723150D01*
X151261233Y-121680816D01*
X151218900Y-121638483D01*
X151218900Y-121723150D01*
X150118233Y-122188816D02*
X150118233Y-121299816D01*
X150118233Y-121723150D02*
X149610233Y-121723150D01*
X149610233Y-122188816D02*
X149610233Y-121299816D01*
X149186899Y-122188816D02*
X149186899Y-121299816D01*
X148297899Y-121342150D02*
X148382566Y-121299816D01*
X148509566Y-121299816D01*
X148636566Y-121342150D01*
X148721233Y-121426816D01*
X148763566Y-121511483D01*
X148805899Y-121680816D01*
X148805899Y-121807816D01*
X148763566Y-121977150D01*
X148721233Y-122061816D01*
X148636566Y-122146483D01*
X148509566Y-122188816D01*
X148424899Y-122188816D01*
X148297899Y-122146483D01*
X148255566Y-122104150D01*
X148255566Y-121807816D01*
X148424899Y-121807816D01*
X147874566Y-122188816D02*
X147874566Y-121299816D01*
X147874566Y-121723150D02*
X147366566Y-121723150D01*
X147366566Y-122188816D02*
X147366566Y-121299816D01*
X146392899Y-121299816D02*
X146096566Y-122188816D01*
X145800233Y-121299816D01*
X145334566Y-121299816D02*
X145165233Y-121299816D01*
X145080566Y-121342150D01*
X144995899Y-121426816D01*
X144953566Y-121596150D01*
X144953566Y-121892483D01*
X144995899Y-122061816D01*
X145080566Y-122146483D01*
X145165233Y-122188816D01*
X145334566Y-122188816D01*
X145419233Y-122146483D01*
X145503899Y-122061816D01*
X145546233Y-121892483D01*
X145546233Y-121596150D01*
X145503899Y-121426816D01*
X145419233Y-121342150D01*
X145334566Y-121299816D01*
X144149233Y-122188816D02*
X144572566Y-122188816D01*
X144572566Y-121299816D01*
X143979899Y-121299816D02*
X143471899Y-121299816D01*
X143725899Y-122188816D02*
X143725899Y-121299816D01*
X143217899Y-121934816D02*
X142794566Y-121934816D01*
X143302566Y-122188816D02*
X143006233Y-121299816D01*
X142709899Y-122188816D01*
X141947899Y-121342150D02*
X142032566Y-121299816D01*
X142159566Y-121299816D01*
X142286566Y-121342150D01*
X142371233Y-121426816D01*
X142413566Y-121511483D01*
X142455899Y-121680816D01*
X142455899Y-121807816D01*
X142413566Y-121977150D01*
X142371233Y-122061816D01*
X142286566Y-122146483D01*
X142159566Y-122188816D01*
X142074899Y-122188816D01*
X141947899Y-122146483D01*
X141905566Y-122104150D01*
X141905566Y-121807816D01*
X142074899Y-121807816D01*
X141524566Y-121723150D02*
X141228233Y-121723150D01*
X141101233Y-122188816D02*
X141524566Y-122188816D01*
X141524566Y-121299816D01*
X141101233Y-121299816D01*
X140720233Y-122104150D02*
X140677899Y-122146483D01*
X140720233Y-122188816D01*
X140762566Y-122146483D01*
X140720233Y-122104150D01*
X140720233Y-122188816D01*
X140720233Y-121850150D02*
X140762566Y-121342150D01*
X140720233Y-121299816D01*
X140677899Y-121342150D01*
X140720233Y-121850150D01*
X140720233Y-121299816D01*
X153780066Y-123674716D02*
X153780066Y-122785716D01*
X153568400Y-122785716D01*
X153441400Y-122828050D01*
X153356733Y-122912716D01*
X153314400Y-122997383D01*
X153272066Y-123166716D01*
X153272066Y-123293716D01*
X153314400Y-123463050D01*
X153356733Y-123547716D01*
X153441400Y-123632383D01*
X153568400Y-123674716D01*
X153780066Y-123674716D01*
X152721733Y-122785716D02*
X152552400Y-122785716D01*
X152467733Y-122828050D01*
X152383066Y-122912716D01*
X152340733Y-123082050D01*
X152340733Y-123378383D01*
X152383066Y-123547716D01*
X152467733Y-123632383D01*
X152552400Y-123674716D01*
X152721733Y-123674716D01*
X152806400Y-123632383D01*
X152891066Y-123547716D01*
X152933400Y-123378383D01*
X152933400Y-123082050D01*
X152891066Y-122912716D01*
X152806400Y-122828050D01*
X152721733Y-122785716D01*
X151282400Y-123674716D02*
X151282400Y-122785716D01*
X150774400Y-123674716D01*
X150774400Y-122785716D01*
X150181733Y-122785716D02*
X150012400Y-122785716D01*
X149927733Y-122828050D01*
X149843066Y-122912716D01*
X149800733Y-123082050D01*
X149800733Y-123378383D01*
X149843066Y-123547716D01*
X149927733Y-123632383D01*
X150012400Y-123674716D01*
X150181733Y-123674716D01*
X150266400Y-123632383D01*
X150351066Y-123547716D01*
X150393400Y-123378383D01*
X150393400Y-123082050D01*
X150351066Y-122912716D01*
X150266400Y-122828050D01*
X150181733Y-122785716D01*
X149546733Y-122785716D02*
X149038733Y-122785716D01*
X149292733Y-123674716D02*
X149292733Y-122785716D01*
X148192066Y-122785716D02*
X147684066Y-122785716D01*
X147938066Y-123674716D02*
X147938066Y-122785716D01*
X147218400Y-122785716D02*
X147049066Y-122785716D01*
X146964400Y-122828050D01*
X146879733Y-122912716D01*
X146837400Y-123082050D01*
X146837400Y-123378383D01*
X146879733Y-123547716D01*
X146964400Y-123632383D01*
X147049066Y-123674716D01*
X147218400Y-123674716D01*
X147303066Y-123632383D01*
X147387733Y-123547716D01*
X147430066Y-123378383D01*
X147430066Y-123082050D01*
X147387733Y-122912716D01*
X147303066Y-122828050D01*
X147218400Y-122785716D01*
X146456400Y-122785716D02*
X146456400Y-123505383D01*
X146414066Y-123590050D01*
X146371733Y-123632383D01*
X146287066Y-123674716D01*
X146117733Y-123674716D01*
X146033066Y-123632383D01*
X145990733Y-123590050D01*
X145948400Y-123505383D01*
X145948400Y-122785716D01*
X145017066Y-123590050D02*
X145059400Y-123632383D01*
X145186400Y-123674716D01*
X145271066Y-123674716D01*
X145398066Y-123632383D01*
X145482733Y-123547716D01*
X145525066Y-123463050D01*
X145567400Y-123293716D01*
X145567400Y-123166716D01*
X145525066Y-122997383D01*
X145482733Y-122912716D01*
X145398066Y-122828050D01*
X145271066Y-122785716D01*
X145186400Y-122785716D01*
X145059400Y-122828050D01*
X145017066Y-122870383D01*
X144636066Y-123674716D02*
X144636066Y-122785716D01*
X144636066Y-123209050D02*
X144128066Y-123209050D01*
X144128066Y-123674716D02*
X144128066Y-122785716D01*
X143704733Y-123590050D02*
X143662400Y-123632383D01*
X143704733Y-123674716D01*
X143747066Y-123632383D01*
X143704733Y-123590050D01*
X143704733Y-123674716D01*
X143704733Y-123336050D02*
X143747066Y-122828050D01*
X143704733Y-122785716D01*
X143662400Y-122828050D01*
X143704733Y-123336050D01*
X143704733Y-122785716D01*
D11*
X161728114Y-113314219D02*
X161156685Y-113314219D01*
X161442400Y-113314219D02*
X161442400Y-114314219D01*
X161347161Y-114171361D01*
X161251923Y-114076123D01*
X161156685Y-114028504D01*
X92744548Y-110577687D02*
X92340487Y-110981748D01*
X92542518Y-110779718D02*
X93249625Y-111486825D01*
X93081266Y-111453153D01*
X92946579Y-111453153D01*
X92845564Y-111486825D01*
X195614548Y-110577687D02*
X195210487Y-110981748D01*
X195412518Y-110779718D02*
X196119625Y-111486825D01*
X195951266Y-111453153D01*
X195816579Y-111453153D01*
X195715564Y-111486825D01*
D12*
X183336400Y-119608600D02*
X178637400Y-112623600D01*
X173938400Y-119608600D02*
X183336400Y-119608600D01*
X178637400Y-112623600D02*
X173938400Y-119608600D01*
X179135240Y-119014240D02*
X179236840Y-118115080D01*
X178337680Y-116215160D02*
X179135240Y-119014240D01*
X179536560Y-117015260D02*
X178337680Y-116215160D01*
X178736460Y-114015520D02*
X179536560Y-117015260D01*
X179135240Y-119014240D02*
X178535800Y-118315740D01*
X179536560Y-117015260D02*
X178236080Y-114213640D01*
X177936360Y-115915440D02*
X178535800Y-116314220D01*
X179135240Y-119014240D02*
X177936360Y-115915440D01*
D13*
X141062400Y-119354600D02*
X141062400Y-120684600D01*
X141062400Y-120684600D02*
X142392400Y-120684600D01*
X143662400Y-120684600D02*
X156422400Y-120684600D01*
X156422400Y-118024600D02*
X156422400Y-120684600D01*
X143662400Y-118024600D02*
X156422400Y-118024600D01*
X143662400Y-118024600D02*
X143662400Y-120684600D01*
X125572400Y-90314600D02*
X125572400Y-88984600D01*
X125572400Y-88984600D02*
X124242400Y-88984600D01*
X122972400Y-88984600D02*
X120372400Y-88984600D01*
X120372400Y-91644600D02*
X120372400Y-88984600D01*
X122972400Y-91644600D02*
X120372400Y-91644600D01*
X122972400Y-91644600D02*
X122972400Y-88984600D01*
X125572400Y-102314600D02*
X125572400Y-100984600D01*
X125572400Y-100984600D02*
X124242400Y-100984600D01*
X122972400Y-100984600D02*
X120372400Y-100984600D01*
X120372400Y-103644600D02*
X120372400Y-100984600D01*
X122972400Y-103644600D02*
X120372400Y-103644600D01*
X122972400Y-103644600D02*
X122972400Y-100984600D01*
X177072400Y-90314600D02*
X177072400Y-88984600D01*
X177072400Y-88984600D02*
X175742400Y-88984600D01*
X174472400Y-88984600D02*
X171872400Y-88984600D01*
X171872400Y-91644600D02*
X171872400Y-88984600D01*
X174472400Y-91644600D02*
X171872400Y-91644600D01*
X174472400Y-91644600D02*
X174472400Y-88984600D01*
X177282000Y-102314600D02*
X177282000Y-100984600D01*
X177282000Y-100984600D02*
X175952000Y-100984600D01*
X174682000Y-100984600D02*
X172082000Y-100984600D01*
X172082000Y-103644600D02*
X172082000Y-100984600D01*
X174682000Y-103644600D02*
X172082000Y-103644600D01*
X174682000Y-103644600D02*
X174682000Y-100984600D01*
X134395173Y-116375605D02*
X134170397Y-116600381D01*
X134395173Y-114713595D02*
X134395173Y-116375605D01*
X134170397Y-114488819D02*
X134395173Y-114713595D01*
X111458622Y-115544600D02*
X112514403Y-114488819D01*
X112514403Y-116600381D02*
X111458622Y-115544600D01*
X123342400Y-127428378D02*
X124398181Y-126372597D01*
X122286619Y-126372597D02*
X123342400Y-127428378D01*
X123342400Y-103660822D02*
X122286619Y-104716603D01*
X124398181Y-104716603D02*
X123342400Y-103660822D01*
X156422400Y-83219600D02*
X156422400Y-81889600D01*
X155092400Y-83219600D02*
X156422400Y-83219600D01*
X156422400Y-80619600D02*
X156422400Y-78019600D01*
X153822400Y-80619600D02*
X156422400Y-80619600D01*
X153822400Y-83219600D02*
X153822400Y-80619600D01*
X156422400Y-78019600D02*
X141062400Y-78019600D01*
X153822400Y-83219600D02*
X141062400Y-83219600D01*
X141062400Y-83219600D02*
X141062400Y-78019600D01*
X141037000Y-116840000D02*
X141037000Y-118170000D01*
X141037000Y-118170000D02*
X142367000Y-118170000D01*
X141037000Y-115570000D02*
X143637000Y-115570000D01*
X143637000Y-115570000D02*
X143637000Y-118170000D01*
X143637000Y-118170000D02*
X156397000Y-118170000D01*
X156397000Y-112970000D02*
X156397000Y-118170000D01*
X141037000Y-112970000D02*
X156397000Y-112970000D01*
X141037000Y-112970000D02*
X141037000Y-115570000D01*
X201008405Y-104491827D02*
X201233181Y-104716603D01*
X199346395Y-104491827D02*
X201008405Y-104491827D01*
X199121619Y-104716603D02*
X199346395Y-104491827D01*
X200177400Y-127428378D02*
X199121619Y-126372597D01*
X201233181Y-126372597D02*
X200177400Y-127428378D01*
X212061178Y-115544600D02*
X211005397Y-114488819D01*
X211005397Y-116600381D02*
X212061178Y-115544600D01*
X188293622Y-115544600D02*
X189349403Y-116600381D01*
X189349403Y-114488819D02*
X188293622Y-115544600D01*
X86516978Y-102284600D02*
X85999822Y-102284600D01*
X86516978Y-100864600D02*
X85999822Y-100864600D01*
X108487978Y-102284600D02*
X107970822Y-102284600D01*
X108487978Y-100864600D02*
X107970822Y-100864600D01*
X137434822Y-100864600D02*
X137951978Y-100864600D01*
X137434822Y-102284600D02*
X137951978Y-102284600D01*
X159532822Y-100864600D02*
X160049978Y-100864600D01*
X159532822Y-102284600D02*
X160049978Y-102284600D01*
X188996822Y-100864600D02*
X189513978Y-100864600D01*
X188996822Y-102284600D02*
X189513978Y-102284600D01*
X210967822Y-100864600D02*
X211484978Y-100864600D01*
X210967822Y-102284600D02*
X211484978Y-102284600D01*
X118470344Y-118436757D02*
X120450243Y-120416656D01*
X120450243Y-120416656D02*
X121864456Y-119002443D01*
X121864456Y-119002443D02*
X119884557Y-117022544D01*
X119884557Y-117022544D02*
X118470344Y-118436757D01*
X114771604Y-121209712D02*
X115137288Y-121575396D01*
X113767512Y-122213804D02*
X114133196Y-122579488D01*
X155802400Y-110841022D02*
X155802400Y-111358178D01*
X154382400Y-110841022D02*
X154382400Y-111358178D01*
X151552400Y-108087600D02*
X151552400Y-111987600D01*
X153552400Y-108087600D02*
X153552400Y-111987600D01*
X151552400Y-108087600D02*
X153552400Y-108087600D01*
X98138405Y-104491827D02*
X98363181Y-104716603D01*
X96476395Y-104491827D02*
X98138405Y-104491827D01*
X96251619Y-104716603D02*
X96476395Y-104491827D01*
X97307400Y-127428378D02*
X96251619Y-126372597D01*
X98363181Y-126372597D02*
X97307400Y-127428378D01*
X109191178Y-115544600D02*
X108135397Y-114488819D01*
X108135397Y-116600381D02*
X109191178Y-115544600D01*
X85423622Y-115544600D02*
X86479403Y-116600381D01*
X86479403Y-114488819D02*
X85423622Y-115544600D01*
X158192400Y-111358178D02*
X158192400Y-110841022D01*
X159612400Y-111358178D02*
X159612400Y-110841022D01*
X159612400Y-119731022D02*
X159612400Y-120248178D01*
X158192400Y-119731022D02*
X158192400Y-120248178D01*
X205842512Y-124115396D02*
X206208196Y-123749712D01*
X206846604Y-125119488D02*
X207212288Y-124753804D01*
X102972512Y-124115396D02*
X103338196Y-123749712D01*
X103976604Y-125119488D02*
X104342288Y-124753804D01*
D11*
X160887400Y-112769600D02*
X160887400Y-111244600D01*
X171162400Y-112769600D02*
X171162400Y-118319600D01*
X160612400Y-112769600D02*
X160612400Y-118319600D01*
X171162400Y-112769600D02*
X170807400Y-112769600D01*
X171162400Y-118319600D02*
X170807400Y-118319600D01*
X160612400Y-118319600D02*
X160967400Y-118319600D01*
X160612400Y-112769600D02*
X160887400Y-112769600D01*
D13*
X122982400Y-81856664D02*
X122982400Y-80652536D01*
X121162400Y-81856664D02*
X121162400Y-80652536D01*
X171962400Y-81856664D02*
X171962400Y-80652536D01*
X173782400Y-81856664D02*
X173782400Y-80652536D01*
X117902400Y-81856664D02*
X117902400Y-80652536D01*
X116082400Y-81856664D02*
X116082400Y-80652536D01*
X120442400Y-81856664D02*
X120442400Y-80652536D01*
X118622400Y-81856664D02*
X118622400Y-80652536D01*
X128062400Y-81856664D02*
X128062400Y-80652536D01*
X126242400Y-81856664D02*
X126242400Y-80652536D01*
X174502400Y-81856664D02*
X174502400Y-80652536D01*
X176322400Y-81856664D02*
X176322400Y-80652536D01*
X125522400Y-81856664D02*
X125522400Y-80652536D01*
X123702400Y-81856664D02*
X123702400Y-80652536D01*
X169422400Y-81856664D02*
X169422400Y-80652536D01*
X171242400Y-81856664D02*
X171242400Y-80652536D01*
X177042400Y-81856664D02*
X177042400Y-80652536D01*
X178862400Y-81856664D02*
X178862400Y-80652536D01*
X179582400Y-81856664D02*
X179582400Y-80652536D01*
X181402400Y-81856664D02*
X181402400Y-80652536D01*
D11*
X139074780Y-119021266D02*
X139789066Y-119021266D01*
X139931923Y-118973647D01*
X140027161Y-118878409D01*
X140074780Y-118735552D01*
X140074780Y-118640314D01*
X139170019Y-119449838D02*
X139122400Y-119497457D01*
X139074780Y-119592695D01*
X139074780Y-119830790D01*
X139122400Y-119926028D01*
X139170019Y-119973647D01*
X139265257Y-120021266D01*
X139360495Y-120021266D01*
X139503352Y-119973647D01*
X140074780Y-119402219D01*
X140074780Y-120021266D01*
X127464780Y-89100314D02*
X126464780Y-89100314D01*
X127464780Y-89671742D01*
X126464780Y-89671742D01*
X126940971Y-90147933D02*
X126940971Y-90481266D01*
X127464780Y-90624123D02*
X127464780Y-90147933D01*
X126464780Y-90147933D01*
X126464780Y-90624123D01*
X126798114Y-91481266D02*
X127464780Y-91481266D01*
X126417161Y-91243171D02*
X127131447Y-91005076D01*
X127131447Y-91624123D01*
X127464780Y-101100314D02*
X126464780Y-101100314D01*
X127464780Y-101671742D01*
X126464780Y-101671742D01*
X126940971Y-102147933D02*
X126940971Y-102481266D01*
X127464780Y-102624123D02*
X127464780Y-102147933D01*
X126464780Y-102147933D01*
X126464780Y-102624123D01*
X126464780Y-102957457D02*
X126464780Y-103576504D01*
X126845733Y-103243171D01*
X126845733Y-103386028D01*
X126893352Y-103481266D01*
X126940971Y-103528885D01*
X127036209Y-103576504D01*
X127274304Y-103576504D01*
X127369542Y-103528885D01*
X127417161Y-103481266D01*
X127464780Y-103386028D01*
X127464780Y-103100314D01*
X127417161Y-103005076D01*
X127369542Y-102957457D01*
X178964780Y-89100314D02*
X177964780Y-89100314D01*
X178964780Y-89671742D01*
X177964780Y-89671742D01*
X178440971Y-90147933D02*
X178440971Y-90481266D01*
X178964780Y-90624123D02*
X178964780Y-90147933D01*
X177964780Y-90147933D01*
X177964780Y-90624123D01*
X178060019Y-91005076D02*
X178012400Y-91052695D01*
X177964780Y-91147933D01*
X177964780Y-91386028D01*
X178012400Y-91481266D01*
X178060019Y-91528885D01*
X178155257Y-91576504D01*
X178250495Y-91576504D01*
X178393352Y-91528885D01*
X178964780Y-90957457D01*
X178964780Y-91576504D01*
X179174380Y-101100314D02*
X178174380Y-101100314D01*
X179174380Y-101671742D01*
X178174380Y-101671742D01*
X178650571Y-102147933D02*
X178650571Y-102481266D01*
X179174380Y-102624123D02*
X179174380Y-102147933D01*
X178174380Y-102147933D01*
X178174380Y-102624123D01*
X179174380Y-103576504D02*
X179174380Y-103005076D01*
X179174380Y-103290790D02*
X178174380Y-103290790D01*
X178317238Y-103195552D01*
X178412476Y-103100314D01*
X178460095Y-103005076D01*
X131452578Y-108511917D02*
X130880158Y-109084337D01*
X130779143Y-109118009D01*
X130711799Y-109118009D01*
X130610784Y-109084337D01*
X130476097Y-108949650D01*
X130442425Y-108848635D01*
X130442425Y-108781291D01*
X130476097Y-108680276D01*
X131048517Y-108107856D01*
X130173051Y-107703795D02*
X129701647Y-108175200D01*
X130610784Y-107602780D02*
X130274066Y-108276215D01*
X129836334Y-107838482D01*
X156874780Y-80286266D02*
X157589066Y-80286266D01*
X157731923Y-80238647D01*
X157827161Y-80143409D01*
X157874780Y-80000552D01*
X157874780Y-79905314D01*
X156874780Y-80667219D02*
X156874780Y-81286266D01*
X157255733Y-80952933D01*
X157255733Y-81095790D01*
X157303352Y-81191028D01*
X157350971Y-81238647D01*
X157446209Y-81286266D01*
X157684304Y-81286266D01*
X157779542Y-81238647D01*
X157827161Y-81191028D01*
X157874780Y-81095790D01*
X157874780Y-80810076D01*
X157827161Y-80714838D01*
X157779542Y-80667219D01*
X139049380Y-115236666D02*
X139763666Y-115236666D01*
X139906523Y-115189047D01*
X140001761Y-115093809D01*
X140049380Y-114950952D01*
X140049380Y-114855714D01*
X140049380Y-116236666D02*
X140049380Y-115665238D01*
X140049380Y-115950952D02*
X139049380Y-115950952D01*
X139192238Y-115855714D01*
X139287476Y-115760476D01*
X139335095Y-115665238D01*
X208287578Y-108511917D02*
X207715158Y-109084337D01*
X207614143Y-109118009D01*
X207546799Y-109118009D01*
X207445784Y-109084337D01*
X207311097Y-108949650D01*
X207277425Y-108848635D01*
X207277425Y-108781291D01*
X207311097Y-108680276D01*
X207883517Y-108107856D01*
X207513127Y-107872154D02*
X207513127Y-107804811D01*
X207479456Y-107703795D01*
X207311097Y-107535437D01*
X207210082Y-107501765D01*
X207142738Y-107501765D01*
X207041723Y-107535437D01*
X206974379Y-107602780D01*
X206907036Y-107737467D01*
X206907036Y-108545589D01*
X206469303Y-108107856D01*
X86901257Y-100502980D02*
X87234590Y-100026790D01*
X87472685Y-100502980D02*
X87472685Y-99502980D01*
X87091733Y-99502980D01*
X86996495Y-99550600D01*
X86948876Y-99598219D01*
X86901257Y-99693457D01*
X86901257Y-99836314D01*
X86948876Y-99931552D01*
X86996495Y-99979171D01*
X87091733Y-100026790D01*
X87472685Y-100026790D01*
X85948876Y-100502980D02*
X86520304Y-100502980D01*
X86234590Y-100502980D02*
X86234590Y-99502980D01*
X86329828Y-99645838D01*
X86425066Y-99741076D01*
X86520304Y-99788695D01*
X85615542Y-99502980D02*
X84948876Y-99502980D01*
X85377447Y-100502980D01*
X108872257Y-100502980D02*
X109205590Y-100026790D01*
X109443685Y-100502980D02*
X109443685Y-99502980D01*
X109062733Y-99502980D01*
X108967495Y-99550600D01*
X108919876Y-99598219D01*
X108872257Y-99693457D01*
X108872257Y-99836314D01*
X108919876Y-99931552D01*
X108967495Y-99979171D01*
X109062733Y-100026790D01*
X109443685Y-100026790D01*
X107919876Y-100502980D02*
X108491304Y-100502980D01*
X108205590Y-100502980D02*
X108205590Y-99502980D01*
X108300828Y-99645838D01*
X108396066Y-99741076D01*
X108491304Y-99788695D01*
X107062733Y-99502980D02*
X107253209Y-99502980D01*
X107348447Y-99550600D01*
X107396066Y-99598219D01*
X107491304Y-99741076D01*
X107538923Y-99931552D01*
X107538923Y-100312504D01*
X107491304Y-100407742D01*
X107443685Y-100455361D01*
X107348447Y-100502980D01*
X107157971Y-100502980D01*
X107062733Y-100455361D01*
X107015114Y-100407742D01*
X106967495Y-100312504D01*
X106967495Y-100074409D01*
X107015114Y-99979171D01*
X107062733Y-99931552D01*
X107157971Y-99883933D01*
X107348447Y-99883933D01*
X107443685Y-99931552D01*
X107491304Y-99979171D01*
X107538923Y-100074409D01*
X138336257Y-100502980D02*
X138669590Y-100026790D01*
X138907685Y-100502980D02*
X138907685Y-99502980D01*
X138526733Y-99502980D01*
X138431495Y-99550600D01*
X138383876Y-99598219D01*
X138336257Y-99693457D01*
X138336257Y-99836314D01*
X138383876Y-99931552D01*
X138431495Y-99979171D01*
X138526733Y-100026790D01*
X138907685Y-100026790D01*
X137383876Y-100502980D02*
X137955304Y-100502980D01*
X137669590Y-100502980D02*
X137669590Y-99502980D01*
X137764828Y-99645838D01*
X137860066Y-99741076D01*
X137955304Y-99788695D01*
X136479114Y-99502980D02*
X136955304Y-99502980D01*
X137002923Y-99979171D01*
X136955304Y-99931552D01*
X136860066Y-99883933D01*
X136621971Y-99883933D01*
X136526733Y-99931552D01*
X136479114Y-99979171D01*
X136431495Y-100074409D01*
X136431495Y-100312504D01*
X136479114Y-100407742D01*
X136526733Y-100455361D01*
X136621971Y-100502980D01*
X136860066Y-100502980D01*
X136955304Y-100455361D01*
X137002923Y-100407742D01*
X160434257Y-100502980D02*
X160767590Y-100026790D01*
X161005685Y-100502980D02*
X161005685Y-99502980D01*
X160624733Y-99502980D01*
X160529495Y-99550600D01*
X160481876Y-99598219D01*
X160434257Y-99693457D01*
X160434257Y-99836314D01*
X160481876Y-99931552D01*
X160529495Y-99979171D01*
X160624733Y-100026790D01*
X161005685Y-100026790D01*
X159481876Y-100502980D02*
X160053304Y-100502980D01*
X159767590Y-100502980D02*
X159767590Y-99502980D01*
X159862828Y-99645838D01*
X159958066Y-99741076D01*
X160053304Y-99788695D01*
X158624733Y-99836314D02*
X158624733Y-100502980D01*
X158862828Y-99455361D02*
X159100923Y-100169647D01*
X158481876Y-100169647D01*
X189898257Y-100502980D02*
X190231590Y-100026790D01*
X190469685Y-100502980D02*
X190469685Y-99502980D01*
X190088733Y-99502980D01*
X189993495Y-99550600D01*
X189945876Y-99598219D01*
X189898257Y-99693457D01*
X189898257Y-99836314D01*
X189945876Y-99931552D01*
X189993495Y-99979171D01*
X190088733Y-100026790D01*
X190469685Y-100026790D01*
X188945876Y-100502980D02*
X189517304Y-100502980D01*
X189231590Y-100502980D02*
X189231590Y-99502980D01*
X189326828Y-99645838D01*
X189422066Y-99741076D01*
X189517304Y-99788695D01*
X188612542Y-99502980D02*
X187993495Y-99502980D01*
X188326828Y-99883933D01*
X188183971Y-99883933D01*
X188088733Y-99931552D01*
X188041114Y-99979171D01*
X187993495Y-100074409D01*
X187993495Y-100312504D01*
X188041114Y-100407742D01*
X188088733Y-100455361D01*
X188183971Y-100502980D01*
X188469685Y-100502980D01*
X188564923Y-100455361D01*
X188612542Y-100407742D01*
X211869257Y-100502980D02*
X212202590Y-100026790D01*
X212440685Y-100502980D02*
X212440685Y-99502980D01*
X212059733Y-99502980D01*
X211964495Y-99550600D01*
X211916876Y-99598219D01*
X211869257Y-99693457D01*
X211869257Y-99836314D01*
X211916876Y-99931552D01*
X211964495Y-99979171D01*
X212059733Y-100026790D01*
X212440685Y-100026790D01*
X210916876Y-100502980D02*
X211488304Y-100502980D01*
X211202590Y-100502980D02*
X211202590Y-99502980D01*
X211297828Y-99645838D01*
X211393066Y-99741076D01*
X211488304Y-99788695D01*
X210535923Y-99598219D02*
X210488304Y-99550600D01*
X210393066Y-99502980D01*
X210154971Y-99502980D01*
X210059733Y-99550600D01*
X210012114Y-99598219D01*
X209964495Y-99693457D01*
X209964495Y-99788695D01*
X210012114Y-99931552D01*
X210583542Y-100502980D01*
X209964495Y-100502980D01*
X119078421Y-116856171D02*
X118573345Y-117361247D01*
X118506002Y-117495934D01*
X118506002Y-117630621D01*
X118573345Y-117765308D01*
X118640689Y-117832652D01*
X118034597Y-117226560D02*
X118741704Y-116519453D01*
X118472330Y-116250079D01*
X118371315Y-116216408D01*
X118303971Y-116216408D01*
X118202956Y-116250079D01*
X118101941Y-116351095D01*
X118068269Y-116452110D01*
X118068269Y-116519453D01*
X118101941Y-116620469D01*
X118371315Y-116889843D01*
X116957101Y-116149064D02*
X117361162Y-116553125D01*
X117159131Y-116351095D02*
X117866238Y-115643988D01*
X117832566Y-115812347D01*
X117832566Y-115947034D01*
X117866238Y-116048049D01*
X113150986Y-123431715D02*
X113150986Y-123499058D01*
X113218330Y-123633745D01*
X113285674Y-123701089D01*
X113420361Y-123768432D01*
X113555048Y-123768432D01*
X113656063Y-123734761D01*
X113824422Y-123633745D01*
X113925437Y-123532730D01*
X114026452Y-123364371D01*
X114060124Y-123263356D01*
X114060124Y-123128669D01*
X113992780Y-122993982D01*
X113925437Y-122926638D01*
X113790750Y-122859295D01*
X113723406Y-122859295D01*
X113150986Y-122152188D02*
X113487704Y-122488906D01*
X113184658Y-122859295D01*
X113184658Y-122791951D01*
X113150986Y-122690936D01*
X112982628Y-122522577D01*
X112881612Y-122488906D01*
X112814269Y-122488906D01*
X112713254Y-122522577D01*
X112544895Y-122690936D01*
X112511223Y-122791951D01*
X112511223Y-122859295D01*
X112544895Y-122960310D01*
X112713254Y-123128669D01*
X112814269Y-123162341D01*
X112881612Y-123162341D01*
X157322780Y-110456742D02*
X156846590Y-110123409D01*
X157322780Y-109885314D02*
X156322780Y-109885314D01*
X156322780Y-110266266D01*
X156370400Y-110361504D01*
X156418019Y-110409123D01*
X156513257Y-110456742D01*
X156656114Y-110456742D01*
X156751352Y-110409123D01*
X156798971Y-110361504D01*
X156846590Y-110266266D01*
X156846590Y-109885314D01*
X157322780Y-111409123D02*
X157322780Y-110837695D01*
X157322780Y-111123409D02*
X156322780Y-111123409D01*
X156465638Y-111028171D01*
X156560876Y-110932933D01*
X156608495Y-110837695D01*
X157322780Y-112361504D02*
X157322780Y-111790076D01*
X157322780Y-112075790D02*
X156322780Y-112075790D01*
X156465638Y-111980552D01*
X156560876Y-111885314D01*
X156608495Y-111790076D01*
X151226780Y-109599504D02*
X150226780Y-109599504D01*
X150226780Y-109837600D01*
X150274400Y-109980457D01*
X150369638Y-110075695D01*
X150464876Y-110123314D01*
X150655352Y-110170933D01*
X150798209Y-110170933D01*
X150988685Y-110123314D01*
X151083923Y-110075695D01*
X151179161Y-109980457D01*
X151226780Y-109837600D01*
X151226780Y-109599504D01*
X151226780Y-111123314D02*
X151226780Y-110551885D01*
X151226780Y-110837600D02*
X150226780Y-110837600D01*
X150369638Y-110742361D01*
X150464876Y-110647123D01*
X150512495Y-110551885D01*
X105417578Y-108511917D02*
X104845158Y-109084337D01*
X104744143Y-109118009D01*
X104676799Y-109118009D01*
X104575784Y-109084337D01*
X104441097Y-108949650D01*
X104407425Y-108848635D01*
X104407425Y-108781291D01*
X104441097Y-108680276D01*
X105013517Y-108107856D01*
X104744143Y-107838482D02*
X104306410Y-107400750D01*
X104272738Y-107905826D01*
X104171723Y-107804811D01*
X104070708Y-107771139D01*
X104003364Y-107771139D01*
X103902349Y-107804811D01*
X103733990Y-107973169D01*
X103700318Y-108074185D01*
X103700318Y-108141528D01*
X103733990Y-108242543D01*
X103936021Y-108444574D01*
X104037036Y-108478246D01*
X104104379Y-108478246D01*
X159259542Y-113599933D02*
X159307161Y-113552314D01*
X159354780Y-113409457D01*
X159354780Y-113314219D01*
X159307161Y-113171361D01*
X159211923Y-113076123D01*
X159116685Y-113028504D01*
X158926209Y-112980885D01*
X158783352Y-112980885D01*
X158592876Y-113028504D01*
X158497638Y-113076123D01*
X158402400Y-113171361D01*
X158354780Y-113314219D01*
X158354780Y-113409457D01*
X158402400Y-113552314D01*
X158450019Y-113599933D01*
X159354780Y-114552314D02*
X159354780Y-113980885D01*
X159354780Y-114266600D02*
X158354780Y-114266600D01*
X158497638Y-114171361D01*
X158592876Y-114076123D01*
X158640495Y-113980885D01*
X159259542Y-117155933D02*
X159307161Y-117108314D01*
X159354780Y-116965457D01*
X159354780Y-116870219D01*
X159307161Y-116727361D01*
X159211923Y-116632123D01*
X159116685Y-116584504D01*
X158926209Y-116536885D01*
X158783352Y-116536885D01*
X158592876Y-116584504D01*
X158497638Y-116632123D01*
X158402400Y-116727361D01*
X158354780Y-116870219D01*
X158354780Y-116965457D01*
X158402400Y-117108314D01*
X158450019Y-117155933D01*
X158450019Y-117536885D02*
X158402400Y-117584504D01*
X158354780Y-117679742D01*
X158354780Y-117917838D01*
X158402400Y-118013076D01*
X158450019Y-118060695D01*
X158545257Y-118108314D01*
X158640495Y-118108314D01*
X158783352Y-118060695D01*
X159354780Y-117489266D01*
X159354780Y-118108314D01*
X208064515Y-125736013D02*
X208131858Y-125736013D01*
X208266545Y-125668669D01*
X208333889Y-125601326D01*
X208401232Y-125466638D01*
X208401232Y-125331951D01*
X208367561Y-125230936D01*
X208266545Y-125062577D01*
X208165530Y-124961562D01*
X207997171Y-124860547D01*
X207896156Y-124826875D01*
X207761469Y-124826875D01*
X207626782Y-124894219D01*
X207559438Y-124961562D01*
X207492095Y-125096249D01*
X207492095Y-125163593D01*
X207189049Y-125331951D02*
X206751316Y-125769684D01*
X207256393Y-125803356D01*
X207155377Y-125904371D01*
X207121706Y-126005387D01*
X207121706Y-126072730D01*
X207155377Y-126173745D01*
X207323736Y-126342104D01*
X207424751Y-126375776D01*
X207492095Y-126375776D01*
X207593110Y-126342104D01*
X207795141Y-126140074D01*
X207828813Y-126039058D01*
X207828813Y-125971715D01*
X105194515Y-125736013D02*
X105261858Y-125736013D01*
X105396545Y-125668669D01*
X105463889Y-125601326D01*
X105531232Y-125466638D01*
X105531232Y-125331951D01*
X105497561Y-125230936D01*
X105396545Y-125062577D01*
X105295530Y-124961562D01*
X105127171Y-124860547D01*
X105026156Y-124826875D01*
X104891469Y-124826875D01*
X104756782Y-124894219D01*
X104689438Y-124961562D01*
X104622095Y-125096249D01*
X104622095Y-125163593D01*
X104184362Y-125938043D02*
X104655767Y-126409448D01*
X104083347Y-125500310D02*
X104756782Y-125837028D01*
X104319049Y-126274761D01*
X171715180Y-114782695D02*
X172524704Y-114782695D01*
X172619942Y-114830314D01*
X172667561Y-114877933D01*
X172715180Y-114973171D01*
X172715180Y-115163647D01*
X172667561Y-115258885D01*
X172619942Y-115306504D01*
X172524704Y-115354123D01*
X171715180Y-115354123D01*
X172715180Y-116354123D02*
X172715180Y-115782695D01*
X172715180Y-116068409D02*
X171715180Y-116068409D01*
X171858038Y-115973171D01*
X171953276Y-115877933D01*
X172000895Y-115782695D01*
X122524780Y-84294742D02*
X122048590Y-83961409D01*
X122524780Y-83723314D02*
X121524780Y-83723314D01*
X121524780Y-84104266D01*
X121572400Y-84199504D01*
X121620019Y-84247123D01*
X121715257Y-84294742D01*
X121858114Y-84294742D01*
X121953352Y-84247123D01*
X122000971Y-84199504D01*
X122048590Y-84104266D01*
X122048590Y-83723314D01*
X122524780Y-85247123D02*
X122524780Y-84675695D01*
X122524780Y-84961409D02*
X121524780Y-84961409D01*
X121667638Y-84866171D01*
X121762876Y-84770933D01*
X121810495Y-84675695D01*
X121524780Y-85866171D02*
X121524780Y-85961409D01*
X121572400Y-86056647D01*
X121620019Y-86104266D01*
X121715257Y-86151885D01*
X121905733Y-86199504D01*
X122143828Y-86199504D01*
X122334304Y-86151885D01*
X122429542Y-86104266D01*
X122477161Y-86056647D01*
X122524780Y-85961409D01*
X122524780Y-85866171D01*
X122477161Y-85770933D01*
X122429542Y-85723314D01*
X122334304Y-85675695D01*
X122143828Y-85628076D01*
X121905733Y-85628076D01*
X121715257Y-85675695D01*
X121620019Y-85723314D01*
X121572400Y-85770933D01*
X121524780Y-85866171D01*
X173324780Y-84389933D02*
X172848590Y-84056600D01*
X173324780Y-83818504D02*
X172324780Y-83818504D01*
X172324780Y-84199457D01*
X172372400Y-84294695D01*
X172420019Y-84342314D01*
X172515257Y-84389933D01*
X172658114Y-84389933D01*
X172753352Y-84342314D01*
X172800971Y-84294695D01*
X172848590Y-84199457D01*
X172848590Y-83818504D01*
X172753352Y-84961361D02*
X172705733Y-84866123D01*
X172658114Y-84818504D01*
X172562876Y-84770885D01*
X172515257Y-84770885D01*
X172420019Y-84818504D01*
X172372400Y-84866123D01*
X172324780Y-84961361D01*
X172324780Y-85151838D01*
X172372400Y-85247076D01*
X172420019Y-85294695D01*
X172515257Y-85342314D01*
X172562876Y-85342314D01*
X172658114Y-85294695D01*
X172705733Y-85247076D01*
X172753352Y-85151838D01*
X172753352Y-84961361D01*
X172800971Y-84866123D01*
X172848590Y-84818504D01*
X172943828Y-84770885D01*
X173134304Y-84770885D01*
X173229542Y-84818504D01*
X173277161Y-84866123D01*
X173324780Y-84961361D01*
X173324780Y-85151838D01*
X173277161Y-85247076D01*
X173229542Y-85294695D01*
X173134304Y-85342314D01*
X172943828Y-85342314D01*
X172848590Y-85294695D01*
X172800971Y-85247076D01*
X172753352Y-85151838D01*
X117444780Y-84262933D02*
X116968590Y-83929600D01*
X117444780Y-83691504D02*
X116444780Y-83691504D01*
X116444780Y-84072457D01*
X116492400Y-84167695D01*
X116540019Y-84215314D01*
X116635257Y-84262933D01*
X116778114Y-84262933D01*
X116873352Y-84215314D01*
X116920971Y-84167695D01*
X116968590Y-84072457D01*
X116968590Y-83691504D01*
X116444780Y-85120076D02*
X116444780Y-84929600D01*
X116492400Y-84834361D01*
X116540019Y-84786742D01*
X116682876Y-84691504D01*
X116873352Y-84643885D01*
X117254304Y-84643885D01*
X117349542Y-84691504D01*
X117397161Y-84739123D01*
X117444780Y-84834361D01*
X117444780Y-85024838D01*
X117397161Y-85120076D01*
X117349542Y-85167695D01*
X117254304Y-85215314D01*
X117016209Y-85215314D01*
X116920971Y-85167695D01*
X116873352Y-85120076D01*
X116825733Y-85024838D01*
X116825733Y-84834361D01*
X116873352Y-84739123D01*
X116920971Y-84691504D01*
X117016209Y-84643885D01*
X119984780Y-84262933D02*
X119508590Y-83929600D01*
X119984780Y-83691504D02*
X118984780Y-83691504D01*
X118984780Y-84072457D01*
X119032400Y-84167695D01*
X119080019Y-84215314D01*
X119175257Y-84262933D01*
X119318114Y-84262933D01*
X119413352Y-84215314D01*
X119460971Y-84167695D01*
X119508590Y-84072457D01*
X119508590Y-83691504D01*
X118984780Y-85167695D02*
X118984780Y-84691504D01*
X119460971Y-84643885D01*
X119413352Y-84691504D01*
X119365733Y-84786742D01*
X119365733Y-85024838D01*
X119413352Y-85120076D01*
X119460971Y-85167695D01*
X119556209Y-85215314D01*
X119794304Y-85215314D01*
X119889542Y-85167695D01*
X119937161Y-85120076D01*
X119984780Y-85024838D01*
X119984780Y-84786742D01*
X119937161Y-84691504D01*
X119889542Y-84643885D01*
X127604780Y-84262933D02*
X127128590Y-83929600D01*
X127604780Y-83691504D02*
X126604780Y-83691504D01*
X126604780Y-84072457D01*
X126652400Y-84167695D01*
X126700019Y-84215314D01*
X126795257Y-84262933D01*
X126938114Y-84262933D01*
X127033352Y-84215314D01*
X127080971Y-84167695D01*
X127128590Y-84072457D01*
X127128590Y-83691504D01*
X126938114Y-85120076D02*
X127604780Y-85120076D01*
X126557161Y-84881980D02*
X127271447Y-84643885D01*
X127271447Y-85262933D01*
X175890180Y-84389933D02*
X175413990Y-84056600D01*
X175890180Y-83818504D02*
X174890180Y-83818504D01*
X174890180Y-84199457D01*
X174937800Y-84294695D01*
X174985419Y-84342314D01*
X175080657Y-84389933D01*
X175223514Y-84389933D01*
X175318752Y-84342314D01*
X175366371Y-84294695D01*
X175413990Y-84199457D01*
X175413990Y-83818504D01*
X174890180Y-84723266D02*
X174890180Y-85389933D01*
X175890180Y-84961361D01*
X125064780Y-84262933D02*
X124588590Y-83929600D01*
X125064780Y-83691504D02*
X124064780Y-83691504D01*
X124064780Y-84072457D01*
X124112400Y-84167695D01*
X124160019Y-84215314D01*
X124255257Y-84262933D01*
X124398114Y-84262933D01*
X124493352Y-84215314D01*
X124540971Y-84167695D01*
X124588590Y-84072457D01*
X124588590Y-83691504D01*
X125064780Y-84739123D02*
X125064780Y-84929600D01*
X125017161Y-85024838D01*
X124969542Y-85072457D01*
X124826685Y-85167695D01*
X124636209Y-85215314D01*
X124255257Y-85215314D01*
X124160019Y-85167695D01*
X124112400Y-85120076D01*
X124064780Y-85024838D01*
X124064780Y-84834361D01*
X124112400Y-84739123D01*
X124160019Y-84691504D01*
X124255257Y-84643885D01*
X124493352Y-84643885D01*
X124588590Y-84691504D01*
X124636209Y-84739123D01*
X124683828Y-84834361D01*
X124683828Y-85024838D01*
X124636209Y-85120076D01*
X124588590Y-85167695D01*
X124493352Y-85215314D01*
X170784780Y-84389933D02*
X170308590Y-84056600D01*
X170784780Y-83818504D02*
X169784780Y-83818504D01*
X169784780Y-84199457D01*
X169832400Y-84294695D01*
X169880019Y-84342314D01*
X169975257Y-84389933D01*
X170118114Y-84389933D01*
X170213352Y-84342314D01*
X170260971Y-84294695D01*
X170308590Y-84199457D01*
X170308590Y-83818504D01*
X169784780Y-84723266D02*
X169784780Y-85342314D01*
X170165733Y-85008980D01*
X170165733Y-85151838D01*
X170213352Y-85247076D01*
X170260971Y-85294695D01*
X170356209Y-85342314D01*
X170594304Y-85342314D01*
X170689542Y-85294695D01*
X170737161Y-85247076D01*
X170784780Y-85151838D01*
X170784780Y-84866123D01*
X170737161Y-84770885D01*
X170689542Y-84723266D01*
X178430180Y-84389933D02*
X177953990Y-84056600D01*
X178430180Y-83818504D02*
X177430180Y-83818504D01*
X177430180Y-84199457D01*
X177477800Y-84294695D01*
X177525419Y-84342314D01*
X177620657Y-84389933D01*
X177763514Y-84389933D01*
X177858752Y-84342314D01*
X177906371Y-84294695D01*
X177953990Y-84199457D01*
X177953990Y-83818504D01*
X177525419Y-84770885D02*
X177477800Y-84818504D01*
X177430180Y-84913742D01*
X177430180Y-85151838D01*
X177477800Y-85247076D01*
X177525419Y-85294695D01*
X177620657Y-85342314D01*
X177715895Y-85342314D01*
X177858752Y-85294695D01*
X178430180Y-84723266D01*
X178430180Y-85342314D01*
X180944780Y-84389933D02*
X180468590Y-84056600D01*
X180944780Y-83818504D02*
X179944780Y-83818504D01*
X179944780Y-84199457D01*
X179992400Y-84294695D01*
X180040019Y-84342314D01*
X180135257Y-84389933D01*
X180278114Y-84389933D01*
X180373352Y-84342314D01*
X180420971Y-84294695D01*
X180468590Y-84199457D01*
X180468590Y-83818504D01*
X180944780Y-85342314D02*
X180944780Y-84770885D01*
X180944780Y-85056600D02*
X179944780Y-85056600D01*
X180087638Y-84961361D01*
X180182876Y-84866123D01*
X180230495Y-84770885D01*
M02*
