G04 #@! TF.GenerationSoftware,KiCad,Pcbnew,(5.1.0-0)*
G04 #@! TF.CreationDate,2019-05-10T01:12:34-05:00*
G04 #@! TF.ProjectId,IN-12,494e2d31-322e-46b6-9963-61645f706362,rev?*
G04 #@! TF.SameCoordinates,Original*
G04 #@! TF.FileFunction,Legend,Top*
G04 #@! TF.FilePolarity,Positive*
%FSLAX46Y46*%
G04 Gerber Fmt 4.6, Leading zero omitted, Abs format (unit mm)*
G04 Created by KiCad (PCBNEW (5.1.0-0)) date 2019-05-10 01:12:34*
%MOMM*%
%LPD*%
G04 APERTURE LIST*
%ADD10C,0.152400*%
%ADD11C,0.127000*%
%ADD12C,0.381000*%
%ADD13C,0.254000*%
%ADD14C,0.150000*%
G04 APERTURE END LIST*
D10*
X182291566Y-79140050D02*
X182333900Y-79097716D01*
X182460900Y-79055383D01*
X182545566Y-79055383D01*
X182672566Y-79097716D01*
X182757233Y-79182383D01*
X182799566Y-79267050D01*
X182841900Y-79436383D01*
X182841900Y-79563383D01*
X182799566Y-79732716D01*
X182757233Y-79817383D01*
X182672566Y-79902050D01*
X182545566Y-79944383D01*
X182460900Y-79944383D01*
X182333900Y-79902050D01*
X182291566Y-79859716D01*
X181952900Y-79309383D02*
X181529566Y-79309383D01*
X182037566Y-79055383D02*
X181741233Y-79944383D01*
X181444900Y-79055383D01*
X181148566Y-79944383D02*
X181148566Y-79224716D01*
X181106233Y-79140050D01*
X181063900Y-79097716D01*
X180979233Y-79055383D01*
X180809900Y-79055383D01*
X180725233Y-79097716D01*
X180682900Y-79140050D01*
X180640566Y-79224716D01*
X180640566Y-79944383D01*
X180344233Y-79944383D02*
X179836233Y-79944383D01*
X180090233Y-79055383D02*
X180090233Y-79944383D01*
X179539900Y-79055383D02*
X179539900Y-79944383D01*
X178947233Y-79944383D02*
X178777900Y-79944383D01*
X178693233Y-79902050D01*
X178608566Y-79817383D01*
X178566233Y-79648050D01*
X178566233Y-79351716D01*
X178608566Y-79182383D01*
X178693233Y-79097716D01*
X178777900Y-79055383D01*
X178947233Y-79055383D01*
X179031900Y-79097716D01*
X179116566Y-79182383D01*
X179158900Y-79351716D01*
X179158900Y-79648050D01*
X179116566Y-79817383D01*
X179031900Y-79902050D01*
X178947233Y-79944383D01*
X178185233Y-79055383D02*
X178185233Y-79944383D01*
X177677233Y-79055383D01*
X177677233Y-79944383D01*
X177253900Y-79140050D02*
X177211566Y-79097716D01*
X177253900Y-79055383D01*
X177296233Y-79097716D01*
X177253900Y-79140050D01*
X177253900Y-79055383D01*
X177253900Y-79605716D02*
X177211566Y-79563383D01*
X177253900Y-79521050D01*
X177296233Y-79563383D01*
X177253900Y-79605716D01*
X177253900Y-79521050D01*
X176153233Y-79055383D02*
X176153233Y-79944383D01*
X176153233Y-79521050D02*
X175645233Y-79521050D01*
X175645233Y-79055383D02*
X175645233Y-79944383D01*
X175221900Y-79055383D02*
X175221900Y-79944383D01*
X174332900Y-79902050D02*
X174417566Y-79944383D01*
X174544566Y-79944383D01*
X174671566Y-79902050D01*
X174756233Y-79817383D01*
X174798566Y-79732716D01*
X174840900Y-79563383D01*
X174840900Y-79436383D01*
X174798566Y-79267050D01*
X174756233Y-79182383D01*
X174671566Y-79097716D01*
X174544566Y-79055383D01*
X174459900Y-79055383D01*
X174332900Y-79097716D01*
X174290566Y-79140050D01*
X174290566Y-79436383D01*
X174459900Y-79436383D01*
X173909566Y-79055383D02*
X173909566Y-79944383D01*
X173909566Y-79521050D02*
X173401566Y-79521050D01*
X173401566Y-79055383D02*
X173401566Y-79944383D01*
X172427900Y-79944383D02*
X172131566Y-79055383D01*
X171835233Y-79944383D01*
X171369566Y-79944383D02*
X171200233Y-79944383D01*
X171115566Y-79902050D01*
X171030900Y-79817383D01*
X170988566Y-79648050D01*
X170988566Y-79351716D01*
X171030900Y-79182383D01*
X171115566Y-79097716D01*
X171200233Y-79055383D01*
X171369566Y-79055383D01*
X171454233Y-79097716D01*
X171538900Y-79182383D01*
X171581233Y-79351716D01*
X171581233Y-79648050D01*
X171538900Y-79817383D01*
X171454233Y-79902050D01*
X171369566Y-79944383D01*
X170184233Y-79055383D02*
X170607566Y-79055383D01*
X170607566Y-79944383D01*
X170014900Y-79944383D02*
X169506900Y-79944383D01*
X169760900Y-79055383D02*
X169760900Y-79944383D01*
X169252900Y-79309383D02*
X168829566Y-79309383D01*
X169337566Y-79055383D02*
X169041233Y-79944383D01*
X168744900Y-79055383D01*
X167982900Y-79902050D02*
X168067566Y-79944383D01*
X168194566Y-79944383D01*
X168321566Y-79902050D01*
X168406233Y-79817383D01*
X168448566Y-79732716D01*
X168490900Y-79563383D01*
X168490900Y-79436383D01*
X168448566Y-79267050D01*
X168406233Y-79182383D01*
X168321566Y-79097716D01*
X168194566Y-79055383D01*
X168109900Y-79055383D01*
X167982900Y-79097716D01*
X167940566Y-79140050D01*
X167940566Y-79436383D01*
X168109900Y-79436383D01*
X167559566Y-79521050D02*
X167263233Y-79521050D01*
X167136233Y-79055383D02*
X167559566Y-79055383D01*
X167559566Y-79944383D01*
X167136233Y-79944383D01*
X166755233Y-79140050D02*
X166712900Y-79097716D01*
X166755233Y-79055383D01*
X166797566Y-79097716D01*
X166755233Y-79140050D01*
X166755233Y-79055383D01*
X166755233Y-79394050D02*
X166797566Y-79902050D01*
X166755233Y-79944383D01*
X166712900Y-79902050D01*
X166755233Y-79394050D01*
X166755233Y-79944383D01*
X179815066Y-77569483D02*
X179815066Y-78458483D01*
X179603400Y-78458483D01*
X179476400Y-78416150D01*
X179391733Y-78331483D01*
X179349400Y-78246816D01*
X179307066Y-78077483D01*
X179307066Y-77950483D01*
X179349400Y-77781150D01*
X179391733Y-77696483D01*
X179476400Y-77611816D01*
X179603400Y-77569483D01*
X179815066Y-77569483D01*
X178756733Y-78458483D02*
X178587400Y-78458483D01*
X178502733Y-78416150D01*
X178418066Y-78331483D01*
X178375733Y-78162150D01*
X178375733Y-77865816D01*
X178418066Y-77696483D01*
X178502733Y-77611816D01*
X178587400Y-77569483D01*
X178756733Y-77569483D01*
X178841400Y-77611816D01*
X178926066Y-77696483D01*
X178968400Y-77865816D01*
X178968400Y-78162150D01*
X178926066Y-78331483D01*
X178841400Y-78416150D01*
X178756733Y-78458483D01*
X177317400Y-77569483D02*
X177317400Y-78458483D01*
X176809400Y-77569483D01*
X176809400Y-78458483D01*
X176216733Y-78458483D02*
X176047400Y-78458483D01*
X175962733Y-78416150D01*
X175878066Y-78331483D01*
X175835733Y-78162150D01*
X175835733Y-77865816D01*
X175878066Y-77696483D01*
X175962733Y-77611816D01*
X176047400Y-77569483D01*
X176216733Y-77569483D01*
X176301400Y-77611816D01*
X176386066Y-77696483D01*
X176428400Y-77865816D01*
X176428400Y-78162150D01*
X176386066Y-78331483D01*
X176301400Y-78416150D01*
X176216733Y-78458483D01*
X175581733Y-78458483D02*
X175073733Y-78458483D01*
X175327733Y-77569483D02*
X175327733Y-78458483D01*
X174227066Y-78458483D02*
X173719066Y-78458483D01*
X173973066Y-77569483D02*
X173973066Y-78458483D01*
X173253400Y-78458483D02*
X173084066Y-78458483D01*
X172999400Y-78416150D01*
X172914733Y-78331483D01*
X172872400Y-78162150D01*
X172872400Y-77865816D01*
X172914733Y-77696483D01*
X172999400Y-77611816D01*
X173084066Y-77569483D01*
X173253400Y-77569483D01*
X173338066Y-77611816D01*
X173422733Y-77696483D01*
X173465066Y-77865816D01*
X173465066Y-78162150D01*
X173422733Y-78331483D01*
X173338066Y-78416150D01*
X173253400Y-78458483D01*
X172491400Y-78458483D02*
X172491400Y-77738816D01*
X172449066Y-77654150D01*
X172406733Y-77611816D01*
X172322066Y-77569483D01*
X172152733Y-77569483D01*
X172068066Y-77611816D01*
X172025733Y-77654150D01*
X171983400Y-77738816D01*
X171983400Y-78458483D01*
X171052066Y-77654150D02*
X171094400Y-77611816D01*
X171221400Y-77569483D01*
X171306066Y-77569483D01*
X171433066Y-77611816D01*
X171517733Y-77696483D01*
X171560066Y-77781150D01*
X171602400Y-77950483D01*
X171602400Y-78077483D01*
X171560066Y-78246816D01*
X171517733Y-78331483D01*
X171433066Y-78416150D01*
X171306066Y-78458483D01*
X171221400Y-78458483D01*
X171094400Y-78416150D01*
X171052066Y-78373816D01*
X170671066Y-77569483D02*
X170671066Y-78458483D01*
X170671066Y-78035150D02*
X170163066Y-78035150D01*
X170163066Y-77569483D02*
X170163066Y-78458483D01*
X169739733Y-77654150D02*
X169697400Y-77611816D01*
X169739733Y-77569483D01*
X169782066Y-77611816D01*
X169739733Y-77654150D01*
X169739733Y-77569483D01*
X169739733Y-77908150D02*
X169782066Y-78416150D01*
X169739733Y-78458483D01*
X169697400Y-78416150D01*
X169739733Y-77908150D01*
X169739733Y-78458483D01*
X141228233Y-121469150D02*
X141185900Y-121511483D01*
X141058900Y-121553816D01*
X140974233Y-121553816D01*
X140847233Y-121511483D01*
X140762566Y-121426816D01*
X140720233Y-121342150D01*
X140677900Y-121172816D01*
X140677900Y-121045816D01*
X140720233Y-120876483D01*
X140762566Y-120791816D01*
X140847233Y-120707150D01*
X140974233Y-120664816D01*
X141058900Y-120664816D01*
X141185900Y-120707150D01*
X141228233Y-120749483D01*
X141566900Y-121299816D02*
X141990233Y-121299816D01*
X141482233Y-121553816D02*
X141778566Y-120664816D01*
X142074900Y-121553816D01*
X142371233Y-120664816D02*
X142371233Y-121384483D01*
X142413566Y-121469150D01*
X142455900Y-121511483D01*
X142540566Y-121553816D01*
X142709900Y-121553816D01*
X142794566Y-121511483D01*
X142836900Y-121469150D01*
X142879233Y-121384483D01*
X142879233Y-120664816D01*
X143175566Y-120664816D02*
X143683566Y-120664816D01*
X143429566Y-121553816D02*
X143429566Y-120664816D01*
X143979900Y-121553816D02*
X143979900Y-120664816D01*
X144572566Y-120664816D02*
X144741900Y-120664816D01*
X144826566Y-120707150D01*
X144911233Y-120791816D01*
X144953566Y-120961150D01*
X144953566Y-121257483D01*
X144911233Y-121426816D01*
X144826566Y-121511483D01*
X144741900Y-121553816D01*
X144572566Y-121553816D01*
X144487900Y-121511483D01*
X144403233Y-121426816D01*
X144360900Y-121257483D01*
X144360900Y-120961150D01*
X144403233Y-120791816D01*
X144487900Y-120707150D01*
X144572566Y-120664816D01*
X145334566Y-121553816D02*
X145334566Y-120664816D01*
X145842566Y-121553816D01*
X145842566Y-120664816D01*
X146265900Y-121469150D02*
X146308233Y-121511483D01*
X146265900Y-121553816D01*
X146223566Y-121511483D01*
X146265900Y-121469150D01*
X146265900Y-121553816D01*
X146265900Y-121003483D02*
X146308233Y-121045816D01*
X146265900Y-121088150D01*
X146223566Y-121045816D01*
X146265900Y-121003483D01*
X146265900Y-121088150D01*
X147366566Y-121553816D02*
X147366566Y-120664816D01*
X147366566Y-121088150D02*
X147874566Y-121088150D01*
X147874566Y-121553816D02*
X147874566Y-120664816D01*
X148297900Y-121553816D02*
X148297900Y-120664816D01*
X149186900Y-120707150D02*
X149102233Y-120664816D01*
X148975233Y-120664816D01*
X148848233Y-120707150D01*
X148763566Y-120791816D01*
X148721233Y-120876483D01*
X148678900Y-121045816D01*
X148678900Y-121172816D01*
X148721233Y-121342150D01*
X148763566Y-121426816D01*
X148848233Y-121511483D01*
X148975233Y-121553816D01*
X149059900Y-121553816D01*
X149186900Y-121511483D01*
X149229233Y-121469150D01*
X149229233Y-121172816D01*
X149059900Y-121172816D01*
X149610233Y-121553816D02*
X149610233Y-120664816D01*
X149610233Y-121088150D02*
X150118233Y-121088150D01*
X150118233Y-121553816D02*
X150118233Y-120664816D01*
X151091900Y-120664816D02*
X151388233Y-121553816D01*
X151684566Y-120664816D01*
X152150233Y-120664816D02*
X152319566Y-120664816D01*
X152404233Y-120707150D01*
X152488900Y-120791816D01*
X152531233Y-120961150D01*
X152531233Y-121257483D01*
X152488900Y-121426816D01*
X152404233Y-121511483D01*
X152319566Y-121553816D01*
X152150233Y-121553816D01*
X152065566Y-121511483D01*
X151980900Y-121426816D01*
X151938566Y-121257483D01*
X151938566Y-120961150D01*
X151980900Y-120791816D01*
X152065566Y-120707150D01*
X152150233Y-120664816D01*
X153335566Y-121553816D02*
X152912233Y-121553816D01*
X152912233Y-120664816D01*
X153504900Y-120664816D02*
X154012900Y-120664816D01*
X153758900Y-121553816D02*
X153758900Y-120664816D01*
X154266900Y-121299816D02*
X154690233Y-121299816D01*
X154182233Y-121553816D02*
X154478566Y-120664816D01*
X154774900Y-121553816D01*
X155536900Y-120707150D02*
X155452233Y-120664816D01*
X155325233Y-120664816D01*
X155198233Y-120707150D01*
X155113566Y-120791816D01*
X155071233Y-120876483D01*
X155028900Y-121045816D01*
X155028900Y-121172816D01*
X155071233Y-121342150D01*
X155113566Y-121426816D01*
X155198233Y-121511483D01*
X155325233Y-121553816D01*
X155409900Y-121553816D01*
X155536900Y-121511483D01*
X155579233Y-121469150D01*
X155579233Y-121172816D01*
X155409900Y-121172816D01*
X155960233Y-121088150D02*
X156256566Y-121088150D01*
X156383566Y-121553816D02*
X155960233Y-121553816D01*
X155960233Y-120664816D01*
X156383566Y-120664816D01*
X156764566Y-121469150D02*
X156806900Y-121511483D01*
X156764566Y-121553816D01*
X156722233Y-121511483D01*
X156764566Y-121469150D01*
X156764566Y-121553816D01*
X156764566Y-121215150D02*
X156722233Y-120707150D01*
X156764566Y-120664816D01*
X156806900Y-120707150D01*
X156764566Y-121215150D01*
X156764566Y-120664816D01*
X143704733Y-123039716D02*
X143704733Y-122150716D01*
X143916400Y-122150716D01*
X144043400Y-122193050D01*
X144128066Y-122277716D01*
X144170400Y-122362383D01*
X144212733Y-122531716D01*
X144212733Y-122658716D01*
X144170400Y-122828050D01*
X144128066Y-122912716D01*
X144043400Y-122997383D01*
X143916400Y-123039716D01*
X143704733Y-123039716D01*
X144763066Y-122150716D02*
X144932400Y-122150716D01*
X145017066Y-122193050D01*
X145101733Y-122277716D01*
X145144066Y-122447050D01*
X145144066Y-122743383D01*
X145101733Y-122912716D01*
X145017066Y-122997383D01*
X144932400Y-123039716D01*
X144763066Y-123039716D01*
X144678400Y-122997383D01*
X144593733Y-122912716D01*
X144551400Y-122743383D01*
X144551400Y-122447050D01*
X144593733Y-122277716D01*
X144678400Y-122193050D01*
X144763066Y-122150716D01*
X146202400Y-123039716D02*
X146202400Y-122150716D01*
X146710400Y-123039716D01*
X146710400Y-122150716D01*
X147303066Y-122150716D02*
X147472400Y-122150716D01*
X147557066Y-122193050D01*
X147641733Y-122277716D01*
X147684066Y-122447050D01*
X147684066Y-122743383D01*
X147641733Y-122912716D01*
X147557066Y-122997383D01*
X147472400Y-123039716D01*
X147303066Y-123039716D01*
X147218400Y-122997383D01*
X147133733Y-122912716D01*
X147091400Y-122743383D01*
X147091400Y-122447050D01*
X147133733Y-122277716D01*
X147218400Y-122193050D01*
X147303066Y-122150716D01*
X147938066Y-122150716D02*
X148446066Y-122150716D01*
X148192066Y-123039716D02*
X148192066Y-122150716D01*
X149292733Y-122150716D02*
X149800733Y-122150716D01*
X149546733Y-123039716D02*
X149546733Y-122150716D01*
X150266400Y-122150716D02*
X150435733Y-122150716D01*
X150520400Y-122193050D01*
X150605066Y-122277716D01*
X150647400Y-122447050D01*
X150647400Y-122743383D01*
X150605066Y-122912716D01*
X150520400Y-122997383D01*
X150435733Y-123039716D01*
X150266400Y-123039716D01*
X150181733Y-122997383D01*
X150097066Y-122912716D01*
X150054733Y-122743383D01*
X150054733Y-122447050D01*
X150097066Y-122277716D01*
X150181733Y-122193050D01*
X150266400Y-122150716D01*
X151028400Y-122150716D02*
X151028400Y-122870383D01*
X151070733Y-122955050D01*
X151113066Y-122997383D01*
X151197733Y-123039716D01*
X151367066Y-123039716D01*
X151451733Y-122997383D01*
X151494066Y-122955050D01*
X151536400Y-122870383D01*
X151536400Y-122150716D01*
X152467733Y-122955050D02*
X152425400Y-122997383D01*
X152298400Y-123039716D01*
X152213733Y-123039716D01*
X152086733Y-122997383D01*
X152002066Y-122912716D01*
X151959733Y-122828050D01*
X151917400Y-122658716D01*
X151917400Y-122531716D01*
X151959733Y-122362383D01*
X152002066Y-122277716D01*
X152086733Y-122193050D01*
X152213733Y-122150716D01*
X152298400Y-122150716D01*
X152425400Y-122193050D01*
X152467733Y-122235383D01*
X152848733Y-123039716D02*
X152848733Y-122150716D01*
X152848733Y-122574050D02*
X153356733Y-122574050D01*
X153356733Y-123039716D02*
X153356733Y-122150716D01*
X153780066Y-122955050D02*
X153822400Y-122997383D01*
X153780066Y-123039716D01*
X153737733Y-122997383D01*
X153780066Y-122955050D01*
X153780066Y-123039716D01*
X153780066Y-122701050D02*
X153737733Y-122193050D01*
X153780066Y-122150716D01*
X153822400Y-122193050D01*
X153780066Y-122701050D01*
X153780066Y-122150716D01*
X130221566Y-78505050D02*
X130263900Y-78462716D01*
X130390900Y-78420383D01*
X130475566Y-78420383D01*
X130602566Y-78462716D01*
X130687233Y-78547383D01*
X130729566Y-78632050D01*
X130771900Y-78801383D01*
X130771900Y-78928383D01*
X130729566Y-79097716D01*
X130687233Y-79182383D01*
X130602566Y-79267050D01*
X130475566Y-79309383D01*
X130390900Y-79309383D01*
X130263900Y-79267050D01*
X130221566Y-79224716D01*
X129882900Y-78674383D02*
X129459566Y-78674383D01*
X129967566Y-78420383D02*
X129671233Y-79309383D01*
X129374900Y-78420383D01*
X129078566Y-79309383D02*
X129078566Y-78589716D01*
X129036233Y-78505050D01*
X128993900Y-78462716D01*
X128909233Y-78420383D01*
X128739900Y-78420383D01*
X128655233Y-78462716D01*
X128612900Y-78505050D01*
X128570566Y-78589716D01*
X128570566Y-79309383D01*
X128274233Y-79309383D02*
X127766233Y-79309383D01*
X128020233Y-78420383D02*
X128020233Y-79309383D01*
X127469900Y-78420383D02*
X127469900Y-79309383D01*
X126877233Y-79309383D02*
X126707900Y-79309383D01*
X126623233Y-79267050D01*
X126538566Y-79182383D01*
X126496233Y-79013050D01*
X126496233Y-78716716D01*
X126538566Y-78547383D01*
X126623233Y-78462716D01*
X126707900Y-78420383D01*
X126877233Y-78420383D01*
X126961900Y-78462716D01*
X127046566Y-78547383D01*
X127088900Y-78716716D01*
X127088900Y-79013050D01*
X127046566Y-79182383D01*
X126961900Y-79267050D01*
X126877233Y-79309383D01*
X126115233Y-78420383D02*
X126115233Y-79309383D01*
X125607233Y-78420383D01*
X125607233Y-79309383D01*
X125183900Y-78505050D02*
X125141566Y-78462716D01*
X125183900Y-78420383D01*
X125226233Y-78462716D01*
X125183900Y-78505050D01*
X125183900Y-78420383D01*
X125183900Y-78970716D02*
X125141566Y-78928383D01*
X125183900Y-78886050D01*
X125226233Y-78928383D01*
X125183900Y-78970716D01*
X125183900Y-78886050D01*
X124083233Y-78420383D02*
X124083233Y-79309383D01*
X124083233Y-78886050D02*
X123575233Y-78886050D01*
X123575233Y-78420383D02*
X123575233Y-79309383D01*
X123151900Y-78420383D02*
X123151900Y-79309383D01*
X122262900Y-79267050D02*
X122347566Y-79309383D01*
X122474566Y-79309383D01*
X122601566Y-79267050D01*
X122686233Y-79182383D01*
X122728566Y-79097716D01*
X122770900Y-78928383D01*
X122770900Y-78801383D01*
X122728566Y-78632050D01*
X122686233Y-78547383D01*
X122601566Y-78462716D01*
X122474566Y-78420383D01*
X122389900Y-78420383D01*
X122262900Y-78462716D01*
X122220566Y-78505050D01*
X122220566Y-78801383D01*
X122389900Y-78801383D01*
X121839566Y-78420383D02*
X121839566Y-79309383D01*
X121839566Y-78886050D02*
X121331566Y-78886050D01*
X121331566Y-78420383D02*
X121331566Y-79309383D01*
X120357900Y-79309383D02*
X120061566Y-78420383D01*
X119765233Y-79309383D01*
X119299566Y-79309383D02*
X119130233Y-79309383D01*
X119045566Y-79267050D01*
X118960900Y-79182383D01*
X118918566Y-79013050D01*
X118918566Y-78716716D01*
X118960900Y-78547383D01*
X119045566Y-78462716D01*
X119130233Y-78420383D01*
X119299566Y-78420383D01*
X119384233Y-78462716D01*
X119468900Y-78547383D01*
X119511233Y-78716716D01*
X119511233Y-79013050D01*
X119468900Y-79182383D01*
X119384233Y-79267050D01*
X119299566Y-79309383D01*
X118114233Y-78420383D02*
X118537566Y-78420383D01*
X118537566Y-79309383D01*
X117944900Y-79309383D02*
X117436900Y-79309383D01*
X117690900Y-78420383D02*
X117690900Y-79309383D01*
X117182900Y-78674383D02*
X116759566Y-78674383D01*
X117267566Y-78420383D02*
X116971233Y-79309383D01*
X116674900Y-78420383D01*
X115912900Y-79267050D02*
X115997566Y-79309383D01*
X116124566Y-79309383D01*
X116251566Y-79267050D01*
X116336233Y-79182383D01*
X116378566Y-79097716D01*
X116420900Y-78928383D01*
X116420900Y-78801383D01*
X116378566Y-78632050D01*
X116336233Y-78547383D01*
X116251566Y-78462716D01*
X116124566Y-78420383D01*
X116039900Y-78420383D01*
X115912900Y-78462716D01*
X115870566Y-78505050D01*
X115870566Y-78801383D01*
X116039900Y-78801383D01*
X115489566Y-78886050D02*
X115193233Y-78886050D01*
X115066233Y-78420383D02*
X115489566Y-78420383D01*
X115489566Y-79309383D01*
X115066233Y-79309383D01*
X114685233Y-78505050D02*
X114642900Y-78462716D01*
X114685233Y-78420383D01*
X114727566Y-78462716D01*
X114685233Y-78505050D01*
X114685233Y-78420383D01*
X114685233Y-78759050D02*
X114727566Y-79267050D01*
X114685233Y-79309383D01*
X114642900Y-79267050D01*
X114685233Y-78759050D01*
X114685233Y-79309383D01*
X127745066Y-76934483D02*
X127745066Y-77823483D01*
X127533400Y-77823483D01*
X127406400Y-77781150D01*
X127321733Y-77696483D01*
X127279400Y-77611816D01*
X127237066Y-77442483D01*
X127237066Y-77315483D01*
X127279400Y-77146150D01*
X127321733Y-77061483D01*
X127406400Y-76976816D01*
X127533400Y-76934483D01*
X127745066Y-76934483D01*
X126686733Y-77823483D02*
X126517400Y-77823483D01*
X126432733Y-77781150D01*
X126348066Y-77696483D01*
X126305733Y-77527150D01*
X126305733Y-77230816D01*
X126348066Y-77061483D01*
X126432733Y-76976816D01*
X126517400Y-76934483D01*
X126686733Y-76934483D01*
X126771400Y-76976816D01*
X126856066Y-77061483D01*
X126898400Y-77230816D01*
X126898400Y-77527150D01*
X126856066Y-77696483D01*
X126771400Y-77781150D01*
X126686733Y-77823483D01*
X125247400Y-76934483D02*
X125247400Y-77823483D01*
X124739400Y-76934483D01*
X124739400Y-77823483D01*
X124146733Y-77823483D02*
X123977400Y-77823483D01*
X123892733Y-77781150D01*
X123808066Y-77696483D01*
X123765733Y-77527150D01*
X123765733Y-77230816D01*
X123808066Y-77061483D01*
X123892733Y-76976816D01*
X123977400Y-76934483D01*
X124146733Y-76934483D01*
X124231400Y-76976816D01*
X124316066Y-77061483D01*
X124358400Y-77230816D01*
X124358400Y-77527150D01*
X124316066Y-77696483D01*
X124231400Y-77781150D01*
X124146733Y-77823483D01*
X123511733Y-77823483D02*
X123003733Y-77823483D01*
X123257733Y-76934483D02*
X123257733Y-77823483D01*
X122157066Y-77823483D02*
X121649066Y-77823483D01*
X121903066Y-76934483D02*
X121903066Y-77823483D01*
X121183400Y-77823483D02*
X121014066Y-77823483D01*
X120929400Y-77781150D01*
X120844733Y-77696483D01*
X120802400Y-77527150D01*
X120802400Y-77230816D01*
X120844733Y-77061483D01*
X120929400Y-76976816D01*
X121014066Y-76934483D01*
X121183400Y-76934483D01*
X121268066Y-76976816D01*
X121352733Y-77061483D01*
X121395066Y-77230816D01*
X121395066Y-77527150D01*
X121352733Y-77696483D01*
X121268066Y-77781150D01*
X121183400Y-77823483D01*
X120421400Y-77823483D02*
X120421400Y-77103816D01*
X120379066Y-77019150D01*
X120336733Y-76976816D01*
X120252066Y-76934483D01*
X120082733Y-76934483D01*
X119998066Y-76976816D01*
X119955733Y-77019150D01*
X119913400Y-77103816D01*
X119913400Y-77823483D01*
X118982066Y-77019150D02*
X119024400Y-76976816D01*
X119151400Y-76934483D01*
X119236066Y-76934483D01*
X119363066Y-76976816D01*
X119447733Y-77061483D01*
X119490066Y-77146150D01*
X119532400Y-77315483D01*
X119532400Y-77442483D01*
X119490066Y-77611816D01*
X119447733Y-77696483D01*
X119363066Y-77781150D01*
X119236066Y-77823483D01*
X119151400Y-77823483D01*
X119024400Y-77781150D01*
X118982066Y-77738816D01*
X118601066Y-76934483D02*
X118601066Y-77823483D01*
X118601066Y-77400150D02*
X118093066Y-77400150D01*
X118093066Y-76934483D02*
X118093066Y-77823483D01*
X117669733Y-77019150D02*
X117627400Y-76976816D01*
X117669733Y-76934483D01*
X117712066Y-76976816D01*
X117669733Y-77019150D01*
X117669733Y-76934483D01*
X117669733Y-77273150D02*
X117712066Y-77781150D01*
X117669733Y-77823483D01*
X117627400Y-77781150D01*
X117669733Y-77273150D01*
X117669733Y-77823483D01*
D11*
X82065283Y-115815533D02*
X82065283Y-115104333D01*
X82403950Y-115815533D02*
X82403950Y-115104333D01*
X82810350Y-115815533D01*
X82810350Y-115104333D01*
X83149016Y-115544600D02*
X83690883Y-115544600D01*
X84402083Y-115815533D02*
X83995683Y-115815533D01*
X84198883Y-115815533D02*
X84198883Y-115104333D01*
X84131150Y-115205933D01*
X84063416Y-115273666D01*
X83995683Y-115307533D01*
X84673016Y-115172066D02*
X84706883Y-115138200D01*
X84774616Y-115104333D01*
X84943950Y-115104333D01*
X85011683Y-115138200D01*
X85045550Y-115172066D01*
X85079416Y-115239800D01*
X85079416Y-115307533D01*
X85045550Y-115409133D01*
X84639150Y-115815533D01*
X85079416Y-115815533D01*
X85926083Y-115815533D02*
X85926083Y-115104333D01*
X86332483Y-115815533D01*
X86332483Y-115104333D01*
X86671150Y-115815533D02*
X86671150Y-115341400D01*
X86671150Y-115104333D02*
X86637283Y-115138200D01*
X86671150Y-115172066D01*
X86705016Y-115138200D01*
X86671150Y-115104333D01*
X86671150Y-115172066D01*
X86942083Y-115815533D02*
X87314616Y-115341400D01*
X86942083Y-115341400D02*
X87314616Y-115815533D01*
X87585550Y-115815533D02*
X87585550Y-115341400D01*
X87585550Y-115104333D02*
X87551683Y-115138200D01*
X87585550Y-115172066D01*
X87619416Y-115138200D01*
X87585550Y-115104333D01*
X87585550Y-115172066D01*
X88195150Y-115781666D02*
X88127416Y-115815533D01*
X87991950Y-115815533D01*
X87924216Y-115781666D01*
X87890350Y-115713933D01*
X87890350Y-115443000D01*
X87924216Y-115375266D01*
X87991950Y-115341400D01*
X88127416Y-115341400D01*
X88195150Y-115375266D01*
X88229016Y-115443000D01*
X88229016Y-115510733D01*
X87890350Y-115578466D01*
X89075683Y-115815533D02*
X89075683Y-115104333D01*
X89245016Y-115104333D01*
X89346616Y-115138200D01*
X89414350Y-115205933D01*
X89448216Y-115273666D01*
X89482083Y-115409133D01*
X89482083Y-115510733D01*
X89448216Y-115646200D01*
X89414350Y-115713933D01*
X89346616Y-115781666D01*
X89245016Y-115815533D01*
X89075683Y-115815533D01*
X89786883Y-115815533D02*
X89786883Y-115341400D01*
X89786883Y-115104333D02*
X89753016Y-115138200D01*
X89786883Y-115172066D01*
X89820750Y-115138200D01*
X89786883Y-115104333D01*
X89786883Y-115172066D01*
X90091683Y-115781666D02*
X90159416Y-115815533D01*
X90294883Y-115815533D01*
X90362616Y-115781666D01*
X90396483Y-115713933D01*
X90396483Y-115680066D01*
X90362616Y-115612333D01*
X90294883Y-115578466D01*
X90193283Y-115578466D01*
X90125550Y-115544600D01*
X90091683Y-115476866D01*
X90091683Y-115443000D01*
X90125550Y-115375266D01*
X90193283Y-115341400D01*
X90294883Y-115341400D01*
X90362616Y-115375266D01*
X90701283Y-115341400D02*
X90701283Y-116052600D01*
X90701283Y-115375266D02*
X90769016Y-115341400D01*
X90904483Y-115341400D01*
X90972216Y-115375266D01*
X91006083Y-115409133D01*
X91039950Y-115476866D01*
X91039950Y-115680066D01*
X91006083Y-115747800D01*
X90972216Y-115781666D01*
X90904483Y-115815533D01*
X90769016Y-115815533D01*
X90701283Y-115781666D01*
X91446350Y-115815533D02*
X91378616Y-115781666D01*
X91344750Y-115713933D01*
X91344750Y-115104333D01*
X92022083Y-115815533D02*
X92022083Y-115443000D01*
X91988216Y-115375266D01*
X91920483Y-115341400D01*
X91785016Y-115341400D01*
X91717283Y-115375266D01*
X92022083Y-115781666D02*
X91954350Y-115815533D01*
X91785016Y-115815533D01*
X91717283Y-115781666D01*
X91683416Y-115713933D01*
X91683416Y-115646200D01*
X91717283Y-115578466D01*
X91785016Y-115544600D01*
X91954350Y-115544600D01*
X92022083Y-115510733D01*
X92293016Y-115341400D02*
X92462350Y-115815533D01*
X92631683Y-115341400D02*
X92462350Y-115815533D01*
X92394616Y-115984866D01*
X92360750Y-116018733D01*
X92293016Y-116052600D01*
X93681550Y-115443000D02*
X93783150Y-115476866D01*
X93817016Y-115510733D01*
X93850883Y-115578466D01*
X93850883Y-115680066D01*
X93817016Y-115747800D01*
X93783150Y-115781666D01*
X93715416Y-115815533D01*
X93444483Y-115815533D01*
X93444483Y-115104333D01*
X93681550Y-115104333D01*
X93749283Y-115138200D01*
X93783150Y-115172066D01*
X93817016Y-115239800D01*
X93817016Y-115307533D01*
X93783150Y-115375266D01*
X93749283Y-115409133D01*
X93681550Y-115443000D01*
X93444483Y-115443000D01*
X94257283Y-115815533D02*
X94189550Y-115781666D01*
X94155683Y-115747800D01*
X94121816Y-115680066D01*
X94121816Y-115476866D01*
X94155683Y-115409133D01*
X94189550Y-115375266D01*
X94257283Y-115341400D01*
X94358883Y-115341400D01*
X94426616Y-115375266D01*
X94460483Y-115409133D01*
X94494350Y-115476866D01*
X94494350Y-115680066D01*
X94460483Y-115747800D01*
X94426616Y-115781666D01*
X94358883Y-115815533D01*
X94257283Y-115815533D01*
X95103950Y-115815533D02*
X95103950Y-115443000D01*
X95070083Y-115375266D01*
X95002350Y-115341400D01*
X94866883Y-115341400D01*
X94799150Y-115375266D01*
X95103950Y-115781666D02*
X95036216Y-115815533D01*
X94866883Y-115815533D01*
X94799150Y-115781666D01*
X94765283Y-115713933D01*
X94765283Y-115646200D01*
X94799150Y-115578466D01*
X94866883Y-115544600D01*
X95036216Y-115544600D01*
X95103950Y-115510733D01*
X95442616Y-115815533D02*
X95442616Y-115341400D01*
X95442616Y-115476866D02*
X95476483Y-115409133D01*
X95510350Y-115375266D01*
X95578083Y-115341400D01*
X95645816Y-115341400D01*
X96187683Y-115815533D02*
X96187683Y-115104333D01*
X96187683Y-115781666D02*
X96119950Y-115815533D01*
X95984483Y-115815533D01*
X95916750Y-115781666D01*
X95882883Y-115747800D01*
X95849016Y-115680066D01*
X95849016Y-115476866D01*
X95882883Y-115409133D01*
X95916750Y-115375266D01*
X95984483Y-115341400D01*
X96119950Y-115341400D01*
X96187683Y-115375266D01*
X97000483Y-115341400D02*
X97169816Y-115815533D01*
X97339150Y-115341400D01*
X97982616Y-115815533D02*
X97576216Y-115815533D01*
X97779416Y-115815533D02*
X97779416Y-115104333D01*
X97711683Y-115205933D01*
X97643950Y-115273666D01*
X97576216Y-115307533D01*
X98287416Y-115747800D02*
X98321283Y-115781666D01*
X98287416Y-115815533D01*
X98253550Y-115781666D01*
X98287416Y-115747800D01*
X98287416Y-115815533D01*
X98761550Y-115104333D02*
X98829283Y-115104333D01*
X98897016Y-115138200D01*
X98930883Y-115172066D01*
X98964750Y-115239800D01*
X98998616Y-115375266D01*
X98998616Y-115544600D01*
X98964750Y-115680066D01*
X98930883Y-115747800D01*
X98897016Y-115781666D01*
X98829283Y-115815533D01*
X98761550Y-115815533D01*
X98693816Y-115781666D01*
X98659950Y-115747800D01*
X98626083Y-115680066D01*
X98592216Y-115544600D01*
X98592216Y-115375266D01*
X98626083Y-115239800D01*
X98659950Y-115172066D01*
X98693816Y-115138200D01*
X98761550Y-115104333D01*
X99743683Y-115341400D02*
X100014616Y-115341400D01*
X99845283Y-115815533D02*
X99845283Y-115205933D01*
X99879150Y-115138200D01*
X99946883Y-115104333D01*
X100014616Y-115104333D01*
X100353283Y-115815533D02*
X100285550Y-115781666D01*
X100251683Y-115747800D01*
X100217816Y-115680066D01*
X100217816Y-115476866D01*
X100251683Y-115409133D01*
X100285550Y-115375266D01*
X100353283Y-115341400D01*
X100454883Y-115341400D01*
X100522616Y-115375266D01*
X100556483Y-115409133D01*
X100590350Y-115476866D01*
X100590350Y-115680066D01*
X100556483Y-115747800D01*
X100522616Y-115781666D01*
X100454883Y-115815533D01*
X100353283Y-115815533D01*
X100895150Y-115815533D02*
X100895150Y-115341400D01*
X100895150Y-115476866D02*
X100929016Y-115409133D01*
X100962883Y-115375266D01*
X101030616Y-115341400D01*
X101098350Y-115341400D01*
X101775683Y-115104333D02*
X102182083Y-115104333D01*
X101978883Y-115815533D02*
X101978883Y-115104333D01*
X102723950Y-115341400D02*
X102723950Y-115815533D01*
X102419150Y-115341400D02*
X102419150Y-115713933D01*
X102453016Y-115781666D01*
X102520750Y-115815533D01*
X102622350Y-115815533D01*
X102690083Y-115781666D01*
X102723950Y-115747800D01*
X103062616Y-115815533D02*
X103062616Y-115104333D01*
X103062616Y-115375266D02*
X103130350Y-115341400D01*
X103265816Y-115341400D01*
X103333550Y-115375266D01*
X103367416Y-115409133D01*
X103401283Y-115476866D01*
X103401283Y-115680066D01*
X103367416Y-115747800D01*
X103333550Y-115781666D01*
X103265816Y-115815533D01*
X103130350Y-115815533D01*
X103062616Y-115781666D01*
X103977016Y-115781666D02*
X103909283Y-115815533D01*
X103773816Y-115815533D01*
X103706083Y-115781666D01*
X103672216Y-115713933D01*
X103672216Y-115443000D01*
X103706083Y-115375266D01*
X103773816Y-115341400D01*
X103909283Y-115341400D01*
X103977016Y-115375266D01*
X104010883Y-115443000D01*
X104010883Y-115510733D01*
X103672216Y-115578466D01*
X105263950Y-115747800D02*
X105230083Y-115781666D01*
X105128483Y-115815533D01*
X105060750Y-115815533D01*
X104959150Y-115781666D01*
X104891416Y-115713933D01*
X104857550Y-115646200D01*
X104823683Y-115510733D01*
X104823683Y-115409133D01*
X104857550Y-115273666D01*
X104891416Y-115205933D01*
X104959150Y-115138200D01*
X105060750Y-115104333D01*
X105128483Y-115104333D01*
X105230083Y-115138200D01*
X105263950Y-115172066D01*
X105670350Y-115815533D02*
X105602616Y-115781666D01*
X105568750Y-115713933D01*
X105568750Y-115104333D01*
X106042883Y-115815533D02*
X105975150Y-115781666D01*
X105941283Y-115747800D01*
X105907416Y-115680066D01*
X105907416Y-115476866D01*
X105941283Y-115409133D01*
X105975150Y-115375266D01*
X106042883Y-115341400D01*
X106144483Y-115341400D01*
X106212216Y-115375266D01*
X106246083Y-115409133D01*
X106279950Y-115476866D01*
X106279950Y-115680066D01*
X106246083Y-115747800D01*
X106212216Y-115781666D01*
X106144483Y-115815533D01*
X106042883Y-115815533D01*
X106889550Y-115781666D02*
X106821816Y-115815533D01*
X106686350Y-115815533D01*
X106618616Y-115781666D01*
X106584750Y-115747800D01*
X106550883Y-115680066D01*
X106550883Y-115476866D01*
X106584750Y-115409133D01*
X106618616Y-115375266D01*
X106686350Y-115341400D01*
X106821816Y-115341400D01*
X106889550Y-115375266D01*
X107194350Y-115815533D02*
X107194350Y-115104333D01*
X107262083Y-115544600D02*
X107465283Y-115815533D01*
X107465283Y-115341400D02*
X107194350Y-115612333D01*
X108549016Y-115443000D02*
X108650616Y-115476866D01*
X108684483Y-115510733D01*
X108718350Y-115578466D01*
X108718350Y-115680066D01*
X108684483Y-115747800D01*
X108650616Y-115781666D01*
X108582883Y-115815533D01*
X108311950Y-115815533D01*
X108311950Y-115104333D01*
X108549016Y-115104333D01*
X108616750Y-115138200D01*
X108650616Y-115172066D01*
X108684483Y-115239800D01*
X108684483Y-115307533D01*
X108650616Y-115375266D01*
X108616750Y-115409133D01*
X108549016Y-115443000D01*
X108311950Y-115443000D01*
X109327950Y-115815533D02*
X109327950Y-115443000D01*
X109294083Y-115375266D01*
X109226350Y-115341400D01*
X109090883Y-115341400D01*
X109023150Y-115375266D01*
X109327950Y-115781666D02*
X109260216Y-115815533D01*
X109090883Y-115815533D01*
X109023150Y-115781666D01*
X108989283Y-115713933D01*
X108989283Y-115646200D01*
X109023150Y-115578466D01*
X109090883Y-115544600D01*
X109260216Y-115544600D01*
X109327950Y-115510733D01*
X109632750Y-115781666D02*
X109700483Y-115815533D01*
X109835950Y-115815533D01*
X109903683Y-115781666D01*
X109937550Y-115713933D01*
X109937550Y-115680066D01*
X109903683Y-115612333D01*
X109835950Y-115578466D01*
X109734350Y-115578466D01*
X109666616Y-115544600D01*
X109632750Y-115476866D01*
X109632750Y-115443000D01*
X109666616Y-115375266D01*
X109734350Y-115341400D01*
X109835950Y-115341400D01*
X109903683Y-115375266D01*
X110513283Y-115781666D02*
X110445550Y-115815533D01*
X110310083Y-115815533D01*
X110242350Y-115781666D01*
X110208483Y-115713933D01*
X110208483Y-115443000D01*
X110242350Y-115375266D01*
X110310083Y-115341400D01*
X110445550Y-115341400D01*
X110513283Y-115375266D01*
X110547150Y-115443000D01*
X110547150Y-115510733D01*
X110208483Y-115578466D01*
X82065283Y-117009333D02*
X82065283Y-116298133D01*
X82234616Y-116298133D01*
X82336216Y-116332000D01*
X82403950Y-116399733D01*
X82437816Y-116467466D01*
X82471683Y-116602933D01*
X82471683Y-116704533D01*
X82437816Y-116840000D01*
X82403950Y-116907733D01*
X82336216Y-116975466D01*
X82234616Y-117009333D01*
X82065283Y-117009333D01*
X83047416Y-116975466D02*
X82979683Y-117009333D01*
X82844216Y-117009333D01*
X82776483Y-116975466D01*
X82742616Y-116907733D01*
X82742616Y-116636800D01*
X82776483Y-116569066D01*
X82844216Y-116535200D01*
X82979683Y-116535200D01*
X83047416Y-116569066D01*
X83081283Y-116636800D01*
X83081283Y-116704533D01*
X82742616Y-116772266D01*
X83352216Y-116975466D02*
X83419950Y-117009333D01*
X83555416Y-117009333D01*
X83623150Y-116975466D01*
X83657016Y-116907733D01*
X83657016Y-116873866D01*
X83623150Y-116806133D01*
X83555416Y-116772266D01*
X83453816Y-116772266D01*
X83386083Y-116738400D01*
X83352216Y-116670666D01*
X83352216Y-116636800D01*
X83386083Y-116569066D01*
X83453816Y-116535200D01*
X83555416Y-116535200D01*
X83623150Y-116569066D01*
X83961816Y-117009333D02*
X83961816Y-116535200D01*
X83961816Y-116298133D02*
X83927950Y-116332000D01*
X83961816Y-116365866D01*
X83995683Y-116332000D01*
X83961816Y-116298133D01*
X83961816Y-116365866D01*
X84605283Y-116535200D02*
X84605283Y-117110933D01*
X84571416Y-117178666D01*
X84537550Y-117212533D01*
X84469816Y-117246400D01*
X84368216Y-117246400D01*
X84300483Y-117212533D01*
X84605283Y-116975466D02*
X84537550Y-117009333D01*
X84402083Y-117009333D01*
X84334350Y-116975466D01*
X84300483Y-116941600D01*
X84266616Y-116873866D01*
X84266616Y-116670666D01*
X84300483Y-116602933D01*
X84334350Y-116569066D01*
X84402083Y-116535200D01*
X84537550Y-116535200D01*
X84605283Y-116569066D01*
X84943950Y-116535200D02*
X84943950Y-117009333D01*
X84943950Y-116602933D02*
X84977816Y-116569066D01*
X85045550Y-116535200D01*
X85147150Y-116535200D01*
X85214883Y-116569066D01*
X85248750Y-116636800D01*
X85248750Y-117009333D01*
X85858350Y-116975466D02*
X85790616Y-117009333D01*
X85655150Y-117009333D01*
X85587416Y-116975466D01*
X85553550Y-116907733D01*
X85553550Y-116636800D01*
X85587416Y-116569066D01*
X85655150Y-116535200D01*
X85790616Y-116535200D01*
X85858350Y-116569066D01*
X85892216Y-116636800D01*
X85892216Y-116704533D01*
X85553550Y-116772266D01*
X86501816Y-117009333D02*
X86501816Y-116298133D01*
X86501816Y-116975466D02*
X86434083Y-117009333D01*
X86298616Y-117009333D01*
X86230883Y-116975466D01*
X86197016Y-116941600D01*
X86163150Y-116873866D01*
X86163150Y-116670666D01*
X86197016Y-116602933D01*
X86230883Y-116569066D01*
X86298616Y-116535200D01*
X86434083Y-116535200D01*
X86501816Y-116569066D01*
X87382350Y-117009333D02*
X87382350Y-116298133D01*
X87382350Y-116569066D02*
X87450083Y-116535200D01*
X87585550Y-116535200D01*
X87653283Y-116569066D01*
X87687150Y-116602933D01*
X87721016Y-116670666D01*
X87721016Y-116873866D01*
X87687150Y-116941600D01*
X87653283Y-116975466D01*
X87585550Y-117009333D01*
X87450083Y-117009333D01*
X87382350Y-116975466D01*
X87958083Y-116535200D02*
X88127416Y-117009333D01*
X88296750Y-116535200D02*
X88127416Y-117009333D01*
X88059683Y-117178666D01*
X88025816Y-117212533D01*
X87958083Y-117246400D01*
X89109550Y-117009333D02*
X89109550Y-116298133D01*
X89515950Y-117009333D02*
X89211150Y-116602933D01*
X89515950Y-116298133D02*
X89109550Y-116704533D01*
X90091683Y-116975466D02*
X90023950Y-117009333D01*
X89888483Y-117009333D01*
X89820750Y-116975466D01*
X89786883Y-116907733D01*
X89786883Y-116636800D01*
X89820750Y-116569066D01*
X89888483Y-116535200D01*
X90023950Y-116535200D01*
X90091683Y-116569066D01*
X90125550Y-116636800D01*
X90125550Y-116704533D01*
X89786883Y-116772266D01*
X90430350Y-117009333D02*
X90430350Y-116535200D01*
X90430350Y-116298133D02*
X90396483Y-116332000D01*
X90430350Y-116365866D01*
X90464216Y-116332000D01*
X90430350Y-116298133D01*
X90430350Y-116365866D01*
X90667416Y-116535200D02*
X90938350Y-116535200D01*
X90769016Y-116298133D02*
X90769016Y-116907733D01*
X90802883Y-116975466D01*
X90870616Y-117009333D01*
X90938350Y-117009333D01*
X91175416Y-117009333D02*
X91175416Y-116298133D01*
X91480216Y-117009333D02*
X91480216Y-116636800D01*
X91446350Y-116569066D01*
X91378616Y-116535200D01*
X91277016Y-116535200D01*
X91209283Y-116569066D01*
X91175416Y-116602933D01*
X92597816Y-116636800D02*
X92699416Y-116670666D01*
X92733283Y-116704533D01*
X92767150Y-116772266D01*
X92767150Y-116873866D01*
X92733283Y-116941600D01*
X92699416Y-116975466D01*
X92631683Y-117009333D01*
X92360750Y-117009333D01*
X92360750Y-116298133D01*
X92597816Y-116298133D01*
X92665550Y-116332000D01*
X92699416Y-116365866D01*
X92733283Y-116433600D01*
X92733283Y-116501333D01*
X92699416Y-116569066D01*
X92665550Y-116602933D01*
X92597816Y-116636800D01*
X92360750Y-116636800D01*
X93376750Y-116535200D02*
X93376750Y-117009333D01*
X93071950Y-116535200D02*
X93071950Y-116907733D01*
X93105816Y-116975466D01*
X93173550Y-117009333D01*
X93275150Y-117009333D01*
X93342883Y-116975466D01*
X93376750Y-116941600D01*
X93715416Y-117009333D02*
X93715416Y-116535200D01*
X93715416Y-116670666D02*
X93749283Y-116602933D01*
X93783150Y-116569066D01*
X93850883Y-116535200D01*
X93918616Y-116535200D01*
X94087950Y-116535200D02*
X94460483Y-116535200D01*
X94087950Y-117009333D01*
X94460483Y-117009333D01*
X94731416Y-117009333D02*
X94731416Y-116535200D01*
X94731416Y-116298133D02*
X94697550Y-116332000D01*
X94731416Y-116365866D01*
X94765283Y-116332000D01*
X94731416Y-116298133D01*
X94731416Y-116365866D01*
X95070083Y-116535200D02*
X95070083Y-117009333D01*
X95070083Y-116602933D02*
X95103950Y-116569066D01*
X95171683Y-116535200D01*
X95273283Y-116535200D01*
X95341016Y-116569066D01*
X95374883Y-116636800D01*
X95374883Y-117009333D01*
X95679683Y-116975466D02*
X95747416Y-117009333D01*
X95882883Y-117009333D01*
X95950616Y-116975466D01*
X95984483Y-116907733D01*
X95984483Y-116873866D01*
X95950616Y-116806133D01*
X95882883Y-116772266D01*
X95781283Y-116772266D01*
X95713550Y-116738400D01*
X95679683Y-116670666D01*
X95679683Y-116636800D01*
X95713550Y-116569066D01*
X95781283Y-116535200D01*
X95882883Y-116535200D01*
X95950616Y-116569066D01*
X96289283Y-117009333D02*
X96289283Y-116298133D01*
X96357016Y-116738400D02*
X96560216Y-117009333D01*
X96560216Y-116535200D02*
X96289283Y-116806133D01*
X96865016Y-117009333D02*
X96865016Y-116535200D01*
X96865016Y-116298133D02*
X96831150Y-116332000D01*
X96865016Y-116365866D01*
X96898883Y-116332000D01*
X96865016Y-116298133D01*
X96865016Y-116365866D01*
X97948750Y-117280266D02*
X97914883Y-117246400D01*
X97847150Y-117144800D01*
X97813283Y-117077066D01*
X97779416Y-116975466D01*
X97745550Y-116806133D01*
X97745550Y-116670666D01*
X97779416Y-116501333D01*
X97813283Y-116399733D01*
X97847150Y-116332000D01*
X97914883Y-116230400D01*
X97948750Y-116196533D01*
X98659950Y-116670666D02*
X98626083Y-116636800D01*
X98558350Y-116602933D01*
X98490616Y-116602933D01*
X98422883Y-116636800D01*
X98389016Y-116670666D01*
X98355150Y-116738400D01*
X98355150Y-116806133D01*
X98389016Y-116873866D01*
X98422883Y-116907733D01*
X98490616Y-116941600D01*
X98558350Y-116941600D01*
X98626083Y-116907733D01*
X98659950Y-116873866D01*
X98659950Y-116602933D02*
X98659950Y-116873866D01*
X98693816Y-116907733D01*
X98727683Y-116907733D01*
X98795416Y-116873866D01*
X98829283Y-116806133D01*
X98829283Y-116636800D01*
X98761550Y-116535200D01*
X98659950Y-116467466D01*
X98524483Y-116433600D01*
X98389016Y-116467466D01*
X98287416Y-116535200D01*
X98219683Y-116636800D01*
X98185816Y-116772266D01*
X98219683Y-116907733D01*
X98287416Y-117009333D01*
X98389016Y-117077066D01*
X98524483Y-117110933D01*
X98659950Y-117077066D01*
X98761550Y-117009333D01*
X99134083Y-117009333D02*
X99134083Y-116298133D01*
X99201816Y-116738400D02*
X99405016Y-117009333D01*
X99405016Y-116535200D02*
X99134083Y-116806133D01*
X99709816Y-117009333D02*
X99709816Y-116298133D01*
X99709816Y-116569066D02*
X99777550Y-116535200D01*
X99913016Y-116535200D01*
X99980750Y-116569066D01*
X100014616Y-116602933D01*
X100048483Y-116670666D01*
X100048483Y-116873866D01*
X100014616Y-116941600D01*
X99980750Y-116975466D01*
X99913016Y-117009333D01*
X99777550Y-117009333D01*
X99709816Y-116975466D01*
X100285550Y-117009333D02*
X100658083Y-116535200D01*
X100285550Y-116535200D02*
X100658083Y-117009333D01*
X101030616Y-116602933D02*
X100962883Y-116569066D01*
X100929016Y-116535200D01*
X100895150Y-116467466D01*
X100895150Y-116433600D01*
X100929016Y-116365866D01*
X100962883Y-116332000D01*
X101030616Y-116298133D01*
X101166083Y-116298133D01*
X101233816Y-116332000D01*
X101267683Y-116365866D01*
X101301550Y-116433600D01*
X101301550Y-116467466D01*
X101267683Y-116535200D01*
X101233816Y-116569066D01*
X101166083Y-116602933D01*
X101030616Y-116602933D01*
X100962883Y-116636800D01*
X100929016Y-116670666D01*
X100895150Y-116738400D01*
X100895150Y-116873866D01*
X100929016Y-116941600D01*
X100962883Y-116975466D01*
X101030616Y-117009333D01*
X101166083Y-117009333D01*
X101233816Y-116975466D01*
X101267683Y-116941600D01*
X101301550Y-116873866D01*
X101301550Y-116738400D01*
X101267683Y-116670666D01*
X101233816Y-116636800D01*
X101166083Y-116602933D01*
X101978883Y-117009333D02*
X101572483Y-117009333D01*
X101775683Y-117009333D02*
X101775683Y-116298133D01*
X101707950Y-116399733D01*
X101640216Y-116467466D01*
X101572483Y-116501333D01*
X102215950Y-117280266D02*
X102249816Y-117246400D01*
X102317550Y-117144800D01*
X102351416Y-117077066D01*
X102385283Y-116975466D01*
X102419150Y-116806133D01*
X102419150Y-116670666D01*
X102385283Y-116501333D01*
X102351416Y-116399733D01*
X102317550Y-116332000D01*
X102249816Y-116230400D01*
X102215950Y-116196533D01*
X103299683Y-117009333D02*
X103299683Y-116535200D01*
X103299683Y-116298133D02*
X103265816Y-116332000D01*
X103299683Y-116365866D01*
X103333550Y-116332000D01*
X103299683Y-116298133D01*
X103299683Y-116365866D01*
X103638350Y-116535200D02*
X103638350Y-117009333D01*
X103638350Y-116602933D02*
X103672216Y-116569066D01*
X103739950Y-116535200D01*
X103841550Y-116535200D01*
X103909283Y-116569066D01*
X103943150Y-116636800D01*
X103943150Y-117009333D01*
X105230083Y-116941600D02*
X105196216Y-116975466D01*
X105094616Y-117009333D01*
X105026883Y-117009333D01*
X104925283Y-116975466D01*
X104857550Y-116907733D01*
X104823683Y-116840000D01*
X104789816Y-116704533D01*
X104789816Y-116602933D01*
X104823683Y-116467466D01*
X104857550Y-116399733D01*
X104925283Y-116332000D01*
X105026883Y-116298133D01*
X105094616Y-116298133D01*
X105196216Y-116332000D01*
X105230083Y-116365866D01*
X105534883Y-117009333D02*
X105534883Y-116298133D01*
X105839683Y-117009333D02*
X105839683Y-116636800D01*
X105805816Y-116569066D01*
X105738083Y-116535200D01*
X105636483Y-116535200D01*
X105568750Y-116569066D01*
X105534883Y-116602933D01*
X106178350Y-117009333D02*
X106178350Y-116535200D01*
X106178350Y-116298133D02*
X106144483Y-116332000D01*
X106178350Y-116365866D01*
X106212216Y-116332000D01*
X106178350Y-116298133D01*
X106178350Y-116365866D01*
X106821816Y-116975466D02*
X106754083Y-117009333D01*
X106618616Y-117009333D01*
X106550883Y-116975466D01*
X106517016Y-116941600D01*
X106483150Y-116873866D01*
X106483150Y-116670666D01*
X106517016Y-116602933D01*
X106550883Y-116569066D01*
X106618616Y-116535200D01*
X106754083Y-116535200D01*
X106821816Y-116569066D01*
X107431416Y-117009333D02*
X107431416Y-116636800D01*
X107397550Y-116569066D01*
X107329816Y-116535200D01*
X107194350Y-116535200D01*
X107126616Y-116569066D01*
X107431416Y-116975466D02*
X107363683Y-117009333D01*
X107194350Y-117009333D01*
X107126616Y-116975466D01*
X107092750Y-116907733D01*
X107092750Y-116840000D01*
X107126616Y-116772266D01*
X107194350Y-116738400D01*
X107363683Y-116738400D01*
X107431416Y-116704533D01*
X108074883Y-116535200D02*
X108074883Y-117110933D01*
X108041016Y-117178666D01*
X108007150Y-117212533D01*
X107939416Y-117246400D01*
X107837816Y-117246400D01*
X107770083Y-117212533D01*
X108074883Y-116975466D02*
X108007150Y-117009333D01*
X107871683Y-117009333D01*
X107803950Y-116975466D01*
X107770083Y-116941600D01*
X107736216Y-116873866D01*
X107736216Y-116670666D01*
X107770083Y-116602933D01*
X107803950Y-116569066D01*
X107871683Y-116535200D01*
X108007150Y-116535200D01*
X108074883Y-116569066D01*
X108515150Y-117009333D02*
X108447416Y-116975466D01*
X108413550Y-116941600D01*
X108379683Y-116873866D01*
X108379683Y-116670666D01*
X108413550Y-116602933D01*
X108447416Y-116569066D01*
X108515150Y-116535200D01*
X108616750Y-116535200D01*
X108684483Y-116569066D01*
X108718350Y-116602933D01*
X108752216Y-116670666D01*
X108752216Y-116873866D01*
X108718350Y-116941600D01*
X108684483Y-116975466D01*
X108616750Y-117009333D01*
X108515150Y-117009333D01*
X109090883Y-116975466D02*
X109090883Y-117009333D01*
X109057016Y-117077066D01*
X109023150Y-117110933D01*
X109937550Y-117009333D02*
X109937550Y-116298133D01*
X110377816Y-117009333D02*
X110310083Y-116975466D01*
X110276216Y-116907733D01*
X110276216Y-116298133D01*
X110750350Y-117009333D02*
X110682616Y-116975466D01*
X110648750Y-116907733D01*
X110648750Y-116298133D01*
X111021283Y-117009333D02*
X111021283Y-116535200D01*
X111021283Y-116298133D02*
X110987416Y-116332000D01*
X111021283Y-116365866D01*
X111055150Y-116332000D01*
X111021283Y-116298133D01*
X111021283Y-116365866D01*
X111359950Y-116535200D02*
X111359950Y-117009333D01*
X111359950Y-116602933D02*
X111393816Y-116569066D01*
X111461550Y-116535200D01*
X111563150Y-116535200D01*
X111630883Y-116569066D01*
X111664750Y-116636800D01*
X111664750Y-117009333D01*
X112105016Y-117009333D02*
X112037283Y-116975466D01*
X112003416Y-116941600D01*
X111969550Y-116873866D01*
X111969550Y-116670666D01*
X112003416Y-116602933D01*
X112037283Y-116569066D01*
X112105016Y-116535200D01*
X112206616Y-116535200D01*
X112274350Y-116569066D01*
X112308216Y-116602933D01*
X112342083Y-116670666D01*
X112342083Y-116873866D01*
X112308216Y-116941600D01*
X112274350Y-116975466D01*
X112206616Y-117009333D01*
X112105016Y-117009333D01*
X112646883Y-117009333D02*
X112646883Y-116535200D01*
X112646883Y-116298133D02*
X112613016Y-116332000D01*
X112646883Y-116365866D01*
X112680750Y-116332000D01*
X112646883Y-116298133D01*
X112646883Y-116365866D01*
X112951683Y-116975466D02*
X113019416Y-117009333D01*
X113154883Y-117009333D01*
X113222616Y-116975466D01*
X113256483Y-116907733D01*
X113256483Y-116873866D01*
X113222616Y-116806133D01*
X113154883Y-116772266D01*
X113053283Y-116772266D01*
X112985550Y-116738400D01*
X112951683Y-116670666D01*
X112951683Y-116636800D01*
X112985550Y-116569066D01*
X113053283Y-116535200D01*
X113154883Y-116535200D01*
X113222616Y-116569066D01*
X82031416Y-118169266D02*
X82133016Y-118203133D01*
X82302350Y-118203133D01*
X82370083Y-118169266D01*
X82403950Y-118135400D01*
X82437816Y-118067666D01*
X82437816Y-117999933D01*
X82403950Y-117932200D01*
X82370083Y-117898333D01*
X82302350Y-117864466D01*
X82166883Y-117830600D01*
X82099150Y-117796733D01*
X82065283Y-117762866D01*
X82031416Y-117695133D01*
X82031416Y-117627400D01*
X82065283Y-117559666D01*
X82099150Y-117525800D01*
X82166883Y-117491933D01*
X82336216Y-117491933D01*
X82437816Y-117525800D01*
X82844216Y-118203133D02*
X82776483Y-118169266D01*
X82742616Y-118135400D01*
X82708750Y-118067666D01*
X82708750Y-117864466D01*
X82742616Y-117796733D01*
X82776483Y-117762866D01*
X82844216Y-117729000D01*
X82945816Y-117729000D01*
X83013550Y-117762866D01*
X83047416Y-117796733D01*
X83081283Y-117864466D01*
X83081283Y-118067666D01*
X83047416Y-118135400D01*
X83013550Y-118169266D01*
X82945816Y-118203133D01*
X82844216Y-118203133D01*
X83690883Y-117729000D02*
X83690883Y-118203133D01*
X83386083Y-117729000D02*
X83386083Y-118101533D01*
X83419950Y-118169266D01*
X83487683Y-118203133D01*
X83589283Y-118203133D01*
X83657016Y-118169266D01*
X83690883Y-118135400D01*
X84029550Y-118203133D02*
X84029550Y-117729000D01*
X84029550Y-117864466D02*
X84063416Y-117796733D01*
X84097283Y-117762866D01*
X84165016Y-117729000D01*
X84232750Y-117729000D01*
X84774616Y-118169266D02*
X84706883Y-118203133D01*
X84571416Y-118203133D01*
X84503683Y-118169266D01*
X84469816Y-118135400D01*
X84435950Y-118067666D01*
X84435950Y-117864466D01*
X84469816Y-117796733D01*
X84503683Y-117762866D01*
X84571416Y-117729000D01*
X84706883Y-117729000D01*
X84774616Y-117762866D01*
X85350350Y-118169266D02*
X85282616Y-118203133D01*
X85147150Y-118203133D01*
X85079416Y-118169266D01*
X85045550Y-118101533D01*
X85045550Y-117830600D01*
X85079416Y-117762866D01*
X85147150Y-117729000D01*
X85282616Y-117729000D01*
X85350350Y-117762866D01*
X85384216Y-117830600D01*
X85384216Y-117898333D01*
X85045550Y-117966066D01*
X85722883Y-118169266D02*
X85722883Y-118203133D01*
X85689016Y-118270866D01*
X85655150Y-118304733D01*
X86671150Y-118203133D02*
X86603416Y-118169266D01*
X86569550Y-118101533D01*
X86569550Y-117491933D01*
X86942083Y-118203133D02*
X86942083Y-117729000D01*
X86942083Y-117491933D02*
X86908216Y-117525800D01*
X86942083Y-117559666D01*
X86975950Y-117525800D01*
X86942083Y-117491933D01*
X86942083Y-117559666D01*
X87585550Y-118169266D02*
X87517816Y-118203133D01*
X87382350Y-118203133D01*
X87314616Y-118169266D01*
X87280750Y-118135400D01*
X87246883Y-118067666D01*
X87246883Y-117864466D01*
X87280750Y-117796733D01*
X87314616Y-117762866D01*
X87382350Y-117729000D01*
X87517816Y-117729000D01*
X87585550Y-117762866D01*
X88161283Y-118169266D02*
X88093550Y-118203133D01*
X87958083Y-118203133D01*
X87890350Y-118169266D01*
X87856483Y-118101533D01*
X87856483Y-117830600D01*
X87890350Y-117762866D01*
X87958083Y-117729000D01*
X88093550Y-117729000D01*
X88161283Y-117762866D01*
X88195150Y-117830600D01*
X88195150Y-117898333D01*
X87856483Y-117966066D01*
X88499950Y-117729000D02*
X88499950Y-118203133D01*
X88499950Y-117796733D02*
X88533816Y-117762866D01*
X88601550Y-117729000D01*
X88703150Y-117729000D01*
X88770883Y-117762866D01*
X88804750Y-117830600D01*
X88804750Y-118203133D01*
X89109550Y-118169266D02*
X89177283Y-118203133D01*
X89312750Y-118203133D01*
X89380483Y-118169266D01*
X89414350Y-118101533D01*
X89414350Y-118067666D01*
X89380483Y-117999933D01*
X89312750Y-117966066D01*
X89211150Y-117966066D01*
X89143416Y-117932200D01*
X89109550Y-117864466D01*
X89109550Y-117830600D01*
X89143416Y-117762866D01*
X89211150Y-117729000D01*
X89312750Y-117729000D01*
X89380483Y-117762866D01*
X89990083Y-118169266D02*
X89922350Y-118203133D01*
X89786883Y-118203133D01*
X89719150Y-118169266D01*
X89685283Y-118101533D01*
X89685283Y-117830600D01*
X89719150Y-117762866D01*
X89786883Y-117729000D01*
X89922350Y-117729000D01*
X89990083Y-117762866D01*
X90023950Y-117830600D01*
X90023950Y-117898333D01*
X89685283Y-117966066D01*
X91446350Y-118203133D02*
X91412483Y-118203133D01*
X91344750Y-118169266D01*
X91243150Y-118067666D01*
X91073816Y-117864466D01*
X91006083Y-117762866D01*
X90972216Y-117661266D01*
X90972216Y-117593533D01*
X91006083Y-117525800D01*
X91073816Y-117491933D01*
X91107683Y-117491933D01*
X91175416Y-117525800D01*
X91209283Y-117593533D01*
X91209283Y-117627400D01*
X91175416Y-117695133D01*
X91141550Y-117729000D01*
X90938350Y-117864466D01*
X90904483Y-117898333D01*
X90870616Y-117966066D01*
X90870616Y-118067666D01*
X90904483Y-118135400D01*
X90938350Y-118169266D01*
X91006083Y-118203133D01*
X91107683Y-118203133D01*
X91175416Y-118169266D01*
X91209283Y-118135400D01*
X91310883Y-117999933D01*
X91344750Y-117898333D01*
X91344750Y-117830600D01*
X92394616Y-118203133D02*
X92326883Y-118169266D01*
X92293016Y-118135400D01*
X92259150Y-118067666D01*
X92259150Y-117864466D01*
X92293016Y-117796733D01*
X92326883Y-117762866D01*
X92394616Y-117729000D01*
X92496216Y-117729000D01*
X92563950Y-117762866D01*
X92597816Y-117796733D01*
X92631683Y-117864466D01*
X92631683Y-118067666D01*
X92597816Y-118135400D01*
X92563950Y-118169266D01*
X92496216Y-118203133D01*
X92394616Y-118203133D01*
X92834883Y-117729000D02*
X93105816Y-117729000D01*
X92936483Y-117491933D02*
X92936483Y-118101533D01*
X92970350Y-118169266D01*
X93038083Y-118203133D01*
X93105816Y-118203133D01*
X93342883Y-118203133D02*
X93342883Y-117491933D01*
X93647683Y-118203133D02*
X93647683Y-117830600D01*
X93613816Y-117762866D01*
X93546083Y-117729000D01*
X93444483Y-117729000D01*
X93376750Y-117762866D01*
X93342883Y-117796733D01*
X94257283Y-118169266D02*
X94189550Y-118203133D01*
X94054083Y-118203133D01*
X93986350Y-118169266D01*
X93952483Y-118101533D01*
X93952483Y-117830600D01*
X93986350Y-117762866D01*
X94054083Y-117729000D01*
X94189550Y-117729000D01*
X94257283Y-117762866D01*
X94291150Y-117830600D01*
X94291150Y-117898333D01*
X93952483Y-117966066D01*
X94595950Y-118203133D02*
X94595950Y-117729000D01*
X94595950Y-117864466D02*
X94629816Y-117796733D01*
X94663683Y-117762866D01*
X94731416Y-117729000D01*
X94799150Y-117729000D01*
X95882883Y-118203133D02*
X95882883Y-117491933D01*
X95882883Y-118169266D02*
X95815150Y-118203133D01*
X95679683Y-118203133D01*
X95611950Y-118169266D01*
X95578083Y-118135400D01*
X95544216Y-118067666D01*
X95544216Y-117864466D01*
X95578083Y-117796733D01*
X95611950Y-117762866D01*
X95679683Y-117729000D01*
X95815150Y-117729000D01*
X95882883Y-117762866D01*
X96492483Y-118169266D02*
X96424750Y-118203133D01*
X96289283Y-118203133D01*
X96221550Y-118169266D01*
X96187683Y-118101533D01*
X96187683Y-117830600D01*
X96221550Y-117762866D01*
X96289283Y-117729000D01*
X96424750Y-117729000D01*
X96492483Y-117762866D01*
X96526350Y-117830600D01*
X96526350Y-117898333D01*
X96187683Y-117966066D01*
X96729550Y-117729000D02*
X97000483Y-117729000D01*
X96831150Y-117491933D02*
X96831150Y-118101533D01*
X96865016Y-118169266D01*
X96932750Y-118203133D01*
X97000483Y-118203133D01*
X97542350Y-118203133D02*
X97542350Y-117830600D01*
X97508483Y-117762866D01*
X97440750Y-117729000D01*
X97305283Y-117729000D01*
X97237550Y-117762866D01*
X97542350Y-118169266D02*
X97474616Y-118203133D01*
X97305283Y-118203133D01*
X97237550Y-118169266D01*
X97203683Y-118101533D01*
X97203683Y-118033800D01*
X97237550Y-117966066D01*
X97305283Y-117932200D01*
X97474616Y-117932200D01*
X97542350Y-117898333D01*
X97881016Y-118203133D02*
X97881016Y-117729000D01*
X97881016Y-117491933D02*
X97847150Y-117525800D01*
X97881016Y-117559666D01*
X97914883Y-117525800D01*
X97881016Y-117491933D01*
X97881016Y-117559666D01*
X98321283Y-118203133D02*
X98253550Y-118169266D01*
X98219683Y-118101533D01*
X98219683Y-117491933D01*
X98558350Y-118169266D02*
X98626083Y-118203133D01*
X98761550Y-118203133D01*
X98829283Y-118169266D01*
X98863150Y-118101533D01*
X98863150Y-118067666D01*
X98829283Y-117999933D01*
X98761550Y-117966066D01*
X98659950Y-117966066D01*
X98592216Y-117932200D01*
X98558350Y-117864466D01*
X98558350Y-117830600D01*
X98592216Y-117762866D01*
X98659950Y-117729000D01*
X98761550Y-117729000D01*
X98829283Y-117762866D01*
X99167950Y-118135400D02*
X99201816Y-118169266D01*
X99167950Y-118203133D01*
X99134083Y-118169266D01*
X99167950Y-118135400D01*
X99167950Y-118203133D01*
X99167950Y-117762866D02*
X99201816Y-117796733D01*
X99167950Y-117830600D01*
X99134083Y-117796733D01*
X99167950Y-117762866D01*
X99167950Y-117830600D01*
X100048483Y-118203133D02*
X100048483Y-117491933D01*
X100353283Y-118203133D02*
X100353283Y-117830600D01*
X100319416Y-117762866D01*
X100251683Y-117729000D01*
X100150083Y-117729000D01*
X100082350Y-117762866D01*
X100048483Y-117796733D01*
X100590350Y-117729000D02*
X100861283Y-117729000D01*
X100691950Y-117491933D02*
X100691950Y-118101533D01*
X100725816Y-118169266D01*
X100793550Y-118203133D01*
X100861283Y-118203133D01*
X100996750Y-117729000D02*
X101267683Y-117729000D01*
X101098350Y-117491933D02*
X101098350Y-118101533D01*
X101132216Y-118169266D01*
X101199950Y-118203133D01*
X101267683Y-118203133D01*
X101504750Y-117729000D02*
X101504750Y-118440200D01*
X101504750Y-117762866D02*
X101572483Y-117729000D01*
X101707950Y-117729000D01*
X101775683Y-117762866D01*
X101809550Y-117796733D01*
X101843416Y-117864466D01*
X101843416Y-118067666D01*
X101809550Y-118135400D01*
X101775683Y-118169266D01*
X101707950Y-118203133D01*
X101572483Y-118203133D01*
X101504750Y-118169266D01*
X102114350Y-118169266D02*
X102182083Y-118203133D01*
X102317550Y-118203133D01*
X102385283Y-118169266D01*
X102419150Y-118101533D01*
X102419150Y-118067666D01*
X102385283Y-117999933D01*
X102317550Y-117966066D01*
X102215950Y-117966066D01*
X102148216Y-117932200D01*
X102114350Y-117864466D01*
X102114350Y-117830600D01*
X102148216Y-117762866D01*
X102215950Y-117729000D01*
X102317550Y-117729000D01*
X102385283Y-117762866D01*
X102723950Y-118135400D02*
X102757816Y-118169266D01*
X102723950Y-118203133D01*
X102690083Y-118169266D01*
X102723950Y-118135400D01*
X102723950Y-118203133D01*
X102723950Y-117762866D02*
X102757816Y-117796733D01*
X102723950Y-117830600D01*
X102690083Y-117796733D01*
X102723950Y-117762866D01*
X102723950Y-117830600D01*
X103570616Y-117458066D02*
X102961016Y-118372466D01*
X104315683Y-117458066D02*
X103706083Y-118372466D01*
X104857550Y-117729000D02*
X104857550Y-118304733D01*
X104823683Y-118372466D01*
X104789816Y-118406333D01*
X104722083Y-118440200D01*
X104620483Y-118440200D01*
X104552750Y-118406333D01*
X104857550Y-118169266D02*
X104789816Y-118203133D01*
X104654350Y-118203133D01*
X104586616Y-118169266D01*
X104552750Y-118135400D01*
X104518883Y-118067666D01*
X104518883Y-117864466D01*
X104552750Y-117796733D01*
X104586616Y-117762866D01*
X104654350Y-117729000D01*
X104789816Y-117729000D01*
X104857550Y-117762866D01*
X105196216Y-118203133D02*
X105196216Y-117729000D01*
X105196216Y-117491933D02*
X105162350Y-117525800D01*
X105196216Y-117559666D01*
X105230083Y-117525800D01*
X105196216Y-117491933D01*
X105196216Y-117559666D01*
X105433283Y-117729000D02*
X105704216Y-117729000D01*
X105534883Y-117491933D02*
X105534883Y-118101533D01*
X105568750Y-118169266D01*
X105636483Y-118203133D01*
X105704216Y-118203133D01*
X105941283Y-118203133D02*
X105941283Y-117491933D01*
X106246083Y-118203133D02*
X106246083Y-117830600D01*
X106212216Y-117762866D01*
X106144483Y-117729000D01*
X106042883Y-117729000D01*
X105975150Y-117762866D01*
X105941283Y-117796733D01*
X106889550Y-117729000D02*
X106889550Y-118203133D01*
X106584750Y-117729000D02*
X106584750Y-118101533D01*
X106618616Y-118169266D01*
X106686350Y-118203133D01*
X106787950Y-118203133D01*
X106855683Y-118169266D01*
X106889550Y-118135400D01*
X107228216Y-118203133D02*
X107228216Y-117491933D01*
X107228216Y-117762866D02*
X107295950Y-117729000D01*
X107431416Y-117729000D01*
X107499150Y-117762866D01*
X107533016Y-117796733D01*
X107566883Y-117864466D01*
X107566883Y-118067666D01*
X107533016Y-118135400D01*
X107499150Y-118169266D01*
X107431416Y-118203133D01*
X107295950Y-118203133D01*
X107228216Y-118169266D01*
X107871683Y-118135400D02*
X107905550Y-118169266D01*
X107871683Y-118203133D01*
X107837816Y-118169266D01*
X107871683Y-118135400D01*
X107871683Y-118203133D01*
X108515150Y-118169266D02*
X108447416Y-118203133D01*
X108311950Y-118203133D01*
X108244216Y-118169266D01*
X108210350Y-118135400D01*
X108176483Y-118067666D01*
X108176483Y-117864466D01*
X108210350Y-117796733D01*
X108244216Y-117762866D01*
X108311950Y-117729000D01*
X108447416Y-117729000D01*
X108515150Y-117762866D01*
X108921550Y-118203133D02*
X108853816Y-118169266D01*
X108819950Y-118135400D01*
X108786083Y-118067666D01*
X108786083Y-117864466D01*
X108819950Y-117796733D01*
X108853816Y-117762866D01*
X108921550Y-117729000D01*
X109023150Y-117729000D01*
X109090883Y-117762866D01*
X109124750Y-117796733D01*
X109158616Y-117864466D01*
X109158616Y-118067666D01*
X109124750Y-118135400D01*
X109090883Y-118169266D01*
X109023150Y-118203133D01*
X108921550Y-118203133D01*
X109463416Y-118203133D02*
X109463416Y-117729000D01*
X109463416Y-117796733D02*
X109497283Y-117762866D01*
X109565016Y-117729000D01*
X109666616Y-117729000D01*
X109734350Y-117762866D01*
X109768216Y-117830600D01*
X109768216Y-118203133D01*
X109768216Y-117830600D02*
X109802083Y-117762866D01*
X109869816Y-117729000D01*
X109971416Y-117729000D01*
X110039150Y-117762866D01*
X110073016Y-117830600D01*
X110073016Y-118203133D01*
X110919683Y-117458066D02*
X110310083Y-118372466D01*
X111156750Y-118203133D02*
X111156750Y-117491933D01*
X111224483Y-117932200D02*
X111427683Y-118203133D01*
X111427683Y-117729000D02*
X111156750Y-117999933D01*
X111732483Y-118203133D02*
X111732483Y-117491933D01*
X111732483Y-117762866D02*
X111800216Y-117729000D01*
X111935683Y-117729000D01*
X112003416Y-117762866D01*
X112037283Y-117796733D01*
X112071150Y-117864466D01*
X112071150Y-118067666D01*
X112037283Y-118135400D01*
X112003416Y-118169266D01*
X111935683Y-118203133D01*
X111800216Y-118203133D01*
X111732483Y-118169266D01*
X112308216Y-118203133D02*
X112680750Y-117729000D01*
X112308216Y-117729000D02*
X112680750Y-118203133D01*
X113053283Y-117796733D02*
X112985550Y-117762866D01*
X112951683Y-117729000D01*
X112917816Y-117661266D01*
X112917816Y-117627400D01*
X112951683Y-117559666D01*
X112985550Y-117525800D01*
X113053283Y-117491933D01*
X113188750Y-117491933D01*
X113256483Y-117525800D01*
X113290350Y-117559666D01*
X113324216Y-117627400D01*
X113324216Y-117661266D01*
X113290350Y-117729000D01*
X113256483Y-117762866D01*
X113188750Y-117796733D01*
X113053283Y-117796733D01*
X112985550Y-117830600D01*
X112951683Y-117864466D01*
X112917816Y-117932200D01*
X112917816Y-118067666D01*
X112951683Y-118135400D01*
X112985550Y-118169266D01*
X113053283Y-118203133D01*
X113188750Y-118203133D01*
X113256483Y-118169266D01*
X113290350Y-118135400D01*
X113324216Y-118067666D01*
X113324216Y-117932200D01*
X113290350Y-117864466D01*
X113256483Y-117830600D01*
X113188750Y-117796733D01*
X114001550Y-118203133D02*
X113595150Y-118203133D01*
X113798350Y-118203133D02*
X113798350Y-117491933D01*
X113730616Y-117593533D01*
X113662883Y-117661266D01*
X113595150Y-117695133D01*
X114814350Y-117458066D02*
X114204750Y-118372466D01*
X114949816Y-117491933D02*
X115356216Y-117491933D01*
X115153016Y-118203133D02*
X115153016Y-117491933D01*
X115898083Y-117729000D02*
X115898083Y-118203133D01*
X115593283Y-117729000D02*
X115593283Y-118101533D01*
X115627150Y-118169266D01*
X115694883Y-118203133D01*
X115796483Y-118203133D01*
X115864216Y-118169266D01*
X115898083Y-118135400D01*
X116236750Y-118203133D02*
X116236750Y-117491933D01*
X116236750Y-117762866D02*
X116304483Y-117729000D01*
X116439950Y-117729000D01*
X116507683Y-117762866D01*
X116541550Y-117796733D01*
X116575416Y-117864466D01*
X116575416Y-118067666D01*
X116541550Y-118135400D01*
X116507683Y-118169266D01*
X116439950Y-118203133D01*
X116304483Y-118203133D01*
X116236750Y-118169266D01*
X117151150Y-118169266D02*
X117083416Y-118203133D01*
X116947950Y-118203133D01*
X116880216Y-118169266D01*
X116846350Y-118101533D01*
X116846350Y-117830600D01*
X116880216Y-117762866D01*
X116947950Y-117729000D01*
X117083416Y-117729000D01*
X117151150Y-117762866D01*
X117185016Y-117830600D01*
X117185016Y-117898333D01*
X116846350Y-117966066D01*
X117896216Y-118135400D02*
X117862350Y-118169266D01*
X117760750Y-118203133D01*
X117693016Y-118203133D01*
X117591416Y-118169266D01*
X117523683Y-118101533D01*
X117489816Y-118033800D01*
X117455950Y-117898333D01*
X117455950Y-117796733D01*
X117489816Y-117661266D01*
X117523683Y-117593533D01*
X117591416Y-117525800D01*
X117693016Y-117491933D01*
X117760750Y-117491933D01*
X117862350Y-117525800D01*
X117896216Y-117559666D01*
X118302616Y-118203133D02*
X118234883Y-118169266D01*
X118201016Y-118101533D01*
X118201016Y-117491933D01*
X118675150Y-118203133D02*
X118607416Y-118169266D01*
X118573550Y-118135400D01*
X118539683Y-118067666D01*
X118539683Y-117864466D01*
X118573550Y-117796733D01*
X118607416Y-117762866D01*
X118675150Y-117729000D01*
X118776750Y-117729000D01*
X118844483Y-117762866D01*
X118878350Y-117796733D01*
X118912216Y-117864466D01*
X118912216Y-118067666D01*
X118878350Y-118135400D01*
X118844483Y-118169266D01*
X118776750Y-118203133D01*
X118675150Y-118203133D01*
X119521816Y-118169266D02*
X119454083Y-118203133D01*
X119318616Y-118203133D01*
X119250883Y-118169266D01*
X119217016Y-118135400D01*
X119183150Y-118067666D01*
X119183150Y-117864466D01*
X119217016Y-117796733D01*
X119250883Y-117762866D01*
X119318616Y-117729000D01*
X119454083Y-117729000D01*
X119521816Y-117762866D01*
X119826616Y-118203133D02*
X119826616Y-117491933D01*
X119894350Y-117932200D02*
X120097550Y-118203133D01*
X120097550Y-117729000D02*
X119826616Y-117999933D01*
D12*
X174279560Y-121554240D02*
X175478440Y-118455440D01*
X175478440Y-118455440D02*
X174879000Y-118854220D01*
X173878240Y-119555260D02*
X175178720Y-116753640D01*
X174279560Y-121554240D02*
X174879000Y-120855740D01*
X174678340Y-116555520D02*
X173878240Y-119555260D01*
X173878240Y-119555260D02*
X175077120Y-118755160D01*
X175077120Y-118755160D02*
X174279560Y-121554240D01*
X174279560Y-121554240D02*
X174177960Y-120655080D01*
X174777400Y-115163600D02*
X179476400Y-122148600D01*
X179476400Y-122148600D02*
X170078400Y-122148600D01*
X170078400Y-122148600D02*
X174777400Y-115163600D01*
X118008400Y-122148600D02*
X122707400Y-115163600D01*
X127406400Y-122148600D02*
X118008400Y-122148600D01*
X122707400Y-115163600D02*
X127406400Y-122148600D01*
X122209560Y-121554240D02*
X122107960Y-120655080D01*
X123007120Y-118755160D02*
X122209560Y-121554240D01*
X121808240Y-119555260D02*
X123007120Y-118755160D01*
X122608340Y-116555520D02*
X121808240Y-119555260D01*
X122209560Y-121554240D02*
X122809000Y-120855740D01*
X121808240Y-119555260D02*
X123108720Y-116753640D01*
X123408440Y-118455440D02*
X122809000Y-118854220D01*
X122209560Y-121554240D02*
X123408440Y-118455440D01*
D13*
X96164833Y-86394781D02*
G75*
G03X76321160Y-86393360I-9922433J-8324699D01*
G01*
X76319967Y-106234419D02*
G75*
G03X96163640Y-106235840I9922433J8324699D01*
G01*
X76321160Y-106235840D02*
X76321160Y-86393360D01*
X96163640Y-86393360D02*
X96163640Y-106235840D01*
X118164833Y-86394781D02*
G75*
G03X98321160Y-86393360I-9922433J-8324699D01*
G01*
X98319967Y-106234419D02*
G75*
G03X118163640Y-106235840I9922433J8324699D01*
G01*
X98321160Y-106235840D02*
X98321160Y-86393360D01*
X118163640Y-86393360D02*
X118163640Y-106235840D01*
X147664833Y-86394781D02*
G75*
G03X127821160Y-86393360I-9922433J-8324699D01*
G01*
X127819967Y-106234419D02*
G75*
G03X147663640Y-106235840I9922433J8324699D01*
G01*
X127821160Y-106235840D02*
X127821160Y-86393360D01*
X147663640Y-86393360D02*
X147663640Y-106235840D01*
X169664833Y-86394781D02*
G75*
G03X149821160Y-86393360I-9922433J-8324699D01*
G01*
X149819967Y-106234419D02*
G75*
G03X169663640Y-106235840I9922433J8324699D01*
G01*
X149821160Y-106235840D02*
X149821160Y-86393360D01*
X169663640Y-86393360D02*
X169663640Y-106235840D01*
X199164833Y-86394781D02*
G75*
G03X179321160Y-86393360I-9922433J-8324699D01*
G01*
X179319967Y-106234419D02*
G75*
G03X199163640Y-106235840I9922433J8324699D01*
G01*
X179321160Y-106235840D02*
X179321160Y-86393360D01*
X199163640Y-86393360D02*
X199163640Y-106235840D01*
X221164833Y-86394781D02*
G75*
G03X201321160Y-86393360I-9922433J-8324699D01*
G01*
X201319967Y-106234419D02*
G75*
G03X221163640Y-106235840I9922433J8324699D01*
G01*
X201321160Y-106235840D02*
X201321160Y-86393360D01*
X221163640Y-86393360D02*
X221163640Y-106235840D01*
D14*
X85480495Y-79766980D02*
X86051923Y-79766980D01*
X85766209Y-80766980D02*
X85766209Y-79766980D01*
X86813828Y-79766980D02*
X86623352Y-79766980D01*
X86528114Y-79814600D01*
X86480495Y-79862219D01*
X86385257Y-80005076D01*
X86337638Y-80195552D01*
X86337638Y-80576504D01*
X86385257Y-80671742D01*
X86432876Y-80719361D01*
X86528114Y-80766980D01*
X86718590Y-80766980D01*
X86813828Y-80719361D01*
X86861447Y-80671742D01*
X86909066Y-80576504D01*
X86909066Y-80338409D01*
X86861447Y-80243171D01*
X86813828Y-80195552D01*
X86718590Y-80147933D01*
X86528114Y-80147933D01*
X86432876Y-80195552D01*
X86385257Y-80243171D01*
X86337638Y-80338409D01*
X85051923Y-90266980D02*
X85623352Y-90266980D01*
X85337638Y-91266980D02*
X85337638Y-90266980D01*
X86099542Y-91266980D02*
X86004304Y-91219361D01*
X85956685Y-91171742D01*
X85909066Y-91076504D01*
X85909066Y-90790790D01*
X85956685Y-90695552D01*
X86004304Y-90647933D01*
X86099542Y-90600314D01*
X86242400Y-90600314D01*
X86337638Y-90647933D01*
X86385257Y-90695552D01*
X86432876Y-90790790D01*
X86432876Y-91076504D01*
X86385257Y-91171742D01*
X86337638Y-91219361D01*
X86242400Y-91266980D01*
X86099542Y-91266980D01*
X86861447Y-90600314D02*
X86861447Y-91600314D01*
X86861447Y-90647933D02*
X86956685Y-90600314D01*
X87147161Y-90600314D01*
X87242400Y-90647933D01*
X87290019Y-90695552D01*
X87337638Y-90790790D01*
X87337638Y-91076504D01*
X87290019Y-91171742D01*
X87242400Y-91219361D01*
X87147161Y-91266980D01*
X86956685Y-91266980D01*
X86861447Y-91219361D01*
X84170971Y-101743171D02*
X84313828Y-101790790D01*
X84361447Y-101838409D01*
X84409066Y-101933647D01*
X84409066Y-102076504D01*
X84361447Y-102171742D01*
X84313828Y-102219361D01*
X84218590Y-102266980D01*
X83837638Y-102266980D01*
X83837638Y-101266980D01*
X84170971Y-101266980D01*
X84266209Y-101314600D01*
X84313828Y-101362219D01*
X84361447Y-101457457D01*
X84361447Y-101552695D01*
X84313828Y-101647933D01*
X84266209Y-101695552D01*
X84170971Y-101743171D01*
X83837638Y-101743171D01*
X84980495Y-102266980D02*
X84885257Y-102219361D01*
X84837638Y-102171742D01*
X84790019Y-102076504D01*
X84790019Y-101790790D01*
X84837638Y-101695552D01*
X84885257Y-101647933D01*
X84980495Y-101600314D01*
X85123352Y-101600314D01*
X85218590Y-101647933D01*
X85266209Y-101695552D01*
X85313828Y-101790790D01*
X85313828Y-102076504D01*
X85266209Y-102171742D01*
X85218590Y-102219361D01*
X85123352Y-102266980D01*
X84980495Y-102266980D01*
X85599542Y-101600314D02*
X85980495Y-101600314D01*
X85742400Y-101266980D02*
X85742400Y-102124123D01*
X85790019Y-102219361D01*
X85885257Y-102266980D01*
X85980495Y-102266980D01*
X86170971Y-101600314D02*
X86551923Y-101600314D01*
X86313828Y-101266980D02*
X86313828Y-102124123D01*
X86361447Y-102219361D01*
X86456685Y-102266980D01*
X86551923Y-102266980D01*
X87028114Y-102266980D02*
X86932876Y-102219361D01*
X86885257Y-102171742D01*
X86837638Y-102076504D01*
X86837638Y-101790790D01*
X86885257Y-101695552D01*
X86932876Y-101647933D01*
X87028114Y-101600314D01*
X87170971Y-101600314D01*
X87266209Y-101647933D01*
X87313828Y-101695552D01*
X87361447Y-101790790D01*
X87361447Y-102076504D01*
X87313828Y-102171742D01*
X87266209Y-102219361D01*
X87170971Y-102266980D01*
X87028114Y-102266980D01*
X87790019Y-102266980D02*
X87790019Y-101600314D01*
X87790019Y-101695552D02*
X87837638Y-101647933D01*
X87932876Y-101600314D01*
X88075733Y-101600314D01*
X88170971Y-101647933D01*
X88218590Y-101743171D01*
X88218590Y-102266980D01*
X88218590Y-101743171D02*
X88266209Y-101647933D01*
X88361447Y-101600314D01*
X88504304Y-101600314D01*
X88599542Y-101647933D01*
X88647161Y-101743171D01*
X88647161Y-102266980D01*
X107480495Y-79766980D02*
X108051923Y-79766980D01*
X107766209Y-80766980D02*
X107766209Y-79766980D01*
X108861447Y-79766980D02*
X108385257Y-79766980D01*
X108337638Y-80243171D01*
X108385257Y-80195552D01*
X108480495Y-80147933D01*
X108718590Y-80147933D01*
X108813828Y-80195552D01*
X108861447Y-80243171D01*
X108909066Y-80338409D01*
X108909066Y-80576504D01*
X108861447Y-80671742D01*
X108813828Y-80719361D01*
X108718590Y-80766980D01*
X108480495Y-80766980D01*
X108385257Y-80719361D01*
X108337638Y-80671742D01*
X107051923Y-90266980D02*
X107623352Y-90266980D01*
X107337638Y-91266980D02*
X107337638Y-90266980D01*
X108099542Y-91266980D02*
X108004304Y-91219361D01*
X107956685Y-91171742D01*
X107909066Y-91076504D01*
X107909066Y-90790790D01*
X107956685Y-90695552D01*
X108004304Y-90647933D01*
X108099542Y-90600314D01*
X108242400Y-90600314D01*
X108337638Y-90647933D01*
X108385257Y-90695552D01*
X108432876Y-90790790D01*
X108432876Y-91076504D01*
X108385257Y-91171742D01*
X108337638Y-91219361D01*
X108242400Y-91266980D01*
X108099542Y-91266980D01*
X108861447Y-90600314D02*
X108861447Y-91600314D01*
X108861447Y-90647933D02*
X108956685Y-90600314D01*
X109147161Y-90600314D01*
X109242400Y-90647933D01*
X109290019Y-90695552D01*
X109337638Y-90790790D01*
X109337638Y-91076504D01*
X109290019Y-91171742D01*
X109242400Y-91219361D01*
X109147161Y-91266980D01*
X108956685Y-91266980D01*
X108861447Y-91219361D01*
X106170971Y-101743171D02*
X106313828Y-101790790D01*
X106361447Y-101838409D01*
X106409066Y-101933647D01*
X106409066Y-102076504D01*
X106361447Y-102171742D01*
X106313828Y-102219361D01*
X106218590Y-102266980D01*
X105837638Y-102266980D01*
X105837638Y-101266980D01*
X106170971Y-101266980D01*
X106266209Y-101314600D01*
X106313828Y-101362219D01*
X106361447Y-101457457D01*
X106361447Y-101552695D01*
X106313828Y-101647933D01*
X106266209Y-101695552D01*
X106170971Y-101743171D01*
X105837638Y-101743171D01*
X106980495Y-102266980D02*
X106885257Y-102219361D01*
X106837638Y-102171742D01*
X106790019Y-102076504D01*
X106790019Y-101790790D01*
X106837638Y-101695552D01*
X106885257Y-101647933D01*
X106980495Y-101600314D01*
X107123352Y-101600314D01*
X107218590Y-101647933D01*
X107266209Y-101695552D01*
X107313828Y-101790790D01*
X107313828Y-102076504D01*
X107266209Y-102171742D01*
X107218590Y-102219361D01*
X107123352Y-102266980D01*
X106980495Y-102266980D01*
X107599542Y-101600314D02*
X107980495Y-101600314D01*
X107742400Y-101266980D02*
X107742400Y-102124123D01*
X107790019Y-102219361D01*
X107885257Y-102266980D01*
X107980495Y-102266980D01*
X108170971Y-101600314D02*
X108551923Y-101600314D01*
X108313828Y-101266980D02*
X108313828Y-102124123D01*
X108361447Y-102219361D01*
X108456685Y-102266980D01*
X108551923Y-102266980D01*
X109028114Y-102266980D02*
X108932876Y-102219361D01*
X108885257Y-102171742D01*
X108837638Y-102076504D01*
X108837638Y-101790790D01*
X108885257Y-101695552D01*
X108932876Y-101647933D01*
X109028114Y-101600314D01*
X109170971Y-101600314D01*
X109266209Y-101647933D01*
X109313828Y-101695552D01*
X109361447Y-101790790D01*
X109361447Y-102076504D01*
X109313828Y-102171742D01*
X109266209Y-102219361D01*
X109170971Y-102266980D01*
X109028114Y-102266980D01*
X109790019Y-102266980D02*
X109790019Y-101600314D01*
X109790019Y-101695552D02*
X109837638Y-101647933D01*
X109932876Y-101600314D01*
X110075733Y-101600314D01*
X110170971Y-101647933D01*
X110218590Y-101743171D01*
X110218590Y-102266980D01*
X110218590Y-101743171D02*
X110266209Y-101647933D01*
X110361447Y-101600314D01*
X110504304Y-101600314D01*
X110599542Y-101647933D01*
X110647161Y-101743171D01*
X110647161Y-102266980D01*
X136980495Y-79766980D02*
X137551923Y-79766980D01*
X137266209Y-80766980D02*
X137266209Y-79766980D01*
X138313828Y-80100314D02*
X138313828Y-80766980D01*
X138075733Y-79719361D02*
X137837638Y-80433647D01*
X138456685Y-80433647D01*
X136551923Y-90266980D02*
X137123352Y-90266980D01*
X136837638Y-91266980D02*
X136837638Y-90266980D01*
X137599542Y-91266980D02*
X137504304Y-91219361D01*
X137456685Y-91171742D01*
X137409066Y-91076504D01*
X137409066Y-90790790D01*
X137456685Y-90695552D01*
X137504304Y-90647933D01*
X137599542Y-90600314D01*
X137742400Y-90600314D01*
X137837638Y-90647933D01*
X137885257Y-90695552D01*
X137932876Y-90790790D01*
X137932876Y-91076504D01*
X137885257Y-91171742D01*
X137837638Y-91219361D01*
X137742400Y-91266980D01*
X137599542Y-91266980D01*
X138361447Y-90600314D02*
X138361447Y-91600314D01*
X138361447Y-90647933D02*
X138456685Y-90600314D01*
X138647161Y-90600314D01*
X138742400Y-90647933D01*
X138790019Y-90695552D01*
X138837638Y-90790790D01*
X138837638Y-91076504D01*
X138790019Y-91171742D01*
X138742400Y-91219361D01*
X138647161Y-91266980D01*
X138456685Y-91266980D01*
X138361447Y-91219361D01*
X135670971Y-101743171D02*
X135813828Y-101790790D01*
X135861447Y-101838409D01*
X135909066Y-101933647D01*
X135909066Y-102076504D01*
X135861447Y-102171742D01*
X135813828Y-102219361D01*
X135718590Y-102266980D01*
X135337638Y-102266980D01*
X135337638Y-101266980D01*
X135670971Y-101266980D01*
X135766209Y-101314600D01*
X135813828Y-101362219D01*
X135861447Y-101457457D01*
X135861447Y-101552695D01*
X135813828Y-101647933D01*
X135766209Y-101695552D01*
X135670971Y-101743171D01*
X135337638Y-101743171D01*
X136480495Y-102266980D02*
X136385257Y-102219361D01*
X136337638Y-102171742D01*
X136290019Y-102076504D01*
X136290019Y-101790790D01*
X136337638Y-101695552D01*
X136385257Y-101647933D01*
X136480495Y-101600314D01*
X136623352Y-101600314D01*
X136718590Y-101647933D01*
X136766209Y-101695552D01*
X136813828Y-101790790D01*
X136813828Y-102076504D01*
X136766209Y-102171742D01*
X136718590Y-102219361D01*
X136623352Y-102266980D01*
X136480495Y-102266980D01*
X137099542Y-101600314D02*
X137480495Y-101600314D01*
X137242400Y-101266980D02*
X137242400Y-102124123D01*
X137290019Y-102219361D01*
X137385257Y-102266980D01*
X137480495Y-102266980D01*
X137670971Y-101600314D02*
X138051923Y-101600314D01*
X137813828Y-101266980D02*
X137813828Y-102124123D01*
X137861447Y-102219361D01*
X137956685Y-102266980D01*
X138051923Y-102266980D01*
X138528114Y-102266980D02*
X138432876Y-102219361D01*
X138385257Y-102171742D01*
X138337638Y-102076504D01*
X138337638Y-101790790D01*
X138385257Y-101695552D01*
X138432876Y-101647933D01*
X138528114Y-101600314D01*
X138670971Y-101600314D01*
X138766209Y-101647933D01*
X138813828Y-101695552D01*
X138861447Y-101790790D01*
X138861447Y-102076504D01*
X138813828Y-102171742D01*
X138766209Y-102219361D01*
X138670971Y-102266980D01*
X138528114Y-102266980D01*
X139290019Y-102266980D02*
X139290019Y-101600314D01*
X139290019Y-101695552D02*
X139337638Y-101647933D01*
X139432876Y-101600314D01*
X139575733Y-101600314D01*
X139670971Y-101647933D01*
X139718590Y-101743171D01*
X139718590Y-102266980D01*
X139718590Y-101743171D02*
X139766209Y-101647933D01*
X139861447Y-101600314D01*
X140004304Y-101600314D01*
X140099542Y-101647933D01*
X140147161Y-101743171D01*
X140147161Y-102266980D01*
X158980495Y-79766980D02*
X159551923Y-79766980D01*
X159266209Y-80766980D02*
X159266209Y-79766980D01*
X159790019Y-79766980D02*
X160409066Y-79766980D01*
X160075733Y-80147933D01*
X160218590Y-80147933D01*
X160313828Y-80195552D01*
X160361447Y-80243171D01*
X160409066Y-80338409D01*
X160409066Y-80576504D01*
X160361447Y-80671742D01*
X160313828Y-80719361D01*
X160218590Y-80766980D01*
X159932876Y-80766980D01*
X159837638Y-80719361D01*
X159790019Y-80671742D01*
X158551923Y-90266980D02*
X159123352Y-90266980D01*
X158837638Y-91266980D02*
X158837638Y-90266980D01*
X159599542Y-91266980D02*
X159504304Y-91219361D01*
X159456685Y-91171742D01*
X159409066Y-91076504D01*
X159409066Y-90790790D01*
X159456685Y-90695552D01*
X159504304Y-90647933D01*
X159599542Y-90600314D01*
X159742400Y-90600314D01*
X159837638Y-90647933D01*
X159885257Y-90695552D01*
X159932876Y-90790790D01*
X159932876Y-91076504D01*
X159885257Y-91171742D01*
X159837638Y-91219361D01*
X159742400Y-91266980D01*
X159599542Y-91266980D01*
X160361447Y-90600314D02*
X160361447Y-91600314D01*
X160361447Y-90647933D02*
X160456685Y-90600314D01*
X160647161Y-90600314D01*
X160742400Y-90647933D01*
X160790019Y-90695552D01*
X160837638Y-90790790D01*
X160837638Y-91076504D01*
X160790019Y-91171742D01*
X160742400Y-91219361D01*
X160647161Y-91266980D01*
X160456685Y-91266980D01*
X160361447Y-91219361D01*
X157670971Y-101743171D02*
X157813828Y-101790790D01*
X157861447Y-101838409D01*
X157909066Y-101933647D01*
X157909066Y-102076504D01*
X157861447Y-102171742D01*
X157813828Y-102219361D01*
X157718590Y-102266980D01*
X157337638Y-102266980D01*
X157337638Y-101266980D01*
X157670971Y-101266980D01*
X157766209Y-101314600D01*
X157813828Y-101362219D01*
X157861447Y-101457457D01*
X157861447Y-101552695D01*
X157813828Y-101647933D01*
X157766209Y-101695552D01*
X157670971Y-101743171D01*
X157337638Y-101743171D01*
X158480495Y-102266980D02*
X158385257Y-102219361D01*
X158337638Y-102171742D01*
X158290019Y-102076504D01*
X158290019Y-101790790D01*
X158337638Y-101695552D01*
X158385257Y-101647933D01*
X158480495Y-101600314D01*
X158623352Y-101600314D01*
X158718590Y-101647933D01*
X158766209Y-101695552D01*
X158813828Y-101790790D01*
X158813828Y-102076504D01*
X158766209Y-102171742D01*
X158718590Y-102219361D01*
X158623352Y-102266980D01*
X158480495Y-102266980D01*
X159099542Y-101600314D02*
X159480495Y-101600314D01*
X159242400Y-101266980D02*
X159242400Y-102124123D01*
X159290019Y-102219361D01*
X159385257Y-102266980D01*
X159480495Y-102266980D01*
X159670971Y-101600314D02*
X160051923Y-101600314D01*
X159813828Y-101266980D02*
X159813828Y-102124123D01*
X159861447Y-102219361D01*
X159956685Y-102266980D01*
X160051923Y-102266980D01*
X160528114Y-102266980D02*
X160432876Y-102219361D01*
X160385257Y-102171742D01*
X160337638Y-102076504D01*
X160337638Y-101790790D01*
X160385257Y-101695552D01*
X160432876Y-101647933D01*
X160528114Y-101600314D01*
X160670971Y-101600314D01*
X160766209Y-101647933D01*
X160813828Y-101695552D01*
X160861447Y-101790790D01*
X160861447Y-102076504D01*
X160813828Y-102171742D01*
X160766209Y-102219361D01*
X160670971Y-102266980D01*
X160528114Y-102266980D01*
X161290019Y-102266980D02*
X161290019Y-101600314D01*
X161290019Y-101695552D02*
X161337638Y-101647933D01*
X161432876Y-101600314D01*
X161575733Y-101600314D01*
X161670971Y-101647933D01*
X161718590Y-101743171D01*
X161718590Y-102266980D01*
X161718590Y-101743171D02*
X161766209Y-101647933D01*
X161861447Y-101600314D01*
X162004304Y-101600314D01*
X162099542Y-101647933D01*
X162147161Y-101743171D01*
X162147161Y-102266980D01*
X188480495Y-79766980D02*
X189051923Y-79766980D01*
X188766209Y-80766980D02*
X188766209Y-79766980D01*
X189337638Y-79862219D02*
X189385257Y-79814600D01*
X189480495Y-79766980D01*
X189718590Y-79766980D01*
X189813828Y-79814600D01*
X189861447Y-79862219D01*
X189909066Y-79957457D01*
X189909066Y-80052695D01*
X189861447Y-80195552D01*
X189290019Y-80766980D01*
X189909066Y-80766980D01*
X188051923Y-90266980D02*
X188623352Y-90266980D01*
X188337638Y-91266980D02*
X188337638Y-90266980D01*
X189099542Y-91266980D02*
X189004304Y-91219361D01*
X188956685Y-91171742D01*
X188909066Y-91076504D01*
X188909066Y-90790790D01*
X188956685Y-90695552D01*
X189004304Y-90647933D01*
X189099542Y-90600314D01*
X189242400Y-90600314D01*
X189337638Y-90647933D01*
X189385257Y-90695552D01*
X189432876Y-90790790D01*
X189432876Y-91076504D01*
X189385257Y-91171742D01*
X189337638Y-91219361D01*
X189242400Y-91266980D01*
X189099542Y-91266980D01*
X189861447Y-90600314D02*
X189861447Y-91600314D01*
X189861447Y-90647933D02*
X189956685Y-90600314D01*
X190147161Y-90600314D01*
X190242400Y-90647933D01*
X190290019Y-90695552D01*
X190337638Y-90790790D01*
X190337638Y-91076504D01*
X190290019Y-91171742D01*
X190242400Y-91219361D01*
X190147161Y-91266980D01*
X189956685Y-91266980D01*
X189861447Y-91219361D01*
X187170971Y-101743171D02*
X187313828Y-101790790D01*
X187361447Y-101838409D01*
X187409066Y-101933647D01*
X187409066Y-102076504D01*
X187361447Y-102171742D01*
X187313828Y-102219361D01*
X187218590Y-102266980D01*
X186837638Y-102266980D01*
X186837638Y-101266980D01*
X187170971Y-101266980D01*
X187266209Y-101314600D01*
X187313828Y-101362219D01*
X187361447Y-101457457D01*
X187361447Y-101552695D01*
X187313828Y-101647933D01*
X187266209Y-101695552D01*
X187170971Y-101743171D01*
X186837638Y-101743171D01*
X187980495Y-102266980D02*
X187885257Y-102219361D01*
X187837638Y-102171742D01*
X187790019Y-102076504D01*
X187790019Y-101790790D01*
X187837638Y-101695552D01*
X187885257Y-101647933D01*
X187980495Y-101600314D01*
X188123352Y-101600314D01*
X188218590Y-101647933D01*
X188266209Y-101695552D01*
X188313828Y-101790790D01*
X188313828Y-102076504D01*
X188266209Y-102171742D01*
X188218590Y-102219361D01*
X188123352Y-102266980D01*
X187980495Y-102266980D01*
X188599542Y-101600314D02*
X188980495Y-101600314D01*
X188742400Y-101266980D02*
X188742400Y-102124123D01*
X188790019Y-102219361D01*
X188885257Y-102266980D01*
X188980495Y-102266980D01*
X189170971Y-101600314D02*
X189551923Y-101600314D01*
X189313828Y-101266980D02*
X189313828Y-102124123D01*
X189361447Y-102219361D01*
X189456685Y-102266980D01*
X189551923Y-102266980D01*
X190028114Y-102266980D02*
X189932876Y-102219361D01*
X189885257Y-102171742D01*
X189837638Y-102076504D01*
X189837638Y-101790790D01*
X189885257Y-101695552D01*
X189932876Y-101647933D01*
X190028114Y-101600314D01*
X190170971Y-101600314D01*
X190266209Y-101647933D01*
X190313828Y-101695552D01*
X190361447Y-101790790D01*
X190361447Y-102076504D01*
X190313828Y-102171742D01*
X190266209Y-102219361D01*
X190170971Y-102266980D01*
X190028114Y-102266980D01*
X190790019Y-102266980D02*
X190790019Y-101600314D01*
X190790019Y-101695552D02*
X190837638Y-101647933D01*
X190932876Y-101600314D01*
X191075733Y-101600314D01*
X191170971Y-101647933D01*
X191218590Y-101743171D01*
X191218590Y-102266980D01*
X191218590Y-101743171D02*
X191266209Y-101647933D01*
X191361447Y-101600314D01*
X191504304Y-101600314D01*
X191599542Y-101647933D01*
X191647161Y-101743171D01*
X191647161Y-102266980D01*
X210480495Y-79766980D02*
X211051923Y-79766980D01*
X210766209Y-80766980D02*
X210766209Y-79766980D01*
X211909066Y-80766980D02*
X211337638Y-80766980D01*
X211623352Y-80766980D02*
X211623352Y-79766980D01*
X211528114Y-79909838D01*
X211432876Y-80005076D01*
X211337638Y-80052695D01*
X210051923Y-90266980D02*
X210623352Y-90266980D01*
X210337638Y-91266980D02*
X210337638Y-90266980D01*
X211099542Y-91266980D02*
X211004304Y-91219361D01*
X210956685Y-91171742D01*
X210909066Y-91076504D01*
X210909066Y-90790790D01*
X210956685Y-90695552D01*
X211004304Y-90647933D01*
X211099542Y-90600314D01*
X211242400Y-90600314D01*
X211337638Y-90647933D01*
X211385257Y-90695552D01*
X211432876Y-90790790D01*
X211432876Y-91076504D01*
X211385257Y-91171742D01*
X211337638Y-91219361D01*
X211242400Y-91266980D01*
X211099542Y-91266980D01*
X211861447Y-90600314D02*
X211861447Y-91600314D01*
X211861447Y-90647933D02*
X211956685Y-90600314D01*
X212147161Y-90600314D01*
X212242400Y-90647933D01*
X212290019Y-90695552D01*
X212337638Y-90790790D01*
X212337638Y-91076504D01*
X212290019Y-91171742D01*
X212242400Y-91219361D01*
X212147161Y-91266980D01*
X211956685Y-91266980D01*
X211861447Y-91219361D01*
X209170971Y-101743171D02*
X209313828Y-101790790D01*
X209361447Y-101838409D01*
X209409066Y-101933647D01*
X209409066Y-102076504D01*
X209361447Y-102171742D01*
X209313828Y-102219361D01*
X209218590Y-102266980D01*
X208837638Y-102266980D01*
X208837638Y-101266980D01*
X209170971Y-101266980D01*
X209266209Y-101314600D01*
X209313828Y-101362219D01*
X209361447Y-101457457D01*
X209361447Y-101552695D01*
X209313828Y-101647933D01*
X209266209Y-101695552D01*
X209170971Y-101743171D01*
X208837638Y-101743171D01*
X209980495Y-102266980D02*
X209885257Y-102219361D01*
X209837638Y-102171742D01*
X209790019Y-102076504D01*
X209790019Y-101790790D01*
X209837638Y-101695552D01*
X209885257Y-101647933D01*
X209980495Y-101600314D01*
X210123352Y-101600314D01*
X210218590Y-101647933D01*
X210266209Y-101695552D01*
X210313828Y-101790790D01*
X210313828Y-102076504D01*
X210266209Y-102171742D01*
X210218590Y-102219361D01*
X210123352Y-102266980D01*
X209980495Y-102266980D01*
X210599542Y-101600314D02*
X210980495Y-101600314D01*
X210742400Y-101266980D02*
X210742400Y-102124123D01*
X210790019Y-102219361D01*
X210885257Y-102266980D01*
X210980495Y-102266980D01*
X211170971Y-101600314D02*
X211551923Y-101600314D01*
X211313828Y-101266980D02*
X211313828Y-102124123D01*
X211361447Y-102219361D01*
X211456685Y-102266980D01*
X211551923Y-102266980D01*
X212028114Y-102266980D02*
X211932876Y-102219361D01*
X211885257Y-102171742D01*
X211837638Y-102076504D01*
X211837638Y-101790790D01*
X211885257Y-101695552D01*
X211932876Y-101647933D01*
X212028114Y-101600314D01*
X212170971Y-101600314D01*
X212266209Y-101647933D01*
X212313828Y-101695552D01*
X212361447Y-101790790D01*
X212361447Y-102076504D01*
X212313828Y-102171742D01*
X212266209Y-102219361D01*
X212170971Y-102266980D01*
X212028114Y-102266980D01*
X212790019Y-102266980D02*
X212790019Y-101600314D01*
X212790019Y-101695552D02*
X212837638Y-101647933D01*
X212932876Y-101600314D01*
X213075733Y-101600314D01*
X213170971Y-101647933D01*
X213218590Y-101743171D01*
X213218590Y-102266980D01*
X213218590Y-101743171D02*
X213266209Y-101647933D01*
X213361447Y-101600314D01*
X213504304Y-101600314D01*
X213599542Y-101647933D01*
X213647161Y-101743171D01*
X213647161Y-102266980D01*
M02*
